<?xml version="1.0" encoding="utf-8" standalone="no"?>
<!DOCTYPE svg PUBLIC "-//W3C//DTD SVG 1.1//EN"
  "http://www.w3.org/Graphics/SVG/1.1/DTD/svg11.dtd">
<svg xmlns:xlink="http://www.w3.org/1999/xlink" width="576pt" height="302.4pt" viewBox="0 0 576 302.4" xmlns="http://www.w3.org/2000/svg" version="1.1">
 <metadata>
  <rdf:RDF xmlns:dc="http://purl.org/dc/elements/1.1/" xmlns:cc="http://creativecommons.org/ns#" xmlns:rdf="http://www.w3.org/1999/02/22-rdf-syntax-ns#">
   <cc:Work>
    <dc:type rdf:resource="http://purl.org/dc/dcmitype/StillImage"/>
    <dc:date>2025-09-03T16:13:13.290147</dc:date>
    <dc:format>image/svg+xml</dc:format>
    <dc:creator>
     <cc:Agent>
      <dc:title>Matplotlib v3.9.4, https://matplotlib.org/</dc:title>
     </cc:Agent>
    </dc:creator>
   </cc:Work>
  </rdf:RDF>
 </metadata>
 <defs>
  <style type="text/css">*{stroke-linejoin: round; stroke-linecap: butt}</style>
 </defs>
 <g id="figure_1">
  <g id="patch_1">
   <path d="M 0 302.4 
L 576 302.4 
L 576 0 
L 0 0 
z
" style="fill: #ffffff"/>
  </g>
  <g id="axes_1">
   <g id="patch_2">
    <path d="M 54.2 260.44 
L 556.490242 260.44 
L 556.490242 25.44 
L 54.2 25.44 
z
" style="fill: #ffffff"/>
   </g>
   <g id="matplotlib.axis_1">
    <g id="xtick_1">
     <g id="line2d_1">
      <path d="M 76.963525 260.44 
L 76.963525 25.44 
" clip-path="url(#p24f9dec601)" style="fill: none; stroke-dasharray: 2.96,1.28; stroke-dashoffset: 0; stroke: #b0b0b0; stroke-opacity: 0.3; stroke-width: 0.8"/>
     </g>
     <g id="line2d_2">
      <defs>
       <path id="m480ce47577" d="M 0 0 
L 0 3.5 
" style="stroke: #000000; stroke-width: 0.8"/>
      </defs>
      <g>
       <use xlink:href="#m480ce47577" x="76.963525" y="260.44" style="stroke: #000000; stroke-width: 0.8"/>
      </g>
     </g>
     <g id="text_1">
      <!-- 0 -->
      <g transform="translate(73.782275 275.038438) scale(0.1 -0.1)">
       <defs>
        <path id="DejaVuSans-30" d="M 2034 4250 
Q 1547 4250 1301 3770 
Q 1056 3291 1056 2328 
Q 1056 1369 1301 889 
Q 1547 409 2034 409 
Q 2525 409 2770 889 
Q 3016 1369 3016 2328 
Q 3016 3291 2770 3770 
Q 2525 4250 2034 4250 
z
M 2034 4750 
Q 2819 4750 3233 4129 
Q 3647 3509 3647 2328 
Q 3647 1150 3233 529 
Q 2819 -91 2034 -91 
Q 1250 -91 836 529 
Q 422 1150 422 2328 
Q 422 3509 836 4129 
Q 1250 4750 2034 4750 
z
" transform="scale(0.015625)"/>
       </defs>
       <use xlink:href="#DejaVuSans-30"/>
      </g>
     </g>
    </g>
    <g id="xtick_2">
     <g id="line2d_3">
      <path d="M 144.813078 260.44 
L 144.813078 25.44 
" clip-path="url(#p24f9dec601)" style="fill: none; stroke-dasharray: 2.96,1.28; stroke-dashoffset: 0; stroke: #b0b0b0; stroke-opacity: 0.3; stroke-width: 0.8"/>
     </g>
     <g id="line2d_4">
      <g>
       <use xlink:href="#m480ce47577" x="144.813078" y="260.44" style="stroke: #000000; stroke-width: 0.8"/>
      </g>
     </g>
     <g id="text_2">
      <!-- 1000 -->
      <g transform="translate(132.088078 275.038438) scale(0.1 -0.1)">
       <defs>
        <path id="DejaVuSans-31" d="M 794 531 
L 1825 531 
L 1825 4091 
L 703 3866 
L 703 4441 
L 1819 4666 
L 2450 4666 
L 2450 531 
L 3481 531 
L 3481 0 
L 794 0 
L 794 531 
z
" transform="scale(0.015625)"/>
       </defs>
       <use xlink:href="#DejaVuSans-31"/>
       <use xlink:href="#DejaVuSans-30" x="63.623047"/>
       <use xlink:href="#DejaVuSans-30" x="127.246094"/>
       <use xlink:href="#DejaVuSans-30" x="190.869141"/>
      </g>
     </g>
    </g>
    <g id="xtick_3">
     <g id="line2d_5">
      <path d="M 212.662631 260.44 
L 212.662631 25.44 
" clip-path="url(#p24f9dec601)" style="fill: none; stroke-dasharray: 2.96,1.28; stroke-dashoffset: 0; stroke: #b0b0b0; stroke-opacity: 0.3; stroke-width: 0.8"/>
     </g>
     <g id="line2d_6">
      <g>
       <use xlink:href="#m480ce47577" x="212.662631" y="260.44" style="stroke: #000000; stroke-width: 0.8"/>
      </g>
     </g>
     <g id="text_3">
      <!-- 2000 -->
      <g transform="translate(199.937631 275.038438) scale(0.1 -0.1)">
       <defs>
        <path id="DejaVuSans-32" d="M 1228 531 
L 3431 531 
L 3431 0 
L 469 0 
L 469 531 
Q 828 903 1448 1529 
Q 2069 2156 2228 2338 
Q 2531 2678 2651 2914 
Q 2772 3150 2772 3378 
Q 2772 3750 2511 3984 
Q 2250 4219 1831 4219 
Q 1534 4219 1204 4116 
Q 875 4013 500 3803 
L 500 4441 
Q 881 4594 1212 4672 
Q 1544 4750 1819 4750 
Q 2544 4750 2975 4387 
Q 3406 4025 3406 3419 
Q 3406 3131 3298 2873 
Q 3191 2616 2906 2266 
Q 2828 2175 2409 1742 
Q 1991 1309 1228 531 
z
" transform="scale(0.015625)"/>
       </defs>
       <use xlink:href="#DejaVuSans-32"/>
       <use xlink:href="#DejaVuSans-30" x="63.623047"/>
       <use xlink:href="#DejaVuSans-30" x="127.246094"/>
       <use xlink:href="#DejaVuSans-30" x="190.869141"/>
      </g>
     </g>
    </g>
    <g id="xtick_4">
     <g id="line2d_7">
      <path d="M 280.512184 260.44 
L 280.512184 25.44 
" clip-path="url(#p24f9dec601)" style="fill: none; stroke-dasharray: 2.96,1.28; stroke-dashoffset: 0; stroke: #b0b0b0; stroke-opacity: 0.3; stroke-width: 0.8"/>
     </g>
     <g id="line2d_8">
      <g>
       <use xlink:href="#m480ce47577" x="280.512184" y="260.44" style="stroke: #000000; stroke-width: 0.8"/>
      </g>
     </g>
     <g id="text_4">
      <!-- 3000 -->
      <g transform="translate(267.787184 275.038438) scale(0.1 -0.1)">
       <defs>
        <path id="DejaVuSans-33" d="M 2597 2516 
Q 3050 2419 3304 2112 
Q 3559 1806 3559 1356 
Q 3559 666 3084 287 
Q 2609 -91 1734 -91 
Q 1441 -91 1130 -33 
Q 819 25 488 141 
L 488 750 
Q 750 597 1062 519 
Q 1375 441 1716 441 
Q 2309 441 2620 675 
Q 2931 909 2931 1356 
Q 2931 1769 2642 2001 
Q 2353 2234 1838 2234 
L 1294 2234 
L 1294 2753 
L 1863 2753 
Q 2328 2753 2575 2939 
Q 2822 3125 2822 3475 
Q 2822 3834 2567 4026 
Q 2313 4219 1838 4219 
Q 1578 4219 1281 4162 
Q 984 4106 628 3988 
L 628 4550 
Q 988 4650 1302 4700 
Q 1616 4750 1894 4750 
Q 2613 4750 3031 4423 
Q 3450 4097 3450 3541 
Q 3450 3153 3228 2886 
Q 3006 2619 2597 2516 
z
" transform="scale(0.015625)"/>
       </defs>
       <use xlink:href="#DejaVuSans-33"/>
       <use xlink:href="#DejaVuSans-30" x="63.623047"/>
       <use xlink:href="#DejaVuSans-30" x="127.246094"/>
       <use xlink:href="#DejaVuSans-30" x="190.869141"/>
      </g>
     </g>
    </g>
    <g id="xtick_5">
     <g id="line2d_9">
      <path d="M 348.361738 260.44 
L 348.361738 25.44 
" clip-path="url(#p24f9dec601)" style="fill: none; stroke-dasharray: 2.96,1.28; stroke-dashoffset: 0; stroke: #b0b0b0; stroke-opacity: 0.3; stroke-width: 0.8"/>
     </g>
     <g id="line2d_10">
      <g>
       <use xlink:href="#m480ce47577" x="348.361738" y="260.44" style="stroke: #000000; stroke-width: 0.8"/>
      </g>
     </g>
     <g id="text_5">
      <!-- 4000 -->
      <g transform="translate(335.636738 275.038438) scale(0.1 -0.1)">
       <defs>
        <path id="DejaVuSans-34" d="M 2419 4116 
L 825 1625 
L 2419 1625 
L 2419 4116 
z
M 2253 4666 
L 3047 4666 
L 3047 1625 
L 3713 1625 
L 3713 1100 
L 3047 1100 
L 3047 0 
L 2419 0 
L 2419 1100 
L 313 1100 
L 313 1709 
L 2253 4666 
z
" transform="scale(0.015625)"/>
       </defs>
       <use xlink:href="#DejaVuSans-34"/>
       <use xlink:href="#DejaVuSans-30" x="63.623047"/>
       <use xlink:href="#DejaVuSans-30" x="127.246094"/>
       <use xlink:href="#DejaVuSans-30" x="190.869141"/>
      </g>
     </g>
    </g>
    <g id="xtick_6">
     <g id="line2d_11">
      <path d="M 416.211291 260.44 
L 416.211291 25.44 
" clip-path="url(#p24f9dec601)" style="fill: none; stroke-dasharray: 2.96,1.28; stroke-dashoffset: 0; stroke: #b0b0b0; stroke-opacity: 0.3; stroke-width: 0.8"/>
     </g>
     <g id="line2d_12">
      <g>
       <use xlink:href="#m480ce47577" x="416.211291" y="260.44" style="stroke: #000000; stroke-width: 0.8"/>
      </g>
     </g>
     <g id="text_6">
      <!-- 5000 -->
      <g transform="translate(403.486291 275.038438) scale(0.1 -0.1)">
       <defs>
        <path id="DejaVuSans-35" d="M 691 4666 
L 3169 4666 
L 3169 4134 
L 1269 4134 
L 1269 2991 
Q 1406 3038 1543 3061 
Q 1681 3084 1819 3084 
Q 2600 3084 3056 2656 
Q 3513 2228 3513 1497 
Q 3513 744 3044 326 
Q 2575 -91 1722 -91 
Q 1428 -91 1123 -41 
Q 819 9 494 109 
L 494 744 
Q 775 591 1075 516 
Q 1375 441 1709 441 
Q 2250 441 2565 725 
Q 2881 1009 2881 1497 
Q 2881 1984 2565 2268 
Q 2250 2553 1709 2553 
Q 1456 2553 1204 2497 
Q 953 2441 691 2322 
L 691 4666 
z
" transform="scale(0.015625)"/>
       </defs>
       <use xlink:href="#DejaVuSans-35"/>
       <use xlink:href="#DejaVuSans-30" x="63.623047"/>
       <use xlink:href="#DejaVuSans-30" x="127.246094"/>
       <use xlink:href="#DejaVuSans-30" x="190.869141"/>
      </g>
     </g>
    </g>
    <g id="xtick_7">
     <g id="line2d_13">
      <path d="M 484.060844 260.44 
L 484.060844 25.44 
" clip-path="url(#p24f9dec601)" style="fill: none; stroke-dasharray: 2.96,1.28; stroke-dashoffset: 0; stroke: #b0b0b0; stroke-opacity: 0.3; stroke-width: 0.8"/>
     </g>
     <g id="line2d_14">
      <g>
       <use xlink:href="#m480ce47577" x="484.060844" y="260.44" style="stroke: #000000; stroke-width: 0.8"/>
      </g>
     </g>
     <g id="text_7">
      <!-- 6000 -->
      <g transform="translate(471.335844 275.038438) scale(0.1 -0.1)">
       <defs>
        <path id="DejaVuSans-36" d="M 2113 2584 
Q 1688 2584 1439 2293 
Q 1191 2003 1191 1497 
Q 1191 994 1439 701 
Q 1688 409 2113 409 
Q 2538 409 2786 701 
Q 3034 994 3034 1497 
Q 3034 2003 2786 2293 
Q 2538 2584 2113 2584 
z
M 3366 4563 
L 3366 3988 
Q 3128 4100 2886 4159 
Q 2644 4219 2406 4219 
Q 1781 4219 1451 3797 
Q 1122 3375 1075 2522 
Q 1259 2794 1537 2939 
Q 1816 3084 2150 3084 
Q 2853 3084 3261 2657 
Q 3669 2231 3669 1497 
Q 3669 778 3244 343 
Q 2819 -91 2113 -91 
Q 1303 -91 875 529 
Q 447 1150 447 2328 
Q 447 3434 972 4092 
Q 1497 4750 2381 4750 
Q 2619 4750 2861 4703 
Q 3103 4656 3366 4563 
z
" transform="scale(0.015625)"/>
       </defs>
       <use xlink:href="#DejaVuSans-36"/>
       <use xlink:href="#DejaVuSans-30" x="63.623047"/>
       <use xlink:href="#DejaVuSans-30" x="127.246094"/>
       <use xlink:href="#DejaVuSans-30" x="190.869141"/>
      </g>
     </g>
    </g>
    <g id="xtick_8">
     <g id="line2d_15">
      <path d="M 551.910397 260.44 
L 551.910397 25.44 
" clip-path="url(#p24f9dec601)" style="fill: none; stroke-dasharray: 2.96,1.28; stroke-dashoffset: 0; stroke: #b0b0b0; stroke-opacity: 0.3; stroke-width: 0.8"/>
     </g>
     <g id="line2d_16">
      <g>
       <use xlink:href="#m480ce47577" x="551.910397" y="260.44" style="stroke: #000000; stroke-width: 0.8"/>
      </g>
     </g>
     <g id="text_8">
      <!-- 7000 -->
      <g transform="translate(539.185397 275.038438) scale(0.1 -0.1)">
       <defs>
        <path id="DejaVuSans-37" d="M 525 4666 
L 3525 4666 
L 3525 4397 
L 1831 0 
L 1172 0 
L 2766 4134 
L 525 4134 
L 525 4666 
z
" transform="scale(0.015625)"/>
       </defs>
       <use xlink:href="#DejaVuSans-37"/>
       <use xlink:href="#DejaVuSans-30" x="63.623047"/>
       <use xlink:href="#DejaVuSans-30" x="127.246094"/>
       <use xlink:href="#DejaVuSans-30" x="190.869141"/>
      </g>
     </g>
    </g>
    <g id="text_9">
     <!-- round -->
     <g transform="translate(290.831058 288.716563) scale(0.1 -0.1)">
      <defs>
       <path id="DejaVuSans-72" d="M 2631 2963 
Q 2534 3019 2420 3045 
Q 2306 3072 2169 3072 
Q 1681 3072 1420 2755 
Q 1159 2438 1159 1844 
L 1159 0 
L 581 0 
L 581 3500 
L 1159 3500 
L 1159 2956 
Q 1341 3275 1631 3429 
Q 1922 3584 2338 3584 
Q 2397 3584 2469 3576 
Q 2541 3569 2628 3553 
L 2631 2963 
z
" transform="scale(0.015625)"/>
       <path id="DejaVuSans-6f" d="M 1959 3097 
Q 1497 3097 1228 2736 
Q 959 2375 959 1747 
Q 959 1119 1226 758 
Q 1494 397 1959 397 
Q 2419 397 2687 759 
Q 2956 1122 2956 1747 
Q 2956 2369 2687 2733 
Q 2419 3097 1959 3097 
z
M 1959 3584 
Q 2709 3584 3137 3096 
Q 3566 2609 3566 1747 
Q 3566 888 3137 398 
Q 2709 -91 1959 -91 
Q 1206 -91 779 398 
Q 353 888 353 1747 
Q 353 2609 779 3096 
Q 1206 3584 1959 3584 
z
" transform="scale(0.015625)"/>
       <path id="DejaVuSans-75" d="M 544 1381 
L 544 3500 
L 1119 3500 
L 1119 1403 
Q 1119 906 1312 657 
Q 1506 409 1894 409 
Q 2359 409 2629 706 
Q 2900 1003 2900 1516 
L 2900 3500 
L 3475 3500 
L 3475 0 
L 2900 0 
L 2900 538 
Q 2691 219 2414 64 
Q 2138 -91 1772 -91 
Q 1169 -91 856 284 
Q 544 659 544 1381 
z
M 1991 3584 
L 1991 3584 
z
" transform="scale(0.015625)"/>
       <path id="DejaVuSans-6e" d="M 3513 2113 
L 3513 0 
L 2938 0 
L 2938 2094 
Q 2938 2591 2744 2837 
Q 2550 3084 2163 3084 
Q 1697 3084 1428 2787 
Q 1159 2491 1159 1978 
L 1159 0 
L 581 0 
L 581 3500 
L 1159 3500 
L 1159 2956 
Q 1366 3272 1645 3428 
Q 1925 3584 2291 3584 
Q 2894 3584 3203 3211 
Q 3513 2838 3513 2113 
z
" transform="scale(0.015625)"/>
       <path id="DejaVuSans-64" d="M 2906 2969 
L 2906 4863 
L 3481 4863 
L 3481 0 
L 2906 0 
L 2906 525 
Q 2725 213 2448 61 
Q 2172 -91 1784 -91 
Q 1150 -91 751 415 
Q 353 922 353 1747 
Q 353 2572 751 3078 
Q 1150 3584 1784 3584 
Q 2172 3584 2448 3432 
Q 2725 3281 2906 2969 
z
M 947 1747 
Q 947 1113 1208 752 
Q 1469 391 1925 391 
Q 2381 391 2643 752 
Q 2906 1113 2906 1747 
Q 2906 2381 2643 2742 
Q 2381 3103 1925 3103 
Q 1469 3103 1208 2742 
Q 947 2381 947 1747 
z
" transform="scale(0.015625)"/>
      </defs>
      <use xlink:href="#DejaVuSans-72"/>
      <use xlink:href="#DejaVuSans-6f" x="38.863281"/>
      <use xlink:href="#DejaVuSans-75" x="100.044922"/>
      <use xlink:href="#DejaVuSans-6e" x="163.423828"/>
      <use xlink:href="#DejaVuSans-64" x="226.802734"/>
     </g>
    </g>
   </g>
   <g id="matplotlib.axis_2">
    <g id="ytick_1">
     <g id="line2d_17">
      <path d="M 54.2 242.99303 
L 556.490242 242.99303 
" clip-path="url(#p24f9dec601)" style="fill: none; stroke-dasharray: 2.96,1.28; stroke-dashoffset: 0; stroke: #b0b0b0; stroke-opacity: 0.3; stroke-width: 0.8"/>
     </g>
     <g id="line2d_18">
      <defs>
       <path id="m224b4ed97b" d="M 0 0 
L -3.5 0 
" style="stroke: #000000; stroke-width: 0.8"/>
      </defs>
      <g>
       <use xlink:href="#m224b4ed97b" x="54.2" y="242.99303" style="stroke: #000000; stroke-width: 0.8"/>
      </g>
     </g>
     <g id="text_10">
      <!-- 0.86 -->
      <g transform="translate(24.934375 246.792249) scale(0.1 -0.1)">
       <defs>
        <path id="DejaVuSans-2e" d="M 684 794 
L 1344 794 
L 1344 0 
L 684 0 
L 684 794 
z
" transform="scale(0.015625)"/>
        <path id="DejaVuSans-38" d="M 2034 2216 
Q 1584 2216 1326 1975 
Q 1069 1734 1069 1313 
Q 1069 891 1326 650 
Q 1584 409 2034 409 
Q 2484 409 2743 651 
Q 3003 894 3003 1313 
Q 3003 1734 2745 1975 
Q 2488 2216 2034 2216 
z
M 1403 2484 
Q 997 2584 770 2862 
Q 544 3141 544 3541 
Q 544 4100 942 4425 
Q 1341 4750 2034 4750 
Q 2731 4750 3128 4425 
Q 3525 4100 3525 3541 
Q 3525 3141 3298 2862 
Q 3072 2584 2669 2484 
Q 3125 2378 3379 2068 
Q 3634 1759 3634 1313 
Q 3634 634 3220 271 
Q 2806 -91 2034 -91 
Q 1263 -91 848 271 
Q 434 634 434 1313 
Q 434 1759 690 2068 
Q 947 2378 1403 2484 
z
M 1172 3481 
Q 1172 3119 1398 2916 
Q 1625 2713 2034 2713 
Q 2441 2713 2670 2916 
Q 2900 3119 2900 3481 
Q 2900 3844 2670 4047 
Q 2441 4250 2034 4250 
Q 1625 4250 1398 4047 
Q 1172 3844 1172 3481 
z
" transform="scale(0.015625)"/>
       </defs>
       <use xlink:href="#DejaVuSans-30"/>
       <use xlink:href="#DejaVuSans-2e" x="63.623047"/>
       <use xlink:href="#DejaVuSans-38" x="95.410156"/>
       <use xlink:href="#DejaVuSans-36" x="159.033203"/>
      </g>
     </g>
    </g>
    <g id="ytick_2">
     <g id="line2d_19">
      <path d="M 54.2 213.44 
L 556.490242 213.44 
" clip-path="url(#p24f9dec601)" style="fill: none; stroke-dasharray: 2.96,1.28; stroke-dashoffset: 0; stroke: #b0b0b0; stroke-opacity: 0.3; stroke-width: 0.8"/>
     </g>
     <g id="line2d_20">
      <g>
       <use xlink:href="#m224b4ed97b" x="54.2" y="213.44" style="stroke: #000000; stroke-width: 0.8"/>
      </g>
     </g>
     <g id="text_11">
      <!-- 0.88 -->
      <g transform="translate(24.934375 217.239219) scale(0.1 -0.1)">
       <use xlink:href="#DejaVuSans-30"/>
       <use xlink:href="#DejaVuSans-2e" x="63.623047"/>
       <use xlink:href="#DejaVuSans-38" x="95.410156"/>
       <use xlink:href="#DejaVuSans-38" x="159.033203"/>
      </g>
     </g>
    </g>
    <g id="ytick_3">
     <g id="line2d_21">
      <path d="M 54.2 183.88697 
L 556.490242 183.88697 
" clip-path="url(#p24f9dec601)" style="fill: none; stroke-dasharray: 2.96,1.28; stroke-dashoffset: 0; stroke: #b0b0b0; stroke-opacity: 0.3; stroke-width: 0.8"/>
     </g>
     <g id="line2d_22">
      <g>
       <use xlink:href="#m224b4ed97b" x="54.2" y="183.88697" style="stroke: #000000; stroke-width: 0.8"/>
      </g>
     </g>
     <g id="text_12">
      <!-- 0.90 -->
      <g transform="translate(24.934375 187.686188) scale(0.1 -0.1)">
       <defs>
        <path id="DejaVuSans-39" d="M 703 97 
L 703 672 
Q 941 559 1184 500 
Q 1428 441 1663 441 
Q 2288 441 2617 861 
Q 2947 1281 2994 2138 
Q 2813 1869 2534 1725 
Q 2256 1581 1919 1581 
Q 1219 1581 811 2004 
Q 403 2428 403 3163 
Q 403 3881 828 4315 
Q 1253 4750 1959 4750 
Q 2769 4750 3195 4129 
Q 3622 3509 3622 2328 
Q 3622 1225 3098 567 
Q 2575 -91 1691 -91 
Q 1453 -91 1209 -44 
Q 966 3 703 97 
z
M 1959 2075 
Q 2384 2075 2632 2365 
Q 2881 2656 2881 3163 
Q 2881 3666 2632 3958 
Q 2384 4250 1959 4250 
Q 1534 4250 1286 3958 
Q 1038 3666 1038 3163 
Q 1038 2656 1286 2365 
Q 1534 2075 1959 2075 
z
" transform="scale(0.015625)"/>
       </defs>
       <use xlink:href="#DejaVuSans-30"/>
       <use xlink:href="#DejaVuSans-2e" x="63.623047"/>
       <use xlink:href="#DejaVuSans-39" x="95.410156"/>
       <use xlink:href="#DejaVuSans-30" x="159.033203"/>
      </g>
     </g>
    </g>
    <g id="ytick_4">
     <g id="line2d_23">
      <path d="M 54.2 154.333939 
L 556.490242 154.333939 
" clip-path="url(#p24f9dec601)" style="fill: none; stroke-dasharray: 2.96,1.28; stroke-dashoffset: 0; stroke: #b0b0b0; stroke-opacity: 0.3; stroke-width: 0.8"/>
     </g>
     <g id="line2d_24">
      <g>
       <use xlink:href="#m224b4ed97b" x="54.2" y="154.333939" style="stroke: #000000; stroke-width: 0.8"/>
      </g>
     </g>
     <g id="text_13">
      <!-- 0.92 -->
      <g transform="translate(24.934375 158.133158) scale(0.1 -0.1)">
       <use xlink:href="#DejaVuSans-30"/>
       <use xlink:href="#DejaVuSans-2e" x="63.623047"/>
       <use xlink:href="#DejaVuSans-39" x="95.410156"/>
       <use xlink:href="#DejaVuSans-32" x="159.033203"/>
      </g>
     </g>
    </g>
    <g id="ytick_5">
     <g id="line2d_25">
      <path d="M 54.2 124.780909 
L 556.490242 124.780909 
" clip-path="url(#p24f9dec601)" style="fill: none; stroke-dasharray: 2.96,1.28; stroke-dashoffset: 0; stroke: #b0b0b0; stroke-opacity: 0.3; stroke-width: 0.8"/>
     </g>
     <g id="line2d_26">
      <g>
       <use xlink:href="#m224b4ed97b" x="54.2" y="124.780909" style="stroke: #000000; stroke-width: 0.8"/>
      </g>
     </g>
     <g id="text_14">
      <!-- 0.94 -->
      <g transform="translate(24.934375 128.580128) scale(0.1 -0.1)">
       <use xlink:href="#DejaVuSans-30"/>
       <use xlink:href="#DejaVuSans-2e" x="63.623047"/>
       <use xlink:href="#DejaVuSans-39" x="95.410156"/>
       <use xlink:href="#DejaVuSans-34" x="159.033203"/>
      </g>
     </g>
    </g>
    <g id="ytick_6">
     <g id="line2d_27">
      <path d="M 54.2 95.227879 
L 556.490242 95.227879 
" clip-path="url(#p24f9dec601)" style="fill: none; stroke-dasharray: 2.96,1.28; stroke-dashoffset: 0; stroke: #b0b0b0; stroke-opacity: 0.3; stroke-width: 0.8"/>
     </g>
     <g id="line2d_28">
      <g>
       <use xlink:href="#m224b4ed97b" x="54.2" y="95.227879" style="stroke: #000000; stroke-width: 0.8"/>
      </g>
     </g>
     <g id="text_15">
      <!-- 0.96 -->
      <g transform="translate(24.934375 99.027098) scale(0.1 -0.1)">
       <use xlink:href="#DejaVuSans-30"/>
       <use xlink:href="#DejaVuSans-2e" x="63.623047"/>
       <use xlink:href="#DejaVuSans-39" x="95.410156"/>
       <use xlink:href="#DejaVuSans-36" x="159.033203"/>
      </g>
     </g>
    </g>
    <g id="ytick_7">
     <g id="line2d_29">
      <path d="M 54.2 65.674848 
L 556.490242 65.674848 
" clip-path="url(#p24f9dec601)" style="fill: none; stroke-dasharray: 2.96,1.28; stroke-dashoffset: 0; stroke: #b0b0b0; stroke-opacity: 0.3; stroke-width: 0.8"/>
     </g>
     <g id="line2d_30">
      <g>
       <use xlink:href="#m224b4ed97b" x="54.2" y="65.674848" style="stroke: #000000; stroke-width: 0.8"/>
      </g>
     </g>
     <g id="text_16">
      <!-- 0.98 -->
      <g transform="translate(24.934375 69.474067) scale(0.1 -0.1)">
       <use xlink:href="#DejaVuSans-30"/>
       <use xlink:href="#DejaVuSans-2e" x="63.623047"/>
       <use xlink:href="#DejaVuSans-39" x="95.410156"/>
       <use xlink:href="#DejaVuSans-38" x="159.033203"/>
      </g>
     </g>
    </g>
    <g id="ytick_8">
     <g id="line2d_31">
      <path d="M 54.2 36.121818 
L 556.490242 36.121818 
" clip-path="url(#p24f9dec601)" style="fill: none; stroke-dasharray: 2.96,1.28; stroke-dashoffset: 0; stroke: #b0b0b0; stroke-opacity: 0.3; stroke-width: 0.8"/>
     </g>
     <g id="line2d_32">
      <g>
       <use xlink:href="#m224b4ed97b" x="54.2" y="36.121818" style="stroke: #000000; stroke-width: 0.8"/>
      </g>
     </g>
     <g id="text_17">
      <!-- 1.00 -->
      <g transform="translate(24.934375 39.921037) scale(0.1 -0.1)">
       <use xlink:href="#DejaVuSans-31"/>
       <use xlink:href="#DejaVuSans-2e" x="63.623047"/>
       <use xlink:href="#DejaVuSans-30" x="95.410156"/>
       <use xlink:href="#DejaVuSans-30" x="159.033203"/>
      </g>
     </g>
    </g>
    <g id="text_18">
     <!-- cumulative timely transfer rate -->
     <g transform="translate(18.854688 221.048594) rotate(-90) scale(0.1 -0.1)">
      <defs>
       <path id="DejaVuSans-63" d="M 3122 3366 
L 3122 2828 
Q 2878 2963 2633 3030 
Q 2388 3097 2138 3097 
Q 1578 3097 1268 2742 
Q 959 2388 959 1747 
Q 959 1106 1268 751 
Q 1578 397 2138 397 
Q 2388 397 2633 464 
Q 2878 531 3122 666 
L 3122 134 
Q 2881 22 2623 -34 
Q 2366 -91 2075 -91 
Q 1284 -91 818 406 
Q 353 903 353 1747 
Q 353 2603 823 3093 
Q 1294 3584 2113 3584 
Q 2378 3584 2631 3529 
Q 2884 3475 3122 3366 
z
" transform="scale(0.015625)"/>
       <path id="DejaVuSans-6d" d="M 3328 2828 
Q 3544 3216 3844 3400 
Q 4144 3584 4550 3584 
Q 5097 3584 5394 3201 
Q 5691 2819 5691 2113 
L 5691 0 
L 5113 0 
L 5113 2094 
Q 5113 2597 4934 2840 
Q 4756 3084 4391 3084 
Q 3944 3084 3684 2787 
Q 3425 2491 3425 1978 
L 3425 0 
L 2847 0 
L 2847 2094 
Q 2847 2600 2669 2842 
Q 2491 3084 2119 3084 
Q 1678 3084 1418 2786 
Q 1159 2488 1159 1978 
L 1159 0 
L 581 0 
L 581 3500 
L 1159 3500 
L 1159 2956 
Q 1356 3278 1631 3431 
Q 1906 3584 2284 3584 
Q 2666 3584 2933 3390 
Q 3200 3197 3328 2828 
z
" transform="scale(0.015625)"/>
       <path id="DejaVuSans-6c" d="M 603 4863 
L 1178 4863 
L 1178 0 
L 603 0 
L 603 4863 
z
" transform="scale(0.015625)"/>
       <path id="DejaVuSans-61" d="M 2194 1759 
Q 1497 1759 1228 1600 
Q 959 1441 959 1056 
Q 959 750 1161 570 
Q 1363 391 1709 391 
Q 2188 391 2477 730 
Q 2766 1069 2766 1631 
L 2766 1759 
L 2194 1759 
z
M 3341 1997 
L 3341 0 
L 2766 0 
L 2766 531 
Q 2569 213 2275 61 
Q 1981 -91 1556 -91 
Q 1019 -91 701 211 
Q 384 513 384 1019 
Q 384 1609 779 1909 
Q 1175 2209 1959 2209 
L 2766 2209 
L 2766 2266 
Q 2766 2663 2505 2880 
Q 2244 3097 1772 3097 
Q 1472 3097 1187 3025 
Q 903 2953 641 2809 
L 641 3341 
Q 956 3463 1253 3523 
Q 1550 3584 1831 3584 
Q 2591 3584 2966 3190 
Q 3341 2797 3341 1997 
z
" transform="scale(0.015625)"/>
       <path id="DejaVuSans-74" d="M 1172 4494 
L 1172 3500 
L 2356 3500 
L 2356 3053 
L 1172 3053 
L 1172 1153 
Q 1172 725 1289 603 
Q 1406 481 1766 481 
L 2356 481 
L 2356 0 
L 1766 0 
Q 1100 0 847 248 
Q 594 497 594 1153 
L 594 3053 
L 172 3053 
L 172 3500 
L 594 3500 
L 594 4494 
L 1172 4494 
z
" transform="scale(0.015625)"/>
       <path id="DejaVuSans-69" d="M 603 3500 
L 1178 3500 
L 1178 0 
L 603 0 
L 603 3500 
z
M 603 4863 
L 1178 4863 
L 1178 4134 
L 603 4134 
L 603 4863 
z
" transform="scale(0.015625)"/>
       <path id="DejaVuSans-76" d="M 191 3500 
L 800 3500 
L 1894 563 
L 2988 3500 
L 3597 3500 
L 2284 0 
L 1503 0 
L 191 3500 
z
" transform="scale(0.015625)"/>
       <path id="DejaVuSans-65" d="M 3597 1894 
L 3597 1613 
L 953 1613 
Q 991 1019 1311 708 
Q 1631 397 2203 397 
Q 2534 397 2845 478 
Q 3156 559 3463 722 
L 3463 178 
Q 3153 47 2828 -22 
Q 2503 -91 2169 -91 
Q 1331 -91 842 396 
Q 353 884 353 1716 
Q 353 2575 817 3079 
Q 1281 3584 2069 3584 
Q 2775 3584 3186 3129 
Q 3597 2675 3597 1894 
z
M 3022 2063 
Q 3016 2534 2758 2815 
Q 2500 3097 2075 3097 
Q 1594 3097 1305 2825 
Q 1016 2553 972 2059 
L 3022 2063 
z
" transform="scale(0.015625)"/>
       <path id="DejaVuSans-20" transform="scale(0.015625)"/>
       <path id="DejaVuSans-79" d="M 2059 -325 
Q 1816 -950 1584 -1140 
Q 1353 -1331 966 -1331 
L 506 -1331 
L 506 -850 
L 844 -850 
Q 1081 -850 1212 -737 
Q 1344 -625 1503 -206 
L 1606 56 
L 191 3500 
L 800 3500 
L 1894 763 
L 2988 3500 
L 3597 3500 
L 2059 -325 
z
" transform="scale(0.015625)"/>
       <path id="DejaVuSans-73" d="M 2834 3397 
L 2834 2853 
Q 2591 2978 2328 3040 
Q 2066 3103 1784 3103 
Q 1356 3103 1142 2972 
Q 928 2841 928 2578 
Q 928 2378 1081 2264 
Q 1234 2150 1697 2047 
L 1894 2003 
Q 2506 1872 2764 1633 
Q 3022 1394 3022 966 
Q 3022 478 2636 193 
Q 2250 -91 1575 -91 
Q 1294 -91 989 -36 
Q 684 19 347 128 
L 347 722 
Q 666 556 975 473 
Q 1284 391 1588 391 
Q 1994 391 2212 530 
Q 2431 669 2431 922 
Q 2431 1156 2273 1281 
Q 2116 1406 1581 1522 
L 1381 1569 
Q 847 1681 609 1914 
Q 372 2147 372 2553 
Q 372 3047 722 3315 
Q 1072 3584 1716 3584 
Q 2034 3584 2315 3537 
Q 2597 3491 2834 3397 
z
" transform="scale(0.015625)"/>
       <path id="DejaVuSans-66" d="M 2375 4863 
L 2375 4384 
L 1825 4384 
Q 1516 4384 1395 4259 
Q 1275 4134 1275 3809 
L 1275 3500 
L 2222 3500 
L 2222 3053 
L 1275 3053 
L 1275 0 
L 697 0 
L 697 3053 
L 147 3053 
L 147 3500 
L 697 3500 
L 697 3744 
Q 697 4328 969 4595 
Q 1241 4863 1831 4863 
L 2375 4863 
z
" transform="scale(0.015625)"/>
      </defs>
      <use xlink:href="#DejaVuSans-63"/>
      <use xlink:href="#DejaVuSans-75" x="54.980469"/>
      <use xlink:href="#DejaVuSans-6d" x="118.359375"/>
      <use xlink:href="#DejaVuSans-75" x="215.771484"/>
      <use xlink:href="#DejaVuSans-6c" x="279.150391"/>
      <use xlink:href="#DejaVuSans-61" x="306.933594"/>
      <use xlink:href="#DejaVuSans-74" x="368.212891"/>
      <use xlink:href="#DejaVuSans-69" x="407.421875"/>
      <use xlink:href="#DejaVuSans-76" x="435.205078"/>
      <use xlink:href="#DejaVuSans-65" x="494.384766"/>
      <use xlink:href="#DejaVuSans-20" x="555.908203"/>
      <use xlink:href="#DejaVuSans-74" x="587.695312"/>
      <use xlink:href="#DejaVuSans-69" x="626.904297"/>
      <use xlink:href="#DejaVuSans-6d" x="654.6875"/>
      <use xlink:href="#DejaVuSans-65" x="752.099609"/>
      <use xlink:href="#DejaVuSans-6c" x="813.623047"/>
      <use xlink:href="#DejaVuSans-79" x="841.40625"/>
      <use xlink:href="#DejaVuSans-20" x="900.585938"/>
      <use xlink:href="#DejaVuSans-74" x="932.373047"/>
      <use xlink:href="#DejaVuSans-72" x="971.582031"/>
      <use xlink:href="#DejaVuSans-61" x="1012.695312"/>
      <use xlink:href="#DejaVuSans-6e" x="1073.974609"/>
      <use xlink:href="#DejaVuSans-73" x="1137.353516"/>
      <use xlink:href="#DejaVuSans-66" x="1189.453125"/>
      <use xlink:href="#DejaVuSans-65" x="1224.658203"/>
      <use xlink:href="#DejaVuSans-72" x="1286.181641"/>
      <use xlink:href="#DejaVuSans-20" x="1327.294922"/>
      <use xlink:href="#DejaVuSans-72" x="1359.082031"/>
      <use xlink:href="#DejaVuSans-61" x="1400.195312"/>
      <use xlink:href="#DejaVuSans-74" x="1461.474609"/>
      <use xlink:href="#DejaVuSans-65" x="1500.683594"/>
     </g>
    </g>
   </g>
   <g id="line2d_33">
    <path d="M 77.031375 36.121818 
L 80.69525 36.121818 
L 80.7631 47.023338 
L 80.83095 46.822389 
L 81.102348 46.363889 
L 81.170197 58.053566 
L 81.238047 57.68026 
L 81.577295 56.352073 
L 82.32364 53.278875 
L 82.527188 52.601203 
L 82.595038 62.569 
L 82.662888 62.42415 
L 83.069985 61.452987 
L 83.137834 70.172049 
L 83.205684 69.995317 
L 83.409233 69.264235 
L 83.612781 68.15271 
L 83.680631 73.197655 
L 83.74848 72.944324 
L 83.884179 72.318734 
L 84.087728 85.148836 
L 84.155578 84.848057 
L 84.359126 104.312658 
L 84.426976 113.60576 
L 84.494825 113.037696 
L 84.969772 108.675938 
L 85.648268 101.754134 
L 86.80171 91.55815 
L 87.073108 89.813352 
L 87.208808 101.910205 
L 87.276657 101.468891 
L 87.344507 101.049483 
L 87.615905 116.554953 
L 88.158701 111.234404 
L 88.36225 120.431306 
L 88.565799 118.857767 
L 88.633648 125.855226 
L 88.701498 125.517106 
L 89.040746 122.777924 
L 89.108595 125.77574 
L 89.176445 125.112035 
L 90.465586 115.488896 
L 90.533436 120.319976 
L 90.601285 119.698805 
L 90.669135 119.318844 
L 90.736984 123.298899 
L 90.804834 122.922356 
L 91.008383 121.448162 
L 91.076232 125.56321 
L 91.144082 125.128008 
L 92.093975 117.721094 
L 92.90817 112.339763 
L 93.383117 108.256288 
L 93.790214 104.641179 
L 93.993763 108.40334 
L 95.011506 102.785386 
L 97.114842 91.150616 
L 98.607533 85.177764 
L 99.353878 82.332098 
L 99.421727 82.231235 
L 99.693125 90.814877 
L 99.760975 92.091696 
L 99.828824 91.906424 
L 100.100223 90.904719 
L 100.50732 89.052949 
L 100.57517 89.342784 
L 100.643019 89.106211 
L 100.710869 89.311605 
L 101.592913 86.190832 
L 101.728612 91.067826 
L 101.796462 90.789771 
L 101.932161 90.429527 
L 102.00001 92.758634 
L 102.06786 92.575454 
L 103.289152 88.118865 
L 104.713992 84.297795 
L 104.781842 85.644943 
L 104.849691 85.495027 
L 104.985391 85.211837 
L 105.324638 90.611506 
L 105.528187 90.087653 
L 105.867435 94.187042 
L 105.935284 93.935663 
L 106.206682 92.996927 
L 106.274532 93.557313 
L 106.342382 93.360024 
L 106.410231 93.167089 
L 106.54593 94.273359 
L 106.61378 94.076482 
L 107.156576 92.562499 
L 107.224426 92.99481 
L 107.292275 92.857076 
L 108.242169 90.267273 
L 110.888302 83.743586 
L 110.956151 83.624894 
L 111.024001 84.306107 
L 111.09185 84.154336 
L 111.295399 83.789983 
L 111.431098 85.47484 
L 111.498948 85.362614 
L 111.566797 85.24887 
L 111.634647 86.199339 
L 111.702496 86.078116 
L 111.906045 85.713902 
L 112.041744 87.602296 
L 112.109594 87.489793 
L 113.805832 84.540763 
L 114.077231 86.017561 
L 114.14508 85.919645 
L 114.280779 85.713776 
L 114.348629 86.244555 
L 114.416478 86.119 
L 115.027124 85.032781 
L 115.569921 84.042503 
L 115.63777 84.628312 
L 115.70562 84.527916 
L 115.909169 84.152556 
L 115.977018 84.971527 
L 116.044868 84.880255 
L 116.791213 83.817584 
L 116.926912 85.249988 
L 116.994761 85.189317 
L 117.062611 85.113689 
L 117.26616 86.483139 
L 117.673257 86.050911 
L 117.741107 85.963337 
L 117.944655 87.087286 
L 118.012505 87.025801 
L 118.283903 88.661413 
L 118.351752 88.551447 
L 118.487452 91.629643 
L 118.555301 91.55815 
L 118.75885 91.178138 
L 119.233797 95.174325 
L 119.369496 94.925054 
L 119.640894 94.47006 
L 119.708744 94.916695 
L 119.776593 94.796874 
L 119.912292 94.584647 
L 120.047991 96.004534 
L 120.115841 95.895028 
L 120.522938 95.185526 
L 120.590788 95.988735 
L 120.658637 95.843892 
L 121.337133 94.626222 
L 121.540681 96.139976 
L 121.608531 96.022396 
L 123.30477 93.19448 
L 123.372619 93.707515 
L 123.440469 93.611896 
L 123.915416 93.101315 
L 123.983265 94.066475 
L 124.051115 93.978018 
L 124.661761 93.011443 
L 124.72961 93.274678 
L 124.79746 93.195499 
L 124.86531 93.092894 
L 124.933159 93.465954 
L 125.001009 93.399554 
L 125.747354 92.227085 
L 126.832947 90.558554 
L 127.172194 90.073673 
L 127.647141 89.368474 
L 127.78284 89.960927 
L 129.139831 88.136432 
L 129.682628 87.406748 
L 129.818327 88.359136 
L 129.886177 88.2822 
L 130.428973 87.585121 
L 130.632522 88.547384 
L 130.768221 88.383887 
L 131.039619 89.317689 
L 132.871557 87.067297 
L 132.939406 87.584465 
L 133.007256 87.535976 
L 133.210805 87.307469 
L 133.482203 88.958457 
L 133.550052 88.90681 
L 134.364247 88.22897 
L 134.635645 87.93766 
L 134.839194 88.971684 
L 134.974893 88.816434 
L 135.110592 89.819897 
L 135.178442 89.739096 
L 135.314141 89.596558 
L 135.38199 89.870131 
L 135.44984 89.812657 
L 136.467583 88.81998 
L 136.535433 89.115674 
L 136.603282 89.038259 
L 136.94253 88.643671 
L 137.146079 89.679366 
L 137.553176 89.23319 
L 137.688875 90.019022 
L 137.756725 89.937782 
L 138.163822 89.56073 
L 139.113716 88.524334 
L 139.181565 88.693769 
L 139.249415 88.628387 
L 140.063609 87.801005 
L 140.199309 87.815994 
L 140.809955 87.163077 
L 140.877804 87.254462 
L 140.945654 87.846531 
L 141.013503 87.797216 
L 141.895547 87.031359 
L 141.963397 87.602147 
L 142.031247 87.553017 
L 142.506193 87.155739 
L 142.709742 87.879109 
L 143.320388 87.351398 
L 143.388238 87.662147 
L 143.456087 87.590639 
L 143.931034 87.248759 
L 143.998884 87.559054 
L 144.066733 87.506091 
L 144.270282 87.338628 
L 144.338131 87.797245 
L 144.405981 87.742484 
L 144.60953 87.594563 
L 144.677379 87.760035 
L 144.745229 87.695437 
L 145.355875 87.18712 
L 145.695122 86.888876 
L 146.373618 86.332404 
L 146.916414 86.028865 
L 147.052113 86.736775 
L 147.119963 86.676731 
L 147.934158 86.027227 
L 148.612653 85.542432 
L 148.680503 86.014483 
L 148.748352 85.957584 
L 148.816202 85.927513 
L 148.884051 86.200797 
L 148.951901 86.133802 
L 149.494697 85.705138 
L 149.562547 86.174779 
L 149.630396 86.129221 
L 149.969644 85.865795 
L 150.037494 86.054791 
L 150.105343 85.991647 
L 151.055237 85.248573 
L 151.123087 85.625222 
L 151.190936 85.561303 
L 151.258786 85.505509 
L 151.326635 85.645788 
L 151.394485 85.585244 
L 151.530184 85.474103 
L 151.598034 85.620928 
L 151.665883 85.561469 
L 151.733733 85.525071 
L 151.801582 85.875349 
L 151.869432 85.848318 
L 152.208679 85.607929 
L 152.344379 86.108379 
L 152.412228 86.070338 
L 152.751476 85.759473 
L 152.887175 86.143999 
L 153.022874 86.049838 
L 153.362122 85.814428 
L 153.565671 85.653578 
L 153.63352 85.940361 
L 153.70137 85.903992 
L 154.447715 85.343585 
L 154.719113 86.282165 
L 155.397608 85.771231 
L 155.465458 86.193144 
L 155.533308 86.153804 
L 156.551051 85.4216 
L 156.6189 85.990799 
L 156.68675 85.948555 
L 157.025998 85.824205 
L 157.093847 86.164682 
L 157.161697 86.104095 
L 157.568794 85.794603 
L 157.636644 85.998705 
L 157.704493 85.950483 
L 157.840192 85.863045 
L 157.908042 86.284136 
L 157.975892 86.236553 
L 158.043741 86.395701 
L 158.111591 86.362745 
L 158.315139 86.224798 
L 158.382989 86.381782 
L 158.450838 86.337333 
L 158.857936 86.049961 
L 158.925785 86.397416 
L 158.993635 86.353297 
L 159.129334 86.271052 
L 159.265033 86.868633 
L 159.604281 86.628288 
L 159.67213 86.894429 
L 159.73998 86.835862 
L 160.079228 86.600792 
L 160.147077 87.029863 
L 160.214927 86.984489 
L 160.961272 86.522431 
L 161.029121 86.873335 
L 161.096971 86.837105 
L 161.843316 86.338745 
L 161.911166 86.655556 
L 161.979015 86.610817 
L 162.657511 86.156766 
L 162.72536 86.114959 
L 163.132458 87.035764 
L 163.539555 86.801097 
L 163.743104 87.123521 
L 164.760847 86.471688 
L 164.828696 86.581474 
L 164.896546 86.533823 
L 165.439342 86.356972 
L 165.575041 86.447334 
L 166.864183 85.656433 
L 166.932033 85.62557 
L 166.999882 85.979814 
L 167.067732 85.943635 
L 167.135581 85.88882 
L 167.27128 85.963996 
L 168.289024 85.492621 
L 168.424723 85.879279 
L 168.492572 85.835543 
L 168.628271 85.736943 
L 168.89967 86.472258 
L 169.646015 86.025173 
L 169.849563 85.902007 
L 169.985262 86.007135 
L 170.32451 85.803925 
L 170.595908 86.668035 
L 170.731607 86.583481 
L 171.138705 86.304904 
L 171.206554 86.504986 
L 171.274404 86.463453 
L 171.749351 86.232865 
L 171.952899 86.207715 
L 172.156448 86.407536 
L 322.23966 86.406305 
L 322.23966 86.406305 
" clip-path="url(#p24f9dec601)" style="fill: none; stroke: #1f77b4; stroke-width: 1.8; stroke-linecap: square"/>
   </g>
   <g id="line2d_34">
    <path d="M 77.031375 249.758182 
L 77.234923 90.513898 
L 77.302773 78.746381 
L 77.370622 92.498081 
L 77.438472 84.948564 
L 77.574171 74.061519 
L 77.642021 88.830175 
L 77.70987 83.841076 
L 77.913419 73.547053 
L 77.981268 88.766892 
L 78.049118 85.265179 
L 78.116967 82.862772 
L 78.184817 93.108379 
L 78.252667 90.251726 
L 78.659764 77.008292 
L 78.795463 74.02737 
L 78.863313 86.83184 
L 78.931162 84.985137 
L 78.999012 91.070864 
L 79.066861 89.412269 
L 79.134711 87.850867 
L 79.406109 100.713176 
L 79.745357 93.224879 
L 79.948905 98.772594 
L 80.016755 100.087675 
L 80.220304 96.287398 
L 80.288153 104.298317 
L 80.356003 102.826401 
L 80.423852 101.63697 
L 80.491702 103.065917 
L 80.627401 100.718606 
L 80.69525 101.729282 
L 80.7631 104.639343 
L 80.83095 103.359878 
L 80.966649 101.073533 
L 81.034498 102.015869 
L 81.238047 99.092373 
L 81.305896 101.437069 
L 81.373746 100.47655 
L 81.441596 101.42935 
L 81.509445 100.532269 
L 81.577295 101.919533 
L 81.645144 100.857527 
L 81.712994 105.023836 
L 81.780843 104.144741 
L 81.984392 101.420222 
L 82.052242 103.835464 
L 82.120091 102.984954 
L 82.595038 97.599472 
L 82.662888 98.899278 
L 82.730737 98.109224 
L 83.273534 92.954569 
L 83.341383 92.372663 
L 83.409233 94.223091 
L 83.477082 93.640884 
L 83.544932 93.062987 
L 83.612781 94.408513 
L 83.680631 93.769197 
L 83.81633 92.628223 
L 84.019879 96.830447 
L 84.087728 96.19036 
L 84.223427 94.963346 
L 84.562675 99.544504 
L 84.901923 96.921587 
L 85.105471 100.551227 
L 85.30902 98.959902 
L 85.37687 100.488108 
L 85.444719 99.933444 
L 85.648268 102.510903 
L 85.783967 104.419558 
L 85.851817 103.877412 
L 85.987516 102.867623 
L 86.055365 103.404478 
L 86.462463 100.519338 
L 86.598162 102.508689 
L 86.666011 101.995477 
L 87.005259 99.664874 
L 87.073108 100.420383 
L 87.140958 100.000028 
L 87.276657 99.211217 
L 87.412356 100.398246 
L 87.480206 99.970958 
L 87.751604 98.317141 
L 87.819454 99.506334 
L 87.887303 99.120284 
L 87.955153 99.823328 
L 88.023002 99.440219 
L 88.4301 97.088982 
L 88.497949 97.810286 
L 88.565799 97.430773 
L 88.905046 95.75429 
L 88.972896 96.511283 
L 89.040746 96.212099 
L 89.108595 95.899493 
L 89.176445 97.267406 
L 89.244294 96.90337 
L 89.447843 95.89641 
L 89.515692 96.525882 
L 89.583542 96.235612 
L 89.719241 95.624564 
L 89.787091 96.596465 
L 89.85494 96.253258 
L 90.465586 93.741278 
L 90.533436 94.915283 
L 90.601285 94.62029 
L 90.669135 94.349514 
L 90.736984 96.417669 
L 90.804834 96.144722 
L 90.872683 95.834768 
L 91.008383 96.702896 
L 91.279781 95.52749 
L 91.34763 96.687626 
L 91.41548 96.369778 
L 91.483329 96.062126 
L 91.551179 97.293368 
L 91.619029 96.994444 
L 91.754728 96.479999 
L 91.958276 98.512645 
L 92.026126 98.263745 
L 92.433223 96.715989 
L 92.501073 98.141199 
L 92.568922 97.855518 
L 92.704621 97.288733 
L 92.840321 98.891516 
L 92.90817 98.658086 
L 93.315267 97.046573 
L 93.383117 97.746927 
L 93.450966 97.516145 
L 93.654515 98.188791 
L 93.790214 99.256173 
L 93.858064 98.981987 
L 94.536559 96.416995 
L 94.604409 96.930236 
L 94.672258 96.710319 
L 95.350754 94.392203 
L 95.418604 94.821039 
L 95.486453 94.586947 
L 96.097099 92.688466 
L 96.164949 92.851486 
L 96.232798 92.641575 
L 96.300648 92.993585 
L 96.368497 92.782076 
L 96.436347 92.572134 
L 96.504196 93.108888 
L 96.572046 92.896914 
L 96.775595 92.265658 
L 96.843444 92.698843 
L 96.911294 92.48515 
L 97.046993 92.101773 
L 97.114842 92.447988 
L 97.182692 92.252011 
L 97.250541 92.077935 
L 97.45409 93.273506 
L 97.589789 92.870271 
L 97.657639 93.37683 
L 97.725488 93.171729 
L 98.539683 90.985817 
L 98.675382 91.599092 
L 98.878931 91.066139 
L 98.94678 91.494911 
L 99.01463 91.329074 
L 99.218178 90.780684 
L 99.286028 91.211619 
L 99.353878 91.037118 
L 99.421727 91.311931 
L 99.489577 91.13414 
L 100.303771 89.174547 
L 100.371621 90.678055 
L 100.43947 90.509441 
L 100.57517 90.177207 
L 100.643019 90.640113 
L 100.710869 90.477406 
L 100.778718 90.332548 
L 100.846568 90.526724 
L 101.117966 89.895835 
L 101.253665 90.355839 
L 101.592913 89.5976 
L 101.660762 89.787401 
L 101.796462 89.49902 
L 101.864311 90.029658 
L 101.932161 89.873207 
L 102.203559 89.27371 
L 102.407107 90.083151 
L 103.289152 88.250324 
L 103.424851 88.90329 
L 103.4927 88.764184 
L 104.103346 87.538238 
L 104.171196 87.786706 
L 104.239045 87.654336 
L 104.510444 87.130047 
L 104.578293 87.396792 
L 104.646143 87.268932 
L 105.12109 86.365072 
L 105.188939 86.721022 
L 105.256789 86.593272 
L 106.138833 85.031963 
L 106.206682 85.364434 
L 106.274532 85.240428 
L 109.870558 79.777783 
L 110.074107 79.505897 
L 110.277656 79.929088 
L 110.820452 79.19902 
L 110.888302 79.608345 
L 110.956151 79.516303 
L 111.634647 78.667979 
L 111.838195 79.373365 
L 111.906045 79.283342 
L 112.109594 79.021489 
L 112.177443 79.173856 
L 112.245293 79.091125 
L 112.58454 78.676339 
L 112.65239 78.793524 
L 112.72024 78.722362 
L 113.534434 77.758816 
L 113.602284 78.104296 
L 113.670133 78.022131 
L 114.077231 77.546745 
L 114.14508 78.189381 
L 114.21293 78.111959 
L 114.484328 77.806008 
L 114.552178 78.048063 
L 114.620027 77.97084 
L 115.230673 77.286677 
L 115.298523 77.593026 
L 115.366372 77.515518 
L 116.926912 75.859669 
L 116.994761 76.150193 
L 117.062611 76.079441 
L 117.19831 75.937073 
L 117.26616 76.075294 
L 117.334009 76.00437 
L 117.741107 75.598242 
L 117.808956 75.940539 
L 117.876806 75.869239 
L 118.555301 75.224299 
L 118.75885 75.024043 
L 118.826699 75.159325 
L 118.894549 75.092658 
L 120.115841 73.987457 
L 120.25154 73.944099 
L 121.269283 73.067853 
L 121.337133 73.198521 
L 121.404982 73.151013 
L 122.151327 72.529228 
L 122.219177 72.723781 
L 122.287027 72.666629 
L 122.829823 72.217682 
L 122.965522 72.812409 
L 123.983265 71.998302 
L 124.051115 72.180136 
L 124.118964 72.130422 
L 124.79746 71.613567 
L 125.001009 72.183433 
L 125.068858 72.131058 
L 125.950902 71.466707 
L 126.154451 71.828966 
L 126.900796 71.384066 
L 126.968646 71.693489 
L 127.036495 71.6439 
L 127.714991 71.16391 
L 127.85069 71.208059 
L 128.189938 70.965246 
L 128.257787 71.202165 
L 128.325637 71.154513 
L 129.479079 70.390767 
L 129.546929 70.755166 
L 129.614778 70.711402 
L 130.361123 70.228377 
L 130.428973 70.34291 
L 130.496822 70.296751 
L 131.514566 69.652372 
L 131.582415 69.827493 
L 131.650265 69.7855 
L 132.600159 69.204533 
L 132.803707 69.077717 
L 132.871557 69.462775 
L 132.939406 69.419802 
L 133.142955 69.292499 
L 133.210805 69.485601 
L 133.278654 69.445748 
L 134.635645 68.672777 
L 134.703495 68.902731 
L 134.771344 68.865951 
L 135.314141 68.566084 
L 135.38199 68.916588 
L 135.44984 68.877034 
L 135.721238 68.719321 
L 135.789088 68.884762 
L 135.856937 68.846881 
L 136.128335 68.698463 
L 136.196185 69.022779 
L 136.264035 68.987247 
L 137.146079 68.597895 
L 137.213928 68.831315 
L 137.281778 68.809696 
L 139.588663 68.097177 
L 139.656512 68.369211 
L 139.724362 68.350087 
L 140.199309 68.220223 
L 140.267158 68.529517 
L 140.335008 68.510824 
L 144.134583 67.742282 
L 146.645016 67.551213 
L 151.801582 67.388138 
L 191.968518 67.458576 
L 192.172066 67.513476 
L 192.647013 67.603374 
L 192.918411 67.713143 
L 194.004004 67.801799 
L 194.207553 67.856666 
L 196.10734 67.965581 
L 196.378739 68.00215 
L 197.871429 68.07407 
L 198.074977 68.128913 
L 201.535305 68.238179 
L 201.806703 68.274732 
L 205.606278 68.382341 
L 205.877676 68.491967 
L 208.591658 68.565041 
L 208.795207 68.619842 
L 219.108339 68.708696 
L 219.379737 68.74522 
L 221.95802 68.817024 
L 222.161569 68.871799 
L 227.589533 68.961838 
L 227.793082 69.0166 
L 231.592657 69.107861 
L 231.796205 69.161778 
L 237.08847 69.251763 
L 237.359869 69.287835 
L 240.752346 69.379055 
L 241.023745 69.41554 
L 251.811823 69.520765 
L 252.015372 69.575474 
L 261.582159 69.647142 
L 261.785708 69.701839 
L 272.438088 69.81037 
L 272.709486 69.846826 
L 286.890042 69.954047 
L 287.364989 69.972271 
L 342.662375 70.081601 
L 343.137322 70.099821 
L 359.896162 70.190055 
L 360.09971 70.244705 
L 381.065222 70.352264 
L 381.675868 70.406898 
L 403.930522 70.49491 
L 404.20192 70.531323 
L 408.272893 70.640551 
L 408.612141 70.731561 
L 416.686238 70.82256 
L 416.957636 70.858956 
L 433.784325 70.949939 
L 433.987874 71.004523 
L 440.501431 71.095488 
L 440.772829 71.13187 
L 453.121448 71.221491 
L 453.324996 71.276053 
L 458.685111 71.366979 
L 458.956509 71.403347 
L 470.558783 71.457894 
L 470.558783 71.457894 
" clip-path="url(#p24f9dec601)" style="fill: none; stroke: #ff7f0e; stroke-width: 1.8; stroke-linecap: square"/>
   </g>
   <g id="line2d_35">
    <path d="M 77.031375 186.028494 
L 77.234923 71.184735 
L 77.438472 56.167478 
L 77.574171 156.167362 
L 77.642021 146.394319 
L 77.845569 121.400762 
L 78.049118 138.683749 
L 78.252667 127.425569 
L 78.659764 106.21761 
L 78.727613 104.176705 
L 78.863313 114.393458 
L 78.931162 111.411681 
L 78.999012 115.719068 
L 79.066861 130.580543 
L 79.134711 127.6351 
L 79.881056 104.59368 
L 79.948905 106.064301 
L 80.084605 102.82291 
L 80.152454 104.910545 
L 80.627401 96.325258 
L 80.69525 100.724727 
L 80.7631 99.696479 
L 80.83095 99.303655 
L 80.966649 105.695754 
L 81.034498 110.33384 
L 81.102348 109.033376 
L 81.577295 102.894355 
L 81.712994 101.405665 
L 81.848693 107.9521 
L 81.916542 106.733213 
L 82.120091 103.663725 
L 82.25579 108.806444 
L 82.32364 116.325046 
L 82.391489 115.483504 
L 82.459339 114.549016 
L 82.595038 120.125295 
L 82.662888 118.976117 
L 82.866436 117.134991 
L 83.273534 112.466394 
L 83.680631 107.871023 
L 83.74848 107.065882 
L 83.884179 109.398883 
L 83.952029 108.733187 
L 84.019879 107.961882 
L 84.087728 109.067658 
L 84.155578 108.65675 
L 84.291277 107.216922 
L 84.359126 109.927312 
L 84.426976 109.108732 
L 84.494825 108.446487 
L 84.562675 109.798697 
L 84.630525 109.069406 
L 84.766224 107.794193 
L 84.834073 110.966945 
L 84.901923 110.262818 
L 85.580418 104.399396 
L 85.648268 106.276897 
L 85.716117 105.633694 
L 86.326763 101.310112 
L 86.86956 97.519295 
L 86.937409 97.884078 
L 87.005259 99.283683 
L 87.073108 98.802483 
L 87.276657 97.463942 
L 87.412356 100.641642 
L 87.480206 100.263175 
L 88.090852 97.217268 
L 88.226551 96.479936 
L 88.4301 99.886775 
L 88.633648 98.685135 
L 88.701498 100.664849 
L 88.769347 100.24317 
L 88.837197 99.837176 
L 88.905046 101.213482 
L 88.972896 100.908445 
L 89.040746 100.489214 
L 89.108595 100.710368 
L 89.244294 100.157599 
L 89.312144 101.277025 
L 89.379993 100.881265 
L 89.447843 101.476659 
L 89.515692 101.094496 
L 89.583542 100.707024 
L 89.651392 101.408499 
L 89.719241 100.990026 
L 89.787091 101.363926 
L 90.262037 99.705162 
L 90.397737 101.014779 
L 90.940533 98.543594 
L 91.008383 99.337929 
L 91.076232 98.979378 
L 91.34763 98.143073 
L 91.41548 98.136841 
L 91.483329 97.840002 
L 91.551179 98.398689 
L 91.619029 98.050683 
L 91.754728 97.441076 
L 91.822577 97.887689 
L 91.890427 97.816218 
L 92.161825 96.70405 
L 92.229675 96.954382 
L 92.568922 95.696545 
L 92.772471 94.85469 
L 92.840321 95.627531 
L 92.90817 95.375794 
L 93.790214 92.534725 
L 93.858064 92.801364 
L 94.061612 92.315007 
L 94.265161 93.561324 
L 94.536559 92.63009 
L 94.604409 93.268562 
L 94.672258 93.103513 
L 95.079356 91.936295 
L 95.147205 92.921962 
L 95.215055 92.691823 
L 95.418604 92.118793 
L 95.622152 93.148182 
L 95.825701 92.477655 
L 95.89355 92.803728 
L 96.02925 94.645582 
L 96.097099 94.404887 
L 96.164949 95.000245 
L 96.232798 94.780128 
L 96.368497 94.359012 
L 96.436347 95.089807 
L 96.504196 94.878207 
L 96.639895 94.527016 
L 96.911294 95.857564 
L 97.182692 95.169526 
L 97.250541 95.792745 
L 97.318391 95.556077 
L 97.386241 95.390145 
L 97.45409 95.617203 
L 97.861187 94.514785 
L 97.929037 94.627409 
L 98.403984 93.345336 
L 98.471833 93.934444 
L 98.539683 93.733237 
L 98.94678 92.640169 
L 99.082479 92.922836 
L 99.353878 92.1765 
L 99.421727 93.091515 
L 99.489577 92.913852 
L 100.100223 91.349808 
L 100.168072 91.909593 
L 100.235922 91.764087 
L 100.43947 91.260741 
L 100.50732 92.219337 
L 100.57517 92.034561 
L 102.00001 89.262222 
L 102.06786 90.868331 
L 102.135709 90.731651 
L 102.542807 89.915667 
L 102.678506 89.614687 
L 102.814205 90.273166 
L 102.882054 90.110114 
L 103.153453 89.552907 
L 103.221302 89.40574 
L 103.289152 89.633214 
L 103.357001 89.477019 
L 103.56055 89.027086 
L 103.628399 89.107647 
L 103.696249 89.02656 
L 103.764099 89.254751 
L 103.831948 89.117427 
L 104.374745 87.998888 
L 104.442594 88.102849 
L 105.256789 86.514883 
L 105.324638 86.592921 
L 105.528187 86.284147 
L 105.731736 87.102209 
L 106.070983 86.443273 
L 106.206682 87.121555 
L 106.749479 86.271559 
L 106.817328 86.466416 
L 106.885178 86.337143 
L 106.953028 86.23547 
L 107.020877 87.154137 
L 107.088727 87.043218 
L 107.224426 86.779922 
L 107.427974 87.691359 
L 108.03862 86.618239 
L 108.17432 87.228495 
L 108.242169 87.147924 
L 108.310019 87.355893 
L 108.377868 87.284687 
L 108.784965 86.633038 
L 108.852815 86.764294 
L 108.920665 86.669472 
L 110.277656 84.821228 
L 110.345505 84.965626 
L 110.413355 84.871164 
L 110.616903 84.587217 
L 110.684753 85.14205 
L 110.752603 85.046819 
L 110.888302 84.845165 
L 110.956151 84.995089 
L 111.024001 84.899546 
L 111.770346 83.893599 
L 111.973894 83.609151 
L 112.041744 83.899284 
L 112.109594 83.821587 
L 112.788089 82.929706 
L 112.855939 83.21625 
L 112.923788 83.11026 
L 112.991638 83.28174 
L 113.059487 83.212069 
L 114.009381 82.173752 
L 114.21293 83.079962 
L 114.891425 82.253197 
L 115.027124 82.095007 
L 115.094974 82.491095 
L 115.162823 82.403215 
L 115.366372 82.158686 
L 115.434222 82.540765 
L 115.502071 82.452453 
L 116.044868 81.851358 
L 116.112717 82.027482 
L 116.180567 81.954949 
L 116.248416 81.881534 
L 116.316266 81.969602 
L 116.655514 81.608231 
L 118.080354 80.048106 
L 118.216053 80.797627 
L 118.826699 80.155894 
L 119.098098 81.159724 
L 119.301646 80.912246 
L 119.369496 81.335031 
L 119.437345 81.267029 
L 119.708744 80.986042 
L 119.912292 81.572862 
L 120.387239 81.064454 
L 120.455089 80.983611 
L 120.522938 81.671193 
L 120.590788 81.600451 
L 120.658637 81.526952 
L 120.726487 82.098067 
L 120.794336 82.044998 
L 121.404982 81.491659 
L 121.540681 81.35152 
L 121.608531 81.844563 
L 121.676381 81.775152 
L 122.015628 81.552806 
L 122.422726 81.183736 
L 122.490575 81.292374 
L 122.558425 81.218472 
L 122.761973 81.028202 
L 122.897673 81.239539 
L 123.23692 80.911172 
L 123.440469 81.518318 
L 123.779717 81.203838 
L 123.847566 81.55138 
L 123.915416 81.488444 
L 124.254664 81.168159 
L 124.322513 81.638989 
L 124.390363 81.568304 
L 124.593911 81.364827 
L 124.661761 81.950345 
L 124.72961 81.906286 
L 125.475956 81.227817 
L 125.543805 81.621608 
L 125.611655 81.553585 
L 126.425849 80.852307 
L 126.493699 81.366839 
L 126.561548 81.300425 
L 127.918539 80.158159 
L 128.054239 80.16165 
L 128.800584 79.565249 
L 128.868433 79.746965 
L 128.936283 79.68572 
L 129.139831 79.522971 
L 129.207681 79.988791 
L 129.275531 79.925985 
L 129.886177 79.451953 
L 129.954026 79.969999 
L 130.021876 79.939797 
L 130.496822 79.55951 
L 130.564672 79.901925 
L 130.632522 79.848565 
L 131.243168 79.380252 
L 131.311017 79.792251 
L 131.378867 79.73973 
L 131.718114 79.473674 
L 131.853814 80.1964 
L 131.921663 80.139282 
L 133.142955 79.281411 
L 133.210805 79.683522 
L 133.278654 79.622348 
L 133.821451 79.275739 
L 133.8893 79.506923 
L 133.95715 79.453238 
L 135.246291 78.64381 
L 135.314141 78.823825 
L 135.38199 78.77421 
L 135.992636 78.397388 
L 136.060486 78.555568 
L 136.128335 78.518632 
L 137.349627 77.849757 
L 137.417477 78.009694 
L 137.485326 77.97319 
L 138.095972 77.66612 
L 139.249415 77.154086 
L 139.317264 77.49662 
L 139.385114 77.457496 
L 140.131459 77.227351 
L 140.199309 77.581056 
L 140.267158 77.550007 
L 140.945654 77.266912 
L 141.149202 77.64672 
L 143.456087 76.737631 
L 143.591786 76.919712 
L 144.54168 76.625454 
L 144.60953 76.932724 
L 144.677379 76.900336 
L 145.288025 76.729473 
L 147.119963 76.256101 
L 147.187813 76.52074 
L 147.255662 76.497545 
L 147.662759 76.39438 
L 147.798459 76.511278 
L 150.987388 75.999463 
L 151.123087 76.170856 
L 152.547927 76.046299 
L 152.683626 76.155248 
L 158.722237 75.635794 
L 163.471705 75.315226 
L 176.905917 74.882375 
L 217.208551 74.674031 
L 380.115328 74.773195 
L 380.522426 74.793027 
L 507.333241 74.891107 
L 507.740338 74.910934 
L 512.896904 75.00792 
L 513.100453 75.067388 
L 516.289382 75.125776 
L 516.56078 75.224868 
L 518.257019 75.244684 
L 518.257019 75.244684 
" clip-path="url(#p24f9dec601)" style="fill: none; stroke: #2ca02c; stroke-width: 1.8; stroke-linecap: square"/>
   </g>
   <g id="line2d_36">
    <path d="M 77.031375 36.121818 
L 77.574171 36.121818 
L 77.70987 120.105084 
L 77.77772 114.788158 
L 77.913419 101.755799 
L 77.981268 126.854806 
L 78.049118 120.905102 
L 78.524065 94.436466 
L 78.795463 85.143432 
L 78.931162 93.586044 
L 78.999012 91.882253 
L 79.677507 77.545769 
L 80.152454 71.327947 
L 80.7631 65.531999 
L 80.83095 67.473442 
L 80.898799 66.822068 
L 81.577295 62.220241 
L 81.645144 64.889656 
L 81.712994 64.4357 
L 82.187941 61.749318 
L 82.527188 60.285031 
L 82.595038 64.451887 
L 82.662888 64.101346 
L 83.002135 62.743795 
L 83.477082 60.676409 
L 84.155578 58.357039 
L 84.698374 56.738313 
L 85.173321 55.519115 
L 85.580418 54.672819 
L 85.648268 56.93124 
L 85.716117 56.811117 
L 85.919666 56.349036 
L 85.987516 59.501268 
L 86.055365 59.401568 
L 86.462463 58.368553 
L 86.530312 59.246515 
L 86.598162 59.150584 
L 87.208808 57.72173 
L 88.226551 55.748532 
L 88.2944 57.58993 
L 88.36225 57.478391 
L 88.633648 56.952988 
L 88.701498 59.773974 
L 88.769347 59.64702 
L 89.515692 58.19326 
L 89.651392 57.952887 
L 89.719241 58.809143 
L 89.787091 58.689856 
L 90.465586 57.494742 
L 90.533436 58.422486 
L 90.601285 58.295252 
L 90.940533 57.729517 
L 91.008383 59.070194 
L 91.076232 58.96291 
L 91.144082 58.854918 
L 91.211931 59.979848 
L 91.279781 59.889241 
L 91.754728 59.195101 
L 91.890427 58.977008 
L 91.958276 60.242012 
L 92.026126 60.171726 
L 92.433223 59.552243 
L 92.501073 62.086615 
L 92.568922 62.002795 
L 94.197312 59.528523 
L 95.690002 57.663159 
L 95.757851 58.263019 
L 95.825701 58.168811 
L 96.639895 57.238008 
L 97.250541 56.646924 
L 97.318391 57.741055 
L 97.386241 57.686579 
L 97.725488 57.353321 
L 97.793338 60.091138 
L 97.861187 59.99892 
L 98.132586 59.687038 
L 98.200435 60.964447 
L 98.268285 60.891914 
L 98.336134 60.801222 
L 98.403984 61.825244 
L 98.471833 61.744556 
L 99.01463 61.124139 
L 99.082479 62.188754 
L 99.150329 62.123227 
L 100.778718 60.410152 
L 100.846568 61.530906 
L 100.914417 61.452229 
L 101.592913 60.743972 
L 102.135709 60.212249 
L 102.203559 60.596247 
L 102.271408 60.520411 
L 103.56055 59.335066 
L 103.628399 60.631357 
L 103.696249 60.568368 
L 104.239045 60.069282 
L 104.306895 60.876887 
L 104.374745 60.804258 
L 105.256789 60.063428 
L 105.324638 61.411424 
L 105.392488 61.341713 
L 106.681629 60.255458 
L 106.749479 60.952715 
L 106.817328 60.908025 
L 107.631523 60.224363 
L 108.377868 59.664816 
L 109.327762 58.969572 
L 109.395611 59.505941 
L 109.463461 59.460353 
L 111.227549 58.253717 
L 112.923788 57.222297 
L 112.991638 57.671178 
L 113.059487 57.625645 
L 113.534434 57.316573 
L 113.737983 58.334683 
L 113.805832 58.285515 
L 115.298523 57.459597 
L 115.366372 58.071435 
L 115.434222 58.030984 
L 116.519815 57.445684 
L 117.876806 56.719643 
L 117.944655 57.149251 
L 118.012505 57.11569 
L 118.351752 56.926257 
L 118.419602 57.392349 
L 118.487452 57.36485 
L 118.962398 57.114082 
L 119.030248 57.748376 
L 119.098098 57.710944 
L 122.219177 56.151383 
L 122.287027 56.509708 
L 122.354876 56.477062 
L 123.169071 56.089621 
L 123.23692 56.434585 
L 123.30477 56.402309 
L 123.644018 56.240617 
L 123.711867 56.444877 
L 123.779717 56.414791 
L 124.186814 56.238857 
L 124.254664 56.543425 
L 124.322513 56.512165 
L 124.458212 56.454951 
L 124.526062 56.819073 
L 124.593911 56.795444 
L 125.408106 56.460353 
L 125.543805 56.410757 
L 125.611655 56.927421 
L 125.679504 56.906452 
L 126.968646 56.38697 
L 127.036495 56.769095 
L 127.104345 56.748853 
L 128.732734 56.145853 
L 129.41123 55.903165 
L 129.479079 56.507378 
L 129.546929 56.480372 
L 129.954026 56.317375 
L 130.021876 56.856495 
L 130.089725 56.830572 
L 131.514566 56.375197 
L 132.46446 56.10057 
L 132.600159 56.259485 
L 132.939406 56.157577 
L 133.007256 56.504201 
L 133.075106 56.479067 
L 133.617902 56.317961 
L 133.685751 56.52638 
L 133.753601 56.503024 
L 134.160698 56.395117 
L 134.228548 56.912895 
L 134.296397 56.892807 
L 136.128335 56.403685 
L 136.196185 56.798396 
L 136.264035 56.773964 
L 137.621026 56.423502 
L 138.978017 56.115423 
L 139.045866 56.600772 
L 139.113716 56.586883 
L 141.420601 56.138534 
L 141.759848 56.09043 
L 141.895547 56.399177 
L 143.184689 56.172847 
L 143.320388 56.478012 
L 144.47383 56.275152 
L 144.54168 56.661845 
L 144.60953 56.648938 
L 145.016627 56.577376 
L 145.084476 56.98872 
L 145.152326 56.976728 
L 146.577167 56.744577 
L 146.712866 57.070739 
L 149.15545 56.795882 
L 149.223299 57.29258 
L 149.291149 57.280814 
L 149.833945 57.1971 
L 149.969644 57.532182 
L 150.105343 57.505059 
L 150.241042 57.725051 
L 150.987388 57.608254 
L 151.055237 58.118695 
L 151.123087 58.106639 
L 152.751476 57.849564 
L 152.819325 58.239532 
L 152.887175 58.227564 
L 153.565671 58.117296 
L 153.70137 58.376592 
L 154.719113 58.304806 
L 154.854812 58.546668 
L 155.19406 58.495754 
L 155.329759 58.867721 
L 155.397608 58.860962 
L 155.533308 59.070876 
L 155.736856 59.036505 
L 155.804706 59.436183 
L 155.872555 59.422378 
L 157.025998 59.250118 
L 157.161697 59.547249 
L 157.975892 59.409793 
L 158.17944 59.812304 
L 158.382989 59.782537 
L 158.518688 59.897622 
L 160.282776 59.668711 
L 160.418475 59.94263 
L 161.096971 59.858834 
L 161.23267 60.151209 
L 163.675254 59.874589 
L 163.810953 60.122178 
L 167.406979 59.738589 
L 167.542678 59.960844 
L 168.085475 59.900565 
L 168.221174 60.227802 
L 169.578165 60.104857 
L 169.713864 60.284403 
L 172.563545 60.008283 
L 172.699245 60.269499 
L 172.767094 60.261187 
L 173.038492 60.697835 
L 173.716988 60.631825 
L 173.852687 60.851328 
L 174.056236 60.834742 
L 174.191935 61.112117 
L 175.888174 60.950668 
L 176.023873 61.224197 
L 178.330757 60.995664 
L 178.466457 61.270336 
L 179.4842 61.170256 
L 179.619899 61.40479 
L 180.773341 61.288532 
L 180.90904 61.480069 
L 185.658509 61.030812 
L 185.862058 61.455173 
L 186.879801 61.368811 
L 187.0155 61.456426 
L 188.033244 61.460752 
L 188.168943 61.665024 
L 188.372491 61.646396 
L 188.50819 61.830685 
L 204.452835 60.876413 
L 204.588535 61.020988 
L 210.152198 60.916542 
L 210.287897 61.078234 
L 211.102092 61.035005 
L 211.237791 61.161298 
L 211.780587 61.134346 
L 211.916286 61.31433 
L 211.984136 61.311103 
L 212.119835 61.455365 
L 213.205428 61.409065 
L 213.341127 61.51621 
L 217.34425 61.354682 
L 217.47995 61.516433 
L 217.819197 61.507411 
L 217.954896 61.670314 
L 218.836941 61.635684 
L 218.97264 61.798299 
L 222.500817 61.779437 
L 222.704365 62.03507 
L 224.061356 62.125536 
L 224.264905 62.381501 
L 227.114586 62.448733 
L 227.250285 62.556885 
L 229.421471 62.646339 
L 229.62502 62.71858 
L 231.592657 62.792286 
L 231.796205 62.844908 
L 232.067604 62.934604 
L 232.271152 63.004052 
L 235.935028 63.029961 
L 236.138577 63.084505 
L 239.938152 63.165789 
L 240.1417 63.255901 
L 242.516435 63.333055 
L 242.719983 63.386466 
L 244.348373 63.464181 
L 244.551921 63.554153 
L 249.844186 63.63541 
L 250.047735 63.7075 
L 251.879673 63.790086 
L 254.661505 63.886895 
L 256.629142 63.951613 
L 256.83269 64.004817 
L 259.139575 64.087893 
L 259.410973 64.122994 
L 261.989256 64.224766 
L 262.260655 64.259845 
L 412.208167 64.364435 
L 412.683114 64.382412 
L 419.739467 64.454315 
L 419.943016 64.508238 
L 431.070343 64.580129 
L 431.273891 64.634042 
L 501.023232 64.741857 
L 501.023232 64.741857 
" clip-path="url(#p24f9dec601)" style="fill: none; stroke: #d62728; stroke-width: 1.8; stroke-linecap: square"/>
   </g>
   <g id="line2d_37">
    <path d="M 77.031375 36.121818 
L 77.099224 36.121818 
L 77.167074 90.099956 
L 77.234923 77.745805 
L 77.370622 64.470049 
L 77.506321 99.923697 
L 77.574171 92.434757 
L 77.913419 71.91764 
L 77.981268 95.918867 
L 78.049118 92.520731 
L 78.591914 73.124778 
L 79.066861 64.453441 
L 79.609658 58.368161 
L 80.152454 54.50565 
L 80.966649 50.826444 
L 82.25579 47.248712 
L 83.137834 45.584508 
L 84.019879 44.417018 
L 85.037622 43.441756 
L 87.005259 41.970558 
L 89.108595 40.951797 
L 90.533436 40.444122 
L 92.90817 39.783803 
L 94.943657 39.366393 
L 97.45409 38.966252 
L 101.525063 38.500949 
L 107.902921 38.005083 
L 114.687877 37.66791 
L 126.222301 37.302973 
L 141.013503 37.034111 
L 157.908042 36.970393 
L 164.625148 37.045692 
L 164.896546 37.083377 
L 166.389236 37.139874 
L 166.592785 37.21523 
L 168.153324 37.271742 
L 168.424723 37.365918 
L 174.463333 37.459878 
L 174.666882 37.516362 
L 177.245165 37.610493 
L 177.652262 37.723435 
L 181.248288 37.779899 
L 181.451837 37.855178 
L 194.546801 37.948963 
L 194.750349 38.005401 
L 198.142827 38.080544 
L 198.346376 38.212195 
L 200.314013 38.306217 
L 200.585411 38.343822 
L 203.231543 38.437739 
L 203.502942 38.475336 
L 204.249287 38.569321 
L 204.724234 38.588116 
L 210.220047 38.663067 
L 210.491446 38.700649 
L 218.633392 38.775707 
L 218.836941 38.832069 
L 223.179312 38.925747 
L 223.45071 38.982092 
L 227.385984 39.075992 
L 227.860931 39.094771 
L 228.946524 39.188656 
L 229.150073 39.263756 
L 231.999754 39.301222 
L 232.203303 39.376309 
L 234.917285 39.451091 
L 235.120833 39.526155 
L 236.274276 39.54492 
L 236.477824 39.638737 
L 239.870302 39.713554 
L 240.073851 39.76983 
L 248.487195 39.82563 
L 248.690744 39.881889 
L 248.962142 39.938145 
L 249.165691 39.994396 
L 255.475699 40.088037 
L 255.679248 40.16302 
L 256.154195 40.256739 
L 256.629142 40.27527 
L 258.664628 40.368969 
L 259.139575 40.387708 
L 260.428717 40.425019 
L 260.632265 40.518696 
L 265.788831 40.612361 
L 266.06023 40.649823 
L 269.11346 40.743471 
L 269.384858 40.780927 
L 274.744972 40.874438 
L 274.948521 40.93061 
L 277.458955 40.986716 
L 277.662503 41.080317 
L 280.512184 41.136345 
L 280.715733 41.192237 
L 284.17606 41.248249 
L 284.379609 41.304386 
L 290.078971 41.360452 
L 290.28252 41.41658 
L 292.928653 41.510116 
L 293.132201 41.566232 
L 299.577909 41.65975 
L 299.781458 41.715854 
L 303.377484 41.790582 
L 303.581033 41.865373 
L 304.530926 41.940157 
L 304.734475 42.014933 
L 309.280395 42.089322 
L 309.483944 42.14539 
L 314.64051 42.219753 
L 314.911908 42.257123 
L 317.150943 42.331857 
L 317.354492 42.406584 
L 319.11858 42.462623 
L 319.322129 42.518659 
L 323.053854 42.574527 
L 323.257403 42.649061 
L 324.682244 42.70508 
L 324.885792 42.779765 
L 327.667624 42.87311 
L 327.871173 42.929112 
L 329.296013 43.003687 
L 329.499562 43.07834 
L 336.895163 43.18941 
L 337.30226 43.319999 
L 340.219791 43.412893 
L 340.491189 43.562083 
L 342.865924 43.655024 
L 343.340871 43.673668 
L 345.376357 43.766879 
L 345.579906 43.822799 
L 347.751092 43.878716 
L 347.95464 43.953264 
L 348.226038 44.083706 
L 353.043357 44.139298 
L 353.246905 44.213817 
L 355.282392 44.250971 
L 355.485941 44.325478 
L 357.385728 44.362729 
L 357.589277 44.437225 
L 357.792825 44.493092 
L 360.846055 44.567574 
L 361.117454 44.604813 
L 364.034984 44.697683 
L 364.306383 44.734914 
L 367.291763 44.80904 
L 367.495312 44.902096 
L 369.395099 44.976533 
L 369.598648 45.050961 
L 371.973382 45.124926 
L 372.176931 45.180735 
L 373.126824 45.236539 
L 373.330373 45.329536 
L 375.433709 45.40369 
L 375.637258 45.552442 
L 376.994249 45.626807 
L 377.197798 45.701164 
L 378.283391 45.775514 
L 378.486939 45.849856 
L 381.268771 45.924191 
L 381.540169 45.960981 
L 384.932647 46.053881 
L 385.407594 46.072459 
L 387.103832 46.165345 
L 387.578779 46.18392 
L 393.54954 46.294592 
L 394.024487 46.312776 
L 394.702982 46.368095 
L 394.906531 46.442363 
L 395.449327 46.535188 
L 395.652876 46.590877 
L 396.467071 46.683682 
L 397.281265 46.795033 
L 399.113203 46.850703 
L 399.316752 46.943475 
L 402.777079 47.036098 
L 403.048477 47.073199 
L 404.337619 47.091749 
L 404.541168 47.18449 
L 408.544291 47.29534 
L 408.815689 47.332426 
L 416.414839 47.442099 
L 417.364733 47.590381 
L 424.624635 47.700257 
L 424.896034 47.737313 
L 429.713352 47.828466 
L 429.9169 47.884033 
L 433.241529 47.994254 
L 433.445077 48.068319 
L 435.887661 48.179099 
L 436.159059 48.216123 
L 441.247776 48.271348 
L 441.519174 48.308365 
L 443.961758 48.419408 
L 444.165307 48.530434 
L 449.321873 48.640494 
L 449.593271 48.67749 
L 453.121448 48.751159 
L 453.324996 48.806643 
L 463.705978 48.897172 
L 463.909527 48.971124 
L 466.48781 49.081384 
L 466.894907 49.192275 
L 467.573402 49.284672 
L 467.844801 49.321461 
L 472.933517 49.432315 
L 473.137066 49.506208 
L 476.461694 49.616693 
L 476.665243 49.690566 
L 485.757083 49.800153 
L 486.028481 49.837078 
L 492.338489 49.947841 
L 492.542038 50.003216 
L 495.527418 50.094794 
L 495.798817 50.131702 
L 497.766454 50.223964 
L 498.037852 50.316214 
L 499.86979 50.426899 
L 500.073338 50.574453 
L 502.380223 50.648219 
L 502.583772 50.70317 
L 505.501303 50.812498 
L 505.704851 50.867799 
L 507.876037 50.941153 
L 508.079586 50.996443 
L 517.510674 51.088583 
L 517.714222 51.199135 
L 526.466815 51.308141 
L 526.670363 51.381815 
L 528.70585 51.455288 
L 528.909398 51.528946 
L 530.13069 51.602597 
L 530.334239 51.676241 
L 533.658867 51.676241 
L 533.658867 51.676241 
" clip-path="url(#p24f9dec601)" style="fill: none; stroke: #9467bd; stroke-width: 1.8; stroke-linecap: square"/>
   </g>
   <g id="patch_3">
    <path d="M 54.2 260.44 
L 54.2 25.44 
" style="fill: none; stroke: #000000; stroke-width: 0.8; stroke-linejoin: miter; stroke-linecap: square"/>
   </g>
   <g id="patch_4">
    <path d="M 556.490242 260.44 
L 556.490242 25.44 
" style="fill: none; stroke: #000000; stroke-width: 0.8; stroke-linejoin: miter; stroke-linecap: square"/>
   </g>
   <g id="patch_5">
    <path d="M 54.2 260.44 
L 556.490242 260.44 
" style="fill: none; stroke: #000000; stroke-width: 0.8; stroke-linejoin: miter; stroke-linecap: square"/>
   </g>
   <g id="patch_6">
    <path d="M 54.2 25.44 
L 556.490242 25.44 
" style="fill: none; stroke: #000000; stroke-width: 0.8; stroke-linejoin: miter; stroke-linecap: square"/>
   </g>
   <g id="text_19">
    <!-- Timely Transfer Rate (Cumulative) -->
    <g transform="translate(202.922308 19.44) scale(0.12 -0.12)">
     <defs>
      <path id="DejaVuSans-54" d="M -19 4666 
L 3928 4666 
L 3928 4134 
L 2272 4134 
L 2272 0 
L 1638 0 
L 1638 4134 
L -19 4134 
L -19 4666 
z
" transform="scale(0.015625)"/>
      <path id="DejaVuSans-52" d="M 2841 2188 
Q 3044 2119 3236 1894 
Q 3428 1669 3622 1275 
L 4263 0 
L 3584 0 
L 2988 1197 
Q 2756 1666 2539 1819 
Q 2322 1972 1947 1972 
L 1259 1972 
L 1259 0 
L 628 0 
L 628 4666 
L 2053 4666 
Q 2853 4666 3247 4331 
Q 3641 3997 3641 3322 
Q 3641 2881 3436 2590 
Q 3231 2300 2841 2188 
z
M 1259 4147 
L 1259 2491 
L 2053 2491 
Q 2509 2491 2742 2702 
Q 2975 2913 2975 3322 
Q 2975 3731 2742 3939 
Q 2509 4147 2053 4147 
L 1259 4147 
z
" transform="scale(0.015625)"/>
      <path id="DejaVuSans-28" d="M 1984 4856 
Q 1566 4138 1362 3434 
Q 1159 2731 1159 2009 
Q 1159 1288 1364 580 
Q 1569 -128 1984 -844 
L 1484 -844 
Q 1016 -109 783 600 
Q 550 1309 550 2009 
Q 550 2706 781 3412 
Q 1013 4119 1484 4856 
L 1984 4856 
z
" transform="scale(0.015625)"/>
      <path id="DejaVuSans-43" d="M 4122 4306 
L 4122 3641 
Q 3803 3938 3442 4084 
Q 3081 4231 2675 4231 
Q 1875 4231 1450 3742 
Q 1025 3253 1025 2328 
Q 1025 1406 1450 917 
Q 1875 428 2675 428 
Q 3081 428 3442 575 
Q 3803 722 4122 1019 
L 4122 359 
Q 3791 134 3420 21 
Q 3050 -91 2638 -91 
Q 1578 -91 968 557 
Q 359 1206 359 2328 
Q 359 3453 968 4101 
Q 1578 4750 2638 4750 
Q 3056 4750 3426 4639 
Q 3797 4528 4122 4306 
z
" transform="scale(0.015625)"/>
      <path id="DejaVuSans-29" d="M 513 4856 
L 1013 4856 
Q 1481 4119 1714 3412 
Q 1947 2706 1947 2009 
Q 1947 1309 1714 600 
Q 1481 -109 1013 -844 
L 513 -844 
Q 928 -128 1133 580 
Q 1338 1288 1338 2009 
Q 1338 2731 1133 3434 
Q 928 4138 513 4856 
z
" transform="scale(0.015625)"/>
     </defs>
     <use xlink:href="#DejaVuSans-54"/>
     <use xlink:href="#DejaVuSans-69" x="57.958984"/>
     <use xlink:href="#DejaVuSans-6d" x="85.742188"/>
     <use xlink:href="#DejaVuSans-65" x="183.154297"/>
     <use xlink:href="#DejaVuSans-6c" x="244.677734"/>
     <use xlink:href="#DejaVuSans-79" x="272.460938"/>
     <use xlink:href="#DejaVuSans-20" x="331.640625"/>
     <use xlink:href="#DejaVuSans-54" x="363.427734"/>
     <use xlink:href="#DejaVuSans-72" x="409.761719"/>
     <use xlink:href="#DejaVuSans-61" x="450.875"/>
     <use xlink:href="#DejaVuSans-6e" x="512.154297"/>
     <use xlink:href="#DejaVuSans-73" x="575.533203"/>
     <use xlink:href="#DejaVuSans-66" x="627.632812"/>
     <use xlink:href="#DejaVuSans-65" x="662.837891"/>
     <use xlink:href="#DejaVuSans-72" x="724.361328"/>
     <use xlink:href="#DejaVuSans-20" x="765.474609"/>
     <use xlink:href="#DejaVuSans-52" x="797.261719"/>
     <use xlink:href="#DejaVuSans-61" x="864.494141"/>
     <use xlink:href="#DejaVuSans-74" x="925.773438"/>
     <use xlink:href="#DejaVuSans-65" x="964.982422"/>
     <use xlink:href="#DejaVuSans-20" x="1026.505859"/>
     <use xlink:href="#DejaVuSans-28" x="1058.292969"/>
     <use xlink:href="#DejaVuSans-43" x="1097.306641"/>
     <use xlink:href="#DejaVuSans-75" x="1167.130859"/>
     <use xlink:href="#DejaVuSans-6d" x="1230.509766"/>
     <use xlink:href="#DejaVuSans-75" x="1327.921875"/>
     <use xlink:href="#DejaVuSans-6c" x="1391.300781"/>
     <use xlink:href="#DejaVuSans-61" x="1419.083984"/>
     <use xlink:href="#DejaVuSans-74" x="1480.363281"/>
     <use xlink:href="#DejaVuSans-69" x="1519.572266"/>
     <use xlink:href="#DejaVuSans-76" x="1547.355469"/>
     <use xlink:href="#DejaVuSans-65" x="1606.535156"/>
     <use xlink:href="#DejaVuSans-29" x="1668.058594"/>
    </g>
   </g>
   <g id="legend_1">
    <g id="patch_7">
     <path d="M 471.904304 255.44 
L 549.490242 255.44 
Q 551.490242 255.44 551.490242 253.44 
L 551.490242 180.493125 
Q 551.490242 178.493125 549.490242 178.493125 
L 471.904304 178.493125 
Q 469.904304 178.493125 469.904304 180.493125 
L 469.904304 253.44 
Q 469.904304 255.44 471.904304 255.44 
z
" style="fill: #ffffff; opacity: 0.8; stroke: #cccccc; stroke-linejoin: miter"/>
    </g>
    <g id="line2d_38">
     <path d="M 473.904304 186.591563 
L 483.904304 186.591563 
L 493.904304 186.591563 
" style="fill: none; stroke: #1f77b4; stroke-width: 1.8; stroke-linecap: square"/>
    </g>
    <g id="text_20">
     <!-- sheer -->
     <g transform="translate(501.904304 190.091563) scale(0.1 -0.1)">
      <defs>
       <path id="DejaVuSans-68" d="M 3513 2113 
L 3513 0 
L 2938 0 
L 2938 2094 
Q 2938 2591 2744 2837 
Q 2550 3084 2163 3084 
Q 1697 3084 1428 2787 
Q 1159 2491 1159 1978 
L 1159 0 
L 581 0 
L 581 4863 
L 1159 4863 
L 1159 2956 
Q 1366 3272 1645 3428 
Q 1925 3584 2291 3584 
Q 2894 3584 3203 3211 
Q 3513 2838 3513 2113 
z
" transform="scale(0.015625)"/>
      </defs>
      <use xlink:href="#DejaVuSans-73"/>
      <use xlink:href="#DejaVuSans-68" x="52.099609"/>
      <use xlink:href="#DejaVuSans-65" x="115.478516"/>
      <use xlink:href="#DejaVuSans-65" x="177.001953"/>
      <use xlink:href="#DejaVuSans-72" x="238.525391"/>
     </g>
    </g>
    <g id="line2d_39">
     <path d="M 473.904304 201.269688 
L 483.904304 201.269688 
L 493.904304 201.269688 
" style="fill: none; stroke: #ff7f0e; stroke-width: 1.8; stroke-linecap: square"/>
    </g>
    <g id="text_21">
     <!-- actar -->
     <g transform="translate(501.904304 204.769688) scale(0.1 -0.1)">
      <use xlink:href="#DejaVuSans-61"/>
      <use xlink:href="#DejaVuSans-63" x="61.279297"/>
      <use xlink:href="#DejaVuSans-74" x="116.259766"/>
      <use xlink:href="#DejaVuSans-61" x="155.46875"/>
      <use xlink:href="#DejaVuSans-72" x="216.748047"/>
     </g>
    </g>
    <g id="line2d_40">
     <path d="M 473.904304 215.947813 
L 483.904304 215.947813 
L 493.904304 215.947813 
" style="fill: none; stroke: #2ca02c; stroke-width: 1.8; stroke-linecap: square"/>
    </g>
    <g id="text_22">
     <!-- tfsm_dpc -->
     <g transform="translate(501.904304 219.447813) scale(0.1 -0.1)">
      <defs>
       <path id="DejaVuSans-5f" d="M 3263 -1063 
L 3263 -1509 
L -63 -1509 
L -63 -1063 
L 3263 -1063 
z
" transform="scale(0.015625)"/>
       <path id="DejaVuSans-70" d="M 1159 525 
L 1159 -1331 
L 581 -1331 
L 581 3500 
L 1159 3500 
L 1159 2969 
Q 1341 3281 1617 3432 
Q 1894 3584 2278 3584 
Q 2916 3584 3314 3078 
Q 3713 2572 3713 1747 
Q 3713 922 3314 415 
Q 2916 -91 2278 -91 
Q 1894 -91 1617 61 
Q 1341 213 1159 525 
z
M 3116 1747 
Q 3116 2381 2855 2742 
Q 2594 3103 2138 3103 
Q 1681 3103 1420 2742 
Q 1159 2381 1159 1747 
Q 1159 1113 1420 752 
Q 1681 391 2138 391 
Q 2594 391 2855 752 
Q 3116 1113 3116 1747 
z
" transform="scale(0.015625)"/>
      </defs>
      <use xlink:href="#DejaVuSans-74"/>
      <use xlink:href="#DejaVuSans-66" x="39.208984"/>
      <use xlink:href="#DejaVuSans-73" x="74.414062"/>
      <use xlink:href="#DejaVuSans-6d" x="126.513672"/>
      <use xlink:href="#DejaVuSans-5f" x="223.925781"/>
      <use xlink:href="#DejaVuSans-64" x="273.925781"/>
      <use xlink:href="#DejaVuSans-70" x="337.402344"/>
      <use xlink:href="#DejaVuSans-63" x="400.878906"/>
     </g>
    </g>
    <g id="line2d_41">
     <path d="M 473.904304 230.904063 
L 483.904304 230.904063 
L 493.904304 230.904063 
" style="fill: none; stroke: #d62728; stroke-width: 1.8; stroke-linecap: square"/>
    </g>
    <g id="text_23">
     <!-- dst_woa -->
     <g transform="translate(501.904304 234.404063) scale(0.1 -0.1)">
      <defs>
       <path id="DejaVuSans-77" d="M 269 3500 
L 844 3500 
L 1563 769 
L 2278 3500 
L 2956 3500 
L 3675 769 
L 4391 3500 
L 4966 3500 
L 4050 0 
L 3372 0 
L 2619 2869 
L 1863 0 
L 1184 0 
L 269 3500 
z
" transform="scale(0.015625)"/>
      </defs>
      <use xlink:href="#DejaVuSans-64"/>
      <use xlink:href="#DejaVuSans-73" x="63.476562"/>
      <use xlink:href="#DejaVuSans-74" x="115.576172"/>
      <use xlink:href="#DejaVuSans-5f" x="154.785156"/>
      <use xlink:href="#DejaVuSans-77" x="204.785156"/>
      <use xlink:href="#DejaVuSans-6f" x="286.572266"/>
      <use xlink:href="#DejaVuSans-61" x="347.753906"/>
     </g>
    </g>
    <g id="line2d_42">
     <path d="M 473.904304 245.860313 
L 483.904304 245.860313 
L 493.904304 245.860313 
" style="fill: none; stroke: #9467bd; stroke-width: 1.8; stroke-linecap: square"/>
    </g>
    <g id="text_24">
     <!-- trail -->
     <g transform="translate(501.904304 249.360313) scale(0.1 -0.1)">
      <use xlink:href="#DejaVuSans-74"/>
      <use xlink:href="#DejaVuSans-72" x="39.208984"/>
      <use xlink:href="#DejaVuSans-61" x="80.322266"/>
      <use xlink:href="#DejaVuSans-69" x="141.601562"/>
      <use xlink:href="#DejaVuSans-6c" x="169.384766"/>
     </g>
    </g>
   </g>
  </g>
 </g>
 <defs>
  <clipPath id="p24f9dec601">
   <rect x="54.2" y="25.44" width="502.290242" height="235"/>
  </clipPath>
 </defs>
</svg>
