<?xml version="1.0" encoding="utf-8" standalone="no"?>
<!DOCTYPE svg PUBLIC "-//W3C//DTD SVG 1.1//EN"
  "http://www.w3.org/Graphics/SVG/1.1/DTD/svg11.dtd">
<svg xmlns:xlink="http://www.w3.org/1999/xlink" width="576pt" height="302.4pt" viewBox="0 0 576 302.4" xmlns="http://www.w3.org/2000/svg" version="1.1">
 <metadata>
  <rdf:RDF xmlns:dc="http://purl.org/dc/elements/1.1/" xmlns:cc="http://creativecommons.org/ns#" xmlns:rdf="http://www.w3.org/1999/02/22-rdf-syntax-ns#">
   <cc:Work>
    <dc:type rdf:resource="http://purl.org/dc/dcmitype/StillImage"/>
    <dc:date>2025-09-05T20:16:23.902265</dc:date>
    <dc:format>image/svg+xml</dc:format>
    <dc:creator>
     <cc:Agent>
      <dc:title>Matplotlib v3.9.4, https://matplotlib.org/</dc:title>
     </cc:Agent>
    </dc:creator>
   </cc:Work>
  </rdf:RDF>
 </metadata>
 <defs>
  <style type="text/css">*{stroke-linejoin: round; stroke-linecap: butt}</style>
 </defs>
 <g id="figure_1">
  <g id="patch_1">
   <path d="M 0 302.4 
L 576 302.4 
L 576 0 
L 0 0 
z
" style="fill: #ffffff"/>
  </g>
  <g id="axes_1">
   <g id="patch_2">
    <path d="M 54.2 260.44 
L 565.2 260.44 
L 565.2 25.44 
L 54.2 25.44 
z
" style="fill: #ffffff"/>
   </g>
   <g id="matplotlib.axis_1">
    <g id="xtick_1">
     <g id="line2d_1">
      <path d="M 77.368927 260.44 
L 77.368927 25.44 
" clip-path="url(#pdf3f0c428e)" style="fill: none; stroke-dasharray: 2.96,1.28; stroke-dashoffset: 0; stroke: #b0b0b0; stroke-opacity: 0.3; stroke-width: 0.8"/>
     </g>
     <g id="line2d_2">
      <defs>
       <path id="md0dd6a5fbe" d="M 0 0 
L 0 3.5 
" style="stroke: #000000; stroke-width: 0.8"/>
      </defs>
      <g>
       <use xlink:href="#md0dd6a5fbe" x="77.368927" y="260.44" style="stroke: #000000; stroke-width: 0.8"/>
      </g>
     </g>
     <g id="text_1">
      <!-- 0 -->
      <g transform="translate(74.187677 275.038438) scale(0.1 -0.1)">
       <defs>
        <path id="DejaVuSans-30" d="M 2034 4250 
Q 1547 4250 1301 3770 
Q 1056 3291 1056 2328 
Q 1056 1369 1301 889 
Q 1547 409 2034 409 
Q 2525 409 2770 889 
Q 3016 1369 3016 2328 
Q 3016 3291 2770 3770 
Q 2525 4250 2034 4250 
z
M 2034 4750 
Q 2819 4750 3233 4129 
Q 3647 3509 3647 2328 
Q 3647 1150 3233 529 
Q 2819 -91 2034 -91 
Q 1250 -91 836 529 
Q 422 1150 422 2328 
Q 422 3509 836 4129 
Q 1250 4750 2034 4750 
z
" transform="scale(0.015625)"/>
       </defs>
       <use xlink:href="#DejaVuSans-30"/>
      </g>
     </g>
    </g>
    <g id="xtick_2">
     <g id="line2d_3">
      <path d="M 135.71425 260.44 
L 135.71425 25.44 
" clip-path="url(#pdf3f0c428e)" style="fill: none; stroke-dasharray: 2.96,1.28; stroke-dashoffset: 0; stroke: #b0b0b0; stroke-opacity: 0.3; stroke-width: 0.8"/>
     </g>
     <g id="line2d_4">
      <g>
       <use xlink:href="#md0dd6a5fbe" x="135.71425" y="260.44" style="stroke: #000000; stroke-width: 0.8"/>
      </g>
     </g>
     <g id="text_2">
      <!-- 1000 -->
      <g transform="translate(122.98925 275.038438) scale(0.1 -0.1)">
       <defs>
        <path id="DejaVuSans-31" d="M 794 531 
L 1825 531 
L 1825 4091 
L 703 3866 
L 703 4441 
L 1819 4666 
L 2450 4666 
L 2450 531 
L 3481 531 
L 3481 0 
L 794 0 
L 794 531 
z
" transform="scale(0.015625)"/>
       </defs>
       <use xlink:href="#DejaVuSans-31"/>
       <use xlink:href="#DejaVuSans-30" x="63.623047"/>
       <use xlink:href="#DejaVuSans-30" x="127.246094"/>
       <use xlink:href="#DejaVuSans-30" x="190.869141"/>
      </g>
     </g>
    </g>
    <g id="xtick_3">
     <g id="line2d_5">
      <path d="M 194.059572 260.44 
L 194.059572 25.44 
" clip-path="url(#pdf3f0c428e)" style="fill: none; stroke-dasharray: 2.96,1.28; stroke-dashoffset: 0; stroke: #b0b0b0; stroke-opacity: 0.3; stroke-width: 0.8"/>
     </g>
     <g id="line2d_6">
      <g>
       <use xlink:href="#md0dd6a5fbe" x="194.059572" y="260.44" style="stroke: #000000; stroke-width: 0.8"/>
      </g>
     </g>
     <g id="text_3">
      <!-- 2000 -->
      <g transform="translate(181.334572 275.038438) scale(0.1 -0.1)">
       <defs>
        <path id="DejaVuSans-32" d="M 1228 531 
L 3431 531 
L 3431 0 
L 469 0 
L 469 531 
Q 828 903 1448 1529 
Q 2069 2156 2228 2338 
Q 2531 2678 2651 2914 
Q 2772 3150 2772 3378 
Q 2772 3750 2511 3984 
Q 2250 4219 1831 4219 
Q 1534 4219 1204 4116 
Q 875 4013 500 3803 
L 500 4441 
Q 881 4594 1212 4672 
Q 1544 4750 1819 4750 
Q 2544 4750 2975 4387 
Q 3406 4025 3406 3419 
Q 3406 3131 3298 2873 
Q 3191 2616 2906 2266 
Q 2828 2175 2409 1742 
Q 1991 1309 1228 531 
z
" transform="scale(0.015625)"/>
       </defs>
       <use xlink:href="#DejaVuSans-32"/>
       <use xlink:href="#DejaVuSans-30" x="63.623047"/>
       <use xlink:href="#DejaVuSans-30" x="127.246094"/>
       <use xlink:href="#DejaVuSans-30" x="190.869141"/>
      </g>
     </g>
    </g>
    <g id="xtick_4">
     <g id="line2d_7">
      <path d="M 252.404894 260.44 
L 252.404894 25.44 
" clip-path="url(#pdf3f0c428e)" style="fill: none; stroke-dasharray: 2.96,1.28; stroke-dashoffset: 0; stroke: #b0b0b0; stroke-opacity: 0.3; stroke-width: 0.8"/>
     </g>
     <g id="line2d_8">
      <g>
       <use xlink:href="#md0dd6a5fbe" x="252.404894" y="260.44" style="stroke: #000000; stroke-width: 0.8"/>
      </g>
     </g>
     <g id="text_4">
      <!-- 3000 -->
      <g transform="translate(239.679894 275.038438) scale(0.1 -0.1)">
       <defs>
        <path id="DejaVuSans-33" d="M 2597 2516 
Q 3050 2419 3304 2112 
Q 3559 1806 3559 1356 
Q 3559 666 3084 287 
Q 2609 -91 1734 -91 
Q 1441 -91 1130 -33 
Q 819 25 488 141 
L 488 750 
Q 750 597 1062 519 
Q 1375 441 1716 441 
Q 2309 441 2620 675 
Q 2931 909 2931 1356 
Q 2931 1769 2642 2001 
Q 2353 2234 1838 2234 
L 1294 2234 
L 1294 2753 
L 1863 2753 
Q 2328 2753 2575 2939 
Q 2822 3125 2822 3475 
Q 2822 3834 2567 4026 
Q 2313 4219 1838 4219 
Q 1578 4219 1281 4162 
Q 984 4106 628 3988 
L 628 4550 
Q 988 4650 1302 4700 
Q 1616 4750 1894 4750 
Q 2613 4750 3031 4423 
Q 3450 4097 3450 3541 
Q 3450 3153 3228 2886 
Q 3006 2619 2597 2516 
z
" transform="scale(0.015625)"/>
       </defs>
       <use xlink:href="#DejaVuSans-33"/>
       <use xlink:href="#DejaVuSans-30" x="63.623047"/>
       <use xlink:href="#DejaVuSans-30" x="127.246094"/>
       <use xlink:href="#DejaVuSans-30" x="190.869141"/>
      </g>
     </g>
    </g>
    <g id="xtick_5">
     <g id="line2d_9">
      <path d="M 310.750216 260.44 
L 310.750216 25.44 
" clip-path="url(#pdf3f0c428e)" style="fill: none; stroke-dasharray: 2.96,1.28; stroke-dashoffset: 0; stroke: #b0b0b0; stroke-opacity: 0.3; stroke-width: 0.8"/>
     </g>
     <g id="line2d_10">
      <g>
       <use xlink:href="#md0dd6a5fbe" x="310.750216" y="260.44" style="stroke: #000000; stroke-width: 0.8"/>
      </g>
     </g>
     <g id="text_5">
      <!-- 4000 -->
      <g transform="translate(298.025216 275.038438) scale(0.1 -0.1)">
       <defs>
        <path id="DejaVuSans-34" d="M 2419 4116 
L 825 1625 
L 2419 1625 
L 2419 4116 
z
M 2253 4666 
L 3047 4666 
L 3047 1625 
L 3713 1625 
L 3713 1100 
L 3047 1100 
L 3047 0 
L 2419 0 
L 2419 1100 
L 313 1100 
L 313 1709 
L 2253 4666 
z
" transform="scale(0.015625)"/>
       </defs>
       <use xlink:href="#DejaVuSans-34"/>
       <use xlink:href="#DejaVuSans-30" x="63.623047"/>
       <use xlink:href="#DejaVuSans-30" x="127.246094"/>
       <use xlink:href="#DejaVuSans-30" x="190.869141"/>
      </g>
     </g>
    </g>
    <g id="xtick_6">
     <g id="line2d_11">
      <path d="M 369.095538 260.44 
L 369.095538 25.44 
" clip-path="url(#pdf3f0c428e)" style="fill: none; stroke-dasharray: 2.96,1.28; stroke-dashoffset: 0; stroke: #b0b0b0; stroke-opacity: 0.3; stroke-width: 0.8"/>
     </g>
     <g id="line2d_12">
      <g>
       <use xlink:href="#md0dd6a5fbe" x="369.095538" y="260.44" style="stroke: #000000; stroke-width: 0.8"/>
      </g>
     </g>
     <g id="text_6">
      <!-- 5000 -->
      <g transform="translate(356.370538 275.038438) scale(0.1 -0.1)">
       <defs>
        <path id="DejaVuSans-35" d="M 691 4666 
L 3169 4666 
L 3169 4134 
L 1269 4134 
L 1269 2991 
Q 1406 3038 1543 3061 
Q 1681 3084 1819 3084 
Q 2600 3084 3056 2656 
Q 3513 2228 3513 1497 
Q 3513 744 3044 326 
Q 2575 -91 1722 -91 
Q 1428 -91 1123 -41 
Q 819 9 494 109 
L 494 744 
Q 775 591 1075 516 
Q 1375 441 1709 441 
Q 2250 441 2565 725 
Q 2881 1009 2881 1497 
Q 2881 1984 2565 2268 
Q 2250 2553 1709 2553 
Q 1456 2553 1204 2497 
Q 953 2441 691 2322 
L 691 4666 
z
" transform="scale(0.015625)"/>
       </defs>
       <use xlink:href="#DejaVuSans-35"/>
       <use xlink:href="#DejaVuSans-30" x="63.623047"/>
       <use xlink:href="#DejaVuSans-30" x="127.246094"/>
       <use xlink:href="#DejaVuSans-30" x="190.869141"/>
      </g>
     </g>
    </g>
    <g id="xtick_7">
     <g id="line2d_13">
      <path d="M 427.44086 260.44 
L 427.44086 25.44 
" clip-path="url(#pdf3f0c428e)" style="fill: none; stroke-dasharray: 2.96,1.28; stroke-dashoffset: 0; stroke: #b0b0b0; stroke-opacity: 0.3; stroke-width: 0.8"/>
     </g>
     <g id="line2d_14">
      <g>
       <use xlink:href="#md0dd6a5fbe" x="427.44086" y="260.44" style="stroke: #000000; stroke-width: 0.8"/>
      </g>
     </g>
     <g id="text_7">
      <!-- 6000 -->
      <g transform="translate(414.71586 275.038438) scale(0.1 -0.1)">
       <defs>
        <path id="DejaVuSans-36" d="M 2113 2584 
Q 1688 2584 1439 2293 
Q 1191 2003 1191 1497 
Q 1191 994 1439 701 
Q 1688 409 2113 409 
Q 2538 409 2786 701 
Q 3034 994 3034 1497 
Q 3034 2003 2786 2293 
Q 2538 2584 2113 2584 
z
M 3366 4563 
L 3366 3988 
Q 3128 4100 2886 4159 
Q 2644 4219 2406 4219 
Q 1781 4219 1451 3797 
Q 1122 3375 1075 2522 
Q 1259 2794 1537 2939 
Q 1816 3084 2150 3084 
Q 2853 3084 3261 2657 
Q 3669 2231 3669 1497 
Q 3669 778 3244 343 
Q 2819 -91 2113 -91 
Q 1303 -91 875 529 
Q 447 1150 447 2328 
Q 447 3434 972 4092 
Q 1497 4750 2381 4750 
Q 2619 4750 2861 4703 
Q 3103 4656 3366 4563 
z
" transform="scale(0.015625)"/>
       </defs>
       <use xlink:href="#DejaVuSans-36"/>
       <use xlink:href="#DejaVuSans-30" x="63.623047"/>
       <use xlink:href="#DejaVuSans-30" x="127.246094"/>
       <use xlink:href="#DejaVuSans-30" x="190.869141"/>
      </g>
     </g>
    </g>
    <g id="xtick_8">
     <g id="line2d_15">
      <path d="M 485.786182 260.44 
L 485.786182 25.44 
" clip-path="url(#pdf3f0c428e)" style="fill: none; stroke-dasharray: 2.96,1.28; stroke-dashoffset: 0; stroke: #b0b0b0; stroke-opacity: 0.3; stroke-width: 0.8"/>
     </g>
     <g id="line2d_16">
      <g>
       <use xlink:href="#md0dd6a5fbe" x="485.786182" y="260.44" style="stroke: #000000; stroke-width: 0.8"/>
      </g>
     </g>
     <g id="text_8">
      <!-- 7000 -->
      <g transform="translate(473.061182 275.038438) scale(0.1 -0.1)">
       <defs>
        <path id="DejaVuSans-37" d="M 525 4666 
L 3525 4666 
L 3525 4397 
L 1831 0 
L 1172 0 
L 2766 4134 
L 525 4134 
L 525 4666 
z
" transform="scale(0.015625)"/>
       </defs>
       <use xlink:href="#DejaVuSans-37"/>
       <use xlink:href="#DejaVuSans-30" x="63.623047"/>
       <use xlink:href="#DejaVuSans-30" x="127.246094"/>
       <use xlink:href="#DejaVuSans-30" x="190.869141"/>
      </g>
     </g>
    </g>
    <g id="xtick_9">
     <g id="line2d_17">
      <path d="M 544.131504 260.44 
L 544.131504 25.44 
" clip-path="url(#pdf3f0c428e)" style="fill: none; stroke-dasharray: 2.96,1.28; stroke-dashoffset: 0; stroke: #b0b0b0; stroke-opacity: 0.3; stroke-width: 0.8"/>
     </g>
     <g id="line2d_18">
      <g>
       <use xlink:href="#md0dd6a5fbe" x="544.131504" y="260.44" style="stroke: #000000; stroke-width: 0.8"/>
      </g>
     </g>
     <g id="text_9">
      <!-- 8000 -->
      <g transform="translate(531.406504 275.038438) scale(0.1 -0.1)">
       <defs>
        <path id="DejaVuSans-38" d="M 2034 2216 
Q 1584 2216 1326 1975 
Q 1069 1734 1069 1313 
Q 1069 891 1326 650 
Q 1584 409 2034 409 
Q 2484 409 2743 651 
Q 3003 894 3003 1313 
Q 3003 1734 2745 1975 
Q 2488 2216 2034 2216 
z
M 1403 2484 
Q 997 2584 770 2862 
Q 544 3141 544 3541 
Q 544 4100 942 4425 
Q 1341 4750 2034 4750 
Q 2731 4750 3128 4425 
Q 3525 4100 3525 3541 
Q 3525 3141 3298 2862 
Q 3072 2584 2669 2484 
Q 3125 2378 3379 2068 
Q 3634 1759 3634 1313 
Q 3634 634 3220 271 
Q 2806 -91 2034 -91 
Q 1263 -91 848 271 
Q 434 634 434 1313 
Q 434 1759 690 2068 
Q 947 2378 1403 2484 
z
M 1172 3481 
Q 1172 3119 1398 2916 
Q 1625 2713 2034 2713 
Q 2441 2713 2670 2916 
Q 2900 3119 2900 3481 
Q 2900 3844 2670 4047 
Q 2441 4250 2034 4250 
Q 1625 4250 1398 4047 
Q 1172 3844 1172 3481 
z
" transform="scale(0.015625)"/>
       </defs>
       <use xlink:href="#DejaVuSans-38"/>
       <use xlink:href="#DejaVuSans-30" x="63.623047"/>
       <use xlink:href="#DejaVuSans-30" x="127.246094"/>
       <use xlink:href="#DejaVuSans-30" x="190.869141"/>
      </g>
     </g>
    </g>
    <g id="text_10">
     <!-- round -->
     <g transform="translate(295.185937 288.716563) scale(0.1 -0.1)">
      <defs>
       <path id="DejaVuSans-72" d="M 2631 2963 
Q 2534 3019 2420 3045 
Q 2306 3072 2169 3072 
Q 1681 3072 1420 2755 
Q 1159 2438 1159 1844 
L 1159 0 
L 581 0 
L 581 3500 
L 1159 3500 
L 1159 2956 
Q 1341 3275 1631 3429 
Q 1922 3584 2338 3584 
Q 2397 3584 2469 3576 
Q 2541 3569 2628 3553 
L 2631 2963 
z
" transform="scale(0.015625)"/>
       <path id="DejaVuSans-6f" d="M 1959 3097 
Q 1497 3097 1228 2736 
Q 959 2375 959 1747 
Q 959 1119 1226 758 
Q 1494 397 1959 397 
Q 2419 397 2687 759 
Q 2956 1122 2956 1747 
Q 2956 2369 2687 2733 
Q 2419 3097 1959 3097 
z
M 1959 3584 
Q 2709 3584 3137 3096 
Q 3566 2609 3566 1747 
Q 3566 888 3137 398 
Q 2709 -91 1959 -91 
Q 1206 -91 779 398 
Q 353 888 353 1747 
Q 353 2609 779 3096 
Q 1206 3584 1959 3584 
z
" transform="scale(0.015625)"/>
       <path id="DejaVuSans-75" d="M 544 1381 
L 544 3500 
L 1119 3500 
L 1119 1403 
Q 1119 906 1312 657 
Q 1506 409 1894 409 
Q 2359 409 2629 706 
Q 2900 1003 2900 1516 
L 2900 3500 
L 3475 3500 
L 3475 0 
L 2900 0 
L 2900 538 
Q 2691 219 2414 64 
Q 2138 -91 1772 -91 
Q 1169 -91 856 284 
Q 544 659 544 1381 
z
M 1991 3584 
L 1991 3584 
z
" transform="scale(0.015625)"/>
       <path id="DejaVuSans-6e" d="M 3513 2113 
L 3513 0 
L 2938 0 
L 2938 2094 
Q 2938 2591 2744 2837 
Q 2550 3084 2163 3084 
Q 1697 3084 1428 2787 
Q 1159 2491 1159 1978 
L 1159 0 
L 581 0 
L 581 3500 
L 1159 3500 
L 1159 2956 
Q 1366 3272 1645 3428 
Q 1925 3584 2291 3584 
Q 2894 3584 3203 3211 
Q 3513 2838 3513 2113 
z
" transform="scale(0.015625)"/>
       <path id="DejaVuSans-64" d="M 2906 2969 
L 2906 4863 
L 3481 4863 
L 3481 0 
L 2906 0 
L 2906 525 
Q 2725 213 2448 61 
Q 2172 -91 1784 -91 
Q 1150 -91 751 415 
Q 353 922 353 1747 
Q 353 2572 751 3078 
Q 1150 3584 1784 3584 
Q 2172 3584 2448 3432 
Q 2725 3281 2906 2969 
z
M 947 1747 
Q 947 1113 1208 752 
Q 1469 391 1925 391 
Q 2381 391 2643 752 
Q 2906 1113 2906 1747 
Q 2906 2381 2643 2742 
Q 2381 3103 1925 3103 
Q 1469 3103 1208 2742 
Q 947 2381 947 1747 
z
" transform="scale(0.015625)"/>
      </defs>
      <use xlink:href="#DejaVuSans-72"/>
      <use xlink:href="#DejaVuSans-6f" x="38.863281"/>
      <use xlink:href="#DejaVuSans-75" x="100.044922"/>
      <use xlink:href="#DejaVuSans-6e" x="163.423828"/>
      <use xlink:href="#DejaVuSans-64" x="226.802734"/>
     </g>
    </g>
   </g>
   <g id="matplotlib.axis_2">
    <g id="ytick_1">
     <g id="line2d_19">
      <path d="M 54.2 239.076364 
L 565.2 239.076364 
" clip-path="url(#pdf3f0c428e)" style="fill: none; stroke-dasharray: 2.96,1.28; stroke-dashoffset: 0; stroke: #b0b0b0; stroke-opacity: 0.3; stroke-width: 0.8"/>
     </g>
     <g id="line2d_20">
      <defs>
       <path id="m8935fc5ae1" d="M 0 0 
L -3.5 0 
" style="stroke: #000000; stroke-width: 0.8"/>
      </defs>
      <g>
       <use xlink:href="#m8935fc5ae1" x="54.2" y="239.076364" style="stroke: #000000; stroke-width: 0.8"/>
      </g>
     </g>
     <g id="text_11">
      <!-- 0.75 -->
      <g transform="translate(24.934375 242.875582) scale(0.1 -0.1)">
       <defs>
        <path id="DejaVuSans-2e" d="M 684 794 
L 1344 794 
L 1344 0 
L 684 0 
L 684 794 
z
" transform="scale(0.015625)"/>
       </defs>
       <use xlink:href="#DejaVuSans-30"/>
       <use xlink:href="#DejaVuSans-2e" x="63.623047"/>
       <use xlink:href="#DejaVuSans-37" x="95.410156"/>
       <use xlink:href="#DejaVuSans-35" x="159.033203"/>
      </g>
     </g>
    </g>
    <g id="ytick_2">
     <g id="line2d_21">
      <path d="M 54.2 198.485455 
L 565.2 198.485455 
" clip-path="url(#pdf3f0c428e)" style="fill: none; stroke-dasharray: 2.96,1.28; stroke-dashoffset: 0; stroke: #b0b0b0; stroke-opacity: 0.3; stroke-width: 0.8"/>
     </g>
     <g id="line2d_22">
      <g>
       <use xlink:href="#m8935fc5ae1" x="54.2" y="198.485455" style="stroke: #000000; stroke-width: 0.8"/>
      </g>
     </g>
     <g id="text_12">
      <!-- 0.80 -->
      <g transform="translate(24.934375 202.284673) scale(0.1 -0.1)">
       <use xlink:href="#DejaVuSans-30"/>
       <use xlink:href="#DejaVuSans-2e" x="63.623047"/>
       <use xlink:href="#DejaVuSans-38" x="95.410156"/>
       <use xlink:href="#DejaVuSans-30" x="159.033203"/>
      </g>
     </g>
    </g>
    <g id="ytick_3">
     <g id="line2d_23">
      <path d="M 54.2 157.894545 
L 565.2 157.894545 
" clip-path="url(#pdf3f0c428e)" style="fill: none; stroke-dasharray: 2.96,1.28; stroke-dashoffset: 0; stroke: #b0b0b0; stroke-opacity: 0.3; stroke-width: 0.8"/>
     </g>
     <g id="line2d_24">
      <g>
       <use xlink:href="#m8935fc5ae1" x="54.2" y="157.894545" style="stroke: #000000; stroke-width: 0.8"/>
      </g>
     </g>
     <g id="text_13">
      <!-- 0.85 -->
      <g transform="translate(24.934375 161.693764) scale(0.1 -0.1)">
       <use xlink:href="#DejaVuSans-30"/>
       <use xlink:href="#DejaVuSans-2e" x="63.623047"/>
       <use xlink:href="#DejaVuSans-38" x="95.410156"/>
       <use xlink:href="#DejaVuSans-35" x="159.033203"/>
      </g>
     </g>
    </g>
    <g id="ytick_4">
     <g id="line2d_25">
      <path d="M 54.2 117.303636 
L 565.2 117.303636 
" clip-path="url(#pdf3f0c428e)" style="fill: none; stroke-dasharray: 2.96,1.28; stroke-dashoffset: 0; stroke: #b0b0b0; stroke-opacity: 0.3; stroke-width: 0.8"/>
     </g>
     <g id="line2d_26">
      <g>
       <use xlink:href="#m8935fc5ae1" x="54.2" y="117.303636" style="stroke: #000000; stroke-width: 0.8"/>
      </g>
     </g>
     <g id="text_14">
      <!-- 0.90 -->
      <g transform="translate(24.934375 121.102855) scale(0.1 -0.1)">
       <defs>
        <path id="DejaVuSans-39" d="M 703 97 
L 703 672 
Q 941 559 1184 500 
Q 1428 441 1663 441 
Q 2288 441 2617 861 
Q 2947 1281 2994 2138 
Q 2813 1869 2534 1725 
Q 2256 1581 1919 1581 
Q 1219 1581 811 2004 
Q 403 2428 403 3163 
Q 403 3881 828 4315 
Q 1253 4750 1959 4750 
Q 2769 4750 3195 4129 
Q 3622 3509 3622 2328 
Q 3622 1225 3098 567 
Q 2575 -91 1691 -91 
Q 1453 -91 1209 -44 
Q 966 3 703 97 
z
M 1959 2075 
Q 2384 2075 2632 2365 
Q 2881 2656 2881 3163 
Q 2881 3666 2632 3958 
Q 2384 4250 1959 4250 
Q 1534 4250 1286 3958 
Q 1038 3666 1038 3163 
Q 1038 2656 1286 2365 
Q 1534 2075 1959 2075 
z
" transform="scale(0.015625)"/>
       </defs>
       <use xlink:href="#DejaVuSans-30"/>
       <use xlink:href="#DejaVuSans-2e" x="63.623047"/>
       <use xlink:href="#DejaVuSans-39" x="95.410156"/>
       <use xlink:href="#DejaVuSans-30" x="159.033203"/>
      </g>
     </g>
    </g>
    <g id="ytick_5">
     <g id="line2d_27">
      <path d="M 54.2 76.712727 
L 565.2 76.712727 
" clip-path="url(#pdf3f0c428e)" style="fill: none; stroke-dasharray: 2.96,1.28; stroke-dashoffset: 0; stroke: #b0b0b0; stroke-opacity: 0.3; stroke-width: 0.8"/>
     </g>
     <g id="line2d_28">
      <g>
       <use xlink:href="#m8935fc5ae1" x="54.2" y="76.712727" style="stroke: #000000; stroke-width: 0.8"/>
      </g>
     </g>
     <g id="text_15">
      <!-- 0.95 -->
      <g transform="translate(24.934375 80.511946) scale(0.1 -0.1)">
       <use xlink:href="#DejaVuSans-30"/>
       <use xlink:href="#DejaVuSans-2e" x="63.623047"/>
       <use xlink:href="#DejaVuSans-39" x="95.410156"/>
       <use xlink:href="#DejaVuSans-35" x="159.033203"/>
      </g>
     </g>
    </g>
    <g id="ytick_6">
     <g id="line2d_29">
      <path d="M 54.2 36.121818 
L 565.2 36.121818 
" clip-path="url(#pdf3f0c428e)" style="fill: none; stroke-dasharray: 2.96,1.28; stroke-dashoffset: 0; stroke: #b0b0b0; stroke-opacity: 0.3; stroke-width: 0.8"/>
     </g>
     <g id="line2d_30">
      <g>
       <use xlink:href="#m8935fc5ae1" x="54.2" y="36.121818" style="stroke: #000000; stroke-width: 0.8"/>
      </g>
     </g>
     <g id="text_16">
      <!-- 1.00 -->
      <g transform="translate(24.934375 39.921037) scale(0.1 -0.1)">
       <use xlink:href="#DejaVuSans-31"/>
       <use xlink:href="#DejaVuSans-2e" x="63.623047"/>
       <use xlink:href="#DejaVuSans-30" x="95.410156"/>
       <use xlink:href="#DejaVuSans-30" x="159.033203"/>
      </g>
     </g>
    </g>
    <g id="text_17">
     <!-- cumulative timely transfer rate -->
     <g transform="translate(18.854688 221.048594) rotate(-90) scale(0.1 -0.1)">
      <defs>
       <path id="DejaVuSans-63" d="M 3122 3366 
L 3122 2828 
Q 2878 2963 2633 3030 
Q 2388 3097 2138 3097 
Q 1578 3097 1268 2742 
Q 959 2388 959 1747 
Q 959 1106 1268 751 
Q 1578 397 2138 397 
Q 2388 397 2633 464 
Q 2878 531 3122 666 
L 3122 134 
Q 2881 22 2623 -34 
Q 2366 -91 2075 -91 
Q 1284 -91 818 406 
Q 353 903 353 1747 
Q 353 2603 823 3093 
Q 1294 3584 2113 3584 
Q 2378 3584 2631 3529 
Q 2884 3475 3122 3366 
z
" transform="scale(0.015625)"/>
       <path id="DejaVuSans-6d" d="M 3328 2828 
Q 3544 3216 3844 3400 
Q 4144 3584 4550 3584 
Q 5097 3584 5394 3201 
Q 5691 2819 5691 2113 
L 5691 0 
L 5113 0 
L 5113 2094 
Q 5113 2597 4934 2840 
Q 4756 3084 4391 3084 
Q 3944 3084 3684 2787 
Q 3425 2491 3425 1978 
L 3425 0 
L 2847 0 
L 2847 2094 
Q 2847 2600 2669 2842 
Q 2491 3084 2119 3084 
Q 1678 3084 1418 2786 
Q 1159 2488 1159 1978 
L 1159 0 
L 581 0 
L 581 3500 
L 1159 3500 
L 1159 2956 
Q 1356 3278 1631 3431 
Q 1906 3584 2284 3584 
Q 2666 3584 2933 3390 
Q 3200 3197 3328 2828 
z
" transform="scale(0.015625)"/>
       <path id="DejaVuSans-6c" d="M 603 4863 
L 1178 4863 
L 1178 0 
L 603 0 
L 603 4863 
z
" transform="scale(0.015625)"/>
       <path id="DejaVuSans-61" d="M 2194 1759 
Q 1497 1759 1228 1600 
Q 959 1441 959 1056 
Q 959 750 1161 570 
Q 1363 391 1709 391 
Q 2188 391 2477 730 
Q 2766 1069 2766 1631 
L 2766 1759 
L 2194 1759 
z
M 3341 1997 
L 3341 0 
L 2766 0 
L 2766 531 
Q 2569 213 2275 61 
Q 1981 -91 1556 -91 
Q 1019 -91 701 211 
Q 384 513 384 1019 
Q 384 1609 779 1909 
Q 1175 2209 1959 2209 
L 2766 2209 
L 2766 2266 
Q 2766 2663 2505 2880 
Q 2244 3097 1772 3097 
Q 1472 3097 1187 3025 
Q 903 2953 641 2809 
L 641 3341 
Q 956 3463 1253 3523 
Q 1550 3584 1831 3584 
Q 2591 3584 2966 3190 
Q 3341 2797 3341 1997 
z
" transform="scale(0.015625)"/>
       <path id="DejaVuSans-74" d="M 1172 4494 
L 1172 3500 
L 2356 3500 
L 2356 3053 
L 1172 3053 
L 1172 1153 
Q 1172 725 1289 603 
Q 1406 481 1766 481 
L 2356 481 
L 2356 0 
L 1766 0 
Q 1100 0 847 248 
Q 594 497 594 1153 
L 594 3053 
L 172 3053 
L 172 3500 
L 594 3500 
L 594 4494 
L 1172 4494 
z
" transform="scale(0.015625)"/>
       <path id="DejaVuSans-69" d="M 603 3500 
L 1178 3500 
L 1178 0 
L 603 0 
L 603 3500 
z
M 603 4863 
L 1178 4863 
L 1178 4134 
L 603 4134 
L 603 4863 
z
" transform="scale(0.015625)"/>
       <path id="DejaVuSans-76" d="M 191 3500 
L 800 3500 
L 1894 563 
L 2988 3500 
L 3597 3500 
L 2284 0 
L 1503 0 
L 191 3500 
z
" transform="scale(0.015625)"/>
       <path id="DejaVuSans-65" d="M 3597 1894 
L 3597 1613 
L 953 1613 
Q 991 1019 1311 708 
Q 1631 397 2203 397 
Q 2534 397 2845 478 
Q 3156 559 3463 722 
L 3463 178 
Q 3153 47 2828 -22 
Q 2503 -91 2169 -91 
Q 1331 -91 842 396 
Q 353 884 353 1716 
Q 353 2575 817 3079 
Q 1281 3584 2069 3584 
Q 2775 3584 3186 3129 
Q 3597 2675 3597 1894 
z
M 3022 2063 
Q 3016 2534 2758 2815 
Q 2500 3097 2075 3097 
Q 1594 3097 1305 2825 
Q 1016 2553 972 2059 
L 3022 2063 
z
" transform="scale(0.015625)"/>
       <path id="DejaVuSans-20" transform="scale(0.015625)"/>
       <path id="DejaVuSans-79" d="M 2059 -325 
Q 1816 -950 1584 -1140 
Q 1353 -1331 966 -1331 
L 506 -1331 
L 506 -850 
L 844 -850 
Q 1081 -850 1212 -737 
Q 1344 -625 1503 -206 
L 1606 56 
L 191 3500 
L 800 3500 
L 1894 763 
L 2988 3500 
L 3597 3500 
L 2059 -325 
z
" transform="scale(0.015625)"/>
       <path id="DejaVuSans-73" d="M 2834 3397 
L 2834 2853 
Q 2591 2978 2328 3040 
Q 2066 3103 1784 3103 
Q 1356 3103 1142 2972 
Q 928 2841 928 2578 
Q 928 2378 1081 2264 
Q 1234 2150 1697 2047 
L 1894 2003 
Q 2506 1872 2764 1633 
Q 3022 1394 3022 966 
Q 3022 478 2636 193 
Q 2250 -91 1575 -91 
Q 1294 -91 989 -36 
Q 684 19 347 128 
L 347 722 
Q 666 556 975 473 
Q 1284 391 1588 391 
Q 1994 391 2212 530 
Q 2431 669 2431 922 
Q 2431 1156 2273 1281 
Q 2116 1406 1581 1522 
L 1381 1569 
Q 847 1681 609 1914 
Q 372 2147 372 2553 
Q 372 3047 722 3315 
Q 1072 3584 1716 3584 
Q 2034 3584 2315 3537 
Q 2597 3491 2834 3397 
z
" transform="scale(0.015625)"/>
       <path id="DejaVuSans-66" d="M 2375 4863 
L 2375 4384 
L 1825 4384 
Q 1516 4384 1395 4259 
Q 1275 4134 1275 3809 
L 1275 3500 
L 2222 3500 
L 2222 3053 
L 1275 3053 
L 1275 0 
L 697 0 
L 697 3053 
L 147 3053 
L 147 3500 
L 697 3500 
L 697 3744 
Q 697 4328 969 4595 
Q 1241 4863 1831 4863 
L 2375 4863 
z
" transform="scale(0.015625)"/>
      </defs>
      <use xlink:href="#DejaVuSans-63"/>
      <use xlink:href="#DejaVuSans-75" x="54.980469"/>
      <use xlink:href="#DejaVuSans-6d" x="118.359375"/>
      <use xlink:href="#DejaVuSans-75" x="215.771484"/>
      <use xlink:href="#DejaVuSans-6c" x="279.150391"/>
      <use xlink:href="#DejaVuSans-61" x="306.933594"/>
      <use xlink:href="#DejaVuSans-74" x="368.212891"/>
      <use xlink:href="#DejaVuSans-69" x="407.421875"/>
      <use xlink:href="#DejaVuSans-76" x="435.205078"/>
      <use xlink:href="#DejaVuSans-65" x="494.384766"/>
      <use xlink:href="#DejaVuSans-20" x="555.908203"/>
      <use xlink:href="#DejaVuSans-74" x="587.695312"/>
      <use xlink:href="#DejaVuSans-69" x="626.904297"/>
      <use xlink:href="#DejaVuSans-6d" x="654.6875"/>
      <use xlink:href="#DejaVuSans-65" x="752.099609"/>
      <use xlink:href="#DejaVuSans-6c" x="813.623047"/>
      <use xlink:href="#DejaVuSans-79" x="841.40625"/>
      <use xlink:href="#DejaVuSans-20" x="900.585938"/>
      <use xlink:href="#DejaVuSans-74" x="932.373047"/>
      <use xlink:href="#DejaVuSans-72" x="971.582031"/>
      <use xlink:href="#DejaVuSans-61" x="1012.695312"/>
      <use xlink:href="#DejaVuSans-6e" x="1073.974609"/>
      <use xlink:href="#DejaVuSans-73" x="1137.353516"/>
      <use xlink:href="#DejaVuSans-66" x="1189.453125"/>
      <use xlink:href="#DejaVuSans-65" x="1224.658203"/>
      <use xlink:href="#DejaVuSans-72" x="1286.181641"/>
      <use xlink:href="#DejaVuSans-20" x="1327.294922"/>
      <use xlink:href="#DejaVuSans-72" x="1359.082031"/>
      <use xlink:href="#DejaVuSans-61" x="1400.195312"/>
      <use xlink:href="#DejaVuSans-74" x="1461.474609"/>
      <use xlink:href="#DejaVuSans-65" x="1500.683594"/>
     </g>
    </g>
   </g>
   <g id="line2d_31">
    <path d="M 77.427273 249.758182 
L 77.485618 167.060235 
L 77.543963 198.485455 
L 77.660654 241.212727 
L 77.718999 230.403092 
L 78.010726 152.095844 
L 78.069071 154.443497 
L 78.244107 129.196514 
L 78.302453 131.62984 
L 78.535834 111.815821 
L 78.594179 114.627313 
L 79.060942 91.673918 
L 79.527704 78.595064 
L 80.111158 69.013163 
L 80.694611 62.541937 
L 81.161373 59.316623 
L 81.278064 58.786793 
L 81.336409 62.456532 
L 81.394755 62.164104 
L 81.628136 60.765452 
L 81.686481 64.582111 
L 81.744827 64.147234 
L 81.861517 63.451238 
L 81.978208 70.038164 
L 82.036553 69.696483 
L 82.094898 69.361618 
L 82.32828 76.551011 
L 82.503316 75.674947 
L 82.853388 80.277778 
L 82.911733 79.810313 
L 82.970078 80.377061 
L 83.028424 79.899762 
L 83.728568 72.428535 
L 84.136985 69.295167 
L 84.19533 70.079193 
L 84.253675 73.494522 
L 84.312021 72.976111 
L 84.370366 73.59035 
L 84.428711 73.229179 
L 84.487057 76.875241 
L 84.545402 76.502155 
L 84.603747 76.403816 
L 84.662093 81.182013 
L 84.720438 81.005997 
L 84.837129 80.68463 
L 84.895474 82.621 
L 84.953819 82.158862 
L 86.120726 73.477778 
L 86.470798 71.88311 
L 87.345977 68.315753 
L 87.987776 74.306765 
L 88.337848 73.471224 
L 88.396193 74.385284 
L 88.454539 74.103365 
L 89.446409 68.883467 
L 90.088208 65.80823 
L 90.496625 64.241526 
L 90.55497 64.926851 
L 90.613316 64.767793 
L 90.671661 64.579988 
L 90.846697 69.73924 
L 90.905042 69.590122 
L 90.963387 70.145079 
L 91.021733 69.986893 
L 91.196769 69.45311 
L 91.255114 71.133397 
L 91.313459 71.001444 
L 92.830438 65.847923 
L 93.238855 64.806788 
L 93.472236 67.237948 
L 93.530582 67.077863 
L 96.622884 59.295604 
L 96.91461 58.785575 
L 96.972956 59.486923 
L 97.031301 59.377644 
L 98.139862 57.313316 
L 99.54015 55.008033 
L 100.41533 53.830929 
L 100.53202 54.870196 
L 100.590366 55.584433 
L 100.648711 55.518458 
L 100.823747 55.324229 
L 100.940438 56.689101 
L 101.057128 56.598783 
L 101.348855 56.268631 
L 101.465545 57.926414 
L 101.640581 57.713174 
L 101.990653 57.218666 
L 102.048999 57.95236 
L 102.107344 57.872403 
L 102.982524 56.837205 
L 103.449286 56.373659 
L 103.565977 57.890823 
L 103.624322 57.84346 
L 103.741013 57.720479 
L 103.799358 58.428198 
L 103.857704 58.388364 
L 104.441157 57.725581 
L 104.557848 58.918249 
L 104.616193 58.852012 
L 104.732883 58.702897 
L 104.791229 58.981961 
L 104.849574 58.915392 
L 106.424898 57.142081 
L 107.125042 56.463719 
L 107.300078 58.301275 
L 107.358423 58.273107 
L 107.416768 58.234811 
L 107.475114 58.543611 
L 107.533459 58.502459 
L 108.116912 57.90039 
L 108.233603 58.621423 
L 108.291948 58.558327 
L 108.583675 58.270648 
L 108.700365 59.288028 
L 108.758711 59.240247 
L 109.167128 58.960099 
L 109.225473 59.427465 
L 109.283819 59.386811 
L 109.575545 59.127191 
L 109.692236 60.028923 
L 109.808926 59.911466 
L 110.158998 59.607047 
L 110.217344 59.963598 
L 110.275689 59.899966 
L 110.50907 59.712692 
L 110.567416 60.009334 
L 110.625761 59.94802 
L 110.975833 59.694058 
L 111.092524 60.759207 
L 111.209214 60.626292 
L 111.38425 60.47316 
L 111.442596 60.694103 
L 111.500941 60.648208 
L 111.617631 60.548159 
L 111.734322 60.928472 
L 111.792667 60.863394 
L 112.142739 60.575895 
L 112.201085 61.240019 
L 112.25943 61.181607 
L 112.551157 60.924814 
L 112.667847 61.33103 
L 112.726193 61.289149 
L 112.901229 61.128458 
L 112.959574 61.33419 
L 113.017919 61.291936 
L 113.192955 61.142839 
L 113.2513 61.370051 
L 113.309646 61.338215 
L 113.484682 61.194025 
L 113.659718 61.542039 
L 113.718063 61.504228 
L 113.834754 61.419756 
L 113.893099 61.955293 
L 113.951444 61.914022 
L 114.534898 61.413151 
L 114.593243 61.818178 
L 114.651588 61.774288 
L 115.993531 60.682139 
L 118.268998 59.232407 
L 118.444034 59.33606 
L 118.969142 58.939904 
L 119.027487 59.209957 
L 119.085833 59.167329 
L 119.202523 59.076677 
L 119.260869 59.188246 
L 119.319214 59.154174 
L 120.311084 58.528177 
L 120.36943 58.488278 
L 120.427775 58.983445 
L 120.48612 58.951328 
L 121.302955 58.416678 
L 121.3613 58.572629 
L 121.419646 58.539234 
L 121.769718 58.325096 
L 121.828063 58.49476 
L 121.886408 58.452391 
L 122.761588 57.926426 
L 122.819933 58.168657 
L 122.878279 58.12905 
L 124.745329 57.246204 
L 124.803674 57.531821 
L 124.86202 57.504632 
L 125.562163 57.14559 
L 125.620509 57.405572 
L 125.678854 57.371323 
L 127.312523 56.527665 
L 127.895976 56.239593 
L 127.954322 56.572049 
L 128.012667 56.545951 
L 128.421084 56.36024 
L 128.47943 56.507569 
L 128.537775 56.478196 
L 129.879717 55.849683 
L 132.680293 54.729512 
L 132.738638 54.927157 
L 132.796983 54.906567 
L 134.780724 54.19929 
L 135.247487 54.031961 
L 135.305832 54.293272 
L 135.364178 54.272139 
L 136.822811 53.754861 
L 137.464609 53.556113 
L 137.522954 53.818238 
L 137.5813 53.795869 
L 138.45648 53.513272 
L 138.57317 53.757068 
L 141.490436 52.866827 
L 146.216407 51.532494 
L 151.117415 50.331254 
L 152.459357 50.292464 
L 170.196335 50.396762 
L 170.546407 50.417693 
L 283.211224 50.521385 
L 283.853022 50.531847 
L 313.259065 50.625227 
L 313.609137 50.646143 
L 391.091724 50.74994 
L 391.383451 50.781303 
L 400.893738 50.884471 
L 401.185465 50.91582 
L 416.763666 50.988373 
L 416.938702 51.040604 
L 435.784241 51.144258 
L 436.017622 51.186025 
L 471.199852 51.278793 
L 471.433233 51.320542 
L 494.187908 51.424094 
L 494.479635 51.497122 
L 501.481074 51.579757 
L 501.714455 51.62147 
L 517.9928 51.725734 
L 518.634598 51.735341 
L 526.394526 51.733911 
L 526.394526 51.733911 
" clip-path="url(#pdf3f0c428e)" style="fill: none; stroke: #1f77b4; stroke-width: 1.8; stroke-linecap: square"/>
   </g>
   <g id="line2d_32">
    <path d="M 77.427273 36.121818 
L 77.485618 36.121818 
L 77.543963 55.001311 
L 77.602309 49.60717 
L 77.83569 42.514087 
L 77.894035 49.633355 
L 77.952381 48.659551 
L 78.010726 79.293652 
L 78.069071 75.976286 
L 78.244107 67.930708 
L 78.360798 85.837345 
L 78.419143 82.706207 
L 78.652524 74.117875 
L 78.71087 77.271831 
L 78.769215 75.348327 
L 79.177632 66.201268 
L 79.58605 60.771083 
L 79.644395 64.151681 
L 79.70274 63.472116 
L 79.761086 62.998225 
L 79.819431 64.756949 
L 79.877776 64.041491 
L 80.052812 62.073383 
L 80.111158 64.720697 
L 80.169503 64.057168 
L 80.344539 62.341539 
L 80.461229 66.80321 
L 80.519575 66.265436 
L 80.57792 66.829324 
L 80.752956 65.196156 
L 80.811301 65.524372 
L 80.927992 68.158581 
L 81.044683 67.063415 
L 81.103028 68.280799 
L 81.161373 67.845556 
L 81.919863 62.567508 
L 81.978208 64.497281 
L 82.036553 64.206748 
L 82.094898 63.858214 
L 82.153244 65.765482 
L 82.211589 65.432407 
L 82.386625 64.325391 
L 82.503316 65.613383 
L 82.561661 65.288938 
L 82.620006 64.931872 
L 82.795042 66.569049 
L 83.261805 64.187618 
L 83.32015 63.904916 
L 83.495186 64.71572 
L 83.611877 64.144635 
L 83.845258 65.96475 
L 83.903603 65.776456 
L 84.020294 65.244549 
L 84.136985 66.70579 
L 84.19533 66.479002 
L 84.487057 65.360857 
L 84.545402 65.103596 
L 84.603747 65.41171 
L 84.662093 65.196087 
L 84.720438 67.986082 
L 84.778783 67.804858 
L 85.303891 65.615532 
L 85.537272 67.079766 
L 85.595618 66.831928 
L 85.653963 66.598666 
L 85.712308 67.448482 
L 85.770654 67.297094 
L 86.004035 66.819395 
L 86.06238 67.701917 
L 86.120726 67.511046 
L 86.179071 67.283999 
L 86.237416 67.585072 
L 86.295762 67.360771 
L 86.354107 67.142141 
L 86.529143 67.891128 
L 86.879215 66.680754 
L 86.995906 67.89445 
L 87.170942 67.281187 
L 87.229287 68.045248 
L 87.287632 67.875505 
L 87.521013 67.132372 
L 87.579359 67.687743 
L 87.637704 67.510219 
L 87.696049 67.358701 
L 87.754395 67.821547 
L 87.81274 67.628563 
L 87.871085 67.448686 
L 88.046121 68.139813 
L 88.162812 67.76308 
L 88.221157 68.329118 
L 88.279503 68.167273 
L 88.337848 68.034339 
L 88.396193 68.966573 
L 88.454539 68.784815 
L 88.629575 68.311196 
L 88.746265 68.862659 
L 88.804611 68.684799 
L 88.862956 69.020959 
L 88.921301 68.868705 
L 89.154682 68.524861 
L 89.271373 69.555708 
L 89.329718 69.416367 
L 89.5631 68.761832 
L 89.67979 69.874184 
L 89.738136 69.734239 
L 90.029862 68.985761 
L 90.088208 69.816617 
L 90.146553 69.650539 
L 90.379934 69.022388 
L 90.43828 70.072946 
L 90.496625 69.917773 
L 90.905042 68.88753 
L 91.021733 69.902807 
L 91.080078 69.762112 
L 91.138423 69.606762 
L 91.196769 70.136665 
L 91.255114 69.991567 
L 92.071949 68.490646 
L 92.130294 68.747328 
L 92.188639 68.610394 
L 92.246985 68.518689 
L 92.30533 68.733015 
L 92.363675 68.597679 
L 92.597056 68.111421 
L 92.655402 68.360918 
L 92.713747 69.255693 
L 92.772092 69.115743 
L 93.063819 68.715791 
L 93.122164 69.180432 
L 93.18051 69.045906 
L 93.355546 68.67823 
L 93.413891 68.914798 
L 93.472236 68.797081 
L 93.763963 68.263454 
L 93.822308 68.433167 
L 93.880654 68.310009 
L 93.938999 68.189186 
L 93.997344 68.484315 
L 94.05569 68.384626 
L 94.230725 68.020645 
L 94.639143 69.635687 
L 95.04756 68.848384 
L 95.222596 70.109186 
L 95.339287 69.876845 
L 95.397632 70.050587 
L 95.455977 69.978684 
L 95.689359 69.543029 
L 95.747704 69.78787 
L 95.806049 69.692768 
L 96.156121 69.083657 
L 96.214466 69.254074 
L 96.272812 69.158943 
L 96.622884 68.54087 
L 96.79792 69.032549 
L 96.856265 68.943273 
L 96.91461 69.34746 
L 96.972956 69.257866 
L 97.147992 68.960676 
L 97.206337 69.185907 
L 97.264682 69.100454 
L 97.323028 68.997538 
L 97.498064 69.347824 
L 97.614754 69.266731 
L 97.964826 70.47499 
L 98.081517 70.27112 
L 98.431589 69.70603 
L 98.66497 70.796292 
L 98.781661 70.618264 
L 98.956697 70.355771 
L 99.015042 70.554696 
L 99.073387 70.470887 
L 99.248423 70.219633 
L 99.306769 70.633067 
L 99.365114 70.544448 
L 99.481804 70.351753 
L 99.598495 71.145883 
L 99.65684 71.045815 
L 99.831876 70.763507 
L 99.948567 71.19332 
L 100.181948 70.812265 
L 100.298639 71.537306 
L 100.356984 71.437121 
L 100.473675 71.260407 
L 100.765402 72.42477 
L 100.823747 72.330903 
L 100.882092 72.246393 
L 100.940438 72.447394 
L 100.998783 72.348647 
L 101.057128 72.250435 
L 101.173819 72.644782 
L 101.232164 72.54657 
L 101.348855 73.04816 
L 101.4072 72.950726 
L 101.465545 73.169414 
L 101.523891 73.080992 
L 101.815617 72.658066 
L 101.873963 72.762076 
L 101.932308 72.684622 
L 102.28238 72.228779 
L 102.340725 72.439629 
L 102.399071 72.346337 
L 102.749143 71.867622 
L 102.865833 72.157626 
L 102.924178 72.074061 
L 103.15756 71.754625 
L 103.27425 72.017307 
L 103.332596 71.935331 
L 103.390941 71.849758 
L 103.565977 72.145339 
L 103.682668 71.987871 
L 103.741013 72.330299 
L 103.799358 72.248049 
L 103.916049 72.081728 
L 103.974394 72.282542 
L 104.03274 72.19529 
L 104.266121 71.887906 
L 104.324466 71.931244 
L 104.382812 72.192969 
L 104.441157 72.120701 
L 104.907919 71.577604 
L 104.966265 71.859166 
L 105.02461 71.776998 
L 105.958135 70.83192 
L 106.074826 70.965116 
L 106.133171 70.901204 
L 106.308207 70.697907 
L 106.366552 70.982568 
L 106.424898 70.904504 
L 106.716624 70.577869 
L 106.77497 71.060626 
L 106.833315 70.985176 
L 107.008351 70.778511 
L 107.125042 71.173838 
L 107.183387 71.105835 
L 107.241732 71.067699 
L 107.416768 71.394471 
L 107.708495 71.041434 
L 107.825186 71.475222 
L 107.941876 71.356482 
L 108.058567 71.208762 
L 108.116912 71.652221 
L 108.175257 71.588863 
L 108.233603 71.516612 
L 108.291948 71.67313 
L 108.350293 71.613414 
L 108.758711 71.148463 
L 108.933747 72.098561 
L 109.283819 71.701924 
L 109.342164 71.923031 
L 109.400509 71.851995 
L 109.925617 71.392428 
L 110.042308 71.974252 
L 110.100653 71.92679 
L 110.158998 71.862129 
L 110.217344 72.059083 
L 110.275689 71.992067 
L 110.39238 71.976219 
L 110.742452 71.603075 
L 110.800797 71.746026 
L 110.859142 71.67922 
L 110.917488 71.615719 
L 110.975833 71.792723 
L 111.034178 71.730779 
L 111.792667 70.946852 
L 111.967703 71.142887 
L 112.084394 71.017682 
L 112.142739 71.246866 
L 112.201085 71.185744 
L 112.667847 70.833081 
L 112.726193 71.040335 
L 112.784538 70.991172 
L 112.901229 70.876995 
L 113.076265 71.396831 
L 113.367991 71.207219 
L 113.426336 71.292422 
L 113.484682 71.238966 
L 113.543027 71.177272 
L 113.718063 71.686142 
L 113.776408 71.625479 
L 113.893099 71.526468 
L 113.951444 71.785526 
L 114.00979 71.734197 
L 114.068135 71.675316 
L 114.12648 71.876089 
L 114.184826 71.81436 
L 114.301516 71.6978 
L 114.418207 72.162546 
L 114.476552 72.100842 
L 114.651588 71.931547 
L 114.768279 72.211684 
L 114.826624 72.150456 
L 115.060005 72.065815 
L 115.351732 71.932332 
L 115.526768 72.12208 
L 115.585113 72.06496 
L 115.643459 72.164162 
L 115.701804 72.110517 
L 115.760149 72.052977 
L 115.818495 72.20703 
L 115.87684 72.148847 
L 115.993531 72.046469 
L 116.051876 72.162211 
L 116.110221 72.103099 
L 116.343603 71.889107 
L 116.401948 72.068766 
L 116.460293 72.014969 
L 116.75202 71.767994 
L 116.810365 71.978224 
L 116.86871 71.922477 
L 117.160437 71.655352 
L 117.218782 71.916115 
L 117.277128 71.860393 
L 117.918926 71.320096 
L 117.977272 71.603003 
L 118.035617 71.552542 
L 118.268998 71.347143 
L 118.327344 71.44132 
L 118.385689 71.396476 
L 118.969142 70.898501 
L 119.027487 71.211168 
L 119.085833 71.162507 
L 119.377559 71.034822 
L 119.552595 71.257932 
L 119.844322 71.022232 
L 119.902667 71.260444 
L 119.961013 71.216293 
L 120.252739 70.978372 
L 120.311084 71.097833 
L 120.36943 71.051944 
L 120.777847 70.73291 
L 120.836192 70.843194 
L 120.894538 70.792419 
L 121.127919 70.605038 
L 121.186264 70.729703 
L 121.24461 70.686349 
L 121.769718 70.27427 
L 121.886408 70.489377 
L 121.944753 70.442544 
L 122.586552 70.102851 
L 122.644897 70.210687 
L 122.703243 70.17316 
L 122.994969 69.955083 
L 123.170005 70.178831 
L 123.870149 69.743835 
L 123.98684 69.767936 
L 124.10353 69.791407 
L 124.628638 69.451633 
L 124.686984 69.612831 
L 124.745329 69.571838 
L 125.795545 68.947775 
L 125.85389 69.05589 
L 125.912235 69.02384 
L 126.612379 68.750607 
L 126.670725 68.91165 
L 126.72907 68.876809 
L 127.195832 68.689634 
L 127.312523 68.769235 
L 127.662595 68.604464 
L 127.837631 68.822128 
L 128.537775 68.617899 
L 128.654466 68.720931 
L 129.296264 68.461762 
L 129.4713 68.637022 
L 129.587991 68.585326 
L 129.763027 68.849374 
L 130.288135 68.669568 
L 130.404825 68.720646 
L 130.638206 68.645599 
L 130.754897 68.719791 
L 133.08871 68.358019 
L 133.205401 68.455524 
L 134.08058 68.282749 
L 134.255616 68.433211 
L 135.305832 68.319643 
L 135.889285 68.277864 
L 136.064321 68.381329 
L 136.122667 68.376486 
L 136.297703 68.532958 
L 146.099717 68.422422 
L 157.768781 68.358182 
L 255.730577 68.389386 
L 255.730577 68.389386 
" clip-path="url(#pdf3f0c428e)" style="fill: none; stroke: #ff7f0e; stroke-width: 1.8; stroke-linecap: square"/>
   </g>
   <g id="line2d_33">
    <path d="M 77.427273 46.946061 
L 77.543963 85.437876 
L 77.602309 73.679243 
L 77.718999 59.78468 
L 77.83569 80.329739 
L 78.010726 69.073848 
L 78.069071 76.06253 
L 78.127417 73.140039 
L 78.185762 75.781929 
L 78.302453 70.954647 
L 78.360798 71.24538 
L 78.477489 74.863684 
L 78.535834 81.534299 
L 78.594179 79.411662 
L 78.652524 80.225649 
L 78.82756 74.609339 
L 78.885906 75.354667 
L 79.177632 69.564758 
L 79.235978 71.325498 
L 79.294323 70.090542 
L 79.352668 69.019894 
L 79.411014 69.839506 
L 79.469359 77.358027 
L 79.527704 76.087313 
L 79.70274 73.202774 
L 79.819431 76.993217 
L 79.877776 75.957669 
L 80.286194 70.720198 
L 80.344539 74.505132 
L 80.402884 73.916368 
L 80.57792 71.87654 
L 80.636265 72.347347 
L 80.752956 71.051389 
L 80.811301 72.129883 
L 80.869647 71.558326 
L 81.044683 70.106595 
L 81.103028 72.162977 
L 81.161373 71.517301 
L 81.278064 70.414431 
L 81.336409 71.294465 
L 81.394755 70.730389 
L 81.4531 70.368869 
L 81.511445 71.271716 
L 81.569791 70.7919 
L 82.269934 65.82413 
L 82.386625 65.214504 
L 82.503316 66.512827 
L 82.561661 66.146205 
L 82.620006 68.055114 
L 82.678352 67.693923 
L 82.736697 67.273991 
L 82.795042 69.712604 
L 82.853388 69.296789 
L 83.028424 68.942753 
L 83.086769 70.194691 
L 83.145114 69.875575 
L 83.261805 69.259562 
L 83.436841 71.232214 
L 83.495186 71.224532 
L 83.611877 70.529018 
L 83.670222 70.903454 
L 83.728568 70.593705 
L 83.903603 69.840816 
L 83.961949 71.113981 
L 84.020294 70.849316 
L 84.136985 70.382035 
L 84.19533 72.021217 
L 84.253675 71.740719 
L 84.545402 70.59195 
L 84.662093 70.062239 
L 84.720438 70.152305 
L 84.837129 71.558326 
L 84.895474 71.248566 
L 85.012165 70.72677 
L 85.07051 72.062137 
L 85.128855 71.905625 
L 85.887344 69.497179 
L 85.94569 69.431601 
L 86.179071 68.65231 
L 86.354107 69.723069 
L 86.587488 68.833508 
L 86.704179 70.03157 
L 86.82087 69.668613 
L 86.93756 69.235732 
L 87.112596 70.64528 
L 87.521013 69.126842 
L 87.579359 69.440271 
L 87.637704 69.290501 
L 87.754395 68.979281 
L 87.929431 70.27229 
L 87.987776 70.113118 
L 88.104467 72.080544 
L 88.162812 71.836114 
L 88.571229 70.672378 
L 88.746265 70.104905 
L 88.862956 72.024895 
L 88.921301 71.865531 
L 88.979647 71.687296 
L 89.037992 72.886653 
L 89.096337 72.66393 
L 89.329718 72.248679 
L 89.388064 72.263264 
L 89.913172 70.829987 
L 89.971517 72.478242 
L 90.029862 72.309771 
L 90.788351 70.63312 
L 90.963387 71.319253 
L 91.488495 70.025062 
L 91.546841 70.212674 
L 91.605186 70.103364 
L 92.422021 68.499475 
L 92.597056 68.2151 
L 92.713747 68.96919 
L 92.772092 68.850416 
L 92.830438 68.713218 
L 92.947128 69.094765 
L 93.18051 68.698586 
L 93.238855 68.94271 
L 93.2972 68.840038 
L 93.413891 68.592865 
L 93.472236 69.037888 
L 93.530582 68.933081 
L 93.647272 68.864434 
L 93.880654 68.406795 
L 93.938999 68.539159 
L 93.997344 69.083896 
L 94.05569 68.965505 
L 94.289071 68.498732 
L 94.405761 68.758124 
L 94.872524 67.906269 
L 94.989215 68.68055 
L 95.164251 68.340745 
L 95.222596 68.644522 
L 95.280941 68.516105 
L 95.572668 68.006589 
L 95.631013 68.106456 
L 95.864395 67.747774 
L 95.92274 67.960682 
L 95.981085 67.87519 
L 96.389502 67.390694 
L 96.564538 67.792732 
L 96.622884 67.694086 
L 96.972956 67.164972 
L 97.031301 67.439678 
L 97.089646 67.35088 
L 97.206337 67.293011 
L 97.323028 67.112952 
L 97.439718 67.662851 
L 97.731445 67.231456 
L 97.78979 67.293135 
L 97.848135 67.404286 
L 97.906481 67.294737 
L 98.431589 66.596104 
L 98.66497 67.263372 
L 98.956697 66.911223 
L 99.015042 67.073389 
L 99.073387 66.98609 
L 99.65684 66.319472 
L 99.715186 66.779512 
L 99.773531 66.685245 
L 100.298639 66.034673 
L 100.356984 66.542348 
L 100.41533 66.452445 
L 100.473675 66.360872 
L 100.53202 66.448952 
L 100.590366 66.685491 
L 100.648711 66.631373 
L 100.882092 66.314963 
L 100.998783 66.639778 
L 101.115473 66.477684 
L 101.348855 67.580804 
L 101.523891 67.31197 
L 101.582236 67.815011 
L 101.640581 67.729608 
L 101.990653 67.332813 
L 102.048999 67.469882 
L 102.107344 67.394342 
L 102.340725 67.235374 
L 102.632452 66.856168 
L 102.690797 66.994951 
L 102.865833 67.157282 
L 102.924178 67.077707 
L 103.390941 66.514237 
L 103.449286 66.741678 
L 103.507632 66.665008 
L 104.03274 66.149304 
L 104.091085 66.347323 
L 104.14943 66.287461 
L 104.382812 66.087073 
L 104.441157 66.453653 
L 104.499502 66.379352 
L 104.557848 66.307281 
L 104.674538 66.665373 
L 104.732883 66.593075 
L 104.791229 66.54818 
L 104.849574 66.701115 
L 104.907919 66.631041 
L 105.02461 66.500168 
L 105.082955 66.658347 
L 105.141301 66.59359 
L 105.491373 66.345731 
L 105.549718 66.595 
L 105.608063 66.521468 
L 106.074826 66.006884 
L 106.133171 66.154014 
L 106.191517 66.086593 
L 106.658279 65.599298 
L 106.716624 65.913737 
L 106.77497 65.853311 
L 106.833315 65.786364 
L 106.89166 66.030909 
L 106.950006 65.962992 
L 107.241732 65.674428 
L 107.416768 65.910399 
L 107.825186 65.653055 
L 107.883531 65.750056 
L 107.941876 65.685822 
L 108.175257 65.578596 
L 110.042308 64.206654 
L 110.100653 64.485724 
L 110.158998 64.441539 
L 111.500941 63.297813 
L 111.734322 63.22915 
L 111.792667 63.320388 
L 111.851013 63.269638 
L 112.026049 63.113966 
L 112.084394 63.326945 
L 112.142739 63.283166 
L 112.726193 62.881056 
L 112.842883 62.882748 
L 113.426336 62.491608 
L 113.484682 62.763054 
L 113.543027 62.713381 
L 114.301516 62.171908 
L 114.359862 62.380827 
L 114.418207 62.331859 
L 114.768279 62.074715 
L 114.826624 62.294384 
L 114.88497 62.256086 
L 115.526768 61.846644 
L 115.701804 62.042524 
L 115.818495 61.966283 
L 115.87684 62.060181 
L 115.935185 62.022717 
L 116.051876 61.953666 
L 116.110221 62.182418 
L 116.168567 62.139401 
L 116.693674 61.885645 
L 117.043746 61.773242 
L 117.568854 61.54533 
L 117.685545 61.583511 
L 118.444034 61.13282 
L 118.560725 61.23435 
L 119.552595 60.708201 
L 120.427775 60.321932 
L 120.661156 60.571332 
L 121.069574 60.368462 
L 121.186264 60.409037 
L 121.828063 60.145103 
L 121.944753 60.616134 
L 122.003099 60.602285 
L 122.294825 60.489141 
L 122.411516 60.509903 
L 122.469861 60.47894 
L 122.528207 60.626451 
L 122.586552 60.59586 
L 122.761588 60.509071 
L 122.878279 60.568377 
L 123.578423 60.291458 
L 123.636768 60.268084 
L 123.753458 60.35277 
L 124.745329 60.048387 
L 124.803674 60.222875 
L 124.86202 60.202645 
L 125.562163 59.894848 
L 125.620509 60.13757 
L 125.678854 60.108848 
L 126.670725 59.806513 
L 126.904106 60.073214 
L 127.079142 59.998414 
L 127.137487 60.210016 
L 127.195832 60.185267 
L 128.012667 59.872512 
L 128.129358 59.964184 
L 128.712811 59.769909 
L 128.829501 59.838099 
L 128.887847 59.817913 
L 128.946192 60.00758 
L 129.004537 59.978946 
L 131.921804 59.107142 
L 132.038494 59.164295 
L 132.446911 59.143953 
L 133.380437 58.920444 
L 133.730509 58.836894 
L 133.847199 58.948625 
L 134.780724 58.750588 
L 134.95576 58.850659 
L 135.83094 58.678582 
L 135.947631 58.652874 
L 136.064321 58.784004 
L 137.114537 58.670257 
L 137.522954 58.612562 
L 137.639645 58.74474 
L 139.039933 58.57592 
L 139.214969 58.667898 
L 139.506695 58.642405 
L 139.623386 58.785117 
L 142.132235 58.646771 
L 142.307271 58.75431 
L 144.057631 58.618274 
L 144.232667 58.673657 
L 145.749645 58.568459 
L 146.099717 58.613327 
L 146.274753 58.672986 
L 146.508134 58.757417 
L 146.68317 58.841766 
L 151.525832 58.719344 
L 151.759213 58.761411 
L 161.794608 58.757247 
L 162.02799 58.789896 
L 183.73245 58.656739 
L 218.739643 58.758022 
L 219.323096 58.769382 
L 280.935756 58.8703 
L 281.519209 58.881656 
L 301.006547 58.98319 
L 301.59 58.994214 
L 326.678489 59.09505 
L 327.261942 59.106399 
L 357.659855 59.207858 
L 358.243308 59.219203 
L 359.701941 59.219203 
L 359.701941 59.219203 
" clip-path="url(#pdf3f0c428e)" style="fill: none; stroke: #2ca02c; stroke-width: 1.8; stroke-linecap: square"/>
   </g>
   <g id="line2d_34">
    <path d="M 77.427273 36.121818 
L 77.952381 36.121818 
L 78.010726 50.053175 
L 78.069071 48.860763 
L 78.419143 44.491078 
L 78.71087 42.721966 
L 78.885906 41.909245 
L 78.944251 46.256877 
L 79.002596 45.956078 
L 79.469359 43.758866 
L 79.527704 49.887754 
L 79.58605 49.453941 
L 80.052812 47.173059 
L 80.286194 46.328163 
L 80.402884 45.93792 
L 80.461229 53.798295 
L 80.519575 53.44876 
L 80.927992 51.576364 
L 81.511445 49.243671 
L 82.036553 47.777991 
L 82.853388 45.927082 
L 83.903603 44.319566 
L 84.312021 43.81785 
L 84.370366 45.437581 
L 84.428711 45.347025 
L 85.07051 44.556029 
L 85.245546 47.865663 
L 86.06238 46.663751 
L 86.295762 46.371609 
L 86.354107 47.933531 
L 86.412452 47.873624 
L 87.287632 46.789293 
L 87.345977 48.349394 
L 87.404323 48.277549 
L 88.396193 47.211847 
L 88.746265 46.849197 
L 88.804611 48.069255 
L 88.862956 47.993251 
L 89.096337 47.756783 
L 89.154682 48.294183 
L 89.213028 48.232677 
L 90.379934 47.123507 
L 90.43828 47.555047 
L 90.496625 47.534335 
L 91.721877 46.495466 
L 91.955258 46.344636 
L 92.013603 46.934863 
L 92.071949 46.896546 
L 93.005474 46.241912 
L 94.405761 45.380222 
L 95.397632 44.891328 
L 96.03943 44.570141 
L 96.097776 45.396705 
L 96.156121 45.370173 
L 97.089646 44.944661 
L 99.54015 43.951974 
L 102.632452 42.985746 
L 102.690797 43.27161 
L 102.749143 43.254646 
L 103.040869 43.177224 
L 103.099214 43.842108 
L 103.15756 43.823235 
L 103.916049 43.607994 
L 103.974394 44.282239 
L 104.03274 44.260921 
L 105.666409 43.796031 
L 105.724754 44.428243 
L 105.783099 44.413369 
L 108.583675 43.669512 
L 108.700365 43.886208 
L 109.342164 43.726112 
L 109.400509 44.020925 
L 109.458855 44.008406 
L 109.808926 43.926175 
L 109.867272 44.219286 
L 109.925617 44.201481 
L 110.859142 43.973632 
L 110.917488 44.41358 
L 110.975833 44.400803 
L 115.176696 43.442018 
L 115.293387 43.583862 
L 120.894538 42.60883 
L 120.952883 43.051209 
L 121.011228 43.041266 
L 123.695113 42.633379 
L 123.811804 42.827958 
L 124.803674 42.697901 
L 124.86202 43.215701 
L 124.920365 43.207473 
L 125.037056 43.190798 
L 125.153746 43.427912 
L 125.270437 43.411795 
L 125.387127 43.61319 
L 125.562163 43.591233 
L 125.678854 43.749176 
L 125.912235 43.713585 
L 126.028926 43.884957 
L 126.904106 43.764233 
L 127.079142 44.091187 
L 127.137487 44.082921 
L 127.254178 44.35719 
L 128.012667 44.265837 
L 128.129358 44.460454 
L 129.004537 44.352219 
L 129.121228 44.55799 
L 129.938063 44.475612 
L 130.171444 44.779256 
L 130.696552 44.735041 
L 130.813242 44.872373 
L 130.988278 44.854645 
L 131.104969 45.017819 
L 131.980149 45.060959 
L 132.21353 45.311399 
L 132.446911 45.288988 
L 132.563602 45.438728 
L 133.263746 45.463537 
L 133.613818 45.901563 
L 134.08058 45.859679 
L 134.255616 46.124583 
L 134.664034 46.144959 
L 134.780724 46.290262 
L 135.247487 46.357817 
L 135.597559 46.733 
L 136.589429 46.77197 
L 136.764465 46.840896 
L 138.281444 46.791413 
L 138.45648 46.837043 
L 140.906983 46.825931 
L 141.140364 47.063669 
L 141.665472 47.102998 
L 141.840508 47.185507 
L 142.307271 47.159709 
L 142.482307 47.283486 
L 142.832379 47.310696 
L 143.182451 47.469059 
L 143.649213 47.440596 
L 143.882595 47.664132 
L 145.224537 47.657237 
L 145.341228 47.808688 
L 146.508134 47.820724 
L 146.68317 48.105813 
L 147.383314 48.121618 
L 147.55835 48.163797 
L 148.200148 48.206012 
L 148.608566 48.723183 
L 149.658781 48.71369 
L 149.775472 48.860726 
L 150.942379 48.855624 
L 152.16763 48.896833 
L 152.459357 49.105675 
L 152.867774 49.188329 
L 153.04281 49.317015 
L 154.676479 49.286101 
L 154.79317 49.426848 
L 154.851515 49.421551 
L 154.968206 49.586907 
L 155.201587 49.568596 
L 155.318278 49.734151 
L 155.551659 49.718163 
L 155.726695 49.828819 
L 157.068637 49.837704 
L 157.243673 49.925159 
L 157.710436 49.99214 
L 159.752522 49.962318 
L 160.219285 50.374865 
L 160.27763 50.372314 
L 160.452666 50.565432 
L 161.794608 50.529874 
L 161.969644 50.61664 
L 164.128421 50.540477 
L 164.303457 50.638774 
L 164.653529 50.618784 
L 164.77022 50.822942 
L 165.6454 50.849001 
L 165.878781 50.953112 
L 167.51245 50.931943 
L 168.095903 51.259935 
L 168.854392 51.29282 
L 169.029428 51.387535 
L 169.962954 51.438263 
L 170.429716 51.50219 
L 170.604752 51.586241 
L 171.596623 51.640847 
L 171.771659 51.689536 
L 172.12173 51.756663 
L 172.296766 51.831289 
L 173.113601 51.889992 
L 174.163817 51.92972 
L 174.338853 52.00186 
L 175.155687 52.064632 
L 175.330723 52.137209 
L 176.030867 52.191743 
L 176.205903 52.274893 
L 178.306335 52.239922 
L 178.481371 52.324407 
L 179.23986 52.29985 
L 179.35655 52.463864 
L 180.23173 52.501174 
L 180.406766 52.57383 
L 181.281946 52.610617 
L 181.515327 52.650668 
L 181.632018 52.714285 
L 181.807054 52.775777 
L 183.382378 52.784225 
L 183.557414 52.87767 
L 184.140867 52.935621 
L 184.315903 53.017567 
L 186.007917 53.017868 
L 186.241298 53.15195 
L 188.925183 53.186663 
L 189.100219 53.259793 
L 191.142305 53.234118 
L 191.317341 53.314725 
L 193.476118 53.378316 
L 193.651154 53.449329 
L 194.58468 53.513511 
L 194.759715 53.606115 
L 195.401514 53.669764 
L 195.57655 53.749468 
L 196.45173 53.809686 
L 196.626766 53.890843 
L 197.151874 53.93914 
L 197.32691 53.98965 
L 198.785543 54.027803 
L 198.960579 54.120185 
L 200.302521 54.175312 
L 200.535902 54.278054 
L 201.469428 54.282714 
L 201.644463 54.352327 
L 202.344607 54.419038 
L 202.636334 54.517902 
L 202.928061 54.572725 
L 203.161442 54.674375 
L 204.736766 54.68082 
L 204.970147 54.770115 
L 207.770722 54.809276 
L 212.146621 54.83113 
L 212.321657 54.893302 
L 213.430219 54.959231 
L 213.6636 54.998807 
L 217.689427 55.05629 
L 217.864463 55.108261 
L 233.267628 55.070826 
L 233.501009 55.101355 
L 235.893168 55.15089 
L 236.126549 55.180886 
L 243.127987 55.282625 
L 243.478059 55.301641 
L 248.379066 55.391386 
L 248.670793 55.421234 
L 250.012735 55.51806 
L 250.304462 55.548131 
L 260.864965 55.521126 
L 323.352805 55.623655 
L 323.994604 55.633982 
L 382.689998 55.644309 
L 382.689998 55.644309 
" clip-path="url(#pdf3f0c428e)" style="fill: none; stroke: #d62728; stroke-width: 1.8; stroke-linecap: square"/>
   </g>
   <g id="line2d_35">
    <path d="M 77.427273 36.121818 
L 77.485618 36.121818 
L 77.602309 51.614532 
L 77.660654 47.819487 
L 77.718999 45.650201 
L 77.83569 63.409824 
L 77.894035 59.998824 
L 78.069071 53.866478 
L 78.244107 69.474488 
L 78.302453 67.218358 
L 78.652524 58.739159 
L 79.060942 53.528504 
L 79.119287 59.030268 
L 79.177632 58.344386 
L 79.70274 53.246526 
L 80.344539 49.550705 
L 80.986337 47.069219 
L 81.744827 45.127948 
L 82.386625 43.956011 
L 83.028424 43.060435 
L 84.312021 41.743584 
L 85.187201 41.12773 
L 86.179071 40.558741 
L 88.512884 39.624809 
L 91.021733 38.986795 
L 96.447848 38.176729 
L 100.707056 37.802112 
L 106.89166 37.447202 
L 116.285257 37.123618 
L 129.938063 36.872904 
L 142.540652 36.876028 
L 142.774033 36.90927 
L 174.688925 37.019921 
L 175.330723 37.030996 
L 184.782665 37.141621 
L 185.132737 37.174803 
L 190.500507 37.274292 
L 190.850579 37.296423 
L 197.151874 37.406972 
L 197.968708 37.451215 
L 204.67842 37.561605 
L 204.911802 37.59477 
L 209.054319 37.694144 
L 209.404391 37.716246 
L 218.797988 37.815597 
L 219.031369 37.859784 
L 226.207844 37.970054 
L 226.441225 38.003179 
L 230.758779 38.102429 
L 230.99216 38.135542 
L 236.885038 38.245809 
L 237.118419 38.289941 
L 246.395326 38.389096 
L 246.628707 38.422056 
L 251.588059 38.499209 
L 251.763095 38.554332 
L 256.080649 38.642272 
L 256.31403 38.719406 
L 267.574677 38.8295 
L 268.216476 38.840477 
L 274.40108 38.95053 
L 275.217915 38.994572 
L 285.194965 39.104413 
L 285.603382 39.148435 
L 293.071583 39.247467 
L 293.48 39.302474 
L 305.965899 39.412197 
L 306.374317 39.467177 
L 309.058201 39.565889 
L 309.408273 39.587872 
L 316.759784 39.697283 
L 317.401583 39.70827 
L 322.30259 39.807136 
L 322.652662 39.829103 
L 332.337985 39.894894 
L 332.513021 39.949796 
L 340.447985 40.048387 
L 340.914747 40.125214 
L 348.908056 40.234942 
L 349.141438 40.278825 
L 354.334171 40.3877 
L 354.684243 40.409629 
L 358.126617 40.486136 
L 358.359999 40.52998 
L 364.894675 40.639265 
L 365.186401 40.68309 
L 372.012804 40.791491 
L 372.246185 40.82434 
L 376.505394 40.92287 
L 376.79712 40.988543 
L 379.130933 41.076091 
L 379.364315 41.108917 
L 386.074027 41.218109 
L 386.307408 41.250921 
L 391.791868 41.338268 
L 392.025249 41.37107 
L 397.101293 41.480027 
L 397.451364 41.501886 
L 400.660357 41.589311 
L 400.893738 41.62209 
L 410.22899 41.720261 
L 410.579062 41.742106 
L 415.888486 41.850851 
L 416.296903 41.894523 
L 420.322731 42.003682 
L 420.672803 42.025511 
L 427.090788 42.101577 
L 427.324169 42.145219 
L 441.385392 42.23249 
L 441.618773 42.265212 
L 445.236183 42.374011 
L 445.586255 42.395818 
L 457.138629 42.503968 
L 457.547046 42.558456 
L 463.848341 42.623832 
L 464.023377 42.678304 
L 476.392585 42.775526 
L 476.742657 42.797304 
L 486.077909 42.906181 
L 486.31129 42.938838 
L 492.204168 43.036607 
L 492.554239 43.058371 
L 498.622153 43.156295 
L 498.972225 43.178053 
L 502.356254 43.286824 
L 502.589635 43.319449 
L 505.740282 43.416817 
L 505.973664 43.4603 
L 512.333304 43.536184 
L 512.566685 43.579653 
L 516.650857 43.677441 
L 517.11762 43.742619 
L 520.443303 43.829508 
L 520.676685 43.872945 
L 531.237188 43.981412 
L 531.470569 44.013977 
L 539.872296 44.111551 
L 540.222368 44.133254 
L 541.972727 44.154956 
L 541.972727 44.154956 
" clip-path="url(#pdf3f0c428e)" style="fill: none; stroke: #9467bd; stroke-width: 1.8; stroke-linecap: square"/>
   </g>
   <g id="patch_3">
    <path d="M 54.2 260.44 
L 54.2 25.44 
" style="fill: none; stroke: #000000; stroke-width: 0.8; stroke-linejoin: miter; stroke-linecap: square"/>
   </g>
   <g id="patch_4">
    <path d="M 565.2 260.44 
L 565.2 25.44 
" style="fill: none; stroke: #000000; stroke-width: 0.8; stroke-linejoin: miter; stroke-linecap: square"/>
   </g>
   <g id="patch_5">
    <path d="M 54.2 260.44 
L 565.2 260.44 
" style="fill: none; stroke: #000000; stroke-width: 0.8; stroke-linejoin: miter; stroke-linecap: square"/>
   </g>
   <g id="patch_6">
    <path d="M 54.2 25.44 
L 565.2 25.44 
" style="fill: none; stroke: #000000; stroke-width: 0.8; stroke-linejoin: miter; stroke-linecap: square"/>
   </g>
   <g id="text_18">
    <!-- Timely Transfer Rate (Cumulative) -->
    <g transform="translate(207.277187 19.44) scale(0.12 -0.12)">
     <defs>
      <path id="DejaVuSans-54" d="M -19 4666 
L 3928 4666 
L 3928 4134 
L 2272 4134 
L 2272 0 
L 1638 0 
L 1638 4134 
L -19 4134 
L -19 4666 
z
" transform="scale(0.015625)"/>
      <path id="DejaVuSans-52" d="M 2841 2188 
Q 3044 2119 3236 1894 
Q 3428 1669 3622 1275 
L 4263 0 
L 3584 0 
L 2988 1197 
Q 2756 1666 2539 1819 
Q 2322 1972 1947 1972 
L 1259 1972 
L 1259 0 
L 628 0 
L 628 4666 
L 2053 4666 
Q 2853 4666 3247 4331 
Q 3641 3997 3641 3322 
Q 3641 2881 3436 2590 
Q 3231 2300 2841 2188 
z
M 1259 4147 
L 1259 2491 
L 2053 2491 
Q 2509 2491 2742 2702 
Q 2975 2913 2975 3322 
Q 2975 3731 2742 3939 
Q 2509 4147 2053 4147 
L 1259 4147 
z
" transform="scale(0.015625)"/>
      <path id="DejaVuSans-28" d="M 1984 4856 
Q 1566 4138 1362 3434 
Q 1159 2731 1159 2009 
Q 1159 1288 1364 580 
Q 1569 -128 1984 -844 
L 1484 -844 
Q 1016 -109 783 600 
Q 550 1309 550 2009 
Q 550 2706 781 3412 
Q 1013 4119 1484 4856 
L 1984 4856 
z
" transform="scale(0.015625)"/>
      <path id="DejaVuSans-43" d="M 4122 4306 
L 4122 3641 
Q 3803 3938 3442 4084 
Q 3081 4231 2675 4231 
Q 1875 4231 1450 3742 
Q 1025 3253 1025 2328 
Q 1025 1406 1450 917 
Q 1875 428 2675 428 
Q 3081 428 3442 575 
Q 3803 722 4122 1019 
L 4122 359 
Q 3791 134 3420 21 
Q 3050 -91 2638 -91 
Q 1578 -91 968 557 
Q 359 1206 359 2328 
Q 359 3453 968 4101 
Q 1578 4750 2638 4750 
Q 3056 4750 3426 4639 
Q 3797 4528 4122 4306 
z
" transform="scale(0.015625)"/>
      <path id="DejaVuSans-29" d="M 513 4856 
L 1013 4856 
Q 1481 4119 1714 3412 
Q 1947 2706 1947 2009 
Q 1947 1309 1714 600 
Q 1481 -109 1013 -844 
L 513 -844 
Q 928 -128 1133 580 
Q 1338 1288 1338 2009 
Q 1338 2731 1133 3434 
Q 928 4138 513 4856 
z
" transform="scale(0.015625)"/>
     </defs>
     <use xlink:href="#DejaVuSans-54"/>
     <use xlink:href="#DejaVuSans-69" x="57.958984"/>
     <use xlink:href="#DejaVuSans-6d" x="85.742188"/>
     <use xlink:href="#DejaVuSans-65" x="183.154297"/>
     <use xlink:href="#DejaVuSans-6c" x="244.677734"/>
     <use xlink:href="#DejaVuSans-79" x="272.460938"/>
     <use xlink:href="#DejaVuSans-20" x="331.640625"/>
     <use xlink:href="#DejaVuSans-54" x="363.427734"/>
     <use xlink:href="#DejaVuSans-72" x="409.761719"/>
     <use xlink:href="#DejaVuSans-61" x="450.875"/>
     <use xlink:href="#DejaVuSans-6e" x="512.154297"/>
     <use xlink:href="#DejaVuSans-73" x="575.533203"/>
     <use xlink:href="#DejaVuSans-66" x="627.632812"/>
     <use xlink:href="#DejaVuSans-65" x="662.837891"/>
     <use xlink:href="#DejaVuSans-72" x="724.361328"/>
     <use xlink:href="#DejaVuSans-20" x="765.474609"/>
     <use xlink:href="#DejaVuSans-52" x="797.261719"/>
     <use xlink:href="#DejaVuSans-61" x="864.494141"/>
     <use xlink:href="#DejaVuSans-74" x="925.773438"/>
     <use xlink:href="#DejaVuSans-65" x="964.982422"/>
     <use xlink:href="#DejaVuSans-20" x="1026.505859"/>
     <use xlink:href="#DejaVuSans-28" x="1058.292969"/>
     <use xlink:href="#DejaVuSans-43" x="1097.306641"/>
     <use xlink:href="#DejaVuSans-75" x="1167.130859"/>
     <use xlink:href="#DejaVuSans-6d" x="1230.509766"/>
     <use xlink:href="#DejaVuSans-75" x="1327.921875"/>
     <use xlink:href="#DejaVuSans-6c" x="1391.300781"/>
     <use xlink:href="#DejaVuSans-61" x="1419.083984"/>
     <use xlink:href="#DejaVuSans-74" x="1480.363281"/>
     <use xlink:href="#DejaVuSans-69" x="1519.572266"/>
     <use xlink:href="#DejaVuSans-76" x="1547.355469"/>
     <use xlink:href="#DejaVuSans-65" x="1606.535156"/>
     <use xlink:href="#DejaVuSans-29" x="1668.058594"/>
    </g>
   </g>
   <g id="legend_1">
    <g id="patch_7">
     <path d="M 480.614062 255.44 
L 558.2 255.44 
Q 560.2 255.44 560.2 253.44 
L 560.2 180.493125 
Q 560.2 178.493125 558.2 178.493125 
L 480.614062 178.493125 
Q 478.614062 178.493125 478.614062 180.493125 
L 478.614062 253.44 
Q 478.614062 255.44 480.614062 255.44 
z
" style="fill: #ffffff; opacity: 0.8; stroke: #cccccc; stroke-linejoin: miter"/>
    </g>
    <g id="line2d_36">
     <path d="M 482.614062 186.591563 
L 492.614062 186.591563 
L 502.614062 186.591563 
" style="fill: none; stroke: #1f77b4; stroke-width: 1.8; stroke-linecap: square"/>
    </g>
    <g id="text_19">
     <!-- sheer -->
     <g transform="translate(510.614062 190.091563) scale(0.1 -0.1)">
      <defs>
       <path id="DejaVuSans-68" d="M 3513 2113 
L 3513 0 
L 2938 0 
L 2938 2094 
Q 2938 2591 2744 2837 
Q 2550 3084 2163 3084 
Q 1697 3084 1428 2787 
Q 1159 2491 1159 1978 
L 1159 0 
L 581 0 
L 581 4863 
L 1159 4863 
L 1159 2956 
Q 1366 3272 1645 3428 
Q 1925 3584 2291 3584 
Q 2894 3584 3203 3211 
Q 3513 2838 3513 2113 
z
" transform="scale(0.015625)"/>
      </defs>
      <use xlink:href="#DejaVuSans-73"/>
      <use xlink:href="#DejaVuSans-68" x="52.099609"/>
      <use xlink:href="#DejaVuSans-65" x="115.478516"/>
      <use xlink:href="#DejaVuSans-65" x="177.001953"/>
      <use xlink:href="#DejaVuSans-72" x="238.525391"/>
     </g>
    </g>
    <g id="line2d_37">
     <path d="M 482.614062 201.269688 
L 492.614062 201.269688 
L 502.614062 201.269688 
" style="fill: none; stroke: #ff7f0e; stroke-width: 1.8; stroke-linecap: square"/>
    </g>
    <g id="text_20">
     <!-- actar -->
     <g transform="translate(510.614062 204.769688) scale(0.1 -0.1)">
      <use xlink:href="#DejaVuSans-61"/>
      <use xlink:href="#DejaVuSans-63" x="61.279297"/>
      <use xlink:href="#DejaVuSans-74" x="116.259766"/>
      <use xlink:href="#DejaVuSans-61" x="155.46875"/>
      <use xlink:href="#DejaVuSans-72" x="216.748047"/>
     </g>
    </g>
    <g id="line2d_38">
     <path d="M 482.614062 215.947813 
L 492.614062 215.947813 
L 502.614062 215.947813 
" style="fill: none; stroke: #2ca02c; stroke-width: 1.8; stroke-linecap: square"/>
    </g>
    <g id="text_21">
     <!-- tfsm_dpc -->
     <g transform="translate(510.614062 219.447813) scale(0.1 -0.1)">
      <defs>
       <path id="DejaVuSans-5f" d="M 3263 -1063 
L 3263 -1509 
L -63 -1509 
L -63 -1063 
L 3263 -1063 
z
" transform="scale(0.015625)"/>
       <path id="DejaVuSans-70" d="M 1159 525 
L 1159 -1331 
L 581 -1331 
L 581 3500 
L 1159 3500 
L 1159 2969 
Q 1341 3281 1617 3432 
Q 1894 3584 2278 3584 
Q 2916 3584 3314 3078 
Q 3713 2572 3713 1747 
Q 3713 922 3314 415 
Q 2916 -91 2278 -91 
Q 1894 -91 1617 61 
Q 1341 213 1159 525 
z
M 3116 1747 
Q 3116 2381 2855 2742 
Q 2594 3103 2138 3103 
Q 1681 3103 1420 2742 
Q 1159 2381 1159 1747 
Q 1159 1113 1420 752 
Q 1681 391 2138 391 
Q 2594 391 2855 752 
Q 3116 1113 3116 1747 
z
" transform="scale(0.015625)"/>
      </defs>
      <use xlink:href="#DejaVuSans-74"/>
      <use xlink:href="#DejaVuSans-66" x="39.208984"/>
      <use xlink:href="#DejaVuSans-73" x="74.414062"/>
      <use xlink:href="#DejaVuSans-6d" x="126.513672"/>
      <use xlink:href="#DejaVuSans-5f" x="223.925781"/>
      <use xlink:href="#DejaVuSans-64" x="273.925781"/>
      <use xlink:href="#DejaVuSans-70" x="337.402344"/>
      <use xlink:href="#DejaVuSans-63" x="400.878906"/>
     </g>
    </g>
    <g id="line2d_39">
     <path d="M 482.614062 230.904063 
L 492.614062 230.904063 
L 502.614062 230.904063 
" style="fill: none; stroke: #d62728; stroke-width: 1.8; stroke-linecap: square"/>
    </g>
    <g id="text_22">
     <!-- dst_woa -->
     <g transform="translate(510.614062 234.404063) scale(0.1 -0.1)">
      <defs>
       <path id="DejaVuSans-77" d="M 269 3500 
L 844 3500 
L 1563 769 
L 2278 3500 
L 2956 3500 
L 3675 769 
L 4391 3500 
L 4966 3500 
L 4050 0 
L 3372 0 
L 2619 2869 
L 1863 0 
L 1184 0 
L 269 3500 
z
" transform="scale(0.015625)"/>
      </defs>
      <use xlink:href="#DejaVuSans-64"/>
      <use xlink:href="#DejaVuSans-73" x="63.476562"/>
      <use xlink:href="#DejaVuSans-74" x="115.576172"/>
      <use xlink:href="#DejaVuSans-5f" x="154.785156"/>
      <use xlink:href="#DejaVuSans-77" x="204.785156"/>
      <use xlink:href="#DejaVuSans-6f" x="286.572266"/>
      <use xlink:href="#DejaVuSans-61" x="347.753906"/>
     </g>
    </g>
    <g id="line2d_40">
     <path d="M 482.614062 245.860313 
L 492.614062 245.860313 
L 502.614062 245.860313 
" style="fill: none; stroke: #9467bd; stroke-width: 1.8; stroke-linecap: square"/>
    </g>
    <g id="text_23">
     <!-- trail -->
     <g transform="translate(510.614062 249.360313) scale(0.1 -0.1)">
      <use xlink:href="#DejaVuSans-74"/>
      <use xlink:href="#DejaVuSans-72" x="39.208984"/>
      <use xlink:href="#DejaVuSans-61" x="80.322266"/>
      <use xlink:href="#DejaVuSans-69" x="141.601562"/>
      <use xlink:href="#DejaVuSans-6c" x="169.384766"/>
     </g>
    </g>
   </g>
  </g>
 </g>
 <defs>
  <clipPath id="pdf3f0c428e">
   <rect x="54.2" y="25.44" width="511" height="235"/>
  </clipPath>
 </defs>
</svg>
