<?xml version="1.0" encoding="utf-8" standalone="no"?>
<!DOCTYPE svg PUBLIC "-//W3C//DTD SVG 1.1//EN"
  "http://www.w3.org/Graphics/SVG/1.1/DTD/svg11.dtd">
<svg xmlns:xlink="http://www.w3.org/1999/xlink" width="576pt" height="302.4pt" viewBox="0 0 576 302.4" xmlns="http://www.w3.org/2000/svg" version="1.1">
 <metadata>
  <rdf:RDF xmlns:dc="http://purl.org/dc/elements/1.1/" xmlns:cc="http://creativecommons.org/ns#" xmlns:rdf="http://www.w3.org/1999/02/22-rdf-syntax-ns#">
   <cc:Work>
    <dc:type rdf:resource="http://purl.org/dc/dcmitype/StillImage"/>
    <dc:date>2025-09-06T15:53:02.592777</dc:date>
    <dc:format>image/svg+xml</dc:format>
    <dc:creator>
     <cc:Agent>
      <dc:title>Matplotlib v3.9.4, https://matplotlib.org/</dc:title>
     </cc:Agent>
    </dc:creator>
   </cc:Work>
  </rdf:RDF>
 </metadata>
 <defs>
  <style type="text/css">*{stroke-linejoin: round; stroke-linecap: butt}</style>
 </defs>
 <g id="figure_1">
  <g id="patch_1">
   <path d="M 0 302.4 
L 576 302.4 
L 576 0 
L 0 0 
z
" style="fill: #ffffff"/>
  </g>
  <g id="axes_1">
   <g id="patch_2">
    <path d="M 47.81 260.44 
L 565.2 260.44 
L 565.2 25.44 
L 47.81 25.44 
z
" style="fill: #ffffff"/>
   </g>
   <g id="matplotlib.axis_1">
    <g id="xtick_1">
     <g id="line2d_1">
      <path d="M 71.277647 260.44 
L 71.277647 25.44 
" clip-path="url(#pd6253dfb08)" style="fill: none; stroke-dasharray: 2.96,1.28; stroke-dashoffset: 0; stroke: #b0b0b0; stroke-opacity: 0.3; stroke-width: 0.8"/>
     </g>
     <g id="line2d_2">
      <defs>
       <path id="m6e128c64f1" d="M 0 0 
L 0 3.5 
" style="stroke: #000000; stroke-width: 0.8"/>
      </defs>
      <g>
       <use xlink:href="#m6e128c64f1" x="71.277647" y="260.44" style="stroke: #000000; stroke-width: 0.8"/>
      </g>
     </g>
     <g id="text_1">
      <!-- 0 -->
      <g transform="translate(68.096397 275.038438) scale(0.1 -0.1)">
       <defs>
        <path id="DejaVuSans-30" d="M 2034 4250 
Q 1547 4250 1301 3770 
Q 1056 3291 1056 2328 
Q 1056 1369 1301 889 
Q 1547 409 2034 409 
Q 2525 409 2770 889 
Q 3016 1369 3016 2328 
Q 3016 3291 2770 3770 
Q 2525 4250 2034 4250 
z
M 2034 4750 
Q 2819 4750 3233 4129 
Q 3647 3509 3647 2328 
Q 3647 1150 3233 529 
Q 2819 -91 2034 -91 
Q 1250 -91 836 529 
Q 422 1150 422 2328 
Q 422 3509 836 4129 
Q 1250 4750 2034 4750 
z
" transform="scale(0.015625)"/>
       </defs>
       <use xlink:href="#DejaVuSans-30"/>
      </g>
     </g>
    </g>
    <g id="xtick_2">
     <g id="line2d_3">
      <path d="M 171.438325 260.44 
L 171.438325 25.44 
" clip-path="url(#pd6253dfb08)" style="fill: none; stroke-dasharray: 2.96,1.28; stroke-dashoffset: 0; stroke: #b0b0b0; stroke-opacity: 0.3; stroke-width: 0.8"/>
     </g>
     <g id="line2d_4">
      <g>
       <use xlink:href="#m6e128c64f1" x="171.438325" y="260.44" style="stroke: #000000; stroke-width: 0.8"/>
      </g>
     </g>
     <g id="text_2">
      <!-- 2000 -->
      <g transform="translate(158.713325 275.038438) scale(0.1 -0.1)">
       <defs>
        <path id="DejaVuSans-32" d="M 1228 531 
L 3431 531 
L 3431 0 
L 469 0 
L 469 531 
Q 828 903 1448 1529 
Q 2069 2156 2228 2338 
Q 2531 2678 2651 2914 
Q 2772 3150 2772 3378 
Q 2772 3750 2511 3984 
Q 2250 4219 1831 4219 
Q 1534 4219 1204 4116 
Q 875 4013 500 3803 
L 500 4441 
Q 881 4594 1212 4672 
Q 1544 4750 1819 4750 
Q 2544 4750 2975 4387 
Q 3406 4025 3406 3419 
Q 3406 3131 3298 2873 
Q 3191 2616 2906 2266 
Q 2828 2175 2409 1742 
Q 1991 1309 1228 531 
z
" transform="scale(0.015625)"/>
       </defs>
       <use xlink:href="#DejaVuSans-32"/>
       <use xlink:href="#DejaVuSans-30" x="63.623047"/>
       <use xlink:href="#DejaVuSans-30" x="127.246094"/>
       <use xlink:href="#DejaVuSans-30" x="190.869141"/>
      </g>
     </g>
    </g>
    <g id="xtick_3">
     <g id="line2d_5">
      <path d="M 271.599004 260.44 
L 271.599004 25.44 
" clip-path="url(#pd6253dfb08)" style="fill: none; stroke-dasharray: 2.96,1.28; stroke-dashoffset: 0; stroke: #b0b0b0; stroke-opacity: 0.3; stroke-width: 0.8"/>
     </g>
     <g id="line2d_6">
      <g>
       <use xlink:href="#m6e128c64f1" x="271.599004" y="260.44" style="stroke: #000000; stroke-width: 0.8"/>
      </g>
     </g>
     <g id="text_3">
      <!-- 4000 -->
      <g transform="translate(258.874004 275.038438) scale(0.1 -0.1)">
       <defs>
        <path id="DejaVuSans-34" d="M 2419 4116 
L 825 1625 
L 2419 1625 
L 2419 4116 
z
M 2253 4666 
L 3047 4666 
L 3047 1625 
L 3713 1625 
L 3713 1100 
L 3047 1100 
L 3047 0 
L 2419 0 
L 2419 1100 
L 313 1100 
L 313 1709 
L 2253 4666 
z
" transform="scale(0.015625)"/>
       </defs>
       <use xlink:href="#DejaVuSans-34"/>
       <use xlink:href="#DejaVuSans-30" x="63.623047"/>
       <use xlink:href="#DejaVuSans-30" x="127.246094"/>
       <use xlink:href="#DejaVuSans-30" x="190.869141"/>
      </g>
     </g>
    </g>
    <g id="xtick_4">
     <g id="line2d_7">
      <path d="M 371.759682 260.44 
L 371.759682 25.44 
" clip-path="url(#pd6253dfb08)" style="fill: none; stroke-dasharray: 2.96,1.28; stroke-dashoffset: 0; stroke: #b0b0b0; stroke-opacity: 0.3; stroke-width: 0.8"/>
     </g>
     <g id="line2d_8">
      <g>
       <use xlink:href="#m6e128c64f1" x="371.759682" y="260.44" style="stroke: #000000; stroke-width: 0.8"/>
      </g>
     </g>
     <g id="text_4">
      <!-- 6000 -->
      <g transform="translate(359.034682 275.038438) scale(0.1 -0.1)">
       <defs>
        <path id="DejaVuSans-36" d="M 2113 2584 
Q 1688 2584 1439 2293 
Q 1191 2003 1191 1497 
Q 1191 994 1439 701 
Q 1688 409 2113 409 
Q 2538 409 2786 701 
Q 3034 994 3034 1497 
Q 3034 2003 2786 2293 
Q 2538 2584 2113 2584 
z
M 3366 4563 
L 3366 3988 
Q 3128 4100 2886 4159 
Q 2644 4219 2406 4219 
Q 1781 4219 1451 3797 
Q 1122 3375 1075 2522 
Q 1259 2794 1537 2939 
Q 1816 3084 2150 3084 
Q 2853 3084 3261 2657 
Q 3669 2231 3669 1497 
Q 3669 778 3244 343 
Q 2819 -91 2113 -91 
Q 1303 -91 875 529 
Q 447 1150 447 2328 
Q 447 3434 972 4092 
Q 1497 4750 2381 4750 
Q 2619 4750 2861 4703 
Q 3103 4656 3366 4563 
z
" transform="scale(0.015625)"/>
       </defs>
       <use xlink:href="#DejaVuSans-36"/>
       <use xlink:href="#DejaVuSans-30" x="63.623047"/>
       <use xlink:href="#DejaVuSans-30" x="127.246094"/>
       <use xlink:href="#DejaVuSans-30" x="190.869141"/>
      </g>
     </g>
    </g>
    <g id="xtick_5">
     <g id="line2d_9">
      <path d="M 471.92036 260.44 
L 471.92036 25.44 
" clip-path="url(#pd6253dfb08)" style="fill: none; stroke-dasharray: 2.96,1.28; stroke-dashoffset: 0; stroke: #b0b0b0; stroke-opacity: 0.3; stroke-width: 0.8"/>
     </g>
     <g id="line2d_10">
      <g>
       <use xlink:href="#m6e128c64f1" x="471.92036" y="260.44" style="stroke: #000000; stroke-width: 0.8"/>
      </g>
     </g>
     <g id="text_5">
      <!-- 8000 -->
      <g transform="translate(459.19536 275.038438) scale(0.1 -0.1)">
       <defs>
        <path id="DejaVuSans-38" d="M 2034 2216 
Q 1584 2216 1326 1975 
Q 1069 1734 1069 1313 
Q 1069 891 1326 650 
Q 1584 409 2034 409 
Q 2484 409 2743 651 
Q 3003 894 3003 1313 
Q 3003 1734 2745 1975 
Q 2488 2216 2034 2216 
z
M 1403 2484 
Q 997 2584 770 2862 
Q 544 3141 544 3541 
Q 544 4100 942 4425 
Q 1341 4750 2034 4750 
Q 2731 4750 3128 4425 
Q 3525 4100 3525 3541 
Q 3525 3141 3298 2862 
Q 3072 2584 2669 2484 
Q 3125 2378 3379 2068 
Q 3634 1759 3634 1313 
Q 3634 634 3220 271 
Q 2806 -91 2034 -91 
Q 1263 -91 848 271 
Q 434 634 434 1313 
Q 434 1759 690 2068 
Q 947 2378 1403 2484 
z
M 1172 3481 
Q 1172 3119 1398 2916 
Q 1625 2713 2034 2713 
Q 2441 2713 2670 2916 
Q 2900 3119 2900 3481 
Q 2900 3844 2670 4047 
Q 2441 4250 2034 4250 
Q 1625 4250 1398 4047 
Q 1172 3844 1172 3481 
z
" transform="scale(0.015625)"/>
       </defs>
       <use xlink:href="#DejaVuSans-38"/>
       <use xlink:href="#DejaVuSans-30" x="63.623047"/>
       <use xlink:href="#DejaVuSans-30" x="127.246094"/>
       <use xlink:href="#DejaVuSans-30" x="190.869141"/>
      </g>
     </g>
    </g>
    <g id="text_6">
     <!-- round -->
     <g transform="translate(291.990937 288.716563) scale(0.1 -0.1)">
      <defs>
       <path id="DejaVuSans-72" d="M 2631 2963 
Q 2534 3019 2420 3045 
Q 2306 3072 2169 3072 
Q 1681 3072 1420 2755 
Q 1159 2438 1159 1844 
L 1159 0 
L 581 0 
L 581 3500 
L 1159 3500 
L 1159 2956 
Q 1341 3275 1631 3429 
Q 1922 3584 2338 3584 
Q 2397 3584 2469 3576 
Q 2541 3569 2628 3553 
L 2631 2963 
z
" transform="scale(0.015625)"/>
       <path id="DejaVuSans-6f" d="M 1959 3097 
Q 1497 3097 1228 2736 
Q 959 2375 959 1747 
Q 959 1119 1226 758 
Q 1494 397 1959 397 
Q 2419 397 2687 759 
Q 2956 1122 2956 1747 
Q 2956 2369 2687 2733 
Q 2419 3097 1959 3097 
z
M 1959 3584 
Q 2709 3584 3137 3096 
Q 3566 2609 3566 1747 
Q 3566 888 3137 398 
Q 2709 -91 1959 -91 
Q 1206 -91 779 398 
Q 353 888 353 1747 
Q 353 2609 779 3096 
Q 1206 3584 1959 3584 
z
" transform="scale(0.015625)"/>
       <path id="DejaVuSans-75" d="M 544 1381 
L 544 3500 
L 1119 3500 
L 1119 1403 
Q 1119 906 1312 657 
Q 1506 409 1894 409 
Q 2359 409 2629 706 
Q 2900 1003 2900 1516 
L 2900 3500 
L 3475 3500 
L 3475 0 
L 2900 0 
L 2900 538 
Q 2691 219 2414 64 
Q 2138 -91 1772 -91 
Q 1169 -91 856 284 
Q 544 659 544 1381 
z
M 1991 3584 
L 1991 3584 
z
" transform="scale(0.015625)"/>
       <path id="DejaVuSans-6e" d="M 3513 2113 
L 3513 0 
L 2938 0 
L 2938 2094 
Q 2938 2591 2744 2837 
Q 2550 3084 2163 3084 
Q 1697 3084 1428 2787 
Q 1159 2491 1159 1978 
L 1159 0 
L 581 0 
L 581 3500 
L 1159 3500 
L 1159 2956 
Q 1366 3272 1645 3428 
Q 1925 3584 2291 3584 
Q 2894 3584 3203 3211 
Q 3513 2838 3513 2113 
z
" transform="scale(0.015625)"/>
       <path id="DejaVuSans-64" d="M 2906 2969 
L 2906 4863 
L 3481 4863 
L 3481 0 
L 2906 0 
L 2906 525 
Q 2725 213 2448 61 
Q 2172 -91 1784 -91 
Q 1150 -91 751 415 
Q 353 922 353 1747 
Q 353 2572 751 3078 
Q 1150 3584 1784 3584 
Q 2172 3584 2448 3432 
Q 2725 3281 2906 2969 
z
M 947 1747 
Q 947 1113 1208 752 
Q 1469 391 1925 391 
Q 2381 391 2643 752 
Q 2906 1113 2906 1747 
Q 2906 2381 2643 2742 
Q 2381 3103 1925 3103 
Q 1469 3103 1208 2742 
Q 947 2381 947 1747 
z
" transform="scale(0.015625)"/>
      </defs>
      <use xlink:href="#DejaVuSans-72"/>
      <use xlink:href="#DejaVuSans-6f" x="38.863281"/>
      <use xlink:href="#DejaVuSans-75" x="100.044922"/>
      <use xlink:href="#DejaVuSans-6e" x="163.423828"/>
      <use xlink:href="#DejaVuSans-64" x="226.802734"/>
     </g>
    </g>
   </g>
   <g id="matplotlib.axis_2">
    <g id="ytick_1">
     <g id="line2d_11">
      <path d="M 47.81 228.324068 
L 565.2 228.324068 
" clip-path="url(#pd6253dfb08)" style="fill: none; stroke-dasharray: 2.96,1.28; stroke-dashoffset: 0; stroke: #b0b0b0; stroke-opacity: 0.3; stroke-width: 0.8"/>
     </g>
     <g id="line2d_12">
      <defs>
       <path id="mb308288260" d="M 0 0 
L -3.5 0 
" style="stroke: #000000; stroke-width: 0.8"/>
      </defs>
      <g>
       <use xlink:href="#mb308288260" x="47.81" y="228.324068" style="stroke: #000000; stroke-width: 0.8"/>
      </g>
     </g>
     <g id="text_7">
      <!-- 0.4 -->
      <g transform="translate(24.906875 232.123287) scale(0.1 -0.1)">
       <defs>
        <path id="DejaVuSans-2e" d="M 684 794 
L 1344 794 
L 1344 0 
L 684 0 
L 684 794 
z
" transform="scale(0.015625)"/>
       </defs>
       <use xlink:href="#DejaVuSans-30"/>
       <use xlink:href="#DejaVuSans-2e" x="63.623047"/>
       <use xlink:href="#DejaVuSans-34" x="95.410156"/>
      </g>
     </g>
    </g>
    <g id="ytick_2">
     <g id="line2d_13">
      <path d="M 47.81 196.172898 
L 565.2 196.172898 
" clip-path="url(#pd6253dfb08)" style="fill: none; stroke-dasharray: 2.96,1.28; stroke-dashoffset: 0; stroke: #b0b0b0; stroke-opacity: 0.3; stroke-width: 0.8"/>
     </g>
     <g id="line2d_14">
      <g>
       <use xlink:href="#mb308288260" x="47.81" y="196.172898" style="stroke: #000000; stroke-width: 0.8"/>
      </g>
     </g>
     <g id="text_8">
      <!-- 0.5 -->
      <g transform="translate(24.906875 199.972117) scale(0.1 -0.1)">
       <defs>
        <path id="DejaVuSans-35" d="M 691 4666 
L 3169 4666 
L 3169 4134 
L 1269 4134 
L 1269 2991 
Q 1406 3038 1543 3061 
Q 1681 3084 1819 3084 
Q 2600 3084 3056 2656 
Q 3513 2228 3513 1497 
Q 3513 744 3044 326 
Q 2575 -91 1722 -91 
Q 1428 -91 1123 -41 
Q 819 9 494 109 
L 494 744 
Q 775 591 1075 516 
Q 1375 441 1709 441 
Q 2250 441 2565 725 
Q 2881 1009 2881 1497 
Q 2881 1984 2565 2268 
Q 2250 2553 1709 2553 
Q 1456 2553 1204 2497 
Q 953 2441 691 2322 
L 691 4666 
z
" transform="scale(0.015625)"/>
       </defs>
       <use xlink:href="#DejaVuSans-30"/>
       <use xlink:href="#DejaVuSans-2e" x="63.623047"/>
       <use xlink:href="#DejaVuSans-35" x="95.410156"/>
      </g>
     </g>
    </g>
    <g id="ytick_3">
     <g id="line2d_15">
      <path d="M 47.81 164.021728 
L 565.2 164.021728 
" clip-path="url(#pd6253dfb08)" style="fill: none; stroke-dasharray: 2.96,1.28; stroke-dashoffset: 0; stroke: #b0b0b0; stroke-opacity: 0.3; stroke-width: 0.8"/>
     </g>
     <g id="line2d_16">
      <g>
       <use xlink:href="#mb308288260" x="47.81" y="164.021728" style="stroke: #000000; stroke-width: 0.8"/>
      </g>
     </g>
     <g id="text_9">
      <!-- 0.6 -->
      <g transform="translate(24.906875 167.820947) scale(0.1 -0.1)">
       <use xlink:href="#DejaVuSans-30"/>
       <use xlink:href="#DejaVuSans-2e" x="63.623047"/>
       <use xlink:href="#DejaVuSans-36" x="95.410156"/>
      </g>
     </g>
    </g>
    <g id="ytick_4">
     <g id="line2d_17">
      <path d="M 47.81 131.870558 
L 565.2 131.870558 
" clip-path="url(#pd6253dfb08)" style="fill: none; stroke-dasharray: 2.96,1.28; stroke-dashoffset: 0; stroke: #b0b0b0; stroke-opacity: 0.3; stroke-width: 0.8"/>
     </g>
     <g id="line2d_18">
      <g>
       <use xlink:href="#mb308288260" x="47.81" y="131.870558" style="stroke: #000000; stroke-width: 0.8"/>
      </g>
     </g>
     <g id="text_10">
      <!-- 0.7 -->
      <g transform="translate(24.906875 135.669777) scale(0.1 -0.1)">
       <defs>
        <path id="DejaVuSans-37" d="M 525 4666 
L 3525 4666 
L 3525 4397 
L 1831 0 
L 1172 0 
L 2766 4134 
L 525 4134 
L 525 4666 
z
" transform="scale(0.015625)"/>
       </defs>
       <use xlink:href="#DejaVuSans-30"/>
       <use xlink:href="#DejaVuSans-2e" x="63.623047"/>
       <use xlink:href="#DejaVuSans-37" x="95.410156"/>
      </g>
     </g>
    </g>
    <g id="ytick_5">
     <g id="line2d_19">
      <path d="M 47.81 99.719388 
L 565.2 99.719388 
" clip-path="url(#pd6253dfb08)" style="fill: none; stroke-dasharray: 2.96,1.28; stroke-dashoffset: 0; stroke: #b0b0b0; stroke-opacity: 0.3; stroke-width: 0.8"/>
     </g>
     <g id="line2d_20">
      <g>
       <use xlink:href="#mb308288260" x="47.81" y="99.719388" style="stroke: #000000; stroke-width: 0.8"/>
      </g>
     </g>
     <g id="text_11">
      <!-- 0.8 -->
      <g transform="translate(24.906875 103.518607) scale(0.1 -0.1)">
       <use xlink:href="#DejaVuSans-30"/>
       <use xlink:href="#DejaVuSans-2e" x="63.623047"/>
       <use xlink:href="#DejaVuSans-38" x="95.410156"/>
      </g>
     </g>
    </g>
    <g id="ytick_6">
     <g id="line2d_21">
      <path d="M 47.81 67.568218 
L 565.2 67.568218 
" clip-path="url(#pd6253dfb08)" style="fill: none; stroke-dasharray: 2.96,1.28; stroke-dashoffset: 0; stroke: #b0b0b0; stroke-opacity: 0.3; stroke-width: 0.8"/>
     </g>
     <g id="line2d_22">
      <g>
       <use xlink:href="#mb308288260" x="47.81" y="67.568218" style="stroke: #000000; stroke-width: 0.8"/>
      </g>
     </g>
     <g id="text_12">
      <!-- 0.9 -->
      <g transform="translate(24.906875 71.367437) scale(0.1 -0.1)">
       <defs>
        <path id="DejaVuSans-39" d="M 703 97 
L 703 672 
Q 941 559 1184 500 
Q 1428 441 1663 441 
Q 2288 441 2617 861 
Q 2947 1281 2994 2138 
Q 2813 1869 2534 1725 
Q 2256 1581 1919 1581 
Q 1219 1581 811 2004 
Q 403 2428 403 3163 
Q 403 3881 828 4315 
Q 1253 4750 1959 4750 
Q 2769 4750 3195 4129 
Q 3622 3509 3622 2328 
Q 3622 1225 3098 567 
Q 2575 -91 1691 -91 
Q 1453 -91 1209 -44 
Q 966 3 703 97 
z
M 1959 2075 
Q 2384 2075 2632 2365 
Q 2881 2656 2881 3163 
Q 2881 3666 2632 3958 
Q 2384 4250 1959 4250 
Q 1534 4250 1286 3958 
Q 1038 3666 1038 3163 
Q 1038 2656 1286 2365 
Q 1534 2075 1959 2075 
z
" transform="scale(0.015625)"/>
       </defs>
       <use xlink:href="#DejaVuSans-30"/>
       <use xlink:href="#DejaVuSans-2e" x="63.623047"/>
       <use xlink:href="#DejaVuSans-39" x="95.410156"/>
      </g>
     </g>
    </g>
    <g id="ytick_7">
     <g id="line2d_23">
      <path d="M 47.81 35.417048 
L 565.2 35.417048 
" clip-path="url(#pd6253dfb08)" style="fill: none; stroke-dasharray: 2.96,1.28; stroke-dashoffset: 0; stroke: #b0b0b0; stroke-opacity: 0.3; stroke-width: 0.8"/>
     </g>
     <g id="line2d_24">
      <g>
       <use xlink:href="#mb308288260" x="47.81" y="35.417048" style="stroke: #000000; stroke-width: 0.8"/>
      </g>
     </g>
     <g id="text_13">
      <!-- 1.0 -->
      <g transform="translate(24.906875 39.216267) scale(0.1 -0.1)">
       <defs>
        <path id="DejaVuSans-31" d="M 794 531 
L 1825 531 
L 1825 4091 
L 703 3866 
L 703 4441 
L 1819 4666 
L 2450 4666 
L 2450 531 
L 3481 531 
L 3481 0 
L 794 0 
L 794 531 
z
" transform="scale(0.015625)"/>
       </defs>
       <use xlink:href="#DejaVuSans-31"/>
       <use xlink:href="#DejaVuSans-2e" x="63.623047"/>
       <use xlink:href="#DejaVuSans-30" x="95.410156"/>
      </g>
     </g>
    </g>
    <g id="text_14">
     <!-- cumulative timely transfer rate -->
     <g transform="translate(18.827188 221.048594) rotate(-90) scale(0.1 -0.1)">
      <defs>
       <path id="DejaVuSans-63" d="M 3122 3366 
L 3122 2828 
Q 2878 2963 2633 3030 
Q 2388 3097 2138 3097 
Q 1578 3097 1268 2742 
Q 959 2388 959 1747 
Q 959 1106 1268 751 
Q 1578 397 2138 397 
Q 2388 397 2633 464 
Q 2878 531 3122 666 
L 3122 134 
Q 2881 22 2623 -34 
Q 2366 -91 2075 -91 
Q 1284 -91 818 406 
Q 353 903 353 1747 
Q 353 2603 823 3093 
Q 1294 3584 2113 3584 
Q 2378 3584 2631 3529 
Q 2884 3475 3122 3366 
z
" transform="scale(0.015625)"/>
       <path id="DejaVuSans-6d" d="M 3328 2828 
Q 3544 3216 3844 3400 
Q 4144 3584 4550 3584 
Q 5097 3584 5394 3201 
Q 5691 2819 5691 2113 
L 5691 0 
L 5113 0 
L 5113 2094 
Q 5113 2597 4934 2840 
Q 4756 3084 4391 3084 
Q 3944 3084 3684 2787 
Q 3425 2491 3425 1978 
L 3425 0 
L 2847 0 
L 2847 2094 
Q 2847 2600 2669 2842 
Q 2491 3084 2119 3084 
Q 1678 3084 1418 2786 
Q 1159 2488 1159 1978 
L 1159 0 
L 581 0 
L 581 3500 
L 1159 3500 
L 1159 2956 
Q 1356 3278 1631 3431 
Q 1906 3584 2284 3584 
Q 2666 3584 2933 3390 
Q 3200 3197 3328 2828 
z
" transform="scale(0.015625)"/>
       <path id="DejaVuSans-6c" d="M 603 4863 
L 1178 4863 
L 1178 0 
L 603 0 
L 603 4863 
z
" transform="scale(0.015625)"/>
       <path id="DejaVuSans-61" d="M 2194 1759 
Q 1497 1759 1228 1600 
Q 959 1441 959 1056 
Q 959 750 1161 570 
Q 1363 391 1709 391 
Q 2188 391 2477 730 
Q 2766 1069 2766 1631 
L 2766 1759 
L 2194 1759 
z
M 3341 1997 
L 3341 0 
L 2766 0 
L 2766 531 
Q 2569 213 2275 61 
Q 1981 -91 1556 -91 
Q 1019 -91 701 211 
Q 384 513 384 1019 
Q 384 1609 779 1909 
Q 1175 2209 1959 2209 
L 2766 2209 
L 2766 2266 
Q 2766 2663 2505 2880 
Q 2244 3097 1772 3097 
Q 1472 3097 1187 3025 
Q 903 2953 641 2809 
L 641 3341 
Q 956 3463 1253 3523 
Q 1550 3584 1831 3584 
Q 2591 3584 2966 3190 
Q 3341 2797 3341 1997 
z
" transform="scale(0.015625)"/>
       <path id="DejaVuSans-74" d="M 1172 4494 
L 1172 3500 
L 2356 3500 
L 2356 3053 
L 1172 3053 
L 1172 1153 
Q 1172 725 1289 603 
Q 1406 481 1766 481 
L 2356 481 
L 2356 0 
L 1766 0 
Q 1100 0 847 248 
Q 594 497 594 1153 
L 594 3053 
L 172 3053 
L 172 3500 
L 594 3500 
L 594 4494 
L 1172 4494 
z
" transform="scale(0.015625)"/>
       <path id="DejaVuSans-69" d="M 603 3500 
L 1178 3500 
L 1178 0 
L 603 0 
L 603 3500 
z
M 603 4863 
L 1178 4863 
L 1178 4134 
L 603 4134 
L 603 4863 
z
" transform="scale(0.015625)"/>
       <path id="DejaVuSans-76" d="M 191 3500 
L 800 3500 
L 1894 563 
L 2988 3500 
L 3597 3500 
L 2284 0 
L 1503 0 
L 191 3500 
z
" transform="scale(0.015625)"/>
       <path id="DejaVuSans-65" d="M 3597 1894 
L 3597 1613 
L 953 1613 
Q 991 1019 1311 708 
Q 1631 397 2203 397 
Q 2534 397 2845 478 
Q 3156 559 3463 722 
L 3463 178 
Q 3153 47 2828 -22 
Q 2503 -91 2169 -91 
Q 1331 -91 842 396 
Q 353 884 353 1716 
Q 353 2575 817 3079 
Q 1281 3584 2069 3584 
Q 2775 3584 3186 3129 
Q 3597 2675 3597 1894 
z
M 3022 2063 
Q 3016 2534 2758 2815 
Q 2500 3097 2075 3097 
Q 1594 3097 1305 2825 
Q 1016 2553 972 2059 
L 3022 2063 
z
" transform="scale(0.015625)"/>
       <path id="DejaVuSans-20" transform="scale(0.015625)"/>
       <path id="DejaVuSans-79" d="M 2059 -325 
Q 1816 -950 1584 -1140 
Q 1353 -1331 966 -1331 
L 506 -1331 
L 506 -850 
L 844 -850 
Q 1081 -850 1212 -737 
Q 1344 -625 1503 -206 
L 1606 56 
L 191 3500 
L 800 3500 
L 1894 763 
L 2988 3500 
L 3597 3500 
L 2059 -325 
z
" transform="scale(0.015625)"/>
       <path id="DejaVuSans-73" d="M 2834 3397 
L 2834 2853 
Q 2591 2978 2328 3040 
Q 2066 3103 1784 3103 
Q 1356 3103 1142 2972 
Q 928 2841 928 2578 
Q 928 2378 1081 2264 
Q 1234 2150 1697 2047 
L 1894 2003 
Q 2506 1872 2764 1633 
Q 3022 1394 3022 966 
Q 3022 478 2636 193 
Q 2250 -91 1575 -91 
Q 1294 -91 989 -36 
Q 684 19 347 128 
L 347 722 
Q 666 556 975 473 
Q 1284 391 1588 391 
Q 1994 391 2212 530 
Q 2431 669 2431 922 
Q 2431 1156 2273 1281 
Q 2116 1406 1581 1522 
L 1381 1569 
Q 847 1681 609 1914 
Q 372 2147 372 2553 
Q 372 3047 722 3315 
Q 1072 3584 1716 3584 
Q 2034 3584 2315 3537 
Q 2597 3491 2834 3397 
z
" transform="scale(0.015625)"/>
       <path id="DejaVuSans-66" d="M 2375 4863 
L 2375 4384 
L 1825 4384 
Q 1516 4384 1395 4259 
Q 1275 4134 1275 3809 
L 1275 3500 
L 2222 3500 
L 2222 3053 
L 1275 3053 
L 1275 0 
L 697 0 
L 697 3053 
L 147 3053 
L 147 3500 
L 697 3500 
L 697 3744 
Q 697 4328 969 4595 
Q 1241 4863 1831 4863 
L 2375 4863 
z
" transform="scale(0.015625)"/>
      </defs>
      <use xlink:href="#DejaVuSans-63"/>
      <use xlink:href="#DejaVuSans-75" x="54.980469"/>
      <use xlink:href="#DejaVuSans-6d" x="118.359375"/>
      <use xlink:href="#DejaVuSans-75" x="215.771484"/>
      <use xlink:href="#DejaVuSans-6c" x="279.150391"/>
      <use xlink:href="#DejaVuSans-61" x="306.933594"/>
      <use xlink:href="#DejaVuSans-74" x="368.212891"/>
      <use xlink:href="#DejaVuSans-69" x="407.421875"/>
      <use xlink:href="#DejaVuSans-76" x="435.205078"/>
      <use xlink:href="#DejaVuSans-65" x="494.384766"/>
      <use xlink:href="#DejaVuSans-20" x="555.908203"/>
      <use xlink:href="#DejaVuSans-74" x="587.695312"/>
      <use xlink:href="#DejaVuSans-69" x="626.904297"/>
      <use xlink:href="#DejaVuSans-6d" x="654.6875"/>
      <use xlink:href="#DejaVuSans-65" x="752.099609"/>
      <use xlink:href="#DejaVuSans-6c" x="813.623047"/>
      <use xlink:href="#DejaVuSans-79" x="841.40625"/>
      <use xlink:href="#DejaVuSans-20" x="900.585938"/>
      <use xlink:href="#DejaVuSans-74" x="932.373047"/>
      <use xlink:href="#DejaVuSans-72" x="971.582031"/>
      <use xlink:href="#DejaVuSans-61" x="1012.695312"/>
      <use xlink:href="#DejaVuSans-6e" x="1073.974609"/>
      <use xlink:href="#DejaVuSans-73" x="1137.353516"/>
      <use xlink:href="#DejaVuSans-66" x="1189.453125"/>
      <use xlink:href="#DejaVuSans-65" x="1224.658203"/>
      <use xlink:href="#DejaVuSans-72" x="1286.181641"/>
      <use xlink:href="#DejaVuSans-20" x="1327.294922"/>
      <use xlink:href="#DejaVuSans-72" x="1359.082031"/>
      <use xlink:href="#DejaVuSans-61" x="1400.195312"/>
      <use xlink:href="#DejaVuSans-74" x="1461.474609"/>
      <use xlink:href="#DejaVuSans-65" x="1500.683594"/>
     </g>
    </g>
   </g>
   <g id="line2d_25">
    <path d="M 71.327727 202.126819 
L 71.528049 134.793392 
L 71.77845 91.460372 
L 72.078932 71.350709 
L 72.429495 62.641829 
L 72.830137 54.763024 
L 73.330941 49.542039 
L 73.531262 48.156191 
L 73.581343 49.010374 
L 73.631423 48.681208 
L 73.831744 47.649917 
L 73.981985 49.872613 
L 74.032066 49.619393 
L 74.332548 48.250963 
L 74.382628 48.904007 
L 74.432708 48.715064 
L 74.783271 47.439802 
L 75.033672 51.429662 
L 75.133833 51.096249 
L 75.233994 52.754305 
L 75.284074 52.580199 
L 75.334154 52.39179 
L 75.384235 53.324869 
L 75.434315 53.169228 
L 75.484395 53.007354 
L 75.534476 54.055408 
L 75.584556 53.898395 
L 75.634636 53.708052 
L 75.684717 54.127719 
L 75.784877 54.097227 
L 76.035279 52.625899 
L 76.13544 54.273642 
L 76.18552 54.069021 
L 76.235601 54.586126 
L 76.285681 54.383361 
L 76.335761 54.139617 
L 76.586163 57.698838 
L 76.686324 57.174368 
L 76.736404 57.56615 
L 76.786484 57.272942 
L 76.836565 57.156273 
L 76.936725 59.452172 
L 76.986806 59.220428 
L 77.036886 59.557858 
L 77.086966 59.272891 
L 77.287288 58.433546 
L 77.337368 58.635648 
L 77.487609 57.850375 
L 77.537689 58.043736 
L 77.58777 58.163714 
L 77.738011 57.854539 
L 77.788091 58.043297 
L 77.838171 57.820786 
L 78.138653 56.7205 
L 78.188734 57.40943 
L 78.238814 57.305774 
L 78.389055 56.933919 
L 78.439135 57.190777 
L 78.489216 57.063542 
L 78.839778 56.071739 
L 78.939939 56.48081 
L 78.990019 56.355191 
L 79.14026 55.967901 
L 79.190341 56.502234 
L 79.240421 56.39976 
L 80.64267 53.504737 
L 80.692751 54.26221 
L 80.742831 54.132533 
L 80.842992 53.84803 
L 80.893072 54.209346 
L 80.943152 54.077244 
L 80.993233 53.917185 
L 81.043313 54.754387 
L 81.093393 54.64554 
L 81.143474 54.547951 
L 81.343795 56.104864 
L 81.494036 57.431042 
L 81.594197 57.256577 
L 81.644277 57.441989 
L 81.694357 57.29568 
L 81.844598 56.973759 
L 81.894679 57.525425 
L 81.944759 57.417613 
L 82.245241 56.572333 
L 82.295322 57.282354 
L 82.345402 57.155078 
L 82.395482 57.022863 
L 82.445563 57.838197 
L 82.495643 57.661472 
L 83.697571 54.395447 
L 83.747651 54.9773 
L 83.797732 54.845169 
L 84.649097 53.097137 
L 84.699178 53.300623 
L 84.99966 55.420211 
L 85.04974 55.346892 
L 85.099821 55.554706 
L 85.250062 56.618998 
L 85.300142 56.547196 
L 85.400303 56.819654 
L 85.550544 58.839756 
L 85.600624 58.757401 
L 86.351829 65.232276 
L 86.45199 64.934496 
L 86.55215 65.375538 
L 86.602231 65.214212 
L 86.802552 64.688786 
L 87.002873 66.094089 
L 87.153114 66.326672 
L 87.303355 66.528349 
L 87.403516 66.262672 
L 87.453596 66.584994 
L 87.503677 66.474679 
L 87.553757 66.359819 
L 87.603838 66.462781 
L 87.754079 66.72855 
L 87.9544 68.68055 
L 88.00448 68.584468 
L 88.204802 67.919242 
L 88.505284 66.731496 
L 88.555364 66.846559 
L 88.605444 66.992103 
L 88.655525 66.825436 
L 88.905926 66.109314 
L 89.056167 66.5687 
L 89.306569 68.002218 
L 89.40673 67.9003 
L 89.45681 67.966354 
L 89.957613 70.146367 
L 90.007694 70.121472 
L 90.208015 70.440449 
L 90.358256 70.238845 
L 90.658738 71.497614 
L 90.708819 71.40588 
L 90.95922 71.955842 
L 91.059381 71.787914 
L 91.109461 71.668907 
L 91.460024 73.322838 
L 91.510104 73.365903 
L 91.610265 73.116429 
L 91.710425 73.731601 
L 91.760506 73.623821 
L 92.511711 72.27032 
L 92.762112 73.140937 
L 92.912353 73.095226 
L 93.262916 75.344059 
L 93.312996 75.266592 
L 93.713639 76.607416 
L 94.014121 76.039482 
L 94.164362 76.061708 
L 94.514924 75.490019 
L 94.665165 75.981609 
L 94.715246 75.889197 
L 94.865487 75.86442 
L 94.915567 75.952394 
L 94.965647 76.386931 
L 95.015728 76.316241 
L 95.115888 76.12045 
L 95.31621 77.72644 
L 95.41637 77.597069 
L 95.466451 77.683267 
L 95.616692 78.011795 
L 95.666772 77.90466 
L 95.716852 77.778932 
L 95.766933 77.956113 
L 95.817013 77.856336 
L 95.917174 77.645594 
L 95.967254 77.732959 
L 96.217656 78.241094 
L 96.267736 78.125812 
L 96.417977 78.386428 
L 96.618299 78.928979 
L 96.668379 78.880867 
L 96.968861 79.736124 
L 97.519745 80.830837 
L 97.720066 80.491553 
L 98.020548 80.958442 
L 98.220869 80.421745 
L 98.27095 80.64517 
L 98.37111 80.530918 
L 98.521351 80.852695 
L 98.571432 80.788356 
L 98.721673 81.177859 
L 99.072235 80.819563 
L 99.122316 81.027656 
L 99.172396 80.90771 
L 99.472878 80.573877 
L 99.623119 80.773914 
L 99.77336 80.663347 
L 99.82344 80.602695 
L 99.873521 80.703795 
L 100.023762 80.747785 
L 100.174003 80.835852 
L 100.474485 80.830097 
L 100.574645 80.710935 
L 100.624726 80.600138 
L 100.674806 80.743855 
L 100.925208 80.538307 
L 101.125529 81.282764 
L 101.175609 81.389627 
L 101.22569 81.308705 
L 101.32585 81.447895 
L 101.375931 81.59575 
L 101.426011 81.54621 
L 101.476091 81.473013 
L 101.576252 81.846612 
L 101.626332 81.827335 
L 101.926815 81.936417 
L 101.976895 81.944696 
L 102.277377 82.818537 
L 102.327457 82.85096 
L 102.527779 83.404238 
L 102.577859 83.393182 
L 102.7281 83.667763 
L 102.77818 83.797255 
L 102.828261 83.690349 
L 103.028582 83.589615 
L 103.078662 83.614037 
L 103.228903 83.400078 
L 103.329064 83.572083 
L 103.379144 83.517982 
L 103.429225 83.446037 
L 103.479305 83.491434 
L 103.729707 83.801955 
L 103.779787 83.725128 
L 103.980108 83.552914 
L 104.18043 83.827879 
L 104.23051 83.797886 
L 104.530992 83.575139 
L 104.631153 83.925465 
L 104.681233 83.848639 
L 104.881555 83.658764 
L 104.931635 83.627702 
L 105.081876 84.043488 
L 105.182037 84.149626 
L 105.332278 84.014219 
L 105.432438 84.563749 
L 105.482519 84.458528 
L 105.63276 84.571198 
L 105.73292 84.700598 
L 105.783001 84.59796 
L 105.983322 84.412996 
L 106.133563 84.194714 
L 106.233724 84.466602 
L 106.283804 84.381336 
L 106.434045 84.250676 
L 106.684447 84.761224 
L 106.734527 84.699785 
L 106.934848 84.453907 
L 107.085089 84.722802 
L 107.285411 84.971399 
L 108.236937 83.857221 
L 108.287018 83.77949 
L 108.337098 83.948088 
L 108.387178 83.927526 
L 108.487339 83.791417 
L 108.537419 83.894992 
L 108.5875 83.854914 
L 108.737741 83.654993 
L 108.787821 83.794061 
L 108.837901 83.734557 
L 108.988142 83.699254 
L 109.388785 83.168283 
L 109.989749 82.474217 
L 110.08991 82.736586 
L 110.13999 82.715065 
L 110.791035 82.083951 
L 110.841115 82.146409 
L 110.991356 82.296285 
L 111.291838 82.185121 
L 111.442079 82.399731 
L 111.59232 82.396608 
L 111.892802 82.81485 
L 112.043043 82.675173 
L 112.143204 82.901712 
L 112.193284 82.878649 
L 112.243364 82.832591 
L 112.393605 83.268551 
L 112.543846 83.297129 
L 112.644007 83.2337 
L 112.894409 82.997433 
L 113.04465 82.920841 
L 113.545453 82.463875 
L 113.595534 82.571509 
L 113.645614 82.514625 
L 113.695694 82.454014 
L 113.845935 82.859382 
L 114.096337 82.621505 
L 114.54706 82.67737 
L 114.697301 82.487874 
L 114.897622 82.689373 
L 115.148024 82.349653 
L 115.198104 82.464438 
L 115.248185 82.395037 
L 115.598747 82.059323 
L 115.648827 82.183147 
L 115.698908 82.10414 
L 115.748988 82.042337 
L 115.799068 82.237846 
L 115.849149 82.183295 
L 116.04947 81.977558 
L 116.09955 82.099568 
L 116.149631 82.056397 
L 116.500193 81.923743 
L 116.550274 81.995528 
L 116.600354 81.952926 
L 116.850756 81.832785 
L 117.000997 81.891584 
L 117.201318 81.802422 
L 117.301479 81.750712 
L 117.5018 81.524571 
L 117.652041 81.640138 
L 118.202925 81.140853 
L 118.353166 81.262365 
L 118.403246 81.312683 
L 118.453326 81.245848 
L 118.553487 81.186136 
L 118.753808 81.058366 
L 118.904049 81.079953 
L 119.354773 80.78434 
L 119.404853 80.834348 
L 119.454933 80.77507 
L 119.655255 80.815955 
L 119.805496 81.150782 
L 120.156058 80.908689 
L 120.306299 81.065661 
L 120.807102 80.809021 
L 120.907263 80.989464 
L 120.957343 80.957116 
L 121.458147 80.630541 
L 121.708548 80.560814 
L 121.808709 80.455281 
L 121.858789 80.566329 
L 122.109191 80.431417 
L 122.259432 80.499499 
L 122.359593 80.589414 
L 122.409673 80.628069 
L 122.459754 80.558885 
L 122.810316 80.360001 
L 122.860396 80.410723 
L 122.910477 80.349444 
L 123.010637 80.275377 
L 123.060718 80.355911 
L 123.110798 80.311686 
L 123.160878 80.256771 
L 123.210959 80.356452 
L 123.46136 80.136003 
L 123.511441 80.283847 
L 123.561521 80.254685 
L 124.262646 79.722468 
L 124.412887 79.580781 
L 124.563128 79.733323 
L 124.713369 79.59995 
L 124.763449 79.657407 
L 125.514654 79.521772 
L 125.614815 79.64022 
L 125.664895 79.607097 
L 125.915297 79.44161 
L 126.115618 79.595846 
L 126.31594 79.488875 
L 126.36602 79.441855 
L 126.4161 79.555025 
L 126.466181 79.517045 
L 126.966984 79.199615 
L 127.067145 79.242081 
L 127.217386 79.215233 
L 127.317546 79.229759 
L 127.668109 79.115288 
L 127.81835 79.16771 
L 127.918511 79.170837 
L 128.168912 79.35632 
L 128.970198 78.971946 
L 129.020278 79.051408 
L 129.070358 79.016436 
L 129.471001 78.830834 
L 129.671322 78.858189 
L 129.871644 78.710817 
L 129.971804 78.734474 
L 130.372447 78.59474 
L 130.422527 78.753501 
L 130.472608 78.733667 
L 131.624456 77.962822 
L 131.774697 78.011221 
L 132.125259 77.81256 
L 132.2755 77.765766 
L 132.726223 77.454355 
L 132.826384 77.395082 
L 133.026705 77.500069 
L 133.527509 77.322742 
L 133.72783 77.44885 
L 135.029919 76.943988 
L 135.330401 76.80684 
L 135.580802 76.784647 
L 135.680963 76.773768 
L 135.981445 76.559548 
L 136.081606 76.602155 
L 136.63249 76.353002 
L 136.932972 76.455475 
L 137.233454 76.339009 
L 137.333614 76.3071 
L 137.383695 76.462257 
L 137.433775 76.431596 
L 137.734257 76.310747 
L 137.934578 76.417 
L 138.435382 76.207969 
L 138.936185 76.167822 
L 140.338435 76.264099 
L 140.789158 76.320249 
L 148.251128 76.388356 
L 148.45145 76.435105 
L 158.016794 76.531172 
L 158.417437 76.568532 
L 172.940735 76.667909 
L 173.241217 76.691223 
L 178.09901 76.789631 
L 178.449573 76.808265 
L 190.018131 76.908116 
L 190.468854 76.922073 
L 194.32504 77.013012 
L 194.575442 77.04555 
L 200.535002 77.138474 
L 200.885565 77.157051 
L 209.900026 77.25458 
L 210.350749 77.268497 
L 218.664085 77.370274 
L 218.914487 77.398079 
L 225.975815 77.508041 
L 226.326377 77.526555 
L 235.090436 77.615758 
L 235.390918 77.638874 
L 241.350479 77.746975 
L 241.650961 77.770068 
L 246.208272 77.848958 
L 246.458673 77.881259 
L 258.928678 77.973583 
L 259.22916 77.99663 
L 266.490809 78.099445 
L 266.741211 78.12707 
L 269.195147 78.232567 
L 269.54571 78.250964 
L 272.60061 78.349617 
L 272.901092 78.38813 
L 276.206395 78.496193 
L 276.657118 78.50996 
L 278.760492 78.620051 
L 278.960813 78.661312 
L 283.918767 78.764443 
L 284.269329 78.779903 
L 289.377524 78.881157 
L 289.728086 78.899451 
L 293.934835 79.010153 
L 294.535799 79.064973 
L 308.00741 79.165203 
L 308.458133 79.178891 
L 316.470987 79.280909 
L 317.071952 79.284264 
L 321.629262 79.392396 
L 324.23344 79.5215 
L 331.144527 79.614699 
L 331.64533 79.69193 
L 338.205855 79.785452 
L 338.556417 79.803601 
L 341.96188 79.905888 
L 342.412603 79.916574 
L 349.423851 80.012171 
L 349.724333 80.034805 
L 357.486785 80.133901 
L 357.937508 80.147467 
L 366.601407 80.252285 
L 367.05213 80.262909 
L 372.260485 80.366766 
L 372.91153 80.375794 
L 378.069805 80.481969 
L 378.370287 80.504514 
L 384.78057 80.597122 
L 385.181213 80.66467 
L 389.13756 80.74649 
L 389.438042 80.804964 
L 393.394388 80.91216 
L 393.895192 80.939115 
L 402.358769 81.046175 
L 402.659251 81.068614 
L 408.568731 81.170315 
L 409.019454 81.183764 
L 414.778693 81.29133 
L 415.079175 81.318943 
L 420.938575 81.428569 
L 421.439378 81.459874 
L 425.495886 81.56039 
L 425.796368 81.618451 
L 433.909383 81.718069 
L 434.259945 81.753753 
L 438.166212 81.862199 
L 438.466694 81.884478 
L 441.020791 81.981637 
L 441.271193 82.012796 
L 449.384208 82.108993 
L 449.73477 82.126777 
L 456.695937 82.228037 
L 457.0465 82.245802 
L 460.852605 82.348437 
L 461.303328 82.361746 
L 463.957586 82.463741 
L 464.50847 82.508063 
L 467.964013 82.603998 
L 468.264496 82.626138 
L 472.571405 82.71237 
L 472.771726 82.747762 
L 475.425984 82.853711 
L 476.427591 82.926344 
L 482.387151 83.022324 
L 482.787794 83.062028 
L 487.044623 83.167643 
L 487.345105 83.185831 
L 489.198077 83.239249 
L 490.199684 83.256649 
L 495.5082 83.356878 
L 495.858762 83.396463 
L 500.766636 83.483908 
L 501.017037 83.510268 
L 505.574348 83.606107 
L 505.924911 83.623666 
L 512.936158 83.722765 
L 513.18656 83.749075 
L 518.444995 83.855538 
L 518.795558 83.87306 
L 522.301181 83.976295 
L 522.902146 84.025684 
L 528.310822 84.123137 
L 528.711465 84.15373 
L 536.87456 84.258244 
L 537.325283 84.271342 
L 541.682273 84.288803 
L 541.682273 84.288803 
" clip-path="url(#pd6253dfb08)" style="fill: none; stroke: #1f77b4; stroke-width: 1.8; stroke-linecap: square"/>
   </g>
   <g id="line2d_26">
    <path d="M 71.327727 187.712064 
L 71.427888 77.444721 
L 71.477968 88.733059 
L 71.578129 67.665942 
L 71.72837 128.565298 
L 71.77845 119.031668 
L 71.878611 108.843369 
L 71.928691 109.45473 
L 72.028852 119.858033 
L 72.279254 102.594696 
L 72.329334 104.453303 
L 72.379414 103.00209 
L 72.429495 102.176507 
L 72.479575 99.364127 
L 72.629816 107.382765 
L 72.679896 104.862074 
L 72.729977 109.626013 
L 72.830137 108.812993 
L 72.980378 103.625895 
L 73.030459 105.554062 
L 73.080539 105.131845 
L 73.130619 103.664494 
L 73.1807 105.716791 
L 73.23078 105.484806 
L 73.481182 100.576753 
L 73.631423 104.296148 
L 73.681503 104.04186 
L 73.731584 104.000386 
L 73.881825 101.338885 
L 74.082146 103.352944 
L 74.282467 100.961859 
L 74.332548 100.318205 
L 74.482789 101.598188 
L 74.73319 97.650176 
L 74.783271 98.291137 
L 74.883431 99.522838 
L 75.033672 98.221305 
L 75.083753 98.292033 
L 75.183913 97.806123 
L 75.334154 100.052216 
L 75.384235 99.890791 
L 75.584556 102.023055 
L 75.684717 101.740319 
L 75.935118 99.696328 
L 76.13544 98.32512 
L 76.18552 98.427429 
L 76.335761 98.775637 
L 76.385842 99.02491 
L 76.435922 98.834255 
L 76.586163 97.174066 
L 76.636243 97.302158 
L 76.686324 97.675524 
L 76.936725 94.868527 
L 77.086966 96.037851 
L 77.337368 94.735401 
L 77.387448 94.411641 
L 77.437529 94.637133 
L 77.487609 95.659831 
L 77.537689 95.168152 
L 77.58777 95.257976 
L 77.738011 96.376836 
L 77.788091 96.26825 
L 77.838171 96.489065 
L 77.888252 96.459447 
L 77.938332 96.075049 
L 78.038493 96.990735 
L 78.088573 96.785743 
L 78.138653 96.790471 
L 78.188734 96.439296 
L 78.238814 96.562968 
L 78.288894 96.55281 
L 78.389055 95.902077 
L 78.439135 95.441603 
L 78.489216 95.61419 
L 78.639457 96.321594 
L 78.689537 96.389017 
L 78.889858 97.753107 
L 78.939939 97.426882 
L 78.990019 97.177739 
L 79.0401 97.250223 
L 79.09018 97.251524 
L 79.390662 95.787661 
L 79.490823 96.918215 
L 79.540903 96.792406 
L 79.641064 96.176435 
L 79.841385 97.097498 
L 80.041706 96.315688 
L 80.091787 96.655919 
L 80.141867 96.348457 
L 80.191947 96.391322 
L 80.292108 96.437801 
L 80.392269 95.819044 
L 80.442349 96.186293 
L 80.492429 95.975558 
L 80.59259 95.676896 
L 80.64267 96.050243 
L 80.742831 96.02149 
L 80.792911 95.849867 
L 80.842992 96.042217 
L 80.893072 96.058346 
L 81.093393 95.311633 
L 81.243634 95.833342 
L 81.293715 95.902132 
L 81.343795 95.794959 
L 81.443956 97.19689 
L 81.494036 96.90051 
L 81.744438 95.806193 
L 81.794518 95.897909 
L 81.894679 96.423015 
L 81.944759 96.300137 
L 81.99484 96.357506 
L 82.095 95.962601 
L 82.195161 96.479637 
L 82.245241 96.38743 
L 82.495643 95.795626 
L 82.545723 96.01649 
L 82.595804 95.785937 
L 82.645884 95.917205 
L 82.695964 95.603848 
L 82.746045 95.78473 
L 82.846205 95.751847 
L 82.896286 96.002895 
L 82.946366 96.044969 
L 83.196768 95.56185 
L 83.397089 96.269653 
L 83.49725 95.873192 
L 83.54733 96.029001 
L 83.59741 96.132083 
L 83.647491 95.887264 
L 83.747651 95.933058 
L 83.797732 96.101298 
L 83.847812 96.006404 
L 83.897892 95.990162 
L 84.048133 95.445863 
L 84.298535 95.951073 
L 84.448776 95.368256 
L 84.548937 95.410784 
L 84.599017 95.374746 
L 84.649097 95.520647 
L 84.699178 95.482115 
L 84.799339 95.040157 
L 84.849419 95.185377 
L 84.899499 95.162436 
L 84.99966 95.325079 
L 85.099821 95.002835 
L 85.149901 95.273678 
L 85.199981 95.059516 
L 85.300142 95.07462 
L 85.350222 95.524584 
L 85.400303 95.355672 
L 85.450383 95.352448 
L 85.500463 95.146252 
L 85.550544 95.348957 
L 85.700785 95.94132 
L 85.750865 95.960244 
L 85.951186 95.108697 
L 86.001267 95.491198 
L 86.051347 95.306123 
L 86.101427 95.115149 
L 86.151508 95.435717 
L 86.201588 95.361751 
L 86.50207 94.741074 
L 86.602231 95.014339 
L 86.702391 94.822063 
L 86.752472 94.962069 
L 86.802552 94.784833 
L 86.852632 94.743199 
L 87.002873 94.198342 
L 87.052954 94.256462 
L 87.103034 94.214974 
L 87.253275 93.809172 
L 87.353436 94.028142 
L 87.503677 93.823786 
L 87.703998 94.699515 
L 87.754079 94.564459 
L 87.804159 94.571543 
L 87.9544 94.322053 
L 88.104641 94.17835 
L 88.254882 93.789902 
L 88.405123 94.418411 
L 88.455203 94.369238 
L 88.605444 94.043456 
L 88.755685 94.241461 
L 88.905926 93.99867 
L 89.056167 94.607487 
L 89.106248 94.580991 
L 89.256489 94.375314 
L 89.40673 94.427283 
L 89.50689 94.137752 
L 89.556971 94.158725 
L 89.657131 94.279208 
L 89.757292 94.117004 
L 89.807372 94.149186 
L 89.857453 94.299434 
L 89.907533 94.148941 
L 90.007694 94.110926 
L 90.057774 94.262237 
L 90.107854 94.165602 
L 90.208015 93.887923 
L 90.258095 94.055231 
L 90.408336 93.873721 
L 90.658738 94.579853 
L 90.90914 94.134655 
L 91.059381 94.131299 
L 91.209622 94.058308 
L 91.259702 93.887128 
L 91.309783 93.952746 
L 91.610265 93.91569 
L 91.760506 93.792773 
L 91.810586 93.845228 
L 91.860666 93.689009 
L 91.910747 93.814707 
L 92.010907 93.811461 
L 92.060988 93.989758 
L 92.111068 93.943852 
L 92.211229 93.720224 
L 92.261309 93.807557 
L 92.712032 92.877597 
L 92.762112 93.016296 
L 92.812193 92.993254 
L 92.962434 92.840854 
L 93.162755 92.572239 
L 93.262916 92.922317 
L 93.312996 92.868811 
L 93.563398 92.442636 
L 93.663559 92.565151 
L 94.014121 92.161311 
L 94.064201 92.195768 
L 94.214442 91.885932 
L 94.364683 91.942893 
L 94.414764 91.831315 
L 94.464844 91.930751 
L 94.565005 91.933225 
L 94.665165 91.744099 
L 94.715246 91.82201 
L 94.865487 92.077175 
L 95.466451 91.385203 
L 95.566611 91.658577 
L 95.666772 91.393314 
L 95.716852 91.503401 
L 95.766933 91.512982 
L 95.917174 91.928435 
L 96.217656 91.648804 
L 96.417977 91.540257 
L 96.618299 91.850719 
L 96.81862 91.839189 
L 96.918781 91.903863 
L 97.018941 91.668727 
L 97.169182 92.120114 
L 97.269343 91.891951 
L 97.319423 91.978539 
L 97.369504 92.046315 
L 97.970468 90.883559 
L 98.070628 90.924961 
L 98.37111 90.524974 
L 98.471271 90.522504 
L 98.571432 90.301731 
L 98.621512 90.481413 
L 98.671592 90.457536 
L 98.821833 90.38663 
L 98.972074 90.283501 
L 99.272557 89.782387 
L 99.472878 89.648726 
L 99.522958 89.669523 
L 99.72328 89.374334 
L 99.77336 89.483249 
L 99.82344 89.442843 
L 100.073842 89.019118 
L 100.123922 89.11195 
L 100.174003 89.269711 
L 100.224083 89.223721 
L 100.474485 88.96775 
L 100.574645 89.119153 
L 100.624726 89.015785 
L 100.825047 88.827148 
L 101.075449 88.489638 
L 101.175609 88.758842 
L 101.27577 88.644385 
L 101.526172 88.335031 
L 101.576252 88.304505 
L 101.626332 88.398176 
L 101.676413 88.442247 
L 101.926815 88.137799 
L 102.026975 88.190692 
L 102.127136 88.096657 
L 102.227297 88.366229 
L 102.477698 88.029583 
L 102.527779 88.196033 
L 102.577859 88.123059 
L 102.67802 87.942189 
L 102.7281 88.140161 
L 102.77818 88.047286 
L 102.928421 88.102295 
L 103.078662 87.903541 
L 103.178823 88.040443 
L 103.228903 87.950568 
L 103.329064 87.894404 
L 103.529385 87.702958 
L 103.729707 87.643567 
L 103.930028 87.861879 
L 104.18043 87.55129 
L 104.330671 87.600858 
L 104.530992 87.827612 
L 104.831474 87.533051 
L 104.931635 87.683261 
L 105.232117 87.440078 
L 105.432438 87.387872 
L 105.532599 87.205752 
L 105.582679 87.270341 
L 105.783001 87.348613 
L 105.833081 87.3889 
L 105.883161 87.297585 
L 105.933242 87.288575 
L 105.983322 87.39461 
L 106.083483 87.346701 
L 106.233724 87.328102 
L 106.534206 86.948129 
L 106.584286 87.042629 
L 106.634366 86.955182 
L 106.984929 86.676767 
L 107.13517 86.954486 
L 107.335491 87.090893 
L 107.535812 86.800033 
L 107.585893 86.957858 
L 107.635973 86.882115 
L 107.886375 86.840441 
L 107.986536 87.051629 
L 108.036616 86.980045 
L 108.136777 86.83183 
L 108.186857 86.947951 
L 108.287018 87.249542 
L 108.487339 87.112756 
L 108.68766 87.02969 
L 108.787821 87.064207 
L 109.088303 86.767417 
L 109.238544 87.018452 
L 109.388785 86.843667 
L 109.488946 86.964666 
L 109.639187 86.754148 
L 109.689267 86.965138 
L 109.789428 86.921186 
L 109.939669 86.749043 
L 109.989749 86.817322 
L 110.290231 86.853065 
L 110.540633 86.7053 
L 110.941276 86.545072 
L 111.792641 85.659853 
L 111.942882 86.039776 
L 112.243364 85.688245 
L 112.293445 85.901782 
L 112.343525 85.842338 
L 112.543846 85.615761 
L 112.593927 85.730092 
L 112.744168 85.784318 
L 112.794248 85.862374 
L 112.844328 85.808562 
L 113.345132 85.341455 
L 113.695694 85.363699 
L 113.896016 85.22992 
L 113.996176 85.374572 
L 114.046257 85.344426 
L 114.396819 85.333232 
L 114.54706 85.196644 
L 114.59714 85.249207 
L 114.697301 85.190951 
L 114.897622 85.372505 
L 114.947703 85.32359 
L 114.997783 85.43077 
L 115.097944 85.383944 
L 115.198104 85.468414 
L 115.398426 85.375906 
L 115.698908 85.33445 
L 115.949309 85.158923 
L 116.04947 85.142817 
L 116.199711 85.032873 
L 116.349952 85.191212 
L 116.500193 85.125395 
L 117.201318 84.851493 
L 117.401639 84.885625 
L 117.652041 84.870377 
L 117.852362 84.9086 
L 118.002603 84.887317 
L 118.152844 84.871308 
L 118.503407 84.730581 
L 118.653648 84.777256 
L 119.00421 84.611857 
L 119.154451 84.621168 
L 119.354773 84.632661 
L 119.505014 84.639881 
L 119.705335 84.653101 
L 120.055897 84.612232 
L 120.256219 84.664759 
L 121.107584 84.326129 
L 121.257825 84.364078 
L 121.758629 84.253098 
L 122.760236 84.162511 
L 126.516261 83.86623 
L 129.32076 83.795389 
L 138.986265 83.583915 
L 139.63731 83.589803 
L 155.763179 83.697246 
L 156.414224 83.706329 
L 170.136236 83.800058 
L 170.486799 83.822747 
L 183.407526 83.932107 
L 184.158731 83.958194 
L 194.825844 84.065161 
L 195.476888 84.074214 
L 198.331467 84.091999 
L 208.197294 84.185527 
L 208.497776 84.20813 
L 219.114808 84.318313 
L 219.465371 84.340889 
L 228.129269 84.446864 
L 228.930555 84.482941 
L 236.743088 84.591615 
L 237.193811 84.636648 
L 244.906183 84.741406 
L 245.406986 84.763898 
L 250.865743 84.866088 
L 251.516788 84.875076 
L 262.133819 84.977931 
L 262.784864 84.986906 
L 273.151494 85.072491 
L 273.401896 85.099388 
L 279.96242 85.197078 
L 280.312983 85.214989 
L 285.921981 85.321493 
L 286.573025 85.329617 
L 293.784594 85.432684 
L 294.085076 85.455021 
L 300.896002 85.56418 
L 301.346725 85.577569 
L 310.811909 85.68066 
L 311.112391 85.702947 
L 318.624442 85.799624 
L 318.975004 85.817435 
L 324.083199 85.920413 
L 324.584002 85.941823 
L 335.902159 86.043872 
L 336.453043 86.081351 
L 345.167022 86.18039 
L 345.617745 86.193698 
L 353.280037 86.301482 
L 353.680679 86.328069 
L 362.194337 86.434033 
L 362.945542 86.456163 
L 371.960003 86.560304 
L 372.711208 86.582408 
L 385.631936 86.693323 
L 386.132739 86.7154 
L 398.953306 86.816499 
L 399.454109 86.838551 
L 418.73504 86.941393 
L 419.436165 86.959014 
L 430.053197 87.061703 
L 430.554 87.083704 
L 441.972317 87.17305 
L 442.272799 87.195027 
L 451.23718 87.293537 
L 451.687903 87.305866 
L 461.50365 87.404593 
L 461.50365 87.404593 
" clip-path="url(#pd6253dfb08)" style="fill: none; stroke: #ff7f0e; stroke-width: 1.8; stroke-linecap: square"/>
   </g>
   <g id="line2d_27">
    <path d="M 71.327727 75.606011 
L 71.377808 98.458558 
L 71.427888 87.862219 
L 71.528049 91.063304 
L 71.578129 83.225479 
L 71.67829 83.493564 
L 71.77845 78.924365 
L 71.928691 92.927659 
L 72.179093 80.748674 
L 72.279254 91.992068 
L 72.329334 90.421087 
L 72.379414 91.237217 
L 72.479575 87.246952 
L 72.529655 87.892446 
L 72.629816 93.460762 
L 72.679896 91.353274 
L 72.880218 83.812134 
L 72.930298 83.989296 
L 73.130619 80.24861 
L 73.1807 86.975107 
L 73.23078 86.256639 
L 73.280861 85.106794 
L 73.431102 90.380471 
L 73.581343 88.727022 
L 73.631423 89.100925 
L 73.731584 86.92135 
L 73.781664 87.785006 
L 73.931905 90.039739 
L 73.981985 89.273702 
L 74.032066 89.371038 
L 74.082146 88.479744 
L 74.182307 88.552692 
L 74.232387 89.195501 
L 74.282467 88.983497 
L 74.382628 88.783616 
L 74.432708 88.076606 
L 74.482789 88.705121 
L 74.532869 88.472123 
L 74.68311 90.051757 
L 75.083753 84.634201 
L 75.133833 85.294994 
L 75.183913 85.133612 
L 75.334154 84.221539 
L 75.484395 86.198526 
L 75.634636 85.399641 
L 75.734797 84.309177 
L 75.885038 88.034415 
L 76.13544 86.8005 
L 76.285681 88.025712 
L 76.385842 88.165062 
L 76.686324 85.822546 
L 76.736404 85.859414 
L 76.786484 85.595175 
L 76.836565 85.701685 
L 76.886645 85.696006 
L 76.936725 85.849149 
L 77.036886 87.314824 
L 77.086966 86.90059 
L 77.187127 86.182054 
L 77.287288 87.546929 
L 77.537689 86.482753 
L 77.68793 86.829174 
L 77.838171 85.636604 
L 77.888252 85.660764 
L 78.038493 85.225395 
L 78.088573 84.898426 
L 78.238814 85.880785 
L 78.338975 85.179112 
L 78.439135 86.00642 
L 78.489216 85.857172 
L 78.539296 85.940315 
L 78.689537 85.205847 
L 78.739617 85.462078 
L 78.789698 85.454335 
L 78.839778 85.037954 
L 78.889858 86.363584 
L 78.939939 85.990995 
L 78.990019 85.713507 
L 79.0401 85.984591 
L 79.09018 86.030624 
L 79.240421 85.558888 
L 79.290501 85.695084 
L 79.340582 85.603095 
L 79.390662 85.4751 
L 79.440742 85.656891 
L 79.741224 83.990758 
L 79.791305 84.473129 
L 79.841385 84.186711 
L 79.891465 84.230664 
L 79.941546 84.913883 
L 79.991626 84.503903 
L 80.041706 84.171018 
L 80.091787 84.55267 
L 80.242028 85.336245 
L 80.292108 85.034976 
L 80.54251 84.113533 
L 80.59259 84.161503 
L 80.64267 83.976102 
L 80.692751 84.139994 
L 80.842992 84.590966 
L 80.943152 84.18386 
L 80.993233 84.281161 
L 81.193554 85.101487 
L 81.494036 84.130013 
L 81.544116 83.938474 
L 81.594197 84.165896 
L 81.744438 85.13997 
L 81.844598 84.637072 
L 81.894679 85.39996 
L 81.99484 85.356942 
L 82.04492 85.200999 
L 82.145081 85.672065 
L 82.195161 85.529431 
L 82.245241 85.585011 
L 82.445563 84.94065 
L 82.495643 85.158897 
L 82.595804 85.122542 
L 82.645884 85.087718 
L 82.746045 85.324154 
L 82.846205 85.227958 
L 82.896286 85.373157 
L 83.046527 86.014568 
L 83.096607 86.244654 
L 83.146687 86.056062 
L 83.447169 85.089376 
L 83.49725 85.113556 
L 83.697571 85.567539 
L 83.897892 84.973363 
L 83.947973 85.050325 
L 84.248455 84.365182 
L 84.298535 84.411357 
L 84.348615 84.172042 
L 84.448776 84.885836 
L 84.599017 84.506373 
L 84.699178 85.071275 
L 84.749258 84.963898 
L 84.799339 85.055638 
L 84.849419 84.90686 
L 84.99966 85.443064 
L 85.099821 85.298245 
L 85.199981 85.47718 
L 85.250062 85.220888 
L 85.300142 85.246492 
L 85.350222 85.293091 
L 85.400303 85.142841 
L 85.550544 85.74837 
L 85.600624 85.929185 
L 85.650704 85.803694 
L 85.750865 85.805766 
L 85.901106 86.095041 
L 85.951186 85.978633 
L 86.001267 86.192013 
L 86.051347 86.006751 
L 86.251668 85.786733 
L 86.301749 85.829293 
L 86.50207 85.521451 
L 86.652311 85.496752 
L 86.802552 85.604918 
L 86.902713 85.430853 
L 86.952793 85.654477 
L 87.052954 85.614309 
L 87.103034 85.438603 
L 87.153114 85.661105 
L 87.253275 86.240665 
L 87.303355 86.098413 
L 87.553757 87.028385 
L 87.603838 86.877695 
L 87.754079 86.738165 
L 87.854239 87.712235 
L 87.90432 87.702884 
L 87.9544 87.527226 
L 88.054561 87.957968 
L 88.104641 87.816266 
L 88.154721 87.835463 
L 88.304962 88.168005 
L 88.355043 88.104821 
L 88.405123 88.24192 
L 88.455203 88.101739 
L 88.505284 88.091601 
L 88.605444 87.750833 
L 88.755685 88.111863 
L 88.805766 88.119026 
L 88.855846 87.990742 
L 88.956007 88.527055 
L 89.006087 88.32796 
L 89.256489 87.924727 
L 89.306569 87.913615 
L 89.556971 87.497269 
L 89.757292 88.129878 
L 89.807372 88.077162 
L 89.907533 87.878472 
L 89.957613 88.05945 
L 90.007694 88.001504 
L 90.107854 87.790365 
L 90.157935 87.591479 
L 90.208015 87.646256 
L 90.308176 87.946039 
L 90.358256 87.795904 
L 90.408336 87.657072 
L 90.458417 87.792756 
L 90.508497 87.936237 
L 90.558578 87.748361 
L 90.608658 87.854759 
L 90.658738 87.745805 
L 90.708819 87.583221 
L 90.758899 87.794791 
L 90.90914 87.673295 
L 90.95922 87.695755 
L 91.059381 88.205804 
L 91.109461 88.164334 
L 91.159542 88.233288 
L 91.309783 87.940096 
L 91.359863 88.188849 
L 91.460024 88.131377 
L 91.510104 87.947174 
L 91.560184 88.061354 
L 91.660345 88.067792 
L 91.810586 88.558737 
L 91.910747 88.349488 
L 91.960827 88.378729 
L 92.010907 88.461216 
L 92.060988 88.341637 
L 92.211229 88.148198 
L 92.311389 88.251455 
L 92.511711 88.080575 
L 92.561791 88.12816 
L 92.661952 87.875207 
L 92.712032 87.992736 
L 92.762112 88.019181 
L 92.862273 87.785404 
L 92.912353 87.831082 
L 93.012514 87.885873 
L 93.262916 87.730769 
L 93.363077 88.073402 
L 93.413157 87.970909 
L 93.463237 87.945017 
L 93.663559 87.662184 
L 93.86388 87.437317 
L 93.91396 87.352717 
L 93.964041 87.431678 
L 94.214442 87.52069 
L 94.314603 87.299655 
L 94.364683 87.383118 
L 94.414764 87.45801 
L 94.464844 87.365514 
L 95.165969 86.609978 
L 95.216049 86.764252 
L 95.31621 86.740934 
L 95.566611 86.288832 
L 95.616692 86.337823 
L 95.666772 86.231876 
L 95.766933 85.993616 
L 95.817013 86.119334 
L 95.867093 86.278858 
L 95.917174 86.217571 
L 96.017334 86.177472 
L 96.167575 86.379218 
L 96.417977 85.853371 
L 96.468058 86.064649 
L 96.518138 85.963082 
L 96.76854 85.634022 
L 96.81862 85.740514 
L 96.8687 85.697168 
L 96.968861 85.593102 
L 97.018941 85.728581 
L 97.069022 85.674842 
L 97.169182 85.476386 
L 97.219263 85.599214 
L 97.269343 85.673197 
L 97.319423 85.582831 
L 97.369504 85.583331 
L 97.619905 85.135232 
L 97.669986 85.131151 
L 97.720066 85.34967 
L 97.770146 85.259597 
L 98.020548 85.075849 
L 98.170789 85.360391 
L 98.471271 84.838629 
L 98.521351 84.72762 
L 98.621512 84.989436 
L 98.721673 84.845078 
L 98.771753 84.89327 
L 99.022155 84.557164 
L 99.222476 84.817039 
L 99.272557 84.764948 
L 99.472878 84.660226 
L 99.573039 84.595808 
L 99.673199 84.450227 
L 99.77336 84.348362 
L 99.873521 84.585893 
L 99.923601 84.537932 
L 100.073842 84.585416 
L 100.123922 84.50735 
L 100.174003 84.597044 
L 100.474485 84.765698 
L 100.524565 84.993997 
L 100.574645 84.873153 
L 100.825047 84.583832 
L 100.925208 84.526308 
L 101.075449 84.594854 
L 101.426011 84.095638 
L 101.576252 84.239718 
L 101.726493 83.956573 
L 101.776573 84.090292 
L 101.926815 84.330828 
L 101.976895 84.249106 
L 102.077056 84.195261 
L 102.127136 84.237471 
L 102.177216 84.15341 
L 102.67802 83.753393 
L 102.828261 83.876502 
L 103.178823 83.439879 
L 103.379144 83.582491 
L 103.980108 82.851824 
L 104.130349 82.962788 
L 104.681233 82.411645 
L 105.182037 82.012296 
L 105.232117 81.935582 
L 105.282197 82.092002 
L 105.332278 82.028373 
L 105.432438 81.888741 
L 105.482519 81.923183 
L 105.582679 82.068218 
L 105.63276 82.038638 
L 106.033402 81.771898 
L 106.083483 81.821431 
L 106.133563 81.765884 
L 106.484125 81.4276 
L 106.634366 81.513335 
L 106.684447 81.579436 
L 106.734527 81.494413 
L 106.834688 81.513634 
L 106.984929 81.616302 
L 107.285411 81.385899 
L 107.335491 81.464199 
L 107.385571 81.415917 
L 107.686054 81.175362 
L 107.736134 81.348484 
L 107.786214 81.272283 
L 107.886375 81.293902 
L 107.986536 81.490453 
L 108.186857 81.362591 
L 108.437259 81.527699 
L 108.737741 81.160186 
L 109.138383 81.09635 
L 109.238544 80.958246 
L 109.288624 81.040096 
L 109.639187 80.774952 
L 109.789428 80.726795 
L 109.889588 80.670935 
L 110.08991 80.445951 
L 110.13999 80.74056 
L 110.240151 80.698404 
L 110.290231 80.641221 
L 110.340311 80.687419 
L 110.791035 80.838326 
L 110.891195 80.764755 
L 110.941276 80.972091 
L 111.041436 80.918251 
L 111.141597 80.865586 
L 111.442079 80.645412 
L 111.842722 80.362212 
L 111.992963 80.529402 
L 112.093123 80.449899 
L 112.143204 80.592799 
L 112.193284 80.553004 
L 112.343525 80.388289 
L 112.543846 80.702886 
L 112.644007 80.613487 
L 112.694087 80.669245 
L 112.744168 80.710861 
L 112.794248 80.643532 
L 113.194891 80.485304 
L 113.244971 80.561064 
L 113.295051 80.510966 
L 113.495373 80.345207 
L 113.595534 80.486486 
L 113.645614 80.42277 
L 113.845935 80.385428 
L 113.946096 80.52113 
L 113.996176 80.459888 
L 114.046257 80.543129 
L 114.096337 80.496996 
L 114.396819 80.308861 
L 114.49698 80.357869 
L 115.298265 79.823086 
L 115.448506 79.799883 
L 115.598747 79.749408 
L 115.748988 79.93745 
L 116.04947 79.741496 
L 116.199711 79.72857 
L 116.700515 79.395408 
L 116.850756 79.258631 
L 116.950916 79.331598 
L 117.151238 79.257414 
L 117.301479 79.32538 
L 117.351559 79.289699 
L 117.401639 79.392813 
L 117.45172 79.352567 
L 117.702121 79.239292 
L 118.002603 79.177388 
L 118.253005 79.186145 
L 119.254612 78.822784 
L 119.454933 78.734706 
L 119.555094 78.813884 
L 119.605174 78.788583 
L 119.905656 78.641402 
L 121.357986 78.201297 
L 121.508227 78.248214 
L 121.708548 78.223483 
L 121.95895 78.296176 
L 122.159272 78.266019 
L 122.309513 78.351724 
L 122.559914 78.299448 
L 122.910477 78.342609 
L 123.3612 78.216127 
L 123.561521 78.207995 
L 123.761842 78.227921 
L 123.962164 78.227601 
L 124.112405 78.239621 
L 124.91369 78.169992 
L 125.063931 78.209341 
L 125.364413 78.217648 
L 125.614815 78.225903 
L 125.865217 78.227229 
L 126.466181 78.199629 
L 126.616422 78.199726 
L 127.718189 77.94966 
L 128.118832 78.040026 
L 128.419314 78.041592 
L 128.569555 78.074429 
L 129.27068 77.980231 
L 130.873251 77.979986 
L 131.023492 78.005451 
L 131.273893 78.02625 
L 131.424134 78.047717 
L 132.075179 78.035466 
L 137.333614 78.048948 
L 137.634096 78.068812 
L 140.037953 78.030245 
L 143.693817 78.070449 
L 144.09446 78.152904 
L 146.348075 78.138932 
L 146.598477 78.159314 
L 160.27041 78.060844 
L 164.627399 78.166194 
L 165.879408 78.306562 
L 167.481978 78.404923 
L 167.882621 78.459206 
L 168.733987 78.555555 
L 169.23479 78.686306 
L 170.286477 78.797236 
L 170.737201 78.827839 
L 172.039289 78.915723 
L 172.339771 78.971603 
L 173.341378 79.082496 
L 174.142664 79.213376 
L 175.344592 79.324007 
L 175.645074 79.397449 
L 176.696761 79.502212 
L 179.000456 79.845848 
L 182.005277 79.945279 
L 182.305759 79.969642 
L 183.858249 80.03156 
L 185.811383 80.135499 
L 186.111865 80.189006 
L 187.964837 80.274287 
L 188.215239 80.30344 
L 188.665962 80.332588 
L 189.266926 80.348983 
L 190.118292 80.394375 
L 190.468854 80.413789 
L 191.670782 80.516561 
L 192.021345 80.535956 
L 194.775763 80.645132 
L 195.476888 80.738 
L 199.232914 80.839726 
L 199.483315 80.859921 
L 201.73693 80.969463 
L 201.937252 81.008097 
L 204.240947 81.118311 
L 204.541429 81.166549 
L 205.342715 81.272613 
L 205.643197 81.325615 
L 207.145607 81.420312 
L 207.446089 81.454001 
L 208.99858 81.560607 
L 209.449303 81.57503 
L 213.605971 81.649321 
L 213.806292 81.687729 
L 215.509024 81.786072 
L 215.859586 81.838823 
L 217.011434 81.92341 
L 217.311916 81.985678 
L 218.664085 82.092434 
L 219.014647 82.111569 
L 221.769066 82.218995 
L 222.870834 82.421879 
L 225.725413 82.526381 
L 225.925734 82.564504 
L 227.628466 82.616906 
L 228.980635 82.631038 
L 229.281117 82.665027 
L 231.284331 82.760027 
L 231.584813 82.805116 
L 232.185777 82.814624 
L 234.038749 82.914235 
L 234.289151 82.942733 
L 236.793168 83.042428 
L 237.243891 83.056664 
L 239.99831 83.166366 
L 240.248711 83.194808 
L 245.607308 83.291588 
L 245.90779 83.334203 
L 251.717109 83.429255 
L 251.91743 83.467075 
L 254.221126 83.571028 
L 254.922251 83.599365 
L 262.284061 83.699029 
L 262.684703 83.710677 
L 267.792898 83.817971 
L 268.14346 83.836817 
L 273.652298 83.935925 
L 273.902699 83.964162 
L 280.112661 84.059776 
L 280.513304 84.106777 
L 284.069008 84.215312 
L 284.36949 84.238785 
L 288.025355 84.339494 
L 288.275757 84.367635 
L 295.687647 84.477499 
L 296.13837 84.491544 
L 301.547046 84.600923 
L 301.897609 84.619629 
L 305.753795 84.725477 
L 306.054277 84.748831 
L 309.109178 84.855786 
L 309.660061 84.907525 
L 312.965364 85.012612 
L 313.315926 85.031249 
L 314.818336 85.119739 
L 315.118818 85.143016 
L 318.524281 85.240271 
L 318.874844 85.258874 
L 321.779503 85.261733 
L 322.130066 85.280329 
L 324.984645 85.294274 
L 324.984645 85.294274 
" clip-path="url(#pd6253dfb08)" style="fill: none; stroke: #2ca02c; stroke-width: 1.8; stroke-linecap: square"/>
   </g>
   <g id="line2d_28">
    <path d="M 71.327727 249.758182 
L 71.477968 89.323202 
L 71.578129 76.712129 
L 71.72837 91.838322 
L 71.77845 86.826279 
L 71.828531 93.661921 
L 71.878611 86.941359 
L 71.928691 86.88314 
L 71.978772 90.501221 
L 72.028852 87.843249 
L 72.229173 79.178363 
L 72.279254 84.814872 
L 72.379414 84.677905 
L 72.579736 74.779696 
L 72.629816 77.620954 
L 72.679896 76.754267 
L 73.080539 67.17129 
L 73.280861 64.516787 
L 73.381021 64.49191 
L 73.431102 65.913242 
L 73.531262 64.548495 
L 73.581343 68.281143 
L 73.631423 67.790895 
L 73.931905 63.30402 
L 74.182307 68.519753 
L 74.282467 67.169703 
L 74.432708 71.944249 
L 74.482789 71.088247 
L 74.833351 67.589454 
L 74.933512 69.287643 
L 74.983592 68.582451 
L 75.183913 66.894391 
L 75.284074 68.122549 
L 75.584556 65.646834 
L 75.634636 66.005021 
L 75.684717 66.722796 
L 75.734797 66.368239 
L 75.834958 65.546183 
L 75.885038 66.441499 
L 75.935118 65.959097 
L 76.085359 65.277161 
L 76.18552 66.809206 
L 76.235601 66.320474 
L 76.285681 66.403529 
L 76.435922 65.741764 
L 76.486002 66.444341 
L 76.536083 66.056664 
L 76.836565 64.18052 
L 76.986806 63.374587 
L 77.036886 63.914817 
L 77.086966 63.675751 
L 77.187127 63.419097 
L 77.237207 64.171588 
L 77.287288 64.054201 
L 77.487609 62.911368 
L 77.537689 63.505345 
L 77.58777 63.303555 
L 77.788091 62.377626 
L 78.188734 60.650644 
L 78.238814 61.26139 
L 78.288894 61.0477 
L 78.439135 60.340058 
L 78.489216 61.855885 
L 78.539296 61.639464 
L 78.639457 61.31949 
L 78.689537 62.507038 
L 78.739617 62.381038 
L 78.789698 62.13637 
L 78.839778 62.917478 
L 78.889858 62.749649 
L 79.09018 62.00991 
L 79.14026 62.147099 
L 79.190341 62.597565 
L 79.240421 62.35475 
L 79.590983 61.333931 
L 79.641064 61.825603 
L 79.691144 61.635979 
L 80.041706 60.50064 
L 80.141867 60.205682 
L 80.242028 60.886755 
L 80.292108 60.698899 
L 80.342188 60.540495 
L 80.54251 61.840136 
L 80.742831 61.281232 
L 80.842992 63.677494 
L 80.893072 63.518237 
L 81.043313 63.129346 
L 81.093393 63.638825 
L 81.143474 63.446985 
L 81.293715 63.117146 
L 81.343795 63.546367 
L 81.393875 63.390648 
L 81.443956 63.277159 
L 81.494036 63.99882 
L 81.544116 63.80806 
L 82.095 62.349478 
L 82.145081 63.135703 
L 82.195161 63.024383 
L 82.445563 62.519489 
L 82.495643 62.765801 
L 82.545723 62.632146 
L 82.595804 62.499792 
L 82.645884 62.542396 
L 82.746045 63.089926 
L 82.796125 62.89594 
L 83.196768 61.926293 
L 83.246848 62.80806 
L 83.296928 62.690471 
L 83.397089 62.439895 
L 83.49725 62.746897 
L 83.54733 62.645964 
L 83.59741 62.859888 
L 83.647491 62.770617 
L 83.747651 62.557819 
L 83.797732 62.856386 
L 83.847812 62.750556 
L 83.897892 62.616633 
L 84.048133 63.587548 
L 84.298535 63.127421 
L 84.448776 62.778139 
L 84.548937 63.306075 
L 84.599017 63.204471 
L 85.250062 61.852086 
L 85.300142 61.967356 
L 85.350222 61.862345 
L 85.500463 61.557914 
L 85.750865 62.66884 
L 86.001267 62.220933 
L 86.051347 62.269512 
L 86.101427 62.423942 
L 86.151508 62.306146 
L 86.201588 62.241148 
L 86.351829 62.484317 
L 86.401909 62.65526 
L 86.45199 62.531442 
L 86.55215 62.332393 
L 86.602231 62.571826 
L 86.652311 62.506248 
L 86.752472 62.34368 
L 86.952793 63.535326 
L 87.002873 63.481848 
L 87.052954 63.34266 
L 87.203195 63.722206 
L 87.303355 63.500902 
L 87.353436 63.656554 
L 87.603838 64.501566 
L 87.653918 64.413764 
L 87.9544 63.987471 
L 88.00448 64.177213 
L 88.054561 64.099463 
L 88.555364 63.305608 
L 88.655525 63.826528 
L 88.705605 63.734474 
L 88.905926 63.555411 
L 89.006087 63.848279 
L 89.106248 63.684259 
L 89.45681 63.201785 
L 89.50689 63.270245 
L 89.556971 63.677035 
L 89.607051 63.599228 
L 89.657131 63.536029 
L 89.707212 63.902471 
L 89.757292 63.837378 
L 89.807372 63.7647 
L 89.957613 63.967528 
L 90.057774 63.762971 
L 90.157935 64.067298 
L 90.208015 63.992768 
L 90.258095 63.961829 
L 90.358256 64.319891 
L 90.408336 64.259377 
L 90.508497 64.111491 
L 90.658738 64.305125 
L 90.808979 64.576472 
L 90.85906 64.475985 
L 91.009301 64.864942 
L 91.059381 64.787343 
L 91.109461 64.984198 
L 91.159542 64.915809 
L 91.460024 64.429656 
L 91.660345 65.124034 
L 91.710425 65.06168 
L 91.760506 65.006966 
L 91.910747 65.144236 
L 92.060988 64.939765 
L 92.36147 64.534913 
L 92.41155 64.6256 
L 92.511711 64.936221 
L 92.561791 65.103588 
L 92.611871 65.060953 
L 92.661952 64.973229 
L 92.712032 65.161703 
L 92.762112 65.088238 
L 92.862273 64.966135 
L 92.962434 65.245222 
L 93.012514 65.148659 
L 93.262916 64.775379 
L 93.312996 64.822338 
L 93.513318 65.306956 
L 93.663559 65.075936 
L 93.713639 65.262016 
L 93.763719 65.19851 
L 94.014121 64.845444 
L 94.114282 65.223236 
L 94.164362 65.154381 
L 94.314603 64.952318 
L 94.364683 65.09157 
L 94.414764 65.03294 
L 94.464844 64.965478 
L 94.514924 65.06804 
L 94.565005 65.184314 
L 94.615085 65.118286 
L 95.165969 64.734848 
L 95.216049 64.847472 
L 95.266129 64.775244 
L 95.616692 64.358868 
L 95.716852 64.628393 
L 95.766933 64.800307 
L 95.817013 64.760209 
L 96.76854 63.879911 
L 96.8687 64.12345 
L 96.968861 64.010486 
L 97.069022 63.933058 
L 97.119102 64.087924 
L 97.169182 64.014007 
L 97.319423 63.978397 
L 97.469664 63.821861 
L 97.519745 63.953223 
L 97.569825 63.909338 
L 98.37111 63.268878 
L 98.421191 63.457605 
L 98.471271 63.395947 
L 98.521351 63.355339 
L 98.671592 63.701419 
L 98.821833 63.639551 
L 98.871914 63.694014 
L 98.921994 63.625617 
L 99.022155 63.534934 
L 99.072235 63.674981 
L 99.122316 63.625581 
L 99.372717 63.357946 
L 99.422798 63.486265 
L 99.472878 63.450955 
L 99.973681 63.045448 
L 100.073842 63.058839 
L 100.374324 62.860978 
L 100.624726 62.637563 
L 100.674806 62.746876 
L 100.724886 62.682784 
L 101.125529 62.430711 
L 101.926815 61.969239 
L 101.976895 62.125004 
L 102.026975 62.069718 
L 102.127136 61.978953 
L 102.277377 62.30392 
L 102.327457 62.261085 
L 102.377538 62.36625 
L 102.427618 62.325194 
L 102.67802 62.157066 
L 102.828261 62.023421 
L 102.878341 62.081102 
L 103.078662 62.885077 
L 103.379144 62.585771 
L 103.429225 62.66329 
L 103.479305 62.619794 
L 103.729707 62.40103 
L 103.930028 62.66851 
L 104.030189 62.570484 
L 104.18043 62.755075 
L 104.731313 62.405504 
L 104.781394 62.49121 
L 104.831474 62.453873 
L 104.881555 62.430387 
L 105.081876 62.694917 
L 105.482519 62.498578 
L 105.582679 62.507979 
L 106.033402 62.138458 
L 106.083483 62.202731 
L 106.133563 62.152582 
L 106.934848 61.726341 
L 107.035009 61.812432 
L 107.23533 61.763683 
L 107.385571 61.75312 
L 107.585893 61.686733 
L 107.836295 61.510418 
L 108.086696 61.475354 
L 108.437259 61.23408 
L 108.487339 61.34443 
L 108.938062 61.193587 
L 109.188464 61.300416 
L 109.539026 61.149815 
L 109.689267 61.415299 
L 109.939669 61.332328 
L 109.989749 61.439294 
L 110.039829 61.396107 
L 110.290231 61.34354 
L 110.490553 61.416277 
L 111.341918 60.938845 
L 111.391999 61.019324 
L 111.442079 60.985347 
L 111.59232 60.883321 
L 111.6424 60.968814 
L 111.792641 61.174656 
L 113.445293 60.82139 
L 113.695694 60.877487 
L 113.996176 60.723287 
L 114.146417 60.828104 
L 114.296658 60.789006 
L 114.446899 60.939352 
L 114.59714 61.019921 
L 114.947703 60.974025 
L 115.097944 61.060867 
L 115.348345 61.051179 
L 115.448506 61.149224 
L 115.498586 61.117896 
L 115.598747 61.175446 
L 115.698908 61.29139 
L 115.748988 61.252941 
L 116.04947 61.173914 
L 116.400033 61.128394 
L 116.550274 61.129858 
L 116.750595 61.143484 
L 116.900836 61.185388 
L 117.000997 61.134523 
L 117.151238 61.238794 
L 118.603567 60.842215 
L 118.753808 60.937646 
L 119.00421 60.893722 
L 119.05429 61.003613 
L 119.154451 60.956914 
L 119.204532 60.939723 
L 119.354773 61.059642 
L 119.605174 61.019137 
L 119.755415 61.27848 
L 119.855576 61.321326 
L 120.105978 61.35108 
L 120.40646 61.279966 
L 120.556701 61.272741 
L 121.257825 61.178943 
L 121.408066 61.193476 
L 121.558307 61.175525 
L 121.758629 61.169232 
L 121.90887 61.224547 
L 122.109191 61.30408 
L 122.660075 61.103638 
L 122.810316 61.125761 
L 123.010637 61.102209 
L 123.160878 61.138513 
L 123.3612 61.184955 
L 124.312726 61.15679 
L 124.563128 61.344256 
L 124.663288 61.403114 
L 124.81353 61.468019 
L 125.364413 61.36664 
L 125.564735 61.426405 
L 125.664895 61.473752 
L 125.965377 61.587275 
L 126.4161 61.545287 
L 126.716582 61.587639 
L 126.916904 61.766418 
L 127.117225 61.806639 
L 127.467787 61.973479 
L 127.76827 61.986601 
L 128.018671 61.976193 
L 128.168912 62.155953 
L 128.469394 62.130613 
L 128.619635 62.26526 
L 128.719796 62.322809 
L 128.870037 62.366626 
L 129.420921 62.404714 
L 129.671322 62.587225 
L 130.172126 62.602138 
L 130.322367 62.655568 
L 130.472608 62.703271 
L 130.72301 62.828544 
L 130.873251 62.787824 
L 131.023492 62.879799 
L 131.173733 62.927541 
L 131.474215 62.955497 
L 131.874857 63.194501 
L 132.626062 63.141183 
L 132.776303 63.181058 
L 132.976625 63.209607 
L 133.126866 63.274484 
L 133.427348 63.281235 
L 133.627669 63.421578 
L 133.928151 63.418095 
L 134.378874 63.721825 
L 134.579196 63.763815 
L 134.729437 63.838794 
L 134.879678 63.894512 
L 135.029919 63.912193 
L 135.731043 63.873443 
L 135.981445 63.917764 
L 136.181766 63.986555 
L 136.382088 64.08189 
L 136.582409 64.110204 
L 137.083213 64.072824 
L 137.383695 64.209403 
L 137.584016 64.224347 
L 138.18498 64.527144 
L 138.986265 64.556134 
L 139.186587 64.617419 
L 139.63731 64.613793 
L 139.787551 64.657489 
L 139.937792 64.710594 
L 140.138113 64.784545 
L 140.789158 64.848501 
L 141.13972 65.151935 
L 141.390122 65.175375 
L 141.540363 65.295761 
L 141.991086 65.326445 
L 142.191407 65.532494 
L 142.491889 65.579463 
L 142.742291 65.644108 
L 142.992693 65.645812 
L 143.243094 65.687813 
L 143.543576 65.755093 
L 143.793978 65.827557 
L 143.994299 65.853912 
L 144.795585 65.885154 
L 145.196228 66.12075 
L 145.246308 66.111056 
L 145.49671 66.44391 
L 145.747111 66.477748 
L 145.997513 66.602863 
L 146.297995 66.694231 
L 146.748718 66.916051 
L 146.99912 66.969302 
L 147.149361 66.973975 
L 147.249521 67.010102 
L 147.449843 67.102728 
L 148.45145 67.204583 
L 148.651771 67.235858 
L 149.603297 67.203879 
L 149.803619 67.225748 
L 150.354502 67.327945 
L 150.905386 67.400698 
L 151.756752 67.802617 
L 152.407796 67.834695 
L 152.758359 68.002768 
L 153.609725 67.978322 
L 153.759966 68.04404 
L 154.160608 68.159043 
L 154.36093 68.292329 
L 155.362536 68.305197 
L 155.763179 68.390088 
L 156.263982 68.416223 
L 156.514384 68.506553 
L 156.864947 68.55849 
L 157.716312 68.61397 
L 158.066875 68.727943 
L 159.268803 68.758602 
L 159.469124 68.890951 
L 160.120169 68.956 
L 160.420651 69.037459 
L 160.620972 69.115047 
L 160.871374 69.164215 
L 161.973141 69.16523 
L 162.323704 69.269722 
L 163.175069 69.306424 
L 163.525632 69.358595 
L 164.577319 69.368812 
L 164.77764 69.403961 
L 165.478765 69.454121 
L 165.679086 69.487484 
L 167.131416 69.661686 
L 168.333344 69.720564 
L 168.733987 69.792212 
L 170.436718 69.870409 
L 170.987602 70.066471 
L 171.838968 70.120201 
L 172.490012 70.200632 
L 174.693547 70.234953 
L 176.54652 70.339589 
L 176.947163 70.384802 
L 179.701581 70.393546 
L 180.002063 70.406553 
L 181.203991 70.480848 
L 181.754875 70.530041 
L 182.756482 70.61145 
L 183.006884 70.635422 
L 186.061784 70.730329 
L 186.362266 70.74898 
L 188.064998 70.855422 
L 188.465641 70.863595 
L 189.166765 70.917027 
L 189.968051 70.952991 
L 191.470461 71.045118 
L 191.821023 71.089673 
L 193.022951 71.170627 
L 193.473675 71.232445 
L 194.525362 71.331087 
L 194.875924 71.373748 
L 196.678816 71.432749 
L 197.17962 71.464937 
L 198.68203 71.508374 
L 198.882351 71.543413 
L 200.334681 71.638255 
L 200.735324 71.667969 
L 201.486529 71.71759 
L 201.837091 71.73867 
L 203.339501 71.82434 
L 203.790224 71.886077 
L 205.142394 71.975562 
L 205.392795 72.004623 
L 205.693277 72.026297 
L 206.244161 72.126051 
L 207.095527 72.249687 
L 208.347535 72.338924 
L 208.648017 72.390045 
L 209.950106 72.489232 
L 210.350749 72.551732 
L 211.202115 72.612416 
L 211.452516 72.660623 
L 213.305489 72.752201 
L 213.605971 72.786127 
L 214.206935 72.839491 
L 214.407256 72.892707 
L 217.712559 72.924526 
L 231.534732 72.870169 
L 234.639713 72.975565 
L 235.290758 73.043033 
L 236.943409 73.143436 
L 237.193811 73.174886 
L 238.045176 73.263504 
L 238.395739 73.330828 
L 240.999916 73.419016 
L 241.200238 73.45488 
L 243.453853 73.55346 
L 243.704255 73.584811 
L 246.258352 73.704465 
L 250.4651 73.80196 
L 250.715502 73.868977 
L 252.518394 73.958283 
L 252.868957 74.007377 
L 254.421447 74.113401 
L 254.671849 74.175803 
L 258.177473 74.28199 
L 258.578115 74.313145 
L 259.729963 74.41883 
L 260.080526 74.432929 
L 262.584543 74.523171 
L 262.834944 74.545513 
L 265.038479 74.649582 
L 265.839765 74.754178 
L 268.594183 74.848062 
L 268.944746 74.887923 
L 269.846192 74.994163 
L 270.146674 75.064945 
L 273.251655 75.162268 
L 273.702378 75.206503 
L 276.356636 75.311925 
L 276.857439 75.371812 
L 278.46001 75.465695 
L 278.710412 75.53178 
L 282.366277 75.641845 
L 282.817 75.721025 
L 283.518124 75.80016 
L 287.875114 75.909921 
L 288.275757 75.949431 
L 290.879934 76.054625 
L 291.180416 76.076549 
L 293.684433 76.186115 
L 294.135156 76.199257 
L 295.637566 76.290494 
L 295.887968 76.32113 
L 300.345118 76.418984 
L 300.6456 76.440841 
L 305.954116 76.543142 
L 306.304679 76.578077 
L 310.811909 76.669741 
L 311.012231 76.709007 
L 314.918497 76.788002 
L 315.118818 76.822873 
L 317.222193 76.923077 
L 317.472594 76.949206 
L 324.18336 77.050434 
L 324.383681 77.093936 
L 331.945812 77.194389 
L 332.296375 77.211771 
L 337.955453 77.319936 
L 338.406176 77.332958 
L 341.761559 77.428416 
L 342.112121 77.497799 
L 347.270396 77.60393 
L 347.470717 77.642906 
L 351.427064 77.731841 
L 351.727546 77.779431 
L 357.236384 77.801057 
L 357.236384 77.801057 
" clip-path="url(#pd6253dfb08)" style="fill: none; stroke: #d62728; stroke-width: 1.8; stroke-linecap: square"/>
   </g>
   <g id="line2d_29">
    <path d="M 71.327727 147.946143 
L 71.528049 73.505542 
L 71.578129 78.839605 
L 71.72837 66.699268 
L 71.77845 70.386665 
L 71.828531 67.235784 
L 71.878611 68.798044 
L 72.129013 59.863077 
L 72.179093 59.831935 
L 72.279254 57.112553 
L 72.379414 59.548169 
L 72.429495 58.462862 
L 72.579736 55.635417 
L 72.729977 58.369461 
L 73.130619 53.340561 
L 73.531262 50.309332 
L 73.931905 47.890735 
L 74.332548 46.192577 
L 74.833351 44.601063 
L 75.434315 43.242522 
L 76.435922 41.757823 
L 77.237207 40.892297 
L 79.440742 39.435166 
L 80.091787 39.134779 
L 81.343795 38.655259 
L 83.096607 38.172863 
L 85.04974 37.766508 
L 87.403516 37.416711 
L 95.616692 36.754995 
L 102.177216 36.464397 
L 114.49698 36.178337 
L 125.815136 36.181772 
L 126.265859 36.214464 
L 127.117225 36.317794 
L 127.567948 36.39943 
L 128.168912 36.486372 
L 128.469394 36.584218 
L 128.970198 36.633119 
L 129.170519 36.747163 
L 131.474215 36.854386 
L 132.32558 37.189751 
L 133.277107 37.29717 
L 133.978232 37.496712 
L 134.779517 37.593458 
L 135.029919 37.695849 
L 135.23024 37.749437 
L 135.430561 37.878413 
L 136.332008 37.964255 
L 136.582409 38.130844 
L 137.233454 38.210684 
L 137.483855 38.264344 
L 138.034739 38.365704 
L 138.285141 38.47824 
L 138.836024 38.552693 
L 139.086426 38.739957 
L 139.386908 38.793307 
L 139.787551 38.861739 
L 139.987872 38.952516 
L 140.438595 39.021899 
L 140.638917 39.064092 
L 141.790764 39.142392 
L 141.991086 39.232763 
L 142.191407 39.333915 
L 142.441809 39.434329 
L 143.243094 39.656881 
L 143.944219 39.746756 
L 144.194621 39.81572 
L 147.349682 39.925176 
L 147.550003 40.004624 
L 148.50153 40.110493 
L 148.802012 40.13032 
L 149.402976 40.209643 
L 149.603297 40.262502 
L 150.905386 40.36726 
L 151.105708 40.414778 
L 152.307636 40.524407 
L 152.558037 40.550347 
L 153.259162 40.661037 
L 159.068481 41.163101 
L 160.620972 41.256984 
L 160.871374 41.288457 
L 162.373784 41.385997 
L 162.624186 41.500827 
L 164.477158 41.588067 
L 164.877801 41.645601 
L 165.528845 41.750153 
L 165.729167 41.78673 
L 166.830934 41.880746 
L 167.031255 41.917293 
L 169.18471 42.004704 
L 169.385031 42.067289 
L 171.538486 42.139604 
L 171.738807 42.212322 
L 173.141057 42.273681 
L 173.341378 42.372562 
L 176.796922 42.479794 
L 177.097404 42.547348 
L 178.750055 42.656173 
L 178.950376 42.69251 
L 180.903509 42.80013 
L 181.05375 42.857164 
L 183.307366 42.938348 
L 183.557767 43.010852 
L 183.90833 43.097835 
L 184.359053 43.165084 
L 186.011704 43.251691 
L 186.212025 43.287864 
L 187.814596 43.376647 
L 188.064998 43.428251 
L 188.916364 43.50496 
L 189.116685 43.541052 
L 189.968051 43.643721 
L 190.318613 43.70553 
L 191.670782 43.804218 
L 192.171586 43.891639 
L 192.722469 43.984148 
L 192.972871 44.009836 
L 194.074639 44.117106 
L 194.32504 44.188954 
L 194.926004 44.270299 
L 195.176406 44.326694 
L 196.228093 44.433119 
L 196.728897 44.474087 
L 197.930825 44.585042 
L 198.131146 44.620848 
L 198.832271 44.711819 
L 199.232914 44.757811 
L 200.535002 44.823605 
L 200.735324 44.869562 
L 203.0891 44.961541 
L 203.589903 45.047426 
L 204.441269 45.134042 
L 204.64159 45.209309 
L 205.793438 45.300914 
L 206.144 45.372124 
L 207.446089 45.473797 
L 207.796652 45.528864 
L 209.799865 45.624351 
L 210.250588 45.746131 
L 211.402436 45.824721 
L 211.552677 45.885529 
L 212.303882 45.941248 
L 212.504203 46.02226 
L 213.605971 46.126954 
L 213.806292 46.162354 
L 215.809506 46.245298 
L 216.009827 46.280661 
L 216.961354 46.369243 
L 217.412077 46.539852 
L 218.413683 46.630569 
L 218.814326 46.715648 
L 220.016254 46.82435 
L 220.366817 46.909852 
L 222.019468 47.015406 
L 222.31995 47.035504 
L 224.373244 47.145502 
L 224.573565 47.195674 
L 225.475011 47.290956 
L 225.675333 47.326046 
L 227.428144 47.424897 
L 227.678546 47.449936 
L 230.232643 47.555548 
L 230.533125 47.575556 
L 232.886901 47.683371 
L 233.037142 47.743326 
L 234.439392 47.828221 
L 234.639713 47.873147 
L 235.891722 47.982911 
L 236.192204 48.037764 
L 239.99831 48.119834 
L 240.348872 48.229399 
L 242.201845 48.32292 
L 242.402166 48.372662 
L 243.904576 48.460823 
L 244.205058 48.500562 
L 245.90779 48.594903 
L 246.108111 48.649494 
L 246.458673 48.706888 
L 247.610521 48.815524 
L 247.961084 48.835345 
L 249.112931 48.912435 
L 249.363333 49.041126 
L 249.914217 49.125212 
L 250.114538 49.159822 
L 252.017591 49.257554 
L 252.368153 49.277314 
L 253.41984 49.374953 
L 253.720323 49.392902 
L 256.825304 49.479446 
L 257.125786 49.517308 
L 258.528035 49.62079 
L 259.22916 49.717557 
L 261.582936 49.805491 
L 261.833337 49.834982 
L 264.537676 49.915305 
L 264.737997 49.949667 
L 265.839765 50.055506 
L 266.340568 50.099637 
L 267.792898 50.201852 
L 268.14346 50.221447 
L 268.544103 50.288825 
L 268.744424 50.332169 
L 269.345388 50.415352 
L 269.59579 50.478932 
L 270.096593 50.600642 
L 270.747638 50.701258 
L 271.849405 50.911033 
L 273.201574 50.983398 
L 273.451976 51.075202 
L 273.852619 51.179783 
L 274.603824 51.2187 
L 275.45519 51.30168 
L 275.605431 51.369704 
L 277.107841 51.477053 
L 277.458403 51.569232 
L 279.211215 51.666203 
L 279.762099 51.817843 
L 280.863866 51.898813 
L 281.064188 51.952023 
L 282.366277 52.030006 
L 282.566598 52.063831 
L 285.471258 52.141707 
L 285.671579 52.180325 
L 286.823427 52.279781 
L 286.973668 52.337645 
L 288.125516 52.4244 
L 288.476078 52.520736 
L 289.627926 52.61084 
L 289.978488 52.721476 
L 292.582666 52.811437 
L 292.933228 52.878696 
L 293.28379 52.978142 
L 293.484112 53.026131 
L 294.535799 53.131653 
L 294.886361 53.164092 
L 296.13837 53.259379 
L 296.388771 53.40772 
L 296.689254 53.489007 
L 296.939655 53.541582 
L 297.991342 53.646676 
L 298.442065 53.708742 
L 299.19327 53.80418 
L 299.543833 53.879325 
L 299.844315 53.901417 
L 300.996163 54.007001 
L 301.246564 54.09743 
L 301.847528 54.188432 
L 302.198091 54.260927 
L 302.548653 54.360661 
L 302.748975 54.431859 
L 303.750581 54.510066 
L 303.950903 54.540852 
L 304.551867 54.613055 
L 304.752188 54.665145 
L 305.553474 54.755076 
L 305.753795 54.792926 
L 307.005803 54.87318 
L 307.456526 54.885837 
L 309.710142 54.9809 
L 310.060704 55.070569 
L 310.711748 55.154852 
L 311.012231 55.211424 
L 313.966971 55.287808 
L 314.167292 55.400808 
L 315.218979 55.494911 
L 315.4193 55.556046 
L 316.420907 55.645004 
L 316.77147 55.720149 
L 318.774683 55.826196 
L 319.375647 55.887174 
L 320.677736 55.976252 
L 320.928138 56.004371 
L 323.482235 56.080153 
L 323.682556 56.115033 
L 324.834404 56.224747 
L 325.184967 56.33228 
L 325.936172 56.430395 
L 326.286734 56.449076 
L 327.989466 56.56013 
L 328.840831 56.690731 
L 330.894125 56.751706 
L 331.094447 56.801612 
L 331.394929 56.852824 
L 333.398142 56.933566 
L 333.598463 56.970766 
L 334.349669 57.049785 
L 334.700231 57.14734 
L 335.100874 57.249473 
L 335.301195 57.286594 
L 336.402962 57.387271 
L 336.653364 57.412363 
L 337.55481 57.517746 
L 337.805212 57.545525 
L 338.456256 57.651963 
L 338.806819 57.700087 
L 339.457863 57.777078 
L 339.658185 57.823273 
L 340.659791 57.932693 
L 340.910193 57.964996 
L 342.062041 58.038106 
L 342.312443 58.107266 
L 345.918227 58.662314 
L 346.31887 58.756841 
L 346.719512 58.7981 
L 347.92144 58.906262 
L 348.171842 58.981205 
L 348.622565 59.05079 
L 348.923047 59.20166 
L 350.325297 59.29666 
L 350.525618 59.342308 
L 352.628992 59.43495 
L 352.779233 59.491263 
L 354.982768 59.57794 
L 355.18309 59.655334 
L 355.533652 59.746333 
L 355.884214 59.837277 
L 357.536866 59.937669 
L 357.787267 59.964918 
L 360.591766 60.069326 
L 361.042489 60.20501 
L 363.095783 60.298238 
L 363.396265 60.319739 
L 365.098997 60.424931 
L 365.299318 60.479207 
L 367.753255 60.559957 
L 368.153898 60.731503 
L 368.704781 60.835238 
L 368.955183 60.862287 
L 369.906709 60.970434 
L 370.357432 60.983947 
L 372.360646 61.071659 
L 372.661128 61.139158 
L 373.963217 61.248053 
L 374.163538 61.319954 
L 375.415547 61.400802 
L 375.615868 61.434348 
L 376.116671 61.519611 
L 376.316993 61.613792 
L 377.919564 61.705917 
L 378.119885 61.746234 
L 379.371893 61.853419 
L 379.672376 61.884734 
L 381.074625 61.979083 
L 381.274946 62.04611 
L 385.531775 62.148847 
L 385.832257 62.171159 
L 387.184426 62.256303 
L 387.484908 62.296809 
L 389.738524 62.403678 
L 390.489729 62.501588 
L 391.291014 62.603878 
L 391.641577 62.62166 
L 392.993746 62.726061 
L 393.194067 62.774895 
L 394.796638 62.86518 
L 395.297441 63.02034 
L 398.05186 63.103922 
L 398.252181 63.143177 
L 399.954913 63.232963 
L 400.155234 63.286009 
L 401.507403 63.381107 
L 401.707725 63.43851 
L 402.659251 63.469378 
L 403.410456 63.55506 
L 404.311902 63.663554 
L 405.714152 63.802479 
L 406.615598 63.885888 
L 406.815919 63.932958 
L 408.218169 64.030143 
L 408.41849 64.07844 
L 408.919294 64.170597 
L 409.269856 64.218847 
L 409.87082 64.305235 
L 410.221382 64.322765 
L 412.024275 64.424465 
L 412.525078 64.482264 
L 416.431344 64.584218 
L 416.781907 64.622233 
L 418.083996 64.728779 
L 418.73504 64.789876 
L 419.636486 64.895393 
L 420.087209 64.973842 
L 421.239057 65.022963 
L 422.440985 65.118729 
L 422.641307 65.162237 
L 424.293958 65.270851 
L 424.844841 65.344719 
L 425.996689 65.453281 
L 426.747894 65.535734 
L 428.650947 65.617952 
L 428.901349 65.648281 
L 430.754321 65.725888 
L 430.954643 65.769167 
L 431.305205 65.815213 
L 431.555607 65.893041 
L 431.755928 65.923541 
L 432.05641 66.002441 
L 432.256732 66.062884 
L 433.55882 66.177307 
L 434.810829 66.282057 
L 435.061231 66.385409 
L 435.361713 66.406931 
L 436.713882 66.501908 
L 436.964284 66.606138 
L 437.765569 66.704924 
L 438.166212 66.765022 
L 439.318059 66.863699 
L 439.818863 66.88049 
L 440.87055 66.991079 
L 441.070871 67.051037 
L 443.024005 67.14855 
L 443.274406 67.178498 
L 444.977138 67.276474 
L 445.27762 67.297841 
L 446.83011 67.404629 
L 447.180673 67.421708 
L 448.332521 67.455876 
L 450.786457 67.455876 
L 450.786457 67.455876 
" clip-path="url(#pd6253dfb08)" style="fill: none; stroke: #9467bd; stroke-width: 1.8; stroke-linecap: square"/>
   </g>
   <g id="patch_3">
    <path d="M 47.81 260.44 
L 47.81 25.44 
" style="fill: none; stroke: #000000; stroke-width: 0.8; stroke-linejoin: miter; stroke-linecap: square"/>
   </g>
   <g id="patch_4">
    <path d="M 565.2 260.44 
L 565.2 25.44 
" style="fill: none; stroke: #000000; stroke-width: 0.8; stroke-linejoin: miter; stroke-linecap: square"/>
   </g>
   <g id="patch_5">
    <path d="M 47.81 260.44 
L 565.2 260.44 
" style="fill: none; stroke: #000000; stroke-width: 0.8; stroke-linejoin: miter; stroke-linecap: square"/>
   </g>
   <g id="patch_6">
    <path d="M 47.81 25.44 
L 565.2 25.44 
" style="fill: none; stroke: #000000; stroke-width: 0.8; stroke-linejoin: miter; stroke-linecap: square"/>
   </g>
   <g id="text_15">
    <!-- Timely Transfer Rate (Cumulative) -->
    <g transform="translate(204.082187 19.44) scale(0.12 -0.12)">
     <defs>
      <path id="DejaVuSans-54" d="M -19 4666 
L 3928 4666 
L 3928 4134 
L 2272 4134 
L 2272 0 
L 1638 0 
L 1638 4134 
L -19 4134 
L -19 4666 
z
" transform="scale(0.015625)"/>
      <path id="DejaVuSans-52" d="M 2841 2188 
Q 3044 2119 3236 1894 
Q 3428 1669 3622 1275 
L 4263 0 
L 3584 0 
L 2988 1197 
Q 2756 1666 2539 1819 
Q 2322 1972 1947 1972 
L 1259 1972 
L 1259 0 
L 628 0 
L 628 4666 
L 2053 4666 
Q 2853 4666 3247 4331 
Q 3641 3997 3641 3322 
Q 3641 2881 3436 2590 
Q 3231 2300 2841 2188 
z
M 1259 4147 
L 1259 2491 
L 2053 2491 
Q 2509 2491 2742 2702 
Q 2975 2913 2975 3322 
Q 2975 3731 2742 3939 
Q 2509 4147 2053 4147 
L 1259 4147 
z
" transform="scale(0.015625)"/>
      <path id="DejaVuSans-28" d="M 1984 4856 
Q 1566 4138 1362 3434 
Q 1159 2731 1159 2009 
Q 1159 1288 1364 580 
Q 1569 -128 1984 -844 
L 1484 -844 
Q 1016 -109 783 600 
Q 550 1309 550 2009 
Q 550 2706 781 3412 
Q 1013 4119 1484 4856 
L 1984 4856 
z
" transform="scale(0.015625)"/>
      <path id="DejaVuSans-43" d="M 4122 4306 
L 4122 3641 
Q 3803 3938 3442 4084 
Q 3081 4231 2675 4231 
Q 1875 4231 1450 3742 
Q 1025 3253 1025 2328 
Q 1025 1406 1450 917 
Q 1875 428 2675 428 
Q 3081 428 3442 575 
Q 3803 722 4122 1019 
L 4122 359 
Q 3791 134 3420 21 
Q 3050 -91 2638 -91 
Q 1578 -91 968 557 
Q 359 1206 359 2328 
Q 359 3453 968 4101 
Q 1578 4750 2638 4750 
Q 3056 4750 3426 4639 
Q 3797 4528 4122 4306 
z
" transform="scale(0.015625)"/>
      <path id="DejaVuSans-29" d="M 513 4856 
L 1013 4856 
Q 1481 4119 1714 3412 
Q 1947 2706 1947 2009 
Q 1947 1309 1714 600 
Q 1481 -109 1013 -844 
L 513 -844 
Q 928 -128 1133 580 
Q 1338 1288 1338 2009 
Q 1338 2731 1133 3434 
Q 928 4138 513 4856 
z
" transform="scale(0.015625)"/>
     </defs>
     <use xlink:href="#DejaVuSans-54"/>
     <use xlink:href="#DejaVuSans-69" x="57.958984"/>
     <use xlink:href="#DejaVuSans-6d" x="85.742188"/>
     <use xlink:href="#DejaVuSans-65" x="183.154297"/>
     <use xlink:href="#DejaVuSans-6c" x="244.677734"/>
     <use xlink:href="#DejaVuSans-79" x="272.460938"/>
     <use xlink:href="#DejaVuSans-20" x="331.640625"/>
     <use xlink:href="#DejaVuSans-54" x="363.427734"/>
     <use xlink:href="#DejaVuSans-72" x="409.761719"/>
     <use xlink:href="#DejaVuSans-61" x="450.875"/>
     <use xlink:href="#DejaVuSans-6e" x="512.154297"/>
     <use xlink:href="#DejaVuSans-73" x="575.533203"/>
     <use xlink:href="#DejaVuSans-66" x="627.632812"/>
     <use xlink:href="#DejaVuSans-65" x="662.837891"/>
     <use xlink:href="#DejaVuSans-72" x="724.361328"/>
     <use xlink:href="#DejaVuSans-20" x="765.474609"/>
     <use xlink:href="#DejaVuSans-52" x="797.261719"/>
     <use xlink:href="#DejaVuSans-61" x="864.494141"/>
     <use xlink:href="#DejaVuSans-74" x="925.773438"/>
     <use xlink:href="#DejaVuSans-65" x="964.982422"/>
     <use xlink:href="#DejaVuSans-20" x="1026.505859"/>
     <use xlink:href="#DejaVuSans-28" x="1058.292969"/>
     <use xlink:href="#DejaVuSans-43" x="1097.306641"/>
     <use xlink:href="#DejaVuSans-75" x="1167.130859"/>
     <use xlink:href="#DejaVuSans-6d" x="1230.509766"/>
     <use xlink:href="#DejaVuSans-75" x="1327.921875"/>
     <use xlink:href="#DejaVuSans-6c" x="1391.300781"/>
     <use xlink:href="#DejaVuSans-61" x="1419.083984"/>
     <use xlink:href="#DejaVuSans-74" x="1480.363281"/>
     <use xlink:href="#DejaVuSans-69" x="1519.572266"/>
     <use xlink:href="#DejaVuSans-76" x="1547.355469"/>
     <use xlink:href="#DejaVuSans-65" x="1606.535156"/>
     <use xlink:href="#DejaVuSans-29" x="1668.058594"/>
    </g>
   </g>
   <g id="legend_1">
    <g id="patch_7">
     <path d="M 480.614062 255.44 
L 558.2 255.44 
Q 560.2 255.44 560.2 253.44 
L 560.2 180.493125 
Q 560.2 178.493125 558.2 178.493125 
L 480.614062 178.493125 
Q 478.614062 178.493125 478.614062 180.493125 
L 478.614062 253.44 
Q 478.614062 255.44 480.614062 255.44 
z
" style="fill: #ffffff; opacity: 0.8; stroke: #cccccc; stroke-linejoin: miter"/>
    </g>
    <g id="line2d_30">
     <path d="M 482.614062 186.591563 
L 492.614062 186.591563 
L 502.614062 186.591563 
" style="fill: none; stroke: #1f77b4; stroke-width: 1.8; stroke-linecap: square"/>
    </g>
    <g id="text_16">
     <!-- sheer -->
     <g transform="translate(510.614062 190.091563) scale(0.1 -0.1)">
      <defs>
       <path id="DejaVuSans-68" d="M 3513 2113 
L 3513 0 
L 2938 0 
L 2938 2094 
Q 2938 2591 2744 2837 
Q 2550 3084 2163 3084 
Q 1697 3084 1428 2787 
Q 1159 2491 1159 1978 
L 1159 0 
L 581 0 
L 581 4863 
L 1159 4863 
L 1159 2956 
Q 1366 3272 1645 3428 
Q 1925 3584 2291 3584 
Q 2894 3584 3203 3211 
Q 3513 2838 3513 2113 
z
" transform="scale(0.015625)"/>
      </defs>
      <use xlink:href="#DejaVuSans-73"/>
      <use xlink:href="#DejaVuSans-68" x="52.099609"/>
      <use xlink:href="#DejaVuSans-65" x="115.478516"/>
      <use xlink:href="#DejaVuSans-65" x="177.001953"/>
      <use xlink:href="#DejaVuSans-72" x="238.525391"/>
     </g>
    </g>
    <g id="line2d_31">
     <path d="M 482.614062 201.269688 
L 492.614062 201.269688 
L 502.614062 201.269688 
" style="fill: none; stroke: #ff7f0e; stroke-width: 1.8; stroke-linecap: square"/>
    </g>
    <g id="text_17">
     <!-- actar -->
     <g transform="translate(510.614062 204.769688) scale(0.1 -0.1)">
      <use xlink:href="#DejaVuSans-61"/>
      <use xlink:href="#DejaVuSans-63" x="61.279297"/>
      <use xlink:href="#DejaVuSans-74" x="116.259766"/>
      <use xlink:href="#DejaVuSans-61" x="155.46875"/>
      <use xlink:href="#DejaVuSans-72" x="216.748047"/>
     </g>
    </g>
    <g id="line2d_32">
     <path d="M 482.614062 215.947813 
L 492.614062 215.947813 
L 502.614062 215.947813 
" style="fill: none; stroke: #2ca02c; stroke-width: 1.8; stroke-linecap: square"/>
    </g>
    <g id="text_18">
     <!-- tfsm_dpc -->
     <g transform="translate(510.614062 219.447813) scale(0.1 -0.1)">
      <defs>
       <path id="DejaVuSans-5f" d="M 3263 -1063 
L 3263 -1509 
L -63 -1509 
L -63 -1063 
L 3263 -1063 
z
" transform="scale(0.015625)"/>
       <path id="DejaVuSans-70" d="M 1159 525 
L 1159 -1331 
L 581 -1331 
L 581 3500 
L 1159 3500 
L 1159 2969 
Q 1341 3281 1617 3432 
Q 1894 3584 2278 3584 
Q 2916 3584 3314 3078 
Q 3713 2572 3713 1747 
Q 3713 922 3314 415 
Q 2916 -91 2278 -91 
Q 1894 -91 1617 61 
Q 1341 213 1159 525 
z
M 3116 1747 
Q 3116 2381 2855 2742 
Q 2594 3103 2138 3103 
Q 1681 3103 1420 2742 
Q 1159 2381 1159 1747 
Q 1159 1113 1420 752 
Q 1681 391 2138 391 
Q 2594 391 2855 752 
Q 3116 1113 3116 1747 
z
" transform="scale(0.015625)"/>
      </defs>
      <use xlink:href="#DejaVuSans-74"/>
      <use xlink:href="#DejaVuSans-66" x="39.208984"/>
      <use xlink:href="#DejaVuSans-73" x="74.414062"/>
      <use xlink:href="#DejaVuSans-6d" x="126.513672"/>
      <use xlink:href="#DejaVuSans-5f" x="223.925781"/>
      <use xlink:href="#DejaVuSans-64" x="273.925781"/>
      <use xlink:href="#DejaVuSans-70" x="337.402344"/>
      <use xlink:href="#DejaVuSans-63" x="400.878906"/>
     </g>
    </g>
    <g id="line2d_33">
     <path d="M 482.614062 230.904063 
L 492.614062 230.904063 
L 502.614062 230.904063 
" style="fill: none; stroke: #d62728; stroke-width: 1.8; stroke-linecap: square"/>
    </g>
    <g id="text_19">
     <!-- dst_woa -->
     <g transform="translate(510.614062 234.404063) scale(0.1 -0.1)">
      <defs>
       <path id="DejaVuSans-77" d="M 269 3500 
L 844 3500 
L 1563 769 
L 2278 3500 
L 2956 3500 
L 3675 769 
L 4391 3500 
L 4966 3500 
L 4050 0 
L 3372 0 
L 2619 2869 
L 1863 0 
L 1184 0 
L 269 3500 
z
" transform="scale(0.015625)"/>
      </defs>
      <use xlink:href="#DejaVuSans-64"/>
      <use xlink:href="#DejaVuSans-73" x="63.476562"/>
      <use xlink:href="#DejaVuSans-74" x="115.576172"/>
      <use xlink:href="#DejaVuSans-5f" x="154.785156"/>
      <use xlink:href="#DejaVuSans-77" x="204.785156"/>
      <use xlink:href="#DejaVuSans-6f" x="286.572266"/>
      <use xlink:href="#DejaVuSans-61" x="347.753906"/>
     </g>
    </g>
    <g id="line2d_34">
     <path d="M 482.614062 245.860313 
L 492.614062 245.860313 
L 502.614062 245.860313 
" style="fill: none; stroke: #9467bd; stroke-width: 1.8; stroke-linecap: square"/>
    </g>
    <g id="text_20">
     <!-- trail -->
     <g transform="translate(510.614062 249.360313) scale(0.1 -0.1)">
      <use xlink:href="#DejaVuSans-74"/>
      <use xlink:href="#DejaVuSans-72" x="39.208984"/>
      <use xlink:href="#DejaVuSans-61" x="80.322266"/>
      <use xlink:href="#DejaVuSans-69" x="141.601562"/>
      <use xlink:href="#DejaVuSans-6c" x="169.384766"/>
     </g>
    </g>
   </g>
  </g>
 </g>
 <defs>
  <clipPath id="pd6253dfb08">
   <rect x="47.81" y="25.44" width="517.39" height="235"/>
  </clipPath>
 </defs>
</svg>
