<?xml version="1.0" encoding="utf-8" standalone="no"?>
<!DOCTYPE svg PUBLIC "-//W3C//DTD SVG 1.1//EN"
  "http://www.w3.org/Graphics/SVG/1.1/DTD/svg11.dtd">
<svg xmlns:xlink="http://www.w3.org/1999/xlink" width="576pt" height="302.4pt" viewBox="0 0 576 302.4" xmlns="http://www.w3.org/2000/svg" version="1.1">
 <metadata>
  <rdf:RDF xmlns:dc="http://purl.org/dc/elements/1.1/" xmlns:cc="http://creativecommons.org/ns#" xmlns:rdf="http://www.w3.org/1999/02/22-rdf-syntax-ns#">
   <cc:Work>
    <dc:type rdf:resource="http://purl.org/dc/dcmitype/StillImage"/>
    <dc:date>2025-09-03T13:27:34.663060</dc:date>
    <dc:format>image/svg+xml</dc:format>
    <dc:creator>
     <cc:Agent>
      <dc:title>Matplotlib v3.9.4, https://matplotlib.org/</dc:title>
     </cc:Agent>
    </dc:creator>
   </cc:Work>
  </rdf:RDF>
 </metadata>
 <defs>
  <style type="text/css">*{stroke-linejoin: round; stroke-linecap: butt}</style>
 </defs>
 <g id="figure_1">
  <g id="patch_1">
   <path d="M 0 302.4 
L 576 302.4 
L 576 0 
L 0 0 
z
" style="fill: #ffffff"/>
  </g>
  <g id="axes_1">
   <g id="patch_2">
    <path d="M 54.2 260.44 
L 565.2 260.44 
L 565.2 25.44 
L 54.2 25.44 
z
" style="fill: #ffffff"/>
   </g>
   <g id="matplotlib.axis_1">
    <g id="xtick_1">
     <g id="line2d_1">
      <path d="M 77.35985 260.44 
L 77.35985 25.44 
" clip-path="url(#pf2ba98a4f0)" style="fill: none; stroke-dasharray: 2.96,1.28; stroke-dashoffset: 0; stroke: #b0b0b0; stroke-opacity: 0.3; stroke-width: 0.8"/>
     </g>
     <g id="line2d_2">
      <defs>
       <path id="ma20999b87f" d="M 0 0 
L 0 3.5 
" style="stroke: #000000; stroke-width: 0.8"/>
      </defs>
      <g>
       <use xlink:href="#ma20999b87f" x="77.35985" y="260.44" style="stroke: #000000; stroke-width: 0.8"/>
      </g>
     </g>
     <g id="text_1">
      <!-- 0 -->
      <g transform="translate(74.1786 275.038438) scale(0.1 -0.1)">
       <defs>
        <path id="DejaVuSans-30" d="M 2034 4250 
Q 1547 4250 1301 3770 
Q 1056 3291 1056 2328 
Q 1056 1369 1301 889 
Q 1547 409 2034 409 
Q 2525 409 2770 889 
Q 3016 1369 3016 2328 
Q 3016 3291 2770 3770 
Q 2525 4250 2034 4250 
z
M 2034 4750 
Q 2819 4750 3233 4129 
Q 3647 3509 3647 2328 
Q 3647 1150 3233 529 
Q 2819 -91 2034 -91 
Q 1250 -91 836 529 
Q 422 1150 422 2328 
Q 422 3509 836 4129 
Q 1250 4750 2034 4750 
z
" transform="scale(0.015625)"/>
       </defs>
       <use xlink:href="#DejaVuSans-30"/>
      </g>
     </g>
    </g>
    <g id="xtick_2">
     <g id="line2d_3">
      <path d="M 144.782992 260.44 
L 144.782992 25.44 
" clip-path="url(#pf2ba98a4f0)" style="fill: none; stroke-dasharray: 2.96,1.28; stroke-dashoffset: 0; stroke: #b0b0b0; stroke-opacity: 0.3; stroke-width: 0.8"/>
     </g>
     <g id="line2d_4">
      <g>
       <use xlink:href="#ma20999b87f" x="144.782992" y="260.44" style="stroke: #000000; stroke-width: 0.8"/>
      </g>
     </g>
     <g id="text_2">
      <!-- 1000 -->
      <g transform="translate(132.057992 275.038438) scale(0.1 -0.1)">
       <defs>
        <path id="DejaVuSans-31" d="M 794 531 
L 1825 531 
L 1825 4091 
L 703 3866 
L 703 4441 
L 1819 4666 
L 2450 4666 
L 2450 531 
L 3481 531 
L 3481 0 
L 794 0 
L 794 531 
z
" transform="scale(0.015625)"/>
       </defs>
       <use xlink:href="#DejaVuSans-31"/>
       <use xlink:href="#DejaVuSans-30" x="63.623047"/>
       <use xlink:href="#DejaVuSans-30" x="127.246094"/>
       <use xlink:href="#DejaVuSans-30" x="190.869141"/>
      </g>
     </g>
    </g>
    <g id="xtick_3">
     <g id="line2d_5">
      <path d="M 212.206135 260.44 
L 212.206135 25.44 
" clip-path="url(#pf2ba98a4f0)" style="fill: none; stroke-dasharray: 2.96,1.28; stroke-dashoffset: 0; stroke: #b0b0b0; stroke-opacity: 0.3; stroke-width: 0.8"/>
     </g>
     <g id="line2d_6">
      <g>
       <use xlink:href="#ma20999b87f" x="212.206135" y="260.44" style="stroke: #000000; stroke-width: 0.8"/>
      </g>
     </g>
     <g id="text_3">
      <!-- 2000 -->
      <g transform="translate(199.481135 275.038438) scale(0.1 -0.1)">
       <defs>
        <path id="DejaVuSans-32" d="M 1228 531 
L 3431 531 
L 3431 0 
L 469 0 
L 469 531 
Q 828 903 1448 1529 
Q 2069 2156 2228 2338 
Q 2531 2678 2651 2914 
Q 2772 3150 2772 3378 
Q 2772 3750 2511 3984 
Q 2250 4219 1831 4219 
Q 1534 4219 1204 4116 
Q 875 4013 500 3803 
L 500 4441 
Q 881 4594 1212 4672 
Q 1544 4750 1819 4750 
Q 2544 4750 2975 4387 
Q 3406 4025 3406 3419 
Q 3406 3131 3298 2873 
Q 3191 2616 2906 2266 
Q 2828 2175 2409 1742 
Q 1991 1309 1228 531 
z
" transform="scale(0.015625)"/>
       </defs>
       <use xlink:href="#DejaVuSans-32"/>
       <use xlink:href="#DejaVuSans-30" x="63.623047"/>
       <use xlink:href="#DejaVuSans-30" x="127.246094"/>
       <use xlink:href="#DejaVuSans-30" x="190.869141"/>
      </g>
     </g>
    </g>
    <g id="xtick_4">
     <g id="line2d_7">
      <path d="M 279.629278 260.44 
L 279.629278 25.44 
" clip-path="url(#pf2ba98a4f0)" style="fill: none; stroke-dasharray: 2.96,1.28; stroke-dashoffset: 0; stroke: #b0b0b0; stroke-opacity: 0.3; stroke-width: 0.8"/>
     </g>
     <g id="line2d_8">
      <g>
       <use xlink:href="#ma20999b87f" x="279.629278" y="260.44" style="stroke: #000000; stroke-width: 0.8"/>
      </g>
     </g>
     <g id="text_4">
      <!-- 3000 -->
      <g transform="translate(266.904278 275.038438) scale(0.1 -0.1)">
       <defs>
        <path id="DejaVuSans-33" d="M 2597 2516 
Q 3050 2419 3304 2112 
Q 3559 1806 3559 1356 
Q 3559 666 3084 287 
Q 2609 -91 1734 -91 
Q 1441 -91 1130 -33 
Q 819 25 488 141 
L 488 750 
Q 750 597 1062 519 
Q 1375 441 1716 441 
Q 2309 441 2620 675 
Q 2931 909 2931 1356 
Q 2931 1769 2642 2001 
Q 2353 2234 1838 2234 
L 1294 2234 
L 1294 2753 
L 1863 2753 
Q 2328 2753 2575 2939 
Q 2822 3125 2822 3475 
Q 2822 3834 2567 4026 
Q 2313 4219 1838 4219 
Q 1578 4219 1281 4162 
Q 984 4106 628 3988 
L 628 4550 
Q 988 4650 1302 4700 
Q 1616 4750 1894 4750 
Q 2613 4750 3031 4423 
Q 3450 4097 3450 3541 
Q 3450 3153 3228 2886 
Q 3006 2619 2597 2516 
z
" transform="scale(0.015625)"/>
       </defs>
       <use xlink:href="#DejaVuSans-33"/>
       <use xlink:href="#DejaVuSans-30" x="63.623047"/>
       <use xlink:href="#DejaVuSans-30" x="127.246094"/>
       <use xlink:href="#DejaVuSans-30" x="190.869141"/>
      </g>
     </g>
    </g>
    <g id="xtick_5">
     <g id="line2d_9">
      <path d="M 347.052421 260.44 
L 347.052421 25.44 
" clip-path="url(#pf2ba98a4f0)" style="fill: none; stroke-dasharray: 2.96,1.28; stroke-dashoffset: 0; stroke: #b0b0b0; stroke-opacity: 0.3; stroke-width: 0.8"/>
     </g>
     <g id="line2d_10">
      <g>
       <use xlink:href="#ma20999b87f" x="347.052421" y="260.44" style="stroke: #000000; stroke-width: 0.8"/>
      </g>
     </g>
     <g id="text_5">
      <!-- 4000 -->
      <g transform="translate(334.327421 275.038438) scale(0.1 -0.1)">
       <defs>
        <path id="DejaVuSans-34" d="M 2419 4116 
L 825 1625 
L 2419 1625 
L 2419 4116 
z
M 2253 4666 
L 3047 4666 
L 3047 1625 
L 3713 1625 
L 3713 1100 
L 3047 1100 
L 3047 0 
L 2419 0 
L 2419 1100 
L 313 1100 
L 313 1709 
L 2253 4666 
z
" transform="scale(0.015625)"/>
       </defs>
       <use xlink:href="#DejaVuSans-34"/>
       <use xlink:href="#DejaVuSans-30" x="63.623047"/>
       <use xlink:href="#DejaVuSans-30" x="127.246094"/>
       <use xlink:href="#DejaVuSans-30" x="190.869141"/>
      </g>
     </g>
    </g>
    <g id="xtick_6">
     <g id="line2d_11">
      <path d="M 414.475564 260.44 
L 414.475564 25.44 
" clip-path="url(#pf2ba98a4f0)" style="fill: none; stroke-dasharray: 2.96,1.28; stroke-dashoffset: 0; stroke: #b0b0b0; stroke-opacity: 0.3; stroke-width: 0.8"/>
     </g>
     <g id="line2d_12">
      <g>
       <use xlink:href="#ma20999b87f" x="414.475564" y="260.44" style="stroke: #000000; stroke-width: 0.8"/>
      </g>
     </g>
     <g id="text_6">
      <!-- 5000 -->
      <g transform="translate(401.750564 275.038438) scale(0.1 -0.1)">
       <defs>
        <path id="DejaVuSans-35" d="M 691 4666 
L 3169 4666 
L 3169 4134 
L 1269 4134 
L 1269 2991 
Q 1406 3038 1543 3061 
Q 1681 3084 1819 3084 
Q 2600 3084 3056 2656 
Q 3513 2228 3513 1497 
Q 3513 744 3044 326 
Q 2575 -91 1722 -91 
Q 1428 -91 1123 -41 
Q 819 9 494 109 
L 494 744 
Q 775 591 1075 516 
Q 1375 441 1709 441 
Q 2250 441 2565 725 
Q 2881 1009 2881 1497 
Q 2881 1984 2565 2268 
Q 2250 2553 1709 2553 
Q 1456 2553 1204 2497 
Q 953 2441 691 2322 
L 691 4666 
z
" transform="scale(0.015625)"/>
       </defs>
       <use xlink:href="#DejaVuSans-35"/>
       <use xlink:href="#DejaVuSans-30" x="63.623047"/>
       <use xlink:href="#DejaVuSans-30" x="127.246094"/>
       <use xlink:href="#DejaVuSans-30" x="190.869141"/>
      </g>
     </g>
    </g>
    <g id="xtick_7">
     <g id="line2d_13">
      <path d="M 481.898707 260.44 
L 481.898707 25.44 
" clip-path="url(#pf2ba98a4f0)" style="fill: none; stroke-dasharray: 2.96,1.28; stroke-dashoffset: 0; stroke: #b0b0b0; stroke-opacity: 0.3; stroke-width: 0.8"/>
     </g>
     <g id="line2d_14">
      <g>
       <use xlink:href="#ma20999b87f" x="481.898707" y="260.44" style="stroke: #000000; stroke-width: 0.8"/>
      </g>
     </g>
     <g id="text_7">
      <!-- 6000 -->
      <g transform="translate(469.173707 275.038438) scale(0.1 -0.1)">
       <defs>
        <path id="DejaVuSans-36" d="M 2113 2584 
Q 1688 2584 1439 2293 
Q 1191 2003 1191 1497 
Q 1191 994 1439 701 
Q 1688 409 2113 409 
Q 2538 409 2786 701 
Q 3034 994 3034 1497 
Q 3034 2003 2786 2293 
Q 2538 2584 2113 2584 
z
M 3366 4563 
L 3366 3988 
Q 3128 4100 2886 4159 
Q 2644 4219 2406 4219 
Q 1781 4219 1451 3797 
Q 1122 3375 1075 2522 
Q 1259 2794 1537 2939 
Q 1816 3084 2150 3084 
Q 2853 3084 3261 2657 
Q 3669 2231 3669 1497 
Q 3669 778 3244 343 
Q 2819 -91 2113 -91 
Q 1303 -91 875 529 
Q 447 1150 447 2328 
Q 447 3434 972 4092 
Q 1497 4750 2381 4750 
Q 2619 4750 2861 4703 
Q 3103 4656 3366 4563 
z
" transform="scale(0.015625)"/>
       </defs>
       <use xlink:href="#DejaVuSans-36"/>
       <use xlink:href="#DejaVuSans-30" x="63.623047"/>
       <use xlink:href="#DejaVuSans-30" x="127.246094"/>
       <use xlink:href="#DejaVuSans-30" x="190.869141"/>
      </g>
     </g>
    </g>
    <g id="xtick_8">
     <g id="line2d_15">
      <path d="M 549.32185 260.44 
L 549.32185 25.44 
" clip-path="url(#pf2ba98a4f0)" style="fill: none; stroke-dasharray: 2.96,1.28; stroke-dashoffset: 0; stroke: #b0b0b0; stroke-opacity: 0.3; stroke-width: 0.8"/>
     </g>
     <g id="line2d_16">
      <g>
       <use xlink:href="#ma20999b87f" x="549.32185" y="260.44" style="stroke: #000000; stroke-width: 0.8"/>
      </g>
     </g>
     <g id="text_8">
      <!-- 7000 -->
      <g transform="translate(536.59685 275.038438) scale(0.1 -0.1)">
       <defs>
        <path id="DejaVuSans-37" d="M 525 4666 
L 3525 4666 
L 3525 4397 
L 1831 0 
L 1172 0 
L 2766 4134 
L 525 4134 
L 525 4666 
z
" transform="scale(0.015625)"/>
       </defs>
       <use xlink:href="#DejaVuSans-37"/>
       <use xlink:href="#DejaVuSans-30" x="63.623047"/>
       <use xlink:href="#DejaVuSans-30" x="127.246094"/>
       <use xlink:href="#DejaVuSans-30" x="190.869141"/>
      </g>
     </g>
    </g>
    <g id="text_9">
     <!-- round -->
     <g transform="translate(295.185937 288.716563) scale(0.1 -0.1)">
      <defs>
       <path id="DejaVuSans-72" d="M 2631 2963 
Q 2534 3019 2420 3045 
Q 2306 3072 2169 3072 
Q 1681 3072 1420 2755 
Q 1159 2438 1159 1844 
L 1159 0 
L 581 0 
L 581 3500 
L 1159 3500 
L 1159 2956 
Q 1341 3275 1631 3429 
Q 1922 3584 2338 3584 
Q 2397 3584 2469 3576 
Q 2541 3569 2628 3553 
L 2631 2963 
z
" transform="scale(0.015625)"/>
       <path id="DejaVuSans-6f" d="M 1959 3097 
Q 1497 3097 1228 2736 
Q 959 2375 959 1747 
Q 959 1119 1226 758 
Q 1494 397 1959 397 
Q 2419 397 2687 759 
Q 2956 1122 2956 1747 
Q 2956 2369 2687 2733 
Q 2419 3097 1959 3097 
z
M 1959 3584 
Q 2709 3584 3137 3096 
Q 3566 2609 3566 1747 
Q 3566 888 3137 398 
Q 2709 -91 1959 -91 
Q 1206 -91 779 398 
Q 353 888 353 1747 
Q 353 2609 779 3096 
Q 1206 3584 1959 3584 
z
" transform="scale(0.015625)"/>
       <path id="DejaVuSans-75" d="M 544 1381 
L 544 3500 
L 1119 3500 
L 1119 1403 
Q 1119 906 1312 657 
Q 1506 409 1894 409 
Q 2359 409 2629 706 
Q 2900 1003 2900 1516 
L 2900 3500 
L 3475 3500 
L 3475 0 
L 2900 0 
L 2900 538 
Q 2691 219 2414 64 
Q 2138 -91 1772 -91 
Q 1169 -91 856 284 
Q 544 659 544 1381 
z
M 1991 3584 
L 1991 3584 
z
" transform="scale(0.015625)"/>
       <path id="DejaVuSans-6e" d="M 3513 2113 
L 3513 0 
L 2938 0 
L 2938 2094 
Q 2938 2591 2744 2837 
Q 2550 3084 2163 3084 
Q 1697 3084 1428 2787 
Q 1159 2491 1159 1978 
L 1159 0 
L 581 0 
L 581 3500 
L 1159 3500 
L 1159 2956 
Q 1366 3272 1645 3428 
Q 1925 3584 2291 3584 
Q 2894 3584 3203 3211 
Q 3513 2838 3513 2113 
z
" transform="scale(0.015625)"/>
       <path id="DejaVuSans-64" d="M 2906 2969 
L 2906 4863 
L 3481 4863 
L 3481 0 
L 2906 0 
L 2906 525 
Q 2725 213 2448 61 
Q 2172 -91 1784 -91 
Q 1150 -91 751 415 
Q 353 922 353 1747 
Q 353 2572 751 3078 
Q 1150 3584 1784 3584 
Q 2172 3584 2448 3432 
Q 2725 3281 2906 2969 
z
M 947 1747 
Q 947 1113 1208 752 
Q 1469 391 1925 391 
Q 2381 391 2643 752 
Q 2906 1113 2906 1747 
Q 2906 2381 2643 2742 
Q 2381 3103 1925 3103 
Q 1469 3103 1208 2742 
Q 947 2381 947 1747 
z
" transform="scale(0.015625)"/>
      </defs>
      <use xlink:href="#DejaVuSans-72"/>
      <use xlink:href="#DejaVuSans-6f" x="38.863281"/>
      <use xlink:href="#DejaVuSans-75" x="100.044922"/>
      <use xlink:href="#DejaVuSans-6e" x="163.423828"/>
      <use xlink:href="#DejaVuSans-64" x="226.802734"/>
     </g>
    </g>
   </g>
   <g id="matplotlib.axis_2">
    <g id="ytick_1">
     <g id="line2d_17">
      <path d="M 54.2 227.936753 
L 565.2 227.936753 
" clip-path="url(#pf2ba98a4f0)" style="fill: none; stroke-dasharray: 2.96,1.28; stroke-dashoffset: 0; stroke: #b0b0b0; stroke-opacity: 0.3; stroke-width: 0.8"/>
     </g>
     <g id="line2d_18">
      <defs>
       <path id="m9368c60c22" d="M 0 0 
L -3.5 0 
" style="stroke: #000000; stroke-width: 0.8"/>
      </defs>
      <g>
       <use xlink:href="#m9368c60c22" x="54.2" y="227.936753" style="stroke: #000000; stroke-width: 0.8"/>
      </g>
     </g>
     <g id="text_10">
      <!-- 0.90 -->
      <g transform="translate(24.934375 231.735972) scale(0.1 -0.1)">
       <defs>
        <path id="DejaVuSans-2e" d="M 684 794 
L 1344 794 
L 1344 0 
L 684 0 
L 684 794 
z
" transform="scale(0.015625)"/>
        <path id="DejaVuSans-39" d="M 703 97 
L 703 672 
Q 941 559 1184 500 
Q 1428 441 1663 441 
Q 2288 441 2617 861 
Q 2947 1281 2994 2138 
Q 2813 1869 2534 1725 
Q 2256 1581 1919 1581 
Q 1219 1581 811 2004 
Q 403 2428 403 3163 
Q 403 3881 828 4315 
Q 1253 4750 1959 4750 
Q 2769 4750 3195 4129 
Q 3622 3509 3622 2328 
Q 3622 1225 3098 567 
Q 2575 -91 1691 -91 
Q 1453 -91 1209 -44 
Q 966 3 703 97 
z
M 1959 2075 
Q 2384 2075 2632 2365 
Q 2881 2656 2881 3163 
Q 2881 3666 2632 3958 
Q 2384 4250 1959 4250 
Q 1534 4250 1286 3958 
Q 1038 3666 1038 3163 
Q 1038 2656 1286 2365 
Q 1534 2075 1959 2075 
z
" transform="scale(0.015625)"/>
       </defs>
       <use xlink:href="#DejaVuSans-30"/>
       <use xlink:href="#DejaVuSans-2e" x="63.623047"/>
       <use xlink:href="#DejaVuSans-39" x="95.410156"/>
       <use xlink:href="#DejaVuSans-30" x="159.033203"/>
      </g>
     </g>
    </g>
    <g id="ytick_2">
     <g id="line2d_19">
      <path d="M 54.2 189.573766 
L 565.2 189.573766 
" clip-path="url(#pf2ba98a4f0)" style="fill: none; stroke-dasharray: 2.96,1.28; stroke-dashoffset: 0; stroke: #b0b0b0; stroke-opacity: 0.3; stroke-width: 0.8"/>
     </g>
     <g id="line2d_20">
      <g>
       <use xlink:href="#m9368c60c22" x="54.2" y="189.573766" style="stroke: #000000; stroke-width: 0.8"/>
      </g>
     </g>
     <g id="text_11">
      <!-- 0.92 -->
      <g transform="translate(24.934375 193.372985) scale(0.1 -0.1)">
       <use xlink:href="#DejaVuSans-30"/>
       <use xlink:href="#DejaVuSans-2e" x="63.623047"/>
       <use xlink:href="#DejaVuSans-39" x="95.410156"/>
       <use xlink:href="#DejaVuSans-32" x="159.033203"/>
      </g>
     </g>
    </g>
    <g id="ytick_3">
     <g id="line2d_21">
      <path d="M 54.2 151.210779 
L 565.2 151.210779 
" clip-path="url(#pf2ba98a4f0)" style="fill: none; stroke-dasharray: 2.96,1.28; stroke-dashoffset: 0; stroke: #b0b0b0; stroke-opacity: 0.3; stroke-width: 0.8"/>
     </g>
     <g id="line2d_22">
      <g>
       <use xlink:href="#m9368c60c22" x="54.2" y="151.210779" style="stroke: #000000; stroke-width: 0.8"/>
      </g>
     </g>
     <g id="text_12">
      <!-- 0.94 -->
      <g transform="translate(24.934375 155.009998) scale(0.1 -0.1)">
       <use xlink:href="#DejaVuSans-30"/>
       <use xlink:href="#DejaVuSans-2e" x="63.623047"/>
       <use xlink:href="#DejaVuSans-39" x="95.410156"/>
       <use xlink:href="#DejaVuSans-34" x="159.033203"/>
      </g>
     </g>
    </g>
    <g id="ytick_4">
     <g id="line2d_23">
      <path d="M 54.2 112.847792 
L 565.2 112.847792 
" clip-path="url(#pf2ba98a4f0)" style="fill: none; stroke-dasharray: 2.96,1.28; stroke-dashoffset: 0; stroke: #b0b0b0; stroke-opacity: 0.3; stroke-width: 0.8"/>
     </g>
     <g id="line2d_24">
      <g>
       <use xlink:href="#m9368c60c22" x="54.2" y="112.847792" style="stroke: #000000; stroke-width: 0.8"/>
      </g>
     </g>
     <g id="text_13">
      <!-- 0.96 -->
      <g transform="translate(24.934375 116.647011) scale(0.1 -0.1)">
       <use xlink:href="#DejaVuSans-30"/>
       <use xlink:href="#DejaVuSans-2e" x="63.623047"/>
       <use xlink:href="#DejaVuSans-39" x="95.410156"/>
       <use xlink:href="#DejaVuSans-36" x="159.033203"/>
      </g>
     </g>
    </g>
    <g id="ytick_5">
     <g id="line2d_25">
      <path d="M 54.2 74.484805 
L 565.2 74.484805 
" clip-path="url(#pf2ba98a4f0)" style="fill: none; stroke-dasharray: 2.96,1.28; stroke-dashoffset: 0; stroke: #b0b0b0; stroke-opacity: 0.3; stroke-width: 0.8"/>
     </g>
     <g id="line2d_26">
      <g>
       <use xlink:href="#m9368c60c22" x="54.2" y="74.484805" style="stroke: #000000; stroke-width: 0.8"/>
      </g>
     </g>
     <g id="text_14">
      <!-- 0.98 -->
      <g transform="translate(24.934375 78.284024) scale(0.1 -0.1)">
       <defs>
        <path id="DejaVuSans-38" d="M 2034 2216 
Q 1584 2216 1326 1975 
Q 1069 1734 1069 1313 
Q 1069 891 1326 650 
Q 1584 409 2034 409 
Q 2484 409 2743 651 
Q 3003 894 3003 1313 
Q 3003 1734 2745 1975 
Q 2488 2216 2034 2216 
z
M 1403 2484 
Q 997 2584 770 2862 
Q 544 3141 544 3541 
Q 544 4100 942 4425 
Q 1341 4750 2034 4750 
Q 2731 4750 3128 4425 
Q 3525 4100 3525 3541 
Q 3525 3141 3298 2862 
Q 3072 2584 2669 2484 
Q 3125 2378 3379 2068 
Q 3634 1759 3634 1313 
Q 3634 634 3220 271 
Q 2806 -91 2034 -91 
Q 1263 -91 848 271 
Q 434 634 434 1313 
Q 434 1759 690 2068 
Q 947 2378 1403 2484 
z
M 1172 3481 
Q 1172 3119 1398 2916 
Q 1625 2713 2034 2713 
Q 2441 2713 2670 2916 
Q 2900 3119 2900 3481 
Q 2900 3844 2670 4047 
Q 2441 4250 2034 4250 
Q 1625 4250 1398 4047 
Q 1172 3844 1172 3481 
z
" transform="scale(0.015625)"/>
       </defs>
       <use xlink:href="#DejaVuSans-30"/>
       <use xlink:href="#DejaVuSans-2e" x="63.623047"/>
       <use xlink:href="#DejaVuSans-39" x="95.410156"/>
       <use xlink:href="#DejaVuSans-38" x="159.033203"/>
      </g>
     </g>
    </g>
    <g id="ytick_6">
     <g id="line2d_27">
      <path d="M 54.2 36.121818 
L 565.2 36.121818 
" clip-path="url(#pf2ba98a4f0)" style="fill: none; stroke-dasharray: 2.96,1.28; stroke-dashoffset: 0; stroke: #b0b0b0; stroke-opacity: 0.3; stroke-width: 0.8"/>
     </g>
     <g id="line2d_28">
      <g>
       <use xlink:href="#m9368c60c22" x="54.2" y="36.121818" style="stroke: #000000; stroke-width: 0.8"/>
      </g>
     </g>
     <g id="text_15">
      <!-- 1.00 -->
      <g transform="translate(24.934375 39.921037) scale(0.1 -0.1)">
       <use xlink:href="#DejaVuSans-31"/>
       <use xlink:href="#DejaVuSans-2e" x="63.623047"/>
       <use xlink:href="#DejaVuSans-30" x="95.410156"/>
       <use xlink:href="#DejaVuSans-30" x="159.033203"/>
      </g>
     </g>
    </g>
    <g id="text_16">
     <!-- cumulative timely transfer rate -->
     <g transform="translate(18.854688 221.048594) rotate(-90) scale(0.1 -0.1)">
      <defs>
       <path id="DejaVuSans-63" d="M 3122 3366 
L 3122 2828 
Q 2878 2963 2633 3030 
Q 2388 3097 2138 3097 
Q 1578 3097 1268 2742 
Q 959 2388 959 1747 
Q 959 1106 1268 751 
Q 1578 397 2138 397 
Q 2388 397 2633 464 
Q 2878 531 3122 666 
L 3122 134 
Q 2881 22 2623 -34 
Q 2366 -91 2075 -91 
Q 1284 -91 818 406 
Q 353 903 353 1747 
Q 353 2603 823 3093 
Q 1294 3584 2113 3584 
Q 2378 3584 2631 3529 
Q 2884 3475 3122 3366 
z
" transform="scale(0.015625)"/>
       <path id="DejaVuSans-6d" d="M 3328 2828 
Q 3544 3216 3844 3400 
Q 4144 3584 4550 3584 
Q 5097 3584 5394 3201 
Q 5691 2819 5691 2113 
L 5691 0 
L 5113 0 
L 5113 2094 
Q 5113 2597 4934 2840 
Q 4756 3084 4391 3084 
Q 3944 3084 3684 2787 
Q 3425 2491 3425 1978 
L 3425 0 
L 2847 0 
L 2847 2094 
Q 2847 2600 2669 2842 
Q 2491 3084 2119 3084 
Q 1678 3084 1418 2786 
Q 1159 2488 1159 1978 
L 1159 0 
L 581 0 
L 581 3500 
L 1159 3500 
L 1159 2956 
Q 1356 3278 1631 3431 
Q 1906 3584 2284 3584 
Q 2666 3584 2933 3390 
Q 3200 3197 3328 2828 
z
" transform="scale(0.015625)"/>
       <path id="DejaVuSans-6c" d="M 603 4863 
L 1178 4863 
L 1178 0 
L 603 0 
L 603 4863 
z
" transform="scale(0.015625)"/>
       <path id="DejaVuSans-61" d="M 2194 1759 
Q 1497 1759 1228 1600 
Q 959 1441 959 1056 
Q 959 750 1161 570 
Q 1363 391 1709 391 
Q 2188 391 2477 730 
Q 2766 1069 2766 1631 
L 2766 1759 
L 2194 1759 
z
M 3341 1997 
L 3341 0 
L 2766 0 
L 2766 531 
Q 2569 213 2275 61 
Q 1981 -91 1556 -91 
Q 1019 -91 701 211 
Q 384 513 384 1019 
Q 384 1609 779 1909 
Q 1175 2209 1959 2209 
L 2766 2209 
L 2766 2266 
Q 2766 2663 2505 2880 
Q 2244 3097 1772 3097 
Q 1472 3097 1187 3025 
Q 903 2953 641 2809 
L 641 3341 
Q 956 3463 1253 3523 
Q 1550 3584 1831 3584 
Q 2591 3584 2966 3190 
Q 3341 2797 3341 1997 
z
" transform="scale(0.015625)"/>
       <path id="DejaVuSans-74" d="M 1172 4494 
L 1172 3500 
L 2356 3500 
L 2356 3053 
L 1172 3053 
L 1172 1153 
Q 1172 725 1289 603 
Q 1406 481 1766 481 
L 2356 481 
L 2356 0 
L 1766 0 
Q 1100 0 847 248 
Q 594 497 594 1153 
L 594 3053 
L 172 3053 
L 172 3500 
L 594 3500 
L 594 4494 
L 1172 4494 
z
" transform="scale(0.015625)"/>
       <path id="DejaVuSans-69" d="M 603 3500 
L 1178 3500 
L 1178 0 
L 603 0 
L 603 3500 
z
M 603 4863 
L 1178 4863 
L 1178 4134 
L 603 4134 
L 603 4863 
z
" transform="scale(0.015625)"/>
       <path id="DejaVuSans-76" d="M 191 3500 
L 800 3500 
L 1894 563 
L 2988 3500 
L 3597 3500 
L 2284 0 
L 1503 0 
L 191 3500 
z
" transform="scale(0.015625)"/>
       <path id="DejaVuSans-65" d="M 3597 1894 
L 3597 1613 
L 953 1613 
Q 991 1019 1311 708 
Q 1631 397 2203 397 
Q 2534 397 2845 478 
Q 3156 559 3463 722 
L 3463 178 
Q 3153 47 2828 -22 
Q 2503 -91 2169 -91 
Q 1331 -91 842 396 
Q 353 884 353 1716 
Q 353 2575 817 3079 
Q 1281 3584 2069 3584 
Q 2775 3584 3186 3129 
Q 3597 2675 3597 1894 
z
M 3022 2063 
Q 3016 2534 2758 2815 
Q 2500 3097 2075 3097 
Q 1594 3097 1305 2825 
Q 1016 2553 972 2059 
L 3022 2063 
z
" transform="scale(0.015625)"/>
       <path id="DejaVuSans-20" transform="scale(0.015625)"/>
       <path id="DejaVuSans-79" d="M 2059 -325 
Q 1816 -950 1584 -1140 
Q 1353 -1331 966 -1331 
L 506 -1331 
L 506 -850 
L 844 -850 
Q 1081 -850 1212 -737 
Q 1344 -625 1503 -206 
L 1606 56 
L 191 3500 
L 800 3500 
L 1894 763 
L 2988 3500 
L 3597 3500 
L 2059 -325 
z
" transform="scale(0.015625)"/>
       <path id="DejaVuSans-73" d="M 2834 3397 
L 2834 2853 
Q 2591 2978 2328 3040 
Q 2066 3103 1784 3103 
Q 1356 3103 1142 2972 
Q 928 2841 928 2578 
Q 928 2378 1081 2264 
Q 1234 2150 1697 2047 
L 1894 2003 
Q 2506 1872 2764 1633 
Q 3022 1394 3022 966 
Q 3022 478 2636 193 
Q 2250 -91 1575 -91 
Q 1294 -91 989 -36 
Q 684 19 347 128 
L 347 722 
Q 666 556 975 473 
Q 1284 391 1588 391 
Q 1994 391 2212 530 
Q 2431 669 2431 922 
Q 2431 1156 2273 1281 
Q 2116 1406 1581 1522 
L 1381 1569 
Q 847 1681 609 1914 
Q 372 2147 372 2553 
Q 372 3047 722 3315 
Q 1072 3584 1716 3584 
Q 2034 3584 2315 3537 
Q 2597 3491 2834 3397 
z
" transform="scale(0.015625)"/>
       <path id="DejaVuSans-66" d="M 2375 4863 
L 2375 4384 
L 1825 4384 
Q 1516 4384 1395 4259 
Q 1275 4134 1275 3809 
L 1275 3500 
L 2222 3500 
L 2222 3053 
L 1275 3053 
L 1275 0 
L 697 0 
L 697 3053 
L 147 3053 
L 147 3500 
L 697 3500 
L 697 3744 
Q 697 4328 969 4595 
Q 1241 4863 1831 4863 
L 2375 4863 
z
" transform="scale(0.015625)"/>
      </defs>
      <use xlink:href="#DejaVuSans-63"/>
      <use xlink:href="#DejaVuSans-75" x="54.980469"/>
      <use xlink:href="#DejaVuSans-6d" x="118.359375"/>
      <use xlink:href="#DejaVuSans-75" x="215.771484"/>
      <use xlink:href="#DejaVuSans-6c" x="279.150391"/>
      <use xlink:href="#DejaVuSans-61" x="306.933594"/>
      <use xlink:href="#DejaVuSans-74" x="368.212891"/>
      <use xlink:href="#DejaVuSans-69" x="407.421875"/>
      <use xlink:href="#DejaVuSans-76" x="435.205078"/>
      <use xlink:href="#DejaVuSans-65" x="494.384766"/>
      <use xlink:href="#DejaVuSans-20" x="555.908203"/>
      <use xlink:href="#DejaVuSans-74" x="587.695312"/>
      <use xlink:href="#DejaVuSans-69" x="626.904297"/>
      <use xlink:href="#DejaVuSans-6d" x="654.6875"/>
      <use xlink:href="#DejaVuSans-65" x="752.099609"/>
      <use xlink:href="#DejaVuSans-6c" x="813.623047"/>
      <use xlink:href="#DejaVuSans-79" x="841.40625"/>
      <use xlink:href="#DejaVuSans-20" x="900.585938"/>
      <use xlink:href="#DejaVuSans-74" x="932.373047"/>
      <use xlink:href="#DejaVuSans-72" x="971.582031"/>
      <use xlink:href="#DejaVuSans-61" x="1012.695312"/>
      <use xlink:href="#DejaVuSans-6e" x="1073.974609"/>
      <use xlink:href="#DejaVuSans-73" x="1137.353516"/>
      <use xlink:href="#DejaVuSans-66" x="1189.453125"/>
      <use xlink:href="#DejaVuSans-65" x="1224.658203"/>
      <use xlink:href="#DejaVuSans-72" x="1286.181641"/>
      <use xlink:href="#DejaVuSans-20" x="1327.294922"/>
      <use xlink:href="#DejaVuSans-72" x="1359.082031"/>
      <use xlink:href="#DejaVuSans-61" x="1400.195312"/>
      <use xlink:href="#DejaVuSans-74" x="1461.474609"/>
      <use xlink:href="#DejaVuSans-65" x="1500.683594"/>
     </g>
    </g>
   </g>
   <g id="line2d_29">
    <path d="M 77.427273 36.121818 
L 82.753701 36.121818 
L 83.090817 82.44194 
L 83.360509 81.292703 
L 83.697625 124.082006 
L 83.967318 121.107837 
L 84.034741 130.481202 
L 84.102164 130.191978 
L 84.169587 129.583225 
L 84.43928 171.620227 
L 84.506703 170.532284 
L 84.574126 169.316999 
L 85.248357 225.780104 
L 85.31578 224.41028 
L 85.51805 219.240163 
L 86.394551 197.496792 
L 87.136205 183.104559 
L 87.271052 197.129093 
L 87.338475 196.047162 
L 87.473321 194.00389 
L 87.67559 211.99405 
L 87.743014 210.25233 
L 88.214976 199.46787 
L 88.349822 203.678541 
L 88.619514 198.321237 
L 88.686938 203.195464 
L 88.754361 201.575064 
L 88.821784 200.590829 
L 88.889207 202.815336 
L 88.95663 201.801385 
L 89.024053 201.098928 
L 89.226323 213.98106 
L 89.698285 207.450247 
L 89.765708 212.178586 
L 89.833131 211.31832 
L 90.305093 204.423061 
L 90.979324 194.232501 
L 91.046748 199.760001 
L 91.114171 198.66598 
L 92.192941 183.403617 
L 92.260364 187.820293 
L 92.327787 187.206957 
L 92.732326 182.728409 
L 92.934596 180.903358 
L 93.945943 165.969565 
L 94.485328 158.695446 
L 94.822444 155.411965 
L 96.777715 135.119439 
L 97.721639 127.28927 
L 97.789062 129.02707 
L 97.856485 128.620537 
L 98.126178 126.814459 
L 99.879179 115.172467 
L 100.014026 118.579158 
L 100.081449 118.324084 
L 100.283718 117.708521 
L 100.485988 125.789386 
L 101.362488 121.295766 
L 101.699604 119.816202 
L 101.767027 123.084886 
L 101.83445 122.842846 
L 102.104143 121.801729 
L 102.171566 122.278918 
L 102.238989 122.02055 
L 102.306412 121.763727 
L 102.441259 122.41583 
L 103.31776 117.603259 
L 103.654875 116.093423 
L 103.722298 118.158659 
L 103.789722 117.792025 
L 104.463953 114.593082 
L 104.666222 113.61725 
L 104.733646 115.711715 
L 104.801069 115.367973 
L 105.407877 112.55342 
L 105.610146 114.332972 
L 106.082108 112.417614 
L 106.149532 113.543169 
L 106.216955 113.299169 
L 106.351801 112.791741 
L 106.419224 113.701367 
L 106.486647 113.448115 
L 107.160879 110.924835 
L 109.790381 101.428378 
L 110.666882 98.803278 
L 111.071421 97.744653 
L 111.27369 99.89781 
L 111.408537 99.591145 
L 111.543383 102.412462 
L 111.610806 102.270254 
L 111.678229 102.157993 
L 111.745652 103.442932 
L 111.813076 103.315676 
L 112.891846 101.049072 
L 113.094115 104.954575 
L 113.161538 104.756164 
L 113.498654 104.022847 
L 113.566077 105.006438 
L 113.6335 104.855261 
L 113.970616 104.144865 
L 114.038039 104.69881 
L 114.105462 104.527592 
L 114.712271 102.934154 
L 114.779694 103.916196 
L 114.847117 103.746876 
L 114.981963 103.401067 
L 115.319079 107.797046 
L 115.656195 106.936862 
L 115.925887 108.636078 
L 116.060734 108.389088 
L 116.263003 112.744392 
L 116.397849 112.48579 
L 116.465272 112.784511 
L 116.532696 112.663513 
L 116.667542 112.326221 
L 116.734965 113.496063 
L 116.802388 113.353976 
L 117.072081 112.783045 
L 117.139504 113.780733 
L 117.206927 113.618895 
L 117.47662 113.070572 
L 117.611466 115.266126 
L 117.678889 115.168884 
L 117.813735 116.557475 
L 117.948582 116.321422 
L 118.420544 122.729413 
L 118.622813 122.23117 
L 118.690236 123.1304 
L 118.757659 122.965096 
L 119.162198 121.885285 
L 119.229621 123.282758 
L 119.297044 123.086829 
L 119.364468 122.913712 
L 119.63416 125.456825 
L 120.375815 123.650222 
L 120.645507 126.562029 
L 120.982623 125.725251 
L 121.050046 125.888139 
L 121.724278 124.406504 
L 121.791701 125.544842 
L 121.859124 125.378819 
L 122.668202 123.658171 
L 122.735625 124.661153 
L 122.803048 124.49289 
L 123.207587 123.598701 
L 124.084088 121.327931 
L 124.151511 121.129683 
L 124.286357 122.132266 
L 124.35378 121.983094 
L 124.960588 120.746817 
L 125.095435 120.436643 
L 125.162858 121.246789 
L 125.230281 121.102793 
L 126.71359 117.795747 
L 127.050706 116.977819 
L 127.118129 117.933516 
L 127.185552 117.771154 
L 127.724937 116.595872 
L 128.196899 115.53247 
L 128.331746 116.675388 
L 128.399169 116.580152 
L 129.27567 114.76137 
L 131.028671 111.690781 
L 131.096094 112.021564 
L 131.163518 111.888784 
L 131.500633 111.221508 
L 131.568056 111.507791 
L 131.63548 112.622866 
L 131.702903 112.503097 
L 132.309711 111.330757 
L 132.444557 112.02427 
L 133.118789 110.957733 
L 134.669521 108.721422 
L 134.87179 110.137673 
L 134.939214 110.027988 
L 135.07406 109.786265 
L 135.141483 110.296131 
L 135.208906 110.179147 
L 137.029331 107.221758 
L 137.096754 107.581147 
L 137.164177 107.481886 
L 137.366447 107.192874 
L 137.43387 107.851675 
L 137.501293 107.778477 
L 138.377794 106.519193 
L 138.51264 107.696238 
L 138.580063 107.612175 
L 138.71491 107.443246 
L 138.782333 108.066449 
L 138.849756 107.992153 
L 139.119448 107.603567 
L 139.186872 107.954971 
L 139.254295 107.863333 
L 139.928526 106.944781 
L 140.130796 106.686258 
L 140.198219 107.156296 
L 140.265642 107.05397 
L 140.602758 106.591819 
L 140.670181 106.810409 
L 140.737604 106.740037 
L 141.142143 106.328592 
L 141.209566 106.937757 
L 141.276989 106.846718 
L 141.816374 106.175845 
L 141.883797 106.835698 
L 141.95122 106.741974 
L 142.558029 106.007392 
L 142.625452 106.39418 
L 142.692875 106.315015 
L 142.895144 106.051996 
L 143.097414 106.946645 
L 143.164837 106.854827 
L 143.704222 106.23372 
L 143.771645 106.920024 
L 143.839068 106.829292 
L 144.176184 106.432572 
L 144.580723 105.968977 
L 144.715569 105.8317 
L 144.782992 106.936483 
L 144.850416 106.875707 
L 147.142802 104.198842 
L 147.345072 105.271605 
L 147.412495 105.690667 
L 147.479918 105.613691 
L 148.221573 104.828134 
L 148.288996 105.537835 
L 148.356419 105.475835 
L 149.03065 104.697736 
L 149.098074 104.929293 
L 149.165497 104.872018 
L 149.435189 104.582616 
L 149.502612 105.205594 
L 149.570036 105.131636 
L 150.176844 104.545622 
L 150.31169 104.43356 
L 150.851075 103.859292 
L 150.985922 104.511827 
L 151.053345 104.45431 
L 151.59273 103.910016 
L 152.87377 102.618294 
L 152.941193 103.068748 
L 153.008616 103.020255 
L 153.615424 102.393146 
L 153.682847 102.857102 
L 153.75027 102.800148 
L 154.289656 102.327954 
L 154.694194 101.984121 
L 154.761618 102.335504 
L 154.829041 102.250002 
L 154.963887 102.144919 
L 155.03131 102.413464 
L 155.098733 102.347023 
L 155.166156 102.270829 
L 155.23358 102.70713 
L 155.301003 102.662442 
L 155.840388 102.151349 
L 155.907811 102.783323 
L 155.975234 102.721274 
L 156.244927 102.423478 
L 156.447196 102.582172 
L 156.649466 102.375163 
L 156.716889 102.749142 
L 156.784312 102.683001 
L 156.851735 102.62184 
L 156.919158 103.060004 
L 156.986581 102.989853 
L 157.323697 102.648032 
L 157.39112 103.156604 
L 157.458543 103.086861 
L 157.795659 102.77097 
L 157.863082 103.11251 
L 157.930505 103.087496 
L 158.065352 102.94834 
L 158.132775 103.28368 
L 158.200198 103.235644 
L 158.67216 102.81208 
L 158.739583 103.403321 
L 158.807006 103.353674 
L 159.278968 102.903535 
L 159.346391 103.26893 
L 159.413814 103.200921 
L 160.088046 102.60889 
L 160.155469 102.933942 
L 160.222892 102.903237 
L 160.290315 102.837272 
L 160.357738 103.323314 
L 160.425162 103.28783 
L 161.706201 102.222388 
L 161.773624 102.150154 
L 161.908471 102.521911 
L 161.975894 102.473061 
L 162.380433 102.164442 
L 162.582702 102.657575 
L 162.717548 102.529154 
L 162.784972 102.953407 
L 162.852395 102.884091 
L 164.47055 101.551543 
L 164.537973 101.786733 
L 164.605396 101.722693 
L 165.077358 101.315431 
L 165.144782 101.890095 
L 165.212205 101.858264 
L 166.290975 100.963458 
L 166.493244 101.839257 
L 167.03263 101.321506 
L 167.100053 101.765445 
L 167.167476 101.705215 
L 167.639438 101.479288 
L 167.841707 102.010779 
L 169.122747 101.002225 
L 169.19017 101.228715 
L 169.257593 101.167252 
L 170.740902 100.249913 
L 171.617403 100.19591 
L 181.258913 100.195128 
L 369.032366 100.217756 
L 369.032366 100.217756 
" clip-path="url(#pf2ba98a4f0)" style="fill: none; stroke: #1f77b4; stroke-width: 1.8; stroke-linecap: square"/>
   </g>
   <g id="line2d_30">
    <path d="M 77.427273 36.121818 
L 77.494696 36.121818 
L 77.562119 93.258182 
L 77.629542 80.878636 
L 77.899235 57.570773 
L 77.966658 55.059823 
L 78.034081 87.240012 
L 78.101504 82.104851 
L 78.23635 74.96573 
L 78.303774 90.682511 
L 78.371197 87.272468 
L 78.708312 74.011188 
L 78.775736 91.118494 
L 78.843159 88.541962 
L 78.910582 86.708104 
L 78.978005 97.23449 
L 79.045428 94.70569 
L 79.315121 86.069428 
L 79.382544 93.63521 
L 79.449967 91.851324 
L 79.921929 82.058081 
L 79.989352 84.544648 
L 80.056775 83.381426 
L 80.259045 80.14131 
L 80.326468 86.006575 
L 80.393891 84.941711 
L 80.663584 81.067117 
L 80.731007 84.820212 
L 80.79843 83.809335 
L 80.933276 82.196768 
L 81.135546 93.619793 
L 81.202969 92.513585 
L 81.607508 87.332716 
L 81.809777 91.428877 
L 81.944623 89.664504 
L 82.012046 93.26255 
L 82.07947 92.478423 
L 82.214316 90.982401 
L 82.281739 94.718448 
L 82.349162 93.918561 
L 82.551432 91.564973 
L 82.618855 92.386726 
L 82.821124 90.367793 
L 82.888547 92.902498 
L 82.95597 92.278071 
L 83.023394 91.561287 
L 83.225663 95.885712 
L 83.360509 94.529134 
L 83.562779 97.65849 
L 83.697625 96.448885 
L 83.967318 105.1598 
L 84.371856 101.132312 
L 84.43928 103.641752 
L 84.506703 102.961706 
L 84.708972 101.147492 
L 84.776395 102.877267 
L 84.843818 102.316111 
L 85.180934 99.404318 
L 85.248357 100.884751 
L 85.31578 100.292633 
L 85.585473 98.390604 
L 85.652896 99.458749 
L 85.720319 98.999467 
L 85.990012 96.93939 
L 86.057435 98.664203 
L 86.124858 98.320271 
L 86.192281 97.823011 
L 86.461974 101.433895 
L 86.529397 105.072635 
L 86.59682 104.602572 
L 86.664243 104.193458 
L 86.731666 105.057698 
L 86.79909 104.609078 
L 86.933936 103.61195 
L 87.001359 105.398861 
L 87.068782 104.890297 
L 87.203628 103.992309 
L 87.473321 106.86743 
L 87.540744 106.446668 
L 87.608167 106.888493 
L 87.743014 105.933942 
L 87.810437 106.359196 
L 88.012706 109.753474 
L 88.080129 109.400434 
L 88.147552 111.354931 
L 88.214976 110.849201 
L 88.349822 109.991498 
L 88.484668 111.161193 
L 88.619514 110.200707 
L 88.686938 113.846711 
L 88.754361 113.349634 
L 88.821784 114.249661 
L 88.889207 113.756281 
L 88.95663 113.318638 
L 89.024053 114.785812 
L 89.091476 114.314238 
L 89.1589 113.831941 
L 89.226323 114.558159 
L 89.293746 114.145078 
L 89.900554 110.447098 
L 90.305093 117.085849 
L 90.372516 116.623197 
L 90.439939 116.23155 
L 90.642209 117.541987 
L 91.249017 114.714805 
L 91.51871 117.152994 
L 91.720979 116.04932 
L 91.855825 118.780823 
L 91.923248 118.399928 
L 92.664903 114.383972 
L 92.732326 115.13664 
L 92.799749 114.785068 
L 93.136865 113.056975 
L 93.339134 113.916853 
L 93.608827 112.593862 
L 93.67625 114.578307 
L 93.743673 114.241754 
L 93.811096 114.460882 
L 94.013366 113.453494 
L 94.215635 115.311902 
L 94.283058 114.979381 
L 94.350482 115.55467 
L 94.417905 115.265823 
L 94.485328 114.921968 
L 94.552751 115.230266 
L 94.75502 114.454619 
L 94.822444 115.02093 
L 94.889867 114.726322 
L 95.159559 113.493898 
L 95.294406 114.856455 
L 95.361829 114.541444 
L 95.429252 115.111157 
L 95.496675 114.801212 
L 96.508022 110.536709 
L 96.575445 111.445274 
L 96.642868 111.170901 
L 96.845138 110.422639 
L 96.912561 111.203456 
L 96.979984 110.92835 
L 97.182254 110.201407 
L 97.249677 111.221431 
L 97.3171 110.953951 
L 97.721639 109.528143 
L 97.789062 109.965482 
L 97.856485 109.736024 
L 98.935255 105.986239 
L 99.002678 105.751562 
L 99.070102 106.334507 
L 99.137525 106.129394 
L 99.407217 105.237845 
L 99.47464 105.51464 
L 99.542064 105.318301 
L 99.609487 105.87788 
L 99.67691 105.668837 
L 99.744333 106.011609 
L 99.811756 105.788089 
L 100.216295 104.555414 
L 100.283718 105.233743 
L 100.351141 105.013049 
L 100.688257 103.987911 
L 100.95795 105.474315 
L 101.227642 104.664995 
L 101.295065 105.452518 
L 101.362488 105.243131 
L 102.845798 101.25949 
L 104.059414 98.228476 
L 104.126837 98.669525 
L 104.19426 98.517887 
L 104.935915 96.801009 
L 105.070761 98.247421 
L 105.138184 98.08738 
L 105.744993 96.746429 
L 105.812416 97.267991 
L 105.879839 97.141019 
L 106.688917 95.425516 
L 106.75634 96.03214 
L 106.823763 95.916773 
L 107.767687 94.057377 
L 107.83511 94.394972 
L 107.902533 94.260073 
L 108.644188 93.200892 
L 108.711611 93.838896 
L 108.779034 93.727068 
L 109.183573 93.00179 
L 109.250996 93.343068 
L 109.318419 93.217828 
L 109.790381 92.371961 
L 109.857804 92.682197 
L 109.925228 92.559348 
L 109.992651 92.428518 
L 110.127497 93.246294 
L 110.464613 92.631869 
L 110.532036 93.426144 
L 110.599459 93.299979 
L 110.666882 93.521379 
L 110.734305 93.398347 
L 110.936575 93.033787 
L 111.003998 93.426864 
L 111.071421 93.312307 
L 111.206267 93.079029 
L 111.27369 93.427872 
L 111.341114 93.330839 
L 112.757 91.259482 
L 112.891846 92.423144 
L 112.959269 92.311373 
L 113.228962 91.863586 
L 113.296385 92.558612 
L 113.363808 92.462011 
L 113.566077 92.129673 
L 113.6335 92.498375 
L 113.700924 92.404067 
L 114.038039 91.899712 
L 114.105462 92.320952 
L 114.172886 92.211812 
L 114.240309 92.400979 
L 114.307732 92.290861 
L 114.510001 91.995189 
L 114.577424 92.313795 
L 114.644848 92.212259 
L 115.251656 91.311085 
L 115.319079 91.707716 
L 115.386502 91.600854 
L 115.656195 91.211732 
L 115.723618 91.394217 
L 115.791041 91.289105 
L 116.263003 90.63794 
L 116.330426 91.547509 
L 116.397849 91.443738 
L 116.734965 90.968376 
L 116.802388 91.478396 
L 116.869811 91.389785 
L 117.746312 90.175067 
L 117.813735 90.313207 
L 117.881158 90.229746 
L 118.55539 89.344269 
L 118.622813 89.711218 
L 118.690236 89.619667 
L 119.094775 89.113331 
L 119.162198 89.442474 
L 119.229621 89.352541 
L 119.431891 89.082487 
L 119.566737 89.698074 
L 119.63416 89.609642 
L 119.83643 89.340947 
L 119.971276 89.940371 
L 120.038699 89.86172 
L 120.375815 89.444409 
L 120.443238 89.794486 
L 120.510661 89.706707 
L 120.578084 89.835681 
L 120.645507 89.760324 
L 121.319739 88.943174 
L 121.387162 89.323299 
L 121.454585 89.235187 
L 121.926547 88.673855 
L 122.128816 89.600054 
L 123.27501 88.278801 
L 123.342433 88.539251 
L 123.409856 88.46171 
L 123.477279 88.382538 
L 123.544702 88.745756 
L 123.612126 88.678518 
L 123.746972 88.545484 
L 123.814395 88.871688 
L 123.881818 88.786986 
L 124.35378 88.240709 
L 124.55605 89.214762 
L 124.690896 89.060133 
L 124.825742 89.698446 
L 125.297704 89.158508 
L 125.499974 89.545336 
L 125.702243 89.321496 
L 125.769666 89.532796 
L 125.837089 89.454208 
L 126.106782 89.161774 
L 126.241628 89.851492 
L 126.376474 89.690657 
L 126.71359 89.332054 
L 126.781013 89.576092 
L 126.848436 89.514096 
L 127.118129 89.201012 
L 127.252975 89.824831 
L 127.320398 89.748176 
L 127.724937 89.327419 
L 127.79236 90.188449 
L 127.859784 90.110342 
L 127.99463 89.957417 
L 128.196899 90.413731 
L 128.264322 90.34905 
L 128.534015 90.057291 
L 128.601438 90.668385 
L 128.668861 90.594331 
L 128.803708 90.445093 
L 128.871131 90.593891 
L 128.938554 90.519463 
L 129.612785 89.791274 
L 129.680208 90.508223 
L 129.747632 90.442738 
L 130.287017 89.909479 
L 130.35444 90.221869 
L 130.421863 90.147519 
L 130.624132 89.932311 
L 130.691556 90.247567 
L 130.758979 90.178647 
L 131.230941 89.716567 
L 131.298364 90.142703 
L 131.365787 90.073861 
L 131.972595 89.463685 
L 132.040018 89.741381 
L 132.107442 89.689221 
L 132.646827 89.190446 
L 132.71425 89.331933 
L 132.781673 89.272893 
L 133.321058 88.894038 
L 133.388481 89.847403 
L 133.455904 89.782227 
L 133.590751 89.651568 
L 133.658174 89.906668 
L 133.725597 89.839376 
L 134.130136 89.456078 
L 134.197559 89.803436 
L 134.264982 89.7431 
L 134.602098 89.426642 
L 134.669521 89.633188 
L 134.736944 89.567431 
L 135.208906 89.174003 
L 135.276329 89.249751 
L 135.343752 89.569629 
L 135.411176 89.507678 
L 135.613445 89.315943 
L 135.680868 89.632364 
L 135.748291 89.568454 
L 135.815714 89.504696 
L 135.883138 89.602418 
L 135.950561 89.546252 
L 136.624792 88.969034 
L 136.692215 89.192095 
L 136.759638 89.141461 
L 136.894485 89.048517 
L 137.096754 89.578353 
L 137.703562 89.246261 
L 137.770986 89.393544 
L 137.838409 89.358602 
L 138.377794 89.094383 
L 138.445217 89.529727 
L 138.51264 89.49274 
L 138.782333 89.353229 
L 138.984602 90.389006 
L 139.052025 90.353819 
L 140.467911 89.655969 
L 140.535334 89.979585 
L 140.602758 89.949458 
L 141.748951 89.483944 
L 142.018644 89.372153 
L 142.086067 89.645811 
L 142.15349 89.619041 
L 142.423182 89.516436 
L 142.558029 89.609304 
L 142.895144 89.465107 
L 142.962568 89.637914 
L 143.029991 89.60853 
L 143.704222 89.351062 
L 143.839068 89.527021 
L 144.715569 89.303054 
L 146.266302 89.077544 
L 146.401148 89.276069 
L 146.805687 89.211094 
L 146.940533 89.409912 
L 147.614764 89.324379 
L 147.749611 89.485145 
L 149.300343 89.357341 
L 157.930505 89.380608 
L 460.525571 89.475193 
L 460.525571 89.475193 
" clip-path="url(#pf2ba98a4f0)" style="fill: none; stroke: #ff7f0e; stroke-width: 1.8; stroke-linecap: square"/>
   </g>
   <g id="line2d_31">
    <path d="M 77.427273 36.121818 
L 77.494696 186.833553 
L 77.562119 131.165254 
L 77.629542 111.747778 
L 77.831812 190.933085 
L 77.899235 202.491915 
L 77.966658 188.735885 
L 78.034081 210.019974 
L 78.101504 193.19112 
L 78.168927 218.389404 
L 78.23635 204.310279 
L 78.371197 181.672446 
L 78.506043 249.758182 
L 78.640889 225.501867 
L 78.708312 235.089175 
L 79.045428 205.618001 
L 79.112851 208.836537 
L 79.51739 190.89095 
L 79.71966 185.060474 
L 79.989352 169.804877 
L 80.056775 171.304427 
L 80.326468 158.835721 
L 80.393891 166.917999 
L 80.461314 163.960394 
L 80.663584 156.611289 
L 80.731007 158.310355 
L 81.068122 147.780252 
L 81.202969 145.269812 
L 81.674931 134.414634 
L 81.742354 145.406546 
L 81.809777 143.815793 
L 82.214316 136.84572 
L 82.281739 141.724554 
L 82.349162 140.527867 
L 82.416585 142.021113 
L 82.618855 137.609418 
L 82.686278 138.147492 
L 82.753701 143.857105 
L 82.821124 142.613302 
L 82.888547 141.380224 
L 83.090817 150.415691 
L 83.360509 145.137874 
L 83.427932 145.470696 
L 83.495356 147.982469 
L 83.562779 146.828405 
L 83.697625 150.35752 
L 83.765048 149.297635 
L 84.102164 144.04092 
L 84.169587 144.636963 
L 84.506703 139.900416 
L 84.574126 140.328613 
L 85.046088 134.272735 
L 85.180934 133.225828 
L 85.248357 135.789691 
L 85.31578 134.895069 
L 85.787742 129.377072 
L 85.855166 132.008025 
L 85.922589 131.322144 
L 85.990012 130.7494 
L 86.124858 133.42374 
L 86.327128 131.091685 
L 86.394551 132.459006 
L 86.461974 131.741633 
L 86.529397 130.956979 
L 86.59682 133.349786 
L 86.664243 133.194154 
L 86.79909 132.029286 
L 86.866513 132.848031 
L 87.001359 131.438249 
L 87.068782 132.439147 
L 87.338475 129.641548 
L 87.405898 130.651848 
L 87.473321 130.078565 
L 87.810437 126.771598 
L 87.87786 127.593018 
L 87.945283 130.048291 
L 88.012706 129.392276 
L 88.080129 129.79692 
L 88.686938 125.129583 
L 88.754361 125.667265 
L 88.95663 124.120358 
L 89.024053 127.425292 
L 89.091476 126.808625 
L 89.428592 124.298803 
L 89.496015 124.329777 
L 89.630862 127.553702 
L 89.698285 127.035635 
L 90.0354 124.682603 
L 90.23767 123.278425 
L 90.305093 124.240131 
L 90.372516 123.760079 
L 90.507362 122.778138 
L 90.642209 123.86869 
L 91.046748 121.641023 
L 91.114171 121.98548 
L 91.451286 120.238708 
L 91.586133 122.758635 
L 91.653556 122.373659 
L 91.855825 121.618051 
L 91.923248 122.442905 
L 91.990672 122.107395 
L 92.39521 120.024229 
L 92.530057 119.24362 
L 92.59748 120.437386 
L 92.664903 119.978582 
L 92.799749 119.309868 
L 92.934596 121.155463 
L 93.002019 120.759695 
L 93.069442 121.036579 
L 93.271711 119.836548 
L 93.339134 120.441057 
L 93.743673 118.36612 
L 93.811096 118.743689 
L 94.148212 117.101948 
L 94.350482 119.575295 
L 94.620174 118.281691 
L 94.687597 118.667921 
L 94.889867 117.705544 
L 95.024713 118.725479 
L 95.092136 118.395381 
L 95.159559 119.625878 
L 95.226982 119.33871 
L 95.496675 118.089741 
L 95.564098 118.961178 
L 95.631521 118.618601 
L 96.170906 116.467197 
L 96.305753 117.357018 
L 96.710292 115.474109 
L 96.777715 115.916233 
L 96.912561 115.299137 
L 96.979984 116.087079 
L 97.047407 115.883341 
L 97.11483 115.592993 
L 97.182254 115.781465 
L 97.923908 112.985617 
L 97.991331 113.678823 
L 98.058754 113.444608 
L 98.328447 112.445813 
L 98.39587 113.628912 
L 98.463293 113.385277 
L 98.59814 112.813593 
L 98.665563 113.488539 
L 98.732986 113.197519 
L 98.800409 112.932385 
L 98.935255 114.001693 
L 99.002678 113.739643 
L 99.070102 113.59069 
L 99.137525 113.748293 
L 99.272371 113.188841 
L 99.339794 114.455743 
L 99.407217 114.220485 
L 99.47464 113.969987 
L 99.542064 114.620555 
L 99.609487 114.360405 
L 99.67691 114.095369 
L 99.744333 115.042 
L 99.811756 114.769575 
L 99.879179 114.515468 
L 99.946602 115.573216 
L 100.014026 115.410664 
L 100.688257 112.916054 
L 100.75568 113.682947 
L 100.823103 113.414968 
L 101.025373 112.899845 
L 101.092796 113.122522 
L 101.227642 112.683893 
L 101.295065 113.7313 
L 101.362488 113.535918 
L 101.699604 112.514227 
L 101.767027 112.957664 
L 101.83445 112.773732 
L 102.104143 111.87869 
L 102.171566 112.403969 
L 102.238989 112.181091 
L 102.778374 110.732747 
L 102.845798 111.796167 
L 102.913221 111.642301 
L 103.587452 109.599592 
L 103.722298 110.226676 
L 103.789722 110.097011 
L 104.19426 109.349081 
L 104.261684 109.46975 
L 104.531376 108.76132 
L 104.598799 109.154899 
L 104.666222 109.008307 
L 104.801069 108.689368 
L 104.868492 109.425209 
L 104.935915 109.229238 
L 106.014685 106.549807 
L 106.486647 105.354253 
L 106.55407 106.177589 
L 106.621494 105.996595 
L 106.688917 105.881699 
L 106.75634 106.307047 
L 106.823763 106.124573 
L 106.958609 105.800279 
L 107.026032 106.04607 
L 107.093456 105.914855 
L 107.160879 105.726679 
L 107.228302 106.456388 
L 107.295725 106.298752 
L 107.363148 106.473285 
L 107.497994 106.14043 
L 107.565418 106.749141 
L 107.632841 106.601542 
L 108.374495 104.917067 
L 108.509342 105.422398 
L 108.576765 105.275677 
L 109.048727 104.315069 
L 109.11615 104.545763 
L 109.385842 103.97941 
L 109.453266 104.445953 
L 109.520689 104.35371 
L 109.925228 103.470148 
L 110.329766 102.666271 
L 110.39719 102.780521 
L 111.206267 101.262675 
L 111.47596 103.424372 
L 111.543383 103.292301 
L 112.217614 102.141116 
L 112.352461 101.864736 
L 112.419884 102.289855 
L 112.487307 102.17948 
L 112.824423 101.556261 
L 112.959269 102.385992 
L 113.026692 102.268403 
L 113.296385 101.781468 
L 113.363808 102.405474 
L 113.431231 102.282222 
L 113.83577 101.540367 
L 113.903193 102.345234 
L 113.970616 102.20861 
L 114.240309 101.755377 
L 114.307732 102.165149 
L 114.375155 102.02533 
L 114.510001 101.782483 
L 114.577424 102.788433 
L 114.644848 102.648352 
L 115.251656 101.63663 
L 115.925887 100.490823 
L 115.99331 101.295728 
L 116.060734 101.18432 
L 116.667542 100.224733 
L 116.734965 100.674478 
L 116.802388 100.550666 
L 116.869811 100.609383 
L 117.139504 100.142149 
L 117.341773 101.373631 
L 117.678889 100.853342 
L 117.881158 102.528762 
L 118.150851 102.080981 
L 118.218274 102.665692 
L 118.285697 102.556601 
L 118.690236 101.912503 
L 118.757659 102.260368 
L 118.825082 102.138263 
L 118.892506 102.164053 
L 119.094775 101.817218 
L 119.162198 102.052648 
L 119.229621 101.958916 
L 119.297044 102.966679 
L 119.364468 102.841932 
L 121.050046 100.586257 
L 121.117469 101.319569 
L 121.184892 101.212607 
L 121.252316 101.510925 
L 121.319739 101.396992 
L 121.387162 101.583026 
L 121.454585 101.467943 
L 121.791701 100.993675 
L 121.859124 101.062988 
L 121.926547 101.546121 
L 121.99397 101.433836 
L 122.061393 101.353672 
L 122.128816 101.70581 
L 122.19624 101.593743 
L 122.735625 100.946588 
L 122.803048 101.469272 
L 122.870471 101.370145 
L 123.409856 100.687247 
L 124.488626 99.339731 
L 124.758319 99.090592 
L 125.162858 98.627936 
L 125.230281 99.073694 
L 125.297704 99.002618 
L 125.904512 98.414774 
L 125.971936 98.744846 
L 126.039359 98.65183 
L 126.174205 98.500659 
L 126.309051 99.054157 
L 127.724937 97.573411 
L 127.79236 98.0422 
L 127.859784 97.954243 
L 127.927207 98.162625 
L 127.99463 98.08176 
L 128.399169 97.679423 
L 128.534015 98.003396 
L 128.601438 97.933955 
L 129.005977 97.506873 
L 129.0734 97.672805 
L 129.140823 97.582745 
L 129.612785 97.101611 
L 129.680208 97.58765 
L 129.747632 97.525668 
L 130.35444 96.907138 
L 131.163518 96.086524 
L 131.230941 96.516517 
L 131.298364 96.445291 
L 131.568056 96.16847 
L 131.63548 96.441195 
L 131.702903 96.377997 
L 131.770326 96.303188 
L 131.837749 96.809413 
L 131.905172 96.764294 
L 131.972595 96.686032 
L 132.040018 96.964902 
L 132.107442 96.914439 
L 132.174865 96.853352 
L 132.242288 97.214325 
L 132.309711 97.14449 
L 133.927866 95.805769 
L 133.99529 96.04754 
L 134.062713 95.985952 
L 134.467252 95.596787 
L 134.534675 95.737858 
L 134.602098 95.681151 
L 135.343752 95.000078 
L 135.411176 95.334884 
L 135.478599 95.279305 
L 135.546022 95.225809 
L 135.613445 95.399042 
L 135.680868 95.355435 
L 136.3551 94.819597 
L 136.759638 94.552406 
L 136.894485 94.952227 
L 136.961908 94.900912 
L 137.029331 95.217481 
L 137.096754 95.162155 
L 137.568716 94.798821 
L 137.703562 95.302924 
L 138.580063 94.648546 
L 139.658834 93.929226 
L 139.726257 94.167099 
L 139.79368 94.123727 
L 140.063372 93.950883 
L 140.265642 94.515972 
L 140.805027 94.18175 
L 140.939873 94.422766 
L 141.007296 94.366986 
L 141.07472 94.627463 
L 141.142143 94.581649 
L 141.681528 94.31552 
L 141.748951 94.584485 
L 141.816374 94.540791 
L 141.95122 94.514151 
L 142.15349 94.418076 
L 142.220913 94.629019 
L 142.288336 94.590013 
L 142.558029 94.439016 
L 142.692875 95.049272 
L 142.760298 95.026527 
L 142.827721 94.972917 
L 142.895144 95.197294 
L 142.962568 95.150889 
L 143.636799 94.939307 
L 143.704222 95.186058 
L 143.771645 95.154437 
L 143.906492 95.089495 
L 143.973915 95.231926 
L 144.041338 95.198546 
L 144.715569 94.940907 
L 144.782992 95.229192 
L 144.850416 95.202274 
L 146.131455 94.699859 
L 146.266302 94.823604 
L 146.401148 94.775972 
L 146.468571 95.178141 
L 146.535994 95.146228 
L 146.67084 95.093116 
L 146.738264 95.34703 
L 146.805687 95.323959 
L 146.87311 95.296474 
L 146.940533 95.523869 
L 147.007956 95.487437 
L 149.772305 94.580618 
L 150.783652 94.337083 
L 150.985922 94.649633 
L 153.413155 94.106616 
L 153.548001 94.218875 
L 155.098733 93.904406 
L 155.166156 93.899402 
L 155.301003 94.094104 
L 157.728236 93.696254 
L 157.863082 93.834685 
L 158.132775 93.798343 
L 158.267621 93.919886 
L 159.346391 93.785404 
L 159.481238 93.904986 
L 162.043317 93.578657 
L 163.256934 93.498757 
L 165.819013 93.266583 
L 177.011255 92.708898 
L 180.98922 92.600081 
L 187.394419 92.484627 
L 286.573862 92.572484 
L 286.910978 92.598364 
L 301.946339 92.673642 
L 302.148608 92.725394 
L 366.402863 92.803017 
L 366.605133 92.853973 
L 369.706597 92.957453 
L 370.043713 92.983321 
L 378.269336 93.032682 
L 378.471606 93.110275 
L 389.461578 93.213721 
L 389.663847 93.291299 
L 392.630466 93.36887 
L 392.832735 93.446434 
L 401.395474 93.523992 
L 401.597744 93.601544 
L 407.328711 93.702536 
L 407.665827 93.728382 
L 411.576369 93.728382 
L 411.576369 93.728382 
" clip-path="url(#pf2ba98a4f0)" style="fill: none; stroke: #2ca02c; stroke-width: 1.8; stroke-linecap: square"/>
   </g>
   <g id="line2d_32">
    <path d="M 77.427273 36.121818 
L 78.23635 36.121818 
L 78.303774 67.892408 
L 78.371197 65.774369 
L 78.843159 56.419695 
L 78.910582 55.546115 
L 78.978005 81.514916 
L 79.045428 80.570912 
L 79.112851 90.076651 
L 79.180274 88.16463 
L 79.652236 78.21287 
L 80.124198 71.602874 
L 80.461314 67.514376 
L 80.528737 72.838868 
L 80.59616 71.998201 
L 81.337815 65.131639 
L 82.888547 57.006493 
L 83.562779 54.64849 
L 83.765048 63.303323 
L 83.899894 62.788033 
L 84.506703 60.528577 
L 85.31578 58.052069 
L 85.787742 56.878968 
L 85.855166 58.825965 
L 85.922589 58.691018 
L 87.540744 55.0612 
L 88.282399 53.798095 
L 88.552091 53.359217 
L 88.619514 56.980875 
L 88.686938 56.833899 
L 88.821784 56.595959 
L 88.889207 59.419179 
L 88.95663 59.312769 
L 89.428592 58.364574 
L 89.496015 60.732408 
L 89.563438 60.602581 
L 89.833131 60.001178 
L 89.900554 62.100552 
L 89.967977 61.985215 
L 90.642209 60.738493 
L 90.709632 65.082903 
L 90.777055 64.932671 
L 91.788402 62.916243 
L 91.855825 65.41599 
L 91.923248 65.28426 
L 94.148212 61.459233 
L 95.294406 59.843923 
L 96.103483 58.789695 
L 96.170906 61.660407 
L 96.23833 61.556426 
L 96.912561 60.630035 
L 101.362488 56.156229 
L 101.767027 55.820714 
L 101.83445 56.025218 
L 101.901874 57.018994 
L 101.969297 56.947486 
L 103.11549 56.017866 
L 103.182913 57.196141 
L 103.250336 57.129351 
L 103.789722 56.684717 
L 103.857145 58.05125 
L 103.924568 57.994728 
L 105.67757 56.640542 
L 107.565418 55.363277 
L 108.03738 55.03388 
L 108.104803 55.641349 
L 108.172226 55.601309 
L 109.048727 55.077352 
L 111.813076 53.523918 
L 111.880499 54.978494 
L 111.947922 54.937327 
L 112.824423 54.431375 
L 112.891846 55.678851 
L 112.959269 55.639166 
L 113.566077 55.291842 
L 113.6335 55.968503 
L 113.700924 55.938086 
L 116.330426 54.60511 
L 116.397849 55.485288 
L 116.465272 55.445457 
L 117.47662 54.937345 
L 117.544043 55.645592 
L 117.611466 55.616603 
L 118.420544 55.252233 
L 118.892506 55.068035 
L 119.364468 54.885963 
L 119.431891 55.515653 
L 119.499314 55.488021 
L 121.387162 54.633991 
L 121.454585 55.411224 
L 121.522008 55.377372 
L 123.140164 54.710132 
L 123.342433 54.629861 
L 123.409856 55.549278 
L 123.477279 55.520961 
L 126.443898 54.308871 
L 126.511321 55.934748 
L 126.578744 55.906503 
L 126.646167 55.875858 
L 126.71359 56.526809 
L 126.781013 56.50168 
L 126.91586 56.441028 
L 126.983283 57.366386 
L 127.050706 57.332009 
L 128.803708 56.62547 
L 128.871131 57.293275 
L 128.938554 57.264475 
L 130.15217 56.789025 
L 130.219594 57.329674 
L 130.287017 57.304019 
L 130.624132 57.173815 
L 130.691556 58.040129 
L 130.758979 58.014688 
L 131.702903 57.696656 
L 131.770326 58.178746 
L 131.837749 58.156513 
L 133.253635 57.683685 
L 133.455904 57.89956 
L 136.220253 57.089318 
L 139.052025 56.447107 
L 139.119448 57.062893 
L 139.186872 57.043708 
L 139.861103 56.893266 
L 139.928526 57.272314 
L 139.995949 57.253471 
L 140.670181 57.115351 
L 140.805027 57.544364 
L 143.23226 57.041526 
L 143.299683 57.441306 
L 143.367106 57.427522 
L 145.457224 57.047652 
L 145.59207 57.277533 
L 146.468571 57.140425 
L 146.603417 57.306914 
L 147.547341 57.153416 
L 147.614764 57.448588 
L 147.682188 57.432542 
L 148.760958 57.270371 
L 148.895804 57.494804 
L 150.648806 57.217224 
L 150.716229 57.773935 
L 150.783652 57.760384 
L 151.59273 57.638515 
L 151.727576 57.734685 
L 152.132115 57.667046 
L 152.266961 57.826184 
L 153.008616 57.699596 
L 153.210885 58.169512 
L 153.413155 58.145145 
L 153.548001 58.297295 
L 154.829041 58.101159 
L 154.963887 58.521734 
L 155.368426 58.469471 
L 155.503272 58.683157 
L 157.054004 58.476061 
L 158.67216 58.295141 
L 160.492585 58.115178 
L 161.099393 58.064342 
L 161.234239 58.249968 
L 161.571355 58.240114 
L 163.324357 58.082371 
L 163.459203 58.375817 
L 163.661472 58.355078 
L 163.796319 58.591735 
L 165.347051 58.452653 
L 165.481897 58.688607 
L 165.953859 58.653112 
L 166.088706 58.91445 
L 167.100053 58.829638 
L 167.234899 59.063487 
L 168.987901 58.919787 
L 169.122747 59.069591 
L 169.39244 59.040506 
L 169.527286 59.165603 
L 169.999248 59.122387 
L 170.134094 59.352802 
L 170.538633 59.32447 
L 170.673479 59.558978 
L 171.482557 59.494705 
L 171.617403 59.697292 
L 172.089365 59.650425 
L 172.224212 59.79867 
L 173.100712 59.714562 
L 173.235559 60.050908 
L 173.572674 60.014362 
L 173.707521 60.186982 
L 174.179483 60.249483 
L 174.314329 60.532095 
L 174.584022 60.500424 
L 174.853714 60.790229 
L 175.055984 60.775802 
L 175.258253 61.266848 
L 175.797638 61.223532 
L 175.932484 61.399528 
L 176.202177 61.377784 
L 176.337023 61.525832 
L 178.292294 61.356453 
L 178.427141 61.526721 
L 178.62941 61.509943 
L 178.764256 61.6581 
L 178.899103 61.643709 
L 179.033949 61.86649 
L 179.438488 61.838228 
L 179.573334 62.040266 
L 179.775604 62.023921 
L 179.91045 62.268964 
L 181.056643 62.195736 
L 181.19149 62.315309 
L 181.326336 62.303153 
L 181.528605 62.677388 
L 181.933144 62.650973 
L 182.202837 63.093876 
L 182.674799 63.056112 
L 182.809645 63.226839 
L 182.944491 63.213955 
L 183.079338 63.387419 
L 184.023262 63.433001 
L 184.158108 63.6015 
L 185.034609 63.54654 
L 185.169455 63.671307 
L 185.573994 63.646762 
L 185.70884 63.765035 
L 186.450495 63.728528 
L 186.585341 63.873524 
L 186.787611 63.86194 
L 186.922457 64.087621 
L 188.405766 64.001671 
L 188.540612 64.225439 
L 189.012574 64.199069 
L 189.147421 64.318557 
L 190.091345 64.26877 
L 190.226191 64.461904 
L 190.495883 64.446755 
L 190.63073 64.669063 
L 191.170115 64.744035 
L 191.304961 64.838391 
L 192.923117 64.885381 
L 193.057963 65.101585 
L 193.327655 65.194734 
L 193.462502 65.416856 
L 193.867041 65.394678 
L 194.001887 65.615743 
L 194.271579 65.602825 
L 194.406426 65.821309 
L 195.080657 65.785494 
L 195.215503 66.00753 
L 195.282927 66.003571 
L 195.417773 66.19649 
L 196.361697 66.145996 
L 196.631389 66.635008 
L 197.238198 66.677933 
L 197.373044 66.79601 
L 198.047275 66.760436 
L 198.182122 66.981036 
L 199.126046 67.028784 
L 199.260892 67.143509 
L 199.8677 67.113355 
L 200.002547 67.27827 
L 200.407085 67.258645 
L 200.541932 67.377118 
L 201.351009 67.380697 
L 201.485856 67.550004 
L 203.575973 67.565658 
L 203.710819 67.686301 
L 205.059282 67.621764 
L 205.261552 67.835021 
L 206.138053 67.846554 
L 206.272899 67.965047 
L 207.1494 67.927834 
L 207.351669 68.217548 
L 207.419092 68.215048 
L 207.553939 68.408363 
L 208.430439 68.365681 
L 208.565286 68.462188 
L 208.632709 68.459255 
L 208.767555 68.575964 
L 209.846325 68.614747 
L 210.048595 68.682421 
L 210.183441 68.673584 
L 210.385711 68.982712 
L 211.734173 68.907737 
L 211.86902 69.046753 
L 214.633369 69.010849 
L 214.768215 69.149653 
L 215.577293 69.108599 
L 215.712139 69.24844 
L 217.465141 69.277014 
L 217.599987 69.418513 
L 217.869679 69.405334 
L 218.004526 69.521393 
L 218.476488 69.500088 
L 218.611334 69.637507 
L 219.285565 69.606332 
L 219.420412 69.744411 
L 220.229489 69.709753 
L 220.499182 69.91525 
L 220.903721 69.966923 
L 221.038567 70.084526 
L 223.061261 70.094822 
L 223.263531 70.13699 
L 227.983151 69.978203 
L 228.117997 70.119545 
L 231.691424 70.10321 
L 231.82627 70.197243 
L 232.298232 70.259807 
L 232.567925 70.424921 
L 232.90504 70.418446 
L 233.039887 70.536959 
L 234.118657 70.585945 
L 234.253503 70.67894 
L 235.46712 70.727792 
L 235.601966 70.846105 
L 237.557237 70.921562 
L 237.759507 70.992448 
L 239.242816 71.012126 
L 239.445085 71.054962 
L 241.467779 71.112536 
L 244.70409 71.124981 
L 244.838937 71.240904 
L 247.468439 71.211376 
L 247.738132 71.374086 
L 254.480446 71.434549 
L 254.682715 71.526465 
L 257.312218 71.563654 
L 257.514487 71.65546 
L 260.413683 71.721596 
L 260.615952 71.812858 
L 261.559876 71.849834 
L 261.762145 71.918577 
L 262.638646 72.002651 
L 262.840916 72.094702 
L 263.043185 72.161607 
L 264.998456 72.241979 
L 265.402995 72.264413 
L 266.212073 72.355034 
L 266.414342 72.425009 
L 268.234767 72.488219 
L 268.437037 72.558171 
L 270.86427 72.64012 
L 271.133962 72.803256 
L 273.089233 72.839856 
L 273.291503 72.932579 
L 275.58389 73.016611 
L 275.921005 73.225236 
L 276.392967 73.316968 
L 276.595237 73.385411 
L 276.999776 73.428725 
L 277.202045 73.498535 
L 277.471738 73.566949 
L 277.674007 73.660009 
L 278.685354 73.700493 
L 278.955047 73.840037 
L 280.033817 73.925108 
L 280.236087 73.994383 
L 280.775472 74.063182 
L 281.112587 74.131502 
L 281.314857 74.29418 
L 282.326204 74.333098 
L 282.528473 74.495708 
L 284.348898 74.55969 
L 284.551168 74.629357 
L 285.157976 74.696158 
L 285.427669 74.834977 
L 287.315517 74.926391 
L 287.517786 75.01875 
L 288.798826 75.110616 
L 289.001095 75.27304 
L 290.416981 75.342158 
L 290.619251 75.434952 
L 296.61991 75.502596 
L 348.805423 75.595369 
L 349.007692 75.641752 
L 349.277385 75.711322 
L 349.479654 75.780887 
L 351.165233 75.873633 
L 351.367502 75.966369 
L 353.322773 76.035915 
L 353.592466 76.221347 
L 353.997005 76.244523 
L 354.199274 76.337223 
L 354.806083 76.406742 
L 355.008352 76.453085 
L 358.109817 76.540278 
L 358.312086 76.609772 
L 358.514355 76.679261 
L 358.716625 76.771905 
L 360.671896 76.862027 
L 361.009012 77.000954 
L 362.020359 77.045744 
L 362.222628 77.115194 
L 362.492321 77.207785 
L 362.69459 77.300368 
L 363.099129 77.392941 
L 363.301399 77.485505 
L 368.425557 77.57806 
L 368.627827 77.670606 
L 373.954255 77.75955 
L 374.156525 77.85207 
L 382.314725 77.918878 
L 382.516994 78.011376 
L 384.202573 78.080744 
L 384.404842 78.148553 
L 386.697229 78.217908 
L 386.899499 78.310374 
L 388.180538 78.379717 
L 388.382808 78.449055 
L 392.360773 78.539407 
L 392.563043 78.608729 
L 394.585737 78.678047 
L 394.788006 78.724256 
L 396.271315 78.793565 
L 396.473585 78.862869 
L 399.844742 78.954211 
L 400.047011 79.000405 
L 402.069706 79.092257 
L 402.271975 79.138443 
L 405.508286 79.229217 
L 405.710555 79.298484 
L 406.856749 79.390831 
L 407.059018 79.506252 
L 410.227906 79.572289 
L 410.430175 79.641524 
L 412.857409 79.710755 
L 413.059678 79.803055 
L 420.139108 79.872274 
L 420.341377 79.941487 
L 423.105726 79.986007 
L 423.307996 80.05521 
L 427.353384 80.098095 
L 427.555654 80.190346 
L 430.522272 80.21178 
L 430.522272 80.21178 
" clip-path="url(#pf2ba98a4f0)" style="fill: none; stroke: #d62728; stroke-width: 1.8; stroke-linecap: square"/>
   </g>
   <g id="line2d_33">
    <path d="M 77.427273 36.121818 
L 77.629542 36.121818 
L 77.696965 103.153919 
L 77.764388 94.933001 
L 77.966658 74.250169 
L 78.034081 104.159858 
L 78.101504 97.92093 
L 78.168927 91.969392 
L 78.23635 111.65516 
L 78.303774 105.540557 
L 78.775736 81.366806 
L 78.978005 77.934338 
L 79.112851 84.099541 
L 79.652236 72.450404 
L 80.191622 65.175883 
L 80.865853 59.553889 
L 81.405238 56.484338 
L 82.349162 52.535898 
L 83.427932 49.643243 
L 84.23701 48.083338 
L 86.394551 45.22984 
L 88.080129 43.838245 
L 90.102824 42.651466 
L 91.653556 41.945687 
L 93.67625 41.225451 
L 96.912561 40.373978 
L 101.497335 39.578691 
L 105.67757 39.066927 
L 111.138844 38.585026 
L 118.959929 38.12331 
L 137.164177 37.513435 
L 148.221573 37.362857 
L 155.975234 37.418113 
L 161.369086 37.491436 
L 161.571355 37.564753 
L 165.481897 37.638026 
L 165.684167 37.71133 
L 167.639438 37.784586 
L 167.841707 37.833447 
L 168.920478 37.931162 
L 169.257593 37.955519 
L 169.864402 38.00437 
L 170.066671 38.077642 
L 171.887096 38.175302 
L 172.156788 38.370642 
L 174.718868 38.468118 
L 174.853714 38.590164 
L 176.47187 38.638946 
L 176.674139 38.712162 
L 178.696833 38.785371 
L 178.899103 38.858576 
L 186.383072 38.95592 
L 186.652764 39.126675 
L 187.529265 39.199847 
L 187.731535 39.273013 
L 189.214844 39.2974 
L 189.417113 39.443712 
L 192.586001 39.54124 
L 192.78827 39.638759 
L 195.080657 39.736176 
L 195.282927 39.931158 
L 198.182122 40.004267 
L 198.316968 40.126101 
L 203.575973 40.223297 
L 203.778243 40.296378 
L 205.126705 40.345096 
L 205.261552 40.46688 
L 206.94713 40.515589 
L 207.081977 40.637351 
L 211.531904 40.734749 
L 211.66675 40.856483 
L 213.891714 40.929332 
L 214.093983 40.978016 
L 216.521217 41.075376 
L 216.723486 41.221397 
L 218.94845 41.318468 
L 219.150719 41.488772 
L 220.971144 41.537425 
L 221.173413 41.634723 
L 224.881686 41.683368 
L 225.151379 41.829289 
L 228.522536 41.901654 
L 228.724805 41.998905 
L 231.084615 42.047527 
L 231.286885 42.120455 
L 233.781541 42.217683 
L 233.983811 42.290599 
L 236.006505 42.363508 
L 236.208774 42.436412 
L 236.478467 42.485012 
L 236.680736 42.582204 
L 238.636007 42.654925 
L 238.838277 42.703512 
L 239.579931 42.752097 
L 239.782201 42.824969 
L 240.726125 42.824969 
L 240.860971 42.946411 
L 248.749479 43.043378 
L 248.951748 43.140508 
L 251.648674 43.237447 
L 251.850943 43.286002 
L 252.862291 43.35883 
L 253.06456 43.455926 
L 259.874297 43.552728 
L 260.076567 43.601266 
L 265.133303 43.69814 
L 265.335572 43.770932 
L 268.369613 43.86798 
L 268.571883 43.940759 
L 275.718736 44.013532 
L 275.921005 44.110555 
L 280.977741 44.20726 
L 281.314857 44.231511 
L 287.450363 44.328508 
L 287.652632 44.377003 
L 292.709368 44.473137 
L 293.046484 44.497378 
L 293.518446 44.497378 
L 293.653292 44.618577 
L 301.676646 44.713998 
L 301.878915 44.786689 
L 307.34019 44.857934 
L 307.542459 44.954824 
L 308.216691 45.002928 
L 308.41896 45.099799 
L 312.05981 45.172447 
L 312.262079 45.269301 
L 316.644584 45.316792 
L 316.846853 45.413622 
L 319.071817 45.486238 
L 319.274086 45.583051 
L 323.791437 45.582811 
L 323.926283 45.70381 
L 325.207323 45.776402 
L 325.409592 45.848988 
L 327.230017 45.945762 
L 327.432287 46.018336 
L 328.848173 46.01821 
L 328.983019 46.139153 
L 330.736021 46.235511 
L 330.93829 46.308059 
L 334.781409 46.402566 
L 335.118525 46.42674 
L 336.93895 46.42674 
L 337.073796 46.5476 
L 339.163913 46.619576 
L 339.366183 46.66791 
L 342.197955 46.763086 
L 342.400224 46.811406 
L 343.478995 46.811 
L 343.613841 46.931783 
L 346.041074 47.028399 
L 346.243343 47.076703 
L 348.266038 47.125005 
L 348.468307 47.197453 
L 354.671236 47.269049 
L 354.873506 47.317337 
L 355.210621 47.413906 
L 355.345468 47.534604 
L 359.997665 47.607015 
L 360.199934 47.703409 
L 361.683243 47.799938 
L 361.885513 47.872328 
L 362.155205 47.96884 
L 362.492321 47.992966 
L 363.908207 48.065342 
L 364.110476 48.113589 
L 364.582438 48.185956 
L 364.784708 48.258317 
L 369.504328 48.354325 
L 369.706597 48.426671 
L 372.605792 48.474742 
L 372.808062 48.547077 
L 373.41487 48.595298 
L 373.617139 48.691731 
L 373.684563 48.691731 
L 373.819409 48.81226 
L 378.336759 48.907378 
L 378.539029 49.00377 
L 380.4943 49.100153 
L 380.696569 49.196526 
L 384.741958 49.292556 
L 384.944227 49.36482 
L 386.899499 49.388907 
L 387.101768 49.485248 
L 389.866117 49.556818 
L 390.068386 49.604979 
L 391.956234 49.677216 
L 392.158504 49.773523 
L 399.237934 49.844879 
L 399.440203 49.917093 
L 400.45155 49.989302 
L 400.65382 50.061505 
L 401.73259 50.157767 
L 402.137129 50.325843 
L 402.474245 50.398019 
L 402.676514 50.446133 
L 403.553015 50.518299 
L 403.755284 50.59046 
L 405.440863 50.686667 
L 405.777979 50.710717 
L 406.991595 50.80654 
L 407.193865 50.854632 
L 412.183177 50.95006 
L 412.520293 50.974101 
L 417.779298 51.021242 
L 417.981567 51.093354 
L 418.183837 51.141427 
L 422.566341 51.212196 
L 422.768611 51.308318 
L 423.307996 51.380402 
L 423.510265 51.452482 
L 423.779958 51.524555 
L 423.982227 51.572601 
L 425.600383 51.620645 
L 425.802652 51.692706 
L 428.432155 51.739758 
L 428.634424 51.83582 
L 430.657118 51.88325 
L 430.859388 51.979294 
L 431.061657 52.027312 
L 432.342697 52.099335 
L 432.544966 52.171353 
L 439.287281 52.263294 
L 439.48955 52.310673 
L 442.119053 52.31006 
L 442.253899 52.43002 
L 444.141747 52.525563 
L 444.344016 52.573536 
L 446.231864 52.669476 
L 446.636403 52.717442 
L 448.456828 52.813368 
L 449.13106 52.957238 
L 456.547605 53.052285 
L 456.749875 53.124201 
L 459.64907 53.220081 
L 459.851339 53.266504 
L 466.52623 53.33818 
L 466.7285 53.386105 
L 469.08831 53.43381 
L 469.290579 53.505689 
L 470.908735 53.50547 
L 471.043581 53.625254 
L 474.549584 53.695567 
L 474.751854 53.767419 
L 485.876672 53.863213 
L 486.078942 53.958997 
L 489.854638 54.030829 
L 490.056907 54.078035 
L 492.48414 54.149856 
L 492.68641 54.22167 
L 502.934728 54.315581 
L 503.069574 54.435236 
L 504.28319 54.483094 
L 504.418037 54.602728 
L 505.7665 54.602263 
L 505.901346 54.721879 
L 509.339926 54.816619 
L 509.811888 55.031857 
L 510.014158 55.05577 
L 510.216427 55.151413 
L 512.64366 55.247047 
L 512.84593 55.342671 
L 514.396662 55.437313 
L 514.598931 55.532913 
L 520.127629 55.627522 
L 520.329898 55.723098 
L 522.28517 55.818664 
L 522.487439 55.890333 
L 528.488099 55.985633 
L 528.690368 56.081171 
L 528.892638 56.152819 
L 531.791833 56.224462 
L 531.926679 56.343854 
L 536.646299 56.438334 
L 536.848568 56.48608 
L 540.624264 56.580791 
L 540.826534 56.628528 
L 541.972727 56.628528 
L 541.972727 56.628528 
" clip-path="url(#pf2ba98a4f0)" style="fill: none; stroke: #9467bd; stroke-width: 1.8; stroke-linecap: square"/>
   </g>
   <g id="patch_3">
    <path d="M 54.2 260.44 
L 54.2 25.44 
" style="fill: none; stroke: #000000; stroke-width: 0.8; stroke-linejoin: miter; stroke-linecap: square"/>
   </g>
   <g id="patch_4">
    <path d="M 565.2 260.44 
L 565.2 25.44 
" style="fill: none; stroke: #000000; stroke-width: 0.8; stroke-linejoin: miter; stroke-linecap: square"/>
   </g>
   <g id="patch_5">
    <path d="M 54.2 260.44 
L 565.2 260.44 
" style="fill: none; stroke: #000000; stroke-width: 0.8; stroke-linejoin: miter; stroke-linecap: square"/>
   </g>
   <g id="patch_6">
    <path d="M 54.2 25.44 
L 565.2 25.44 
" style="fill: none; stroke: #000000; stroke-width: 0.8; stroke-linejoin: miter; stroke-linecap: square"/>
   </g>
   <g id="text_17">
    <!-- Timely Transfer Rate (Cumulative) -->
    <g transform="translate(207.277187 19.44) scale(0.12 -0.12)">
     <defs>
      <path id="DejaVuSans-54" d="M -19 4666 
L 3928 4666 
L 3928 4134 
L 2272 4134 
L 2272 0 
L 1638 0 
L 1638 4134 
L -19 4134 
L -19 4666 
z
" transform="scale(0.015625)"/>
      <path id="DejaVuSans-52" d="M 2841 2188 
Q 3044 2119 3236 1894 
Q 3428 1669 3622 1275 
L 4263 0 
L 3584 0 
L 2988 1197 
Q 2756 1666 2539 1819 
Q 2322 1972 1947 1972 
L 1259 1972 
L 1259 0 
L 628 0 
L 628 4666 
L 2053 4666 
Q 2853 4666 3247 4331 
Q 3641 3997 3641 3322 
Q 3641 2881 3436 2590 
Q 3231 2300 2841 2188 
z
M 1259 4147 
L 1259 2491 
L 2053 2491 
Q 2509 2491 2742 2702 
Q 2975 2913 2975 3322 
Q 2975 3731 2742 3939 
Q 2509 4147 2053 4147 
L 1259 4147 
z
" transform="scale(0.015625)"/>
      <path id="DejaVuSans-28" d="M 1984 4856 
Q 1566 4138 1362 3434 
Q 1159 2731 1159 2009 
Q 1159 1288 1364 580 
Q 1569 -128 1984 -844 
L 1484 -844 
Q 1016 -109 783 600 
Q 550 1309 550 2009 
Q 550 2706 781 3412 
Q 1013 4119 1484 4856 
L 1984 4856 
z
" transform="scale(0.015625)"/>
      <path id="DejaVuSans-43" d="M 4122 4306 
L 4122 3641 
Q 3803 3938 3442 4084 
Q 3081 4231 2675 4231 
Q 1875 4231 1450 3742 
Q 1025 3253 1025 2328 
Q 1025 1406 1450 917 
Q 1875 428 2675 428 
Q 3081 428 3442 575 
Q 3803 722 4122 1019 
L 4122 359 
Q 3791 134 3420 21 
Q 3050 -91 2638 -91 
Q 1578 -91 968 557 
Q 359 1206 359 2328 
Q 359 3453 968 4101 
Q 1578 4750 2638 4750 
Q 3056 4750 3426 4639 
Q 3797 4528 4122 4306 
z
" transform="scale(0.015625)"/>
      <path id="DejaVuSans-29" d="M 513 4856 
L 1013 4856 
Q 1481 4119 1714 3412 
Q 1947 2706 1947 2009 
Q 1947 1309 1714 600 
Q 1481 -109 1013 -844 
L 513 -844 
Q 928 -128 1133 580 
Q 1338 1288 1338 2009 
Q 1338 2731 1133 3434 
Q 928 4138 513 4856 
z
" transform="scale(0.015625)"/>
     </defs>
     <use xlink:href="#DejaVuSans-54"/>
     <use xlink:href="#DejaVuSans-69" x="57.958984"/>
     <use xlink:href="#DejaVuSans-6d" x="85.742188"/>
     <use xlink:href="#DejaVuSans-65" x="183.154297"/>
     <use xlink:href="#DejaVuSans-6c" x="244.677734"/>
     <use xlink:href="#DejaVuSans-79" x="272.460938"/>
     <use xlink:href="#DejaVuSans-20" x="331.640625"/>
     <use xlink:href="#DejaVuSans-54" x="363.427734"/>
     <use xlink:href="#DejaVuSans-72" x="409.761719"/>
     <use xlink:href="#DejaVuSans-61" x="450.875"/>
     <use xlink:href="#DejaVuSans-6e" x="512.154297"/>
     <use xlink:href="#DejaVuSans-73" x="575.533203"/>
     <use xlink:href="#DejaVuSans-66" x="627.632812"/>
     <use xlink:href="#DejaVuSans-65" x="662.837891"/>
     <use xlink:href="#DejaVuSans-72" x="724.361328"/>
     <use xlink:href="#DejaVuSans-20" x="765.474609"/>
     <use xlink:href="#DejaVuSans-52" x="797.261719"/>
     <use xlink:href="#DejaVuSans-61" x="864.494141"/>
     <use xlink:href="#DejaVuSans-74" x="925.773438"/>
     <use xlink:href="#DejaVuSans-65" x="964.982422"/>
     <use xlink:href="#DejaVuSans-20" x="1026.505859"/>
     <use xlink:href="#DejaVuSans-28" x="1058.292969"/>
     <use xlink:href="#DejaVuSans-43" x="1097.306641"/>
     <use xlink:href="#DejaVuSans-75" x="1167.130859"/>
     <use xlink:href="#DejaVuSans-6d" x="1230.509766"/>
     <use xlink:href="#DejaVuSans-75" x="1327.921875"/>
     <use xlink:href="#DejaVuSans-6c" x="1391.300781"/>
     <use xlink:href="#DejaVuSans-61" x="1419.083984"/>
     <use xlink:href="#DejaVuSans-74" x="1480.363281"/>
     <use xlink:href="#DejaVuSans-69" x="1519.572266"/>
     <use xlink:href="#DejaVuSans-76" x="1547.355469"/>
     <use xlink:href="#DejaVuSans-65" x="1606.535156"/>
     <use xlink:href="#DejaVuSans-29" x="1668.058594"/>
    </g>
   </g>
   <g id="legend_1">
    <g id="patch_7">
     <path d="M 480.614062 255.44 
L 558.2 255.44 
Q 560.2 255.44 560.2 253.44 
L 560.2 180.493125 
Q 560.2 178.493125 558.2 178.493125 
L 480.614062 178.493125 
Q 478.614062 178.493125 478.614062 180.493125 
L 478.614062 253.44 
Q 478.614062 255.44 480.614062 255.44 
z
" style="fill: #ffffff; opacity: 0.8; stroke: #cccccc; stroke-linejoin: miter"/>
    </g>
    <g id="line2d_34">
     <path d="M 482.614062 186.591563 
L 492.614062 186.591563 
L 502.614062 186.591563 
" style="fill: none; stroke: #1f77b4; stroke-width: 1.8; stroke-linecap: square"/>
    </g>
    <g id="text_18">
     <!-- sheer -->
     <g transform="translate(510.614062 190.091563) scale(0.1 -0.1)">
      <defs>
       <path id="DejaVuSans-68" d="M 3513 2113 
L 3513 0 
L 2938 0 
L 2938 2094 
Q 2938 2591 2744 2837 
Q 2550 3084 2163 3084 
Q 1697 3084 1428 2787 
Q 1159 2491 1159 1978 
L 1159 0 
L 581 0 
L 581 4863 
L 1159 4863 
L 1159 2956 
Q 1366 3272 1645 3428 
Q 1925 3584 2291 3584 
Q 2894 3584 3203 3211 
Q 3513 2838 3513 2113 
z
" transform="scale(0.015625)"/>
      </defs>
      <use xlink:href="#DejaVuSans-73"/>
      <use xlink:href="#DejaVuSans-68" x="52.099609"/>
      <use xlink:href="#DejaVuSans-65" x="115.478516"/>
      <use xlink:href="#DejaVuSans-65" x="177.001953"/>
      <use xlink:href="#DejaVuSans-72" x="238.525391"/>
     </g>
    </g>
    <g id="line2d_35">
     <path d="M 482.614062 201.269688 
L 492.614062 201.269688 
L 502.614062 201.269688 
" style="fill: none; stroke: #ff7f0e; stroke-width: 1.8; stroke-linecap: square"/>
    </g>
    <g id="text_19">
     <!-- actar -->
     <g transform="translate(510.614062 204.769688) scale(0.1 -0.1)">
      <use xlink:href="#DejaVuSans-61"/>
      <use xlink:href="#DejaVuSans-63" x="61.279297"/>
      <use xlink:href="#DejaVuSans-74" x="116.259766"/>
      <use xlink:href="#DejaVuSans-61" x="155.46875"/>
      <use xlink:href="#DejaVuSans-72" x="216.748047"/>
     </g>
    </g>
    <g id="line2d_36">
     <path d="M 482.614062 215.947813 
L 492.614062 215.947813 
L 502.614062 215.947813 
" style="fill: none; stroke: #2ca02c; stroke-width: 1.8; stroke-linecap: square"/>
    </g>
    <g id="text_20">
     <!-- tfsm_dpc -->
     <g transform="translate(510.614062 219.447813) scale(0.1 -0.1)">
      <defs>
       <path id="DejaVuSans-5f" d="M 3263 -1063 
L 3263 -1509 
L -63 -1509 
L -63 -1063 
L 3263 -1063 
z
" transform="scale(0.015625)"/>
       <path id="DejaVuSans-70" d="M 1159 525 
L 1159 -1331 
L 581 -1331 
L 581 3500 
L 1159 3500 
L 1159 2969 
Q 1341 3281 1617 3432 
Q 1894 3584 2278 3584 
Q 2916 3584 3314 3078 
Q 3713 2572 3713 1747 
Q 3713 922 3314 415 
Q 2916 -91 2278 -91 
Q 1894 -91 1617 61 
Q 1341 213 1159 525 
z
M 3116 1747 
Q 3116 2381 2855 2742 
Q 2594 3103 2138 3103 
Q 1681 3103 1420 2742 
Q 1159 2381 1159 1747 
Q 1159 1113 1420 752 
Q 1681 391 2138 391 
Q 2594 391 2855 752 
Q 3116 1113 3116 1747 
z
" transform="scale(0.015625)"/>
      </defs>
      <use xlink:href="#DejaVuSans-74"/>
      <use xlink:href="#DejaVuSans-66" x="39.208984"/>
      <use xlink:href="#DejaVuSans-73" x="74.414062"/>
      <use xlink:href="#DejaVuSans-6d" x="126.513672"/>
      <use xlink:href="#DejaVuSans-5f" x="223.925781"/>
      <use xlink:href="#DejaVuSans-64" x="273.925781"/>
      <use xlink:href="#DejaVuSans-70" x="337.402344"/>
      <use xlink:href="#DejaVuSans-63" x="400.878906"/>
     </g>
    </g>
    <g id="line2d_37">
     <path d="M 482.614062 230.904063 
L 492.614062 230.904063 
L 502.614062 230.904063 
" style="fill: none; stroke: #d62728; stroke-width: 1.8; stroke-linecap: square"/>
    </g>
    <g id="text_21">
     <!-- dst_woa -->
     <g transform="translate(510.614062 234.404063) scale(0.1 -0.1)">
      <defs>
       <path id="DejaVuSans-77" d="M 269 3500 
L 844 3500 
L 1563 769 
L 2278 3500 
L 2956 3500 
L 3675 769 
L 4391 3500 
L 4966 3500 
L 4050 0 
L 3372 0 
L 2619 2869 
L 1863 0 
L 1184 0 
L 269 3500 
z
" transform="scale(0.015625)"/>
      </defs>
      <use xlink:href="#DejaVuSans-64"/>
      <use xlink:href="#DejaVuSans-73" x="63.476562"/>
      <use xlink:href="#DejaVuSans-74" x="115.576172"/>
      <use xlink:href="#DejaVuSans-5f" x="154.785156"/>
      <use xlink:href="#DejaVuSans-77" x="204.785156"/>
      <use xlink:href="#DejaVuSans-6f" x="286.572266"/>
      <use xlink:href="#DejaVuSans-61" x="347.753906"/>
     </g>
    </g>
    <g id="line2d_38">
     <path d="M 482.614062 245.860313 
L 492.614062 245.860313 
L 502.614062 245.860313 
" style="fill: none; stroke: #9467bd; stroke-width: 1.8; stroke-linecap: square"/>
    </g>
    <g id="text_22">
     <!-- trail -->
     <g transform="translate(510.614062 249.360313) scale(0.1 -0.1)">
      <use xlink:href="#DejaVuSans-74"/>
      <use xlink:href="#DejaVuSans-72" x="39.208984"/>
      <use xlink:href="#DejaVuSans-61" x="80.322266"/>
      <use xlink:href="#DejaVuSans-69" x="141.601562"/>
      <use xlink:href="#DejaVuSans-6c" x="169.384766"/>
     </g>
    </g>
   </g>
  </g>
 </g>
 <defs>
  <clipPath id="pf2ba98a4f0">
   <rect x="54.2" y="25.44" width="511" height="235"/>
  </clipPath>
 </defs>
</svg>
