<?xml version="1.0" encoding="utf-8" standalone="no"?>
<!DOCTYPE svg PUBLIC "-//W3C//DTD SVG 1.1//EN"
  "http://www.w3.org/Graphics/SVG/1.1/DTD/svg11.dtd">
<svg xmlns:xlink="http://www.w3.org/1999/xlink" width="576pt" height="302.4pt" viewBox="0 0 576 302.4" xmlns="http://www.w3.org/2000/svg" version="1.1">
 <metadata>
  <rdf:RDF xmlns:dc="http://purl.org/dc/elements/1.1/" xmlns:cc="http://creativecommons.org/ns#" xmlns:rdf="http://www.w3.org/1999/02/22-rdf-syntax-ns#">
   <cc:Work>
    <dc:type rdf:resource="http://purl.org/dc/dcmitype/StillImage"/>
    <dc:date>2025-09-02T21:21:40.220792</dc:date>
    <dc:format>image/svg+xml</dc:format>
    <dc:creator>
     <cc:Agent>
      <dc:title>Matplotlib v3.9.4, https://matplotlib.org/</dc:title>
     </cc:Agent>
    </dc:creator>
   </cc:Work>
  </rdf:RDF>
 </metadata>
 <defs>
  <style type="text/css">*{stroke-linejoin: round; stroke-linecap: butt}</style>
 </defs>
 <g id="figure_1">
  <g id="patch_1">
   <path d="M 0 302.4 
L 576 302.4 
L 576 0 
L 0 0 
z
" style="fill: #ffffff"/>
  </g>
  <g id="axes_1">
   <g id="patch_2">
    <path d="M 54.2 260.44 
L 565.2 260.44 
L 565.2 25.44 
L 54.2 25.44 
z
" style="fill: #ffffff"/>
   </g>
   <g id="matplotlib.axis_1">
    <g id="xtick_1">
     <g id="line2d_1">
      <path d="M 77.362201 260.44 
L 77.362201 25.44 
" clip-path="url(#pb55e8ae424)" style="fill: none; stroke-dasharray: 2.96,1.28; stroke-dashoffset: 0; stroke: #b0b0b0; stroke-opacity: 0.3; stroke-width: 0.8"/>
     </g>
     <g id="line2d_2">
      <defs>
       <path id="m42a57a790b" d="M 0 0 
L 0 3.5 
" style="stroke: #000000; stroke-width: 0.8"/>
      </defs>
      <g>
       <use xlink:href="#m42a57a790b" x="77.362201" y="260.44" style="stroke: #000000; stroke-width: 0.8"/>
      </g>
     </g>
     <g id="text_1">
      <!-- 0 -->
      <g transform="translate(74.180951 275.038438) scale(0.1 -0.1)">
       <defs>
        <path id="DejaVuSans-30" d="M 2034 4250 
Q 1547 4250 1301 3770 
Q 1056 3291 1056 2328 
Q 1056 1369 1301 889 
Q 1547 409 2034 409 
Q 2525 409 2770 889 
Q 3016 1369 3016 2328 
Q 3016 3291 2770 3770 
Q 2525 4250 2034 4250 
z
M 2034 4750 
Q 2819 4750 3233 4129 
Q 3647 3509 3647 2328 
Q 3647 1150 3233 529 
Q 2819 -91 2034 -91 
Q 1250 -91 836 529 
Q 422 1150 422 2328 
Q 422 3509 836 4129 
Q 1250 4750 2034 4750 
z
" transform="scale(0.015625)"/>
       </defs>
       <use xlink:href="#DejaVuSans-30"/>
      </g>
     </g>
    </g>
    <g id="xtick_2">
     <g id="line2d_3">
      <path d="M 142.433703 260.44 
L 142.433703 25.44 
" clip-path="url(#pb55e8ae424)" style="fill: none; stroke-dasharray: 2.96,1.28; stroke-dashoffset: 0; stroke: #b0b0b0; stroke-opacity: 0.3; stroke-width: 0.8"/>
     </g>
     <g id="line2d_4">
      <g>
       <use xlink:href="#m42a57a790b" x="142.433703" y="260.44" style="stroke: #000000; stroke-width: 0.8"/>
      </g>
     </g>
     <g id="text_2">
      <!-- 1000 -->
      <g transform="translate(129.708703 275.038438) scale(0.1 -0.1)">
       <defs>
        <path id="DejaVuSans-31" d="M 794 531 
L 1825 531 
L 1825 4091 
L 703 3866 
L 703 4441 
L 1819 4666 
L 2450 4666 
L 2450 531 
L 3481 531 
L 3481 0 
L 794 0 
L 794 531 
z
" transform="scale(0.015625)"/>
       </defs>
       <use xlink:href="#DejaVuSans-31"/>
       <use xlink:href="#DejaVuSans-30" x="63.623047"/>
       <use xlink:href="#DejaVuSans-30" x="127.246094"/>
       <use xlink:href="#DejaVuSans-30" x="190.869141"/>
      </g>
     </g>
    </g>
    <g id="xtick_3">
     <g id="line2d_5">
      <path d="M 207.505206 260.44 
L 207.505206 25.44 
" clip-path="url(#pb55e8ae424)" style="fill: none; stroke-dasharray: 2.96,1.28; stroke-dashoffset: 0; stroke: #b0b0b0; stroke-opacity: 0.3; stroke-width: 0.8"/>
     </g>
     <g id="line2d_6">
      <g>
       <use xlink:href="#m42a57a790b" x="207.505206" y="260.44" style="stroke: #000000; stroke-width: 0.8"/>
      </g>
     </g>
     <g id="text_3">
      <!-- 2000 -->
      <g transform="translate(194.780206 275.038438) scale(0.1 -0.1)">
       <defs>
        <path id="DejaVuSans-32" d="M 1228 531 
L 3431 531 
L 3431 0 
L 469 0 
L 469 531 
Q 828 903 1448 1529 
Q 2069 2156 2228 2338 
Q 2531 2678 2651 2914 
Q 2772 3150 2772 3378 
Q 2772 3750 2511 3984 
Q 2250 4219 1831 4219 
Q 1534 4219 1204 4116 
Q 875 4013 500 3803 
L 500 4441 
Q 881 4594 1212 4672 
Q 1544 4750 1819 4750 
Q 2544 4750 2975 4387 
Q 3406 4025 3406 3419 
Q 3406 3131 3298 2873 
Q 3191 2616 2906 2266 
Q 2828 2175 2409 1742 
Q 1991 1309 1228 531 
z
" transform="scale(0.015625)"/>
       </defs>
       <use xlink:href="#DejaVuSans-32"/>
       <use xlink:href="#DejaVuSans-30" x="63.623047"/>
       <use xlink:href="#DejaVuSans-30" x="127.246094"/>
       <use xlink:href="#DejaVuSans-30" x="190.869141"/>
      </g>
     </g>
    </g>
    <g id="xtick_4">
     <g id="line2d_7">
      <path d="M 272.576708 260.44 
L 272.576708 25.44 
" clip-path="url(#pb55e8ae424)" style="fill: none; stroke-dasharray: 2.96,1.28; stroke-dashoffset: 0; stroke: #b0b0b0; stroke-opacity: 0.3; stroke-width: 0.8"/>
     </g>
     <g id="line2d_8">
      <g>
       <use xlink:href="#m42a57a790b" x="272.576708" y="260.44" style="stroke: #000000; stroke-width: 0.8"/>
      </g>
     </g>
     <g id="text_4">
      <!-- 3000 -->
      <g transform="translate(259.851708 275.038438) scale(0.1 -0.1)">
       <defs>
        <path id="DejaVuSans-33" d="M 2597 2516 
Q 3050 2419 3304 2112 
Q 3559 1806 3559 1356 
Q 3559 666 3084 287 
Q 2609 -91 1734 -91 
Q 1441 -91 1130 -33 
Q 819 25 488 141 
L 488 750 
Q 750 597 1062 519 
Q 1375 441 1716 441 
Q 2309 441 2620 675 
Q 2931 909 2931 1356 
Q 2931 1769 2642 2001 
Q 2353 2234 1838 2234 
L 1294 2234 
L 1294 2753 
L 1863 2753 
Q 2328 2753 2575 2939 
Q 2822 3125 2822 3475 
Q 2822 3834 2567 4026 
Q 2313 4219 1838 4219 
Q 1578 4219 1281 4162 
Q 984 4106 628 3988 
L 628 4550 
Q 988 4650 1302 4700 
Q 1616 4750 1894 4750 
Q 2613 4750 3031 4423 
Q 3450 4097 3450 3541 
Q 3450 3153 3228 2886 
Q 3006 2619 2597 2516 
z
" transform="scale(0.015625)"/>
       </defs>
       <use xlink:href="#DejaVuSans-33"/>
       <use xlink:href="#DejaVuSans-30" x="63.623047"/>
       <use xlink:href="#DejaVuSans-30" x="127.246094"/>
       <use xlink:href="#DejaVuSans-30" x="190.869141"/>
      </g>
     </g>
    </g>
    <g id="xtick_5">
     <g id="line2d_9">
      <path d="M 337.64821 260.44 
L 337.64821 25.44 
" clip-path="url(#pb55e8ae424)" style="fill: none; stroke-dasharray: 2.96,1.28; stroke-dashoffset: 0; stroke: #b0b0b0; stroke-opacity: 0.3; stroke-width: 0.8"/>
     </g>
     <g id="line2d_10">
      <g>
       <use xlink:href="#m42a57a790b" x="337.64821" y="260.44" style="stroke: #000000; stroke-width: 0.8"/>
      </g>
     </g>
     <g id="text_5">
      <!-- 4000 -->
      <g transform="translate(324.92321 275.038438) scale(0.1 -0.1)">
       <defs>
        <path id="DejaVuSans-34" d="M 2419 4116 
L 825 1625 
L 2419 1625 
L 2419 4116 
z
M 2253 4666 
L 3047 4666 
L 3047 1625 
L 3713 1625 
L 3713 1100 
L 3047 1100 
L 3047 0 
L 2419 0 
L 2419 1100 
L 313 1100 
L 313 1709 
L 2253 4666 
z
" transform="scale(0.015625)"/>
       </defs>
       <use xlink:href="#DejaVuSans-34"/>
       <use xlink:href="#DejaVuSans-30" x="63.623047"/>
       <use xlink:href="#DejaVuSans-30" x="127.246094"/>
       <use xlink:href="#DejaVuSans-30" x="190.869141"/>
      </g>
     </g>
    </g>
    <g id="xtick_6">
     <g id="line2d_11">
      <path d="M 402.719712 260.44 
L 402.719712 25.44 
" clip-path="url(#pb55e8ae424)" style="fill: none; stroke-dasharray: 2.96,1.28; stroke-dashoffset: 0; stroke: #b0b0b0; stroke-opacity: 0.3; stroke-width: 0.8"/>
     </g>
     <g id="line2d_12">
      <g>
       <use xlink:href="#m42a57a790b" x="402.719712" y="260.44" style="stroke: #000000; stroke-width: 0.8"/>
      </g>
     </g>
     <g id="text_6">
      <!-- 5000 -->
      <g transform="translate(389.994712 275.038438) scale(0.1 -0.1)">
       <defs>
        <path id="DejaVuSans-35" d="M 691 4666 
L 3169 4666 
L 3169 4134 
L 1269 4134 
L 1269 2991 
Q 1406 3038 1543 3061 
Q 1681 3084 1819 3084 
Q 2600 3084 3056 2656 
Q 3513 2228 3513 1497 
Q 3513 744 3044 326 
Q 2575 -91 1722 -91 
Q 1428 -91 1123 -41 
Q 819 9 494 109 
L 494 744 
Q 775 591 1075 516 
Q 1375 441 1709 441 
Q 2250 441 2565 725 
Q 2881 1009 2881 1497 
Q 2881 1984 2565 2268 
Q 2250 2553 1709 2553 
Q 1456 2553 1204 2497 
Q 953 2441 691 2322 
L 691 4666 
z
" transform="scale(0.015625)"/>
       </defs>
       <use xlink:href="#DejaVuSans-35"/>
       <use xlink:href="#DejaVuSans-30" x="63.623047"/>
       <use xlink:href="#DejaVuSans-30" x="127.246094"/>
       <use xlink:href="#DejaVuSans-30" x="190.869141"/>
      </g>
     </g>
    </g>
    <g id="xtick_7">
     <g id="line2d_13">
      <path d="M 467.791215 260.44 
L 467.791215 25.44 
" clip-path="url(#pb55e8ae424)" style="fill: none; stroke-dasharray: 2.96,1.28; stroke-dashoffset: 0; stroke: #b0b0b0; stroke-opacity: 0.3; stroke-width: 0.8"/>
     </g>
     <g id="line2d_14">
      <g>
       <use xlink:href="#m42a57a790b" x="467.791215" y="260.44" style="stroke: #000000; stroke-width: 0.8"/>
      </g>
     </g>
     <g id="text_7">
      <!-- 6000 -->
      <g transform="translate(455.066215 275.038438) scale(0.1 -0.1)">
       <defs>
        <path id="DejaVuSans-36" d="M 2113 2584 
Q 1688 2584 1439 2293 
Q 1191 2003 1191 1497 
Q 1191 994 1439 701 
Q 1688 409 2113 409 
Q 2538 409 2786 701 
Q 3034 994 3034 1497 
Q 3034 2003 2786 2293 
Q 2538 2584 2113 2584 
z
M 3366 4563 
L 3366 3988 
Q 3128 4100 2886 4159 
Q 2644 4219 2406 4219 
Q 1781 4219 1451 3797 
Q 1122 3375 1075 2522 
Q 1259 2794 1537 2939 
Q 1816 3084 2150 3084 
Q 2853 3084 3261 2657 
Q 3669 2231 3669 1497 
Q 3669 778 3244 343 
Q 2819 -91 2113 -91 
Q 1303 -91 875 529 
Q 447 1150 447 2328 
Q 447 3434 972 4092 
Q 1497 4750 2381 4750 
Q 2619 4750 2861 4703 
Q 3103 4656 3366 4563 
z
" transform="scale(0.015625)"/>
       </defs>
       <use xlink:href="#DejaVuSans-36"/>
       <use xlink:href="#DejaVuSans-30" x="63.623047"/>
       <use xlink:href="#DejaVuSans-30" x="127.246094"/>
       <use xlink:href="#DejaVuSans-30" x="190.869141"/>
      </g>
     </g>
    </g>
    <g id="xtick_8">
     <g id="line2d_15">
      <path d="M 532.862717 260.44 
L 532.862717 25.44 
" clip-path="url(#pb55e8ae424)" style="fill: none; stroke-dasharray: 2.96,1.28; stroke-dashoffset: 0; stroke: #b0b0b0; stroke-opacity: 0.3; stroke-width: 0.8"/>
     </g>
     <g id="line2d_16">
      <g>
       <use xlink:href="#m42a57a790b" x="532.862717" y="260.44" style="stroke: #000000; stroke-width: 0.8"/>
      </g>
     </g>
     <g id="text_8">
      <!-- 7000 -->
      <g transform="translate(520.137717 275.038438) scale(0.1 -0.1)">
       <defs>
        <path id="DejaVuSans-37" d="M 525 4666 
L 3525 4666 
L 3525 4397 
L 1831 0 
L 1172 0 
L 2766 4134 
L 525 4134 
L 525 4666 
z
" transform="scale(0.015625)"/>
       </defs>
       <use xlink:href="#DejaVuSans-37"/>
       <use xlink:href="#DejaVuSans-30" x="63.623047"/>
       <use xlink:href="#DejaVuSans-30" x="127.246094"/>
       <use xlink:href="#DejaVuSans-30" x="190.869141"/>
      </g>
     </g>
    </g>
    <g id="text_9">
     <!-- round -->
     <g transform="translate(295.185937 288.716563) scale(0.1 -0.1)">
      <defs>
       <path id="DejaVuSans-72" d="M 2631 2963 
Q 2534 3019 2420 3045 
Q 2306 3072 2169 3072 
Q 1681 3072 1420 2755 
Q 1159 2438 1159 1844 
L 1159 0 
L 581 0 
L 581 3500 
L 1159 3500 
L 1159 2956 
Q 1341 3275 1631 3429 
Q 1922 3584 2338 3584 
Q 2397 3584 2469 3576 
Q 2541 3569 2628 3553 
L 2631 2963 
z
" transform="scale(0.015625)"/>
       <path id="DejaVuSans-6f" d="M 1959 3097 
Q 1497 3097 1228 2736 
Q 959 2375 959 1747 
Q 959 1119 1226 758 
Q 1494 397 1959 397 
Q 2419 397 2687 759 
Q 2956 1122 2956 1747 
Q 2956 2369 2687 2733 
Q 2419 3097 1959 3097 
z
M 1959 3584 
Q 2709 3584 3137 3096 
Q 3566 2609 3566 1747 
Q 3566 888 3137 398 
Q 2709 -91 1959 -91 
Q 1206 -91 779 398 
Q 353 888 353 1747 
Q 353 2609 779 3096 
Q 1206 3584 1959 3584 
z
" transform="scale(0.015625)"/>
       <path id="DejaVuSans-75" d="M 544 1381 
L 544 3500 
L 1119 3500 
L 1119 1403 
Q 1119 906 1312 657 
Q 1506 409 1894 409 
Q 2359 409 2629 706 
Q 2900 1003 2900 1516 
L 2900 3500 
L 3475 3500 
L 3475 0 
L 2900 0 
L 2900 538 
Q 2691 219 2414 64 
Q 2138 -91 1772 -91 
Q 1169 -91 856 284 
Q 544 659 544 1381 
z
M 1991 3584 
L 1991 3584 
z
" transform="scale(0.015625)"/>
       <path id="DejaVuSans-6e" d="M 3513 2113 
L 3513 0 
L 2938 0 
L 2938 2094 
Q 2938 2591 2744 2837 
Q 2550 3084 2163 3084 
Q 1697 3084 1428 2787 
Q 1159 2491 1159 1978 
L 1159 0 
L 581 0 
L 581 3500 
L 1159 3500 
L 1159 2956 
Q 1366 3272 1645 3428 
Q 1925 3584 2291 3584 
Q 2894 3584 3203 3211 
Q 3513 2838 3513 2113 
z
" transform="scale(0.015625)"/>
       <path id="DejaVuSans-64" d="M 2906 2969 
L 2906 4863 
L 3481 4863 
L 3481 0 
L 2906 0 
L 2906 525 
Q 2725 213 2448 61 
Q 2172 -91 1784 -91 
Q 1150 -91 751 415 
Q 353 922 353 1747 
Q 353 2572 751 3078 
Q 1150 3584 1784 3584 
Q 2172 3584 2448 3432 
Q 2725 3281 2906 2969 
z
M 947 1747 
Q 947 1113 1208 752 
Q 1469 391 1925 391 
Q 2381 391 2643 752 
Q 2906 1113 2906 1747 
Q 2906 2381 2643 2742 
Q 2381 3103 1925 3103 
Q 1469 3103 1208 2742 
Q 947 2381 947 1747 
z
" transform="scale(0.015625)"/>
      </defs>
      <use xlink:href="#DejaVuSans-72"/>
      <use xlink:href="#DejaVuSans-6f" x="38.863281"/>
      <use xlink:href="#DejaVuSans-75" x="100.044922"/>
      <use xlink:href="#DejaVuSans-6e" x="163.423828"/>
      <use xlink:href="#DejaVuSans-64" x="226.802734"/>
     </g>
    </g>
   </g>
   <g id="matplotlib.axis_2">
    <g id="ytick_1">
     <g id="line2d_17">
      <path d="M 54.2 237.889495 
L 565.2 237.889495 
" clip-path="url(#pb55e8ae424)" style="fill: none; stroke-dasharray: 2.96,1.28; stroke-dashoffset: 0; stroke: #b0b0b0; stroke-opacity: 0.3; stroke-width: 0.8"/>
     </g>
     <g id="line2d_18">
      <defs>
       <path id="ma1d21c14ca" d="M 0 0 
L -3.5 0 
" style="stroke: #000000; stroke-width: 0.8"/>
      </defs>
      <g>
       <use xlink:href="#ma1d21c14ca" x="54.2" y="237.889495" style="stroke: #000000; stroke-width: 0.8"/>
      </g>
     </g>
     <g id="text_10">
      <!-- 0.75 -->
      <g transform="translate(24.934375 241.688714) scale(0.1 -0.1)">
       <defs>
        <path id="DejaVuSans-2e" d="M 684 794 
L 1344 794 
L 1344 0 
L 684 0 
L 684 794 
z
" transform="scale(0.015625)"/>
       </defs>
       <use xlink:href="#DejaVuSans-30"/>
       <use xlink:href="#DejaVuSans-2e" x="63.623047"/>
       <use xlink:href="#DejaVuSans-37" x="95.410156"/>
       <use xlink:href="#DejaVuSans-35" x="159.033203"/>
      </g>
     </g>
    </g>
    <g id="ytick_2">
     <g id="line2d_19">
      <path d="M 54.2 197.53596 
L 565.2 197.53596 
" clip-path="url(#pb55e8ae424)" style="fill: none; stroke-dasharray: 2.96,1.28; stroke-dashoffset: 0; stroke: #b0b0b0; stroke-opacity: 0.3; stroke-width: 0.8"/>
     </g>
     <g id="line2d_20">
      <g>
       <use xlink:href="#ma1d21c14ca" x="54.2" y="197.53596" style="stroke: #000000; stroke-width: 0.8"/>
      </g>
     </g>
     <g id="text_11">
      <!-- 0.80 -->
      <g transform="translate(24.934375 201.335178) scale(0.1 -0.1)">
       <defs>
        <path id="DejaVuSans-38" d="M 2034 2216 
Q 1584 2216 1326 1975 
Q 1069 1734 1069 1313 
Q 1069 891 1326 650 
Q 1584 409 2034 409 
Q 2484 409 2743 651 
Q 3003 894 3003 1313 
Q 3003 1734 2745 1975 
Q 2488 2216 2034 2216 
z
M 1403 2484 
Q 997 2584 770 2862 
Q 544 3141 544 3541 
Q 544 4100 942 4425 
Q 1341 4750 2034 4750 
Q 2731 4750 3128 4425 
Q 3525 4100 3525 3541 
Q 3525 3141 3298 2862 
Q 3072 2584 2669 2484 
Q 3125 2378 3379 2068 
Q 3634 1759 3634 1313 
Q 3634 634 3220 271 
Q 2806 -91 2034 -91 
Q 1263 -91 848 271 
Q 434 634 434 1313 
Q 434 1759 690 2068 
Q 947 2378 1403 2484 
z
M 1172 3481 
Q 1172 3119 1398 2916 
Q 1625 2713 2034 2713 
Q 2441 2713 2670 2916 
Q 2900 3119 2900 3481 
Q 2900 3844 2670 4047 
Q 2441 4250 2034 4250 
Q 1625 4250 1398 4047 
Q 1172 3844 1172 3481 
z
" transform="scale(0.015625)"/>
       </defs>
       <use xlink:href="#DejaVuSans-30"/>
       <use xlink:href="#DejaVuSans-2e" x="63.623047"/>
       <use xlink:href="#DejaVuSans-38" x="95.410156"/>
       <use xlink:href="#DejaVuSans-30" x="159.033203"/>
      </g>
     </g>
    </g>
    <g id="ytick_3">
     <g id="line2d_21">
      <path d="M 54.2 157.182424 
L 565.2 157.182424 
" clip-path="url(#pb55e8ae424)" style="fill: none; stroke-dasharray: 2.96,1.28; stroke-dashoffset: 0; stroke: #b0b0b0; stroke-opacity: 0.3; stroke-width: 0.8"/>
     </g>
     <g id="line2d_22">
      <g>
       <use xlink:href="#ma1d21c14ca" x="54.2" y="157.182424" style="stroke: #000000; stroke-width: 0.8"/>
      </g>
     </g>
     <g id="text_12">
      <!-- 0.85 -->
      <g transform="translate(24.934375 160.981643) scale(0.1 -0.1)">
       <use xlink:href="#DejaVuSans-30"/>
       <use xlink:href="#DejaVuSans-2e" x="63.623047"/>
       <use xlink:href="#DejaVuSans-38" x="95.410156"/>
       <use xlink:href="#DejaVuSans-35" x="159.033203"/>
      </g>
     </g>
    </g>
    <g id="ytick_4">
     <g id="line2d_23">
      <path d="M 54.2 116.828889 
L 565.2 116.828889 
" clip-path="url(#pb55e8ae424)" style="fill: none; stroke-dasharray: 2.96,1.28; stroke-dashoffset: 0; stroke: #b0b0b0; stroke-opacity: 0.3; stroke-width: 0.8"/>
     </g>
     <g id="line2d_24">
      <g>
       <use xlink:href="#ma1d21c14ca" x="54.2" y="116.828889" style="stroke: #000000; stroke-width: 0.8"/>
      </g>
     </g>
     <g id="text_13">
      <!-- 0.90 -->
      <g transform="translate(24.934375 120.628108) scale(0.1 -0.1)">
       <defs>
        <path id="DejaVuSans-39" d="M 703 97 
L 703 672 
Q 941 559 1184 500 
Q 1428 441 1663 441 
Q 2288 441 2617 861 
Q 2947 1281 2994 2138 
Q 2813 1869 2534 1725 
Q 2256 1581 1919 1581 
Q 1219 1581 811 2004 
Q 403 2428 403 3163 
Q 403 3881 828 4315 
Q 1253 4750 1959 4750 
Q 2769 4750 3195 4129 
Q 3622 3509 3622 2328 
Q 3622 1225 3098 567 
Q 2575 -91 1691 -91 
Q 1453 -91 1209 -44 
Q 966 3 703 97 
z
M 1959 2075 
Q 2384 2075 2632 2365 
Q 2881 2656 2881 3163 
Q 2881 3666 2632 3958 
Q 2384 4250 1959 4250 
Q 1534 4250 1286 3958 
Q 1038 3666 1038 3163 
Q 1038 2656 1286 2365 
Q 1534 2075 1959 2075 
z
" transform="scale(0.015625)"/>
       </defs>
       <use xlink:href="#DejaVuSans-30"/>
       <use xlink:href="#DejaVuSans-2e" x="63.623047"/>
       <use xlink:href="#DejaVuSans-39" x="95.410156"/>
       <use xlink:href="#DejaVuSans-30" x="159.033203"/>
      </g>
     </g>
    </g>
    <g id="ytick_5">
     <g id="line2d_25">
      <path d="M 54.2 76.475354 
L 565.2 76.475354 
" clip-path="url(#pb55e8ae424)" style="fill: none; stroke-dasharray: 2.96,1.28; stroke-dashoffset: 0; stroke: #b0b0b0; stroke-opacity: 0.3; stroke-width: 0.8"/>
     </g>
     <g id="line2d_26">
      <g>
       <use xlink:href="#ma1d21c14ca" x="54.2" y="76.475354" style="stroke: #000000; stroke-width: 0.8"/>
      </g>
     </g>
     <g id="text_14">
      <!-- 0.95 -->
      <g transform="translate(24.934375 80.274572) scale(0.1 -0.1)">
       <use xlink:href="#DejaVuSans-30"/>
       <use xlink:href="#DejaVuSans-2e" x="63.623047"/>
       <use xlink:href="#DejaVuSans-39" x="95.410156"/>
       <use xlink:href="#DejaVuSans-35" x="159.033203"/>
      </g>
     </g>
    </g>
    <g id="ytick_6">
     <g id="line2d_27">
      <path d="M 54.2 36.121818 
L 565.2 36.121818 
" clip-path="url(#pb55e8ae424)" style="fill: none; stroke-dasharray: 2.96,1.28; stroke-dashoffset: 0; stroke: #b0b0b0; stroke-opacity: 0.3; stroke-width: 0.8"/>
     </g>
     <g id="line2d_28">
      <g>
       <use xlink:href="#ma1d21c14ca" x="54.2" y="36.121818" style="stroke: #000000; stroke-width: 0.8"/>
      </g>
     </g>
     <g id="text_15">
      <!-- 1.00 -->
      <g transform="translate(24.934375 39.921037) scale(0.1 -0.1)">
       <use xlink:href="#DejaVuSans-31"/>
       <use xlink:href="#DejaVuSans-2e" x="63.623047"/>
       <use xlink:href="#DejaVuSans-30" x="95.410156"/>
       <use xlink:href="#DejaVuSans-30" x="159.033203"/>
      </g>
     </g>
    </g>
    <g id="text_16">
     <!-- cumulative timely transfer rate -->
     <g transform="translate(18.854688 221.048594) rotate(-90) scale(0.1 -0.1)">
      <defs>
       <path id="DejaVuSans-63" d="M 3122 3366 
L 3122 2828 
Q 2878 2963 2633 3030 
Q 2388 3097 2138 3097 
Q 1578 3097 1268 2742 
Q 959 2388 959 1747 
Q 959 1106 1268 751 
Q 1578 397 2138 397 
Q 2388 397 2633 464 
Q 2878 531 3122 666 
L 3122 134 
Q 2881 22 2623 -34 
Q 2366 -91 2075 -91 
Q 1284 -91 818 406 
Q 353 903 353 1747 
Q 353 2603 823 3093 
Q 1294 3584 2113 3584 
Q 2378 3584 2631 3529 
Q 2884 3475 3122 3366 
z
" transform="scale(0.015625)"/>
       <path id="DejaVuSans-6d" d="M 3328 2828 
Q 3544 3216 3844 3400 
Q 4144 3584 4550 3584 
Q 5097 3584 5394 3201 
Q 5691 2819 5691 2113 
L 5691 0 
L 5113 0 
L 5113 2094 
Q 5113 2597 4934 2840 
Q 4756 3084 4391 3084 
Q 3944 3084 3684 2787 
Q 3425 2491 3425 1978 
L 3425 0 
L 2847 0 
L 2847 2094 
Q 2847 2600 2669 2842 
Q 2491 3084 2119 3084 
Q 1678 3084 1418 2786 
Q 1159 2488 1159 1978 
L 1159 0 
L 581 0 
L 581 3500 
L 1159 3500 
L 1159 2956 
Q 1356 3278 1631 3431 
Q 1906 3584 2284 3584 
Q 2666 3584 2933 3390 
Q 3200 3197 3328 2828 
z
" transform="scale(0.015625)"/>
       <path id="DejaVuSans-6c" d="M 603 4863 
L 1178 4863 
L 1178 0 
L 603 0 
L 603 4863 
z
" transform="scale(0.015625)"/>
       <path id="DejaVuSans-61" d="M 2194 1759 
Q 1497 1759 1228 1600 
Q 959 1441 959 1056 
Q 959 750 1161 570 
Q 1363 391 1709 391 
Q 2188 391 2477 730 
Q 2766 1069 2766 1631 
L 2766 1759 
L 2194 1759 
z
M 3341 1997 
L 3341 0 
L 2766 0 
L 2766 531 
Q 2569 213 2275 61 
Q 1981 -91 1556 -91 
Q 1019 -91 701 211 
Q 384 513 384 1019 
Q 384 1609 779 1909 
Q 1175 2209 1959 2209 
L 2766 2209 
L 2766 2266 
Q 2766 2663 2505 2880 
Q 2244 3097 1772 3097 
Q 1472 3097 1187 3025 
Q 903 2953 641 2809 
L 641 3341 
Q 956 3463 1253 3523 
Q 1550 3584 1831 3584 
Q 2591 3584 2966 3190 
Q 3341 2797 3341 1997 
z
" transform="scale(0.015625)"/>
       <path id="DejaVuSans-74" d="M 1172 4494 
L 1172 3500 
L 2356 3500 
L 2356 3053 
L 1172 3053 
L 1172 1153 
Q 1172 725 1289 603 
Q 1406 481 1766 481 
L 2356 481 
L 2356 0 
L 1766 0 
Q 1100 0 847 248 
Q 594 497 594 1153 
L 594 3053 
L 172 3053 
L 172 3500 
L 594 3500 
L 594 4494 
L 1172 4494 
z
" transform="scale(0.015625)"/>
       <path id="DejaVuSans-69" d="M 603 3500 
L 1178 3500 
L 1178 0 
L 603 0 
L 603 3500 
z
M 603 4863 
L 1178 4863 
L 1178 4134 
L 603 4134 
L 603 4863 
z
" transform="scale(0.015625)"/>
       <path id="DejaVuSans-76" d="M 191 3500 
L 800 3500 
L 1894 563 
L 2988 3500 
L 3597 3500 
L 2284 0 
L 1503 0 
L 191 3500 
z
" transform="scale(0.015625)"/>
       <path id="DejaVuSans-65" d="M 3597 1894 
L 3597 1613 
L 953 1613 
Q 991 1019 1311 708 
Q 1631 397 2203 397 
Q 2534 397 2845 478 
Q 3156 559 3463 722 
L 3463 178 
Q 3153 47 2828 -22 
Q 2503 -91 2169 -91 
Q 1331 -91 842 396 
Q 353 884 353 1716 
Q 353 2575 817 3079 
Q 1281 3584 2069 3584 
Q 2775 3584 3186 3129 
Q 3597 2675 3597 1894 
z
M 3022 2063 
Q 3016 2534 2758 2815 
Q 2500 3097 2075 3097 
Q 1594 3097 1305 2825 
Q 1016 2553 972 2059 
L 3022 2063 
z
" transform="scale(0.015625)"/>
       <path id="DejaVuSans-20" transform="scale(0.015625)"/>
       <path id="DejaVuSans-79" d="M 2059 -325 
Q 1816 -950 1584 -1140 
Q 1353 -1331 966 -1331 
L 506 -1331 
L 506 -850 
L 844 -850 
Q 1081 -850 1212 -737 
Q 1344 -625 1503 -206 
L 1606 56 
L 191 3500 
L 800 3500 
L 1894 763 
L 2988 3500 
L 3597 3500 
L 2059 -325 
z
" transform="scale(0.015625)"/>
       <path id="DejaVuSans-73" d="M 2834 3397 
L 2834 2853 
Q 2591 2978 2328 3040 
Q 2066 3103 1784 3103 
Q 1356 3103 1142 2972 
Q 928 2841 928 2578 
Q 928 2378 1081 2264 
Q 1234 2150 1697 2047 
L 1894 2003 
Q 2506 1872 2764 1633 
Q 3022 1394 3022 966 
Q 3022 478 2636 193 
Q 2250 -91 1575 -91 
Q 1294 -91 989 -36 
Q 684 19 347 128 
L 347 722 
Q 666 556 975 473 
Q 1284 391 1588 391 
Q 1994 391 2212 530 
Q 2431 669 2431 922 
Q 2431 1156 2273 1281 
Q 2116 1406 1581 1522 
L 1381 1569 
Q 847 1681 609 1914 
Q 372 2147 372 2553 
Q 372 3047 722 3315 
Q 1072 3584 1716 3584 
Q 2034 3584 2315 3537 
Q 2597 3491 2834 3397 
z
" transform="scale(0.015625)"/>
       <path id="DejaVuSans-66" d="M 2375 4863 
L 2375 4384 
L 1825 4384 
Q 1516 4384 1395 4259 
Q 1275 4134 1275 3809 
L 1275 3500 
L 2222 3500 
L 2222 3053 
L 1275 3053 
L 1275 0 
L 697 0 
L 697 3053 
L 147 3053 
L 147 3500 
L 697 3500 
L 697 3744 
Q 697 4328 969 4595 
Q 1241 4863 1831 4863 
L 2375 4863 
z
" transform="scale(0.015625)"/>
      </defs>
      <use xlink:href="#DejaVuSans-63"/>
      <use xlink:href="#DejaVuSans-75" x="54.980469"/>
      <use xlink:href="#DejaVuSans-6d" x="118.359375"/>
      <use xlink:href="#DejaVuSans-75" x="215.771484"/>
      <use xlink:href="#DejaVuSans-6c" x="279.150391"/>
      <use xlink:href="#DejaVuSans-61" x="306.933594"/>
      <use xlink:href="#DejaVuSans-74" x="368.212891"/>
      <use xlink:href="#DejaVuSans-69" x="407.421875"/>
      <use xlink:href="#DejaVuSans-76" x="435.205078"/>
      <use xlink:href="#DejaVuSans-65" x="494.384766"/>
      <use xlink:href="#DejaVuSans-20" x="555.908203"/>
      <use xlink:href="#DejaVuSans-74" x="587.695312"/>
      <use xlink:href="#DejaVuSans-69" x="626.904297"/>
      <use xlink:href="#DejaVuSans-6d" x="654.6875"/>
      <use xlink:href="#DejaVuSans-65" x="752.099609"/>
      <use xlink:href="#DejaVuSans-6c" x="813.623047"/>
      <use xlink:href="#DejaVuSans-79" x="841.40625"/>
      <use xlink:href="#DejaVuSans-20" x="900.585938"/>
      <use xlink:href="#DejaVuSans-74" x="932.373047"/>
      <use xlink:href="#DejaVuSans-72" x="971.582031"/>
      <use xlink:href="#DejaVuSans-61" x="1012.695312"/>
      <use xlink:href="#DejaVuSans-6e" x="1073.974609"/>
      <use xlink:href="#DejaVuSans-73" x="1137.353516"/>
      <use xlink:href="#DejaVuSans-66" x="1189.453125"/>
      <use xlink:href="#DejaVuSans-65" x="1224.658203"/>
      <use xlink:href="#DejaVuSans-72" x="1286.181641"/>
      <use xlink:href="#DejaVuSans-20" x="1327.294922"/>
      <use xlink:href="#DejaVuSans-72" x="1359.082031"/>
      <use xlink:href="#DejaVuSans-61" x="1400.195312"/>
      <use xlink:href="#DejaVuSans-74" x="1461.474609"/>
      <use xlink:href="#DejaVuSans-65" x="1500.683594"/>
     </g>
    </g>
   </g>
   <g id="line2d_29">
    <path d="M 77.427273 36.121818 
L 83.088493 36.121818 
L 83.218636 45.269975 
L 83.283708 45.224119 
L 83.609065 44.990727 
L 84.129637 77.267795 
L 84.324852 81.682261 
L 84.454995 81.317778 
L 84.650209 85.528482 
L 85.040638 83.954375 
L 85.10571 88.305469 
L 85.170781 87.694419 
L 85.561211 85.011924 
L 86.146854 81.261058 
L 86.992784 75.157145 
L 87.903785 70.3851 
L 88.098999 69.713125 
L 88.359285 77.057705 
L 88.424357 76.798726 
L 88.814786 75.527313 
L 89.660715 72.557387 
L 90.441573 70.07533 
L 90.636788 69.644567 
L 90.701859 71.920433 
L 90.766931 71.674984 
L 91.743003 68.465054 
L 91.808075 70.723054 
L 91.873146 70.504867 
L 94.345863 62.500412 
L 96.298008 57.605442 
L 97.66451 55.332834 
L 98.185082 54.63752 
L 98.250153 54.57029 
L 98.380296 56.247447 
L 98.445368 56.17694 
L 98.835797 55.580835 
L 99.096083 58.850927 
L 99.226226 58.723275 
L 99.42144 61.565564 
L 100.787942 59.493899 
L 101.048228 63.911755 
L 101.1133 63.831927 
L 101.178371 65.185154 
L 101.243443 65.104264 
L 101.438657 64.71796 
L 102.41473 62.735732 
L 103.325731 61.341288 
L 103.651088 60.92807 
L 103.71616 61.76016 
L 103.781231 61.683248 
L 103.911374 61.52206 
L 103.976446 62.064199 
L 104.041517 61.962401 
L 104.757304 60.921557 
L 105.538162 59.730922 
L 105.603233 60.556989 
L 105.668305 60.497695 
L 106.188877 59.822253 
L 106.253948 60.380358 
L 106.31902 60.319847 
L 106.77452 59.837141 
L 106.839592 60.386638 
L 106.904663 60.326486 
L 108.336236 58.563687 
L 108.401308 58.913875 
L 108.466379 58.849588 
L 109.312309 57.852372 
L 109.572595 58.66074 
L 109.637666 58.597119 
L 109.702738 58.849515 
L 109.767809 58.797097 
L 110.353453 58.259597 
L 110.418524 58.538617 
L 110.483596 58.481991 
L 111.915169 57.359699 
L 113.28167 56.233519 
L 113.411813 56.859685 
L 113.476885 56.806159 
L 113.541956 56.761141 
L 113.607028 57.084694 
L 113.672099 57.050624 
L 114.518029 56.479337 
L 114.648172 57.069295 
L 114.713244 57.029072 
L 115.949602 56.304026 
L 116.144817 57.127285 
L 116.405103 57.016416 
L 116.600317 58.025224 
L 116.73046 57.940321 
L 116.795532 58.159517 
L 116.860603 58.132595 
L 117.381175 57.756153 
L 117.901747 58.689467 
L 117.966819 58.634789 
L 118.682605 58.229215 
L 118.747677 58.731228 
L 118.812748 58.684978 
L 119.853892 58.154235 
L 120.049107 59.8677 
L 120.114178 59.830167 
L 120.960108 59.191688 
L 121.025179 59.771899 
L 121.090251 59.721331 
L 121.93618 59.125777 
L 122.912253 58.469906 
L 122.977324 58.645747 
L 123.042396 58.614422 
L 123.107467 58.574012 
L 123.172539 58.968613 
L 123.23761 58.940097 
L 124.799326 57.944162 
L 124.864398 58.365653 
L 124.929469 58.335731 
L 125.580184 57.912953 
L 125.775399 58.15767 
L 127.011757 57.482723 
L 127.1419 57.511349 
L 127.206972 57.488927 
L 127.337115 58.23227 
L 127.402186 58.187789 
L 128.313187 57.708515 
L 128.508402 58.313646 
L 129.549546 57.757013 
L 129.744761 58.232585 
L 130.265333 57.978956 
L 130.330404 58.1809 
L 130.395476 58.1585 
L 130.850976 57.896118 
L 130.916048 58.185105 
L 130.981119 58.154694 
L 131.176334 58.066879 
L 131.241405 58.425954 
L 131.306477 58.391981 
L 132.282549 58.002758 
L 132.347621 57.970242 
L 132.412692 58.378414 
L 132.477764 58.343997 
L 132.73805 58.312469 
L 133.518908 57.899326 
L 133.583979 58.256027 
L 133.649051 58.222251 
L 134.690195 57.732124 
L 134.755266 58.045389 
L 134.820338 58.018129 
L 134.885409 58.000736 
L 134.950481 58.184771 
L 135.015552 58.154298 
L 136.447125 57.477183 
L 136.512197 57.698279 
L 136.577268 57.664824 
L 138.789699 56.720789 
L 138.854771 57.067606 
L 138.919842 57.044866 
L 139.440414 56.825521 
L 139.505486 57.356198 
L 139.570557 57.329516 
L 140.416487 56.989023 
L 140.481558 57.125238 
L 140.54663 57.651705 
L 140.611701 57.620125 
L 141.457631 57.268215 
L 141.522702 57.459524 
L 141.587774 57.431089 
L 142.238489 57.177069 
L 142.30356 57.38882 
L 142.368632 57.359034 
L 143.474848 56.944533 
L 143.539919 57.237804 
L 143.604991 57.212492 
L 144.646135 56.839262 
L 144.776278 56.914929 
L 146.012636 56.636744 
L 146.142779 56.721292 
L 146.858566 56.465833 
L 147.05378 56.778535 
L 150.112141 55.935297 
L 150.177212 56.121499 
L 150.242284 56.097591 
L 150.307355 56.075573 
L 150.372427 56.471353 
L 150.437498 56.450217 
L 151.023142 56.270178 
L 151.153285 56.371472 
L 152.519786 55.991268 
L 152.584858 56.29739 
L 152.649929 56.28096 
L 152.975287 56.186488 
L 153.10543 56.333597 
L 153.430787 56.233339 
L 153.56093 56.384635 
L 155.448004 55.843126 
L 155.643218 56.04624 
L 156.293933 55.85956 
L 156.424076 56.020424 
L 158.831722 55.424186 
L 158.961865 55.619653 
L 160.003009 55.324227 
L 160.133152 55.512192 
L 160.653724 55.365156 
L 160.783867 55.495936 
L 161.434582 55.351349 
L 161.564725 55.561185 
L 163.256584 55.122373 
L 164.297728 54.86163 
L 164.427871 54.828453 
L 164.623086 55.149641 
L 165.208729 54.996738 
L 165.338872 55.111011 
L 165.599158 55.135894 
L 165.729301 55.208824 
L 166.249873 55.167676 
L 169.828806 55.162065 
L 541.972727 55.210426 
L 541.972727 55.210426 
" clip-path="url(#pb55e8ae424)" style="fill: none; stroke: #1f77b4; stroke-width: 1.8; stroke-linecap: square"/>
   </g>
   <g id="line2d_30">
    <path d="M 77.427273 206.031441 
L 77.622487 75.611516 
L 77.882773 55.395148 
L 78.012916 64.911499 
L 78.077988 62.184381 
L 78.143059 86.215862 
L 78.208131 82.135804 
L 78.273202 86.902274 
L 78.403345 80.892752 
L 78.468417 82.737593 
L 78.858846 71.175125 
L 78.923917 69.632008 
L 79.119132 72.80685 
L 79.314346 69.27575 
L 79.379418 71.894003 
L 79.444489 70.814903 
L 79.574632 68.806032 
L 79.639704 69.517847 
L 79.704775 71.78748 
L 79.769847 70.766805 
L 79.965061 68.065846 
L 80.095204 69.77858 
L 80.225347 69.713172 
L 80.420562 67.614248 
L 80.485633 69.302965 
L 80.550705 68.682604 
L 80.941134 65.192672 
L 81.006205 66.715065 
L 81.071277 66.165059 
L 81.591849 62.692047 
L 81.65692 62.266571 
L 81.721992 63.199816 
L 81.787063 62.846014 
L 82.047349 61.308741 
L 82.177492 63.121232 
L 82.437778 61.699327 
L 82.567921 62.853289 
L 82.698064 62.202456 
L 82.763136 64.702142 
L 82.828207 64.340262 
L 82.893279 64.02311 
L 82.95835 64.702737 
L 83.023422 64.424326 
L 83.413851 62.603826 
L 83.478922 63.235405 
L 83.543994 62.969314 
L 83.739208 62.130641 
L 83.80428 63.615436 
L 83.869351 63.365947 
L 83.999494 62.804213 
L 84.064566 63.563547 
L 84.129637 63.32118 
L 84.194709 63.048936 
L 84.454995 65.083044 
L 84.585138 64.59426 
L 84.650209 65.378022 
L 84.715281 65.130778 
L 84.845424 64.660627 
L 84.910495 65.153139 
L 84.975567 64.9249 
L 85.170781 64.21296 
L 85.235853 65.274562 
L 85.300924 65.048796 
L 85.365996 64.863312 
L 85.496139 66.027824 
L 85.626282 68.142935 
L 85.691354 67.918524 
L 86.146854 66.319823 
L 86.276997 67.385882 
L 86.667426 66.097162 
L 86.732498 66.83818 
L 86.797569 66.609203 
L 86.862641 66.439067 
L 87.057855 67.661907 
L 87.318141 66.869203 
L 87.383213 67.290478 
L 87.448284 67.106946 
L 87.578427 66.722545 
L 87.643499 67.170179 
L 87.70857 66.963316 
L 87.773642 66.791857 
L 87.838713 67.686653 
L 87.903785 67.475557 
L 87.968856 67.276567 
L 88.098999 68.180593 
L 88.164071 68.004045 
L 88.424357 69.176697 
L 88.489428 69.009504 
L 88.619571 68.66178 
L 88.684643 68.861532 
L 88.749714 68.667712 
L 88.814786 69.202609 
L 88.879857 69.009061 
L 88.944929 69.116491 
L 89.335358 68.349064 
L 89.400429 68.806428 
L 89.465501 68.618118 
L 89.530572 68.425657 
L 89.595644 69.194632 
L 89.660715 69.03695 
L 89.85593 68.572797 
L 90.116216 69.256097 
L 90.246359 68.92553 
L 90.31143 69.316893 
L 90.376502 69.144834 
L 90.441573 68.970565 
L 90.571716 69.957806 
L 90.701859 69.653684 
L 90.766931 69.835443 
L 91.092288 69.068248 
L 91.222431 69.896275 
L 91.287503 69.770891 
L 91.417646 69.445439 
L 91.547789 69.729033 
L 91.938218 68.875452 
L 92.003289 69.307147 
L 92.068361 69.152646 
L 92.523861 68.239808 
L 92.588933 68.482481 
L 92.654004 68.379346 
L 92.849219 67.984805 
L 92.979362 68.231305 
L 93.109505 67.961026 
L 93.174576 68.533478 
L 93.239648 68.396527 
L 93.369791 68.116493 
L 93.565005 69.077272 
L 93.630077 68.93987 
L 94.150649 68.163661 
L 94.21572 68.398528 
L 94.280792 68.303982 
L 94.931507 67.103701 
L 95.126721 68.089331 
L 95.191793 67.960354 
L 95.321936 67.71955 
L 95.387007 68.499095 
L 95.452079 68.388959 
L 95.582222 68.14001 
L 95.647293 68.827566 
L 95.712365 68.719382 
L 95.777436 68.944933 
L 95.842508 68.841372 
L 95.907579 68.715994 
L 96.167865 69.387191 
L 96.232937 69.573404 
L 96.298008 69.470441 
L 96.36308 69.348557 
L 96.428151 69.473802 
L 96.493223 69.9477 
L 96.558294 69.823893 
L 96.81858 69.37031 
L 96.948723 70.065275 
L 97.599438 68.996454 
L 97.729581 69.785425 
L 97.794653 69.701019 
L 97.859724 69.936221 
L 97.924796 69.824362 
L 98.250153 69.302663 
L 98.315225 69.474652 
L 98.380296 69.366624 
L 98.640582 68.957476 
L 98.770725 69.351123 
L 98.835797 69.26313 
L 98.96594 69.060427 
L 99.031011 69.312392 
L 99.096083 69.220668 
L 99.551583 68.55384 
L 99.746798 68.949758 
L 100.007084 68.5587 
L 100.072156 68.884714 
L 100.137227 68.781136 
L 100.26737 68.602009 
L 100.462585 68.980227 
L 100.527656 68.890605 
L 100.592728 69.261329 
L 100.657799 69.17033 
L 100.722871 69.344386 
L 100.787942 69.255878 
L 100.983157 68.98759 
L 101.048228 69.282757 
L 101.1133 69.198932 
L 101.373586 68.86346 
L 101.438657 68.983484 
L 101.503729 68.887566 
L 102.349658 67.821415 
L 102.41473 68.117486 
L 102.479801 68.036813 
L 102.544873 67.947426 
L 102.740087 68.298664 
L 102.805159 68.209529 
L 102.87023 68.809056 
L 102.935302 68.74453 
L 103.000373 68.815334 
L 103.065445 68.729719 
L 103.325731 68.416607 
L 103.390802 68.586608 
L 103.455874 68.497858 
L 103.846303 68.217888 
L 103.976446 68.487323 
L 104.041517 68.416293 
L 104.106589 68.549847 
L 104.17166 68.486766 
L 104.301803 68.322942 
L 104.366875 68.477507 
L 104.431946 68.394128 
L 105.01759 67.738587 
L 105.408019 67.273049 
L 105.47309 67.631295 
L 105.538162 67.568518 
L 105.668305 67.427737 
L 105.733376 67.692035 
L 105.798448 67.620813 
L 106.058734 67.345217 
L 106.123805 67.607051 
L 106.188877 67.539591 
L 106.579306 67.100827 
L 106.644377 67.255634 
L 106.709449 67.184197 
L 107.555378 66.323736 
L 107.62045 66.403811 
L 107.685521 66.337357 
L 107.815664 66.21245 
L 107.880736 66.440504 
L 107.945807 66.372955 
L 108.010879 66.313602 
L 108.206093 66.745115 
L 108.791737 66.174185 
L 108.856808 66.278095 
L 108.92188 66.213757 
L 109.312309 65.86176 
L 109.37738 66.183292 
L 109.442452 66.115674 
L 109.702738 65.860739 
L 109.767809 66.016282 
L 109.832881 65.952847 
L 109.897952 65.887481 
L 110.028095 66.071978 
L 110.808953 65.387198 
L 110.874025 65.482128 
L 110.939096 65.422559 
L 111.459668 64.976939 
L 111.589811 65.405951 
L 111.654883 65.346432 
L 111.850097 65.176739 
L 111.915169 65.359986 
L 111.98024 65.301821 
L 112.175455 65.147394 
L 112.240526 65.292602 
L 112.305598 65.233107 
L 112.82617 64.807136 
L 112.891241 64.88729 
L 112.956313 64.831628 
L 113.346742 64.528666 
L 113.411813 64.606245 
L 113.476885 64.550643 
L 114.062528 64.105579 
L 114.1276 64.205472 
L 114.192671 64.162066 
L 114.322815 64.064133 
L 114.387886 64.23806 
L 114.452958 64.185804 
L 114.713244 63.997844 
L 114.778315 64.119407 
L 114.843387 64.06552 
L 115.168744 63.863965 
L 115.233816 63.991296 
L 115.298887 63.951843 
L 115.494102 63.801536 
L 115.689316 64.041482 
L 115.884531 63.894521 
L 115.949602 63.994032 
L 116.014674 63.942613 
L 116.079745 63.891957 
L 116.144817 64.086973 
L 116.209888 64.036218 
L 116.340031 63.945549 
L 116.405103 64.148327 
L 116.470174 64.101813 
L 116.73046 63.908239 
L 116.795532 64.046268 
L 116.860603 63.997562 
L 117.120889 63.816696 
L 117.316104 64.000942 
L 117.901747 63.614015 
L 118.096962 63.748176 
L 118.552462 63.521108 
L 118.617534 63.615832 
L 118.682605 63.568947 
L 118.812748 63.494158 
L 118.87782 63.641433 
L 118.942891 63.595309 
L 119.007963 63.548811 
L 119.073034 63.693182 
L 119.138106 63.647724 
L 119.463463 63.543644 
L 119.528535 63.699174 
L 119.593606 63.654201 
L 119.723749 63.562619 
L 119.984035 63.797144 
L 120.374464 63.546843 
L 120.504607 63.966297 
L 120.569679 63.924524 
L 120.699822 63.836237 
L 120.829965 63.886786 
L 120.895036 63.841885 
L 120.960108 63.939073 
L 121.025179 63.895237 
L 121.415608 63.66359 
L 121.610823 63.8542 
L 121.740966 63.772689 
L 121.806037 64.01898 
L 121.871109 63.977357 
L 122.131395 63.815562 
L 122.261538 63.861099 
L 122.651967 63.75273 
L 122.912253 63.907358 
L 123.367753 63.715778 
L 123.562968 64.136766 
L 123.628039 64.103357 
L 123.693111 64.061345 
L 123.758182 64.234848 
L 123.823254 64.193239 
L 124.213683 64.080133 
L 124.669183 63.93208 
L 124.734255 64.129963 
L 124.799326 64.096421 
L 125.124684 63.897777 
L 125.189755 64.077987 
L 125.254827 64.038765 
L 125.84047 63.773719 
L 126.100756 63.946363 
L 126.621328 63.75521 
L 126.881614 63.61277 
L 126.946686 63.7358 
L 127.011757 63.696192 
L 127.272043 63.553837 
L 127.337115 63.710334 
L 127.402186 63.672399 
L 128.183044 63.242666 
L 128.313187 63.310078 
L 128.378259 63.280661 
L 128.508402 63.359492 
L 128.573473 63.326732 
L 128.768688 63.595497 
L 128.898831 63.608129 
L 129.028974 63.719638 
L 129.28926 63.582759 
L 129.354332 63.710371 
L 129.419403 63.676035 
L 129.549546 63.606777 
L 129.614618 63.754116 
L 129.679689 63.716933 
L 130.070118 63.630719 
L 130.200261 63.635314 
L 130.395476 63.526162 
L 130.655762 63.799323 
L 131.046191 63.586127 
L 131.241405 63.786173 
L 131.761977 63.607419 
L 131.89212 63.62013 
L 132.477764 63.431319 
L 132.607907 63.445102 
L 133.258622 63.237047 
L 133.388765 63.303016 
L 133.779194 63.202346 
L 134.364837 63.321864 
L 134.560052 63.24113 
L 134.690195 63.374611 
L 135.080624 63.244208 
L 135.210767 63.279349 
L 135.405981 63.326449 
L 135.79641 63.215341 
L 135.926553 63.343316 
L 136.056696 63.308106 
L 136.186839 63.422424 
L 136.64234 63.292459 
L 136.837554 63.522537 
L 136.902626 63.502353 
L 137.032769 63.587115 
L 137.878698 63.370326 
L 138.008841 63.432326 
L 138.138984 63.393674 
L 138.269127 63.583253 
L 138.529413 63.521296 
L 138.659556 63.642359 
L 139.115057 63.621015 
L 139.7007 63.563938 
L 140.091129 63.901348 
L 140.54663 63.881684 
L 140.611701 64.153017 
L 140.676773 64.136019 
L 141.262416 64.006987 
L 141.392559 64.152896 
L 141.717917 64.089824 
L 141.978203 64.403117 
L 143.019347 64.346864 
L 143.14949 64.421346 
L 146.663351 64.19123 
L 155.382932 64.253968 
L 279.864716 64.253968 
L 279.864716 64.253968 
" clip-path="url(#pb55e8ae424)" style="fill: none; stroke: #ff7f0e; stroke-width: 1.8; stroke-linecap: square"/>
   </g>
   <g id="line2d_31">
    <path d="M 77.427273 36.121818 
L 77.622487 36.121818 
L 77.947845 73.8719 
L 78.273202 61.100527 
L 78.59856 54.265268 
L 78.858846 74.700724 
L 78.988989 71.457664 
L 79.249275 84.425302 
L 80.095204 69.041086 
L 80.225347 67.525348 
L 80.290419 70.878505 
L 80.35549 69.957088 
L 80.745919 65.997054 
L 81.006205 63.797465 
L 81.071277 66.716917 
L 81.136348 66.158748 
L 81.396634 64.154013 
L 81.461706 64.541068 
L 81.526777 64.092244 
L 81.591849 69.727999 
L 81.65692 69.136792 
L 81.917206 67.368487 
L 82.047349 68.976859 
L 82.177492 68.038143 
L 82.242564 69.91319 
L 82.307635 69.787337 
L 82.567921 68.034234 
L 82.632993 69.080727 
L 82.698064 68.705418 
L 82.95835 67.030909 
L 83.023422 67.98159 
L 83.088493 67.64499 
L 83.413851 66.031486 
L 83.739208 64.497215 
L 83.80428 64.945772 
L 83.869351 64.684626 
L 84.194709 63.339905 
L 84.25978 64.014974 
L 84.324852 63.720354 
L 84.389923 63.951843 
L 85.170781 61.220966 
L 85.235853 61.773049 
L 85.300924 61.559041 
L 85.821497 59.846365 
L 85.886568 61.450837 
L 85.95164 61.238304 
L 86.016711 61.047687 
L 86.081783 61.590507 
L 86.146854 61.400324 
L 86.211926 61.17685 
L 86.276997 62.058084 
L 86.342069 61.861139 
L 86.40714 61.649208 
L 86.472212 62.444591 
L 86.537283 62.238802 
L 86.797569 61.57385 
L 86.862641 62.291225 
L 86.927712 62.111709 
L 87.513356 60.547848 
L 87.578427 61.600707 
L 87.643499 61.447559 
L 88.164071 60.228684 
L 88.229142 60.224566 
L 88.619571 59.463056 
L 88.684643 60.080715 
L 88.749714 60.068014 
L 89.205215 59.245089 
L 89.335358 60.740768 
L 89.400429 60.595193 
L 89.660715 60.123921 
L 89.725787 60.576699 
L 89.790858 60.431177 
L 89.85593 60.292672 
L 89.921001 60.665693 
L 89.986073 60.518373 
L 90.246359 60.025705 
L 90.31143 60.287314 
L 90.376502 60.146827 
L 90.766931 59.507995 
L 90.832002 60.08609 
L 90.897074 59.968079 
L 91.417646 59.088097 
L 91.482717 59.427324 
L 91.547789 59.328158 
L 91.61286 59.231316 
L 91.677932 59.677273 
L 91.743003 59.567964 
L 92.45879 58.431963 
L 92.523861 58.512117 
L 92.588933 58.418192 
L 92.979362 57.877145 
L 93.304719 59.357488 
L 93.369791 59.271533 
L 93.630077 58.891838 
L 93.695148 59.012657 
L 93.76022 58.91992 
L 93.890363 58.754124 
L 93.955434 59.130316 
L 94.020506 59.045948 
L 94.606149 58.293621 
L 94.671221 58.230427 
L 94.866435 58.864509 
L 95.191793 58.455434 
L 95.387007 59.025563 
L 95.452079 58.928479 
L 95.712365 60.224854 
L 95.777436 60.138925 
L 95.842508 60.323988 
L 95.907579 60.231236 
L 96.102794 59.978058 
L 96.167865 60.17204 
L 96.232937 60.087271 
L 96.298008 60.083065 
L 96.36308 60.38851 
L 96.428151 60.302701 
L 96.81858 59.823614 
L 96.883652 60.018831 
L 96.948723 59.933202 
L 97.469295 59.301108 
L 97.534367 59.773443 
L 97.599438 59.696797 
L 97.729581 59.541845 
L 97.794653 60.137286 
L 97.859724 60.067951 
L 97.989867 59.925219 
L 98.054939 60.384739 
L 98.12001 60.303845 
L 98.380296 59.987658 
L 98.445368 60.460333 
L 98.510439 60.393316 
L 98.640582 60.245933 
L 98.705654 60.572254 
L 98.770725 60.501615 
L 98.96594 60.269749 
L 99.031011 60.691314 
L 99.096083 60.623505 
L 99.42144 60.276049 
L 99.486512 60.355488 
L 99.551583 60.810864 
L 99.616655 60.727231 
L 99.81187 60.53592 
L 99.876941 61.006444 
L 99.942013 60.943252 
L 100.722871 60.105108 
L 100.983157 59.864683 
L 101.048228 59.788944 
L 101.1133 59.878298 
L 101.178371 59.815637 
L 101.373586 60.186977 
L 101.633872 59.919746 
L 101.698943 60.353276 
L 101.764015 60.281824 
L 102.024301 60.021338 
L 102.089372 60.24678 
L 102.154444 60.186466 
L 102.219515 60.129093 
L 102.349658 60.600796 
L 102.41473 60.541152 
L 102.609944 60.469951 
L 102.740087 60.463472 
L 103.651088 59.738213 
L 103.781231 60.57682 
L 104.692232 59.785555 
L 104.757304 60.020305 
L 104.822375 59.970317 
L 105.01759 59.795821 
L 105.082661 59.997295 
L 105.147733 59.936239 
L 105.277876 59.855314 
L 105.342947 60.061917 
L 105.408019 60.001202 
L 105.603233 59.847689 
L 105.668305 60.256179 
L 105.733376 60.19954 
L 106.188877 59.861447 
L 106.253948 59.965698 
L 106.31902 59.907077 
L 107.880736 58.655595 
L 107.945807 58.901943 
L 108.010879 58.847079 
L 108.986951 58.194073 
L 109.052023 58.751708 
L 109.117094 58.699657 
L 109.182166 58.833705 
L 109.247237 58.801175 
L 109.37738 58.706077 
L 109.442452 59.054925 
L 109.507523 59.02037 
L 110.483596 58.359639 
L 111.329525 57.821575 
L 111.394597 57.93454 
L 111.459668 57.893717 
L 111.915169 57.588954 
L 111.98024 57.825488 
L 112.045312 57.783309 
L 112.175455 57.697185 
L 112.240526 57.840507 
L 112.305598 57.797468 
L 113.346742 57.190216 
L 113.476885 57.259869 
L 114.518029 56.701161 
L 115.363959 56.25402 
L 115.42903 56.45627 
L 115.494102 56.419775 
L 115.559173 56.383411 
L 115.624245 56.541077 
L 115.689316 56.510447 
L 116.209888 56.241224 
L 116.27496 56.402736 
L 116.340031 56.367584 
L 117.706533 55.802455 
L 117.771604 56.046559 
L 117.836676 56.014599 
L 118.357248 55.752927 
L 118.487391 55.847621 
L 118.682605 55.74029 
L 118.812748 55.997427 
L 118.87782 55.963306 
L 119.138106 55.941635 
L 119.33332 55.853181 
L 119.398392 56.160404 
L 119.463463 56.12344 
L 119.658678 56.033131 
L 119.723749 56.177157 
L 119.788821 56.143901 
L 120.049107 56.037538 
L 120.17925 56.124425 
L 120.764893 55.85751 
L 120.895036 55.969905 
L 121.48068 55.707663 
L 121.545751 55.910828 
L 121.610823 55.879731 
L 121.871109 55.91736 
L 122.001252 55.973107 
L 123.042396 55.525666 
L 123.23761 55.740078 
L 123.693111 55.571999 
L 123.758182 55.808804 
L 123.823254 55.786647 
L 124.213683 55.63102 
L 124.343826 55.729965 
L 125.124684 55.430918 
L 125.189755 55.682472 
L 125.254827 55.656585 
L 125.645256 55.57689 
L 125.710327 55.776555 
L 125.775399 55.753061 
L 125.970613 55.684394 
L 126.100756 55.74895 
L 126.361042 55.65395 
L 126.751471 56.267039 
L 127.727544 55.911933 
L 127.792615 56.1199 
L 127.857687 56.092914 
L 128.573473 55.840139 
L 128.703616 56.003122 
L 130.330404 55.452262 
L 130.460547 55.540971 
L 131.306477 55.279901 
L 131.43662 55.451691 
L 131.631834 55.390445 
L 131.827049 55.771181 
L 132.347621 55.700427 
L 132.412692 55.685513 
L 132.607907 55.884202 
L 133.128479 55.747419 
L 133.258622 55.865759 
L 133.583979 55.892744 
L 133.779194 55.895466 
L 134.234694 55.833776 
L 134.364837 55.924948 
L 135.601196 55.599269 
L 135.666267 55.884947 
L 135.731339 55.867347 
L 136.64234 55.713485 
L 137.358126 55.643898 
L 137.488269 55.728071 
L 138.594485 55.534932 
L 138.724628 55.680106 
L 139.2452 55.657378 
L 140.091129 55.576993 
L 140.221272 55.64742 
L 142.954275 55.357003 
L 143.14949 55.377034 
L 146.923637 55.082488 
L 147.05378 55.171799 
L 147.314066 55.147441 
L 147.444209 55.253964 
L 149.005925 55.202144 
L 149.136068 55.296894 
L 149.851855 55.328016 
L 149.981998 55.40977 
L 152.910215 55.308253 
L 153.10543 55.368135 
L 157.46522 55.256666 
L 172.561809 55.043862 
L 172.822095 55.075479 
L 183.298607 55.016263 
L 418.857445 55.118569 
L 419.573232 55.129507 
L 476.380653 55.172195 
L 476.380653 55.172195 
" clip-path="url(#pb55e8ae424)" style="fill: none; stroke: #2ca02c; stroke-width: 1.8; stroke-linecap: square"/>
   </g>
   <g id="line2d_32">
    <path d="M 77.427273 249.758182 
L 77.622487 93.091515 
L 77.817702 69.441251 
L 78.208131 54.14573 
L 78.468417 50.225966 
L 78.59856 48.59158 
L 78.663631 60.074453 
L 78.728703 59.089838 
L 78.988989 55.388758 
L 79.05406 64.413016 
L 79.119132 63.270986 
L 79.639704 56.307761 
L 80.095204 53.006143 
L 80.225347 52.399372 
L 80.615776 50.399364 
L 81.006205 48.862601 
L 81.591849 47.180336 
L 81.65692 49.225549 
L 81.721992 49.02244 
L 82.242564 47.552433 
L 82.567921 46.865398 
L 82.95835 46.106198 
L 83.153565 45.738476 
L 83.218636 47.541948 
L 83.283708 47.394553 
L 83.739208 46.620515 
L 83.80428 47.79189 
L 83.869351 47.640306 
L 84.129637 47.145344 
L 84.194709 47.781143 
L 84.25978 47.735226 
L 84.715281 47.018879 
L 85.10571 46.414705 
L 85.170781 47.183466 
L 85.235853 47.077048 
L 85.561211 46.660394 
L 85.626282 47.77883 
L 85.691354 47.693085 
L 86.472212 46.593795 
L 86.732498 46.335655 
L 86.797569 47.06515 
L 86.862641 47.005643 
L 86.992784 46.892026 
L 87.187998 46.657324 
L 87.25307 47.344025 
L 87.318141 47.260181 
L 87.578427 46.992833 
L 87.643499 47.959504 
L 87.70857 47.87215 
L 88.098999 47.463846 
L 88.164071 48.38991 
L 88.229142 48.317621 
L 88.944929 47.54975 
L 89.075072 47.433899 
L 89.140143 48.643865 
L 89.205215 48.567498 
L 89.85593 47.912138 
L 89.921001 48.44452 
L 89.986073 48.376116 
L 90.441573 47.947496 
L 90.506645 49.593024 
L 90.571716 49.535212 
L 91.15736 48.963087 
L 91.938218 48.248374 
L 92.003289 48.198962 
L 92.068361 48.756976 
L 92.133432 48.704212 
L 92.263575 48.585371 
L 92.328647 49.268822 
L 92.393718 49.211243 
L 94.085577 47.883948 
L 94.21572 48.473184 
L 94.280792 48.422185 
L 94.736292 48.078068 
L 94.866435 48.885193 
L 94.931507 48.831593 
L 95.777436 48.231243 
L 95.842508 48.85164 
L 95.907579 48.809509 
L 96.81858 48.189136 
L 97.404224 47.874675 
L 97.469295 48.128372 
L 97.534367 48.085705 
L 98.835797 47.356784 
L 98.900868 47.622374 
L 98.96594 47.588062 
L 99.81187 47.165479 
L 99.876941 47.899855 
L 99.942013 47.863556 
L 101.243443 47.272274 
L 101.308514 47.697942 
L 101.373586 47.658802 
L 102.87023 46.947586 
L 102.935302 46.928923 
L 103.000373 47.799794 
L 103.065445 47.773712 
L 104.106589 47.301109 
L 104.301803 47.224216 
L 104.366875 47.898291 
L 104.431946 47.873793 
L 107.555378 46.830541 
L 107.62045 47.222526 
L 107.685521 47.201507 
L 110.67881 46.158289 
L 110.743882 46.133144 
L 110.808953 46.703931 
L 110.874025 46.679465 
L 112.891241 46.06966 
L 113.997457 45.765848 
L 114.062528 45.992805 
L 114.1276 45.973679 
L 114.778315 45.792194 
L 114.908458 46.020907 
L 115.233816 45.933241 
L 115.298887 46.171839 
L 115.363959 46.150622 
L 117.446247 45.629517 
L 117.57639 45.907212 
L 119.398392 45.464942 
L 119.528535 45.598035 
L 121.220394 45.203201 
L 121.350537 45.358838 
L 124.08354 44.798686 
L 124.213683 45.102781 
L 127.011757 44.626823 
L 127.1419 44.832631 
L 129.28926 44.597528 
L 129.419403 44.861462 
L 130.005047 44.778865 
L 130.13519 44.929338 
L 130.850976 44.820986 
L 130.981119 45.082792 
L 132.152406 44.927268 
L 132.347621 45.265562 
L 133.649051 45.094846 
L 133.779194 45.256411 
L 134.234694 45.275269 
L 134.364837 45.478821 
L 134.560052 45.449756 
L 134.690195 45.635593 
L 135.015552 45.670807 
L 135.145695 45.798856 
L 136.316982 45.661897 
L 136.447125 45.860142 
L 136.772483 45.822665 
L 136.902626 46.062752 
L 137.748555 45.963802 
L 137.878698 46.091359 
L 138.138984 46.063417 
L 138.269127 46.202359 
L 138.854771 46.13713 
L 138.984914 46.314794 
L 140.481558 46.164553 
L 140.611701 46.339281 
L 143.019347 46.114566 
L 143.14949 46.313514 
L 144.45092 46.194279 
L 144.581063 46.290237 
L 147.639424 46.134912 
L 147.769567 46.276945 
L 147.964781 46.260897 
L 148.094924 46.466429 
L 149.20114 46.377071 
L 149.461426 46.606038 
L 149.721712 46.584149 
L 149.851855 46.824974 
L 150.50257 46.86444 
L 150.632713 47.01688 
L 153.040358 46.952759 
L 153.170501 47.040433 
L 153.691073 47.106523 
L 154.211645 47.069273 
L 154.341788 47.216534 
L 154.732217 47.187543 
L 154.86236 47.334329 
L 156.944648 47.198391 
L 157.074791 47.321505 
L 158.115936 47.255385 
L 158.246079 47.352404 
L 158.961865 47.312404 
L 159.092008 47.444565 
L 159.417366 47.422224 
L 159.547509 47.555752 
L 160.068081 47.521786 
L 160.198224 47.702407 
L 162.605869 47.554334 
L 162.801084 47.88028 
L 163.647013 47.832039 
L 163.777156 47.984402 
L 165.338872 47.894436 
L 165.469015 48.036917 
L 170.414449 47.851261 
L 170.609664 47.922733 
L 176.07567 47.671575 
L 176.205813 47.764102 
L 176.466099 47.752119 
L 176.596242 47.865199 
L 178.22303 47.891735 
L 178.418244 47.970382 
L 179.394317 47.937311 
L 179.52446 48.051638 
L 181.541676 48.040652 
L 181.736891 48.108602 
L 185.771324 48.088971 
L 186.03161 48.261334 
L 193.905262 48.154075 
L 194.035405 48.255155 
L 197.679409 48.217505 
L 197.874623 48.31795 
L 200.542555 48.260859 
L 200.672698 48.369705 
L 204.772203 48.381691 
L 205.162632 48.395333 
L 212.645854 48.417909 
L 213.036283 48.434978 
L 228.0678 48.460066 
L 228.393158 48.489095 
L 233.338592 48.54015 
L 233.533807 48.599178 
L 236.006524 48.659503 
L 236.201738 48.708873 
L 241.47253 48.787541 
L 241.667744 48.856582 
L 244.595962 48.912719 
L 244.791177 48.981185 
L 251.753827 49.049678 
L 251.949042 49.098422 
L 255.78826 49.148917 
L 255.983475 49.207238 
L 315.523899 49.31364 
L 315.849257 49.343019 
L 326.195626 49.449737 
L 326.520983 49.479104 
L 330.880774 49.586763 
L 331.271203 49.606335 
L 344.741004 49.712452 
L 345.066361 49.741795 
L 348.45008 49.83841 
L 348.840509 49.857964 
L 354.827087 49.964476 
L 355.152444 49.993797 
L 366.865315 50.098704 
L 367.190672 50.128009 
L 379.619329 50.225156 
L 380.009758 50.244686 
L 390.681485 50.350507 
L 391.071914 50.369327 
L 399.921638 50.475614 
L 400.312067 50.495127 
L 405.19243 50.592677 
L 405.582859 50.61165 
L 420.744519 50.707374 
L 421.004805 50.746369 
L 432.652603 50.85232 
L 433.043033 50.87181 
L 446.708048 50.958589 
L 446.968334 50.997554 
L 453.215198 51.035966 
L 453.215198 51.035966 
" clip-path="url(#pb55e8ae424)" style="fill: none; stroke: #d62728; stroke-width: 1.8; stroke-linecap: square"/>
   </g>
   <g id="line2d_33">
    <path d="M 77.427273 36.121818 
L 77.492344 53.293535 
L 77.557416 47.818495 
L 77.622487 44.357234 
L 77.687559 91.858745 
L 77.75263 83.596566 
L 78.012916 64.459975 
L 78.077988 62.022675 
L 78.143059 69.984925 
L 78.208131 66.998062 
L 78.468417 59.609729 
L 78.533488 64.20446 
L 78.59856 62.620928 
L 79.05406 55.140902 
L 79.574632 50.635209 
L 80.160276 47.423265 
L 80.745919 45.428725 
L 81.396634 43.903259 
L 82.177492 42.6202 
L 83.153565 41.5384 
L 83.999494 40.856578 
L 85.170781 40.131458 
L 86.602355 39.50022 
L 87.903785 39.074594 
L 89.790858 38.61445 
L 92.393718 38.178505 
L 95.387007 37.839785 
L 100.007084 37.489936 
L 106.969735 37.169489 
L 118.227105 36.881554 
L 135.79641 36.652786 
L 154.081502 36.59325 
L 160.91401 36.685422 
L 161.109225 36.73662 
L 176.9216 36.828652 
L 177.181886 36.86958 
L 182.58282 36.941179 
L 182.843106 36.982104 
L 187.137826 37.063892 
L 187.463183 37.094575 
L 193.905262 37.186569 
L 194.165548 37.227465 
L 205.357846 37.329533 
L 206.138704 37.339752 
L 209.522422 37.441899 
L 209.782708 37.503193 
L 215.0535 37.574654 
L 215.313786 37.615503 
L 218.697504 37.697089 
L 218.892719 37.748131 
L 222.341508 37.850065 
L 222.601794 37.89088 
L 225.204654 37.972499 
L 225.530012 38.054101 
L 228.783587 38.145884 
L 229.174016 38.207061 
L 238.088812 38.308697 
L 238.414169 38.33927 
L 242.253388 38.420699 
L 242.578745 38.451262 
L 245.051463 38.542846 
L 245.37682 38.573399 
L 248.500252 38.665012 
L 248.82561 38.715916 
L 253.250472 38.78717 
L 253.510758 38.868589 
L 259.692551 38.959699 
L 260.213123 39.020728 
L 261.579624 39.091917 
L 261.83991 39.132591 
L 270.169062 39.233942 
L 270.559491 39.305086 
L 272.641779 39.396456 
L 272.902065 39.437094 
L 277.587214 39.538584 
L 277.912571 39.569051 
L 283.183363 39.660439 
L 283.378577 39.711201 
L 296.262735 39.792129 
L 296.523021 39.84287 
L 315.003327 39.953656 
L 315.328685 39.984083 
L 323.007122 40.085239 
L 323.33248 40.115654 
L 332.637705 40.216659 
L 333.028134 40.236927 
L 340.901785 40.347692 
L 341.162071 40.418593 
L 348.645294 40.519635 
L 348.970652 40.550008 
L 350.597439 40.651234 
L 350.987868 40.722077 
L 355.868231 40.823142 
L 356.063445 40.873722 
L 360.943808 40.964751 
L 361.46438 41.015314 
L 364.522741 41.106248 
L 364.848098 41.136575 
L 370.964819 41.237585 
L 371.160034 41.288112 
L 375.454753 41.389081 
L 375.715039 41.429487 
L 383.003047 41.520386 
L 383.263333 41.56078 
L 388.469053 41.651649 
L 388.729339 41.692029 
L 391.722629 41.792961 
L 392.113058 41.812929 
L 397.644135 41.893068 
L 397.969493 41.98385 
L 403.891 42.074461 
L 404.151286 42.134956 
L 407.014432 42.245376 
L 407.79529 42.255454 
L 409.812506 42.335991 
L 410.137864 42.446808 
L 412.285223 42.557594 
L 412.610581 42.597873 
L 420.223947 42.678418 
L 420.484233 42.718684 
L 425.689953 42.819164 
L 425.885167 42.869477 
L 432.262174 42.959853 
L 432.52246 43.000089 
L 441.372185 43.089729 
L 441.697542 43.119541 
L 452.369269 43.22967 
L 453.215198 43.24977 
L 458.876419 43.339301 
L 459.201776 43.369257 
L 462.585495 43.459562 
L 462.845781 43.499731 
L 475.014151 43.589723 
L 475.339509 43.65999 
L 483.017946 43.759679 
L 483.213161 43.809846 
L 489.590168 43.909671 
L 489.980597 43.92973 
L 494.535602 44.009756 
L 494.795888 44.049861 
L 504.101113 44.159625 
L 504.361399 44.199712 
L 508.851333 44.308905 
L 509.17669 44.338956 
L 521.149847 44.42795 
L 521.475204 44.518057 
L 528.893355 44.607717 
L 529.153641 44.647747 
L 538.263652 44.747372 
L 538.263652 44.747372 
" clip-path="url(#pb55e8ae424)" style="fill: none; stroke: #9467bd; stroke-width: 1.8; stroke-linecap: square"/>
   </g>
   <g id="patch_3">
    <path d="M 54.2 260.44 
L 54.2 25.44 
" style="fill: none; stroke: #000000; stroke-width: 0.8; stroke-linejoin: miter; stroke-linecap: square"/>
   </g>
   <g id="patch_4">
    <path d="M 565.2 260.44 
L 565.2 25.44 
" style="fill: none; stroke: #000000; stroke-width: 0.8; stroke-linejoin: miter; stroke-linecap: square"/>
   </g>
   <g id="patch_5">
    <path d="M 54.2 260.44 
L 565.2 260.44 
" style="fill: none; stroke: #000000; stroke-width: 0.8; stroke-linejoin: miter; stroke-linecap: square"/>
   </g>
   <g id="patch_6">
    <path d="M 54.2 25.44 
L 565.2 25.44 
" style="fill: none; stroke: #000000; stroke-width: 0.8; stroke-linejoin: miter; stroke-linecap: square"/>
   </g>
   <g id="text_17">
    <!-- Timely Transfer Rate (Cumulative) -->
    <g transform="translate(207.277187 19.44) scale(0.12 -0.12)">
     <defs>
      <path id="DejaVuSans-54" d="M -19 4666 
L 3928 4666 
L 3928 4134 
L 2272 4134 
L 2272 0 
L 1638 0 
L 1638 4134 
L -19 4134 
L -19 4666 
z
" transform="scale(0.015625)"/>
      <path id="DejaVuSans-52" d="M 2841 2188 
Q 3044 2119 3236 1894 
Q 3428 1669 3622 1275 
L 4263 0 
L 3584 0 
L 2988 1197 
Q 2756 1666 2539 1819 
Q 2322 1972 1947 1972 
L 1259 1972 
L 1259 0 
L 628 0 
L 628 4666 
L 2053 4666 
Q 2853 4666 3247 4331 
Q 3641 3997 3641 3322 
Q 3641 2881 3436 2590 
Q 3231 2300 2841 2188 
z
M 1259 4147 
L 1259 2491 
L 2053 2491 
Q 2509 2491 2742 2702 
Q 2975 2913 2975 3322 
Q 2975 3731 2742 3939 
Q 2509 4147 2053 4147 
L 1259 4147 
z
" transform="scale(0.015625)"/>
      <path id="DejaVuSans-28" d="M 1984 4856 
Q 1566 4138 1362 3434 
Q 1159 2731 1159 2009 
Q 1159 1288 1364 580 
Q 1569 -128 1984 -844 
L 1484 -844 
Q 1016 -109 783 600 
Q 550 1309 550 2009 
Q 550 2706 781 3412 
Q 1013 4119 1484 4856 
L 1984 4856 
z
" transform="scale(0.015625)"/>
      <path id="DejaVuSans-43" d="M 4122 4306 
L 4122 3641 
Q 3803 3938 3442 4084 
Q 3081 4231 2675 4231 
Q 1875 4231 1450 3742 
Q 1025 3253 1025 2328 
Q 1025 1406 1450 917 
Q 1875 428 2675 428 
Q 3081 428 3442 575 
Q 3803 722 4122 1019 
L 4122 359 
Q 3791 134 3420 21 
Q 3050 -91 2638 -91 
Q 1578 -91 968 557 
Q 359 1206 359 2328 
Q 359 3453 968 4101 
Q 1578 4750 2638 4750 
Q 3056 4750 3426 4639 
Q 3797 4528 4122 4306 
z
" transform="scale(0.015625)"/>
      <path id="DejaVuSans-29" d="M 513 4856 
L 1013 4856 
Q 1481 4119 1714 3412 
Q 1947 2706 1947 2009 
Q 1947 1309 1714 600 
Q 1481 -109 1013 -844 
L 513 -844 
Q 928 -128 1133 580 
Q 1338 1288 1338 2009 
Q 1338 2731 1133 3434 
Q 928 4138 513 4856 
z
" transform="scale(0.015625)"/>
     </defs>
     <use xlink:href="#DejaVuSans-54"/>
     <use xlink:href="#DejaVuSans-69" x="57.958984"/>
     <use xlink:href="#DejaVuSans-6d" x="85.742188"/>
     <use xlink:href="#DejaVuSans-65" x="183.154297"/>
     <use xlink:href="#DejaVuSans-6c" x="244.677734"/>
     <use xlink:href="#DejaVuSans-79" x="272.460938"/>
     <use xlink:href="#DejaVuSans-20" x="331.640625"/>
     <use xlink:href="#DejaVuSans-54" x="363.427734"/>
     <use xlink:href="#DejaVuSans-72" x="409.761719"/>
     <use xlink:href="#DejaVuSans-61" x="450.875"/>
     <use xlink:href="#DejaVuSans-6e" x="512.154297"/>
     <use xlink:href="#DejaVuSans-73" x="575.533203"/>
     <use xlink:href="#DejaVuSans-66" x="627.632812"/>
     <use xlink:href="#DejaVuSans-65" x="662.837891"/>
     <use xlink:href="#DejaVuSans-72" x="724.361328"/>
     <use xlink:href="#DejaVuSans-20" x="765.474609"/>
     <use xlink:href="#DejaVuSans-52" x="797.261719"/>
     <use xlink:href="#DejaVuSans-61" x="864.494141"/>
     <use xlink:href="#DejaVuSans-74" x="925.773438"/>
     <use xlink:href="#DejaVuSans-65" x="964.982422"/>
     <use xlink:href="#DejaVuSans-20" x="1026.505859"/>
     <use xlink:href="#DejaVuSans-28" x="1058.292969"/>
     <use xlink:href="#DejaVuSans-43" x="1097.306641"/>
     <use xlink:href="#DejaVuSans-75" x="1167.130859"/>
     <use xlink:href="#DejaVuSans-6d" x="1230.509766"/>
     <use xlink:href="#DejaVuSans-75" x="1327.921875"/>
     <use xlink:href="#DejaVuSans-6c" x="1391.300781"/>
     <use xlink:href="#DejaVuSans-61" x="1419.083984"/>
     <use xlink:href="#DejaVuSans-74" x="1480.363281"/>
     <use xlink:href="#DejaVuSans-69" x="1519.572266"/>
     <use xlink:href="#DejaVuSans-76" x="1547.355469"/>
     <use xlink:href="#DejaVuSans-65" x="1606.535156"/>
     <use xlink:href="#DejaVuSans-29" x="1668.058594"/>
    </g>
   </g>
   <g id="legend_1">
    <g id="patch_7">
     <path d="M 480.614062 255.44 
L 558.2 255.44 
Q 560.2 255.44 560.2 253.44 
L 560.2 180.493125 
Q 560.2 178.493125 558.2 178.493125 
L 480.614062 178.493125 
Q 478.614062 178.493125 478.614062 180.493125 
L 478.614062 253.44 
Q 478.614062 255.44 480.614062 255.44 
z
" style="fill: #ffffff; opacity: 0.8; stroke: #cccccc; stroke-linejoin: miter"/>
    </g>
    <g id="line2d_34">
     <path d="M 482.614062 186.591563 
L 492.614062 186.591563 
L 502.614062 186.591563 
" style="fill: none; stroke: #1f77b4; stroke-width: 1.8; stroke-linecap: square"/>
    </g>
    <g id="text_18">
     <!-- sheer -->
     <g transform="translate(510.614062 190.091563) scale(0.1 -0.1)">
      <defs>
       <path id="DejaVuSans-68" d="M 3513 2113 
L 3513 0 
L 2938 0 
L 2938 2094 
Q 2938 2591 2744 2837 
Q 2550 3084 2163 3084 
Q 1697 3084 1428 2787 
Q 1159 2491 1159 1978 
L 1159 0 
L 581 0 
L 581 4863 
L 1159 4863 
L 1159 2956 
Q 1366 3272 1645 3428 
Q 1925 3584 2291 3584 
Q 2894 3584 3203 3211 
Q 3513 2838 3513 2113 
z
" transform="scale(0.015625)"/>
      </defs>
      <use xlink:href="#DejaVuSans-73"/>
      <use xlink:href="#DejaVuSans-68" x="52.099609"/>
      <use xlink:href="#DejaVuSans-65" x="115.478516"/>
      <use xlink:href="#DejaVuSans-65" x="177.001953"/>
      <use xlink:href="#DejaVuSans-72" x="238.525391"/>
     </g>
    </g>
    <g id="line2d_35">
     <path d="M 482.614062 201.269688 
L 492.614062 201.269688 
L 502.614062 201.269688 
" style="fill: none; stroke: #ff7f0e; stroke-width: 1.8; stroke-linecap: square"/>
    </g>
    <g id="text_19">
     <!-- actar -->
     <g transform="translate(510.614062 204.769688) scale(0.1 -0.1)">
      <use xlink:href="#DejaVuSans-61"/>
      <use xlink:href="#DejaVuSans-63" x="61.279297"/>
      <use xlink:href="#DejaVuSans-74" x="116.259766"/>
      <use xlink:href="#DejaVuSans-61" x="155.46875"/>
      <use xlink:href="#DejaVuSans-72" x="216.748047"/>
     </g>
    </g>
    <g id="line2d_36">
     <path d="M 482.614062 215.947813 
L 492.614062 215.947813 
L 502.614062 215.947813 
" style="fill: none; stroke: #2ca02c; stroke-width: 1.8; stroke-linecap: square"/>
    </g>
    <g id="text_20">
     <!-- tfsm_dpc -->
     <g transform="translate(510.614062 219.447813) scale(0.1 -0.1)">
      <defs>
       <path id="DejaVuSans-5f" d="M 3263 -1063 
L 3263 -1509 
L -63 -1509 
L -63 -1063 
L 3263 -1063 
z
" transform="scale(0.015625)"/>
       <path id="DejaVuSans-70" d="M 1159 525 
L 1159 -1331 
L 581 -1331 
L 581 3500 
L 1159 3500 
L 1159 2969 
Q 1341 3281 1617 3432 
Q 1894 3584 2278 3584 
Q 2916 3584 3314 3078 
Q 3713 2572 3713 1747 
Q 3713 922 3314 415 
Q 2916 -91 2278 -91 
Q 1894 -91 1617 61 
Q 1341 213 1159 525 
z
M 3116 1747 
Q 3116 2381 2855 2742 
Q 2594 3103 2138 3103 
Q 1681 3103 1420 2742 
Q 1159 2381 1159 1747 
Q 1159 1113 1420 752 
Q 1681 391 2138 391 
Q 2594 391 2855 752 
Q 3116 1113 3116 1747 
z
" transform="scale(0.015625)"/>
      </defs>
      <use xlink:href="#DejaVuSans-74"/>
      <use xlink:href="#DejaVuSans-66" x="39.208984"/>
      <use xlink:href="#DejaVuSans-73" x="74.414062"/>
      <use xlink:href="#DejaVuSans-6d" x="126.513672"/>
      <use xlink:href="#DejaVuSans-5f" x="223.925781"/>
      <use xlink:href="#DejaVuSans-64" x="273.925781"/>
      <use xlink:href="#DejaVuSans-70" x="337.402344"/>
      <use xlink:href="#DejaVuSans-63" x="400.878906"/>
     </g>
    </g>
    <g id="line2d_37">
     <path d="M 482.614062 230.904063 
L 492.614062 230.904063 
L 502.614062 230.904063 
" style="fill: none; stroke: #d62728; stroke-width: 1.8; stroke-linecap: square"/>
    </g>
    <g id="text_21">
     <!-- dst_woa -->
     <g transform="translate(510.614062 234.404063) scale(0.1 -0.1)">
      <defs>
       <path id="DejaVuSans-77" d="M 269 3500 
L 844 3500 
L 1563 769 
L 2278 3500 
L 2956 3500 
L 3675 769 
L 4391 3500 
L 4966 3500 
L 4050 0 
L 3372 0 
L 2619 2869 
L 1863 0 
L 1184 0 
L 269 3500 
z
" transform="scale(0.015625)"/>
      </defs>
      <use xlink:href="#DejaVuSans-64"/>
      <use xlink:href="#DejaVuSans-73" x="63.476562"/>
      <use xlink:href="#DejaVuSans-74" x="115.576172"/>
      <use xlink:href="#DejaVuSans-5f" x="154.785156"/>
      <use xlink:href="#DejaVuSans-77" x="204.785156"/>
      <use xlink:href="#DejaVuSans-6f" x="286.572266"/>
      <use xlink:href="#DejaVuSans-61" x="347.753906"/>
     </g>
    </g>
    <g id="line2d_38">
     <path d="M 482.614062 245.860313 
L 492.614062 245.860313 
L 502.614062 245.860313 
" style="fill: none; stroke: #9467bd; stroke-width: 1.8; stroke-linecap: square"/>
    </g>
    <g id="text_22">
     <!-- trail -->
     <g transform="translate(510.614062 249.360313) scale(0.1 -0.1)">
      <use xlink:href="#DejaVuSans-74"/>
      <use xlink:href="#DejaVuSans-72" x="39.208984"/>
      <use xlink:href="#DejaVuSans-61" x="80.322266"/>
      <use xlink:href="#DejaVuSans-69" x="141.601562"/>
      <use xlink:href="#DejaVuSans-6c" x="169.384766"/>
     </g>
    </g>
   </g>
  </g>
 </g>
 <defs>
  <clipPath id="pb55e8ae424">
   <rect x="54.2" y="25.44" width="511" height="235"/>
  </clipPath>
 </defs>
</svg>
