<?xml version="1.0" encoding="utf-8" standalone="no"?>
<!DOCTYPE svg PUBLIC "-//W3C//DTD SVG 1.1//EN"
  "http://www.w3.org/Graphics/SVG/1.1/DTD/svg11.dtd">
<svg xmlns:xlink="http://www.w3.org/1999/xlink" width="576pt" height="302.4pt" viewBox="0 0 576 302.4" xmlns="http://www.w3.org/2000/svg" version="1.1">
 <metadata>
  <rdf:RDF xmlns:dc="http://purl.org/dc/elements/1.1/" xmlns:cc="http://creativecommons.org/ns#" xmlns:rdf="http://www.w3.org/1999/02/22-rdf-syntax-ns#">
   <cc:Work>
    <dc:type rdf:resource="http://purl.org/dc/dcmitype/StillImage"/>
    <dc:date>2025-09-06T15:47:12.715440</dc:date>
    <dc:format>image/svg+xml</dc:format>
    <dc:creator>
     <cc:Agent>
      <dc:title>Matplotlib v3.9.4, https://matplotlib.org/</dc:title>
     </cc:Agent>
    </dc:creator>
   </cc:Work>
  </rdf:RDF>
 </metadata>
 <defs>
  <style type="text/css">*{stroke-linejoin: round; stroke-linecap: butt}</style>
 </defs>
 <g id="figure_1">
  <g id="patch_1">
   <path d="M 0 302.4 
L 576 302.4 
L 576 0 
L 0 0 
z
" style="fill: #ffffff"/>
  </g>
  <g id="axes_1">
   <g id="patch_2">
    <path d="M 54.2 260.44 
L 565.2 260.44 
L 565.2 25.44 
L 54.2 25.44 
z
" style="fill: #ffffff"/>
   </g>
   <g id="matplotlib.axis_1">
    <g id="xtick_1">
     <g id="line2d_1">
      <path d="M 77.369623 260.44 
L 77.369623 25.44 
" clip-path="url(#pc1fda5ae8e)" style="fill: none; stroke-dasharray: 2.96,1.28; stroke-dashoffset: 0; stroke: #b0b0b0; stroke-opacity: 0.3; stroke-width: 0.8"/>
     </g>
     <g id="line2d_2">
      <defs>
       <path id="m9cb64276e8" d="M 0 0 
L 0 3.5 
" style="stroke: #000000; stroke-width: 0.8"/>
      </defs>
      <g>
       <use xlink:href="#m9cb64276e8" x="77.369623" y="260.44" style="stroke: #000000; stroke-width: 0.8"/>
      </g>
     </g>
     <g id="text_1">
      <!-- 0 -->
      <g transform="translate(74.188373 275.038438) scale(0.1 -0.1)">
       <defs>
        <path id="DejaVuSans-30" d="M 2034 4250 
Q 1547 4250 1301 3770 
Q 1056 3291 1056 2328 
Q 1056 1369 1301 889 
Q 1547 409 2034 409 
Q 2525 409 2770 889 
Q 3016 1369 3016 2328 
Q 3016 3291 2770 3770 
Q 2525 4250 2034 4250 
z
M 2034 4750 
Q 2819 4750 3233 4129 
Q 3647 3509 3647 2328 
Q 3647 1150 3233 529 
Q 2819 -91 2034 -91 
Q 1250 -91 836 529 
Q 422 1150 422 2328 
Q 422 3509 836 4129 
Q 1250 4750 2034 4750 
z
" transform="scale(0.015625)"/>
       </defs>
       <use xlink:href="#DejaVuSans-30"/>
      </g>
     </g>
    </g>
    <g id="xtick_2">
     <g id="line2d_3">
      <path d="M 135.01984 260.44 
L 135.01984 25.44 
" clip-path="url(#pc1fda5ae8e)" style="fill: none; stroke-dasharray: 2.96,1.28; stroke-dashoffset: 0; stroke: #b0b0b0; stroke-opacity: 0.3; stroke-width: 0.8"/>
     </g>
     <g id="line2d_4">
      <g>
       <use xlink:href="#m9cb64276e8" x="135.01984" y="260.44" style="stroke: #000000; stroke-width: 0.8"/>
      </g>
     </g>
     <g id="text_2">
      <!-- 1000 -->
      <g transform="translate(122.29484 275.038438) scale(0.1 -0.1)">
       <defs>
        <path id="DejaVuSans-31" d="M 794 531 
L 1825 531 
L 1825 4091 
L 703 3866 
L 703 4441 
L 1819 4666 
L 2450 4666 
L 2450 531 
L 3481 531 
L 3481 0 
L 794 0 
L 794 531 
z
" transform="scale(0.015625)"/>
       </defs>
       <use xlink:href="#DejaVuSans-31"/>
       <use xlink:href="#DejaVuSans-30" x="63.623047"/>
       <use xlink:href="#DejaVuSans-30" x="127.246094"/>
       <use xlink:href="#DejaVuSans-30" x="190.869141"/>
      </g>
     </g>
    </g>
    <g id="xtick_3">
     <g id="line2d_5">
      <path d="M 192.670058 260.44 
L 192.670058 25.44 
" clip-path="url(#pc1fda5ae8e)" style="fill: none; stroke-dasharray: 2.96,1.28; stroke-dashoffset: 0; stroke: #b0b0b0; stroke-opacity: 0.3; stroke-width: 0.8"/>
     </g>
     <g id="line2d_6">
      <g>
       <use xlink:href="#m9cb64276e8" x="192.670058" y="260.44" style="stroke: #000000; stroke-width: 0.8"/>
      </g>
     </g>
     <g id="text_3">
      <!-- 2000 -->
      <g transform="translate(179.945058 275.038438) scale(0.1 -0.1)">
       <defs>
        <path id="DejaVuSans-32" d="M 1228 531 
L 3431 531 
L 3431 0 
L 469 0 
L 469 531 
Q 828 903 1448 1529 
Q 2069 2156 2228 2338 
Q 2531 2678 2651 2914 
Q 2772 3150 2772 3378 
Q 2772 3750 2511 3984 
Q 2250 4219 1831 4219 
Q 1534 4219 1204 4116 
Q 875 4013 500 3803 
L 500 4441 
Q 881 4594 1212 4672 
Q 1544 4750 1819 4750 
Q 2544 4750 2975 4387 
Q 3406 4025 3406 3419 
Q 3406 3131 3298 2873 
Q 3191 2616 2906 2266 
Q 2828 2175 2409 1742 
Q 1991 1309 1228 531 
z
" transform="scale(0.015625)"/>
       </defs>
       <use xlink:href="#DejaVuSans-32"/>
       <use xlink:href="#DejaVuSans-30" x="63.623047"/>
       <use xlink:href="#DejaVuSans-30" x="127.246094"/>
       <use xlink:href="#DejaVuSans-30" x="190.869141"/>
      </g>
     </g>
    </g>
    <g id="xtick_4">
     <g id="line2d_7">
      <path d="M 250.320276 260.44 
L 250.320276 25.44 
" clip-path="url(#pc1fda5ae8e)" style="fill: none; stroke-dasharray: 2.96,1.28; stroke-dashoffset: 0; stroke: #b0b0b0; stroke-opacity: 0.3; stroke-width: 0.8"/>
     </g>
     <g id="line2d_8">
      <g>
       <use xlink:href="#m9cb64276e8" x="250.320276" y="260.44" style="stroke: #000000; stroke-width: 0.8"/>
      </g>
     </g>
     <g id="text_4">
      <!-- 3000 -->
      <g transform="translate(237.595276 275.038438) scale(0.1 -0.1)">
       <defs>
        <path id="DejaVuSans-33" d="M 2597 2516 
Q 3050 2419 3304 2112 
Q 3559 1806 3559 1356 
Q 3559 666 3084 287 
Q 2609 -91 1734 -91 
Q 1441 -91 1130 -33 
Q 819 25 488 141 
L 488 750 
Q 750 597 1062 519 
Q 1375 441 1716 441 
Q 2309 441 2620 675 
Q 2931 909 2931 1356 
Q 2931 1769 2642 2001 
Q 2353 2234 1838 2234 
L 1294 2234 
L 1294 2753 
L 1863 2753 
Q 2328 2753 2575 2939 
Q 2822 3125 2822 3475 
Q 2822 3834 2567 4026 
Q 2313 4219 1838 4219 
Q 1578 4219 1281 4162 
Q 984 4106 628 3988 
L 628 4550 
Q 988 4650 1302 4700 
Q 1616 4750 1894 4750 
Q 2613 4750 3031 4423 
Q 3450 4097 3450 3541 
Q 3450 3153 3228 2886 
Q 3006 2619 2597 2516 
z
" transform="scale(0.015625)"/>
       </defs>
       <use xlink:href="#DejaVuSans-33"/>
       <use xlink:href="#DejaVuSans-30" x="63.623047"/>
       <use xlink:href="#DejaVuSans-30" x="127.246094"/>
       <use xlink:href="#DejaVuSans-30" x="190.869141"/>
      </g>
     </g>
    </g>
    <g id="xtick_5">
     <g id="line2d_9">
      <path d="M 307.970493 260.44 
L 307.970493 25.44 
" clip-path="url(#pc1fda5ae8e)" style="fill: none; stroke-dasharray: 2.96,1.28; stroke-dashoffset: 0; stroke: #b0b0b0; stroke-opacity: 0.3; stroke-width: 0.8"/>
     </g>
     <g id="line2d_10">
      <g>
       <use xlink:href="#m9cb64276e8" x="307.970493" y="260.44" style="stroke: #000000; stroke-width: 0.8"/>
      </g>
     </g>
     <g id="text_5">
      <!-- 4000 -->
      <g transform="translate(295.245493 275.038438) scale(0.1 -0.1)">
       <defs>
        <path id="DejaVuSans-34" d="M 2419 4116 
L 825 1625 
L 2419 1625 
L 2419 4116 
z
M 2253 4666 
L 3047 4666 
L 3047 1625 
L 3713 1625 
L 3713 1100 
L 3047 1100 
L 3047 0 
L 2419 0 
L 2419 1100 
L 313 1100 
L 313 1709 
L 2253 4666 
z
" transform="scale(0.015625)"/>
       </defs>
       <use xlink:href="#DejaVuSans-34"/>
       <use xlink:href="#DejaVuSans-30" x="63.623047"/>
       <use xlink:href="#DejaVuSans-30" x="127.246094"/>
       <use xlink:href="#DejaVuSans-30" x="190.869141"/>
      </g>
     </g>
    </g>
    <g id="xtick_6">
     <g id="line2d_11">
      <path d="M 365.620711 260.44 
L 365.620711 25.44 
" clip-path="url(#pc1fda5ae8e)" style="fill: none; stroke-dasharray: 2.96,1.28; stroke-dashoffset: 0; stroke: #b0b0b0; stroke-opacity: 0.3; stroke-width: 0.8"/>
     </g>
     <g id="line2d_12">
      <g>
       <use xlink:href="#m9cb64276e8" x="365.620711" y="260.44" style="stroke: #000000; stroke-width: 0.8"/>
      </g>
     </g>
     <g id="text_6">
      <!-- 5000 -->
      <g transform="translate(352.895711 275.038438) scale(0.1 -0.1)">
       <defs>
        <path id="DejaVuSans-35" d="M 691 4666 
L 3169 4666 
L 3169 4134 
L 1269 4134 
L 1269 2991 
Q 1406 3038 1543 3061 
Q 1681 3084 1819 3084 
Q 2600 3084 3056 2656 
Q 3513 2228 3513 1497 
Q 3513 744 3044 326 
Q 2575 -91 1722 -91 
Q 1428 -91 1123 -41 
Q 819 9 494 109 
L 494 744 
Q 775 591 1075 516 
Q 1375 441 1709 441 
Q 2250 441 2565 725 
Q 2881 1009 2881 1497 
Q 2881 1984 2565 2268 
Q 2250 2553 1709 2553 
Q 1456 2553 1204 2497 
Q 953 2441 691 2322 
L 691 4666 
z
" transform="scale(0.015625)"/>
       </defs>
       <use xlink:href="#DejaVuSans-35"/>
       <use xlink:href="#DejaVuSans-30" x="63.623047"/>
       <use xlink:href="#DejaVuSans-30" x="127.246094"/>
       <use xlink:href="#DejaVuSans-30" x="190.869141"/>
      </g>
     </g>
    </g>
    <g id="xtick_7">
     <g id="line2d_13">
      <path d="M 423.270929 260.44 
L 423.270929 25.44 
" clip-path="url(#pc1fda5ae8e)" style="fill: none; stroke-dasharray: 2.96,1.28; stroke-dashoffset: 0; stroke: #b0b0b0; stroke-opacity: 0.3; stroke-width: 0.8"/>
     </g>
     <g id="line2d_14">
      <g>
       <use xlink:href="#m9cb64276e8" x="423.270929" y="260.44" style="stroke: #000000; stroke-width: 0.8"/>
      </g>
     </g>
     <g id="text_7">
      <!-- 6000 -->
      <g transform="translate(410.545929 275.038438) scale(0.1 -0.1)">
       <defs>
        <path id="DejaVuSans-36" d="M 2113 2584 
Q 1688 2584 1439 2293 
Q 1191 2003 1191 1497 
Q 1191 994 1439 701 
Q 1688 409 2113 409 
Q 2538 409 2786 701 
Q 3034 994 3034 1497 
Q 3034 2003 2786 2293 
Q 2538 2584 2113 2584 
z
M 3366 4563 
L 3366 3988 
Q 3128 4100 2886 4159 
Q 2644 4219 2406 4219 
Q 1781 4219 1451 3797 
Q 1122 3375 1075 2522 
Q 1259 2794 1537 2939 
Q 1816 3084 2150 3084 
Q 2853 3084 3261 2657 
Q 3669 2231 3669 1497 
Q 3669 778 3244 343 
Q 2819 -91 2113 -91 
Q 1303 -91 875 529 
Q 447 1150 447 2328 
Q 447 3434 972 4092 
Q 1497 4750 2381 4750 
Q 2619 4750 2861 4703 
Q 3103 4656 3366 4563 
z
" transform="scale(0.015625)"/>
       </defs>
       <use xlink:href="#DejaVuSans-36"/>
       <use xlink:href="#DejaVuSans-30" x="63.623047"/>
       <use xlink:href="#DejaVuSans-30" x="127.246094"/>
       <use xlink:href="#DejaVuSans-30" x="190.869141"/>
      </g>
     </g>
    </g>
    <g id="xtick_8">
     <g id="line2d_15">
      <path d="M 480.921147 260.44 
L 480.921147 25.44 
" clip-path="url(#pc1fda5ae8e)" style="fill: none; stroke-dasharray: 2.96,1.28; stroke-dashoffset: 0; stroke: #b0b0b0; stroke-opacity: 0.3; stroke-width: 0.8"/>
     </g>
     <g id="line2d_16">
      <g>
       <use xlink:href="#m9cb64276e8" x="480.921147" y="260.44" style="stroke: #000000; stroke-width: 0.8"/>
      </g>
     </g>
     <g id="text_8">
      <!-- 7000 -->
      <g transform="translate(468.196147 275.038438) scale(0.1 -0.1)">
       <defs>
        <path id="DejaVuSans-37" d="M 525 4666 
L 3525 4666 
L 3525 4397 
L 1831 0 
L 1172 0 
L 2766 4134 
L 525 4134 
L 525 4666 
z
" transform="scale(0.015625)"/>
       </defs>
       <use xlink:href="#DejaVuSans-37"/>
       <use xlink:href="#DejaVuSans-30" x="63.623047"/>
       <use xlink:href="#DejaVuSans-30" x="127.246094"/>
       <use xlink:href="#DejaVuSans-30" x="190.869141"/>
      </g>
     </g>
    </g>
    <g id="xtick_9">
     <g id="line2d_17">
      <path d="M 538.571364 260.44 
L 538.571364 25.44 
" clip-path="url(#pc1fda5ae8e)" style="fill: none; stroke-dasharray: 2.96,1.28; stroke-dashoffset: 0; stroke: #b0b0b0; stroke-opacity: 0.3; stroke-width: 0.8"/>
     </g>
     <g id="line2d_18">
      <g>
       <use xlink:href="#m9cb64276e8" x="538.571364" y="260.44" style="stroke: #000000; stroke-width: 0.8"/>
      </g>
     </g>
     <g id="text_9">
      <!-- 8000 -->
      <g transform="translate(525.846364 275.038438) scale(0.1 -0.1)">
       <defs>
        <path id="DejaVuSans-38" d="M 2034 2216 
Q 1584 2216 1326 1975 
Q 1069 1734 1069 1313 
Q 1069 891 1326 650 
Q 1584 409 2034 409 
Q 2484 409 2743 651 
Q 3003 894 3003 1313 
Q 3003 1734 2745 1975 
Q 2488 2216 2034 2216 
z
M 1403 2484 
Q 997 2584 770 2862 
Q 544 3141 544 3541 
Q 544 4100 942 4425 
Q 1341 4750 2034 4750 
Q 2731 4750 3128 4425 
Q 3525 4100 3525 3541 
Q 3525 3141 3298 2862 
Q 3072 2584 2669 2484 
Q 3125 2378 3379 2068 
Q 3634 1759 3634 1313 
Q 3634 634 3220 271 
Q 2806 -91 2034 -91 
Q 1263 -91 848 271 
Q 434 634 434 1313 
Q 434 1759 690 2068 
Q 947 2378 1403 2484 
z
M 1172 3481 
Q 1172 3119 1398 2916 
Q 1625 2713 2034 2713 
Q 2441 2713 2670 2916 
Q 2900 3119 2900 3481 
Q 2900 3844 2670 4047 
Q 2441 4250 2034 4250 
Q 1625 4250 1398 4047 
Q 1172 3844 1172 3481 
z
" transform="scale(0.015625)"/>
       </defs>
       <use xlink:href="#DejaVuSans-38"/>
       <use xlink:href="#DejaVuSans-30" x="63.623047"/>
       <use xlink:href="#DejaVuSans-30" x="127.246094"/>
       <use xlink:href="#DejaVuSans-30" x="190.869141"/>
      </g>
     </g>
    </g>
    <g id="text_10">
     <!-- round -->
     <g transform="translate(295.185937 288.716563) scale(0.1 -0.1)">
      <defs>
       <path id="DejaVuSans-72" d="M 2631 2963 
Q 2534 3019 2420 3045 
Q 2306 3072 2169 3072 
Q 1681 3072 1420 2755 
Q 1159 2438 1159 1844 
L 1159 0 
L 581 0 
L 581 3500 
L 1159 3500 
L 1159 2956 
Q 1341 3275 1631 3429 
Q 1922 3584 2338 3584 
Q 2397 3584 2469 3576 
Q 2541 3569 2628 3553 
L 2631 2963 
z
" transform="scale(0.015625)"/>
       <path id="DejaVuSans-6f" d="M 1959 3097 
Q 1497 3097 1228 2736 
Q 959 2375 959 1747 
Q 959 1119 1226 758 
Q 1494 397 1959 397 
Q 2419 397 2687 759 
Q 2956 1122 2956 1747 
Q 2956 2369 2687 2733 
Q 2419 3097 1959 3097 
z
M 1959 3584 
Q 2709 3584 3137 3096 
Q 3566 2609 3566 1747 
Q 3566 888 3137 398 
Q 2709 -91 1959 -91 
Q 1206 -91 779 398 
Q 353 888 353 1747 
Q 353 2609 779 3096 
Q 1206 3584 1959 3584 
z
" transform="scale(0.015625)"/>
       <path id="DejaVuSans-75" d="M 544 1381 
L 544 3500 
L 1119 3500 
L 1119 1403 
Q 1119 906 1312 657 
Q 1506 409 1894 409 
Q 2359 409 2629 706 
Q 2900 1003 2900 1516 
L 2900 3500 
L 3475 3500 
L 3475 0 
L 2900 0 
L 2900 538 
Q 2691 219 2414 64 
Q 2138 -91 1772 -91 
Q 1169 -91 856 284 
Q 544 659 544 1381 
z
M 1991 3584 
L 1991 3584 
z
" transform="scale(0.015625)"/>
       <path id="DejaVuSans-6e" d="M 3513 2113 
L 3513 0 
L 2938 0 
L 2938 2094 
Q 2938 2591 2744 2837 
Q 2550 3084 2163 3084 
Q 1697 3084 1428 2787 
Q 1159 2491 1159 1978 
L 1159 0 
L 581 0 
L 581 3500 
L 1159 3500 
L 1159 2956 
Q 1366 3272 1645 3428 
Q 1925 3584 2291 3584 
Q 2894 3584 3203 3211 
Q 3513 2838 3513 2113 
z
" transform="scale(0.015625)"/>
       <path id="DejaVuSans-64" d="M 2906 2969 
L 2906 4863 
L 3481 4863 
L 3481 0 
L 2906 0 
L 2906 525 
Q 2725 213 2448 61 
Q 2172 -91 1784 -91 
Q 1150 -91 751 415 
Q 353 922 353 1747 
Q 353 2572 751 3078 
Q 1150 3584 1784 3584 
Q 2172 3584 2448 3432 
Q 2725 3281 2906 2969 
z
M 947 1747 
Q 947 1113 1208 752 
Q 1469 391 1925 391 
Q 2381 391 2643 752 
Q 2906 1113 2906 1747 
Q 2906 2381 2643 2742 
Q 2381 3103 1925 3103 
Q 1469 3103 1208 2742 
Q 947 2381 947 1747 
z
" transform="scale(0.015625)"/>
      </defs>
      <use xlink:href="#DejaVuSans-72"/>
      <use xlink:href="#DejaVuSans-6f" x="38.863281"/>
      <use xlink:href="#DejaVuSans-75" x="100.044922"/>
      <use xlink:href="#DejaVuSans-6e" x="163.423828"/>
      <use xlink:href="#DejaVuSans-64" x="226.802734"/>
     </g>
    </g>
   </g>
   <g id="matplotlib.axis_2">
    <g id="ytick_1">
     <g id="line2d_19">
      <path d="M 54.2 217.712727 
L 565.2 217.712727 
" clip-path="url(#pc1fda5ae8e)" style="fill: none; stroke-dasharray: 2.96,1.28; stroke-dashoffset: 0; stroke: #b0b0b0; stroke-opacity: 0.3; stroke-width: 0.8"/>
     </g>
     <g id="line2d_20">
      <defs>
       <path id="me330103fa0" d="M 0 0 
L -3.5 0 
" style="stroke: #000000; stroke-width: 0.8"/>
      </defs>
      <g>
       <use xlink:href="#me330103fa0" x="54.2" y="217.712727" style="stroke: #000000; stroke-width: 0.8"/>
      </g>
     </g>
     <g id="text_11">
      <!-- 0.80 -->
      <g transform="translate(24.934375 221.511946) scale(0.1 -0.1)">
       <defs>
        <path id="DejaVuSans-2e" d="M 684 794 
L 1344 794 
L 1344 0 
L 684 0 
L 684 794 
z
" transform="scale(0.015625)"/>
       </defs>
       <use xlink:href="#DejaVuSans-30"/>
       <use xlink:href="#DejaVuSans-2e" x="63.623047"/>
       <use xlink:href="#DejaVuSans-38" x="95.410156"/>
       <use xlink:href="#DejaVuSans-30" x="159.033203"/>
      </g>
     </g>
    </g>
    <g id="ytick_2">
     <g id="line2d_21">
      <path d="M 54.2 172.315 
L 565.2 172.315 
" clip-path="url(#pc1fda5ae8e)" style="fill: none; stroke-dasharray: 2.96,1.28; stroke-dashoffset: 0; stroke: #b0b0b0; stroke-opacity: 0.3; stroke-width: 0.8"/>
     </g>
     <g id="line2d_22">
      <g>
       <use xlink:href="#me330103fa0" x="54.2" y="172.315" style="stroke: #000000; stroke-width: 0.8"/>
      </g>
     </g>
     <g id="text_12">
      <!-- 0.85 -->
      <g transform="translate(24.934375 176.114219) scale(0.1 -0.1)">
       <use xlink:href="#DejaVuSans-30"/>
       <use xlink:href="#DejaVuSans-2e" x="63.623047"/>
       <use xlink:href="#DejaVuSans-38" x="95.410156"/>
       <use xlink:href="#DejaVuSans-35" x="159.033203"/>
      </g>
     </g>
    </g>
    <g id="ytick_3">
     <g id="line2d_23">
      <path d="M 54.2 126.917273 
L 565.2 126.917273 
" clip-path="url(#pc1fda5ae8e)" style="fill: none; stroke-dasharray: 2.96,1.28; stroke-dashoffset: 0; stroke: #b0b0b0; stroke-opacity: 0.3; stroke-width: 0.8"/>
     </g>
     <g id="line2d_24">
      <g>
       <use xlink:href="#me330103fa0" x="54.2" y="126.917273" style="stroke: #000000; stroke-width: 0.8"/>
      </g>
     </g>
     <g id="text_13">
      <!-- 0.90 -->
      <g transform="translate(24.934375 130.716491) scale(0.1 -0.1)">
       <defs>
        <path id="DejaVuSans-39" d="M 703 97 
L 703 672 
Q 941 559 1184 500 
Q 1428 441 1663 441 
Q 2288 441 2617 861 
Q 2947 1281 2994 2138 
Q 2813 1869 2534 1725 
Q 2256 1581 1919 1581 
Q 1219 1581 811 2004 
Q 403 2428 403 3163 
Q 403 3881 828 4315 
Q 1253 4750 1959 4750 
Q 2769 4750 3195 4129 
Q 3622 3509 3622 2328 
Q 3622 1225 3098 567 
Q 2575 -91 1691 -91 
Q 1453 -91 1209 -44 
Q 966 3 703 97 
z
M 1959 2075 
Q 2384 2075 2632 2365 
Q 2881 2656 2881 3163 
Q 2881 3666 2632 3958 
Q 2384 4250 1959 4250 
Q 1534 4250 1286 3958 
Q 1038 3666 1038 3163 
Q 1038 2656 1286 2365 
Q 1534 2075 1959 2075 
z
" transform="scale(0.015625)"/>
       </defs>
       <use xlink:href="#DejaVuSans-30"/>
       <use xlink:href="#DejaVuSans-2e" x="63.623047"/>
       <use xlink:href="#DejaVuSans-39" x="95.410156"/>
       <use xlink:href="#DejaVuSans-30" x="159.033203"/>
      </g>
     </g>
    </g>
    <g id="ytick_4">
     <g id="line2d_25">
      <path d="M 54.2 81.519545 
L 565.2 81.519545 
" clip-path="url(#pc1fda5ae8e)" style="fill: none; stroke-dasharray: 2.96,1.28; stroke-dashoffset: 0; stroke: #b0b0b0; stroke-opacity: 0.3; stroke-width: 0.8"/>
     </g>
     <g id="line2d_26">
      <g>
       <use xlink:href="#me330103fa0" x="54.2" y="81.519545" style="stroke: #000000; stroke-width: 0.8"/>
      </g>
     </g>
     <g id="text_14">
      <!-- 0.95 -->
      <g transform="translate(24.934375 85.318764) scale(0.1 -0.1)">
       <use xlink:href="#DejaVuSans-30"/>
       <use xlink:href="#DejaVuSans-2e" x="63.623047"/>
       <use xlink:href="#DejaVuSans-39" x="95.410156"/>
       <use xlink:href="#DejaVuSans-35" x="159.033203"/>
      </g>
     </g>
    </g>
    <g id="ytick_5">
     <g id="line2d_27">
      <path d="M 54.2 36.121818 
L 565.2 36.121818 
" clip-path="url(#pc1fda5ae8e)" style="fill: none; stroke-dasharray: 2.96,1.28; stroke-dashoffset: 0; stroke: #b0b0b0; stroke-opacity: 0.3; stroke-width: 0.8"/>
     </g>
     <g id="line2d_28">
      <g>
       <use xlink:href="#me330103fa0" x="54.2" y="36.121818" style="stroke: #000000; stroke-width: 0.8"/>
      </g>
     </g>
     <g id="text_15">
      <!-- 1.00 -->
      <g transform="translate(24.934375 39.921037) scale(0.1 -0.1)">
       <use xlink:href="#DejaVuSans-31"/>
       <use xlink:href="#DejaVuSans-2e" x="63.623047"/>
       <use xlink:href="#DejaVuSans-30" x="95.410156"/>
       <use xlink:href="#DejaVuSans-30" x="159.033203"/>
      </g>
     </g>
    </g>
    <g id="text_16">
     <!-- cumulative timely transfer rate -->
     <g transform="translate(18.854688 221.048594) rotate(-90) scale(0.1 -0.1)">
      <defs>
       <path id="DejaVuSans-63" d="M 3122 3366 
L 3122 2828 
Q 2878 2963 2633 3030 
Q 2388 3097 2138 3097 
Q 1578 3097 1268 2742 
Q 959 2388 959 1747 
Q 959 1106 1268 751 
Q 1578 397 2138 397 
Q 2388 397 2633 464 
Q 2878 531 3122 666 
L 3122 134 
Q 2881 22 2623 -34 
Q 2366 -91 2075 -91 
Q 1284 -91 818 406 
Q 353 903 353 1747 
Q 353 2603 823 3093 
Q 1294 3584 2113 3584 
Q 2378 3584 2631 3529 
Q 2884 3475 3122 3366 
z
" transform="scale(0.015625)"/>
       <path id="DejaVuSans-6d" d="M 3328 2828 
Q 3544 3216 3844 3400 
Q 4144 3584 4550 3584 
Q 5097 3584 5394 3201 
Q 5691 2819 5691 2113 
L 5691 0 
L 5113 0 
L 5113 2094 
Q 5113 2597 4934 2840 
Q 4756 3084 4391 3084 
Q 3944 3084 3684 2787 
Q 3425 2491 3425 1978 
L 3425 0 
L 2847 0 
L 2847 2094 
Q 2847 2600 2669 2842 
Q 2491 3084 2119 3084 
Q 1678 3084 1418 2786 
Q 1159 2488 1159 1978 
L 1159 0 
L 581 0 
L 581 3500 
L 1159 3500 
L 1159 2956 
Q 1356 3278 1631 3431 
Q 1906 3584 2284 3584 
Q 2666 3584 2933 3390 
Q 3200 3197 3328 2828 
z
" transform="scale(0.015625)"/>
       <path id="DejaVuSans-6c" d="M 603 4863 
L 1178 4863 
L 1178 0 
L 603 0 
L 603 4863 
z
" transform="scale(0.015625)"/>
       <path id="DejaVuSans-61" d="M 2194 1759 
Q 1497 1759 1228 1600 
Q 959 1441 959 1056 
Q 959 750 1161 570 
Q 1363 391 1709 391 
Q 2188 391 2477 730 
Q 2766 1069 2766 1631 
L 2766 1759 
L 2194 1759 
z
M 3341 1997 
L 3341 0 
L 2766 0 
L 2766 531 
Q 2569 213 2275 61 
Q 1981 -91 1556 -91 
Q 1019 -91 701 211 
Q 384 513 384 1019 
Q 384 1609 779 1909 
Q 1175 2209 1959 2209 
L 2766 2209 
L 2766 2266 
Q 2766 2663 2505 2880 
Q 2244 3097 1772 3097 
Q 1472 3097 1187 3025 
Q 903 2953 641 2809 
L 641 3341 
Q 956 3463 1253 3523 
Q 1550 3584 1831 3584 
Q 2591 3584 2966 3190 
Q 3341 2797 3341 1997 
z
" transform="scale(0.015625)"/>
       <path id="DejaVuSans-74" d="M 1172 4494 
L 1172 3500 
L 2356 3500 
L 2356 3053 
L 1172 3053 
L 1172 1153 
Q 1172 725 1289 603 
Q 1406 481 1766 481 
L 2356 481 
L 2356 0 
L 1766 0 
Q 1100 0 847 248 
Q 594 497 594 1153 
L 594 3053 
L 172 3053 
L 172 3500 
L 594 3500 
L 594 4494 
L 1172 4494 
z
" transform="scale(0.015625)"/>
       <path id="DejaVuSans-69" d="M 603 3500 
L 1178 3500 
L 1178 0 
L 603 0 
L 603 3500 
z
M 603 4863 
L 1178 4863 
L 1178 4134 
L 603 4134 
L 603 4863 
z
" transform="scale(0.015625)"/>
       <path id="DejaVuSans-76" d="M 191 3500 
L 800 3500 
L 1894 563 
L 2988 3500 
L 3597 3500 
L 2284 0 
L 1503 0 
L 191 3500 
z
" transform="scale(0.015625)"/>
       <path id="DejaVuSans-65" d="M 3597 1894 
L 3597 1613 
L 953 1613 
Q 991 1019 1311 708 
Q 1631 397 2203 397 
Q 2534 397 2845 478 
Q 3156 559 3463 722 
L 3463 178 
Q 3153 47 2828 -22 
Q 2503 -91 2169 -91 
Q 1331 -91 842 396 
Q 353 884 353 1716 
Q 353 2575 817 3079 
Q 1281 3584 2069 3584 
Q 2775 3584 3186 3129 
Q 3597 2675 3597 1894 
z
M 3022 2063 
Q 3016 2534 2758 2815 
Q 2500 3097 2075 3097 
Q 1594 3097 1305 2825 
Q 1016 2553 972 2059 
L 3022 2063 
z
" transform="scale(0.015625)"/>
       <path id="DejaVuSans-20" transform="scale(0.015625)"/>
       <path id="DejaVuSans-79" d="M 2059 -325 
Q 1816 -950 1584 -1140 
Q 1353 -1331 966 -1331 
L 506 -1331 
L 506 -850 
L 844 -850 
Q 1081 -850 1212 -737 
Q 1344 -625 1503 -206 
L 1606 56 
L 191 3500 
L 800 3500 
L 1894 763 
L 2988 3500 
L 3597 3500 
L 2059 -325 
z
" transform="scale(0.015625)"/>
       <path id="DejaVuSans-73" d="M 2834 3397 
L 2834 2853 
Q 2591 2978 2328 3040 
Q 2066 3103 1784 3103 
Q 1356 3103 1142 2972 
Q 928 2841 928 2578 
Q 928 2378 1081 2264 
Q 1234 2150 1697 2047 
L 1894 2003 
Q 2506 1872 2764 1633 
Q 3022 1394 3022 966 
Q 3022 478 2636 193 
Q 2250 -91 1575 -91 
Q 1294 -91 989 -36 
Q 684 19 347 128 
L 347 722 
Q 666 556 975 473 
Q 1284 391 1588 391 
Q 1994 391 2212 530 
Q 2431 669 2431 922 
Q 2431 1156 2273 1281 
Q 2116 1406 1581 1522 
L 1381 1569 
Q 847 1681 609 1914 
Q 372 2147 372 2553 
Q 372 3047 722 3315 
Q 1072 3584 1716 3584 
Q 2034 3584 2315 3537 
Q 2597 3491 2834 3397 
z
" transform="scale(0.015625)"/>
       <path id="DejaVuSans-66" d="M 2375 4863 
L 2375 4384 
L 1825 4384 
Q 1516 4384 1395 4259 
Q 1275 4134 1275 3809 
L 1275 3500 
L 2222 3500 
L 2222 3053 
L 1275 3053 
L 1275 0 
L 697 0 
L 697 3053 
L 147 3053 
L 147 3500 
L 697 3500 
L 697 3744 
Q 697 4328 969 4595 
Q 1241 4863 1831 4863 
L 2375 4863 
z
" transform="scale(0.015625)"/>
      </defs>
      <use xlink:href="#DejaVuSans-63"/>
      <use xlink:href="#DejaVuSans-75" x="54.980469"/>
      <use xlink:href="#DejaVuSans-6d" x="118.359375"/>
      <use xlink:href="#DejaVuSans-75" x="215.771484"/>
      <use xlink:href="#DejaVuSans-6c" x="279.150391"/>
      <use xlink:href="#DejaVuSans-61" x="306.933594"/>
      <use xlink:href="#DejaVuSans-74" x="368.212891"/>
      <use xlink:href="#DejaVuSans-69" x="407.421875"/>
      <use xlink:href="#DejaVuSans-76" x="435.205078"/>
      <use xlink:href="#DejaVuSans-65" x="494.384766"/>
      <use xlink:href="#DejaVuSans-20" x="555.908203"/>
      <use xlink:href="#DejaVuSans-74" x="587.695312"/>
      <use xlink:href="#DejaVuSans-69" x="626.904297"/>
      <use xlink:href="#DejaVuSans-6d" x="654.6875"/>
      <use xlink:href="#DejaVuSans-65" x="752.099609"/>
      <use xlink:href="#DejaVuSans-6c" x="813.623047"/>
      <use xlink:href="#DejaVuSans-79" x="841.40625"/>
      <use xlink:href="#DejaVuSans-20" x="900.585938"/>
      <use xlink:href="#DejaVuSans-74" x="932.373047"/>
      <use xlink:href="#DejaVuSans-72" x="971.582031"/>
      <use xlink:href="#DejaVuSans-61" x="1012.695312"/>
      <use xlink:href="#DejaVuSans-6e" x="1073.974609"/>
      <use xlink:href="#DejaVuSans-73" x="1137.353516"/>
      <use xlink:href="#DejaVuSans-66" x="1189.453125"/>
      <use xlink:href="#DejaVuSans-65" x="1224.658203"/>
      <use xlink:href="#DejaVuSans-72" x="1286.181641"/>
      <use xlink:href="#DejaVuSans-20" x="1327.294922"/>
      <use xlink:href="#DejaVuSans-72" x="1359.082031"/>
      <use xlink:href="#DejaVuSans-61" x="1400.195312"/>
      <use xlink:href="#DejaVuSans-74" x="1461.474609"/>
      <use xlink:href="#DejaVuSans-65" x="1500.683594"/>
     </g>
    </g>
   </g>
   <g id="line2d_29">
    <path d="M 77.427273 201.204463 
L 77.484923 235.428914 
L 77.542573 220.34448 
L 77.600223 223.63417 
L 77.657874 249.758182 
L 77.888474 182.124559 
L 78.061425 160.878931 
L 78.119075 152.443397 
L 78.176726 158.980354 
L 78.234376 162.617033 
L 78.464977 143.845239 
L 78.926178 109.780382 
L 79.560331 87.1422 
L 80.079183 76.677673 
L 80.828636 67.038964 
L 80.943936 72.002138 
L 81.001586 71.504459 
L 81.174537 69.813213 
L 81.289837 78.621818 
L 81.347488 78.161806 
L 81.520438 76.627322 
L 81.751039 86.923444 
L 81.866339 85.886119 
L 81.92399 89.049746 
L 81.98164 88.522133 
L 82.154591 87.104462 
L 82.385191 93.447749 
L 82.442842 92.923594 
L 82.500492 94.75516 
L 82.558142 93.958735 
L 83.653496 79.878664 
L 83.711146 83.35828 
L 83.768797 82.884773 
L 83.826447 82.436514 
L 83.941747 89.566432 
L 83.999398 89.038497 
L 84.057048 88.743938 
L 84.114698 92.31732 
L 84.172348 91.776285 
L 84.229998 91.456636 
L 84.345299 97.769545 
L 84.402949 97.443367 
L 84.5759 96.172454 
L 84.63355 99.19326 
L 84.6912 98.645634 
L 84.806501 97.759819 
L 84.921801 103.514211 
L 84.979451 103.241761 
L 85.037101 102.665295 
L 85.094752 106.774761 
L 85.152402 106.219376 
L 85.325353 104.02704 
L 85.383003 106.602308 
L 85.440653 105.797565 
L 85.786554 101.656 
L 85.844205 104.067046 
L 85.901855 103.385932 
L 86.536007 97.20313 
L 87.458411 91.456232 
L 87.804312 89.265294 
L 88.150213 87.137873 
L 88.553765 84.144584 
L 88.669065 84.574502 
L 88.957316 83.846879 
L 89.014966 83.924287 
L 89.476168 81.396442 
L 89.533818 81.912423 
L 89.591469 81.506118 
L 89.87972 79.863072 
L 90.05267 81.861644 
L 90.283271 80.795607 
L 90.456222 82.278705 
L 90.629173 84.471615 
L 90.802123 83.419591 
L 90.859773 85.334384 
L 90.917424 85.067228 
L 91.320975 83.024382 
L 92.301029 78.530109 
L 92.992832 75.622235 
L 93.050482 77.379949 
L 93.108132 77.176359 
L 93.742284 74.840746 
L 93.857585 74.447623 
L 93.915235 76.077587 
L 93.972885 75.891798 
L 94.203486 75.12999 
L 94.261136 75.590938 
L 94.318787 75.38073 
L 97.547199 64.694857 
L 97.95075 63.772033 
L 98.123701 65.688704 
L 98.181351 65.559163 
L 98.527252 67.939931 
L 98.584903 67.835195 
L 98.642553 67.912093 
L 98.873154 70.013284 
L 98.930804 70.598369 
L 98.988454 70.471617 
L 99.910858 68.303763 
L 100.141459 70.764448 
L 100.199109 70.66814 
L 100.314409 73.595605 
L 100.372059 73.464479 
L 100.42971 73.338261 
L 100.60266 74.282087 
L 101.294463 72.68715 
L 101.352113 73.022694 
L 101.409763 72.885004 
L 101.813315 72.05516 
L 101.870965 72.62004 
L 101.928615 72.493292 
L 102.389817 71.532045 
L 102.447467 72.34696 
L 102.505117 72.218527 
L 103.369871 70.60941 
L 103.773422 72.526793 
L 104.176974 71.772629 
L 105.387628 69.700348 
L 105.445279 70.377979 
L 105.502929 70.286206 
L 105.618229 70.090414 
L 105.675879 70.280169 
L 105.73353 70.188331 
L 107.520686 67.361469 
L 107.635987 67.189979 
L 107.693637 67.773455 
L 107.751287 67.708886 
L 107.808937 67.634269 
L 107.866588 68.0705 
L 107.924238 67.983902 
L 108.039538 67.857738 
L 108.097189 68.424204 
L 108.154839 68.33977 
L 108.212489 68.245451 
L 108.270139 68.395161 
L 108.327789 68.303465 
L 108.55839 68.051718 
L 108.788991 67.760737 
L 108.904292 68.750498 
L 108.961942 68.688247 
L 109.077242 68.547646 
L 109.250193 69.016463 
L 109.307843 70.154171 
L 109.365493 70.121554 
L 109.653744 69.823928 
L 109.826695 70.470898 
L 110.230247 69.974375 
L 110.287897 70.412087 
L 110.345547 70.346269 
L 110.460847 70.23338 
L 110.633798 71.364575 
L 110.806749 71.126085 
L 110.979699 71.709485 
L 111.556202 70.974687 
L 111.729152 71.800636 
L 112.017403 71.478304 
L 112.248004 72.506256 
L 112.363305 72.377336 
L 112.420955 72.712615 
L 112.478605 72.6452 
L 112.939807 72.116869 
L 112.997457 72.700137 
L 113.055107 72.658177 
L 113.401009 72.384504 
L 113.458659 72.462815 
L 113.516309 72.931519 
L 113.573959 72.895264 
L 114.035161 72.433578 
L 116.225869 69.833494 
L 117.090623 68.943532 
L 117.205923 68.834603 
L 117.263573 69.541244 
L 117.321223 69.476721 
L 118.935429 67.804199 
L 119.16603 68.915168 
L 119.742533 68.538436 
L 119.857833 68.86147 
L 119.915483 68.803225 
L 120.261385 68.500225 
L 120.319035 68.64883 
L 120.376685 68.615146 
L 120.780236 68.260654 
L 120.837887 68.500199 
L 120.895537 68.464828 
L 122.394443 67.141789 
L 122.452093 67.456932 
L 122.509743 67.407143 
L 122.625043 67.303805 
L 122.740344 67.915582 
L 122.797994 67.866908 
L 123.605097 67.195321 
L 123.662747 67.378942 
L 123.720398 67.339114 
L 124.008649 67.088755 
L 124.181599 67.886934 
L 124.23925 67.831912 
L 124.931052 67.29332 
L 124.988702 67.451896 
L 125.046353 67.402018 
L 126.026406 66.657267 
L 126.141707 66.918376 
L 126.199357 66.864397 
L 127.00646 66.303642 
L 127.12176 66.296531 
L 127.179411 66.253944 
L 127.237061 66.372956 
L 127.294711 66.329171 
L 127.698263 66.030952 
L 127.755913 66.328625 
L 127.813563 66.285463 
L 127.986514 66.188798 
L 128.044164 66.424646 
L 128.101814 66.37861 
L 129.139518 65.832945 
L 129.197168 65.987251 
L 129.254818 65.950551 
L 130.004271 65.534188 
L 130.350173 65.312279 
L 130.407823 65.574235 
L 130.465473 65.532348 
L 130.869025 65.371564 
L 130.926675 65.508346 
L 130.984325 65.470828 
L 131.791428 65.0343 
L 131.849078 65.245387 
L 131.906728 65.200392 
L 132.944432 64.557935 
L 133.290334 64.400107 
L 133.347984 64.561025 
L 133.405634 64.535439 
L 134.155087 64.165892 
L 134.212737 64.40858 
L 134.270387 64.37616 
L 134.616289 64.158531 
L 134.673939 64.391866 
L 134.731589 64.362216 
L 135.826943 63.789464 
L 135.884594 63.954067 
L 135.942244 63.922729 
L 136.461096 63.643374 
L 136.518746 63.984846 
L 136.576396 63.943705 
L 136.864647 63.778981 
L 136.922297 63.980891 
L 136.979948 63.955678 
L 137.441149 63.732149 
L 137.4988 63.950935 
L 137.55645 63.933252 
L 138.190602 63.620079 
L 138.248252 63.878184 
L 138.305903 63.858548 
L 138.709454 63.752824 
L 138.940055 64.234726 
L 139.285956 64.060205 
L 139.574207 64.33848 
L 139.689508 64.298637 
L 139.747158 64.56922 
L 139.804808 64.544718 
L 139.977759 64.459072 
L 140.093059 64.537831 
L 140.15071 64.50202 
L 140.20836 64.796147 
L 140.26601 64.770322 
L 140.438961 64.678974 
L 140.554261 64.803959 
L 141.361364 64.422743 
L 141.419014 64.542916 
L 141.476665 64.510932 
L 142.110817 64.223318 
L 143.206171 63.76229 
L 143.321472 63.837224 
L 144.070924 63.490675 
L 144.243875 63.70605 
L 144.589776 63.538902 
L 144.647427 63.674556 
L 144.705077 63.63996 
L 145.223929 63.401374 
L 145.339229 63.481173 
L 146.434583 63.146098 
L 146.492234 63.361347 
L 146.549884 63.341476 
L 147.933489 62.888699 
L 148.048789 62.983421 
L 148.509991 62.809268 
L 148.567641 62.997905 
L 148.625292 62.972326 
L 149.028843 62.80147 
L 149.144144 62.838248 
L 149.835946 62.665089 
L 149.951247 62.796435 
L 150.066547 62.747768 
L 150.124197 62.956068 
L 150.181848 62.933591 
L 151.623103 62.445697 
L 407.993621 62.546503 
L 407.993621 62.546503 
" clip-path="url(#pc1fda5ae8e)" style="fill: none; stroke: #1f77b4; stroke-width: 1.8; stroke-linecap: square"/>
   </g>
   <g id="line2d_30">
    <path d="M 77.427273 36.121818 
L 78.176726 36.121818 
L 78.292026 58.627276 
L 78.349676 57.191104 
L 78.407326 55.90027 
L 78.580277 65.529253 
L 78.810878 61.033849 
L 78.868528 65.757042 
L 78.926178 64.859829 
L 78.983829 63.756959 
L 79.041479 70.092907 
L 79.099129 68.894583 
L 79.214429 66.781834 
L 79.32973 73.475416 
L 79.38738 72.567881 
L 79.848582 65.695195 
L 80.021533 68.244573 
L 80.482734 63.635592 
L 80.655685 62.164843 
L 80.713335 63.265452 
L 80.770985 66.938629 
L 80.828636 66.493207 
L 81.520438 62.28586 
L 81.578088 62.970761 
L 81.635739 62.630334 
L 81.693389 62.246785 
L 81.751039 63.792532 
L 81.808689 63.418844 
L 81.866339 63.072215 
L 81.92399 64.054496 
L 81.98164 63.67393 
L 82.03929 63.345176 
L 82.09694 65.03495 
L 82.154591 64.668742 
L 82.269891 64.032426 
L 82.442842 66.348708 
L 82.558142 65.70461 
L 82.615792 67.200947 
L 82.673443 66.850336 
L 82.904043 65.637368 
L 82.961694 67.086675 
L 83.019344 66.754098 
L 83.076994 66.417227 
L 83.307595 70.051848 
L 83.365245 69.701929 
L 83.480546 69.053906 
L 83.538196 69.912499 
L 83.595846 69.577136 
L 83.826447 68.352758 
L 83.884097 68.951366 
L 83.941747 68.734705 
L 84.057048 68.135509 
L 84.114698 68.429286 
L 84.172348 68.199652 
L 84.402949 67.262218 
L 84.460599 68.170495 
L 84.51825 67.905208 
L 84.6912 67.552717 
L 84.74885 67.890574 
L 84.806501 67.658908 
L 85.152402 66.328559 
L 85.210052 67.087986 
L 85.267702 66.849807 
L 85.325353 66.675624 
L 85.498303 68.785501 
L 86.478357 65.836954 
L 86.536007 66.022386 
L 86.651308 65.614054 
L 86.708958 66.461194 
L 86.766608 66.283203 
L 86.824258 66.086861 
L 86.939559 66.914916 
L 86.997209 66.70882 
L 87.112509 66.342495 
L 87.22781 67.755569 
L 87.28546 67.591107 
L 87.631361 66.61354 
L 87.689011 67.060464 
L 87.746662 66.887168 
L 87.861962 66.527622 
L 88.034913 68.435324 
L 88.323164 67.5597 
L 88.380814 68.064971 
L 88.438464 67.917892 
L 88.726715 67.119824 
L 88.842016 68.102449 
L 88.899666 67.931302 
L 89.130267 67.331197 
L 89.245567 68.002013 
L 89.303218 67.831459 
L 89.360868 67.68159 
L 89.706769 69.589696 
L 89.764419 69.436919 
L 89.82207 69.736232 
L 89.87972 69.632204 
L 90.398572 68.297173 
L 90.629173 69.795215 
L 91.090374 68.663972 
L 91.263325 68.965419 
L 91.320975 68.81695 
L 91.493926 69.734416 
L 91.724527 69.212523 
L 91.897477 70.079515 
L 92.47398 68.827314 
L 92.70458 70.0042 
L 92.877531 69.606964 
L 92.935181 70.017229 
L 92.992832 69.916239 
L 93.108132 69.662562 
L 93.223432 70.869785 
L 93.281083 70.730775 
L 93.338733 70.919628 
L 93.396383 70.786155 
L 93.454033 70.661374 
L 93.511683 71.091071 
L 93.569334 70.978426 
L 93.626984 70.848176 
L 93.684634 71.110433 
L 93.742284 70.974599 
L 94.261136 69.884759 
L 94.318787 70.183016 
L 94.376437 70.071522 
L 94.434087 69.963588 
L 94.491737 70.178628 
L 94.549387 70.055587 
L 94.837638 69.505227 
L 94.895289 69.619673 
L 94.952939 69.495999 
L 95.010589 69.388027 
L 95.068239 69.64134 
L 95.12589 69.526902 
L 95.35649 69.091229 
L 95.414141 69.39482 
L 95.471791 69.28339 
L 95.702392 68.851398 
L 95.760042 69.053906 
L 95.817692 68.944522 
L 95.932993 68.722917 
L 95.990643 69.005134 
L 96.048293 68.893589 
L 96.451845 68.168069 
L 96.509495 68.301802 
L 96.855396 67.733388 
L 96.913046 68.139284 
L 96.970697 68.052135 
L 97.95075 66.490392 
L 98.0084 66.869221 
L 98.066051 66.775331 
L 98.239001 66.535328 
L 98.296652 67.060807 
L 98.354302 66.972853 
L 98.469602 66.791211 
L 98.584903 67.218024 
L 98.642553 67.139181 
L 98.930804 66.732738 
L 98.988454 67.090395 
L 99.046104 67.016358 
L 99.680257 66.107031 
L 99.795557 66.615722 
L 99.853207 66.532053 
L 99.910858 66.448842 
L 99.968508 66.932758 
L 100.026158 66.846035 
L 100.256759 66.529359 
L 100.314409 67.090419 
L 100.372059 67.006527 
L 100.60266 66.689418 
L 100.66031 67.164178 
L 100.717961 67.080443 
L 100.775611 67.007427 
L 100.890911 67.33267 
L 101.006212 67.172054 
L 101.179162 67.563563 
L 101.467414 67.176202 
L 101.525064 67.494717 
L 101.582714 67.415976 
L 101.870965 67.044168 
L 101.928615 67.226169 
L 101.986265 67.161885 
L 102.043916 67.08279 
L 102.101566 67.210646 
L 102.159216 67.143318 
L 102.216866 67.071001 
L 102.274517 67.315127 
L 102.332167 67.239208 
L 102.505117 67.01799 
L 102.620418 67.350925 
L 102.735718 67.213555 
L 102.908669 67.007188 
L 102.966319 67.307941 
L 103.023969 67.23498 
L 103.715772 66.434041 
L 103.888723 66.740887 
L 103.946373 66.670092 
L 104.004023 67.014618 
L 104.061673 66.94269 
L 104.292274 66.675119 
L 104.349924 67.032426 
L 104.407575 66.962215 
L 104.465225 66.89152 
L 104.522875 67.198697 
L 104.580525 67.137436 
L 105.329978 66.274783 
L 105.387628 66.414384 
L 105.445279 66.347459 
L 105.502929 66.284607 
L 105.560579 66.412704 
L 105.618229 66.347696 
L 105.84883 66.09562 
L 105.90648 66.231526 
L 105.964131 66.166241 
L 106.079431 66.046061 
L 106.252382 66.470349 
L 106.310032 66.405377 
L 106.713583 65.967548 
L 106.771234 66.145103 
L 106.828884 66.09347 
L 106.944184 65.97013 
L 107.001834 66.214519 
L 107.059485 66.15249 
L 107.290086 65.925819 
L 107.347736 66.106375 
L 107.405386 66.043869 
L 107.520686 65.923807 
L 107.578337 66.095268 
L 107.635987 66.045805 
L 108.55839 65.238282 
L 108.616041 65.469348 
L 108.673691 65.410674 
L 108.846641 65.246457 
L 108.961942 65.902743 
L 109.077242 65.804328 
L 109.192543 65.688913 
L 109.250193 65.960418 
L 109.307843 65.90196 
L 109.365493 65.845036 
L 109.423144 65.985469 
L 109.480794 65.927303 
L 109.596094 65.812941 
L 109.653744 66.003566 
L 109.711395 65.947086 
L 110.864399 65.050669 
L 110.922049 65.188682 
L 110.979699 65.15282 
L 111.498551 64.863552 
L 111.556202 65.092141 
L 111.613852 65.046352 
L 111.671502 64.998933 
L 111.729152 65.306403 
L 111.786803 65.252761 
L 112.075054 65.013204 
L 112.132704 65.199273 
L 112.190354 65.148803 
L 112.420955 65.048351 
L 112.536255 65.054899 
L 113.170408 64.55054 
L 113.228058 64.861315 
L 113.285708 64.81127 
L 113.343358 64.763078 
L 113.573959 65.152688 
L 114.035161 64.776313 
L 114.092811 64.940261 
L 114.150461 64.899543 
L 114.899914 64.309672 
L 114.957564 64.474201 
L 115.015215 64.429792 
L 115.418766 64.12691 
L 115.476416 64.582666 
L 115.534067 64.536613 
L 115.764668 64.361108 
L 115.822318 64.518696 
L 115.879968 64.479887 
L 116.802371 63.881885 
L 116.860022 64.048705 
L 116.917672 64.004115 
L 117.032972 63.928639 
L 117.090623 64.09392 
L 117.148273 64.055924 
L 118.704829 63.209965 
L 118.820129 63.238721 
L 118.877779 63.197417 
L 118.935429 63.357079 
L 118.99308 63.31939 
L 119.338981 63.100396 
L 119.396631 63.349982 
L 119.454281 63.31135 
L 119.511932 63.272374 
L 119.569582 63.413951 
L 119.627232 63.375847 
L 120.088434 63.195535 
L 120.146084 63.44004 
L 120.203734 63.400636 
L 120.261385 63.360455 
L 120.319035 63.514184 
L 120.376685 63.481543 
L 120.607286 63.332301 
L 120.722586 63.664987 
L 120.837887 63.597384 
L 121.183788 63.379509 
L 121.356739 63.497332 
L 121.875591 63.261063 
L 122.048541 63.618737 
L 122.163842 63.548945 
L 122.394443 64.101339 
L 122.452093 64.063447 
L 122.797994 63.963886 
L 123.662747 63.615954 
L 123.778048 63.68438 
L 124.066299 63.53688 
L 124.123949 63.708916 
L 124.181599 63.676141 
L 124.4122 63.634768 
L 124.527501 63.709986 
L 124.700451 63.617568 
L 124.758101 63.84222 
L 124.815752 63.810925 
L 124.873402 63.784216 
L 125.046353 64.141956 
L 125.853456 63.792359 
L 125.968756 63.962296 
L 126.545258 63.761906 
L 126.660559 63.809443 
L 127.179411 63.695671 
L 127.237061 63.919936 
L 127.294711 63.899601 
L 127.525312 63.822126 
L 127.640612 63.936193 
L 128.101814 63.789202 
L 128.159464 64.012879 
L 128.217115 63.992306 
L 129.024218 63.784773 
L 129.139518 63.879559 
L 129.946621 63.711947 
L 130.061922 63.867931 
L 130.811374 63.736712 
L 130.869025 64.040291 
L 130.926675 64.029071 
L 131.445527 63.936563 
L 131.560827 64.093586 
L 132.25263 63.968286 
L 132.42558 64.06425 
L 133.347984 63.922672 
L 133.520935 63.96627 
L 134.212737 63.960164 
L 135.07749 64.027431 
L 135.192791 64.178772 
L 137.037598 64.106677 
L 141.361364 64.074543 
L 154.909165 64.086735 
L 155.485668 64.098591 
L 351.554058 64.191917 
L 351.554058 64.191917 
" clip-path="url(#pc1fda5ae8e)" style="fill: none; stroke: #ff7f0e; stroke-width: 1.8; stroke-linecap: square"/>
   </g>
   <g id="line2d_31">
    <path d="M 77.427273 36.121818 
L 77.542573 36.121818 
L 77.600223 54.526302 
L 77.657874 51.088102 
L 77.830824 45.612632 
L 77.888474 54.593507 
L 77.946125 53.203452 
L 78.003775 51.391429 
L 78.061425 55.671079 
L 78.119075 54.101116 
L 78.407326 49.092597 
L 78.464977 52.456832 
L 78.522627 51.587332 
L 78.695578 49.288531 
L 78.753228 57.139285 
L 78.810878 56.242695 
L 78.868528 55.398985 
L 78.926178 59.189769 
L 78.983829 58.277859 
L 79.27208 55.156505 
L 79.44503 60.832867 
L 79.733281 57.887852 
L 79.790932 58.532971 
L 79.848582 57.957579 
L 79.906232 57.539936 
L 79.963882 57.969474 
L 80.021533 57.469146 
L 80.079183 59.444426 
L 80.136833 59.000251 
L 80.252133 58.21692 
L 80.309784 60.108382 
L 80.367434 59.573608 
L 80.598035 57.777776 
L 80.713335 62.264231 
L 80.770985 61.871721 
L 81.059236 59.915386 
L 81.116887 60.559926 
L 81.174537 60.15819 
L 81.289837 59.489681 
L 81.347488 59.878601 
L 81.405138 59.614477 
L 81.635739 58.381573 
L 81.693389 58.962362 
L 81.751039 58.596777 
L 81.808689 58.307737 
L 81.866339 59.263827 
L 81.92399 58.929869 
L 82.03929 58.332365 
L 82.154591 62.898783 
L 82.212241 62.558246 
L 82.269891 63.321383 
L 82.327541 62.979111 
L 82.500492 62.133178 
L 82.558142 64.183796 
L 82.615792 63.922105 
L 83.076994 61.666955 
L 83.134644 62.1918 
L 83.192295 61.965168 
L 83.653496 60.234164 
L 83.711146 61.408117 
L 83.768797 61.196992 
L 84.287649 59.245512 
L 84.345299 60.862886 
L 84.402949 60.666849 
L 84.74885 59.513873 
L 84.921801 60.613087 
L 85.037101 60.339147 
L 85.267702 59.538283 
L 85.325353 60.471295 
L 85.383003 60.304176 
L 85.440653 60.13445 
L 85.555953 60.937296 
L 85.613604 60.744314 
L 86.132456 59.310892 
L 86.190106 59.337528 
L 86.247756 59.165496 
L 86.363056 60.856296 
L 86.478357 60.709863 
L 86.939559 59.79536 
L 86.997209 59.651602 
L 87.054859 59.852624 
L 87.112509 59.710042 
L 87.689011 58.369567 
L 87.746662 58.80448 
L 87.804312 58.697056 
L 87.977263 58.54219 
L 88.034913 59.108009 
L 88.092563 59.000292 
L 88.553765 58.237629 
L 88.842016 57.631151 
L 88.957316 59.108009 
L 89.072617 58.867003 
L 89.130267 59.078226 
L 89.187917 58.945548 
L 89.303218 58.74704 
L 89.360868 59.293803 
L 89.418518 59.178022 
L 89.82207 58.382665 
L 89.99502 58.66977 
L 90.05267 58.545535 
L 90.110321 59.360678 
L 90.167971 59.236988 
L 90.225621 59.13369 
L 90.456222 60.53932 
L 90.513872 60.441522 
L 90.975074 59.605293 
L 91.032724 59.729183 
L 91.090374 59.641418 
L 91.148025 59.536119 
L 91.205675 60.640695 
L 91.263325 60.543369 
L 91.320975 60.41957 
L 91.378625 61.116282 
L 91.436276 61.014007 
L 91.493926 60.905352 
L 91.551576 61.151433 
L 91.609226 61.0662 
L 91.724527 60.853513 
L 91.782177 61.525299 
L 91.839827 61.412888 
L 91.897477 61.290095 
L 92.012778 63.173331 
L 92.070428 63.094781 
L 92.301029 62.66057 
L 92.358679 63.02086 
L 92.416329 62.951806 
L 92.64693 62.720143 
L 92.70458 63.228571 
L 92.762231 63.104195 
L 93.165782 62.554265 
L 93.281083 63.283652 
L 93.338733 63.162313 
L 94.203486 61.826589 
L 94.318787 61.639754 
L 94.376437 61.940431 
L 94.434087 61.834734 
L 95.068239 60.953319 
L 95.12589 61.374343 
L 95.18354 61.296159 
L 95.702392 60.583997 
L 95.760042 61.143068 
L 95.817692 61.076086 
L 96.624795 60.006176 
L 96.682445 59.95224 
L 96.797746 60.307792 
L 96.855396 60.234269 
L 96.970697 60.114735 
L 97.028347 60.454589 
L 97.085997 60.384487 
L 97.258948 60.172599 
L 97.316598 60.882853 
L 97.374248 60.831879 
L 97.604849 60.571158 
L 97.662499 60.937178 
L 97.720149 60.895928 
L 97.95075 60.615882 
L 98.0084 60.772989 
L 98.066051 60.716933 
L 98.123701 60.640635 
L 98.181351 60.877336 
L 98.239001 60.819505 
L 98.815504 60.16919 
L 98.873154 60.984848 
L 98.930804 60.911435 
L 98.988454 60.845072 
L 99.046104 61.288854 
L 99.103755 61.220817 
L 99.219055 61.069778 
L 99.449656 62.147833 
L 100.256759 61.196382 
L 100.314409 61.382667 
L 100.372059 61.311137 
L 100.42971 61.244501 
L 100.48736 61.564874 
L 100.54501 61.490709 
L 100.833261 61.184233 
L 101.006212 61.021587 
L 101.063862 61.297151 
L 101.121512 61.224665 
L 101.409763 60.970446 
L 101.467414 61.336747 
L 101.525064 61.268887 
L 101.698014 61.080131 
L 101.755665 61.395538 
L 101.813315 61.346175 
L 102.101566 61.055661 
L 102.159216 61.25822 
L 102.216866 61.206593 
L 102.620418 60.811551 
L 102.793369 61.390933 
L 103.08162 61.212099 
L 103.13927 61.141679 
L 103.19692 61.291405 
L 103.25457 61.225091 
L 103.427521 61.056501 
L 103.485171 61.301541 
L 103.542821 61.234425 
L 104.176974 60.63484 
L 104.234624 60.84994 
L 104.292274 60.80021 
L 104.349924 60.754424 
L 104.407575 61.113162 
L 104.465225 61.048863 
L 104.753476 60.78755 
L 104.811126 61.462608 
L 104.868776 61.405943 
L 104.926427 61.376577 
L 104.984077 61.590086 
L 105.041727 61.528182 
L 105.272328 61.299067 
L 105.329978 61.372342 
L 105.79118 61.097914 
L 105.84883 61.254059 
L 105.90648 61.194056 
L 106.137081 61.133269 
L 106.194731 61.232868 
L 106.252382 61.198584 
L 106.367682 61.094876 
L 106.425332 61.337072 
L 106.482982 61.279443 
L 107.117135 60.737007 
L 107.232435 60.704343 
L 107.924238 60.128355 
L 107.981888 60.473556 
L 108.039538 60.435083 
L 108.788991 59.827584 
L 108.846641 59.976125 
L 108.904292 59.930205 
L 109.250193 59.655328 
L 109.307843 59.757727 
L 109.365493 59.708678 
L 109.826695 59.375068 
L 109.884345 59.675029 
L 109.941996 59.637089 
L 110.057296 59.553344 
L 110.230247 60.103641 
L 111.267951 59.34698 
L 111.325601 59.763957 
L 111.383251 59.714424 
L 111.786803 59.427072 
L 111.844453 59.687413 
L 111.902103 59.64998 
L 112.709206 59.097632 
L 112.824506 59.653077 
L 112.882157 59.608089 
L 112.939807 59.57082 
L 112.997457 60.119606 
L 113.055107 60.081094 
L 113.285708 59.917972 
L 113.343358 60.02079 
L 113.401009 59.98824 
L 115.707017 58.816809 
L 115.764668 59.014028 
L 115.822318 58.979955 
L 116.168219 58.761883 
L 116.225869 58.914218 
L 116.283519 58.88168 
L 121.414389 56.828865 
L 121.58734 56.832507 
L 122.221492 56.582671 
L 122.279142 56.75753 
L 122.336792 56.734677 
L 122.567393 56.638492 
L 122.682694 56.705715 
L 124.2969 56.228301 
L 124.4122 56.36982 
L 124.700451 56.255517 
L 124.815752 56.411931 
L 126.602908 55.805335 
L 126.718209 55.904077 
L 127.986514 55.680568 
L 128.101814 55.765576 
L 129.370119 55.430476 
L 129.485419 55.573732 
L 130.753724 55.266895 
L 131.906728 55.040556 
L 132.19498 54.993886 
L 132.31028 55.181326 
L 135.653993 54.695151 
L 138.190602 54.419528 
L 141.246064 54.175867 
L 145.858081 53.937551 
L 161.30834 53.693071 
L 179.525808 53.641009 
L 182.004768 53.742756 
L 182.235369 53.781671 
L 184.599028 53.884392 
L 184.887279 53.910326 
L 185.463781 54.014046 
L 185.982633 54.026488 
L 187.712139 54.129392 
L 188.115691 54.20714 
L 189.787547 54.296506 
L 190.018148 54.335365 
L 194.284264 54.425222 
L 194.514865 54.464067 
L 199.645734 54.567102 
L 200.164586 54.580046 
L 228.932045 54.670646 
L 229.162646 54.709469 
L 237.406627 54.812436 
L 237.637228 54.851245 
L 302.263122 54.954172 
L 302.436073 55.005899 
L 316.445075 55.068621 
L 316.618026 55.120329 
L 330.281128 55.209971 
L 330.454078 55.261661 
L 335.411997 55.365022 
L 335.584948 55.429611 
L 342.791225 55.532933 
L 343.137126 55.571672 
L 346.480839 55.661483 
L 346.71144 55.713119 
L 351.899959 55.787418 
L 352.07291 55.851933 
L 363.199402 55.941086 
L 363.372353 56.005574 
L 377.727257 56.081789 
L 377.957858 56.120469 
L 382.685176 56.209833 
L 382.915777 56.2485 
L 390.640906 56.323477 
L 390.813856 56.375013 
L 394.272869 56.438834 
L 394.907022 56.477476 
L 399.74964 56.572491 
L 400.037891 56.598234 
L 401.133245 56.597937 
L 401.133245 56.597937 
" clip-path="url(#pc1fda5ae8e)" style="fill: none; stroke: #2ca02c; stroke-width: 1.8; stroke-linecap: square"/>
   </g>
   <g id="line2d_32">
    <path d="M 77.427273 36.121818 
L 77.600223 36.121818 
L 77.657874 86.967273 
L 77.715524 75.598103 
L 77.946125 59.275486 
L 78.176726 52.716288 
L 78.234376 61.282004 
L 78.292026 59.533202 
L 78.637927 52.260114 
L 79.041479 48.15117 
L 79.38738 46.128025 
L 80.252133 43.061983 
L 80.367434 42.763979 
L 80.425084 48.830358 
L 80.482734 48.574715 
L 80.540384 48.325508 
L 80.598035 50.710629 
L 80.655685 50.459315 
L 81.578088 47.296018 
L 81.92399 46.390685 
L 81.98164 49.382006 
L 82.03929 49.222565 
L 82.673443 47.688118 
L 83.019344 47.051885 
L 83.076994 49.78543 
L 83.134644 49.615835 
L 83.192295 49.478408 
L 83.307595 53.087556 
L 83.365245 52.893677 
L 83.826447 51.698823 
L 84.057048 51.220273 
L 84.114698 53.243464 
L 84.172348 53.077671 
L 84.74885 51.850532 
L 84.806501 52.773048 
L 84.864151 52.655133 
L 85.210052 51.908519 
L 85.267702 53.622199 
L 85.325353 53.487069 
L 85.555953 52.957092 
L 85.728904 55.095227 
L 85.786554 54.948493 
L 86.017155 54.523614 
L 86.478357 53.580668 
L 86.536007 53.49759 
L 86.708958 55.928051 
L 87.054859 55.207683 
L 87.112509 56.490615 
L 87.17016 56.368705 
L 88.150213 54.539231 
L 88.380814 54.142052 
L 88.438464 55.136167 
L 88.496115 55.03593 
L 89.014966 54.242449 
L 89.072617 54.148468 
L 89.130267 54.506506 
L 89.187917 54.397407 
L 89.418518 54.032585 
L 89.533818 53.866628 
L 89.591469 54.68307 
L 89.649119 54.604353 
L 90.571522 53.277558 
L 90.629173 54.318468 
L 90.686823 54.235785 
L 93.108132 51.449858 
L 93.972885 50.603327 
L 94.030535 51.156047 
L 94.088186 51.105242 
L 94.376437 50.883259 
L 94.434087 51.639404 
L 94.491737 51.571045 
L 94.549387 51.526087 
L 94.607038 52.256392 
L 94.664688 52.21328 
L 94.895289 52.016525 
L 94.952939 52.933986 
L 95.010589 52.886299 
L 95.068239 52.829073 
L 95.12589 53.584338 
L 95.18354 53.531615 
L 95.24119 53.468216 
L 95.29884 53.975393 
L 95.35649 53.922049 
L 95.471791 53.840315 
L 95.529441 54.72667 
L 95.587091 54.68901 
L 96.163593 54.140963 
L 96.221244 54.899855 
L 96.278894 54.848153 
L 96.567145 54.544732 
L 96.624795 54.970698 
L 96.682445 54.916277 
L 96.797746 54.791115 
L 96.855396 55.124597 
L 96.913046 55.066774 
L 97.028347 54.976616 
L 97.085997 55.610302 
L 97.143647 55.53589 
L 97.547199 55.154367 
L 97.604849 55.601278 
L 97.662499 55.536986 
L 97.95075 55.220917 
L 98.0084 55.871662 
L 98.066051 55.816876 
L 99.219055 54.768779 
L 99.449656 54.55607 
L 99.507306 54.690814 
L 99.564956 54.641309 
L 100.026158 54.255327 
L 100.083808 54.879659 
L 100.141459 54.831729 
L 102.620418 52.925211 
L 103.19692 52.542308 
L 103.25457 52.894539 
L 103.31222 52.865541 
L 104.407575 52.177934 
L 104.465225 52.578885 
L 104.522875 52.540413 
L 104.926427 52.28481 
L 104.984077 52.64848 
L 105.041727 52.617285 
L 105.387628 52.393513 
L 105.445279 52.955868 
L 105.502929 52.93078 
L 105.618229 52.856514 
L 105.675879 53.560087 
L 105.73353 53.521748 
L 106.137081 53.288532 
L 106.310032 54.105163 
L 107.001834 53.682809 
L 107.059485 53.846192 
L 107.117135 53.811826 
L 109.307843 52.65759 
L 109.365493 52.757232 
L 109.423144 52.722361 
L 109.884345 52.455585 
L 109.941996 52.788203 
L 109.999646 52.759186 
L 110.922049 52.310976 
L 110.979699 52.856104 
L 111.03735 52.825549 
L 112.824506 51.975144 
L 112.997457 53.376012 
L 113.112758 53.32885 
L 113.631609 53.093367 
L 113.68926 53.529672 
L 113.74691 53.501162 
L 114.150461 53.324635 
L 114.208112 53.744642 
L 114.265762 53.722817 
L 114.957564 53.410824 
L 115.015215 53.781052 
L 115.072865 53.751349 
L 115.361116 53.629232 
L 115.418766 53.957157 
L 115.476416 53.927028 
L 115.995268 53.69216 
L 116.687071 53.395857 
L 116.744721 53.608159 
L 116.802371 53.581242 
L 116.860022 53.552759 
L 116.975322 54.31001 
L 117.090623 54.262129 
L 117.205923 54.202206 
L 117.263573 54.625057 
L 117.321223 54.590919 
L 118.358927 54.120143 
L 118.531878 54.938144 
L 118.704829 54.851605 
L 118.762479 55.235575 
L 118.820129 55.20936 
L 119.223681 55.037116 
L 119.281331 55.230697 
L 119.338981 55.207768 
L 120.088434 54.881783 
L 120.146084 55.102756 
L 120.203734 55.070504 
L 120.434335 54.970724 
L 120.491985 55.31627 
L 120.549636 55.296355 
L 120.953187 55.150747 
L 121.068488 55.263448 
L 121.76029 55.00439 
L 121.81794 55.311239 
L 121.875591 55.291427 
L 122.106191 55.191776 
L 122.163842 55.356291 
L 122.221492 55.329753 
L 122.625043 55.187865 
L 122.682694 55.369145 
L 122.740344 55.346836 
L 123.547447 55.039079 
L 123.605097 55.293421 
L 123.662747 55.266938 
L 124.066299 55.223554 
L 124.4122 55.094708 
L 124.527501 55.600528 
L 124.585151 55.577987 
L 124.758101 55.517617 
L 124.931052 56.223402 
L 125.046353 56.179671 
L 125.104003 56.447686 
L 125.161653 56.42963 
L 125.219303 56.408804 
L 125.334604 56.488356 
L 125.449904 56.44038 
L 125.680505 57.467711 
L 126.545258 57.152072 
L 126.602908 57.427106 
L 126.660559 57.403366 
L 127.12176 57.241066 
L 127.179411 57.407541 
L 127.237061 57.386483 
L 129.312469 57.050325 
L 129.370119 57.471632 
L 129.427769 57.457433 
L 129.71602 57.368335 
L 129.831321 57.510363 
L 129.946621 57.477426 
L 130.061922 57.698622 
L 130.350173 57.624217 
L 130.580773 58.169972 
L 130.869025 58.096027 
L 130.926675 58.422283 
L 130.984325 58.408558 
L 131.849078 58.208652 
L 131.964379 58.376164 
L 132.483231 58.243387 
L 132.713832 58.64042 
L 132.829132 58.809 
L 133.002083 58.777237 
L 133.059733 59.129379 
L 133.117383 59.109839 
L 134.155087 58.896278 
L 134.270387 59.072198 
L 135.01984 58.91777 
L 135.135141 59.164909 
L 135.365742 59.112591 
L 135.481042 59.339021 
L 135.769293 59.288085 
L 135.884594 59.43082 
L 136.749347 59.275826 
L 136.864647 59.451325 
L 136.922297 59.440547 
L 136.979948 59.706868 
L 137.037598 59.694372 
L 137.095248 59.686316 
L 137.210549 59.800043 
L 137.4988 59.74521 
L 137.6141 59.896247 
L 137.7294 59.872405 
L 137.844701 60.095284 
L 139.113006 59.921873 
L 139.228306 60.171274 
L 139.920109 60.023326 
L 140.035409 60.224264 
L 140.38131 60.148638 
L 140.611911 60.489976 
L 140.784862 60.458527 
L 140.900162 60.624632 
L 142.399068 60.505291 
L 142.514369 60.727592 
L 142.80262 60.675913 
L 142.97557 60.770898 
L 143.379122 60.710105 
L 143.494422 60.928113 
L 144.128575 60.829561 
L 144.243875 61.031006 
L 144.705077 60.961257 
L 144.935678 61.223662 
L 146.261633 61.151588 
L 146.434583 61.229615 
L 146.838135 61.157912 
L 146.953435 61.282004 
L 147.414637 61.215967 
L 147.529937 61.386615 
L 148.10644 61.301868 
L 148.27939 61.387609 
L 148.971193 61.291398 
L 149.086493 61.458101 
L 149.835946 61.357726 
L 149.951247 61.479961 
L 151.911354 61.212873 
L 152.026654 61.361821 
L 152.718457 61.283887 
L 152.891408 61.378786 
L 153.52556 61.298393 
L 153.640861 61.448847 
L 155.255067 61.25322 
L 155.370367 61.415447 
L 156.638672 61.275834 
L 156.811623 61.372795 
L 157.042223 61.345055 
L 157.157524 61.478947 
L 157.388125 61.450759 
L 157.503425 61.597979 
L 157.676376 61.577342 
L 157.964627 61.995396 
L 159.809434 61.860853 
L 160.040035 61.994531 
L 160.385936 62.072208 
L 160.501236 62.199964 
L 160.558887 62.193409 
L 160.789488 62.466738 
L 160.847138 62.454684 
L 161.020088 62.554226 
L 161.827191 62.456355 
L 162.000142 62.557777 
L 163.153147 62.519469 
L 163.383747 62.722773 
L 163.671998 62.786315 
L 163.787299 62.775449 
L 163.96025 62.884224 
L 165.805057 62.770846 
L 167.534563 62.641438 
L 167.707514 62.705574 
L 167.938115 62.68612 
L 168.111065 62.853554 
L 168.514617 62.819479 
L 168.687567 62.933009 
L 170.359424 62.889911 
L 170.532374 63.032126 
L 170.705325 63.094348 
L 171.743029 63.098167 
L 171.91598 63.163983 
L 173.241935 63.066489 
L 173.414885 63.130146 
L 176.931549 63.07817 
L 177.104499 63.141248 
L 179.064607 63.085378 
L 179.237557 63.14962 
L 181.255315 63.086027 
L 181.428266 63.176273 
L 183.157772 63.173837 
L 183.330723 63.327482 
L 184.253126 63.369462 
L 184.426077 63.531389 
L 186.501485 63.461672 
L 186.674435 63.526976 
L 187.94274 63.54568 
L 188.807493 63.561197 
L 188.980444 63.62808 
L 190.59465 63.683575 
L 190.767601 63.738279 
L 191.574704 63.781966 
L 191.747655 63.836193 
L 194.284264 63.803134 
L 194.457215 63.859436 
L 196.705573 63.864191 
L 196.878524 63.933393 
L 205.122505 63.954512 
L 205.295456 63.999277 
L 275.513421 63.653343 
L 391.102107 63.675801 
L 391.102107 63.675801 
" clip-path="url(#pc1fda5ae8e)" style="fill: none; stroke: #d62728; stroke-width: 1.8; stroke-linecap: square"/>
   </g>
   <g id="line2d_33">
    <path d="M 77.427273 75.034156 
L 77.484923 56.150227 
L 77.542573 69.594797 
L 77.773174 49.826792 
L 77.830824 50.885307 
L 77.946125 61.929312 
L 78.061425 61.725742 
L 78.292026 55.221186 
L 78.407326 62.711916 
L 78.464977 61.206816 
L 78.810878 55.231744 
L 79.38738 49.787801 
L 80.021533 46.45954 
L 80.598035 44.607375 
L 81.232187 43.197685 
L 81.98164 42.059001 
L 82.846393 41.115934 
L 84.172348 40.171218 
L 85.555953 39.481578 
L 87.861962 38.756178 
L 90.686823 38.204283 
L 93.511683 37.83715 
L 98.181351 37.456088 
L 107.059485 37.05915 
L 121.068488 36.757923 
L 137.902351 36.630706 
L 141.995517 36.691674 
L 142.226117 36.765951 
L 147.818189 36.852591 
L 148.10644 36.877343 
L 156.23512 36.951589 
L 156.408071 37.001079 
L 159.232932 37.087675 
L 159.521183 37.149518 
L 163.499048 37.22372 
L 163.671998 37.273181 
L 183.388373 37.371831 
L 183.618974 37.408907 
L 187.539189 37.483014 
L 187.712139 37.532435 
L 191.459403 37.618909 
L 191.632354 37.680666 
L 198.43508 37.791694 
L 198.723331 37.816386 
L 204.776604 37.915144 
L 205.064855 37.93983 
L 210.829877 38.050716 
L 211.118128 38.075392 
L 225.645983 38.18625 
L 226.222485 38.198584 
L 232.218107 38.309512 
L 232.506358 38.334171 
L 236.484223 38.408048 
L 236.657174 38.482003 
L 245.592958 38.592611 
L 245.823559 38.62957 
L 250.550877 38.728114 
L 250.839128 38.752747 
L 262.484472 38.863577 
L 263.176274 38.900515 
L 267.845942 38.96207 
L 268.018893 39.023618 
L 275.916972 39.12175 
L 276.205223 39.146358 
L 283.872702 39.256952 
L 284.449205 39.269167 
L 288.196469 39.355257 
L 288.42707 39.392148 
L 289.695374 39.478214 
L 289.868325 39.527388 
L 302.205472 39.637484 
L 302.378422 39.686633 
L 307.04809 39.797148 
L 307.624592 39.809432 
L 321.691245 39.919553 
L 321.979496 39.94411 
L 326.706814 40.029889 
L 326.937415 40.06666 
L 328.782222 40.164841 
L 329.128123 40.201654 
L 337.141504 40.311961 
L 337.429755 40.336494 
L 347.576193 40.446233 
L 347.922094 40.495276 
L 350.458704 40.605484 
L 351.092856 40.629997 
L 372.365787 40.739538 
L 372.942289 40.751789 
L 379.053212 40.849786 
L 379.341463 40.874282 
L 387.931345 40.972253 
L 388.219597 40.996676 
L 391.966861 41.106792 
L 392.716314 41.155754 
L 397.270681 41.253521 
L 397.501282 41.29023 
L 403.669855 41.39998 
L 404.592258 41.485595 
L 408.627774 41.570972 
L 408.858375 41.607651 
L 421.714373 41.692921 
L 421.944974 41.729588 
L 434.22447 41.839029 
L 434.455071 41.87568 
L 438.605887 41.985379 
L 439.182389 41.997592 
L 441.546048 42.107413 
L 441.834299 42.131832 
L 447.656971 42.229494 
L 447.887572 42.266112 
L 455.2668 42.375609 
L 455.497401 42.412213 
L 465.009687 42.521574 
L 465.297938 42.545967 
L 468.295749 42.631069 
L 468.52635 42.667648 
L 469.852305 42.765178 
L 470.140556 42.789558 
L 475.732627 42.874418 
L 475.905578 42.935344 
L 481.555299 43.03281 
L 481.7859 43.069354 
L 483.746007 43.154612 
L 484.034258 43.215501 
L 491.298186 43.275994 
L 491.471137 43.349036 
L 501.559925 43.445912 
L 501.790526 43.482418 
L 507.901449 43.567588 
L 508.132049 43.604084 
L 515.972479 43.701188 
L 516.26073 43.725511 
L 521.045698 43.810321 
L 521.276299 43.846795 
L 531.710989 43.9562 
L 532.287491 43.968354 
L 535.977105 44.077729 
L 536.553607 44.08988 
L 541.972727 44.174712 
L 541.972727 44.174712 
" clip-path="url(#pc1fda5ae8e)" style="fill: none; stroke: #9467bd; stroke-width: 1.8; stroke-linecap: square"/>
   </g>
   <g id="patch_3">
    <path d="M 54.2 260.44 
L 54.2 25.44 
" style="fill: none; stroke: #000000; stroke-width: 0.8; stroke-linejoin: miter; stroke-linecap: square"/>
   </g>
   <g id="patch_4">
    <path d="M 565.2 260.44 
L 565.2 25.44 
" style="fill: none; stroke: #000000; stroke-width: 0.8; stroke-linejoin: miter; stroke-linecap: square"/>
   </g>
   <g id="patch_5">
    <path d="M 54.2 260.44 
L 565.2 260.44 
" style="fill: none; stroke: #000000; stroke-width: 0.8; stroke-linejoin: miter; stroke-linecap: square"/>
   </g>
   <g id="patch_6">
    <path d="M 54.2 25.44 
L 565.2 25.44 
" style="fill: none; stroke: #000000; stroke-width: 0.8; stroke-linejoin: miter; stroke-linecap: square"/>
   </g>
   <g id="text_17">
    <!-- Timely Transfer Rate (Cumulative) -->
    <g transform="translate(207.277187 19.44) scale(0.12 -0.12)">
     <defs>
      <path id="DejaVuSans-54" d="M -19 4666 
L 3928 4666 
L 3928 4134 
L 2272 4134 
L 2272 0 
L 1638 0 
L 1638 4134 
L -19 4134 
L -19 4666 
z
" transform="scale(0.015625)"/>
      <path id="DejaVuSans-52" d="M 2841 2188 
Q 3044 2119 3236 1894 
Q 3428 1669 3622 1275 
L 4263 0 
L 3584 0 
L 2988 1197 
Q 2756 1666 2539 1819 
Q 2322 1972 1947 1972 
L 1259 1972 
L 1259 0 
L 628 0 
L 628 4666 
L 2053 4666 
Q 2853 4666 3247 4331 
Q 3641 3997 3641 3322 
Q 3641 2881 3436 2590 
Q 3231 2300 2841 2188 
z
M 1259 4147 
L 1259 2491 
L 2053 2491 
Q 2509 2491 2742 2702 
Q 2975 2913 2975 3322 
Q 2975 3731 2742 3939 
Q 2509 4147 2053 4147 
L 1259 4147 
z
" transform="scale(0.015625)"/>
      <path id="DejaVuSans-28" d="M 1984 4856 
Q 1566 4138 1362 3434 
Q 1159 2731 1159 2009 
Q 1159 1288 1364 580 
Q 1569 -128 1984 -844 
L 1484 -844 
Q 1016 -109 783 600 
Q 550 1309 550 2009 
Q 550 2706 781 3412 
Q 1013 4119 1484 4856 
L 1984 4856 
z
" transform="scale(0.015625)"/>
      <path id="DejaVuSans-43" d="M 4122 4306 
L 4122 3641 
Q 3803 3938 3442 4084 
Q 3081 4231 2675 4231 
Q 1875 4231 1450 3742 
Q 1025 3253 1025 2328 
Q 1025 1406 1450 917 
Q 1875 428 2675 428 
Q 3081 428 3442 575 
Q 3803 722 4122 1019 
L 4122 359 
Q 3791 134 3420 21 
Q 3050 -91 2638 -91 
Q 1578 -91 968 557 
Q 359 1206 359 2328 
Q 359 3453 968 4101 
Q 1578 4750 2638 4750 
Q 3056 4750 3426 4639 
Q 3797 4528 4122 4306 
z
" transform="scale(0.015625)"/>
      <path id="DejaVuSans-29" d="M 513 4856 
L 1013 4856 
Q 1481 4119 1714 3412 
Q 1947 2706 1947 2009 
Q 1947 1309 1714 600 
Q 1481 -109 1013 -844 
L 513 -844 
Q 928 -128 1133 580 
Q 1338 1288 1338 2009 
Q 1338 2731 1133 3434 
Q 928 4138 513 4856 
z
" transform="scale(0.015625)"/>
     </defs>
     <use xlink:href="#DejaVuSans-54"/>
     <use xlink:href="#DejaVuSans-69" x="57.958984"/>
     <use xlink:href="#DejaVuSans-6d" x="85.742188"/>
     <use xlink:href="#DejaVuSans-65" x="183.154297"/>
     <use xlink:href="#DejaVuSans-6c" x="244.677734"/>
     <use xlink:href="#DejaVuSans-79" x="272.460938"/>
     <use xlink:href="#DejaVuSans-20" x="331.640625"/>
     <use xlink:href="#DejaVuSans-54" x="363.427734"/>
     <use xlink:href="#DejaVuSans-72" x="409.761719"/>
     <use xlink:href="#DejaVuSans-61" x="450.875"/>
     <use xlink:href="#DejaVuSans-6e" x="512.154297"/>
     <use xlink:href="#DejaVuSans-73" x="575.533203"/>
     <use xlink:href="#DejaVuSans-66" x="627.632812"/>
     <use xlink:href="#DejaVuSans-65" x="662.837891"/>
     <use xlink:href="#DejaVuSans-72" x="724.361328"/>
     <use xlink:href="#DejaVuSans-20" x="765.474609"/>
     <use xlink:href="#DejaVuSans-52" x="797.261719"/>
     <use xlink:href="#DejaVuSans-61" x="864.494141"/>
     <use xlink:href="#DejaVuSans-74" x="925.773438"/>
     <use xlink:href="#DejaVuSans-65" x="964.982422"/>
     <use xlink:href="#DejaVuSans-20" x="1026.505859"/>
     <use xlink:href="#DejaVuSans-28" x="1058.292969"/>
     <use xlink:href="#DejaVuSans-43" x="1097.306641"/>
     <use xlink:href="#DejaVuSans-75" x="1167.130859"/>
     <use xlink:href="#DejaVuSans-6d" x="1230.509766"/>
     <use xlink:href="#DejaVuSans-75" x="1327.921875"/>
     <use xlink:href="#DejaVuSans-6c" x="1391.300781"/>
     <use xlink:href="#DejaVuSans-61" x="1419.083984"/>
     <use xlink:href="#DejaVuSans-74" x="1480.363281"/>
     <use xlink:href="#DejaVuSans-69" x="1519.572266"/>
     <use xlink:href="#DejaVuSans-76" x="1547.355469"/>
     <use xlink:href="#DejaVuSans-65" x="1606.535156"/>
     <use xlink:href="#DejaVuSans-29" x="1668.058594"/>
    </g>
   </g>
   <g id="legend_1">
    <g id="patch_7">
     <path d="M 480.614062 255.44 
L 558.2 255.44 
Q 560.2 255.44 560.2 253.44 
L 560.2 180.493125 
Q 560.2 178.493125 558.2 178.493125 
L 480.614062 178.493125 
Q 478.614062 178.493125 478.614062 180.493125 
L 478.614062 253.44 
Q 478.614062 255.44 480.614062 255.44 
z
" style="fill: #ffffff; opacity: 0.8; stroke: #cccccc; stroke-linejoin: miter"/>
    </g>
    <g id="line2d_34">
     <path d="M 482.614062 186.591563 
L 492.614062 186.591563 
L 502.614062 186.591563 
" style="fill: none; stroke: #1f77b4; stroke-width: 1.8; stroke-linecap: square"/>
    </g>
    <g id="text_18">
     <!-- sheer -->
     <g transform="translate(510.614062 190.091563) scale(0.1 -0.1)">
      <defs>
       <path id="DejaVuSans-68" d="M 3513 2113 
L 3513 0 
L 2938 0 
L 2938 2094 
Q 2938 2591 2744 2837 
Q 2550 3084 2163 3084 
Q 1697 3084 1428 2787 
Q 1159 2491 1159 1978 
L 1159 0 
L 581 0 
L 581 4863 
L 1159 4863 
L 1159 2956 
Q 1366 3272 1645 3428 
Q 1925 3584 2291 3584 
Q 2894 3584 3203 3211 
Q 3513 2838 3513 2113 
z
" transform="scale(0.015625)"/>
      </defs>
      <use xlink:href="#DejaVuSans-73"/>
      <use xlink:href="#DejaVuSans-68" x="52.099609"/>
      <use xlink:href="#DejaVuSans-65" x="115.478516"/>
      <use xlink:href="#DejaVuSans-65" x="177.001953"/>
      <use xlink:href="#DejaVuSans-72" x="238.525391"/>
     </g>
    </g>
    <g id="line2d_35">
     <path d="M 482.614062 201.269688 
L 492.614062 201.269688 
L 502.614062 201.269688 
" style="fill: none; stroke: #ff7f0e; stroke-width: 1.8; stroke-linecap: square"/>
    </g>
    <g id="text_19">
     <!-- actar -->
     <g transform="translate(510.614062 204.769688) scale(0.1 -0.1)">
      <use xlink:href="#DejaVuSans-61"/>
      <use xlink:href="#DejaVuSans-63" x="61.279297"/>
      <use xlink:href="#DejaVuSans-74" x="116.259766"/>
      <use xlink:href="#DejaVuSans-61" x="155.46875"/>
      <use xlink:href="#DejaVuSans-72" x="216.748047"/>
     </g>
    </g>
    <g id="line2d_36">
     <path d="M 482.614062 215.947813 
L 492.614062 215.947813 
L 502.614062 215.947813 
" style="fill: none; stroke: #2ca02c; stroke-width: 1.8; stroke-linecap: square"/>
    </g>
    <g id="text_20">
     <!-- tfsm_dpc -->
     <g transform="translate(510.614062 219.447813) scale(0.1 -0.1)">
      <defs>
       <path id="DejaVuSans-5f" d="M 3263 -1063 
L 3263 -1509 
L -63 -1509 
L -63 -1063 
L 3263 -1063 
z
" transform="scale(0.015625)"/>
       <path id="DejaVuSans-70" d="M 1159 525 
L 1159 -1331 
L 581 -1331 
L 581 3500 
L 1159 3500 
L 1159 2969 
Q 1341 3281 1617 3432 
Q 1894 3584 2278 3584 
Q 2916 3584 3314 3078 
Q 3713 2572 3713 1747 
Q 3713 922 3314 415 
Q 2916 -91 2278 -91 
Q 1894 -91 1617 61 
Q 1341 213 1159 525 
z
M 3116 1747 
Q 3116 2381 2855 2742 
Q 2594 3103 2138 3103 
Q 1681 3103 1420 2742 
Q 1159 2381 1159 1747 
Q 1159 1113 1420 752 
Q 1681 391 2138 391 
Q 2594 391 2855 752 
Q 3116 1113 3116 1747 
z
" transform="scale(0.015625)"/>
      </defs>
      <use xlink:href="#DejaVuSans-74"/>
      <use xlink:href="#DejaVuSans-66" x="39.208984"/>
      <use xlink:href="#DejaVuSans-73" x="74.414062"/>
      <use xlink:href="#DejaVuSans-6d" x="126.513672"/>
      <use xlink:href="#DejaVuSans-5f" x="223.925781"/>
      <use xlink:href="#DejaVuSans-64" x="273.925781"/>
      <use xlink:href="#DejaVuSans-70" x="337.402344"/>
      <use xlink:href="#DejaVuSans-63" x="400.878906"/>
     </g>
    </g>
    <g id="line2d_37">
     <path d="M 482.614062 230.904063 
L 492.614062 230.904063 
L 502.614062 230.904063 
" style="fill: none; stroke: #d62728; stroke-width: 1.8; stroke-linecap: square"/>
    </g>
    <g id="text_21">
     <!-- dst_woa -->
     <g transform="translate(510.614062 234.404063) scale(0.1 -0.1)">
      <defs>
       <path id="DejaVuSans-77" d="M 269 3500 
L 844 3500 
L 1563 769 
L 2278 3500 
L 2956 3500 
L 3675 769 
L 4391 3500 
L 4966 3500 
L 4050 0 
L 3372 0 
L 2619 2869 
L 1863 0 
L 1184 0 
L 269 3500 
z
" transform="scale(0.015625)"/>
      </defs>
      <use xlink:href="#DejaVuSans-64"/>
      <use xlink:href="#DejaVuSans-73" x="63.476562"/>
      <use xlink:href="#DejaVuSans-74" x="115.576172"/>
      <use xlink:href="#DejaVuSans-5f" x="154.785156"/>
      <use xlink:href="#DejaVuSans-77" x="204.785156"/>
      <use xlink:href="#DejaVuSans-6f" x="286.572266"/>
      <use xlink:href="#DejaVuSans-61" x="347.753906"/>
     </g>
    </g>
    <g id="line2d_38">
     <path d="M 482.614062 245.860313 
L 492.614062 245.860313 
L 502.614062 245.860313 
" style="fill: none; stroke: #9467bd; stroke-width: 1.8; stroke-linecap: square"/>
    </g>
    <g id="text_22">
     <!-- trail -->
     <g transform="translate(510.614062 249.360313) scale(0.1 -0.1)">
      <use xlink:href="#DejaVuSans-74"/>
      <use xlink:href="#DejaVuSans-72" x="39.208984"/>
      <use xlink:href="#DejaVuSans-61" x="80.322266"/>
      <use xlink:href="#DejaVuSans-69" x="141.601562"/>
      <use xlink:href="#DejaVuSans-6c" x="169.384766"/>
     </g>
    </g>
   </g>
  </g>
 </g>
 <defs>
  <clipPath id="pc1fda5ae8e">
   <rect x="54.2" y="25.44" width="511" height="235"/>
  </clipPath>
 </defs>
</svg>
