<?xml version="1.0" encoding="utf-8" standalone="no"?>
<!DOCTYPE svg PUBLIC "-//W3C//DTD SVG 1.1//EN"
  "http://www.w3.org/Graphics/SVG/1.1/DTD/svg11.dtd">
<svg xmlns:xlink="http://www.w3.org/1999/xlink" width="576pt" height="302.4pt" viewBox="0 0 576 302.4" xmlns="http://www.w3.org/2000/svg" version="1.1">
 <metadata>
  <rdf:RDF xmlns:dc="http://purl.org/dc/elements/1.1/" xmlns:cc="http://creativecommons.org/ns#" xmlns:rdf="http://www.w3.org/1999/02/22-rdf-syntax-ns#">
   <cc:Work>
    <dc:type rdf:resource="http://purl.org/dc/dcmitype/StillImage"/>
    <dc:date>2025-09-03T13:38:15.912581</dc:date>
    <dc:format>image/svg+xml</dc:format>
    <dc:creator>
     <cc:Agent>
      <dc:title>Matplotlib v3.9.4, https://matplotlib.org/</dc:title>
     </cc:Agent>
    </dc:creator>
   </cc:Work>
  </rdf:RDF>
 </metadata>
 <defs>
  <style type="text/css">*{stroke-linejoin: round; stroke-linecap: butt}</style>
 </defs>
 <g id="figure_1">
  <g id="patch_1">
   <path d="M 0 302.4 
L 576 302.4 
L 576 0 
L 0 0 
z
" style="fill: #ffffff"/>
  </g>
  <g id="axes_1">
   <g id="patch_2">
    <path d="M 54.2 260.44 
L 565.2 260.44 
L 565.2 25.44 
L 54.2 25.44 
z
" style="fill: #ffffff"/>
   </g>
   <g id="matplotlib.axis_1">
    <g id="xtick_1">
     <g id="line2d_1">
      <path d="M 77.373111 260.44 
L 77.373111 25.44 
" clip-path="url(#pcd50328541)" style="fill: none; stroke-dasharray: 2.96,1.28; stroke-dashoffset: 0; stroke: #b0b0b0; stroke-opacity: 0.3; stroke-width: 0.8"/>
     </g>
     <g id="line2d_2">
      <defs>
       <path id="m9f9233e402" d="M 0 0 
L 0 3.5 
" style="stroke: #000000; stroke-width: 0.8"/>
      </defs>
      <g>
       <use xlink:href="#m9f9233e402" x="77.373111" y="260.44" style="stroke: #000000; stroke-width: 0.8"/>
      </g>
     </g>
     <g id="text_1">
      <!-- 0 -->
      <g transform="translate(74.191861 275.038438) scale(0.1 -0.1)">
       <defs>
        <path id="DejaVuSans-30" d="M 2034 4250 
Q 1547 4250 1301 3770 
Q 1056 3291 1056 2328 
Q 1056 1369 1301 889 
Q 1547 409 2034 409 
Q 2525 409 2770 889 
Q 3016 1369 3016 2328 
Q 3016 3291 2770 3770 
Q 2525 4250 2034 4250 
z
M 2034 4750 
Q 2819 4750 3233 4129 
Q 3647 3509 3647 2328 
Q 3647 1150 3233 529 
Q 2819 -91 2034 -91 
Q 1250 -91 836 529 
Q 422 1150 422 2328 
Q 422 3509 836 4129 
Q 1250 4750 2034 4750 
z
" transform="scale(0.015625)"/>
       </defs>
       <use xlink:href="#DejaVuSans-30"/>
      </g>
     </g>
    </g>
    <g id="xtick_2">
     <g id="line2d_3">
      <path d="M 185.69664 260.44 
L 185.69664 25.44 
" clip-path="url(#pcd50328541)" style="fill: none; stroke-dasharray: 2.96,1.28; stroke-dashoffset: 0; stroke: #b0b0b0; stroke-opacity: 0.3; stroke-width: 0.8"/>
     </g>
     <g id="line2d_4">
      <g>
       <use xlink:href="#m9f9233e402" x="185.69664" y="260.44" style="stroke: #000000; stroke-width: 0.8"/>
      </g>
     </g>
     <g id="text_2">
      <!-- 2000 -->
      <g transform="translate(172.97164 275.038438) scale(0.1 -0.1)">
       <defs>
        <path id="DejaVuSans-32" d="M 1228 531 
L 3431 531 
L 3431 0 
L 469 0 
L 469 531 
Q 828 903 1448 1529 
Q 2069 2156 2228 2338 
Q 2531 2678 2651 2914 
Q 2772 3150 2772 3378 
Q 2772 3750 2511 3984 
Q 2250 4219 1831 4219 
Q 1534 4219 1204 4116 
Q 875 4013 500 3803 
L 500 4441 
Q 881 4594 1212 4672 
Q 1544 4750 1819 4750 
Q 2544 4750 2975 4387 
Q 3406 4025 3406 3419 
Q 3406 3131 3298 2873 
Q 3191 2616 2906 2266 
Q 2828 2175 2409 1742 
Q 1991 1309 1228 531 
z
" transform="scale(0.015625)"/>
       </defs>
       <use xlink:href="#DejaVuSans-32"/>
       <use xlink:href="#DejaVuSans-30" x="63.623047"/>
       <use xlink:href="#DejaVuSans-30" x="127.246094"/>
       <use xlink:href="#DejaVuSans-30" x="190.869141"/>
      </g>
     </g>
    </g>
    <g id="xtick_3">
     <g id="line2d_5">
      <path d="M 294.020169 260.44 
L 294.020169 25.44 
" clip-path="url(#pcd50328541)" style="fill: none; stroke-dasharray: 2.96,1.28; stroke-dashoffset: 0; stroke: #b0b0b0; stroke-opacity: 0.3; stroke-width: 0.8"/>
     </g>
     <g id="line2d_6">
      <g>
       <use xlink:href="#m9f9233e402" x="294.020169" y="260.44" style="stroke: #000000; stroke-width: 0.8"/>
      </g>
     </g>
     <g id="text_3">
      <!-- 4000 -->
      <g transform="translate(281.295169 275.038438) scale(0.1 -0.1)">
       <defs>
        <path id="DejaVuSans-34" d="M 2419 4116 
L 825 1625 
L 2419 1625 
L 2419 4116 
z
M 2253 4666 
L 3047 4666 
L 3047 1625 
L 3713 1625 
L 3713 1100 
L 3047 1100 
L 3047 0 
L 2419 0 
L 2419 1100 
L 313 1100 
L 313 1709 
L 2253 4666 
z
" transform="scale(0.015625)"/>
       </defs>
       <use xlink:href="#DejaVuSans-34"/>
       <use xlink:href="#DejaVuSans-30" x="63.623047"/>
       <use xlink:href="#DejaVuSans-30" x="127.246094"/>
       <use xlink:href="#DejaVuSans-30" x="190.869141"/>
      </g>
     </g>
    </g>
    <g id="xtick_4">
     <g id="line2d_7">
      <path d="M 402.343698 260.44 
L 402.343698 25.44 
" clip-path="url(#pcd50328541)" style="fill: none; stroke-dasharray: 2.96,1.28; stroke-dashoffset: 0; stroke: #b0b0b0; stroke-opacity: 0.3; stroke-width: 0.8"/>
     </g>
     <g id="line2d_8">
      <g>
       <use xlink:href="#m9f9233e402" x="402.343698" y="260.44" style="stroke: #000000; stroke-width: 0.8"/>
      </g>
     </g>
     <g id="text_4">
      <!-- 6000 -->
      <g transform="translate(389.618698 275.038438) scale(0.1 -0.1)">
       <defs>
        <path id="DejaVuSans-36" d="M 2113 2584 
Q 1688 2584 1439 2293 
Q 1191 2003 1191 1497 
Q 1191 994 1439 701 
Q 1688 409 2113 409 
Q 2538 409 2786 701 
Q 3034 994 3034 1497 
Q 3034 2003 2786 2293 
Q 2538 2584 2113 2584 
z
M 3366 4563 
L 3366 3988 
Q 3128 4100 2886 4159 
Q 2644 4219 2406 4219 
Q 1781 4219 1451 3797 
Q 1122 3375 1075 2522 
Q 1259 2794 1537 2939 
Q 1816 3084 2150 3084 
Q 2853 3084 3261 2657 
Q 3669 2231 3669 1497 
Q 3669 778 3244 343 
Q 2819 -91 2113 -91 
Q 1303 -91 875 529 
Q 447 1150 447 2328 
Q 447 3434 972 4092 
Q 1497 4750 2381 4750 
Q 2619 4750 2861 4703 
Q 3103 4656 3366 4563 
z
" transform="scale(0.015625)"/>
       </defs>
       <use xlink:href="#DejaVuSans-36"/>
       <use xlink:href="#DejaVuSans-30" x="63.623047"/>
       <use xlink:href="#DejaVuSans-30" x="127.246094"/>
       <use xlink:href="#DejaVuSans-30" x="190.869141"/>
      </g>
     </g>
    </g>
    <g id="xtick_5">
     <g id="line2d_9">
      <path d="M 510.667227 260.44 
L 510.667227 25.44 
" clip-path="url(#pcd50328541)" style="fill: none; stroke-dasharray: 2.96,1.28; stroke-dashoffset: 0; stroke: #b0b0b0; stroke-opacity: 0.3; stroke-width: 0.8"/>
     </g>
     <g id="line2d_10">
      <g>
       <use xlink:href="#m9f9233e402" x="510.667227" y="260.44" style="stroke: #000000; stroke-width: 0.8"/>
      </g>
     </g>
     <g id="text_5">
      <!-- 8000 -->
      <g transform="translate(497.942227 275.038438) scale(0.1 -0.1)">
       <defs>
        <path id="DejaVuSans-38" d="M 2034 2216 
Q 1584 2216 1326 1975 
Q 1069 1734 1069 1313 
Q 1069 891 1326 650 
Q 1584 409 2034 409 
Q 2484 409 2743 651 
Q 3003 894 3003 1313 
Q 3003 1734 2745 1975 
Q 2488 2216 2034 2216 
z
M 1403 2484 
Q 997 2584 770 2862 
Q 544 3141 544 3541 
Q 544 4100 942 4425 
Q 1341 4750 2034 4750 
Q 2731 4750 3128 4425 
Q 3525 4100 3525 3541 
Q 3525 3141 3298 2862 
Q 3072 2584 2669 2484 
Q 3125 2378 3379 2068 
Q 3634 1759 3634 1313 
Q 3634 634 3220 271 
Q 2806 -91 2034 -91 
Q 1263 -91 848 271 
Q 434 634 434 1313 
Q 434 1759 690 2068 
Q 947 2378 1403 2484 
z
M 1172 3481 
Q 1172 3119 1398 2916 
Q 1625 2713 2034 2713 
Q 2441 2713 2670 2916 
Q 2900 3119 2900 3481 
Q 2900 3844 2670 4047 
Q 2441 4250 2034 4250 
Q 1625 4250 1398 4047 
Q 1172 3844 1172 3481 
z
" transform="scale(0.015625)"/>
       </defs>
       <use xlink:href="#DejaVuSans-38"/>
       <use xlink:href="#DejaVuSans-30" x="63.623047"/>
       <use xlink:href="#DejaVuSans-30" x="127.246094"/>
       <use xlink:href="#DejaVuSans-30" x="190.869141"/>
      </g>
     </g>
    </g>
    <g id="text_6">
     <!-- round -->
     <g transform="translate(295.185937 288.716563) scale(0.1 -0.1)">
      <defs>
       <path id="DejaVuSans-72" d="M 2631 2963 
Q 2534 3019 2420 3045 
Q 2306 3072 2169 3072 
Q 1681 3072 1420 2755 
Q 1159 2438 1159 1844 
L 1159 0 
L 581 0 
L 581 3500 
L 1159 3500 
L 1159 2956 
Q 1341 3275 1631 3429 
Q 1922 3584 2338 3584 
Q 2397 3584 2469 3576 
Q 2541 3569 2628 3553 
L 2631 2963 
z
" transform="scale(0.015625)"/>
       <path id="DejaVuSans-6f" d="M 1959 3097 
Q 1497 3097 1228 2736 
Q 959 2375 959 1747 
Q 959 1119 1226 758 
Q 1494 397 1959 397 
Q 2419 397 2687 759 
Q 2956 1122 2956 1747 
Q 2956 2369 2687 2733 
Q 2419 3097 1959 3097 
z
M 1959 3584 
Q 2709 3584 3137 3096 
Q 3566 2609 3566 1747 
Q 3566 888 3137 398 
Q 2709 -91 1959 -91 
Q 1206 -91 779 398 
Q 353 888 353 1747 
Q 353 2609 779 3096 
Q 1206 3584 1959 3584 
z
" transform="scale(0.015625)"/>
       <path id="DejaVuSans-75" d="M 544 1381 
L 544 3500 
L 1119 3500 
L 1119 1403 
Q 1119 906 1312 657 
Q 1506 409 1894 409 
Q 2359 409 2629 706 
Q 2900 1003 2900 1516 
L 2900 3500 
L 3475 3500 
L 3475 0 
L 2900 0 
L 2900 538 
Q 2691 219 2414 64 
Q 2138 -91 1772 -91 
Q 1169 -91 856 284 
Q 544 659 544 1381 
z
M 1991 3584 
L 1991 3584 
z
" transform="scale(0.015625)"/>
       <path id="DejaVuSans-6e" d="M 3513 2113 
L 3513 0 
L 2938 0 
L 2938 2094 
Q 2938 2591 2744 2837 
Q 2550 3084 2163 3084 
Q 1697 3084 1428 2787 
Q 1159 2491 1159 1978 
L 1159 0 
L 581 0 
L 581 3500 
L 1159 3500 
L 1159 2956 
Q 1366 3272 1645 3428 
Q 1925 3584 2291 3584 
Q 2894 3584 3203 3211 
Q 3513 2838 3513 2113 
z
" transform="scale(0.015625)"/>
       <path id="DejaVuSans-64" d="M 2906 2969 
L 2906 4863 
L 3481 4863 
L 3481 0 
L 2906 0 
L 2906 525 
Q 2725 213 2448 61 
Q 2172 -91 1784 -91 
Q 1150 -91 751 415 
Q 353 922 353 1747 
Q 353 2572 751 3078 
Q 1150 3584 1784 3584 
Q 2172 3584 2448 3432 
Q 2725 3281 2906 2969 
z
M 947 1747 
Q 947 1113 1208 752 
Q 1469 391 1925 391 
Q 2381 391 2643 752 
Q 2906 1113 2906 1747 
Q 2906 2381 2643 2742 
Q 2381 3103 1925 3103 
Q 1469 3103 1208 2742 
Q 947 2381 947 1747 
z
" transform="scale(0.015625)"/>
      </defs>
      <use xlink:href="#DejaVuSans-72"/>
      <use xlink:href="#DejaVuSans-6f" x="38.863281"/>
      <use xlink:href="#DejaVuSans-75" x="100.044922"/>
      <use xlink:href="#DejaVuSans-6e" x="163.423828"/>
      <use xlink:href="#DejaVuSans-64" x="226.802734"/>
     </g>
    </g>
   </g>
   <g id="matplotlib.axis_2">
    <g id="ytick_1">
     <g id="line2d_11">
      <path d="M 54.2 253.710455 
L 565.2 253.710455 
" clip-path="url(#pcd50328541)" style="fill: none; stroke-dasharray: 2.96,1.28; stroke-dashoffset: 0; stroke: #b0b0b0; stroke-opacity: 0.3; stroke-width: 0.8"/>
     </g>
     <g id="line2d_12">
      <defs>
       <path id="mcc3dc6c895" d="M 0 0 
L -3.5 0 
" style="stroke: #000000; stroke-width: 0.8"/>
      </defs>
      <g>
       <use xlink:href="#mcc3dc6c895" x="54.2" y="253.710455" style="stroke: #000000; stroke-width: 0.8"/>
      </g>
     </g>
     <g id="text_7">
      <!-- 0.86 -->
      <g transform="translate(24.934375 257.509673) scale(0.1 -0.1)">
       <defs>
        <path id="DejaVuSans-2e" d="M 684 794 
L 1344 794 
L 1344 0 
L 684 0 
L 684 794 
z
" transform="scale(0.015625)"/>
       </defs>
       <use xlink:href="#DejaVuSans-30"/>
       <use xlink:href="#DejaVuSans-2e" x="63.623047"/>
       <use xlink:href="#DejaVuSans-38" x="95.410156"/>
       <use xlink:href="#DejaVuSans-36" x="159.033203"/>
      </g>
     </g>
    </g>
    <g id="ytick_2">
     <g id="line2d_13">
      <path d="M 54.2 222.626364 
L 565.2 222.626364 
" clip-path="url(#pcd50328541)" style="fill: none; stroke-dasharray: 2.96,1.28; stroke-dashoffset: 0; stroke: #b0b0b0; stroke-opacity: 0.3; stroke-width: 0.8"/>
     </g>
     <g id="line2d_14">
      <g>
       <use xlink:href="#mcc3dc6c895" x="54.2" y="222.626364" style="stroke: #000000; stroke-width: 0.8"/>
      </g>
     </g>
     <g id="text_8">
      <!-- 0.88 -->
      <g transform="translate(24.934375 226.425582) scale(0.1 -0.1)">
       <use xlink:href="#DejaVuSans-30"/>
       <use xlink:href="#DejaVuSans-2e" x="63.623047"/>
       <use xlink:href="#DejaVuSans-38" x="95.410156"/>
       <use xlink:href="#DejaVuSans-38" x="159.033203"/>
      </g>
     </g>
    </g>
    <g id="ytick_3">
     <g id="line2d_15">
      <path d="M 54.2 191.542273 
L 565.2 191.542273 
" clip-path="url(#pcd50328541)" style="fill: none; stroke-dasharray: 2.96,1.28; stroke-dashoffset: 0; stroke: #b0b0b0; stroke-opacity: 0.3; stroke-width: 0.8"/>
     </g>
     <g id="line2d_16">
      <g>
       <use xlink:href="#mcc3dc6c895" x="54.2" y="191.542273" style="stroke: #000000; stroke-width: 0.8"/>
      </g>
     </g>
     <g id="text_9">
      <!-- 0.90 -->
      <g transform="translate(24.934375 195.341491) scale(0.1 -0.1)">
       <defs>
        <path id="DejaVuSans-39" d="M 703 97 
L 703 672 
Q 941 559 1184 500 
Q 1428 441 1663 441 
Q 2288 441 2617 861 
Q 2947 1281 2994 2138 
Q 2813 1869 2534 1725 
Q 2256 1581 1919 1581 
Q 1219 1581 811 2004 
Q 403 2428 403 3163 
Q 403 3881 828 4315 
Q 1253 4750 1959 4750 
Q 2769 4750 3195 4129 
Q 3622 3509 3622 2328 
Q 3622 1225 3098 567 
Q 2575 -91 1691 -91 
Q 1453 -91 1209 -44 
Q 966 3 703 97 
z
M 1959 2075 
Q 2384 2075 2632 2365 
Q 2881 2656 2881 3163 
Q 2881 3666 2632 3958 
Q 2384 4250 1959 4250 
Q 1534 4250 1286 3958 
Q 1038 3666 1038 3163 
Q 1038 2656 1286 2365 
Q 1534 2075 1959 2075 
z
" transform="scale(0.015625)"/>
       </defs>
       <use xlink:href="#DejaVuSans-30"/>
       <use xlink:href="#DejaVuSans-2e" x="63.623047"/>
       <use xlink:href="#DejaVuSans-39" x="95.410156"/>
       <use xlink:href="#DejaVuSans-30" x="159.033203"/>
      </g>
     </g>
    </g>
    <g id="ytick_4">
     <g id="line2d_17">
      <path d="M 54.2 160.458182 
L 565.2 160.458182 
" clip-path="url(#pcd50328541)" style="fill: none; stroke-dasharray: 2.96,1.28; stroke-dashoffset: 0; stroke: #b0b0b0; stroke-opacity: 0.3; stroke-width: 0.8"/>
     </g>
     <g id="line2d_18">
      <g>
       <use xlink:href="#mcc3dc6c895" x="54.2" y="160.458182" style="stroke: #000000; stroke-width: 0.8"/>
      </g>
     </g>
     <g id="text_10">
      <!-- 0.92 -->
      <g transform="translate(24.934375 164.257401) scale(0.1 -0.1)">
       <use xlink:href="#DejaVuSans-30"/>
       <use xlink:href="#DejaVuSans-2e" x="63.623047"/>
       <use xlink:href="#DejaVuSans-39" x="95.410156"/>
       <use xlink:href="#DejaVuSans-32" x="159.033203"/>
      </g>
     </g>
    </g>
    <g id="ytick_5">
     <g id="line2d_19">
      <path d="M 54.2 129.374091 
L 565.2 129.374091 
" clip-path="url(#pcd50328541)" style="fill: none; stroke-dasharray: 2.96,1.28; stroke-dashoffset: 0; stroke: #b0b0b0; stroke-opacity: 0.3; stroke-width: 0.8"/>
     </g>
     <g id="line2d_20">
      <g>
       <use xlink:href="#mcc3dc6c895" x="54.2" y="129.374091" style="stroke: #000000; stroke-width: 0.8"/>
      </g>
     </g>
     <g id="text_11">
      <!-- 0.94 -->
      <g transform="translate(24.934375 133.17331) scale(0.1 -0.1)">
       <use xlink:href="#DejaVuSans-30"/>
       <use xlink:href="#DejaVuSans-2e" x="63.623047"/>
       <use xlink:href="#DejaVuSans-39" x="95.410156"/>
       <use xlink:href="#DejaVuSans-34" x="159.033203"/>
      </g>
     </g>
    </g>
    <g id="ytick_6">
     <g id="line2d_21">
      <path d="M 54.2 98.29 
L 565.2 98.29 
" clip-path="url(#pcd50328541)" style="fill: none; stroke-dasharray: 2.96,1.28; stroke-dashoffset: 0; stroke: #b0b0b0; stroke-opacity: 0.3; stroke-width: 0.8"/>
     </g>
     <g id="line2d_22">
      <g>
       <use xlink:href="#mcc3dc6c895" x="54.2" y="98.29" style="stroke: #000000; stroke-width: 0.8"/>
      </g>
     </g>
     <g id="text_12">
      <!-- 0.96 -->
      <g transform="translate(24.934375 102.089219) scale(0.1 -0.1)">
       <use xlink:href="#DejaVuSans-30"/>
       <use xlink:href="#DejaVuSans-2e" x="63.623047"/>
       <use xlink:href="#DejaVuSans-39" x="95.410156"/>
       <use xlink:href="#DejaVuSans-36" x="159.033203"/>
      </g>
     </g>
    </g>
    <g id="ytick_7">
     <g id="line2d_23">
      <path d="M 54.2 67.205909 
L 565.2 67.205909 
" clip-path="url(#pcd50328541)" style="fill: none; stroke-dasharray: 2.96,1.28; stroke-dashoffset: 0; stroke: #b0b0b0; stroke-opacity: 0.3; stroke-width: 0.8"/>
     </g>
     <g id="line2d_24">
      <g>
       <use xlink:href="#mcc3dc6c895" x="54.2" y="67.205909" style="stroke: #000000; stroke-width: 0.8"/>
      </g>
     </g>
     <g id="text_13">
      <!-- 0.98 -->
      <g transform="translate(24.934375 71.005128) scale(0.1 -0.1)">
       <use xlink:href="#DejaVuSans-30"/>
       <use xlink:href="#DejaVuSans-2e" x="63.623047"/>
       <use xlink:href="#DejaVuSans-39" x="95.410156"/>
       <use xlink:href="#DejaVuSans-38" x="159.033203"/>
      </g>
     </g>
    </g>
    <g id="ytick_8">
     <g id="line2d_25">
      <path d="M 54.2 36.121818 
L 565.2 36.121818 
" clip-path="url(#pcd50328541)" style="fill: none; stroke-dasharray: 2.96,1.28; stroke-dashoffset: 0; stroke: #b0b0b0; stroke-opacity: 0.3; stroke-width: 0.8"/>
     </g>
     <g id="line2d_26">
      <g>
       <use xlink:href="#mcc3dc6c895" x="54.2" y="36.121818" style="stroke: #000000; stroke-width: 0.8"/>
      </g>
     </g>
     <g id="text_14">
      <!-- 1.00 -->
      <g transform="translate(24.934375 39.921037) scale(0.1 -0.1)">
       <defs>
        <path id="DejaVuSans-31" d="M 794 531 
L 1825 531 
L 1825 4091 
L 703 3866 
L 703 4441 
L 1819 4666 
L 2450 4666 
L 2450 531 
L 3481 531 
L 3481 0 
L 794 0 
L 794 531 
z
" transform="scale(0.015625)"/>
       </defs>
       <use xlink:href="#DejaVuSans-31"/>
       <use xlink:href="#DejaVuSans-2e" x="63.623047"/>
       <use xlink:href="#DejaVuSans-30" x="95.410156"/>
       <use xlink:href="#DejaVuSans-30" x="159.033203"/>
      </g>
     </g>
    </g>
    <g id="text_15">
     <!-- cumulative timely transfer rate -->
     <g transform="translate(18.854688 221.048594) rotate(-90) scale(0.1 -0.1)">
      <defs>
       <path id="DejaVuSans-63" d="M 3122 3366 
L 3122 2828 
Q 2878 2963 2633 3030 
Q 2388 3097 2138 3097 
Q 1578 3097 1268 2742 
Q 959 2388 959 1747 
Q 959 1106 1268 751 
Q 1578 397 2138 397 
Q 2388 397 2633 464 
Q 2878 531 3122 666 
L 3122 134 
Q 2881 22 2623 -34 
Q 2366 -91 2075 -91 
Q 1284 -91 818 406 
Q 353 903 353 1747 
Q 353 2603 823 3093 
Q 1294 3584 2113 3584 
Q 2378 3584 2631 3529 
Q 2884 3475 3122 3366 
z
" transform="scale(0.015625)"/>
       <path id="DejaVuSans-6d" d="M 3328 2828 
Q 3544 3216 3844 3400 
Q 4144 3584 4550 3584 
Q 5097 3584 5394 3201 
Q 5691 2819 5691 2113 
L 5691 0 
L 5113 0 
L 5113 2094 
Q 5113 2597 4934 2840 
Q 4756 3084 4391 3084 
Q 3944 3084 3684 2787 
Q 3425 2491 3425 1978 
L 3425 0 
L 2847 0 
L 2847 2094 
Q 2847 2600 2669 2842 
Q 2491 3084 2119 3084 
Q 1678 3084 1418 2786 
Q 1159 2488 1159 1978 
L 1159 0 
L 581 0 
L 581 3500 
L 1159 3500 
L 1159 2956 
Q 1356 3278 1631 3431 
Q 1906 3584 2284 3584 
Q 2666 3584 2933 3390 
Q 3200 3197 3328 2828 
z
" transform="scale(0.015625)"/>
       <path id="DejaVuSans-6c" d="M 603 4863 
L 1178 4863 
L 1178 0 
L 603 0 
L 603 4863 
z
" transform="scale(0.015625)"/>
       <path id="DejaVuSans-61" d="M 2194 1759 
Q 1497 1759 1228 1600 
Q 959 1441 959 1056 
Q 959 750 1161 570 
Q 1363 391 1709 391 
Q 2188 391 2477 730 
Q 2766 1069 2766 1631 
L 2766 1759 
L 2194 1759 
z
M 3341 1997 
L 3341 0 
L 2766 0 
L 2766 531 
Q 2569 213 2275 61 
Q 1981 -91 1556 -91 
Q 1019 -91 701 211 
Q 384 513 384 1019 
Q 384 1609 779 1909 
Q 1175 2209 1959 2209 
L 2766 2209 
L 2766 2266 
Q 2766 2663 2505 2880 
Q 2244 3097 1772 3097 
Q 1472 3097 1187 3025 
Q 903 2953 641 2809 
L 641 3341 
Q 956 3463 1253 3523 
Q 1550 3584 1831 3584 
Q 2591 3584 2966 3190 
Q 3341 2797 3341 1997 
z
" transform="scale(0.015625)"/>
       <path id="DejaVuSans-74" d="M 1172 4494 
L 1172 3500 
L 2356 3500 
L 2356 3053 
L 1172 3053 
L 1172 1153 
Q 1172 725 1289 603 
Q 1406 481 1766 481 
L 2356 481 
L 2356 0 
L 1766 0 
Q 1100 0 847 248 
Q 594 497 594 1153 
L 594 3053 
L 172 3053 
L 172 3500 
L 594 3500 
L 594 4494 
L 1172 4494 
z
" transform="scale(0.015625)"/>
       <path id="DejaVuSans-69" d="M 603 3500 
L 1178 3500 
L 1178 0 
L 603 0 
L 603 3500 
z
M 603 4863 
L 1178 4863 
L 1178 4134 
L 603 4134 
L 603 4863 
z
" transform="scale(0.015625)"/>
       <path id="DejaVuSans-76" d="M 191 3500 
L 800 3500 
L 1894 563 
L 2988 3500 
L 3597 3500 
L 2284 0 
L 1503 0 
L 191 3500 
z
" transform="scale(0.015625)"/>
       <path id="DejaVuSans-65" d="M 3597 1894 
L 3597 1613 
L 953 1613 
Q 991 1019 1311 708 
Q 1631 397 2203 397 
Q 2534 397 2845 478 
Q 3156 559 3463 722 
L 3463 178 
Q 3153 47 2828 -22 
Q 2503 -91 2169 -91 
Q 1331 -91 842 396 
Q 353 884 353 1716 
Q 353 2575 817 3079 
Q 1281 3584 2069 3584 
Q 2775 3584 3186 3129 
Q 3597 2675 3597 1894 
z
M 3022 2063 
Q 3016 2534 2758 2815 
Q 2500 3097 2075 3097 
Q 1594 3097 1305 2825 
Q 1016 2553 972 2059 
L 3022 2063 
z
" transform="scale(0.015625)"/>
       <path id="DejaVuSans-20" transform="scale(0.015625)"/>
       <path id="DejaVuSans-79" d="M 2059 -325 
Q 1816 -950 1584 -1140 
Q 1353 -1331 966 -1331 
L 506 -1331 
L 506 -850 
L 844 -850 
Q 1081 -850 1212 -737 
Q 1344 -625 1503 -206 
L 1606 56 
L 191 3500 
L 800 3500 
L 1894 763 
L 2988 3500 
L 3597 3500 
L 2059 -325 
z
" transform="scale(0.015625)"/>
       <path id="DejaVuSans-73" d="M 2834 3397 
L 2834 2853 
Q 2591 2978 2328 3040 
Q 2066 3103 1784 3103 
Q 1356 3103 1142 2972 
Q 928 2841 928 2578 
Q 928 2378 1081 2264 
Q 1234 2150 1697 2047 
L 1894 2003 
Q 2506 1872 2764 1633 
Q 3022 1394 3022 966 
Q 3022 478 2636 193 
Q 2250 -91 1575 -91 
Q 1294 -91 989 -36 
Q 684 19 347 128 
L 347 722 
Q 666 556 975 473 
Q 1284 391 1588 391 
Q 1994 391 2212 530 
Q 2431 669 2431 922 
Q 2431 1156 2273 1281 
Q 2116 1406 1581 1522 
L 1381 1569 
Q 847 1681 609 1914 
Q 372 2147 372 2553 
Q 372 3047 722 3315 
Q 1072 3584 1716 3584 
Q 2034 3584 2315 3537 
Q 2597 3491 2834 3397 
z
" transform="scale(0.015625)"/>
       <path id="DejaVuSans-66" d="M 2375 4863 
L 2375 4384 
L 1825 4384 
Q 1516 4384 1395 4259 
Q 1275 4134 1275 3809 
L 1275 3500 
L 2222 3500 
L 2222 3053 
L 1275 3053 
L 1275 0 
L 697 0 
L 697 3053 
L 147 3053 
L 147 3500 
L 697 3500 
L 697 3744 
Q 697 4328 969 4595 
Q 1241 4863 1831 4863 
L 2375 4863 
z
" transform="scale(0.015625)"/>
      </defs>
      <use xlink:href="#DejaVuSans-63"/>
      <use xlink:href="#DejaVuSans-75" x="54.980469"/>
      <use xlink:href="#DejaVuSans-6d" x="118.359375"/>
      <use xlink:href="#DejaVuSans-75" x="215.771484"/>
      <use xlink:href="#DejaVuSans-6c" x="279.150391"/>
      <use xlink:href="#DejaVuSans-61" x="306.933594"/>
      <use xlink:href="#DejaVuSans-74" x="368.212891"/>
      <use xlink:href="#DejaVuSans-69" x="407.421875"/>
      <use xlink:href="#DejaVuSans-76" x="435.205078"/>
      <use xlink:href="#DejaVuSans-65" x="494.384766"/>
      <use xlink:href="#DejaVuSans-20" x="555.908203"/>
      <use xlink:href="#DejaVuSans-74" x="587.695312"/>
      <use xlink:href="#DejaVuSans-69" x="626.904297"/>
      <use xlink:href="#DejaVuSans-6d" x="654.6875"/>
      <use xlink:href="#DejaVuSans-65" x="752.099609"/>
      <use xlink:href="#DejaVuSans-6c" x="813.623047"/>
      <use xlink:href="#DejaVuSans-79" x="841.40625"/>
      <use xlink:href="#DejaVuSans-20" x="900.585938"/>
      <use xlink:href="#DejaVuSans-74" x="932.373047"/>
      <use xlink:href="#DejaVuSans-72" x="971.582031"/>
      <use xlink:href="#DejaVuSans-61" x="1012.695312"/>
      <use xlink:href="#DejaVuSans-6e" x="1073.974609"/>
      <use xlink:href="#DejaVuSans-73" x="1137.353516"/>
      <use xlink:href="#DejaVuSans-66" x="1189.453125"/>
      <use xlink:href="#DejaVuSans-65" x="1224.658203"/>
      <use xlink:href="#DejaVuSans-72" x="1286.181641"/>
      <use xlink:href="#DejaVuSans-20" x="1327.294922"/>
      <use xlink:href="#DejaVuSans-72" x="1359.082031"/>
      <use xlink:href="#DejaVuSans-61" x="1400.195312"/>
      <use xlink:href="#DejaVuSans-74" x="1461.474609"/>
      <use xlink:href="#DejaVuSans-65" x="1500.683594"/>
     </g>
    </g>
   </g>
   <g id="line2d_27">
    <path d="M 77.427273 36.121818 
L 81.814376 36.121818 
L 81.868537 46.66118 
L 81.976861 46.562064 
L 82.085184 46.396419 
L 82.410155 92.251248 
L 82.464317 92.065465 
L 82.518479 101.408551 
L 82.57264 101.169794 
L 82.735126 99.849154 
L 82.843449 117.032234 
L 82.897611 116.069384 
L 83.005934 115.399857 
L 83.16842 127.579665 
L 83.222582 127.037893 
L 83.330905 144.831207 
L 83.49339 172.931698 
L 83.547552 172.349115 
L 83.926684 167.500505 
L 83.980846 173.489711 
L 84.035008 172.749432 
L 84.143332 171.022845 
L 84.197493 170.043042 
L 84.251655 176.675086 
L 84.305817 175.853937 
L 85.551537 148.469067 
L 85.768184 164.014214 
L 85.822346 163.153737 
L 85.876508 168.321169 
L 85.93067 167.511323 
L 86.147317 163.304116 
L 86.201479 167.98265 
L 86.25564 167.304386 
L 86.472287 164.659697 
L 86.526449 169.218628 
L 86.580611 168.112229 
L 86.688934 166.356648 
L 86.743096 170.824104 
L 86.797258 170.204715 
L 87.17639 164.420835 
L 87.230552 167.757697 
L 87.284714 167.025784 
L 87.338876 167.122692 
L 87.393037 169.267234 
L 87.447199 168.514696 
L 87.663846 166.304103 
L 87.718008 168.232256 
L 87.77217 167.715594 
L 87.826332 166.948134 
L 87.880493 170.291272 
L 87.934655 169.339351 
L 88.963729 154.023377 
L 89.234537 149.109225 
L 89.288699 150.804861 
L 89.342861 149.946701 
L 89.93864 142.273873 
L 90.155287 151.457067 
L 90.209449 150.493725 
L 90.913552 139.465803 
L 91.725979 129.119303 
L 92.050949 124.70073 
L 92.430082 138.222847 
L 92.484243 137.515399 
L 92.70089 135.223004 
L 92.755052 137.374502 
L 92.809214 136.85285 
L 93.080023 134.510975 
L 93.459155 130.72165 
L 94.325743 121.838141 
L 94.488229 124.517035 
L 94.704876 123.065725 
L 94.867361 126.113667 
L 95.354817 123.122472 
L 95.679787 120.523927 
L 95.733949 121.066763 
L 95.788111 120.642658 
L 95.896434 119.992002 
L 95.950596 120.866568 
L 96.004758 120.520462 
L 96.275567 118.862151 
L 96.329729 119.364349 
L 96.38389 123.163661 
L 96.438052 122.794678 
L 96.492214 122.535727 
L 96.708861 129.123701 
L 96.763023 129.991715 
L 96.817184 129.649565 
L 96.871346 129.462776 
L 96.925508 129.716646 
L 97.033831 128.970686 
L 97.087993 130.213612 
L 97.142155 129.838875 
L 98.658684 119.321299 
L 98.712846 119.435485 
L 98.767008 119.125296 
L 98.82117 119.854777 
L 98.875331 119.545687 
L 99.037817 118.592471 
L 99.14614 119.836675 
L 99.200302 119.446615 
L 99.254464 119.104017 
L 99.308626 119.725173 
L 99.362787 119.369849 
L 99.525273 118.326497 
L 99.579434 119.271494 
L 99.633596 118.967786 
L 99.904405 117.765634 
L 100.175214 120.995111 
L 100.229376 120.756295 
L 100.283537 120.798638 
L 100.337699 121.273202 
L 100.391861 121.026414 
L 100.554346 120.130602 
L 100.716831 121.962818 
L 100.770993 121.656113 
L 100.933479 120.775805 
L 100.98764 121.517672 
L 101.041802 121.262505 
L 101.150126 120.703828 
L 101.204287 121.44943 
L 101.258449 121.202193 
L 101.312611 120.925759 
L 101.366773 121.126117 
L 101.420934 121.35239 
L 101.475096 121.104361 
L 101.691743 124.228652 
L 101.800067 123.769325 
L 101.90839 125.820208 
L 101.962552 125.54857 
L 102.720817 121.210296 
L 102.82914 120.635427 
L 103.208273 125.849238 
L 103.262434 125.582168 
L 103.316596 127.649875 
L 103.370758 127.404202 
L 103.479081 126.822391 
L 103.533243 127.541497 
L 103.587405 127.262366 
L 103.966537 125.480882 
L 104.020699 125.707426 
L 104.074861 125.503386 
L 104.508155 123.978869 
L 104.833126 125.350269 
L 104.887287 126.382011 
L 104.941449 126.214947 
L 105.26642 124.859911 
L 105.374743 125.955046 
L 105.428905 125.68918 
L 105.808037 124.204718 
L 105.970523 124.737651 
L 106.024684 124.51083 
L 106.078846 124.825472 
L 106.133008 124.585551 
L 106.18717 124.367928 
L 106.241331 124.502979 
L 106.295493 124.53208 
L 106.620464 128.460387 
L 106.728787 128.170104 
L 106.891273 127.700942 
L 106.999596 128.29712 
L 107.053758 128.127486 
L 107.43289 131.138434 
L 107.703699 130.361697 
L 107.812023 130.008083 
L 107.866184 130.525354 
L 107.920346 130.312552 
L 108.082831 129.734844 
L 108.191155 132.206109 
L 108.245317 132.030996 
L 108.407802 131.509467 
L 108.516126 133.10517 
L 108.570287 132.954722 
L 108.94942 135.012642 
L 109.003581 134.875279 
L 109.166067 136.385979 
L 109.220229 136.286676 
L 109.382714 138.506041 
L 109.491037 138.196962 
L 109.653523 139.612316 
L 109.761846 139.420948 
L 109.978493 141.378521 
L 110.032655 141.142169 
L 110.086817 141.365308 
L 110.249302 143.304661 
L 110.357626 142.919915 
L 110.411787 143.207648 
L 110.465949 143.065173 
L 110.682596 142.200275 
L 110.736758 142.714447 
L 110.79092 142.595739 
L 110.845081 142.462956 
L 111.007567 143.245486 
L 111.061729 142.973381 
L 111.224214 143.50454 
L 111.332537 143.038401 
L 111.440861 144.702669 
L 111.495023 144.602383 
L 111.657508 145.11891 
L 111.819993 144.594885 
L 111.874155 145.117586 
L 111.928317 144.954136 
L 111.982479 144.75228 
L 112.199126 146.328775 
L 112.469934 145.367966 
L 112.63242 147.864602 
L 112.686581 147.633809 
L 112.740743 147.432205 
L 112.849067 147.938623 
L 112.903229 147.766001 
L 113.065714 147.216478 
L 113.119876 147.733655 
L 113.174037 147.580265 
L 113.228199 147.396059 
L 113.282361 147.817415 
L 113.336523 147.61259 
L 113.444846 147.239596 
L 113.55317 148.859311 
L 113.607331 148.664858 
L 113.823979 147.811712 
L 114.040626 149.850994 
L 114.094787 149.565691 
L 114.148949 150.897308 
L 114.203111 150.686489 
L 114.79889 148.397698 
L 114.853052 148.663088 
L 114.907214 148.598349 
L 115.232184 147.671921 
L 115.286346 147.696946 
L 115.557155 146.874225 
L 115.611317 147.350207 
L 115.665478 147.158725 
L 115.71964 147.002837 
L 115.882126 148.62919 
L 115.990449 148.18225 
L 116.044611 148.645805 
L 116.098773 148.477132 
L 117.127846 144.291447 
L 117.290331 146.779603 
L 117.398655 147.252899 
L 117.452817 147.035089 
L 117.723626 146.494726 
L 117.777787 146.722966 
L 117.831949 146.573112 
L 117.886111 146.406108 
L 117.940273 146.848506 
L 117.994434 146.664201 
L 118.644376 144.066055 
L 118.806861 144.74773 
L 118.861023 144.597325 
L 119.023508 145.157513 
L 119.294317 144.453041 
L 119.456802 143.901417 
L 119.510964 144.06247 
L 119.673449 143.864419 
L 120.160905 142.336419 
L 120.215067 142.153038 
L 120.269228 143.120954 
L 120.32339 142.970992 
L 120.431714 142.677551 
L 120.594199 143.539925 
L 121.135817 142.195904 
L 122.056567 139.806262 
L 122.110728 140.015821 
L 122.16489 140.229641 
L 122.219052 140.053825 
L 122.273214 139.922351 
L 122.327376 140.174156 
L 122.381537 141.056205 
L 122.435699 140.86791 
L 122.489861 141.003681 
L 122.544023 140.850149 
L 123.248126 139.149292 
L 123.302287 139.230299 
L 123.518934 138.583697 
L 123.68142 139.492586 
L 123.735581 139.339048 
L 123.789743 140.191933 
L 123.843905 140.103118 
L 124.168876 139.571469 
L 124.223037 140.129765 
L 124.277199 139.995686 
L 124.872978 138.750905 
L 124.92714 139.25744 
L 124.981302 139.133563 
L 125.414596 137.983004 
L 125.631243 137.624153 
L 125.793728 138.874216 
L 125.84789 138.716781 
L 126.064537 138.100465 
L 126.172861 138.375569 
L 126.227023 138.233365 
L 126.335346 137.928746 
L 126.551993 138.42981 
L 126.660317 138.612506 
L 126.714478 138.516471 
L 126.985287 137.916618 
L 127.093611 137.662283 
L 127.147773 137.808335 
L 127.201934 137.697328 
L 127.256096 137.599091 
L 127.36442 138.683054 
L 127.472743 138.399735 
L 127.743552 137.893303 
L 127.851876 137.722152 
L 127.906037 137.590436 
L 128.068523 138.181396 
L 128.122684 138.041493 
L 128.231008 137.779183 
L 128.447655 138.305872 
L 128.826787 137.460874 
L 128.989273 138.632594 
L 129.097596 138.42451 
L 129.801699 136.871822 
L 129.964184 137.289639 
L 130.018346 137.372049 
L 130.072508 137.756722 
L 130.12667 137.658789 
L 130.289155 137.292243 
L 130.343317 137.444102 
L 130.397478 137.304374 
L 130.45164 137.228849 
L 130.559964 137.92548 
L 130.614126 137.791551 
L 130.668287 137.652174 
L 130.939096 138.526086 
L 130.993258 138.379071 
L 131.04742 138.245961 
L 131.155743 138.539943 
L 131.318228 138.416216 
L 131.480714 139.406553 
L 131.589037 139.166043 
L 131.643199 139.04908 
L 131.751523 139.598908 
L 131.805684 139.518304 
L 131.859846 139.652921 
L 131.914008 139.528411 
L 132.401464 138.558027 
L 132.455626 138.646263 
L 132.509787 138.498147 
L 132.563949 138.741899 
L 132.618111 138.618342 
L 133.21389 137.678539 
L 133.268052 138.071278 
L 133.322214 137.944772 
L 134.080478 136.349592 
L 134.13464 136.828294 
L 134.188802 136.709144 
L 134.513773 136.107068 
L 134.567934 136.625156 
L 134.622096 136.489647 
L 134.676258 136.424663 
L 134.784581 137.248221 
L 134.838743 137.147689 
L 134.892905 137.033291 
L 134.947067 137.126725 
L 135.109552 137.75014 
L 135.217876 137.57949 
L 135.272037 137.797997 
L 135.326199 137.666261 
L 135.380361 137.555865 
L 135.542846 138.07105 
L 135.97614 137.416116 
L 136.030302 137.459377 
L 136.084464 137.362758 
L 136.517758 136.732617 
L 136.626081 137.370795 
L 136.680243 137.282132 
L 136.951052 136.792181 
L 137.113537 136.988556 
L 137.438508 136.602949 
L 137.49267 136.544564 
L 137.546831 136.793818 
L 137.600993 136.680423 
L 137.709317 136.509147 
L 137.763478 136.768171 
L 137.81764 136.670195 
L 137.871802 136.545924 
L 137.980125 137.125179 
L 138.034287 137.009049 
L 138.142611 136.777588 
L 138.250934 137.143588 
L 138.305096 137.052769 
L 138.900875 136.038019 
L 138.955037 136.419805 
L 139.009199 136.350186 
L 139.063361 136.313856 
L 139.117523 136.975272 
L 139.171684 136.889256 
L 139.280008 136.844817 
L 139.388331 136.683303 
L 139.442493 136.754484 
L 139.496655 136.787955 
L 139.604978 136.550016 
L 139.65914 136.750557 
L 139.713302 136.647932 
L 139.984111 136.179174 
L 140.038273 136.675102 
L 140.092434 136.601862 
L 140.200758 136.488117 
L 140.363243 136.918688 
L 140.417405 136.831496 
L 140.471567 136.776089 
L 140.525728 136.896168 
L 140.57989 136.817104 
L 141.013184 136.128216 
L 141.17567 136.538725 
L 141.392317 136.187405 
L 141.50064 136.691386 
L 141.554802 136.609078 
L 141.608964 136.802239 
L 141.663125 136.688981 
L 142.042258 136.187401 
L 142.09642 136.430642 
L 142.150581 136.349419 
L 142.258905 136.227948 
L 142.367228 136.6258 
L 142.42139 136.540216 
L 142.692199 137.36327 
L 142.746361 137.323539 
L 142.963008 136.94686 
L 143.01717 136.988584 
L 143.179655 136.706935 
L 143.34214 137.663523 
L 143.558787 137.433616 
L 143.721273 137.150428 
L 143.829596 136.922623 
L 143.883758 136.965217 
L 143.992081 136.989534 
L 144.425375 136.441005 
L 144.750346 135.906439 
L 144.912831 136.428893 
L 145.021155 136.266837 
L 145.075317 136.358813 
L 145.129478 136.598475 
L 145.18364 136.503685 
L 145.237802 136.378544 
L 145.291964 136.504188 
L 145.616934 135.973386 
L 145.671096 136.195288 
L 145.725258 136.110349 
L 145.77942 136.009759 
L 145.833581 136.647173 
L 145.941905 136.623675 
L 145.996067 136.53591 
L 146.158552 137.308802 
L 146.321037 137.066323 
L 146.375199 137.111951 
L 146.537684 136.864037 
L 146.591846 137.129469 
L 146.646008 137.030755 
L 146.862655 136.869489 
L 147.241787 136.261503 
L 147.350111 136.739205 
L 147.404273 136.654736 
L 147.512596 136.649424 
L 148.000052 136.11022 
L 148.162537 136.508856 
L 148.216699 136.454747 
L 148.649993 135.846032 
L 148.758317 136.573176 
L 148.812478 136.502985 
L 148.86664 136.765705 
L 148.920802 136.665242 
L 149.245773 136.137348 
L 149.354096 136.944439 
L 149.408258 136.866474 
L 149.516581 137.20932 
L 149.570743 137.128602 
L 150.004037 136.517172 
L 150.058199 136.696225 
L 150.112361 136.619255 
L 150.274846 136.38502 
L 150.329008 136.582285 
L 150.38317 136.473505 
L 150.545655 136.36967 
L 150.978949 136.025834 
L 151.412243 135.911952 
L 263.202125 136.000393 
L 263.418772 136.03894 
L 273.655346 136.133973 
L 274.034478 136.153243 
L 281.996257 136.249586 
L 282.37539 136.268853 
L 332.041728 136.362524 
L 332.42086 136.381787 
L 340.978419 136.478096 
L 341.140904 136.555135 
L 353.543948 136.632165 
L 353.706434 136.689932 
L 363.130581 136.747695 
L 363.293066 136.805453 
L 367.463522 136.882457 
L 367.626007 136.940204 
L 400.448037 137.033767 
L 400.989654 137.110744 
L 407.109934 137.187713 
L 407.326581 137.226195 
L 441.394331 137.31971 
L 441.773463 137.338947 
L 450.872639 137.396655 
L 450.872639 137.396655 
" clip-path="url(#pcd50328541)" style="fill: none; stroke: #1f77b4; stroke-width: 1.8; stroke-linecap: square"/>
   </g>
   <g id="line2d_28">
    <path d="M 77.427273 106.767479 
L 77.535596 60.791732 
L 77.589758 94.993202 
L 77.64392 86.85253 
L 77.752243 73.36855 
L 77.806405 85.232371 
L 77.860567 80.231129 
L 77.914729 74.862987 
L 77.96889 98.042318 
L 78.023052 91.761599 
L 78.131376 82.794627 
L 78.185537 94.006531 
L 78.239699 90.943848 
L 78.293861 87.799442 
L 78.348023 93.012483 
L 78.402184 90.311443 
L 78.510508 84.885245 
L 78.618832 107.372027 
L 78.672993 103.774367 
L 78.727155 100.880341 
L 78.781317 103.624346 
L 78.943802 96.752062 
L 78.997964 116.720769 
L 79.106287 116.010837 
L 79.214611 111.315241 
L 79.322934 122.40174 
L 79.431258 117.718935 
L 79.593743 114.214854 
L 79.647905 115.952549 
L 79.702067 114.124556 
L 79.81039 117.848319 
L 79.972876 131.20566 
L 80.243684 122.378183 
L 80.460332 132.322288 
L 80.514493 130.828907 
L 80.568655 129.680023 
L 80.622817 132.514748 
L 80.676979 130.827391 
L 80.73114 144.263904 
L 80.785302 142.324136 
L 81.164434 133.89694 
L 81.218596 134.829618 
L 81.272758 133.661149 
L 81.435243 137.331037 
L 81.814376 129.363788 
L 81.868537 131.370503 
L 81.922699 130.050377 
L 81.976861 129.002568 
L 82.193508 136.170765 
L 82.301832 137.972213 
L 82.355993 136.72574 
L 82.464317 134.76224 
L 82.518479 135.25053 
L 82.626802 136.928009 
L 82.735126 134.699866 
L 82.951773 139.284247 
L 83.005934 138.433673 
L 83.16842 142.319533 
L 83.276743 140.135756 
L 83.49339 143.940898 
L 83.547552 142.848311 
L 83.601714 146.874045 
L 83.655876 146.01691 
L 83.710037 145.122207 
L 83.764199 145.984294 
L 83.818361 147.732123 
L 83.872523 146.671932 
L 84.035008 144.036009 
L 84.08917 144.75633 
L 84.251655 142.407852 
L 84.359979 143.602124 
L 84.630787 139.819762 
L 84.684949 144.179026 
L 84.739111 143.335167 
L 84.793273 142.822389 
L 84.847434 143.424961 
L 84.955758 141.784112 
L 85.118243 145.349792 
L 85.172405 144.616233 
L 85.389052 149.948867 
L 85.497376 148.254735 
L 85.551537 148.806197 
L 85.605699 148.823882 
L 85.714023 150.785257 
L 85.768184 150.22071 
L 85.876508 148.764887 
L 85.93067 149.559576 
L 85.984832 148.791659 
L 86.038993 148.072184 
L 86.201479 150.350083 
L 86.25564 150.621771 
L 86.309802 150.016352 
L 86.363964 150.921743 
L 86.418126 150.209341 
L 86.472287 150.160663 
L 86.526449 149.553682 
L 86.634773 152.036994 
L 86.85142 149.357239 
L 86.905582 150.178631 
L 86.959743 149.467915 
L 87.013905 149.684583 
L 87.068067 148.976543 
L 87.122229 150.064711 
L 87.17639 149.516208 
L 87.609684 145.377338 
L 87.77217 146.113035 
L 87.880493 146.94943 
L 87.934655 146.322936 
L 88.259626 151.092389 
L 88.367949 149.922753 
L 88.422111 150.305742 
L 88.476273 151.762957 
L 88.530434 151.160818 
L 88.638758 150.228232 
L 88.69292 151.199435 
L 88.747082 150.767176 
L 88.909567 149.482408 
L 88.963729 149.745127 
L 89.01789 151.167823 
L 89.072052 150.623579 
L 89.342861 147.94336 
L 89.397023 148.73567 
L 89.451184 148.145098 
L 89.61367 147.203216 
L 89.721993 147.949747 
L 90.046964 145.803867 
L 90.101126 146.937742 
L 90.155287 146.428273 
L 90.317773 144.884432 
L 90.371934 145.708668 
L 90.426096 145.204114 
L 90.53442 144.275004 
L 90.696905 145.587274 
L 90.967714 143.458468 
L 91.076037 144.699479 
L 91.130199 144.277785 
L 91.184361 144.296233 
L 91.292684 145.459965 
L 91.563493 143.394105 
L 91.617655 144.043813 
L 91.671817 143.574371 
L 91.725979 143.762055 
L 92.050949 141.179547 
L 92.159273 141.689271 
L 92.267596 142.951505 
L 92.321758 142.524353 
L 92.37592 142.146947 
L 92.430082 142.599955 
L 92.484243 142.194236 
L 92.538405 142.05468 
L 92.646729 142.565052 
L 93.080023 139.58186 
L 93.188346 140.59775 
L 93.242508 140.262569 
L 93.29667 140.733787 
L 93.350832 140.33405 
L 93.404993 140.355221 
L 93.459155 140.006866 
L 93.62164 141.477483 
L 93.838287 140.343012 
L 93.892449 140.400579 
L 94.000773 139.717351 
L 94.054934 140.353626 
L 94.109096 139.973729 
L 94.163258 140.134124 
L 94.21742 140.088262 
L 94.488229 139.106907 
L 94.704876 141.27105 
L 94.759037 141.033871 
L 94.921523 142.335648 
L 95.679787 138.449171 
L 96.275567 135.115738 
L 96.38389 135.403384 
L 96.600537 138.438428 
L 96.654699 138.134567 
L 96.763023 139.216593 
L 96.817184 138.920785 
L 97.087993 137.407315 
L 97.142155 137.424835 
L 97.196317 137.968969 
L 97.30464 137.936946 
L 97.467126 137.672731 
L 97.521287 137.596982 
L 97.575449 137.277467 
L 97.629611 137.292573 
L 97.683773 137.641654 
L 97.737934 137.38227 
L 98.062905 135.808091 
L 98.171229 136.44013 
L 98.22539 136.210521 
L 98.496199 134.915473 
L 98.82117 137.627514 
L 98.929493 137.103711 
L 98.983655 137.384769 
L 99.037817 137.131646 
L 99.14614 137.883063 
L 99.200302 137.583548 
L 99.362787 136.827539 
L 99.416949 137.197535 
L 99.471111 137.025716 
L 99.579434 136.517012 
L 99.796081 138.461626 
L 99.850243 138.774437 
L 99.904405 138.495168 
L 100.175214 137.402745 
L 100.283537 138.475813 
L 100.337699 138.250655 
L 100.554346 139.158193 
L 100.933479 138.056383 
L 101.095964 139.316311 
L 101.150126 139.087692 
L 101.529258 137.533479 
L 101.691743 138.649577 
L 101.745905 138.391497 
L 102.179199 137.287342 
L 102.233361 137.040676 
L 102.287523 137.245247 
L 102.50417 138.337481 
L 103.804052 133.826544 
L 103.858214 134.193035 
L 103.912376 133.982581 
L 104.074861 133.377606 
L 104.129023 133.7673 
L 104.183184 133.575638 
L 104.237346 133.681918 
L 104.34567 133.277775 
L 104.453993 134.25207 
L 104.508155 134.072244 
L 104.67064 133.495548 
L 104.724802 133.679403 
L 104.887287 133.152673 
L 104.941449 133.503463 
L 104.995611 133.297625 
L 105.103934 132.921249 
L 105.26642 133.708884 
L 105.699714 132.167722 
L 105.808037 131.836681 
L 105.862199 132.426761 
L 105.916361 132.227447 
L 106.133008 131.450306 
L 106.18717 132.133705 
L 106.241331 131.942217 
L 106.51214 131.033608 
L 106.566302 131.864158 
L 106.620464 131.720464 
L 107.378729 129.496305 
L 108.407802 126.392911 
L 108.895258 124.943633 
L 108.94942 125.050744 
L 109.003581 124.885085 
L 109.057743 125.277847 
L 109.111905 125.132537 
L 109.599361 123.835174 
L 109.653523 124.14909 
L 109.707684 123.985097 
L 109.87017 123.504472 
L 109.978493 123.960289 
L 110.032655 123.800317 
L 110.465949 122.83262 
L 110.520111 123.078069 
L 110.574273 122.946828 
L 110.628434 123.018399 
L 110.845081 122.444364 
L 111.007567 122.734655 
L 111.278376 122.054708 
L 111.332537 122.362834 
L 111.386699 122.208683 
L 111.603346 121.636833 
L 111.657508 121.874164 
L 111.71167 121.750961 
L 111.874155 121.302233 
L 111.928317 121.51096 
L 111.982479 121.366367 
L 112.361611 120.607727 
L 112.524096 120.960309 
L 112.794905 120.347979 
L 113.065714 119.639107 
L 113.174037 120.005621 
L 113.444846 119.596899 
L 113.499008 119.640937 
L 113.661493 119.271456 
L 113.87814 119.868617 
L 114.148949 119.222437 
L 114.203111 119.448311 
L 114.257273 119.308234 
L 114.636405 118.691721 
L 114.690567 118.735765 
L 114.907214 119.290645 
L 115.178023 118.897209 
L 115.232184 119.143255 
L 115.286346 119.034129 
L 115.827964 118.035631 
L 115.882126 118.030929 
L 115.936287 117.899412 
L 116.098773 118.623967 
L 116.261258 118.499548 
L 116.31542 118.787139 
L 116.369581 118.681581 
L 116.694552 117.991604 
L 116.748714 118.304799 
L 116.802876 118.180275 
L 117.182008 117.564245 
L 117.398655 118.736792 
L 117.452817 118.609381 
L 117.669464 118.152781 
L 117.723626 118.394383 
L 117.777787 118.307575 
L 118.211081 117.568985 
L 118.319405 118.123655 
L 118.373567 117.998604 
L 118.427728 117.896574 
L 118.590214 118.473181 
L 118.644376 118.369723 
L 118.752699 118.132611 
L 118.915184 119.233366 
L 119.40264 118.253618 
L 119.456802 118.534607 
L 119.510964 118.430493 
L 119.619287 118.235468 
L 119.673449 118.390193 
L 119.727611 118.273002 
L 119.835934 118.046463 
L 119.99842 118.585273 
L 120.052581 118.470112 
L 120.106743 119.130734 
L 120.160905 119.006887 
L 120.540037 118.314714 
L 120.594199 118.359858 
L 121.081655 117.547898 
L 121.135817 117.496422 
L 121.189978 117.767123 
L 121.24414 117.668114 
L 121.677434 116.896246 
L 121.731596 117.35817 
L 121.785758 117.263432 
L 121.894081 117.104303 
L 121.948243 117.268208 
L 122.002405 117.155952 
L 122.16489 116.849165 
L 122.219052 117.016185 
L 122.273214 116.91521 
L 122.327376 116.831043 
L 122.381537 116.965345 
L 122.435699 116.8826 
L 122.544023 116.669521 
L 122.598184 116.931581 
L 122.652346 116.831576 
L 122.868993 116.41399 
L 122.923155 116.497529 
L 123.193964 117.292056 
L 123.248126 117.206784 
L 123.410611 116.891089 
L 123.518934 117.200172 
L 123.573096 117.103227 
L 123.952228 116.566699 
L 124.00639 116.889756 
L 124.060552 116.784409 
L 124.277199 116.410577 
L 124.331361 116.645451 
L 124.385523 116.576302 
L 124.981302 115.616985 
L 125.197949 116.066959 
L 125.252111 115.99351 
L 125.414596 115.830509 
L 125.577081 116.060329 
L 126.172861 115.49485 
L 126.227023 115.804202 
L 126.281184 115.743605 
L 126.985287 115.116298 
L 127.039449 115.506747 
L 127.093611 115.454974 
L 127.201934 115.365393 
L 127.256096 115.610708 
L 127.310258 115.558989 
L 128.231008 114.817128 
L 128.28517 115.148037 
L 128.339331 115.108463 
L 129.097596 114.612087 
L 129.53089 114.3363 
L 129.585052 114.729921 
L 129.639214 114.693207 
L 130.289155 114.254205 
L 130.343317 114.567749 
L 130.397478 114.524736 
L 132.563949 113.199399 
L 133.21389 112.999631 
L 134.13464 112.792462 
L 135.109552 112.635716 
L 138.521743 112.284591 
L 189.812934 112.354286 
L 189.975419 112.414812 
L 191.058655 112.452034 
L 191.22114 112.532721 
L 193.929228 112.610267 
L 194.091714 112.690932 
L 194.958302 112.683618 
L 195.120787 112.764268 
L 201.241066 112.82161 
L 201.403552 112.882084 
L 203.245052 112.939409 
L 203.407537 112.999871 
L 206.061464 113.10063 
L 206.223949 113.161079 
L 207.79464 113.221523 
L 207.957125 113.322251 
L 214.348214 113.382682 
L 214.510699 113.443107 
L 218.789478 113.539583 
L 218.951963 113.599992 
L 219.926875 113.68053 
L 220.143522 113.861709 
L 228.646919 113.948553 
L 228.863566 114.129632 
L 233.250669 114.206905 
L 233.467316 114.247133 
L 235.579625 114.30747 
L 235.742111 114.367803 
L 242.78314 114.468346 
L 242.999787 114.50856 
L 253.128037 114.576155 
L 253.290522 114.636455 
L 256.91936 114.716848 
L 257.081846 114.797232 
L 260.114905 114.877607 
L 260.27739 114.957974 
L 265.368596 115.05842 
L 265.531081 115.138767 
L 269.214081 115.235956 
L 269.430728 115.27612 
L 272.680434 115.352125 
L 272.897081 115.392279 
L 275.33436 115.489415 
L 275.551007 115.52956 
L 277.338346 115.629914 
L 277.500831 115.710187 
L 280.263081 115.770386 
L 280.425566 115.850644 
L 282.429552 115.92655 
L 282.646199 115.966669 
L 285.13764 116.006786 
L 285.300125 116.087013 
L 288.062375 116.182929 
L 288.22486 116.243082 
L 292.449478 116.343327 
L 292.611963 116.423514 
L 297.703169 116.519361 
L 298.02814 116.539402 
L 302.469404 116.638506 
L 302.63189 116.718655 
L 303.011022 116.758726 
L 303.173507 116.858893 
L 307.343963 116.959048 
L 307.56061 116.999105 
L 310.972801 117.075913 
L 311.135287 117.135987 
L 315.143257 117.193852 
L 315.305743 117.253915 
L 317.851346 117.350696 
L 318.013831 117.430758 
L 321.96764 117.507494 
L 322.130125 117.567525 
L 325.217346 117.64756 
L 325.433993 117.727586 
L 329.062831 117.767596 
L 329.225316 117.847609 
L 333.504096 117.927613 
L 333.720743 117.967612 
L 336.320507 118.063148 
L 336.537154 118.103137 
L 336.970448 118.183109 
L 337.132934 118.243082 
L 347.74864 118.33298 
L 347.911125 118.392933 
L 350.83586 118.452882 
L 350.998345 118.532805 
L 356.739493 118.592742 
L 356.901978 118.672651 
L 357.985213 118.752551 
L 358.20186 118.792497 
L 361.939022 118.852413 
L 362.101507 118.912324 
L 364.863757 118.952262 
L 365.026242 119.032131 
L 375.100331 119.086399 
L 375.262816 119.146286 
L 377.970904 119.186209 
L 378.13339 119.266047 
L 382.466331 119.361316 
L 382.628816 119.44113 
L 384.199507 119.520936 
L 384.361992 119.580785 
L 386.365978 119.640629 
L 386.528463 119.700468 
L 392.486257 119.794515 
L 392.702904 119.834398 
L 399.418963 119.93182 
L 399.581448 119.99163 
L 401.693757 120.071368 
L 401.856242 120.131166 
L 409.493051 120.227398 
L 409.980507 120.307108 
L 411.063742 120.386808 
L 411.280389 120.426655 
L 416.696566 120.482992 
L 416.859051 120.56267 
L 418.538066 120.662256 
L 418.754713 120.702086 
L 420.054595 120.761828 
L 420.217081 120.821565 
L 424.225051 120.877851 
L 424.387536 120.937576 
L 432.945095 121.035956 
L 433.270066 121.055861 
L 437.657169 121.155374 
L 437.873816 121.195175 
L 439.931963 121.272465 
L 440.14861 121.312259 
L 442.856698 121.387221 
L 443.019183 121.446898 
L 446.702183 121.54635 
L 446.91883 121.586127 
L 449.843566 121.639998 
L 450.060213 121.719534 
L 453.905698 121.776861 
L 454.068183 121.85638 
L 462.842389 121.886848 
L 462.842389 121.886848 
" clip-path="url(#pcd50328541)" style="fill: none; stroke: #ff7f0e; stroke-width: 1.8; stroke-linecap: square"/>
   </g>
   <g id="line2d_29">
    <path d="M 77.427273 100.880341 
L 77.535596 155.103984 
L 77.698082 95.188974 
L 77.752243 109.496282 
L 77.806405 102.130505 
L 77.860567 103.922688 
L 78.023052 86.760062 
L 78.131376 111.813598 
L 78.185537 107.854336 
L 78.239699 112.631888 
L 78.293861 109.176594 
L 78.402184 100.986329 
L 78.56467 132.523203 
L 78.672993 128.480299 
L 78.727155 124.742923 
L 78.781317 130.480997 
L 78.835479 126.522977 
L 79.052126 115.007749 
L 79.106287 117.069972 
L 79.214611 114.525887 
L 79.268773 112.914609 
L 79.377096 122.143127 
L 79.431258 119.809755 
L 79.702067 110.29089 
L 79.81039 119.048395 
L 80.135361 111.623964 
L 80.243684 119.651754 
L 80.297846 117.664086 
L 80.352008 116.104786 
L 80.460332 120.155587 
L 80.514493 118.814265 
L 80.73114 113.272702 
L 80.785302 116.785943 
L 80.839464 115.490211 
L 80.947787 112.664146 
L 81.001949 118.852451 
L 81.056111 117.519281 
L 81.272758 114.765944 
L 81.435243 111.446756 
L 81.489405 114.09505 
L 81.543567 113.25052 
L 81.706052 110.567655 
L 81.760214 116.587107 
L 81.814376 115.662047 
L 81.868537 114.62849 
L 81.922699 117.966619 
L 81.976861 116.968333 
L 82.031023 117.543083 
L 82.139346 115.658134 
L 82.24767 120.767162 
L 82.301832 119.675605 
L 82.355993 120.723621 
L 82.410155 126.095393 
L 82.464317 125.995058 
L 82.626802 123.689528 
L 82.680964 126.062527 
L 82.735126 125.269914 
L 82.951773 123.297121 
L 83.005934 122.960348 
L 83.16842 130.17454 
L 83.222582 129.38732 
L 83.49339 126.764427 
L 83.655876 131.072563 
L 83.764199 129.828548 
L 83.818361 130.249699 
L 83.872523 131.394181 
L 83.926684 130.446496 
L 84.143332 127.657325 
L 84.197493 127.867647 
L 84.251655 127.931369 
L 84.468302 124.788744 
L 84.522464 126.194628 
L 84.576626 125.482794 
L 84.901596 122.296879 
L 85.172405 119.423771 
L 85.226567 121.290403 
L 85.280729 120.705479 
L 85.443214 118.95571 
L 85.605699 122.785194 
L 85.768184 121.264933 
L 85.93067 123.32092 
L 85.984832 122.804604 
L 86.309802 119.931873 
L 86.472287 122.661636 
L 86.688934 121.522191 
L 86.743096 122.648198 
L 86.797258 122.082961 
L 86.959743 120.603918 
L 87.013905 121.276466 
L 87.068067 120.887039 
L 87.230552 119.565564 
L 87.555523 129.226227 
L 87.609684 129.381582 
L 87.663846 128.830498 
L 87.934655 133.403465 
L 87.988817 132.853042 
L 88.151302 131.100985 
L 88.259626 134.900047 
L 88.367949 133.729986 
L 88.801243 130.664424 
L 88.963729 133.294031 
L 89.072052 132.528627 
L 89.234537 134.705387 
L 89.288699 134.994446 
L 89.342861 134.510878 
L 89.505346 135.595978 
L 89.61367 134.864698 
L 89.667832 135.726221 
L 89.721993 135.306455 
L 89.93864 134.102502 
L 89.992802 133.800707 
L 90.155287 135.01204 
L 91.021876 129.396703 
L 91.076037 129.480948 
L 92.105111 123.185245 
L 92.213434 126.754089 
L 92.267596 126.406124 
L 92.37592 125.79242 
L 92.592567 127.615317 
L 92.70089 132.210598 
L 92.755052 131.817893 
L 93.080023 130.278914 
L 93.350832 128.914942 
L 93.404993 130.114836 
L 93.459155 129.883195 
L 93.567479 129.275784 
L 93.729964 131.829088 
L 93.784126 131.917718 
L 94.054934 130.852971 
L 94.109096 131.100985 
L 94.325743 129.897666 
L 94.379905 130.331982 
L 94.488229 133.096173 
L 94.54239 132.863654 
L 94.596552 132.990317 
L 94.759037 131.986854 
L 95.029846 134.15036 
L 95.192331 134.833355 
L 95.517302 133.264015 
L 95.571464 133.27719 
L 95.788111 132.048365 
L 95.950596 134.021754 
L 96.004758 133.81389 
L 96.05892 133.838186 
L 96.275567 132.645744 
L 96.438052 134.639555 
L 96.492214 134.359591 
L 96.708861 133.495263 
L 96.763023 134.364003 
L 96.817184 134.180963 
L 96.925508 133.909613 
L 96.97967 134.184646 
L 97.033831 133.938433 
L 97.412964 132.344184 
L 97.467126 133.608676 
L 97.521287 133.307056 
L 97.575449 133.046633 
L 97.629611 133.346185 
L 97.683773 133.067312 
L 98.062905 131.511562 
L 98.117067 131.959302 
L 98.171229 131.777462 
L 98.442037 130.479475 
L 98.604523 131.401262 
L 98.875331 130.116309 
L 99.037817 131.555947 
L 99.091979 131.781427 
L 99.14614 131.550809 
L 99.308626 130.777079 
L 99.362787 131.285478 
L 99.416949 131.055375 
L 99.687758 130.139484 
L 99.74192 130.29359 
L 99.796081 130.045706 
L 99.850243 130.285092 
L 99.904405 130.134118 
L 99.958567 130.545349 
L 100.012729 130.322862 
L 100.121052 130.676318 
L 100.175214 130.465252 
L 100.229376 130.319419 
L 100.283537 130.494981 
L 100.825155 128.444341 
L 100.879317 128.541016 
L 100.933479 128.354337 
L 101.095964 128.753678 
L 101.204287 128.424811 
L 101.258449 128.756172 
L 101.312611 128.622556 
L 101.420934 128.201969 
L 101.475096 128.79304 
L 101.58342 128.759672 
L 101.800067 128.102364 
L 101.854229 128.442017 
L 101.90839 128.353916 
L 102.395846 126.49856 
L 102.450008 127.144568 
L 102.50417 127.073897 
L 102.666655 126.574695 
L 102.720817 126.61547 
L 102.883302 127.242273 
L 103.262434 126.199911 
L 103.316596 127.453037 
L 103.370758 127.279957 
L 103.42492 127.147707 
L 103.479081 127.767119 
L 103.533243 127.557095 
L 103.641567 127.139922 
L 103.695729 127.311897 
L 103.74989 127.366325 
L 104.074861 126.529826 
L 104.129023 127.161092 
L 104.183184 126.938046 
L 105.103934 124.374926 
L 105.158096 124.728453 
L 105.212258 124.581819 
L 105.26642 124.559072 
L 105.59139 123.804413 
L 105.699714 125.113835 
L 105.753876 124.951506 
L 106.18717 123.611474 
L 106.241331 123.825287 
L 106.295493 123.650932 
L 106.349655 123.48222 
L 106.403817 124.040062 
L 106.457979 123.863773 
L 106.51214 123.74005 
L 106.837111 125.020152 
L 106.891273 124.87419 
L 107.10792 124.195269 
L 107.162081 124.726723 
L 107.216243 124.541561 
L 107.378729 124.074806 
L 107.43289 124.309352 
L 107.487052 124.114826 
L 107.649537 123.854754 
L 107.703699 124.172655 
L 107.757861 124.044141 
L 107.812023 123.866271 
L 107.866184 124.035658 
L 107.920346 123.972703 
L 107.974508 124.794146 
L 108.02867 124.649296 
L 108.136993 124.323341 
L 108.245317 125.208454 
L 108.678611 124.090276 
L 108.732773 124.434904 
L 108.786934 124.282612 
L 109.003581 123.878035 
L 109.111905 124.290526 
L 109.27439 123.823389 
L 109.491037 125.385041 
L 109.545199 125.26661 
L 109.653523 124.933506 
L 109.816008 125.801831 
L 109.87017 125.729294 
L 110.303464 124.467626 
L 110.357626 124.790982 
L 110.411787 124.619236 
L 110.736758 123.791954 
L 110.79092 124.213765 
L 110.845081 124.086312 
L 111.007567 123.706155 
L 111.061729 124.022712 
L 111.11589 123.855815 
L 111.170052 123.935319 
L 111.386699 123.415587 
L 111.440861 123.95773 
L 111.495023 123.807562 
L 111.657508 123.424958 
L 111.71167 124.107594 
L 111.765831 123.968808 
L 111.982479 123.525959 
L 112.307449 122.737124 
L 112.415773 122.924825 
L 112.469934 122.788448 
L 112.524096 122.640345 
L 112.63242 123.008676 
L 112.794905 122.625034 
L 112.903229 123.462569 
L 112.95739 123.333277 
L 113.119876 122.963686 
L 113.282361 123.389035 
L 113.932302 122.046176 
L 114.094787 122.702949 
L 114.419758 121.942096 
L 114.636405 123.226572 
L 114.907214 122.60113 
L 115.015537 123.406092 
L 115.069699 123.262997 
L 115.502993 122.369377 
L 115.665478 123.013424 
L 115.71964 122.936739 
L 115.936287 122.54052 
L 115.990449 122.717775 
L 116.044611 122.601201 
L 116.31542 122.015715 
L 116.369581 122.285292 
L 116.423743 122.192231 
L 116.802876 121.454656 
L 116.911199 121.693743 
L 116.965361 121.563317 
L 117.019523 121.472433 
L 117.073684 121.666345 
L 117.127846 121.582697 
L 117.290331 121.219757 
L 117.344493 121.389016 
L 117.398655 121.253358 
L 117.831949 120.441998 
L 118.15692 119.792052 
L 118.211081 120.581244 
L 118.265243 120.485555 
L 118.752699 119.537117 
L 118.861023 120.248572 
L 118.915184 120.141248 
L 119.240155 119.532713 
L 119.294317 120.156118 
L 119.348478 120.081453 
L 119.565126 119.703539 
L 119.727611 120.109015 
L 120.160905 119.40272 
L 120.377552 119.064435 
L 120.485876 119.647341 
L 120.540037 119.553963 
L 121.352464 118.246428 
L 121.406626 118.901961 
L 121.460787 118.806359 
L 121.569111 118.620492 
L 121.623273 118.931403 
L 121.677434 118.84712 
L 121.785758 118.630957 
L 121.83992 118.766816 
L 121.894081 118.689299 
L 122.110728 118.334588 
L 122.16489 118.729347 
L 122.219052 118.620071 
L 122.381537 118.365707 
L 122.435699 118.43513 
L 122.489861 118.57994 
L 122.544023 118.497508 
L 122.652346 118.34529 
L 122.706508 118.509375 
L 122.76067 118.427342 
L 122.814831 118.321245 
L 122.868993 118.615599 
L 122.923155 118.511046 
L 123.193964 118.250885 
L 123.248126 118.344508 
L 123.302287 118.749769 
L 123.356449 118.694067 
L 123.627258 118.280921 
L 123.68142 118.527897 
L 123.735581 118.450374 
L 123.789743 118.359618 
L 123.843905 118.619135 
L 123.898067 118.558113 
L 124.114714 118.205663 
L 124.168876 118.487047 
L 124.223037 118.405857 
L 124.385523 118.170575 
L 124.493846 118.593209 
L 124.548008 118.509447 
L 125.306273 117.380096 
L 125.360434 117.64339 
L 125.414596 117.560446 
L 125.577081 117.368038 
L 125.631243 117.608871 
L 125.685405 117.526328 
L 126.064537 117.026134 
L 126.118699 117.361694 
L 126.172861 117.305377 
L 126.281184 117.228751 
L 127.093611 116.453579 
L 127.147773 116.775645 
L 127.201934 116.701367 
L 128.826787 115.334489 
L 129.747537 114.563741 
L 129.801699 114.704472 
L 129.855861 114.662917 
L 130.072508 114.457088 
L 130.12667 114.658886 
L 130.180831 114.61493 
L 130.45164 114.358639 
L 130.559964 114.677441 
L 130.614126 114.625994 
L 131.04742 114.229547 
L 131.426552 113.939249 
L 131.480714 114.266885 
L 131.534876 114.230146 
L 132.238978 113.725653 
L 132.29314 113.843306 
L 132.347302 113.805784 
L 132.455626 113.714632 
L 132.509787 114.000587 
L 132.563949 113.970571 
L 132.997243 113.685324 
L 133.430537 113.398464 
L 133.484699 113.628992 
L 133.538861 113.600599 
L 136.517758 112.020658 
L 136.57192 112.227524 
L 136.626081 112.196678 
L 137.438508 111.829646 
L 137.709317 112.020632 
L 137.871802 111.959553 
L 137.925964 112.152494 
L 137.980125 112.133678 
L 139.171684 111.681393 
L 139.65914 111.489036 
L 140.363243 111.249387 
L 140.525728 111.315307 
L 141.392317 111.058877 
L 142.258905 110.818924 
L 143.01717 110.619946 
L 143.071331 110.79118 
L 143.125493 110.768589 
L 143.775434 110.589477 
L 143.883758 110.690818 
L 144.804508 110.493391 
L 148.812478 110.304765 
L 156.015993 109.383061 
L 157.857493 109.237753 
L 160.348934 109.10158 
L 162.515405 109.03956 
L 237.800258 109.148073 
L 238.125228 109.169773 
L 270.947257 109.277195 
L 271.163905 109.320588 
L 287.791566 109.424763 
L 288.008213 109.468144 
L 294.399302 109.573358 
L 294.615949 109.616729 
L 301.386169 109.725144 
L 301.71114 109.746825 
L 316.822272 109.854141 
L 317.038919 109.897494 
L 327.81711 110.005867 
L 328.142081 110.027539 
L 337.403743 110.133725 
L 337.62039 110.177061 
L 343.46986 110.284303 
L 343.686507 110.327629 
L 355.277125 110.429408 
L 355.43961 110.516033 
L 359.935037 110.597199 
L 360.151684 110.640499 
L 361.614051 110.727093 
L 361.830698 110.770386 
L 365.297051 110.875326 
L 365.459537 110.940248 
L 369.900801 110.982432 
L 370.117448 111.133884 
L 372.500566 111.197685 
L 372.663051 111.262577 
L 382.682978 111.324164 
L 382.845463 111.410667 
L 385.066095 111.453915 
L 385.228581 111.540402 
L 395.790125 111.57592 
L 395.95261 111.662384 
L 406.189184 111.741101 
L 406.405831 111.782108 
L 410.68461 111.883499 
L 411.009581 111.905102 
L 415.180036 112.013107 
L 415.396684 112.056305 
L 419.404654 112.163177 
L 419.621301 112.206365 
L 424.062566 112.290509 
L 424.225051 112.355278 
L 426.229036 112.441627 
L 426.391522 112.506382 
L 431.157757 112.591596 
L 431.320242 112.656337 
L 435.436536 112.74265 
L 435.653183 112.785802 
L 443.506639 112.89031 
L 443.723286 112.933451 
L 446.756345 113.041295 
L 446.972992 113.084428 
L 452.984948 113.14575 
L 453.147433 113.210436 
L 458.455286 113.296676 
L 458.617772 113.361349 
L 465.604639 113.447572 
L 465.821286 113.487292 
L 472.049889 113.584871 
L 472.429022 113.627963 
L 479.090919 113.727755 
L 479.307566 113.770833 
L 483.153051 113.873982 
L 483.478022 113.895516 
L 488.406742 114.000904 
L 488.623389 114.043963 
L 492.089742 114.127797 
L 492.306389 114.170847 
L 497.180948 114.275042 
L 497.343433 114.3396 
L 500.051522 114.447184 
L 500.268169 114.490213 
L 506.280124 114.509441 
L 506.280124 114.509441 
" clip-path="url(#pcd50328541)" style="fill: none; stroke: #2ca02c; stroke-width: 1.8; stroke-linecap: square"/>
   </g>
   <g id="line2d_30">
    <path d="M 77.427273 36.121818 
L 77.481434 36.121818 
L 77.64392 249.758182 
L 77.806405 210.640549 
L 78.023052 156.024061 
L 78.077214 192.183623 
L 78.131376 179.738188 
L 78.456346 137.603868 
L 78.510508 158.926425 
L 78.56467 153.064393 
L 78.672993 142.79416 
L 78.835479 153.649672 
L 78.997964 140.034053 
L 79.052126 172.698191 
L 79.106287 168.501505 
L 79.268773 157.748524 
L 79.322934 153.89847 
L 79.377096 163.336877 
L 79.431258 159.248027 
L 80.135361 127.208823 
L 80.243684 134.11642 
L 80.297846 132.232513 
L 80.568655 122.89112 
L 80.622817 125.464254 
L 80.785302 139.735455 
L 80.839464 144.399734 
L 80.893626 142.518127 
L 81.381082 129.273773 
L 82.355993 111.273981 
L 82.843449 104.473168 
L 82.897611 106.377172 
L 82.951773 105.666934 
L 83.060096 104.001991 
L 83.114258 107.507523 
L 83.16842 107.073011 
L 83.439229 104.288684 
L 83.655876 101.685509 
L 83.710037 107.896401 
L 83.764199 107.498758 
L 83.980846 105.163481 
L 84.035008 108.248727 
L 84.08917 107.589396 
L 84.143332 106.98091 
L 84.197493 110.98757 
L 84.251655 110.521874 
L 84.630787 106.281013 
L 84.684949 107.878598 
L 84.739111 112.884717 
L 84.793273 112.120622 
L 84.847434 111.734889 
L 84.901596 113.918061 
L 84.955758 113.404805 
L 85.389052 109.44525 
L 85.443214 111.204163 
L 85.497376 110.664003 
L 85.768184 108.330436 
L 85.822346 110.975992 
L 85.876508 110.502696 
L 85.984832 109.772055 
L 86.038993 111.757885 
L 86.093155 111.22654 
L 86.25564 109.907122 
L 86.309802 110.570854 
L 86.363964 109.986276 
L 86.418126 109.591563 
L 86.472287 111.053845 
L 86.526449 110.514329 
L 86.634773 109.664129 
L 86.688934 112.591164 
L 86.743096 112.083238 
L 87.338876 107.738123 
L 87.393037 111.70448 
L 87.447199 111.327579 
L 87.609684 110.675156 
L 87.663846 114.028213 
L 87.718008 113.671646 
L 87.880493 112.384966 
L 87.934655 114.38619 
L 87.988817 113.96814 
L 88.151302 112.892544 
L 88.313787 117.282015 
L 88.367949 116.822164 
L 88.422111 117.908283 
L 88.476273 117.422274 
L 89.072052 112.989575 
L 89.288699 118.232099 
L 89.342861 117.821326 
L 89.397023 118.361169 
L 89.451184 117.922057 
L 89.505346 118.276171 
L 89.559508 117.87878 
L 89.61367 118.716354 
L 89.667832 118.443703 
L 90.209449 114.76214 
L 90.371934 117.119132 
L 90.426096 116.777395 
L 90.480258 117.166291 
L 90.53442 116.793621 
L 90.642743 116.130275 
L 90.696905 117.972673 
L 90.751067 117.658746 
L 91.45517 113.59941 
L 91.509332 115.220806 
L 91.563493 114.879137 
L 91.671817 114.274513 
L 91.725979 116.498038 
L 91.78014 116.125619 
L 92.159273 114.29957 
L 92.213434 115.084121 
L 92.267596 114.725047 
L 92.484243 113.540432 
L 92.70089 116.80558 
L 92.809214 116.100086 
L 92.863376 116.926195 
L 92.917537 116.576044 
L 92.971699 116.214905 
L 93.025861 116.72023 
L 93.080023 118.361996 
L 93.134184 118.077625 
L 93.404993 116.59359 
L 93.459155 117.889769 
L 93.513317 117.582008 
L 93.838287 115.883801 
L 93.892449 116.909468 
L 93.946611 116.658026 
L 94.163258 115.611989 
L 94.271582 118.242052 
L 94.325743 117.970116 
L 94.54239 116.874607 
L 94.596552 116.573607 
L 94.650714 117.798014 
L 94.704876 117.593525 
L 94.867361 116.906694 
L 94.975684 119.966853 
L 95.084008 119.462072 
L 95.679787 117.16812 
L 95.733949 117.918038 
L 95.788111 117.625665 
L 95.896434 117.173241 
L 95.950596 117.862526 
L 96.004758 117.731861 
L 96.438052 115.930332 
L 96.492214 117.420026 
L 96.546376 117.243857 
L 97.196317 114.393653 
L 97.250479 116.084516 
L 97.30464 115.857011 
L 97.575449 114.991485 
L 97.629611 115.845909 
L 97.683773 115.725394 
L 98.442037 112.905575 
L 98.496199 112.924379 
L 98.604523 113.428648 
L 98.658684 113.284186 
L 99.037817 111.849774 
L 99.14614 112.844778 
L 99.200302 112.669981 
L 99.958567 110.010231 
L 100.012729 111.035197 
L 100.06689 110.889015 
L 100.229376 110.353951 
L 100.283537 111.307474 
L 100.337699 111.1566 
L 100.391861 110.982813 
L 100.446023 112.094059 
L 100.500184 111.918898 
L 100.608508 111.526991 
L 100.66267 112.280552 
L 100.716831 112.089125 
L 100.770993 111.924972 
L 100.825155 112.253702 
L 100.879317 112.037193 
L 100.933479 111.833519 
L 100.98764 112.417836 
L 101.041802 112.243219 
L 101.150126 111.830253 
L 101.204287 112.70564 
L 101.258449 112.549447 
L 101.529258 111.760973 
L 101.637581 112.946937 
L 101.691743 112.724536 
L 102.287523 110.817231 
L 102.395846 110.456747 
L 102.450008 111.0892 
L 102.50417 110.876934 
L 103.099949 109.085594 
L 103.479081 108.088642 
L 103.533243 108.684184 
L 103.587405 108.492319 
L 104.074861 107.196328 
L 104.237346 108.284476 
L 105.26642 105.928035 
L 105.320581 106.860778 
L 105.374743 106.744761 
L 105.699714 105.876639 
L 105.808037 107.379962 
L 105.862199 107.292137 
L 105.916361 107.186583 
L 105.970523 107.530555 
L 106.024684 107.393645 
L 106.349655 106.675161 
L 106.403817 106.541508 
L 106.457979 106.975473 
L 106.51214 106.861472 
L 106.782949 106.167925 
L 106.837111 107.108951 
L 106.891273 106.97889 
L 107.595376 105.450393 
L 107.703699 106.742253 
L 107.757861 106.637338 
L 108.245317 105.570516 
L 108.299479 106.121626 
L 108.35364 105.986944 
L 108.732773 105.110085 
L 108.786934 105.509139 
L 108.841096 105.417562 
L 109.166067 104.629374 
L 109.220229 105.201487 
L 109.27439 105.076551 
L 110.19514 103.1852 
L 110.303464 103.025227 
L 110.357626 103.166937 
L 110.411787 103.033239 
L 110.574273 102.751119 
L 110.628434 103.347098 
L 110.682596 103.246791 
L 111.224214 102.168148 
L 112.63242 99.391658 
L 112.686581 99.956282 
L 112.740743 99.870037 
L 113.011552 99.447093 
L 113.228199 99.036056 
L 113.282361 99.855835 
L 113.336523 99.767931 
L 114.040626 98.468679 
L 114.094787 98.658896 
L 114.148949 98.544102 
L 114.690567 97.596212 
L 114.744729 97.812635 
L 114.79889 97.705904 
L 115.448831 96.69003 
L 115.502993 97.17383 
L 115.557155 97.071734 
L 116.044611 96.289471 
L 116.098773 96.792354 
L 116.152934 96.720628 
L 116.477905 96.232928 
L 116.532067 96.697958 
L 116.586228 96.597951 
L 117.723626 94.940424 
L 117.940273 94.641568 
L 117.994434 94.983548 
L 118.048596 94.910592 
L 118.102758 94.850798 
L 118.15692 95.339413 
L 118.211081 95.24023 
L 118.319405 95.073933 
L 118.373567 95.378317 
L 118.427728 95.284871 
L 118.698537 94.911456 
L 118.752699 95.221802 
L 118.806861 95.135837 
L 118.861023 95.052678 
L 118.915184 95.624495 
L 118.969346 95.533153 
L 119.023508 95.481816 
L 119.07767 95.732478 
L 119.131831 95.643833 
L 119.835934 94.643664 
L 119.890096 95.925485 
L 119.944258 95.845848 
L 120.540037 95.040096 
L 121.027493 94.493587 
L 121.135817 94.418102 
L 121.298302 95.275522 
L 121.406626 95.179743 
L 121.894081 94.609147 
L 121.948243 95.103956 
L 122.002405 95.035879 
L 122.219052 94.840882 
L 122.273214 95.315584 
L 122.327376 95.230968 
L 122.814831 94.703756 
L 122.923155 95.380005 
L 123.031478 95.271659 
L 123.735581 94.481819 
L 123.789743 94.850894 
L 123.843905 94.801466 
L 124.060552 94.581778 
L 124.331361 95.639026 
L 126.931126 93.400159 
L 127.039449 93.324335 
L 127.147773 93.828579 
L 127.201934 93.777047 
L 127.256096 93.737388 
L 127.310258 94.133057 
L 127.36442 94.084597 
L 127.418581 94.03944 
L 127.472743 94.235578 
L 127.526905 94.204353 
L 127.68939 94.09908 
L 127.743552 94.394437 
L 127.797714 94.351396 
L 127.906037 94.290173 
L 128.068523 94.820701 
L 128.176846 94.749483 
L 128.393493 94.647872 
L 128.555978 95.080681 
L 129.151758 94.729972 
L 129.20592 95.224138 
L 129.260081 95.173687 
L 129.422567 95.038861 
L 129.476728 95.311115 
L 129.53089 95.28326 
L 129.747537 95.125197 
L 130.018346 95.406082 
L 130.072508 95.367688 
L 130.12667 96.002088 
L 130.180831 95.962281 
L 130.884934 95.552262 
L 130.993258 95.764667 
L 131.04742 95.725359 
L 131.534876 95.416954 
L 131.589037 95.606711 
L 131.643199 95.568808 
L 131.805684 95.471114 
L 131.914008 96.287052 
L 131.96817 96.24886 
L 132.022331 96.211775 
L 132.076493 96.4317 
L 132.130655 96.407277 
L 132.563949 96.125194 
L 132.618111 96.248575 
L 132.672273 96.222262 
L 132.780596 96.162353 
L 132.834758 96.554199 
L 132.88892 96.510911 
L 133.376376 96.231565 
L 133.484699 96.296592 
L 134.676258 95.63013 
L 134.838743 96.536924 
L 135.217876 96.333711 
L 135.272037 96.634587 
L 135.326199 96.60052 
L 136.192787 96.111336 
L 136.246949 96.372086 
L 136.301111 96.331351 
L 136.517758 96.221643 
L 136.57192 96.36657 
L 136.626081 96.342202 
L 136.842728 96.228743 
L 136.89689 96.63961 
L 136.951052 96.604019 
L 137.167699 96.603804 
L 137.221861 97.009202 
L 137.276023 96.975539 
L 137.709317 96.755098 
L 137.763478 97.078642 
L 137.81764 97.049166 
L 138.088449 96.875936 
L 138.142611 97.042153 
L 138.196773 97.009778 
L 138.41342 96.897744 
L 138.467581 97.070511 
L 138.521743 97.03519 
L 138.900875 96.811099 
L 139.009199 96.857549 
L 139.171684 96.761601 
L 139.225846 96.990313 
L 139.280008 96.960292 
L 139.496655 96.842497 
L 139.550817 97.095007 
L 139.604978 97.068018 
L 140.25492 96.695632 
L 140.471567 97.431762 
L 140.525728 97.397885 
L 140.796537 97.238966 
L 140.850699 97.581987 
L 140.904861 97.54517 
L 140.959023 97.50939 
L 141.013184 97.882785 
L 141.067346 97.846846 
L 141.825611 97.424723 
L 141.879773 97.718423 
L 141.933934 97.684838 
L 142.258905 97.492921 
L 142.367228 97.926618 
L 142.42139 97.89209 
L 142.746361 97.682796 
L 142.800523 98.071557 
L 142.854684 98.043007 
L 143.504625 97.729705 
L 143.612949 97.687846 
L 143.721273 98.136864 
L 143.775434 98.107502 
L 143.883758 98.043978 
L 143.93792 98.483011 
L 143.992081 98.452559 
L 145.671096 97.777574 
L 145.725258 97.957819 
L 145.77942 97.927009 
L 146.321037 97.719844 
L 146.375199 98.102924 
L 146.429361 98.085623 
L 147.62092 97.649594 
L 147.729243 97.707389 
L 148.487508 97.441291 
L 148.54167 97.703463 
L 148.595831 97.67518 
L 149.083287 97.611526 
L 150.220684 97.33213 
L 150.491493 97.320607 
L 150.545655 97.626735 
L 150.599817 97.594175 
L 150.924787 97.489289 
L 150.978949 97.693285 
L 151.033111 97.663564 
L 151.574728 97.460007 
L 151.683052 97.407486 
L 151.737214 97.776599 
L 151.791375 97.767343 
L 152.008023 97.663864 
L 152.062184 98.056233 
L 152.116346 98.037681 
L 152.278831 97.977466 
L 152.332993 98.322541 
L 152.387155 98.307661 
L 153.091258 98.088077 
L 153.199581 98.06685 
L 153.253743 98.412174 
L 153.307905 98.392705 
L 153.687037 98.275224 
L 153.795361 98.424759 
L 153.849523 98.410887 
L 153.903684 98.716214 
L 153.957846 98.692073 
L 155.582699 98.265307 
L 155.636861 98.428052 
L 155.691023 98.39966 
L 156.990905 97.925436 
L 157.045067 98.282748 
L 157.099228 98.262815 
L 157.370037 98.162436 
L 157.478361 98.316225 
L 158.344949 97.985964 
L 158.561596 97.907294 
L 158.66992 98.270249 
L 158.724081 98.246026 
L 160.132287 97.776103 
L 160.186449 98.002411 
L 160.240611 97.975835 
L 161.053037 97.733281 
L 161.107199 98.081768 
L 161.161361 98.058816 
L 161.811302 97.835477 
L 162.082111 98.258271 
L 162.190434 98.227454 
L 162.244596 98.577954 
L 162.298758 98.563803 
L 162.569567 98.554587 
L 162.67789 98.69677 
L 162.786214 98.658768 
L 162.840375 98.990442 
L 162.894537 98.97713 
L 163.27367 98.861998 
L 163.436155 99.215846 
L 163.977772 99.10976 
L 164.031934 99.372172 
L 164.086096 99.343772 
L 164.140258 99.329581 
L 164.248581 99.445782 
L 164.844361 99.293442 
L 165.061008 99.690865 
L 165.548464 99.683987 
L 165.710949 99.954058 
L 167.87742 99.563133 
L 168.906493 99.386065 
L 169.12314 99.364219 
L 169.285625 99.553483 
L 169.610596 99.5071 
L 169.773081 99.637922 
L 172.210361 99.527411 
L 172.372846 99.590925 
L 173.185272 99.548314 
L 173.347758 99.621689 
L 173.456081 99.598231 
L 173.618567 99.761753 
L 173.997699 99.704361 
L 174.160184 99.849873 
L 174.755964 99.768155 
L 174.918449 99.934594 
L 175.460067 99.852904 
L 175.622552 99.931795 
L 175.839199 99.908351 
L 176.001684 100.025091 
L 176.16417 99.998159 
L 176.380817 100.217735 
L 176.868272 100.163781 
L 177.030758 100.32754 
L 177.464052 100.280522 
L 177.626537 100.398424 
L 178.005669 100.339232 
L 178.168155 100.501636 
L 178.33064 100.560496 
L 178.980581 100.482115 
L 179.143067 100.618777 
L 180.117978 100.49703 
L 180.280464 100.6351 
L 180.876243 100.544805 
L 181.038728 100.647726 
L 181.851155 100.628091 
L 181.959478 100.615098 
L 182.121964 100.84209 
L 182.609419 100.79434 
L 182.771905 100.937654 
L 183.259361 100.973159 
L 183.476008 101.261885 
L 183.746817 101.226143 
L 183.909302 101.433092 
L 184.180111 101.476918 
L 184.450919 101.796821 
L 184.992537 101.770501 
L 185.155022 101.907046 
L 185.425831 101.89299 
L 185.588317 102.0052 
L 189.37964 101.903438 
L 189.542125 101.956734 
L 189.758772 101.942719 
L 189.975419 102.17241 
L 190.733684 102.23796 
L 190.896169 102.372901 
L 192.737669 102.281445 
L 192.900155 102.407377 
L 194.308361 102.47301 
L 194.470846 102.586071 
L 195.337434 102.646755 
L 195.499919 102.738231 
L 195.716567 102.727644 
L 195.879052 102.840538 
L 197.233096 102.789338 
L 197.395581 102.864528 
L 198.316331 102.879404 
L 198.478816 102.976837 
L 199.345405 102.936208 
L 199.50789 103.047911 
L 201.241066 103.059295 
L 201.403552 103.152105 
L 202.378464 103.198726 
L 202.540949 103.330663 
L 203.299214 103.402957 
L 203.570022 103.549036 
L 203.786669 103.622936 
L 203.949155 103.794718 
L 205.03239 103.759085 
L 205.194875 103.874703 
L 206.007302 103.93236 
L 208.444581 103.845062 
L 208.661228 103.978176 
L 209.527816 104.027722 
L 209.690302 104.084474 
L 210.55689 104.108199 
L 210.719375 104.200332 
L 211.423478 104.253287 
L 212.831684 104.287434 
L 212.994169 104.381214 
L 213.698272 104.398683 
L 213.860758 104.514553 
L 215.268964 104.563704 
L 215.431449 104.620257 
L 219.331096 104.666661 
L 289.091449 104.763753 
L 289.308096 104.802586 
L 294.020169 104.897863 
L 294.236816 104.936688 
L 348.886037 105.03014 
L 349.265169 105.049548 
L 364.213816 105.14568 
L 364.592948 105.165085 
L 372.121434 105.2427 
L 372.392242 105.300906 
L 392.161287 105.396095 
L 392.540419 105.415493 
L 409.384728 105.509756 
L 409.76386 105.52915 
L 420.162919 105.62339 
L 420.542051 105.642781 
L 424.712507 105.720337 
L 424.929154 105.759112 
L 436.357286 105.85422 
L 436.736419 105.873604 
L 452.984948 105.964132 
L 453.147433 106.022268 
L 456.613786 106.114582 
L 456.830433 106.15333 
L 459.863492 106.249273 
L 460.080139 106.288013 
L 477.953522 106.395049 
L 478.170169 106.433775 
L 479.578375 106.509386 
L 479.795022 106.547187 
L 481.744845 106.640296 
L 481.961492 106.679006 
L 487.756801 106.755499 
L 488.02761 106.813554 
L 492.902169 106.910302 
L 493.118816 106.948998 
L 497.397595 106.986767 
L 506.225963 107.061372 
L 506.44261 107.100057 
L 514.350227 107.192129 
L 514.566874 107.230805 
L 519.008139 107.327487 
L 519.387271 107.346821 
L 521.824551 107.443488 
L 522.041198 107.482151 
L 524.315992 107.556677 
L 524.532639 107.595333 
L 530.70708 107.66984 
L 530.923727 107.708488 
L 532.22361 107.8051 
L 532.602742 107.824421 
L 536.394066 107.921017 
L 536.610713 107.959652 
L 541.972727 108.056231 
L 541.972727 108.056231 
" clip-path="url(#pcd50328541)" style="fill: none; stroke: #d62728; stroke-width: 1.8; stroke-linecap: square"/>
   </g>
   <g id="line2d_31">
    <path d="M 77.427273 61.600581 
L 77.481434 143.720594 
L 77.535596 111.731769 
L 77.698082 73.522462 
L 77.806405 128.069034 
L 77.860567 115.627331 
L 78.023052 146.457025 
L 78.348023 108.179263 
L 78.456346 101.301763 
L 78.618832 112.222229 
L 79.106287 90.000909 
L 79.539582 78.568581 
L 80.135361 68.815441 
L 81.001949 61.096675 
L 81.868537 56.047517 
L 82.57264 53.322152 
L 83.16842 51.545222 
L 84.468302 48.64278 
L 85.118243 47.562735 
L 86.634773 45.759913 
L 87.555523 44.877268 
L 89.93864 43.239476 
L 91.563493 42.419047 
L 93.29667 41.733444 
L 95.896434 40.943165 
L 98.496199 40.346819 
L 105.158096 39.319939 
L 109.707684 38.864718 
L 119.727611 38.219115 
L 128.880949 37.857415 
L 137.221861 37.76934 
L 150.70814 37.832637 
L 150.870625 37.895928 
L 157.478361 37.938045 
L 157.640846 38.022418 
L 158.236625 38.085691 
L 158.399111 38.254394 
L 159.536508 38.317589 
L 159.698993 38.380836 
L 164.898522 38.485916 
L 165.11517 38.528067 
L 165.710949 38.633434 
L 165.873434 38.717717 
L 167.173317 38.822948 
L 167.335802 38.949333 
L 168.906493 38.949218 
L 169.068978 39.075577 
L 170.531346 39.075417 
L 170.693831 39.201748 
L 172.156199 39.306707 
L 172.372846 39.348803 
L 174.160184 39.36941 
L 174.32267 39.474624 
L 174.485155 39.474624 
L 174.64764 39.600861 
L 175.24342 39.663973 
L 175.405905 39.727079 
L 178.493125 39.789781 
L 178.655611 39.915954 
L 180.497111 40.000058 
L 180.713758 40.042106 
L 182.121964 40.104959 
L 182.284449 40.25209 
L 182.93439 40.357167 
L 183.096875 40.46223 
L 183.530169 40.567278 
L 183.746817 40.609294 
L 184.342596 40.69276 
L 184.505081 40.776765 
L 185.046699 40.860632 
L 185.209184 41.028591 
L 186.075772 41.112557 
L 186.238258 41.175183 
L 186.888199 41.174704 
L 187.050684 41.321587 
L 189.433802 41.320671 
L 189.596287 41.467501 
L 189.758772 41.509447 
L 189.921258 41.593332 
L 190.137905 41.635271 
L 190.354552 41.782041 
L 191.22114 41.82397 
L 191.383625 41.928783 
L 192.683508 42.032861 
L 192.845993 42.095726 
L 193.495934 42.158585 
L 193.658419 42.22144 
L 195.120787 42.326186 
L 195.283272 42.472806 
L 196.041537 42.556229 
L 196.204022 42.619048 
L 196.637317 42.660924 
L 196.799802 42.891203 
L 199.291243 42.953256 
L 199.453728 43.016035 
L 199.887022 43.099734 
L 200.049508 43.204344 
L 203.245052 43.307191 
L 203.407537 43.411748 
L 204.599096 43.411748 
L 204.761581 43.537197 
L 205.465684 43.599914 
L 205.628169 43.683529 
L 206.007302 43.725333 
L 206.169787 43.829833 
L 207.902964 43.913423 
L 208.065449 43.976109 
L 208.282096 44.03879 
L 208.498743 44.226804 
L 209.311169 44.310351 
L 209.473655 44.393889 
L 209.690302 44.456086 
L 209.906949 44.623113 
L 211.206831 44.664517 
L 211.369316 44.789752 
L 211.694287 44.872639 
L 211.856772 44.997831 
L 213.427464 45.101415 
L 213.589949 45.184847 
L 213.752434 45.184847 
L 213.914919 45.309482 
L 215.756419 45.371163 
L 215.918905 45.496245 
L 216.08139 45.496245 
L 216.243875 45.621308 
L 217.110464 45.704413 
L 217.272949 45.829438 
L 218.302022 45.912776 
L 218.464508 46.016937 
L 223.772361 46.098776 
L 223.989008 46.286182 
L 224.584787 46.286182 
L 224.747272 46.411094 
L 226.155478 46.494358 
L 226.317963 46.63948 
L 228.755243 46.701907 
L 228.917728 46.847549 
L 229.784316 46.889157 
L 229.946802 46.972364 
L 231.355008 47.054679 
L 231.517493 47.137416 
L 234.821361 47.198303 
L 235.092169 47.572419 
L 236.012919 47.676309 
L 236.175405 47.780184 
L 239.045978 47.861219 
L 239.262625 48.048106 
L 240.94164 48.131153 
L 241.104125 48.359485 
L 241.645743 48.379579 
L 241.808228 48.483335 
L 242.024875 48.524834 
L 242.728978 48.627561 
L 242.891463 48.731276 
L 243.541405 48.834977 
L 243.70389 48.980134 
L 243.866375 49.042336 
L 244.02886 49.125265 
L 245.003772 49.165497 
L 245.166258 49.289855 
L 247.603537 49.392935 
L 247.766022 49.455095 
L 247.928508 49.600117 
L 249.282552 49.702591 
L 249.445037 49.764721 
L 249.55336 49.764721 
L 249.715846 49.971786 
L 250.257463 50.054596 
L 250.419949 50.158097 
L 252.153125 50.261203 
L 252.31561 50.426748 
L 255.836125 50.529034 
L 256.161096 50.673435 
L 256.973522 50.776838 
L 257.136008 50.900904 
L 260.764846 50.983603 
L 260.927331 51.066293 
L 265.422757 51.168836 
L 265.585243 51.313495 
L 267.155934 51.354821 
L 267.318419 51.437467 
L 267.860037 51.520105 
L 268.130846 51.747311 
L 268.293331 51.746053 
L 268.455816 51.869945 
L 269.322405 51.952529 
L 269.539052 51.992966 
L 270.243155 52.093815 
L 270.40564 52.176358 
L 270.893096 52.238259 
L 271.055581 52.362048 
L 272.680434 52.463216 
L 272.842919 52.56567 
L 274.034478 52.648149 
L 274.196963 52.73062 
L 274.901066 52.792467 
L 275.171875 52.957367 
L 276.525919 53.038444 
L 276.742566 53.182676 
L 278.638228 53.265082 
L 278.909037 53.347479 
L 280.479728 53.450464 
L 280.696375 53.635801 
L 282.321228 53.716744 
L 282.483713 53.81967 
L 283.187816 53.881419 
L 283.350302 53.963744 
L 283.566949 54.066637 
L 283.729434 54.148942 
L 284.54186 54.251568 
L 284.704346 54.333852 
L 284.866831 54.395559 
L 285.029316 54.498393 
L 286.437522 54.601213 
L 286.654169 54.642338 
L 287.358272 54.70402 
L 287.520757 54.82737 
L 288.983125 54.928887 
L 289.14561 55.011093 
L 291.745375 55.113075 
L 291.90786 55.174713 
L 292.720287 55.236346 
L 292.882772 55.297974 
L 293.153581 55.400676 
L 293.316066 55.462291 
L 294.290978 55.544436 
L 294.453463 55.606039 
L 295.049243 55.665807 
L 295.26589 55.850555 
L 296.944904 55.931061 
L 297.10739 55.992623 
L 301.386169 56.052846 
L 301.602816 56.257985 
L 302.198596 56.340025 
L 302.361081 56.462253 
L 303.823449 56.462253 
L 303.985934 56.584452 
L 305.448301 56.66645 
L 305.610787 56.768936 
L 306.152404 56.850915 
L 306.63986 57.096799 
L 307.56061 57.158258 
L 307.723096 57.322123 
L 307.831419 57.404043 
L 308.048066 57.445 
L 309.293787 57.445 
L 309.456272 57.567856 
L 311.568581 57.62899 
L 311.731066 57.690405 
L 312.597654 57.688101 
L 312.76014 57.851833 
L 314.114184 57.912933 
L 314.276669 58.035698 
L 314.818287 58.035698 
L 314.980772 58.158443 
L 315.793199 58.240262 
L 316.009846 58.424324 
L 316.172331 58.485668 
L 316.497301 58.485668 
L 316.659787 58.628784 
L 317.580537 58.730994 
L 317.743022 58.792314 
L 318.501287 58.874065 
L 318.663772 58.976242 
L 319.801169 58.974718 
L 319.963654 59.179018 
L 320.45111 59.17871 
L 320.613596 59.321686 
L 321.642669 59.403374 
L 321.805154 59.464635 
L 322.455096 59.464635 
L 322.617581 59.587141 
L 322.780066 59.668802 
L 323.105037 59.730041 
L 323.321684 59.995355 
L 327.49214 60.053377 
L 327.654625 60.155375 
L 328.521213 60.216567 
L 328.683698 60.318543 
L 330.850169 60.420506 
L 331.012654 60.481677 
L 332.09589 60.54089 
L 332.312537 60.663198 
L 333.449934 60.765106 
L 333.612419 60.867001 
L 334.803978 60.907095 
L 334.966463 60.988594 
L 336.69964 61.049381 
L 336.862125 61.110494 
L 337.457904 61.151233 
L 337.62039 61.232706 
L 339.841022 61.332184 
L 340.003507 61.393269 
L 341.845007 61.472682 
L 342.061654 61.635521 
L 342.169978 61.635521 
L 342.332463 61.777976 
L 344.878066 61.879028 
L 345.148875 61.960407 
L 345.744654 62.021435 
L 345.90714 62.082458 
L 347.531993 62.163815 
L 347.694478 62.285833 
L 348.66939 62.386452 
L 349.211007 62.488102 
L 350.51089 62.589738 
L 350.673375 62.710269 
L 351.594125 62.791197 
L 351.75661 62.852152 
L 353.652272 62.933418 
L 353.814757 63.014675 
L 355.11464 63.113363 
L 355.331287 63.235203 
L 355.602095 63.31642 
L 355.818743 63.499125 
L 356.03539 63.53972 
L 356.252037 63.641199 
L 356.414522 63.742664 
L 359.880875 63.841168 
L 360.368331 63.921942 
L 361.55989 64.003075 
L 361.830698 64.145038 
L 362.751448 64.225775 
L 362.968095 64.266326 
L 363.293066 64.266326 
L 363.455551 64.387966 
L 364.105492 64.489318 
L 364.376301 64.631189 
L 365.351213 64.709588 
L 365.56786 64.93243 
L 366.326125 64.993194 
L 366.48861 65.114707 
L 367.246875 65.194161 
L 367.40936 65.2549 
L 368.655081 65.293067 
L 368.817566 65.414516 
L 369.575831 65.475233 
L 369.738316 65.535946 
L 371.633978 65.594698 
L 371.850625 65.695859 
L 373.042184 65.792677 
L 373.204669 65.893798 
L 373.908772 65.974685 
L 374.071257 66.075781 
L 375.69611 66.136432 
L 375.858595 66.197079 
L 376.29189 66.197079 
L 376.454375 66.338569 
L 378.999978 66.435597 
L 379.216625 66.476007 
L 380.841478 66.536619 
L 381.003963 66.698225 
L 381.762228 66.738622 
L 381.924713 66.839603 
L 382.303845 66.879992 
L 382.466331 67.081904 
L 384.145345 67.161831 
L 384.307831 67.303119 
L 385.986845 67.400293 
L 386.203492 67.581865 
L 389.344875 67.63737 
L 389.50736 67.718035 
L 391.673831 67.817177 
L 391.890478 67.978453 
L 392.107125 67.99861 
L 392.26961 68.199303 
L 394.652728 68.236203 
L 394.815213 68.336935 
L 395.03186 68.336935 
L 395.194345 68.538361 
L 395.356831 68.618916 
L 395.519316 68.739733 
L 399.148154 68.792785 
L 399.364801 68.994043 
L 402.127051 69.010251 
L 402.289536 69.130963 
L 402.939478 69.229791 
L 403.31861 69.270016 
L 404.131036 69.290128 
L 404.293522 69.390681 
L 407.00161 69.447922 
L 407.164095 69.508236 
L 408.572301 69.567662 
L 408.734786 69.648066 
L 408.951434 69.646737 
L 409.113919 69.827607 
L 412.417786 69.925392 
L 412.580272 70.005749 
L 412.796919 70.106182 
L 413.284375 70.186519 
L 416.100786 70.281965 
L 416.696566 70.402421 
L 419.025522 70.476363 
L 419.242169 70.636897 
L 423.087654 70.732643 
L 423.304301 70.772761 
L 423.412625 70.832933 
L 423.57511 70.893101 
L 425.741581 70.969638 
L 425.904066 71.088549 
L 426.33736 71.148688 
L 426.499845 71.228865 
L 426.662331 71.227939 
L 426.824816 71.348185 
L 427.149786 71.408302 
L 427.312272 71.466548 
L 428.882963 71.541079 
L 429.045448 71.601167 
L 430.670301 71.679401 
L 430.886948 71.719451 
L 431.211919 71.739475 
L 432.620125 71.796722 
L 432.836772 71.916837 
L 435.54486 72.007457 
L 435.707345 72.107499 
L 436.628095 72.187523 
L 436.790581 72.267539 
L 438.090463 72.30659 
L 438.252948 72.426588 
L 439.390345 72.426588 
L 439.552831 72.546568 
L 443.506639 72.640763 
L 443.83161 72.660752 
L 444.373228 72.720716 
L 444.535713 72.820645 
L 446.431375 72.91717 
L 446.59386 72.997086 
L 448.76033 73.096969 
L 448.922816 73.176867 
L 449.572757 73.276726 
L 449.735242 73.356605 
L 450.168536 73.416508 
L 450.331022 73.496372 
L 451.793389 73.526946 
L 452.335007 73.606778 
L 452.497492 73.706555 
L 453.093272 73.786368 
L 453.255757 73.906071 
L 453.689051 73.906071 
L 453.851536 74.025756 
L 454.826448 74.081097 
L 454.988933 74.14092 
L 456.884595 74.216169 
L 457.04708 74.295908 
L 458.834419 74.352189 
L 458.996904 74.431907 
L 460.242625 74.509598 
L 460.40511 74.668983 
L 461.109213 74.768582 
L 461.271698 74.828336 
L 462.517419 74.907999 
L 462.679904 74.967741 
L 465.875448 75.045344 
L 466.037933 75.12498 
L 467.662786 75.164796 
L 467.825272 75.244419 
L 469.233477 75.317341 
L 469.395963 75.416832 
L 469.991742 75.496415 
L 470.208389 75.536204 
L 471.074977 75.594846 
L 471.345786 75.733555 
L 471.45411 75.733555 
L 471.616595 75.932406 
L 471.995727 75.97217 
L 472.158213 76.09145 
L 473.349772 76.151083 
L 473.512257 76.210711 
L 474.21636 76.288626 
L 474.595492 76.467456 
L 477.411904 76.564135 
L 477.953522 76.663447 
L 480.715772 76.723029 
L 480.98658 76.901744 
L 481.961492 76.941453 
L 482.123977 77.040716 
L 485.427845 77.1362 
L 485.59033 77.255273 
L 485.969463 77.332482 
L 486.131948 77.471354 
L 489.435816 77.468644 
L 489.598301 77.587649 
L 489.814948 77.627313 
L 491.385639 77.645512 
L 491.548124 77.764485 
L 492.252227 77.823964 
L 492.414713 77.883439 
L 495.176963 77.977616 
L 495.339448 78.076706 
L 495.610257 78.074507 
L 495.772742 78.193391 
L 496.043551 78.193391 
L 496.206036 78.332066 
L 496.422683 78.411298 
L 496.63933 78.45091 
L 498.318345 78.549933 
L 498.534992 78.589538 
L 499.07661 78.607671 
L 499.239095 78.706669 
L 499.618227 78.785858 
L 499.780713 78.845244 
L 500.214007 78.944211 
L 500.376492 79.002462 
L 501.568051 79.097466 
L 501.83886 79.196388 
L 502.434639 79.293036 
L 502.597124 79.43148 
L 502.867933 79.569898 
L 503.08458 79.569898 
L 503.247066 79.688522 
L 503.842845 79.787362 
L 504.059492 79.925715 
L 505.413536 79.925715 
L 505.576021 80.04141 
L 507.634169 80.076901 
L 507.796654 80.23493 
L 509.800639 80.333682 
L 509.963124 80.388874 
L 510.613066 80.388295 
L 510.775551 80.565984 
L 512.075433 80.642615 
L 512.237919 80.701826 
L 514.946007 80.794077 
L 515.162654 80.99136 
L 516.191727 81.085869 
L 516.354213 81.16475 
L 517.274963 81.222727 
L 517.437448 81.321308 
L 519.062301 81.391883 
L 519.224786 81.510128 
L 521.553742 81.527462 
L 521.553742 81.527462 
" clip-path="url(#pcd50328541)" style="fill: none; stroke: #9467bd; stroke-width: 1.8; stroke-linecap: square"/>
   </g>
   <g id="patch_3">
    <path d="M 54.2 260.44 
L 54.2 25.44 
" style="fill: none; stroke: #000000; stroke-width: 0.8; stroke-linejoin: miter; stroke-linecap: square"/>
   </g>
   <g id="patch_4">
    <path d="M 565.2 260.44 
L 565.2 25.44 
" style="fill: none; stroke: #000000; stroke-width: 0.8; stroke-linejoin: miter; stroke-linecap: square"/>
   </g>
   <g id="patch_5">
    <path d="M 54.2 260.44 
L 565.2 260.44 
" style="fill: none; stroke: #000000; stroke-width: 0.8; stroke-linejoin: miter; stroke-linecap: square"/>
   </g>
   <g id="patch_6">
    <path d="M 54.2 25.44 
L 565.2 25.44 
" style="fill: none; stroke: #000000; stroke-width: 0.8; stroke-linejoin: miter; stroke-linecap: square"/>
   </g>
   <g id="text_16">
    <!-- Timely Transfer Rate (Cumulative) -->
    <g transform="translate(207.277187 19.44) scale(0.12 -0.12)">
     <defs>
      <path id="DejaVuSans-54" d="M -19 4666 
L 3928 4666 
L 3928 4134 
L 2272 4134 
L 2272 0 
L 1638 0 
L 1638 4134 
L -19 4134 
L -19 4666 
z
" transform="scale(0.015625)"/>
      <path id="DejaVuSans-52" d="M 2841 2188 
Q 3044 2119 3236 1894 
Q 3428 1669 3622 1275 
L 4263 0 
L 3584 0 
L 2988 1197 
Q 2756 1666 2539 1819 
Q 2322 1972 1947 1972 
L 1259 1972 
L 1259 0 
L 628 0 
L 628 4666 
L 2053 4666 
Q 2853 4666 3247 4331 
Q 3641 3997 3641 3322 
Q 3641 2881 3436 2590 
Q 3231 2300 2841 2188 
z
M 1259 4147 
L 1259 2491 
L 2053 2491 
Q 2509 2491 2742 2702 
Q 2975 2913 2975 3322 
Q 2975 3731 2742 3939 
Q 2509 4147 2053 4147 
L 1259 4147 
z
" transform="scale(0.015625)"/>
      <path id="DejaVuSans-28" d="M 1984 4856 
Q 1566 4138 1362 3434 
Q 1159 2731 1159 2009 
Q 1159 1288 1364 580 
Q 1569 -128 1984 -844 
L 1484 -844 
Q 1016 -109 783 600 
Q 550 1309 550 2009 
Q 550 2706 781 3412 
Q 1013 4119 1484 4856 
L 1984 4856 
z
" transform="scale(0.015625)"/>
      <path id="DejaVuSans-43" d="M 4122 4306 
L 4122 3641 
Q 3803 3938 3442 4084 
Q 3081 4231 2675 4231 
Q 1875 4231 1450 3742 
Q 1025 3253 1025 2328 
Q 1025 1406 1450 917 
Q 1875 428 2675 428 
Q 3081 428 3442 575 
Q 3803 722 4122 1019 
L 4122 359 
Q 3791 134 3420 21 
Q 3050 -91 2638 -91 
Q 1578 -91 968 557 
Q 359 1206 359 2328 
Q 359 3453 968 4101 
Q 1578 4750 2638 4750 
Q 3056 4750 3426 4639 
Q 3797 4528 4122 4306 
z
" transform="scale(0.015625)"/>
      <path id="DejaVuSans-29" d="M 513 4856 
L 1013 4856 
Q 1481 4119 1714 3412 
Q 1947 2706 1947 2009 
Q 1947 1309 1714 600 
Q 1481 -109 1013 -844 
L 513 -844 
Q 928 -128 1133 580 
Q 1338 1288 1338 2009 
Q 1338 2731 1133 3434 
Q 928 4138 513 4856 
z
" transform="scale(0.015625)"/>
     </defs>
     <use xlink:href="#DejaVuSans-54"/>
     <use xlink:href="#DejaVuSans-69" x="57.958984"/>
     <use xlink:href="#DejaVuSans-6d" x="85.742188"/>
     <use xlink:href="#DejaVuSans-65" x="183.154297"/>
     <use xlink:href="#DejaVuSans-6c" x="244.677734"/>
     <use xlink:href="#DejaVuSans-79" x="272.460938"/>
     <use xlink:href="#DejaVuSans-20" x="331.640625"/>
     <use xlink:href="#DejaVuSans-54" x="363.427734"/>
     <use xlink:href="#DejaVuSans-72" x="409.761719"/>
     <use xlink:href="#DejaVuSans-61" x="450.875"/>
     <use xlink:href="#DejaVuSans-6e" x="512.154297"/>
     <use xlink:href="#DejaVuSans-73" x="575.533203"/>
     <use xlink:href="#DejaVuSans-66" x="627.632812"/>
     <use xlink:href="#DejaVuSans-65" x="662.837891"/>
     <use xlink:href="#DejaVuSans-72" x="724.361328"/>
     <use xlink:href="#DejaVuSans-20" x="765.474609"/>
     <use xlink:href="#DejaVuSans-52" x="797.261719"/>
     <use xlink:href="#DejaVuSans-61" x="864.494141"/>
     <use xlink:href="#DejaVuSans-74" x="925.773438"/>
     <use xlink:href="#DejaVuSans-65" x="964.982422"/>
     <use xlink:href="#DejaVuSans-20" x="1026.505859"/>
     <use xlink:href="#DejaVuSans-28" x="1058.292969"/>
     <use xlink:href="#DejaVuSans-43" x="1097.306641"/>
     <use xlink:href="#DejaVuSans-75" x="1167.130859"/>
     <use xlink:href="#DejaVuSans-6d" x="1230.509766"/>
     <use xlink:href="#DejaVuSans-75" x="1327.921875"/>
     <use xlink:href="#DejaVuSans-6c" x="1391.300781"/>
     <use xlink:href="#DejaVuSans-61" x="1419.083984"/>
     <use xlink:href="#DejaVuSans-74" x="1480.363281"/>
     <use xlink:href="#DejaVuSans-69" x="1519.572266"/>
     <use xlink:href="#DejaVuSans-76" x="1547.355469"/>
     <use xlink:href="#DejaVuSans-65" x="1606.535156"/>
     <use xlink:href="#DejaVuSans-29" x="1668.058594"/>
    </g>
   </g>
   <g id="legend_1">
    <g id="patch_7">
     <path d="M 480.614062 255.44 
L 558.2 255.44 
Q 560.2 255.44 560.2 253.44 
L 560.2 180.493125 
Q 560.2 178.493125 558.2 178.493125 
L 480.614062 178.493125 
Q 478.614062 178.493125 478.614062 180.493125 
L 478.614062 253.44 
Q 478.614062 255.44 480.614062 255.44 
z
" style="fill: #ffffff; opacity: 0.8; stroke: #cccccc; stroke-linejoin: miter"/>
    </g>
    <g id="line2d_32">
     <path d="M 482.614062 186.591563 
L 492.614062 186.591563 
L 502.614062 186.591563 
" style="fill: none; stroke: #1f77b4; stroke-width: 1.8; stroke-linecap: square"/>
    </g>
    <g id="text_17">
     <!-- sheer -->
     <g transform="translate(510.614062 190.091563) scale(0.1 -0.1)">
      <defs>
       <path id="DejaVuSans-68" d="M 3513 2113 
L 3513 0 
L 2938 0 
L 2938 2094 
Q 2938 2591 2744 2837 
Q 2550 3084 2163 3084 
Q 1697 3084 1428 2787 
Q 1159 2491 1159 1978 
L 1159 0 
L 581 0 
L 581 4863 
L 1159 4863 
L 1159 2956 
Q 1366 3272 1645 3428 
Q 1925 3584 2291 3584 
Q 2894 3584 3203 3211 
Q 3513 2838 3513 2113 
z
" transform="scale(0.015625)"/>
      </defs>
      <use xlink:href="#DejaVuSans-73"/>
      <use xlink:href="#DejaVuSans-68" x="52.099609"/>
      <use xlink:href="#DejaVuSans-65" x="115.478516"/>
      <use xlink:href="#DejaVuSans-65" x="177.001953"/>
      <use xlink:href="#DejaVuSans-72" x="238.525391"/>
     </g>
    </g>
    <g id="line2d_33">
     <path d="M 482.614062 201.269688 
L 492.614062 201.269688 
L 502.614062 201.269688 
" style="fill: none; stroke: #ff7f0e; stroke-width: 1.8; stroke-linecap: square"/>
    </g>
    <g id="text_18">
     <!-- actar -->
     <g transform="translate(510.614062 204.769688) scale(0.1 -0.1)">
      <use xlink:href="#DejaVuSans-61"/>
      <use xlink:href="#DejaVuSans-63" x="61.279297"/>
      <use xlink:href="#DejaVuSans-74" x="116.259766"/>
      <use xlink:href="#DejaVuSans-61" x="155.46875"/>
      <use xlink:href="#DejaVuSans-72" x="216.748047"/>
     </g>
    </g>
    <g id="line2d_34">
     <path d="M 482.614062 215.947813 
L 492.614062 215.947813 
L 502.614062 215.947813 
" style="fill: none; stroke: #2ca02c; stroke-width: 1.8; stroke-linecap: square"/>
    </g>
    <g id="text_19">
     <!-- tfsm_dpc -->
     <g transform="translate(510.614062 219.447813) scale(0.1 -0.1)">
      <defs>
       <path id="DejaVuSans-5f" d="M 3263 -1063 
L 3263 -1509 
L -63 -1509 
L -63 -1063 
L 3263 -1063 
z
" transform="scale(0.015625)"/>
       <path id="DejaVuSans-70" d="M 1159 525 
L 1159 -1331 
L 581 -1331 
L 581 3500 
L 1159 3500 
L 1159 2969 
Q 1341 3281 1617 3432 
Q 1894 3584 2278 3584 
Q 2916 3584 3314 3078 
Q 3713 2572 3713 1747 
Q 3713 922 3314 415 
Q 2916 -91 2278 -91 
Q 1894 -91 1617 61 
Q 1341 213 1159 525 
z
M 3116 1747 
Q 3116 2381 2855 2742 
Q 2594 3103 2138 3103 
Q 1681 3103 1420 2742 
Q 1159 2381 1159 1747 
Q 1159 1113 1420 752 
Q 1681 391 2138 391 
Q 2594 391 2855 752 
Q 3116 1113 3116 1747 
z
" transform="scale(0.015625)"/>
      </defs>
      <use xlink:href="#DejaVuSans-74"/>
      <use xlink:href="#DejaVuSans-66" x="39.208984"/>
      <use xlink:href="#DejaVuSans-73" x="74.414062"/>
      <use xlink:href="#DejaVuSans-6d" x="126.513672"/>
      <use xlink:href="#DejaVuSans-5f" x="223.925781"/>
      <use xlink:href="#DejaVuSans-64" x="273.925781"/>
      <use xlink:href="#DejaVuSans-70" x="337.402344"/>
      <use xlink:href="#DejaVuSans-63" x="400.878906"/>
     </g>
    </g>
    <g id="line2d_35">
     <path d="M 482.614062 230.904063 
L 492.614062 230.904063 
L 502.614062 230.904063 
" style="fill: none; stroke: #d62728; stroke-width: 1.8; stroke-linecap: square"/>
    </g>
    <g id="text_20">
     <!-- dst_woa -->
     <g transform="translate(510.614062 234.404063) scale(0.1 -0.1)">
      <defs>
       <path id="DejaVuSans-77" d="M 269 3500 
L 844 3500 
L 1563 769 
L 2278 3500 
L 2956 3500 
L 3675 769 
L 4391 3500 
L 4966 3500 
L 4050 0 
L 3372 0 
L 2619 2869 
L 1863 0 
L 1184 0 
L 269 3500 
z
" transform="scale(0.015625)"/>
      </defs>
      <use xlink:href="#DejaVuSans-64"/>
      <use xlink:href="#DejaVuSans-73" x="63.476562"/>
      <use xlink:href="#DejaVuSans-74" x="115.576172"/>
      <use xlink:href="#DejaVuSans-5f" x="154.785156"/>
      <use xlink:href="#DejaVuSans-77" x="204.785156"/>
      <use xlink:href="#DejaVuSans-6f" x="286.572266"/>
      <use xlink:href="#DejaVuSans-61" x="347.753906"/>
     </g>
    </g>
    <g id="line2d_36">
     <path d="M 482.614062 245.860313 
L 492.614062 245.860313 
L 502.614062 245.860313 
" style="fill: none; stroke: #9467bd; stroke-width: 1.8; stroke-linecap: square"/>
    </g>
    <g id="text_21">
     <!-- trail -->
     <g transform="translate(510.614062 249.360313) scale(0.1 -0.1)">
      <use xlink:href="#DejaVuSans-74"/>
      <use xlink:href="#DejaVuSans-72" x="39.208984"/>
      <use xlink:href="#DejaVuSans-61" x="80.322266"/>
      <use xlink:href="#DejaVuSans-69" x="141.601562"/>
      <use xlink:href="#DejaVuSans-6c" x="169.384766"/>
     </g>
    </g>
   </g>
  </g>
 </g>
 <defs>
  <clipPath id="pcd50328541">
   <rect x="54.2" y="25.44" width="511" height="235"/>
  </clipPath>
 </defs>
</svg>
