<?xml version="1.0" encoding="utf-8" standalone="no"?>
<!DOCTYPE svg PUBLIC "-//W3C//DTD SVG 1.1//EN"
  "http://www.w3.org/Graphics/SVG/1.1/DTD/svg11.dtd">
<svg xmlns:xlink="http://www.w3.org/1999/xlink" width="576pt" height="302.4pt" viewBox="0 0 576 302.4" xmlns="http://www.w3.org/2000/svg" version="1.1">
 <metadata>
  <rdf:RDF xmlns:dc="http://purl.org/dc/elements/1.1/" xmlns:cc="http://creativecommons.org/ns#" xmlns:rdf="http://www.w3.org/1999/02/22-rdf-syntax-ns#">
   <cc:Work>
    <dc:type rdf:resource="http://purl.org/dc/dcmitype/StillImage"/>
    <dc:date>2025-09-03T16:23:52.096092</dc:date>
    <dc:format>image/svg+xml</dc:format>
    <dc:creator>
     <cc:Agent>
      <dc:title>Matplotlib v3.9.4, https://matplotlib.org/</dc:title>
     </cc:Agent>
    </dc:creator>
   </cc:Work>
  </rdf:RDF>
 </metadata>
 <defs>
  <style type="text/css">*{stroke-linejoin: round; stroke-linecap: butt}</style>
 </defs>
 <g id="figure_1">
  <g id="patch_1">
   <path d="M 0 302.4 
L 576 302.4 
L 576 0 
L 0 0 
z
" style="fill: #ffffff"/>
  </g>
  <g id="axes_1">
   <g id="patch_2">
    <path d="M 60.59 260.44 
L 565.2 260.44 
L 565.2 25.44 
L 60.59 25.44 
z
" style="fill: #ffffff"/>
   </g>
   <g id="matplotlib.axis_1">
    <g id="xtick_1">
     <g id="line2d_1">
      <path d="M 83.471774 260.44 
L 83.471774 25.44 
" clip-path="url(#p43e6105724)" style="fill: none; stroke-dasharray: 2.96,1.28; stroke-dashoffset: 0; stroke: #b0b0b0; stroke-opacity: 0.3; stroke-width: 0.8"/>
     </g>
     <g id="line2d_2">
      <defs>
       <path id="m1ba92fd515" d="M 0 0 
L 0 3.5 
" style="stroke: #000000; stroke-width: 0.8"/>
      </defs>
      <g>
       <use xlink:href="#m1ba92fd515" x="83.471774" y="260.44" style="stroke: #000000; stroke-width: 0.8"/>
      </g>
     </g>
     <g id="text_1">
      <!-- 0 -->
      <g transform="translate(80.290524 275.038438) scale(0.1 -0.1)">
       <defs>
        <path id="DejaVuSans-30" d="M 2034 4250 
Q 1547 4250 1301 3770 
Q 1056 3291 1056 2328 
Q 1056 1369 1301 889 
Q 1547 409 2034 409 
Q 2525 409 2770 889 
Q 3016 1369 3016 2328 
Q 3016 3291 2770 3770 
Q 2525 4250 2034 4250 
z
M 2034 4750 
Q 2819 4750 3233 4129 
Q 3647 3509 3647 2328 
Q 3647 1150 3233 529 
Q 2819 -91 2034 -91 
Q 1250 -91 836 529 
Q 422 1150 422 2328 
Q 422 3509 836 4129 
Q 1250 4750 2034 4750 
z
" transform="scale(0.015625)"/>
       </defs>
       <use xlink:href="#DejaVuSans-30"/>
      </g>
     </g>
    </g>
    <g id="xtick_2">
     <g id="line2d_3">
      <path d="M 193.559694 260.44 
L 193.559694 25.44 
" clip-path="url(#p43e6105724)" style="fill: none; stroke-dasharray: 2.96,1.28; stroke-dashoffset: 0; stroke: #b0b0b0; stroke-opacity: 0.3; stroke-width: 0.8"/>
     </g>
     <g id="line2d_4">
      <g>
       <use xlink:href="#m1ba92fd515" x="193.559694" y="260.44" style="stroke: #000000; stroke-width: 0.8"/>
      </g>
     </g>
     <g id="text_2">
      <!-- 2000 -->
      <g transform="translate(180.834694 275.038438) scale(0.1 -0.1)">
       <defs>
        <path id="DejaVuSans-32" d="M 1228 531 
L 3431 531 
L 3431 0 
L 469 0 
L 469 531 
Q 828 903 1448 1529 
Q 2069 2156 2228 2338 
Q 2531 2678 2651 2914 
Q 2772 3150 2772 3378 
Q 2772 3750 2511 3984 
Q 2250 4219 1831 4219 
Q 1534 4219 1204 4116 
Q 875 4013 500 3803 
L 500 4441 
Q 881 4594 1212 4672 
Q 1544 4750 1819 4750 
Q 2544 4750 2975 4387 
Q 3406 4025 3406 3419 
Q 3406 3131 3298 2873 
Q 3191 2616 2906 2266 
Q 2828 2175 2409 1742 
Q 1991 1309 1228 531 
z
" transform="scale(0.015625)"/>
       </defs>
       <use xlink:href="#DejaVuSans-32"/>
       <use xlink:href="#DejaVuSans-30" x="63.623047"/>
       <use xlink:href="#DejaVuSans-30" x="127.246094"/>
       <use xlink:href="#DejaVuSans-30" x="190.869141"/>
      </g>
     </g>
    </g>
    <g id="xtick_3">
     <g id="line2d_5">
      <path d="M 303.647615 260.44 
L 303.647615 25.44 
" clip-path="url(#p43e6105724)" style="fill: none; stroke-dasharray: 2.96,1.28; stroke-dashoffset: 0; stroke: #b0b0b0; stroke-opacity: 0.3; stroke-width: 0.8"/>
     </g>
     <g id="line2d_6">
      <g>
       <use xlink:href="#m1ba92fd515" x="303.647615" y="260.44" style="stroke: #000000; stroke-width: 0.8"/>
      </g>
     </g>
     <g id="text_3">
      <!-- 4000 -->
      <g transform="translate(290.922615 275.038438) scale(0.1 -0.1)">
       <defs>
        <path id="DejaVuSans-34" d="M 2419 4116 
L 825 1625 
L 2419 1625 
L 2419 4116 
z
M 2253 4666 
L 3047 4666 
L 3047 1625 
L 3713 1625 
L 3713 1100 
L 3047 1100 
L 3047 0 
L 2419 0 
L 2419 1100 
L 313 1100 
L 313 1709 
L 2253 4666 
z
" transform="scale(0.015625)"/>
       </defs>
       <use xlink:href="#DejaVuSans-34"/>
       <use xlink:href="#DejaVuSans-30" x="63.623047"/>
       <use xlink:href="#DejaVuSans-30" x="127.246094"/>
       <use xlink:href="#DejaVuSans-30" x="190.869141"/>
      </g>
     </g>
    </g>
    <g id="xtick_4">
     <g id="line2d_7">
      <path d="M 413.735535 260.44 
L 413.735535 25.44 
" clip-path="url(#p43e6105724)" style="fill: none; stroke-dasharray: 2.96,1.28; stroke-dashoffset: 0; stroke: #b0b0b0; stroke-opacity: 0.3; stroke-width: 0.8"/>
     </g>
     <g id="line2d_8">
      <g>
       <use xlink:href="#m1ba92fd515" x="413.735535" y="260.44" style="stroke: #000000; stroke-width: 0.8"/>
      </g>
     </g>
     <g id="text_4">
      <!-- 6000 -->
      <g transform="translate(401.010535 275.038438) scale(0.1 -0.1)">
       <defs>
        <path id="DejaVuSans-36" d="M 2113 2584 
Q 1688 2584 1439 2293 
Q 1191 2003 1191 1497 
Q 1191 994 1439 701 
Q 1688 409 2113 409 
Q 2538 409 2786 701 
Q 3034 994 3034 1497 
Q 3034 2003 2786 2293 
Q 2538 2584 2113 2584 
z
M 3366 4563 
L 3366 3988 
Q 3128 4100 2886 4159 
Q 2644 4219 2406 4219 
Q 1781 4219 1451 3797 
Q 1122 3375 1075 2522 
Q 1259 2794 1537 2939 
Q 1816 3084 2150 3084 
Q 2853 3084 3261 2657 
Q 3669 2231 3669 1497 
Q 3669 778 3244 343 
Q 2819 -91 2113 -91 
Q 1303 -91 875 529 
Q 447 1150 447 2328 
Q 447 3434 972 4092 
Q 1497 4750 2381 4750 
Q 2619 4750 2861 4703 
Q 3103 4656 3366 4563 
z
" transform="scale(0.015625)"/>
       </defs>
       <use xlink:href="#DejaVuSans-36"/>
       <use xlink:href="#DejaVuSans-30" x="63.623047"/>
       <use xlink:href="#DejaVuSans-30" x="127.246094"/>
       <use xlink:href="#DejaVuSans-30" x="190.869141"/>
      </g>
     </g>
    </g>
    <g id="xtick_5">
     <g id="line2d_9">
      <path d="M 523.823455 260.44 
L 523.823455 25.44 
" clip-path="url(#p43e6105724)" style="fill: none; stroke-dasharray: 2.96,1.28; stroke-dashoffset: 0; stroke: #b0b0b0; stroke-opacity: 0.3; stroke-width: 0.8"/>
     </g>
     <g id="line2d_10">
      <g>
       <use xlink:href="#m1ba92fd515" x="523.823455" y="260.44" style="stroke: #000000; stroke-width: 0.8"/>
      </g>
     </g>
     <g id="text_5">
      <!-- 8000 -->
      <g transform="translate(511.098455 275.038438) scale(0.1 -0.1)">
       <defs>
        <path id="DejaVuSans-38" d="M 2034 2216 
Q 1584 2216 1326 1975 
Q 1069 1734 1069 1313 
Q 1069 891 1326 650 
Q 1584 409 2034 409 
Q 2484 409 2743 651 
Q 3003 894 3003 1313 
Q 3003 1734 2745 1975 
Q 2488 2216 2034 2216 
z
M 1403 2484 
Q 997 2584 770 2862 
Q 544 3141 544 3541 
Q 544 4100 942 4425 
Q 1341 4750 2034 4750 
Q 2731 4750 3128 4425 
Q 3525 4100 3525 3541 
Q 3525 3141 3298 2862 
Q 3072 2584 2669 2484 
Q 3125 2378 3379 2068 
Q 3634 1759 3634 1313 
Q 3634 634 3220 271 
Q 2806 -91 2034 -91 
Q 1263 -91 848 271 
Q 434 634 434 1313 
Q 434 1759 690 2068 
Q 947 2378 1403 2484 
z
M 1172 3481 
Q 1172 3119 1398 2916 
Q 1625 2713 2034 2713 
Q 2441 2713 2670 2916 
Q 2900 3119 2900 3481 
Q 2900 3844 2670 4047 
Q 2441 4250 2034 4250 
Q 1625 4250 1398 4047 
Q 1172 3844 1172 3481 
z
" transform="scale(0.015625)"/>
       </defs>
       <use xlink:href="#DejaVuSans-38"/>
       <use xlink:href="#DejaVuSans-30" x="63.623047"/>
       <use xlink:href="#DejaVuSans-30" x="127.246094"/>
       <use xlink:href="#DejaVuSans-30" x="190.869141"/>
      </g>
     </g>
    </g>
    <g id="text_6">
     <!-- round -->
     <g transform="translate(298.380937 288.716563) scale(0.1 -0.1)">
      <defs>
       <path id="DejaVuSans-72" d="M 2631 2963 
Q 2534 3019 2420 3045 
Q 2306 3072 2169 3072 
Q 1681 3072 1420 2755 
Q 1159 2438 1159 1844 
L 1159 0 
L 581 0 
L 581 3500 
L 1159 3500 
L 1159 2956 
Q 1341 3275 1631 3429 
Q 1922 3584 2338 3584 
Q 2397 3584 2469 3576 
Q 2541 3569 2628 3553 
L 2631 2963 
z
" transform="scale(0.015625)"/>
       <path id="DejaVuSans-6f" d="M 1959 3097 
Q 1497 3097 1228 2736 
Q 959 2375 959 1747 
Q 959 1119 1226 758 
Q 1494 397 1959 397 
Q 2419 397 2687 759 
Q 2956 1122 2956 1747 
Q 2956 2369 2687 2733 
Q 2419 3097 1959 3097 
z
M 1959 3584 
Q 2709 3584 3137 3096 
Q 3566 2609 3566 1747 
Q 3566 888 3137 398 
Q 2709 -91 1959 -91 
Q 1206 -91 779 398 
Q 353 888 353 1747 
Q 353 2609 779 3096 
Q 1206 3584 1959 3584 
z
" transform="scale(0.015625)"/>
       <path id="DejaVuSans-75" d="M 544 1381 
L 544 3500 
L 1119 3500 
L 1119 1403 
Q 1119 906 1312 657 
Q 1506 409 1894 409 
Q 2359 409 2629 706 
Q 2900 1003 2900 1516 
L 2900 3500 
L 3475 3500 
L 3475 0 
L 2900 0 
L 2900 538 
Q 2691 219 2414 64 
Q 2138 -91 1772 -91 
Q 1169 -91 856 284 
Q 544 659 544 1381 
z
M 1991 3584 
L 1991 3584 
z
" transform="scale(0.015625)"/>
       <path id="DejaVuSans-6e" d="M 3513 2113 
L 3513 0 
L 2938 0 
L 2938 2094 
Q 2938 2591 2744 2837 
Q 2550 3084 2163 3084 
Q 1697 3084 1428 2787 
Q 1159 2491 1159 1978 
L 1159 0 
L 581 0 
L 581 3500 
L 1159 3500 
L 1159 2956 
Q 1366 3272 1645 3428 
Q 1925 3584 2291 3584 
Q 2894 3584 3203 3211 
Q 3513 2838 3513 2113 
z
" transform="scale(0.015625)"/>
       <path id="DejaVuSans-64" d="M 2906 2969 
L 2906 4863 
L 3481 4863 
L 3481 0 
L 2906 0 
L 2906 525 
Q 2725 213 2448 61 
Q 2172 -91 1784 -91 
Q 1150 -91 751 415 
Q 353 922 353 1747 
Q 353 2572 751 3078 
Q 1150 3584 1784 3584 
Q 2172 3584 2448 3432 
Q 2725 3281 2906 2969 
z
M 947 1747 
Q 947 1113 1208 752 
Q 1469 391 1925 391 
Q 2381 391 2643 752 
Q 2906 1113 2906 1747 
Q 2906 2381 2643 2742 
Q 2381 3103 1925 3103 
Q 1469 3103 1208 2742 
Q 947 2381 947 1747 
z
" transform="scale(0.015625)"/>
      </defs>
      <use xlink:href="#DejaVuSans-72"/>
      <use xlink:href="#DejaVuSans-6f" x="38.863281"/>
      <use xlink:href="#DejaVuSans-75" x="100.044922"/>
      <use xlink:href="#DejaVuSans-6e" x="163.423828"/>
      <use xlink:href="#DejaVuSans-64" x="226.802734"/>
     </g>
    </g>
   </g>
   <g id="matplotlib.axis_2">
    <g id="ytick_1">
     <g id="line2d_11">
      <path d="M 60.59 236.405909 
L 565.2 236.405909 
" clip-path="url(#p43e6105724)" style="fill: none; stroke-dasharray: 2.96,1.28; stroke-dashoffset: 0; stroke: #b0b0b0; stroke-opacity: 0.3; stroke-width: 0.8"/>
     </g>
     <g id="line2d_12">
      <defs>
       <path id="m445d6b2764" d="M 0 0 
L -3.5 0 
" style="stroke: #000000; stroke-width: 0.8"/>
      </defs>
      <g>
       <use xlink:href="#m445d6b2764" x="60.59" y="236.405909" style="stroke: #000000; stroke-width: 0.8"/>
      </g>
     </g>
     <g id="text_7">
      <!-- 0.825 -->
      <g transform="translate(24.961875 240.205128) scale(0.1 -0.1)">
       <defs>
        <path id="DejaVuSans-2e" d="M 684 794 
L 1344 794 
L 1344 0 
L 684 0 
L 684 794 
z
" transform="scale(0.015625)"/>
        <path id="DejaVuSans-35" d="M 691 4666 
L 3169 4666 
L 3169 4134 
L 1269 4134 
L 1269 2991 
Q 1406 3038 1543 3061 
Q 1681 3084 1819 3084 
Q 2600 3084 3056 2656 
Q 3513 2228 3513 1497 
Q 3513 744 3044 326 
Q 2575 -91 1722 -91 
Q 1428 -91 1123 -41 
Q 819 9 494 109 
L 494 744 
Q 775 591 1075 516 
Q 1375 441 1709 441 
Q 2250 441 2565 725 
Q 2881 1009 2881 1497 
Q 2881 1984 2565 2268 
Q 2250 2553 1709 2553 
Q 1456 2553 1204 2497 
Q 953 2441 691 2322 
L 691 4666 
z
" transform="scale(0.015625)"/>
       </defs>
       <use xlink:href="#DejaVuSans-30"/>
       <use xlink:href="#DejaVuSans-2e" x="63.623047"/>
       <use xlink:href="#DejaVuSans-38" x="95.410156"/>
       <use xlink:href="#DejaVuSans-32" x="159.033203"/>
       <use xlink:href="#DejaVuSans-35" x="222.65625"/>
      </g>
     </g>
    </g>
    <g id="ytick_2">
     <g id="line2d_13">
      <path d="M 60.59 207.793896 
L 565.2 207.793896 
" clip-path="url(#p43e6105724)" style="fill: none; stroke-dasharray: 2.96,1.28; stroke-dashoffset: 0; stroke: #b0b0b0; stroke-opacity: 0.3; stroke-width: 0.8"/>
     </g>
     <g id="line2d_14">
      <g>
       <use xlink:href="#m445d6b2764" x="60.59" y="207.793896" style="stroke: #000000; stroke-width: 0.8"/>
      </g>
     </g>
     <g id="text_8">
      <!-- 0.850 -->
      <g transform="translate(24.961875 211.593115) scale(0.1 -0.1)">
       <use xlink:href="#DejaVuSans-30"/>
       <use xlink:href="#DejaVuSans-2e" x="63.623047"/>
       <use xlink:href="#DejaVuSans-38" x="95.410156"/>
       <use xlink:href="#DejaVuSans-35" x="159.033203"/>
       <use xlink:href="#DejaVuSans-30" x="222.65625"/>
      </g>
     </g>
    </g>
    <g id="ytick_3">
     <g id="line2d_15">
      <path d="M 60.59 179.181883 
L 565.2 179.181883 
" clip-path="url(#p43e6105724)" style="fill: none; stroke-dasharray: 2.96,1.28; stroke-dashoffset: 0; stroke: #b0b0b0; stroke-opacity: 0.3; stroke-width: 0.8"/>
     </g>
     <g id="line2d_16">
      <g>
       <use xlink:href="#m445d6b2764" x="60.59" y="179.181883" style="stroke: #000000; stroke-width: 0.8"/>
      </g>
     </g>
     <g id="text_9">
      <!-- 0.875 -->
      <g transform="translate(24.961875 182.981102) scale(0.1 -0.1)">
       <defs>
        <path id="DejaVuSans-37" d="M 525 4666 
L 3525 4666 
L 3525 4397 
L 1831 0 
L 1172 0 
L 2766 4134 
L 525 4134 
L 525 4666 
z
" transform="scale(0.015625)"/>
       </defs>
       <use xlink:href="#DejaVuSans-30"/>
       <use xlink:href="#DejaVuSans-2e" x="63.623047"/>
       <use xlink:href="#DejaVuSans-38" x="95.410156"/>
       <use xlink:href="#DejaVuSans-37" x="159.033203"/>
       <use xlink:href="#DejaVuSans-35" x="222.65625"/>
      </g>
     </g>
    </g>
    <g id="ytick_4">
     <g id="line2d_17">
      <path d="M 60.59 150.56987 
L 565.2 150.56987 
" clip-path="url(#p43e6105724)" style="fill: none; stroke-dasharray: 2.96,1.28; stroke-dashoffset: 0; stroke: #b0b0b0; stroke-opacity: 0.3; stroke-width: 0.8"/>
     </g>
     <g id="line2d_18">
      <g>
       <use xlink:href="#m445d6b2764" x="60.59" y="150.56987" style="stroke: #000000; stroke-width: 0.8"/>
      </g>
     </g>
     <g id="text_10">
      <!-- 0.900 -->
      <g transform="translate(24.961875 154.369089) scale(0.1 -0.1)">
       <defs>
        <path id="DejaVuSans-39" d="M 703 97 
L 703 672 
Q 941 559 1184 500 
Q 1428 441 1663 441 
Q 2288 441 2617 861 
Q 2947 1281 2994 2138 
Q 2813 1869 2534 1725 
Q 2256 1581 1919 1581 
Q 1219 1581 811 2004 
Q 403 2428 403 3163 
Q 403 3881 828 4315 
Q 1253 4750 1959 4750 
Q 2769 4750 3195 4129 
Q 3622 3509 3622 2328 
Q 3622 1225 3098 567 
Q 2575 -91 1691 -91 
Q 1453 -91 1209 -44 
Q 966 3 703 97 
z
M 1959 2075 
Q 2384 2075 2632 2365 
Q 2881 2656 2881 3163 
Q 2881 3666 2632 3958 
Q 2384 4250 1959 4250 
Q 1534 4250 1286 3958 
Q 1038 3666 1038 3163 
Q 1038 2656 1286 2365 
Q 1534 2075 1959 2075 
z
" transform="scale(0.015625)"/>
       </defs>
       <use xlink:href="#DejaVuSans-30"/>
       <use xlink:href="#DejaVuSans-2e" x="63.623047"/>
       <use xlink:href="#DejaVuSans-39" x="95.410156"/>
       <use xlink:href="#DejaVuSans-30" x="159.033203"/>
       <use xlink:href="#DejaVuSans-30" x="222.65625"/>
      </g>
     </g>
    </g>
    <g id="ytick_5">
     <g id="line2d_19">
      <path d="M 60.59 121.957857 
L 565.2 121.957857 
" clip-path="url(#p43e6105724)" style="fill: none; stroke-dasharray: 2.96,1.28; stroke-dashoffset: 0; stroke: #b0b0b0; stroke-opacity: 0.3; stroke-width: 0.8"/>
     </g>
     <g id="line2d_20">
      <g>
       <use xlink:href="#m445d6b2764" x="60.59" y="121.957857" style="stroke: #000000; stroke-width: 0.8"/>
      </g>
     </g>
     <g id="text_11">
      <!-- 0.925 -->
      <g transform="translate(24.961875 125.757076) scale(0.1 -0.1)">
       <use xlink:href="#DejaVuSans-30"/>
       <use xlink:href="#DejaVuSans-2e" x="63.623047"/>
       <use xlink:href="#DejaVuSans-39" x="95.410156"/>
       <use xlink:href="#DejaVuSans-32" x="159.033203"/>
       <use xlink:href="#DejaVuSans-35" x="222.65625"/>
      </g>
     </g>
    </g>
    <g id="ytick_6">
     <g id="line2d_21">
      <path d="M 60.59 93.345844 
L 565.2 93.345844 
" clip-path="url(#p43e6105724)" style="fill: none; stroke-dasharray: 2.96,1.28; stroke-dashoffset: 0; stroke: #b0b0b0; stroke-opacity: 0.3; stroke-width: 0.8"/>
     </g>
     <g id="line2d_22">
      <g>
       <use xlink:href="#m445d6b2764" x="60.59" y="93.345844" style="stroke: #000000; stroke-width: 0.8"/>
      </g>
     </g>
     <g id="text_12">
      <!-- 0.950 -->
      <g transform="translate(24.961875 97.145063) scale(0.1 -0.1)">
       <use xlink:href="#DejaVuSans-30"/>
       <use xlink:href="#DejaVuSans-2e" x="63.623047"/>
       <use xlink:href="#DejaVuSans-39" x="95.410156"/>
       <use xlink:href="#DejaVuSans-35" x="159.033203"/>
       <use xlink:href="#DejaVuSans-30" x="222.65625"/>
      </g>
     </g>
    </g>
    <g id="ytick_7">
     <g id="line2d_23">
      <path d="M 60.59 64.733831 
L 565.2 64.733831 
" clip-path="url(#p43e6105724)" style="fill: none; stroke-dasharray: 2.96,1.28; stroke-dashoffset: 0; stroke: #b0b0b0; stroke-opacity: 0.3; stroke-width: 0.8"/>
     </g>
     <g id="line2d_24">
      <g>
       <use xlink:href="#m445d6b2764" x="60.59" y="64.733831" style="stroke: #000000; stroke-width: 0.8"/>
      </g>
     </g>
     <g id="text_13">
      <!-- 0.975 -->
      <g transform="translate(24.961875 68.53305) scale(0.1 -0.1)">
       <use xlink:href="#DejaVuSans-30"/>
       <use xlink:href="#DejaVuSans-2e" x="63.623047"/>
       <use xlink:href="#DejaVuSans-39" x="95.410156"/>
       <use xlink:href="#DejaVuSans-37" x="159.033203"/>
       <use xlink:href="#DejaVuSans-35" x="222.65625"/>
      </g>
     </g>
    </g>
    <g id="ytick_8">
     <g id="line2d_25">
      <path d="M 60.59 36.121818 
L 565.2 36.121818 
" clip-path="url(#p43e6105724)" style="fill: none; stroke-dasharray: 2.96,1.28; stroke-dashoffset: 0; stroke: #b0b0b0; stroke-opacity: 0.3; stroke-width: 0.8"/>
     </g>
     <g id="line2d_26">
      <g>
       <use xlink:href="#m445d6b2764" x="60.59" y="36.121818" style="stroke: #000000; stroke-width: 0.8"/>
      </g>
     </g>
     <g id="text_14">
      <!-- 1.000 -->
      <g transform="translate(24.961875 39.921037) scale(0.1 -0.1)">
       <defs>
        <path id="DejaVuSans-31" d="M 794 531 
L 1825 531 
L 1825 4091 
L 703 3866 
L 703 4441 
L 1819 4666 
L 2450 4666 
L 2450 531 
L 3481 531 
L 3481 0 
L 794 0 
L 794 531 
z
" transform="scale(0.015625)"/>
       </defs>
       <use xlink:href="#DejaVuSans-31"/>
       <use xlink:href="#DejaVuSans-2e" x="63.623047"/>
       <use xlink:href="#DejaVuSans-30" x="95.410156"/>
       <use xlink:href="#DejaVuSans-30" x="159.033203"/>
       <use xlink:href="#DejaVuSans-30" x="222.65625"/>
      </g>
     </g>
    </g>
    <g id="text_15">
     <!-- cumulative timely transfer rate -->
     <g transform="translate(18.882188 221.048594) rotate(-90) scale(0.1 -0.1)">
      <defs>
       <path id="DejaVuSans-63" d="M 3122 3366 
L 3122 2828 
Q 2878 2963 2633 3030 
Q 2388 3097 2138 3097 
Q 1578 3097 1268 2742 
Q 959 2388 959 1747 
Q 959 1106 1268 751 
Q 1578 397 2138 397 
Q 2388 397 2633 464 
Q 2878 531 3122 666 
L 3122 134 
Q 2881 22 2623 -34 
Q 2366 -91 2075 -91 
Q 1284 -91 818 406 
Q 353 903 353 1747 
Q 353 2603 823 3093 
Q 1294 3584 2113 3584 
Q 2378 3584 2631 3529 
Q 2884 3475 3122 3366 
z
" transform="scale(0.015625)"/>
       <path id="DejaVuSans-6d" d="M 3328 2828 
Q 3544 3216 3844 3400 
Q 4144 3584 4550 3584 
Q 5097 3584 5394 3201 
Q 5691 2819 5691 2113 
L 5691 0 
L 5113 0 
L 5113 2094 
Q 5113 2597 4934 2840 
Q 4756 3084 4391 3084 
Q 3944 3084 3684 2787 
Q 3425 2491 3425 1978 
L 3425 0 
L 2847 0 
L 2847 2094 
Q 2847 2600 2669 2842 
Q 2491 3084 2119 3084 
Q 1678 3084 1418 2786 
Q 1159 2488 1159 1978 
L 1159 0 
L 581 0 
L 581 3500 
L 1159 3500 
L 1159 2956 
Q 1356 3278 1631 3431 
Q 1906 3584 2284 3584 
Q 2666 3584 2933 3390 
Q 3200 3197 3328 2828 
z
" transform="scale(0.015625)"/>
       <path id="DejaVuSans-6c" d="M 603 4863 
L 1178 4863 
L 1178 0 
L 603 0 
L 603 4863 
z
" transform="scale(0.015625)"/>
       <path id="DejaVuSans-61" d="M 2194 1759 
Q 1497 1759 1228 1600 
Q 959 1441 959 1056 
Q 959 750 1161 570 
Q 1363 391 1709 391 
Q 2188 391 2477 730 
Q 2766 1069 2766 1631 
L 2766 1759 
L 2194 1759 
z
M 3341 1997 
L 3341 0 
L 2766 0 
L 2766 531 
Q 2569 213 2275 61 
Q 1981 -91 1556 -91 
Q 1019 -91 701 211 
Q 384 513 384 1019 
Q 384 1609 779 1909 
Q 1175 2209 1959 2209 
L 2766 2209 
L 2766 2266 
Q 2766 2663 2505 2880 
Q 2244 3097 1772 3097 
Q 1472 3097 1187 3025 
Q 903 2953 641 2809 
L 641 3341 
Q 956 3463 1253 3523 
Q 1550 3584 1831 3584 
Q 2591 3584 2966 3190 
Q 3341 2797 3341 1997 
z
" transform="scale(0.015625)"/>
       <path id="DejaVuSans-74" d="M 1172 4494 
L 1172 3500 
L 2356 3500 
L 2356 3053 
L 1172 3053 
L 1172 1153 
Q 1172 725 1289 603 
Q 1406 481 1766 481 
L 2356 481 
L 2356 0 
L 1766 0 
Q 1100 0 847 248 
Q 594 497 594 1153 
L 594 3053 
L 172 3053 
L 172 3500 
L 594 3500 
L 594 4494 
L 1172 4494 
z
" transform="scale(0.015625)"/>
       <path id="DejaVuSans-69" d="M 603 3500 
L 1178 3500 
L 1178 0 
L 603 0 
L 603 3500 
z
M 603 4863 
L 1178 4863 
L 1178 4134 
L 603 4134 
L 603 4863 
z
" transform="scale(0.015625)"/>
       <path id="DejaVuSans-76" d="M 191 3500 
L 800 3500 
L 1894 563 
L 2988 3500 
L 3597 3500 
L 2284 0 
L 1503 0 
L 191 3500 
z
" transform="scale(0.015625)"/>
       <path id="DejaVuSans-65" d="M 3597 1894 
L 3597 1613 
L 953 1613 
Q 991 1019 1311 708 
Q 1631 397 2203 397 
Q 2534 397 2845 478 
Q 3156 559 3463 722 
L 3463 178 
Q 3153 47 2828 -22 
Q 2503 -91 2169 -91 
Q 1331 -91 842 396 
Q 353 884 353 1716 
Q 353 2575 817 3079 
Q 1281 3584 2069 3584 
Q 2775 3584 3186 3129 
Q 3597 2675 3597 1894 
z
M 3022 2063 
Q 3016 2534 2758 2815 
Q 2500 3097 2075 3097 
Q 1594 3097 1305 2825 
Q 1016 2553 972 2059 
L 3022 2063 
z
" transform="scale(0.015625)"/>
       <path id="DejaVuSans-20" transform="scale(0.015625)"/>
       <path id="DejaVuSans-79" d="M 2059 -325 
Q 1816 -950 1584 -1140 
Q 1353 -1331 966 -1331 
L 506 -1331 
L 506 -850 
L 844 -850 
Q 1081 -850 1212 -737 
Q 1344 -625 1503 -206 
L 1606 56 
L 191 3500 
L 800 3500 
L 1894 763 
L 2988 3500 
L 3597 3500 
L 2059 -325 
z
" transform="scale(0.015625)"/>
       <path id="DejaVuSans-73" d="M 2834 3397 
L 2834 2853 
Q 2591 2978 2328 3040 
Q 2066 3103 1784 3103 
Q 1356 3103 1142 2972 
Q 928 2841 928 2578 
Q 928 2378 1081 2264 
Q 1234 2150 1697 2047 
L 1894 2003 
Q 2506 1872 2764 1633 
Q 3022 1394 3022 966 
Q 3022 478 2636 193 
Q 2250 -91 1575 -91 
Q 1294 -91 989 -36 
Q 684 19 347 128 
L 347 722 
Q 666 556 975 473 
Q 1284 391 1588 391 
Q 1994 391 2212 530 
Q 2431 669 2431 922 
Q 2431 1156 2273 1281 
Q 2116 1406 1581 1522 
L 1381 1569 
Q 847 1681 609 1914 
Q 372 2147 372 2553 
Q 372 3047 722 3315 
Q 1072 3584 1716 3584 
Q 2034 3584 2315 3537 
Q 2597 3491 2834 3397 
z
" transform="scale(0.015625)"/>
       <path id="DejaVuSans-66" d="M 2375 4863 
L 2375 4384 
L 1825 4384 
Q 1516 4384 1395 4259 
Q 1275 4134 1275 3809 
L 1275 3500 
L 2222 3500 
L 2222 3053 
L 1275 3053 
L 1275 0 
L 697 0 
L 697 3053 
L 147 3053 
L 147 3500 
L 697 3500 
L 697 3744 
Q 697 4328 969 4595 
Q 1241 4863 1831 4863 
L 2375 4863 
z
" transform="scale(0.015625)"/>
      </defs>
      <use xlink:href="#DejaVuSans-63"/>
      <use xlink:href="#DejaVuSans-75" x="54.980469"/>
      <use xlink:href="#DejaVuSans-6d" x="118.359375"/>
      <use xlink:href="#DejaVuSans-75" x="215.771484"/>
      <use xlink:href="#DejaVuSans-6c" x="279.150391"/>
      <use xlink:href="#DejaVuSans-61" x="306.933594"/>
      <use xlink:href="#DejaVuSans-74" x="368.212891"/>
      <use xlink:href="#DejaVuSans-69" x="407.421875"/>
      <use xlink:href="#DejaVuSans-76" x="435.205078"/>
      <use xlink:href="#DejaVuSans-65" x="494.384766"/>
      <use xlink:href="#DejaVuSans-20" x="555.908203"/>
      <use xlink:href="#DejaVuSans-74" x="587.695312"/>
      <use xlink:href="#DejaVuSans-69" x="626.904297"/>
      <use xlink:href="#DejaVuSans-6d" x="654.6875"/>
      <use xlink:href="#DejaVuSans-65" x="752.099609"/>
      <use xlink:href="#DejaVuSans-6c" x="813.623047"/>
      <use xlink:href="#DejaVuSans-79" x="841.40625"/>
      <use xlink:href="#DejaVuSans-20" x="900.585938"/>
      <use xlink:href="#DejaVuSans-74" x="932.373047"/>
      <use xlink:href="#DejaVuSans-72" x="971.582031"/>
      <use xlink:href="#DejaVuSans-61" x="1012.695312"/>
      <use xlink:href="#DejaVuSans-6e" x="1073.974609"/>
      <use xlink:href="#DejaVuSans-73" x="1137.353516"/>
      <use xlink:href="#DejaVuSans-66" x="1189.453125"/>
      <use xlink:href="#DejaVuSans-65" x="1224.658203"/>
      <use xlink:href="#DejaVuSans-72" x="1286.181641"/>
      <use xlink:href="#DejaVuSans-20" x="1327.294922"/>
      <use xlink:href="#DejaVuSans-72" x="1359.082031"/>
      <use xlink:href="#DejaVuSans-61" x="1400.195312"/>
      <use xlink:href="#DejaVuSans-74" x="1461.474609"/>
      <use xlink:href="#DejaVuSans-65" x="1500.683594"/>
     </g>
    </g>
   </g>
   <g id="line2d_27">
    <path d="M 83.526818 36.121818 
L 88.590863 36.121818 
L 88.645906 41.825209 
L 88.755994 41.752719 
L 88.811038 41.713743 
L 89.141302 71.350153 
L 89.416522 70.336482 
L 89.581654 69.586161 
L 89.691742 79.775987 
L 89.856874 79.526088 
L 89.911918 79.495052 
L 89.966962 79.156559 
L 90.022005 85.567236 
L 90.132093 85.497863 
L 90.242181 95.816657 
L 90.352269 95.488551 
L 90.572445 93.650633 
L 90.627489 96.774012 
L 90.682533 96.278972 
L 91.177929 90.928886 
L 91.8935 84.688335 
L 92.113676 98.328107 
L 92.884291 93.10949 
L 92.994379 98.153283 
L 93.049423 97.902143 
L 93.104467 97.529224 
L 93.159511 101.324987 
L 93.214555 100.879963 
L 93.379687 99.484915 
L 93.544819 103.741462 
L 93.820039 101.781072 
L 93.875083 106.362369 
L 93.930127 105.825858 
L 93.985171 105.408051 
L 94.040215 106.942509 
L 94.095259 112.600469 
L 94.150302 112.19677 
L 95.08605 104.509055 
L 95.141094 107.091173 
L 95.196138 106.551389 
L 96.186929 97.362622 
L 96.241973 100.045909 
L 96.297017 99.487579 
L 96.957544 93.560857 
L 97.893292 88.017516 
L 98.168512 85.90499 
L 98.388687 89.958512 
L 98.773995 87.678328 
L 98.829039 89.119523 
L 98.884083 88.887622 
L 99.159303 87.240055 
L 99.214347 89.134297 
L 99.269391 88.884469 
L 99.489567 87.90306 
L 99.929918 85.514379 
L 99.984962 86.74517 
L 100.040006 86.490685 
L 100.37027 84.961969 
L 100.535402 89.574249 
L 100.92071 87.330327 
L 101.085841 87.877836 
L 101.140885 88.112797 
L 101.195929 87.88467 
L 101.250973 87.667197 
L 101.361061 88.601736 
L 101.416105 88.272491 
L 101.581237 89.025386 
L 101.636281 88.743734 
L 101.746369 89.551002 
L 101.801413 89.31752 
L 102.406897 87.324105 
L 102.847248 86.295762 
L 103.067424 85.471056 
L 103.122468 87.674238 
L 103.177512 87.54597 
L 103.56282 86.380082 
L 103.727952 85.881841 
L 103.838039 87.968009 
L 103.893083 87.81166 
L 104.113259 87.216824 
L 104.223347 88.218779 
L 104.278391 88.033165 
L 104.883875 85.409231 
L 105.049007 86.166623 
L 105.104051 86.471339 
L 105.159095 86.256239 
L 105.984754 83.087837 
L 106.094842 83.192429 
L 106.259974 84.261069 
L 106.315018 84.840156 
L 106.370062 84.633651 
L 106.810413 83.368936 
L 107.030589 84.742913 
L 107.250765 84.190126 
L 107.415897 85.471208 
L 107.470941 85.317957 
L 108.076424 83.533092 
L 108.186512 85.459047 
L 108.241556 85.356389 
L 108.406688 84.949996 
L 108.57182 87.139912 
L 108.626864 87.040883 
L 108.791996 89.158438 
L 108.84704 89.000774 
L 108.902084 89.791789 
L 108.957128 89.670802 
L 109.012172 89.457054 
L 109.287392 92.061206 
L 109.342435 91.907745 
L 109.452523 93.270648 
L 109.507567 93.049002 
L 109.562611 93.61118 
L 109.617655 93.425739 
L 109.782787 92.857589 
L 110.113051 95.227703 
L 110.223139 95.0246 
L 110.608447 93.775513 
L 110.773578 94.670152 
L 110.993754 93.991391 
L 111.048798 94.137194 
L 111.268974 95.221959 
L 111.324018 95.107896 
L 111.379062 95.408873 
L 111.434106 95.302712 
L 111.654282 94.846192 
L 111.709326 95.355743 
L 111.76437 95.154267 
L 112.424897 93.384083 
L 112.865249 92.091433 
L 112.920293 92.598563 
L 112.975337 92.431337 
L 113.085425 92.194799 
L 113.195513 93.490762 
L 113.250557 93.377985 
L 113.305601 93.254212 
L 113.470732 94.270208 
L 113.525776 94.145545 
L 113.58082 94.05125 
L 113.690908 95.292608 
L 113.800996 95.078542 
L 113.911084 95.595724 
L 114.021172 96.690974 
L 114.076216 96.577884 
L 114.241348 96.159851 
L 114.296392 96.390121 
L 114.626656 97.878891 
L 114.6817 97.706079 
L 114.846831 98.884901 
L 114.901875 98.725001 
L 115.011963 99.398077 
L 115.067007 99.277915 
L 115.177095 99.05763 
L 115.342227 100.435546 
L 115.672491 99.896273 
L 115.837623 99.664845 
L 116.057799 101.948365 
L 116.112843 102.327342 
L 116.167887 102.231972 
L 116.333018 101.888549 
L 116.49815 102.984304 
L 116.553194 102.858457 
L 116.828414 105.079515 
L 116.883458 105.002032 
L 116.993546 106.116828 
L 117.04859 105.987199 
L 117.268766 105.466231 
L 117.32381 105.670409 
L 117.378854 105.612661 
L 117.488942 105.387399 
L 117.654073 107.17343 
L 117.709117 107.09553 
L 117.929293 108.316623 
L 118.259557 107.500176 
L 118.369645 109.18193 
L 118.424689 109.052335 
L 118.479733 108.913471 
L 118.534777 109.188386 
L 118.589821 109.076448 
L 118.754953 108.629703 
L 118.920085 110.944402 
L 118.975128 110.794531 
L 119.030172 111.276026 
L 119.085216 111.106572 
L 119.14026 110.94032 
L 119.250348 111.920151 
L 119.305392 111.755634 
L 119.360436 111.567442 
L 119.41548 112.398378 
L 119.470524 112.246198 
L 119.525568 112.136125 
L 119.6907 113.311877 
L 119.745744 113.152058 
L 119.800788 114.069435 
L 119.855832 113.898876 
L 120.24114 112.928748 
L 120.296184 113.173052 
L 120.351228 113.064982 
L 120.406271 112.907028 
L 120.516359 113.981491 
L 120.571403 113.837169 
L 120.791579 113.434533 
L 120.846623 113.504507 
L 120.901667 113.355843 
L 120.956711 113.688333 
L 121.011755 113.582252 
L 121.562195 112.020633 
L 121.617239 112.03957 
L 121.672283 111.870729 
L 121.727327 112.219668 
L 121.78237 112.028829 
L 121.892458 111.756584 
L 122.05759 112.159704 
L 122.60803 110.684868 
L 122.663074 110.933232 
L 122.718118 110.788113 
L 122.773162 110.64992 
L 122.828206 110.922341 
L 122.88325 110.761147 
L 122.993338 110.428246 
L 123.048382 110.476439 
L 123.103426 110.525286 
L 123.488733 109.515677 
L 123.708909 110.585184 
L 124.479525 109.077609 
L 124.534568 109.280192 
L 124.589612 109.158774 
L 125.140052 108.109495 
L 125.195096 108.268359 
L 125.25014 108.149121 
L 125.745536 107.072167 
L 126.130843 106.177174 
L 126.185887 106.583641 
L 126.240931 106.497701 
L 126.351019 106.250011 
L 126.571195 107.157548 
L 126.626239 107.029257 
L 126.681283 106.970612 
L 126.846415 107.837199 
L 126.956503 107.591464 
L 127.066591 108.782753 
L 127.176679 108.612365 
L 127.34181 108.282838 
L 127.451898 108.663068 
L 127.506942 108.549498 
L 128.057382 107.500099 
L 128.112426 108.04265 
L 128.16747 107.919959 
L 128.387646 107.477629 
L 128.44269 107.951939 
L 128.497734 107.849353 
L 128.607822 107.595863 
L 128.662865 107.71621 
L 128.717909 107.893729 
L 128.772953 107.775123 
L 129.048173 107.25788 
L 129.103217 107.802525 
L 129.158261 107.66689 
L 129.488525 107.071868 
L 129.598613 107.056539 
L 129.653657 106.964824 
L 129.708701 107.099196 
L 129.763745 107.019075 
L 129.928877 106.729539 
L 129.983921 106.842547 
L 130.038964 106.896079 
L 130.53436 106.075373 
L 130.644448 106.473626 
L 130.754536 106.247663 
L 130.864624 107.027232 
L 130.919668 106.936854 
L 131.965503 105.358374 
L 132.515943 104.35716 
L 132.90125 103.944506 
L 133.011338 104.237873 
L 133.066382 104.16011 
L 133.17647 104.380614 
L 133.231514 104.284368 
L 133.616822 103.605512 
L 133.781954 104.040692 
L 134.277349 103.233013 
L 134.772745 102.550843 
L 134.882833 102.67429 
L 134.992921 103.220174 
L 135.047965 103.124232 
L 135.103009 103.042022 
L 135.213097 103.346895 
L 135.268141 103.267368 
L 135.433273 103.067362 
L 135.488317 103.32189 
L 135.54336 103.212056 
L 136.258932 102.283243 
L 136.479108 102.026238 
L 136.589196 101.83639 
L 136.64424 101.961756 
L 136.699284 102.380632 
L 136.754328 102.31383 
L 136.864416 102.158906 
L 136.974503 102.630552 
L 137.029547 102.538228 
L 137.139635 102.365811 
L 137.194679 102.563756 
L 137.249723 102.529323 
L 137.304767 102.427508 
L 137.469899 102.746247 
L 137.635031 102.514274 
L 137.690075 102.675541 
L 137.745119 102.579588 
L 137.800163 102.490197 
L 137.855207 102.556101 
L 138.185471 103.492299 
L 138.240515 103.401225 
L 138.350602 103.234895 
L 138.680866 104.007339 
L 139.28635 103.150126 
L 139.341394 103.1158 
L 139.396438 103.295024 
L 139.451482 103.224979 
L 139.56157 103.057221 
L 139.726701 103.669434 
L 139.781745 103.600677 
L 139.836789 103.677455 
L 139.891833 103.918767 
L 139.946877 103.843907 
L 140.001921 103.775329 
L 140.112009 104.476437 
L 140.167053 104.393925 
L 140.332185 104.195238 
L 140.552361 104.83321 
L 140.607405 105.525755 
L 140.662449 105.429249 
L 140.772537 105.322019 
L 140.827581 105.627896 
L 140.882625 105.590855 
L 141.047757 105.442507 
L 141.157844 105.998941 
L 141.212888 105.938504 
L 141.763328 105.161388 
L 142.588987 104.296442 
L 142.809163 105.305761 
L 142.864207 105.23485 
L 142.919251 105.452917 
L 142.974295 105.370222 
L 143.139427 105.152619 
L 143.194471 105.283049 
L 143.249515 105.195161 
L 143.579779 104.821088 
L 143.634823 104.96116 
L 143.689867 104.897553 
L 143.965086 104.528649 
L 144.185262 104.291715 
L 144.240306 104.435934 
L 144.29535 104.391616 
L 144.680658 103.859772 
L 144.790746 103.99189 
L 144.84579 104.260452 
L 144.900834 104.19438 
L 145.010922 104.039223 
L 145.231097 104.593254 
L 145.286141 104.654368 
L 145.341185 104.576205 
L 145.506317 104.391557 
L 145.561361 104.642016 
L 145.616405 104.558691 
L 145.726493 104.434637 
L 145.946669 104.77995 
L 146.166845 104.556531 
L 146.221889 104.691172 
L 146.276933 104.864341 
L 146.331977 104.778566 
L 146.552153 104.705194 
L 146.607196 104.882233 
L 146.66224 104.799031 
L 146.772328 104.75137 
L 146.992504 104.617147 
L 147.21268 104.491082 
L 147.76312 103.841076 
L 148.038339 103.60021 
L 148.148427 103.48915 
L 148.203471 103.757392 
L 148.258515 103.678822 
L 148.698867 103.135958 
L 148.808955 103.370888 
L 148.863999 103.293618 
L 148.919043 103.432871 
L 148.974087 103.375248 
L 149.139219 103.167189 
L 149.359394 103.76095 
L 149.414438 103.687117 
L 149.634614 103.453356 
L 149.689658 104.017219 
L 149.744702 103.978305 
L 149.799746 103.912867 
L 149.909834 104.457748 
L 149.964878 104.417689 
L 150.13001 104.206867 
L 150.185054 104.304803 
L 150.240098 104.433689 
L 150.295142 104.386737 
L 150.790537 103.868146 
L 150.845581 104.114954 
L 150.900625 104.07773 
L 150.955669 104.016451 
L 151.010713 104.297592 
L 151.065757 104.251291 
L 151.340977 103.925945 
L 151.396021 104.106269 
L 151.451065 104.066377 
L 151.726285 103.788441 
L 151.781329 103.992505 
L 151.836373 103.931142 
L 152.22168 103.485163 
L 152.386812 104.167094 
L 152.441856 104.090476 
L 152.77212 103.741631 
L 152.937252 104.320707 
L 152.992296 104.474646 
L 153.04734 104.427789 
L 153.212472 104.207062 
L 153.32256 104.411156 
L 153.377604 104.340407 
L 153.542735 104.279427 
L 153.762911 104.019793 
L 153.872999 104.361933 
L 153.928043 104.316796 
L 154.148219 104.048176 
L 154.203263 104.257871 
L 154.258307 104.207334 
L 154.313351 104.149261 
L 154.368395 104.318946 
L 154.423439 104.264679 
L 154.533527 104.156404 
L 154.588571 104.352671 
L 154.643615 104.278637 
L 154.698659 104.219904 
L 154.753703 104.559294 
L 154.808747 104.486208 
L 155.359186 103.944402 
L 155.41423 104.012464 
L 155.469274 103.958374 
L 155.68945 103.691064 
L 155.744494 103.979982 
L 155.799538 103.923427 
L 156.074758 103.636546 
L 156.239889 104.127205 
L 156.294933 104.060859 
L 156.570153 103.729239 
L 156.625197 103.836903 
L 156.680241 103.77766 
L 157.065549 103.404552 
L 157.175637 103.728391 
L 157.230681 103.685971 
L 157.560945 103.34137 
L 157.615989 103.537111 
L 157.671032 103.492411 
L 157.726076 103.456694 
L 157.78112 103.652006 
L 157.836164 103.63233 
L 158.166428 103.59212 
L 317.628781 103.690109 
L 317.904 103.718612 
L 340.361936 103.81478 
L 340.637156 103.843276 
L 353.297267 103.926062 
L 353.572487 103.95455 
L 381.149511 104.032819 
L 381.369686 104.075538 
L 420.230722 104.169802 
L 420.505942 104.198272 
L 448.853581 104.306727 
L 449.348977 104.320957 
L 464.100758 104.410628 
L 464.320934 104.481751 
L 487.109134 104.583766 
L 487.384354 104.612202 
L 494.264849 104.695689 
L 494.540068 104.724119 
L 505.989212 104.819979 
L 506.264432 104.8484 
L 537.034006 104.945135 
L 537.034006 104.945135 
" clip-path="url(#p43e6105724)" style="fill: none; stroke: #1f77b4; stroke-width: 1.8; stroke-linecap: square"/>
   </g>
   <g id="line2d_28">
    <path d="M 83.526818 249.758182 
L 83.69195 92.341914 
L 83.746994 116.762722 
L 83.802038 102.247359 
L 83.857082 93.236009 
L 83.912126 102.381217 
L 83.96717 122.798086 
L 84.022214 113.366371 
L 84.297434 88.288837 
L 84.352478 88.457856 
L 84.407522 97.662906 
L 84.462566 94.081149 
L 84.572653 88.968265 
L 84.737785 91.832709 
L 84.847873 87.001578 
L 85.013005 90.214181 
L 85.233181 83.107838 
L 85.343269 91.216147 
L 85.398313 89.953115 
L 85.453357 88.828158 
L 85.618489 93.04092 
L 85.728577 90.60236 
L 85.893708 99.945827 
L 85.948752 98.271948 
L 86.05884 96.32163 
L 86.33406 104.077271 
L 86.389104 102.787658 
L 86.444148 104.572316 
L 86.60928 111.092623 
L 86.829456 119.197275 
L 86.8845 117.563305 
L 86.939544 118.810474 
L 86.994588 117.695451 
L 87.049632 116.305284 
L 87.214764 117.985728 
L 87.434939 114.789955 
L 87.489983 114.580989 
L 87.545027 115.620188 
L 87.875291 111.041784 
L 87.930335 110.333321 
L 88.095467 112.49503 
L 88.150511 112.604372 
L 88.205555 111.669882 
L 88.260599 112.372676 
L 88.315643 112.72789 
L 88.480775 116.565084 
L 88.590863 114.964925 
L 88.645906 117.492398 
L 88.70095 116.746735 
L 88.921126 114.304438 
L 88.97617 115.496078 
L 89.031214 115.422469 
L 89.086258 114.642221 
L 89.196346 116.712755 
L 89.25139 115.86323 
L 89.361478 114.841164 
L 89.581654 117.189188 
L 89.691742 115.601542 
L 89.746786 116.884563 
L 89.80183 116.28157 
L 90.297225 111.21501 
L 90.352269 111.954878 
L 90.407313 111.462242 
L 90.682533 109.429502 
L 90.847665 107.914079 
L 90.902709 108.339013 
L 91.122885 107.117415 
L 91.177929 109.304314 
L 91.232973 108.709967 
L 91.288017 108.118291 
L 91.343061 108.802815 
L 91.398104 108.307965 
L 91.453148 107.732372 
L 91.61828 108.914145 
L 91.673324 108.336692 
L 91.838456 110.470611 
L 92.058632 108.498065 
L 92.113676 109.684972 
L 92.16872 109.230216 
L 92.498984 107.237561 
L 92.609072 108.276899 
L 92.664116 107.837643 
L 92.829247 107.338397 
L 92.939335 109.392364 
L 92.994379 109.087836 
L 93.104467 108.250707 
L 93.214555 109.602869 
L 93.269599 109.166348 
L 93.544819 107.906406 
L 93.599863 107.984745 
L 93.930127 106.220432 
L 94.150302 107.7718 
L 94.205346 107.338885 
L 94.315434 106.609483 
L 94.370478 107.020919 
L 94.480566 108.334657 
L 94.590654 108.31767 
L 94.645698 108.342985 
L 94.700742 108.524631 
L 94.81083 107.792713 
L 94.865874 108.506233 
L 94.920918 108.102192 
L 94.975962 107.702637 
L 95.08605 109.798621 
L 95.141094 109.400039 
L 95.36127 108.202667 
L 95.416314 108.529328 
L 95.691533 106.928797 
L 95.746577 107.161414 
L 95.966753 106.453785 
L 96.186929 105.246564 
L 96.297017 106.219174 
L 96.352061 105.971809 
L 96.462149 106.520098 
L 96.737369 105.166437 
L 96.792413 105.989293 
L 96.9025 105.976916 
L 96.957544 105.714332 
L 97.012588 106.297473 
L 97.067632 105.978336 
L 97.45294 104.280527 
L 97.507984 104.585138 
L 97.563028 104.360371 
L 97.618072 104.061773 
L 97.838248 104.989958 
L 97.893292 104.684351 
L 97.948336 105.348703 
L 98.00338 105.057953 
L 98.168512 105.484274 
L 98.278599 104.988728 
L 98.388687 106.330791 
L 98.443731 106.027218 
L 98.498775 106.299556 
L 98.663907 105.673092 
L 98.773995 106.0886 
L 98.939127 105.756172 
L 99.104259 106.807115 
L 99.159303 106.518823 
L 99.489567 105.437597 
L 99.544611 105.648069 
L 99.929918 104.313976 
L 99.984962 104.123521 
L 100.150094 105.589373 
L 100.205138 105.780102 
L 100.260182 105.582604 
L 100.425314 105.212115 
L 100.480358 105.481241 
L 100.535402 105.236454 
L 100.64549 104.743119 
L 100.755578 105.561767 
L 100.810622 105.300178 
L 101.195929 104.161118 
L 101.250973 104.217764 
L 101.306017 104.447591 
L 101.361061 104.237742 
L 101.526193 103.588112 
L 101.691325 104.720793 
L 101.746369 104.520398 
L 101.911501 105.322538 
L 102.021589 104.93248 
L 102.076633 105.29497 
L 102.131677 105.14921 
L 102.406897 104.388134 
L 102.46194 104.787075 
L 102.516984 104.583971 
L 102.572028 104.419169 
L 102.627072 104.708239 
L 102.682116 104.546654 
L 102.73716 104.662026 
L 103.122468 103.515265 
L 103.342644 104.66788 
L 103.397688 104.459162 
L 103.507776 104.075613 
L 103.56282 104.421326 
L 103.617864 104.288238 
L 104.003171 103.310432 
L 104.113259 104.624532 
L 104.168303 104.464932 
L 104.333435 103.882028 
L 104.443523 105.097116 
L 104.498567 104.89304 
L 104.718743 104.12181 
L 104.828831 105.04445 
L 104.883875 104.844425 
L 105.049007 105.2823 
L 105.324226 104.618152 
L 105.489358 105.12009 
L 105.544402 105.113966 
L 105.65449 104.746449 
L 105.709534 105.053609 
L 105.764578 104.877826 
L 105.874666 104.542464 
L 105.92971 104.99754 
L 105.984754 104.812408 
L 106.039798 104.639469 
L 106.315018 105.78103 
L 106.590237 105.216747 
L 106.700325 104.859605 
L 106.755369 105.16501 
L 106.810413 105.001587 
L 107.140677 104.263036 
L 107.250765 105.218917 
L 107.305809 105.086465 
L 107.360853 105.322802 
L 107.415897 105.163142 
L 107.525985 104.856545 
L 107.636073 105.724506 
L 107.691117 105.582494 
L 107.911293 104.885186 
L 107.966336 105.0407 
L 108.241556 104.387047 
L 108.2966 104.87825 
L 108.351644 104.703271 
L 108.461732 105.075767 
L 108.516776 104.899564 
L 108.57182 104.758444 
L 108.626864 105.016842 
L 108.681908 104.850065 
L 109.12226 103.664178 
L 109.177304 103.785031 
L 109.232348 103.6479 
L 109.342435 103.331354 
L 109.507567 103.987369 
L 109.562611 103.847897 
L 109.617655 104.053146 
L 109.672699 103.906529 
L 109.837831 103.489212 
L 109.892875 103.745441 
L 109.947919 103.63099 
L 110.002963 103.466562 
L 110.168095 104.199572 
L 110.278183 103.921757 
L 110.498359 104.497257 
L 110.608447 104.188568 
L 110.663491 104.493702 
L 110.718534 104.379562 
L 110.993754 103.684632 
L 111.048798 104.004669 
L 111.103842 103.867725 
L 111.379062 103.36283 
L 111.434106 103.712439 
L 111.48915 103.567467 
L 111.709326 103.068402 
L 111.76437 103.295914 
L 111.819414 103.169082 
L 112.259765 102.129365 
L 112.369853 101.894892 
L 112.424897 102.09939 
L 112.479941 101.992657 
L 112.590029 101.738893 
L 112.645073 101.922687 
L 112.700117 101.816988 
L 112.810205 101.547678 
L 112.865249 101.7768 
L 112.920293 101.646056 
L 113.085425 101.292406 
L 113.140469 101.574828 
L 113.195513 101.436065 
L 113.415689 100.983559 
L 113.470732 101.261902 
L 113.525776 101.122174 
L 113.745952 100.805513 
L 113.800996 101.013761 
L 113.85604 100.891763 
L 114.13126 100.306982 
L 114.241348 100.722342 
L 114.296392 100.591938 
L 114.516568 100.101168 
L 114.571612 100.330753 
L 114.626656 100.20112 
L 114.736744 99.964317 
L 114.901875 100.728945 
L 114.956919 100.601465 
L 115.122051 100.23238 
L 115.177095 100.581399 
L 115.232139 100.480586 
L 115.342227 100.268137 
L 115.397271 100.539108 
L 115.452315 100.411136 
L 115.507359 100.305611 
L 115.617447 100.742801 
L 115.672491 100.628477 
L 116.057799 99.872246 
L 116.112843 99.911864 
L 116.167887 100.063564 
L 116.22293 99.95942 
L 116.718326 98.987402 
L 116.883458 99.260566 
L 118.314601 96.814512 
L 118.424689 97.158867 
L 118.809997 96.487009 
L 118.865041 96.760143 
L 118.920085 96.660259 
L 118.975128 96.564431 
L 119.030172 96.721082 
L 119.085216 96.622991 
L 119.580612 95.945203 
L 119.910876 95.381463 
L 120.020964 95.474887 
L 120.076008 95.931919 
L 120.131052 95.830878 
L 120.186096 95.743191 
L 120.24114 95.862245 
L 120.626447 95.348881 
L 120.681491 95.584957 
L 120.736535 95.487298 
L 121.066799 95.091662 
L 121.121843 95.241618 
L 121.176887 95.15941 
L 121.397063 94.792288 
L 121.452107 95.356898 
L 121.507151 95.279813 
L 121.892458 94.929889 
L 122.002546 95.263183 
L 122.05759 95.238707 
L 122.167678 95.069732 
L 122.222722 95.254995 
L 122.277766 95.181812 
L 122.60803 94.80658 
L 122.718118 95.337011 
L 122.773162 95.252605 
L 123.048382 95.02349 
L 123.268557 94.706901 
L 123.378645 94.983797 
L 123.818997 94.491583 
L 123.874041 94.416992 
L 124.039173 94.6732 
L 124.204305 94.422382 
L 124.314393 95.050329 
L 124.369437 94.985352 
L 124.644656 94.564409 
L 124.754744 94.88601 
L 124.809788 94.810546 
L 124.97492 94.549474 
L 125.140052 94.782932 
L 125.470316 94.494285 
L 126.020755 93.944788 
L 126.130843 94.063045 
L 126.185887 93.979299 
L 126.240931 93.896776 
L 126.295975 94.159851 
L 126.351019 94.078293 
L 126.406063 93.994028 
L 126.571195 94.229505 
L 126.846415 93.844576 
L 126.901459 93.97968 
L 126.956503 93.912097 
L 127.121635 93.685405 
L 127.231723 94.370412 
L 127.286766 94.287484 
L 127.34181 94.356147 
L 127.396854 94.270595 
L 127.61703 94.13566 
L 127.672074 94.204979 
L 127.727118 94.132638 
L 128.16747 93.756325 
L 128.222514 93.880197 
L 128.277558 93.799783 
L 128.772953 93.256114 
L 128.827997 93.40437 
L 128.883041 93.893967 
L 128.938085 93.813839 
L 128.993129 93.733933 
L 129.048173 93.812797 
L 129.103217 93.938557 
L 129.158261 93.864255 
L 129.433481 93.511878 
L 129.488525 93.832474 
L 129.543569 93.759859 
L 129.928877 93.287821 
L 129.983921 93.402036 
L 130.038964 93.343171 
L 130.094008 93.271093 
L 130.149052 93.445383 
L 130.204096 93.381354 
L 130.479316 93.048414 
L 130.589404 93.359929 
L 130.644448 93.301873 
L 130.864624 93.133167 
L 130.919668 93.249669 
L 130.974712 93.177315 
L 131.36002 92.822665 
L 131.415063 93.066399 
L 131.470107 92.997607 
L 131.525151 92.929839 
L 131.580195 93.030356 
L 131.635239 93.345844 
L 131.690283 93.275327 
L 131.800371 93.155332 
L 131.910459 93.482826 
L 131.965503 93.427954 
L 132.020547 93.633746 
L 132.075591 93.571992 
L 132.240723 93.431826 
L 132.405855 93.715141 
L 132.460899 93.669038 
L 132.681075 93.484516 
L 132.846206 93.743204 
L 133.121426 93.538353 
L 133.17647 93.727304 
L 133.231514 93.687578 
L 133.836998 93.502595 
L 134.00213 93.678639 
L 134.057174 93.824762 
L 134.112218 93.795432 
L 134.332393 93.635068 
L 134.497525 93.824634 
L 134.552569 93.787135 
L 134.717701 93.66332 
L 134.772745 93.908714 
L 134.827789 93.882095 
L 134.937877 93.814826 
L 135.103009 94.089738 
L 135.158053 94.04652 
L 135.323185 94.481758 
L 135.54336 94.362564 
L 135.708492 94.591423 
L 135.928668 94.460862 
L 136.0938 94.727722 
L 136.148844 94.696122 
L 136.203888 94.679505 
L 136.258932 94.835597 
L 136.313976 94.79982 
L 136.754328 94.543999 
L 136.919459 94.780475 
L 137.249723 94.680895 
L 137.359811 95.122938 
L 137.414855 95.087389 
L 137.855207 94.843019 
L 137.965295 94.881444 
L 138.240515 94.813127 
L 138.350602 94.904042 
L 138.956086 94.649538 
L 139.066174 94.729977 
L 139.56157 94.605493 
L 139.726701 94.705109 
L 141.543152 94.4102 
L 141.708284 94.510159 
L 141.763328 94.501354 
L 141.983504 94.718268 
L 142.533943 94.75373 
L 142.699075 94.874509 
L 143.414647 94.793496 
L 143.579779 94.882012 
L 144.405438 94.799529 
L 144.57057 94.895095 
L 146.111801 94.86868 
L 227.96217 94.942609 
L 228.182345 95.016528 
L 236.053632 95.104414 
L 236.273808 95.148752 
L 241.282808 95.24817 
L 241.502984 95.292494 
L 243.099259 95.395902 
L 243.319434 95.440213 
L 247.447731 95.524784 
L 247.722951 95.553507 
L 251.190721 95.625711 
L 251.410897 95.68476 
L 254.713534 95.770888 
L 254.93371 95.815162 
L 258.896875 95.887318 
L 259.117051 95.931581 
L 263.355436 96.034033 
L 263.630656 96.062719 
L 269.355228 96.165958 
L 269.630447 96.195451 
L 281.960294 96.305225 
L 282.290558 96.364186 
L 293.684658 96.464892 
L 294.12501 96.479628 
L 307.33556 96.57866 
L 307.775912 96.593392 
L 318.894792 96.694857 
L 319.335143 96.709585 
L 334.472232 96.809373 
L 334.692408 96.853544 
L 340.251848 96.939398 
L 340.472024 96.983557 
L 347.132343 97.086581 
L 347.572695 97.101297 
L 358.361311 97.204299 
L 358.801663 97.219011 
L 365.461982 97.30645 
L 365.682158 97.350578 
L 375.259807 97.453531 
L 375.700158 97.468236 
L 379.222972 97.556463 
L 379.498192 97.585869 
L 393.644489 97.693447 
L 393.919709 97.722841 
L 407.955919 97.82403 
L 408.396271 97.838723 
L 414.891458 97.941562 
L 415.221722 98.000319 
L 423.423272 98.08676 
L 423.643448 98.130815 
L 425.735118 98.233595 
L 426.065382 98.292319 
L 431.624822 98.395069 
L 432.065174 98.409746 
L 435.092591 98.512473 
L 435.532943 98.527147 
L 441.532735 98.626462 
L 441.752911 98.670471 
L 444.174845 98.75593 
L 444.450065 98.785261 
L 456.945044 98.85518 
L 457.165219 98.896613 
L 462.559528 98.997523 
L 462.834747 99.026837 
L 466.522693 99.026837 
L 466.522693 99.026837 
" clip-path="url(#p43e6105724)" style="fill: none; stroke: #ff7f0e; stroke-width: 1.8; stroke-linecap: square"/>
   </g>
   <g id="line2d_29">
    <path d="M 83.526818 115.599632 
L 83.581862 219.238701 
L 83.636906 161.201656 
L 83.802038 98.83308 
L 83.857082 110.206495 
L 83.912126 99.220554 
L 83.96717 91.346336 
L 84.022214 96.711963 
L 84.132302 102.203617 
L 84.187346 122.27934 
L 84.24239 115.913904 
L 84.407522 103.980398 
L 84.517609 120.499206 
L 84.572653 116.226933 
L 84.792829 102.082069 
L 84.847873 104.197515 
L 84.902917 104.622628 
L 85.013005 119.280622 
L 85.068049 116.304677 
L 85.123093 114.180107 
L 85.288225 123.135096 
L 85.948752 104.426358 
L 86.113884 108.764639 
L 86.168928 109.620567 
L 86.223972 107.9941 
L 86.279016 110.922274 
L 86.33406 109.693209 
L 86.389104 108.217625 
L 86.444148 112.039344 
L 86.499192 111.267654 
L 86.554236 109.651615 
L 86.60928 112.602617 
L 86.664324 111.760185 
L 86.719368 111.789952 
L 86.774412 112.342941 
L 86.994588 109.454263 
L 87.049632 113.909887 
L 87.104676 112.774164 
L 87.214764 110.700143 
L 87.269807 111.94714 
L 87.324851 116.855911 
L 87.379895 116.020911 
L 87.434939 116.521211 
L 87.545027 114.61129 
L 87.710159 116.575399 
L 87.765203 115.243646 
L 87.875291 121.043318 
L 87.930335 120.33467 
L 87.985379 119.429995 
L 88.040423 119.991827 
L 88.205555 123.631428 
L 88.260599 122.580399 
L 88.315643 123.991699 
L 88.370687 123.210367 
L 88.425731 122.267595 
L 88.480775 122.862604 
L 88.535819 125.267633 
L 88.590863 124.230884 
L 88.645906 123.500935 
L 88.866082 128.421508 
L 88.97617 126.356355 
L 89.031214 128.889522 
L 89.086258 127.878468 
L 89.196346 126.876528 
L 89.416522 133.589543 
L 89.471566 132.450521 
L 89.746786 129.797077 
L 89.80183 132.237058 
L 89.856874 131.308408 
L 89.966962 129.62369 
L 90.407313 140.027696 
L 90.462357 139.467724 
L 90.517401 140.387949 
L 90.792621 136.453045 
L 90.847665 136.896129 
L 90.902709 136.724209 
L 91.012797 135.630826 
L 91.067841 137.783434 
L 91.122885 137.347983 
L 91.453148 134.209845 
L 91.508192 134.870189 
L 91.563236 134.345252 
L 91.728368 132.648475 
L 91.838456 134.515033 
L 91.8935 133.878342 
L 92.333852 130.375704 
L 92.44394 132.368545 
L 92.498984 132.124225 
L 92.609072 130.926507 
L 92.664116 133.148867 
L 92.71916 132.585473 
L 92.994379 129.806055 
L 93.324643 127.485868 
L 93.544819 128.690796 
L 93.930127 125.888596 
L 93.985171 126.56681 
L 94.040215 126.164704 
L 94.205346 125.141935 
L 94.26039 125.874542 
L 94.315434 125.423836 
L 94.53561 123.951415 
L 94.590654 125.045484 
L 94.645698 124.728428 
L 94.700742 124.185114 
L 94.81083 125.298819 
L 95.251182 122.802628 
L 95.306226 122.847034 
L 95.636489 120.564319 
L 95.691533 121.277087 
L 95.746577 121.133207 
L 95.801621 120.750821 
L 95.856665 121.478695 
L 95.911709 121.086964 
L 95.966753 120.647706 
L 96.021797 120.951981 
L 96.076841 120.889691 
L 96.572237 118.3144 
L 96.682325 119.455666 
L 96.737369 119.155733 
L 96.792413 118.883988 
L 96.847457 119.710296 
L 96.9025 119.31911 
L 97.012588 118.634338 
L 97.067632 119.149165 
L 97.122676 118.823208 
L 97.17772 119.083551 
L 97.342852 117.934427 
L 97.397896 118.674962 
L 97.45294 118.35912 
L 97.563028 118.19639 
L 97.673116 120.373083 
L 97.72816 119.997071 
L 97.893292 120.544181 
L 97.948336 120.314706 
L 98.00338 121.1204 
L 98.058424 120.871367 
L 98.168512 120.262318 
L 98.223556 120.874081 
L 98.278599 120.658048 
L 98.553819 119.23661 
L 98.608863 120.851175 
L 98.663907 120.663783 
L 98.718951 120.356391 
L 98.773995 121.149342 
L 98.829039 120.800869 
L 99.159303 119.283062 
L 99.434523 121.712409 
L 99.544611 121.312204 
L 99.709742 120.405267 
L 99.764786 120.778147 
L 99.81983 120.465554 
L 99.929918 119.911227 
L 99.984962 120.067055 
L 100.09505 121.077709 
L 100.150094 120.864038 
L 100.37027 119.682918 
L 100.64549 121.243394 
L 100.700534 121.007417 
L 100.810622 121.477971 
L 100.975754 120.579872 
L 101.140885 121.727443 
L 101.195929 121.428405 
L 101.306017 120.860388 
L 101.526193 121.777641 
L 101.581237 121.496906 
L 101.691325 122.255913 
L 101.856457 121.503616 
L 101.911501 122.422313 
L 101.966545 122.153148 
L 102.131677 121.742266 
L 102.186721 121.707189 
L 102.241765 122.87589 
L 102.296809 122.694565 
L 102.351853 122.548516 
L 102.406897 122.877068 
L 102.46194 122.68936 
L 102.627072 121.980412 
L 102.682116 122.459998 
L 102.73716 122.328276 
L 102.957336 121.255797 
L 103.067424 121.854919 
L 103.122468 121.685432 
L 103.2876 120.953778 
L 103.342644 121.347036 
L 103.397688 121.110379 
L 103.893083 119.038168 
L 103.948127 119.361028 
L 104.003171 119.092449 
L 104.113259 119.720273 
L 104.168303 119.601574 
L 104.553611 118.414874 
L 104.608655 118.406814 
L 104.828831 117.696398 
L 104.938919 118.419118 
L 104.993963 118.167927 
L 105.049007 117.915074 
L 105.104051 118.277548 
L 105.159095 118.035332 
L 105.434314 116.987572 
L 105.489358 117.317628 
L 105.544402 117.067138 
L 105.65449 116.827091 
L 105.709534 116.987492 
L 105.764578 116.798597 
L 105.819622 117.065536 
L 105.874666 116.98838 
L 105.984754 116.602439 
L 106.039798 117.818731 
L 106.094842 117.657982 
L 106.149886 117.616154 
L 106.20493 117.731491 
L 106.755369 116.17016 
L 106.810413 116.337217 
L 106.920501 115.954993 
L 106.975545 116.032099 
L 107.085633 117.005993 
L 107.195721 116.932053 
L 107.525985 115.949755 
L 107.581029 116.396323 
L 107.636073 116.189667 
L 108.02138 115.029893 
L 108.406688 113.860118 
L 108.461732 114.20266 
L 108.516776 114.050757 
L 108.626864 113.756499 
L 108.681908 113.923905 
L 108.736952 113.849914 
L 108.957128 113.340963 
L 109.012172 113.391566 
L 109.232348 112.73898 
L 109.287392 112.897107 
L 109.452523 112.46984 
L 109.672699 111.811773 
L 109.892875 113.986044 
L 110.498359 112.633843 
L 110.553403 112.914737 
L 110.608447 112.760349 
L 110.828622 112.072049 
L 110.883666 112.21285 
L 110.93871 112.068848 
L 110.993754 112.1346 
L 111.103842 111.885309 
L 111.158886 112.030002 
L 111.21393 112.090422 
L 111.268974 111.927586 
L 111.324018 112.139993 
L 111.379062 112.932129 
L 111.434106 112.775397 
L 112.259765 110.844375 
L 112.424897 111.396554 
L 112.590029 111.729587 
L 112.645073 111.560427 
L 112.810205 112.681593 
L 112.865249 112.537782 
L 113.250557 111.529089 
L 113.305601 111.624739 
L 113.470732 111.199536 
L 113.58082 111.86909 
L 113.635864 111.726183 
L 114.076216 110.807444 
L 114.13126 110.970425 
L 114.186304 110.845957 
L 114.241348 110.820065 
L 114.40648 110.40777 
L 114.571612 110.932727 
L 114.626656 110.777901 
L 114.6817 110.958788 
L 114.736744 110.824492 
L 115.122051 109.831457 
L 115.177095 110.338 
L 115.232139 110.281867 
L 116.002755 108.472853 
L 116.057799 108.816118 
L 116.112843 108.723071 
L 116.277974 108.546227 
L 116.333018 108.571652 
L 116.388062 108.88957 
L 116.443106 108.797375 
L 117.103634 107.394312 
L 117.158678 107.29005 
L 117.213722 107.897926 
L 117.268766 107.796813 
L 117.488942 107.353414 
L 117.543986 107.436182 
L 117.599029 107.327964 
L 117.709117 107.10558 
L 117.764161 107.256388 
L 117.819205 107.13014 
L 118.369645 106.123307 
L 118.424689 106.166946 
L 118.754953 105.748628 
L 118.975128 105.345516 
L 119.085216 105.148946 
L 119.14026 105.269696 
L 119.195304 105.331686 
L 119.250348 105.245948 
L 119.41548 104.877925 
L 119.525568 105.292989 
L 119.580612 105.157002 
L 119.6907 104.961164 
L 119.745744 105.085795 
L 119.800788 104.9859 
L 119.855832 104.875245 
L 119.910876 105.197284 
L 119.96592 105.096096 
L 120.186096 104.706774 
L 120.296184 104.970367 
L 120.516359 104.595895 
L 120.571403 104.730317 
L 120.626447 104.665463 
L 120.681491 104.676991 
L 120.736535 104.572409 
L 120.791579 104.730165 
L 120.846623 104.621256 
L 121.231931 104.033205 
L 121.397063 104.48781 
L 121.727327 103.934542 
L 121.837414 104.084319 
L 122.05759 103.676237 
L 122.112634 103.775107 
L 122.167678 103.710713 
L 123.048382 102.331836 
L 123.103426 102.384657 
L 123.323601 102.181473 
L 123.433689 101.995862 
L 123.488733 102.24033 
L 123.543777 102.126997 
L 124.204305 101.037359 
L 124.259349 101.215322 
L 124.314393 101.129926 
L 125.195096 99.945303 
L 125.25014 100.253676 
L 125.305184 100.183012 
L 125.635448 99.90888 
L 125.745536 99.842746 
L 125.855624 100.382337 
L 126.185887 99.965364 
L 126.240931 100.182169 
L 126.295975 100.081712 
L 127.121635 99.16038 
L 127.176679 99.273617 
L 127.231723 99.219007 
L 127.286766 99.240428 
L 127.34181 99.421276 
L 127.396854 99.346127 
L 127.727118 98.927614 
L 127.782162 99.033562 
L 127.837206 98.95715 
L 128.057382 98.672253 
L 128.16747 99.111052 
L 128.222514 99.068355 
L 128.497734 98.696036 
L 128.552778 98.779141 
L 128.607822 98.870274 
L 128.662865 98.795345 
L 128.717909 98.720594 
L 128.772953 98.927637 
L 128.827997 98.868067 
L 129.323393 98.337893 
L 129.488525 98.141318 
L 129.653657 98.882707 
L 129.983921 98.57829 
L 130.038964 98.521573 
L 130.094008 98.671497 
L 130.149052 98.595545 
L 130.204096 98.528816 
L 130.25914 98.707201 
L 130.314184 98.651794 
L 130.80958 98.220955 
L 130.864624 98.391403 
L 130.919668 98.33677 
L 131.36002 97.866902 
L 131.415063 98.048799 
L 131.470107 97.996058 
L 131.745327 97.696705 
L 131.800371 97.766797 
L 131.855415 97.720066 
L 132.515943 97.236407 
L 132.736119 97.5687 
L 132.956294 97.366316 
L 133.011338 97.721461 
L 133.066382 97.685201 
L 133.231514 97.538464 
L 133.286558 97.753465 
L 133.341602 97.709895 
L 133.671866 97.418194 
L 133.72691 97.523683 
L 134.222305 97.238449 
L 134.882833 96.741063 
L 134.937877 96.911544 
L 134.992921 96.866447 
L 135.708492 96.342532 
L 135.763536 96.697683 
L 135.81858 96.651179 
L 136.258932 96.354634 
L 137.690075 95.749491 
L 137.910251 96.19934 
L 138.240515 96.012624 
L 138.295559 96.166609 
L 138.350602 96.129525 
L 138.625822 96.086254 
L 138.680866 96.060998 
L 138.790954 96.136334 
L 139.451482 95.83673 
L 139.781745 95.648842 
L 139.891833 95.713355 
L 140.442273 95.52291 
L 140.552361 95.471744 
L 140.607405 95.594074 
L 140.662449 95.562798 
L 140.717493 95.541965 
L 140.772537 95.707401 
L 140.827581 95.678954 
L 140.882625 95.657163 
L 140.992713 95.779264 
L 142.093592 95.42142 
L 142.148636 95.578396 
L 142.20368 95.558729 
L 143.249515 95.265044 
L 143.304559 95.407971 
L 143.359603 95.380166 
L 143.579779 95.291365 
L 143.689867 95.441312 
L 144.405438 95.217259 
L 144.515526 95.297633 
L 145.231097 95.205831 
L 146.166845 95.028127 
L 146.276933 95.154865 
L 147.322768 94.864787 
L 147.432856 94.989121 
L 147.597988 94.946822 
L 147.818164 95.16664 
L 148.643823 94.95465 
L 148.753911 95.079062 
L 149.744702 94.961108 
L 149.909834 95.008528 
L 150.350186 94.908889 
L 150.515318 94.991677 
L 151.396021 94.894395 
L 151.561153 95.019283 
L 151.781329 94.973247 
L 151.946461 95.084646 
L 154.148219 94.750891 
L 154.313351 94.838972 
L 154.973878 94.887045 
L 155.13901 94.969221 
L 163.450648 94.265812 
L 163.670824 94.303477 
L 168.955044 94.166904 
L 231.540027 94.244888 
L 231.705159 94.324564 
L 234.952752 94.404227 
L 235.117884 94.483879 
L 239.796621 94.573446 
L 239.961753 94.653064 
L 244.695533 94.710738 
L 244.860665 94.790328 
L 246.291808 94.853991 
L 246.45694 94.93356 
L 255.153886 95.002762 
L 255.374062 95.050482 
L 257.795996 95.098199 
L 257.961128 95.161815 
L 259.832622 95.225423 
L 259.997754 95.304922 
L 261.979337 95.368514 
L 262.144469 95.447992 
L 271.281766 95.543351 
L 271.556986 95.575134 
L 274.419272 95.615834 
L 274.584404 95.695267 
L 276.510942 95.772941 
L 276.731118 95.820587 
L 277.942085 95.884108 
L 278.162261 95.931744 
L 280.198888 96.008498 
L 280.419064 96.056121 
L 281.299767 96.135483 
L 281.519943 96.183095 
L 283.996921 96.294172 
L 284.162053 96.357635 
L 288.785745 96.462497 
L 289.060965 96.494216 
L 291.372812 96.605218 
L 291.703075 96.668638 
L 293.464482 96.779604 
L 293.684658 96.827154 
L 297.702867 96.93542 
L 297.978087 96.96711 
L 299.244098 97.073554 
L 299.40923 97.152749 
L 300.785329 97.263602 
L 301.060549 97.29527 
L 301.5009 97.342769 
L 301.666032 97.421925 
L 303.372395 97.516896 
L 303.592571 97.564376 
L 304.528318 97.675145 
L 304.96867 97.690967 
L 306.234681 97.752451 
L 306.454857 97.894811 
L 307.555736 97.95807 
L 307.720868 98.021321 
L 309.647406 98.131993 
L 309.922626 98.226837 
L 310.968461 98.30223 
L 311.133593 98.381238 
L 314.161011 98.490009 
L 314.381187 98.537397 
L 315.151802 98.647954 
L 315.371978 98.742698 
L 318.509484 98.853213 
L 318.72966 98.90057 
L 319.225055 98.993435 
L 319.500275 99.024998 
L 322.747869 99.122584 
L 322.913001 99.185678 
L 326.65599 99.287784 
L 326.93121 99.319318 
L 328.527485 99.379613 
L 328.747661 99.474189 
L 329.02288 99.565974 
L 330.288891 99.676268 
L 330.729243 99.689243 
L 331.444815 99.749471 
L 331.609946 99.812472 
L 332.49065 99.889354 
L 332.710826 99.932872 
L 335.518068 99.991193 
L 335.683199 100.069894 
L 337.169386 100.180056 
L 337.444606 100.211527 
L 339.261057 100.32166 
L 339.976628 100.416042 
L 340.582112 100.494681 
L 340.802288 100.541859 
L 341.738035 100.604757 
L 341.903167 100.681489 
L 343.664574 100.786817 
L 344.104925 100.802533 
L 345.921376 100.911591 
L 346.196596 101.021568 
L 346.636948 101.016846 
L 346.802079 101.095382 
L 349.939585 101.200579 
L 350.159761 101.244841 
L 350.545069 101.323334 
L 350.710201 101.38612 
L 354.012838 101.476484 
L 354.17797 101.554938 
L 354.508234 101.617694 
L 354.673366 101.680442 
L 357.920959 101.76787 
L 358.086091 101.846274 
L 359.242014 101.951236 
L 359.407146 102.013934 
L 359.792454 102.076624 
L 359.957586 102.139307 
L 360.452982 102.201023 
L 360.618113 102.263691 
L 362.049256 102.307802 
L 362.214388 102.386116 
L 364.085883 102.477187 
L 364.251015 102.539817 
L 366.342685 102.633748 
L 366.562861 102.680708 
L 368.654532 102.770743 
L 368.819663 102.848982 
L 371.461774 102.955586 
L 371.736993 102.986871 
L 372.94796 103.096353 
L 373.168136 103.143267 
L 373.718576 103.215606 
L 377.076257 103.297704 
L 377.241389 103.407093 
L 377.956961 103.516459 
L 378.397313 103.532081 
L 380.103675 103.641422 
L 380.268807 103.719509 
L 380.488983 103.78197 
L 380.709159 103.875649 
L 383.241181 103.98492 
L 383.406313 104.047351 
L 384.176928 104.140983 
L 384.452148 104.172191 
L 387.974962 104.231638 
L 387.974962 104.231638 
" clip-path="url(#p43e6105724)" style="fill: none; stroke: #2ca02c; stroke-width: 1.8; stroke-linecap: square"/>
   </g>
   <g id="line2d_30">
    <path d="M 83.526818 36.121818 
L 83.581862 219.238701 
L 83.636906 165.07737 
L 83.802038 90.947232 
L 83.857082 123.006465 
L 83.912126 108.117339 
L 84.022214 94.349774 
L 84.077258 144.585658 
L 84.132302 137.775524 
L 84.352478 111.725315 
L 84.517609 151.465745 
L 84.572653 144.071904 
L 84.847873 121.296308 
L 84.902917 130.837447 
L 84.957961 129.040039 
L 85.343269 112.460592 
L 85.398313 120.179709 
L 85.453357 117.788841 
L 85.673533 112.110362 
L 85.728577 114.788994 
L 85.783621 112.45335 
L 85.838665 110.908699 
L 85.893708 111.56643 
L 85.948752 114.42838 
L 86.003796 112.450629 
L 86.168928 107.309602 
L 86.554236 97.739278 
L 86.60928 96.3764 
L 86.664324 100.074982 
L 86.719368 99.165237 
L 87.104676 92.539872 
L 87.15972 91.771151 
L 87.214764 96.579265 
L 87.269807 95.671542 
L 87.324851 94.611669 
L 87.600071 102.808935 
L 88.205555 93.47355 
L 88.645906 88.548875 
L 88.755994 87.370311 
L 88.866082 91.282429 
L 88.921126 90.746131 
L 89.471566 85.611881 
L 89.636698 90.367642 
L 89.746786 89.369657 
L 89.966962 94.053145 
L 90.022005 93.420799 
L 90.242181 91.448027 
L 90.297225 91.821679 
L 90.847665 87.66036 
L 90.902709 91.199852 
L 90.957753 90.759283 
L 91.177929 89.045773 
L 91.232973 90.70086 
L 91.288017 90.217977 
L 91.398104 89.397946 
L 91.563236 92.442835 
L 91.783412 91.062103 
L 91.838456 91.804849 
L 91.8935 91.429373 
L 92.16872 89.619657 
L 92.388896 96.134303 
L 92.44394 95.792964 
L 92.939335 92.536662 
L 92.994379 92.977023 
L 93.049423 92.585111 
L 93.214555 91.537372 
L 93.269599 92.597242 
L 93.324643 92.182021 
L 93.544819 90.967078 
L 93.599863 92.305021 
L 93.654907 91.932124 
L 93.930127 90.366975 
L 93.985171 91.354999 
L 94.040215 91.099971 
L 94.26039 89.840711 
L 94.315434 91.054508 
L 94.370478 90.70988 
L 95.031006 87.645722 
L 95.08605 88.827551 
L 95.141094 88.641177 
L 95.196138 88.418423 
L 95.251182 90.277911 
L 95.306226 90.003203 
L 95.36127 89.714363 
L 95.526401 92.345035 
L 95.581445 92.049421 
L 95.636489 92.888193 
L 95.691533 92.662101 
L 95.746577 92.364861 
L 95.801621 93.927371 
L 95.856665 93.704656 
L 96.297017 91.860321 
L 96.352061 91.730195 
L 96.407105 92.08196 
L 96.462149 91.883448 
L 96.572237 91.32791 
L 96.627281 93.284598 
L 96.682325 92.996471 
L 96.847457 92.282797 
L 96.9025 93.661073 
L 96.957544 93.417364 
L 97.012588 93.159936 
L 97.067632 94.358484 
L 97.122676 94.126832 
L 97.563028 92.255827 
L 97.72816 94.254639 
L 98.278599 92.186877 
L 98.718951 90.334053 
L 98.773995 91.046821 
L 98.829039 90.862991 
L 99.214347 89.584417 
L 99.324435 89.277978 
L 99.379479 89.959907 
L 99.434523 89.694959 
L 99.599655 89.08984 
L 99.654698 90.677572 
L 99.709742 90.526683 
L 99.874874 90.005082 
L 99.984962 91.850448 
L 100.040006 91.683521 
L 100.150094 91.262811 
L 100.205138 91.802013 
L 100.260182 91.606764 
L 100.425314 90.995898 
L 100.480358 92.216423 
L 100.535402 91.971468 
L 100.755578 91.40416 
L 100.92071 90.807312 
L 100.975754 91.350296 
L 101.030797 91.174166 
L 101.416105 90.05334 
L 101.471149 91.1809 
L 101.526193 91.046929 
L 101.691325 90.578929 
L 101.746369 91.449806 
L 101.801413 91.266245 
L 102.186721 90.044238 
L 102.241765 91.117002 
L 102.296809 91.02142 
L 103.177512 88.553203 
L 103.56282 87.572311 
L 103.672908 87.258182 
L 103.727952 88.421929 
L 103.782996 88.29202 
L 104.388479 86.759384 
L 104.993963 85.397579 
L 105.65449 83.971466 
L 105.819622 85.062789 
L 105.984754 84.644142 
L 106.039798 84.993563 
L 106.094842 84.832164 
L 106.590237 83.777691 
L 106.645281 84.135207 
L 106.700325 84.042509 
L 107.360853 82.593879 
L 107.415897 83.370605 
L 107.470941 83.27886 
L 107.911293 82.504317 
L 107.966336 82.89135 
L 108.02138 82.75991 
L 108.2966 82.21549 
L 108.351644 83.156439 
L 108.406688 83.024655 
L 109.012172 81.944481 
L 109.067216 82.28938 
L 109.12226 82.168676 
L 109.452523 81.629962 
L 109.507567 81.983007 
L 109.562611 81.887951 
L 110.993754 79.282835 
L 111.048798 79.737574 
L 111.103842 79.689215 
L 111.599238 79.041253 
L 111.984546 78.471359 
L 112.03959 79.042625 
L 112.094633 78.945292 
L 112.369853 78.519502 
L 112.424897 79.291785 
L 112.479941 79.195238 
L 113.635864 77.567853 
L 113.690908 78.16654 
L 113.745952 78.071268 
L 114.40648 77.289689 
L 114.571612 77.863301 
L 114.626656 77.787567 
L 114.791788 77.559556 
L 114.846831 77.660019 
L 114.901875 77.584103 
L 115.177095 77.190654 
L 115.342227 79.002442 
L 115.452315 78.98725 
L 115.617447 78.75894 
L 115.672491 79.353804 
L 115.727535 79.267047 
L 116.333018 78.64819 
L 116.388062 79.106097 
L 116.443106 79.014592 
L 116.77337 78.533465 
L 116.828414 78.938966 
L 116.883458 78.868047 
L 117.103634 78.585542 
L 117.158678 78.895301 
L 117.213722 78.837992 
L 118.314601 77.512696 
L 118.369645 78.170261 
L 118.424689 78.085902 
L 119.96592 76.252165 
L 120.020964 76.542742 
L 120.076008 76.487792 
L 120.186096 76.357125 
L 120.24114 76.631612 
L 120.296184 76.565759 
L 120.571403 76.30048 
L 120.626447 76.637167 
L 120.681491 76.573945 
L 121.342019 75.83618 
L 121.397063 76.306332 
L 121.452107 76.25371 
L 121.727327 75.965777 
L 121.78237 76.202294 
L 121.837414 76.135931 
L 122.60803 75.352688 
L 122.663074 75.68869 
L 122.718118 75.614437 
L 123.048382 75.296474 
L 123.103426 75.805867 
L 123.158469 75.742333 
L 123.874041 75.073525 
L 123.929085 75.490467 
L 123.984129 75.423319 
L 124.204305 75.212627 
L 124.259349 75.671343 
L 124.314393 75.636536 
L 125.029964 74.935827 
L 125.52536 74.495223 
L 125.580404 74.861318 
L 125.635448 74.812218 
L 125.965711 74.51771 
L 126.020755 74.863573 
L 126.075799 74.814132 
L 126.130843 74.769826 
L 126.185887 75.257166 
L 126.240931 75.211626 
L 126.571195 74.938107 
L 126.626239 75.133752 
L 126.681283 75.087951 
L 126.901459 74.917356 
L 127.34181 74.503787 
L 127.506942 75.62965 
L 128.002338 75.194239 
L 128.44269 74.858805 
L 128.497734 75.092847 
L 128.552778 75.040158 
L 128.607822 74.977277 
L 128.662865 75.252756 
L 128.717909 75.212013 
L 129.873833 74.268889 
L 130.094008 74.088108 
L 130.314184 75.209792 
L 130.369228 75.182818 
L 130.479316 75.604527 
L 130.53436 75.570368 
L 130.589404 75.531623 
L 130.644448 76.309752 
L 130.699492 76.274307 
L 131.635239 75.671853 
L 131.910459 75.501085 
L 132.075591 75.947542 
L 132.130635 75.904162 
L 132.350811 75.753451 
L 132.405855 76.382553 
L 132.460899 76.32595 
L 132.626031 76.229177 
L 132.681075 76.466815 
L 132.736119 76.445439 
L 133.341602 76.038328 
L 133.396646 76.230566 
L 133.45169 76.188584 
L 133.671866 76.024501 
L 133.892042 77.080209 
L 134.00213 77.028655 
L 134.112218 77.121545 
L 134.442481 76.918685 
L 134.497525 77.237982 
L 134.552569 77.218347 
L 134.662657 77.139241 
L 134.717701 77.298629 
L 134.772745 77.267725 
L 135.378229 76.927855 
L 135.433273 77.191147 
L 135.488317 77.15839 
L 135.54336 77.13237 
L 135.708492 77.707693 
L 136.424064 77.338865 
L 136.534152 77.27987 
L 136.64424 77.959392 
L 136.699284 77.927273 
L 137.469899 77.561058 
L 137.579987 77.914362 
L 137.635031 77.884098 
L 137.965295 77.737094 
L 138.075383 77.83038 
L 138.405646 77.801228 
L 138.515734 77.874671 
L 138.625822 77.836005 
L 138.845998 78.042939 
L 139.341394 77.794468 
L 139.396438 78.010705 
L 139.451482 77.979528 
L 139.781745 77.814271 
L 140.001921 78.370716 
L 140.056965 78.336586 
L 140.277141 78.349372 
L 140.332185 78.609471 
L 140.387229 78.584738 
L 140.662449 78.486815 
L 140.717493 78.694508 
L 140.772537 78.665458 
L 140.827581 78.64152 
L 140.937669 78.772176 
L 141.708284 78.446193 
L 141.873416 78.684584 
L 142.038548 78.620732 
L 142.148636 78.691992 
L 142.20368 78.669782 
L 142.258724 78.834359 
L 142.313768 78.802057 
L 143.524735 78.414945 
L 143.634823 78.576792 
L 144.84579 78.163653 
L 145.616405 77.907255 
L 145.946669 77.804619 
L 146.111801 78.119397 
L 147.047548 77.815838 
L 147.928252 77.560444 
L 148.038339 77.737624 
L 148.258515 77.686335 
L 148.313559 78.056926 
L 148.368603 78.043511 
L 148.478691 78.014697 
L 148.588779 78.18097 
L 149.634614 77.922607 
L 149.689658 78.066796 
L 149.744702 78.045511 
L 150.350186 77.883263 
L 150.460274 78.109169 
L 151.781329 77.78623 
L 152.001505 78.294521 
L 154.148219 77.773364 
L 154.258307 77.938764 
L 156.790329 77.582573 
L 156.900417 77.710817 
L 157.726076 77.608587 
L 157.891208 77.73048 
L 158.496692 77.58313 
L 158.60678 77.72989 
L 159.377395 77.618225 
L 159.487483 77.797916 
L 160.533318 77.598514 
L 160.69845 77.700873 
L 161.414022 77.551592 
L 161.52411 77.867026 
L 161.744286 77.824979 
L 161.909417 77.905274 
L 162.900209 77.827836 
L 163.065341 78.011741 
L 163.61578 78.000019 
L 167.468857 77.746528 
L 167.633989 77.821256 
L 168.074341 77.760355 
L 168.239473 77.918224 
L 168.404605 77.951521 
L 169.72566 77.782404 
L 169.945836 78.016937 
L 170.496275 78.01669 
L 170.771495 78.057108 
L 170.936627 78.146084 
L 171.156803 78.120803 
L 171.321935 78.346739 
L 172.312726 78.291534 
L 172.477858 78.409603 
L 172.918209 78.355377 
L 173.083341 78.468331 
L 174.129177 78.351652 
L 174.294308 78.442595 
L 175.00988 78.395321 
L 175.175012 78.514785 
L 176.661199 78.437063 
L 176.826331 78.468759 
L 176.881375 78.466371 
L 177.046506 78.590602 
L 177.817122 78.514158 
L 177.982254 78.632106 
L 178.973045 78.656822 
L 179.138177 78.739381 
L 179.633573 78.846527 
L 179.853748 78.916914 
L 180.073924 78.926782 
L 180.2941 78.905239 
L 180.459232 79.018246 
L 181.064716 79.073781 
L 181.229847 79.187141 
L 183.21143 79.022539 
L 183.376562 79.101851 
L 183.706826 79.069629 
L 183.871957 79.182991 
L 184.257265 79.138812 
L 184.422397 79.260686 
L 185.082925 79.288251 
L 185.248056 79.401757 
L 185.413188 79.493372 
L 186.569112 79.464026 
L 186.734243 79.558338 
L 189.541485 79.404185 
L 189.706617 79.511843 
L 190.86254 79.422849 
L 191.027672 79.521711 
L 197.137552 79.390375 
L 197.302684 79.461585 
L 198.678783 79.459017 
L 198.843915 79.557585 
L 199.779662 79.590948 
L 199.944794 79.658976 
L 200.770453 79.686734 
L 200.935585 79.770146 
L 202.972212 79.707401 
L 203.137344 79.788845 
L 210.73341 79.686064 
L 210.898542 79.754478 
L 211.944377 79.797274 
L 212.109509 79.998542 
L 218.93496 79.798482 
L 219.100092 79.877437 
L 220.916543 79.890731 
L 222.843081 79.945257 
L 223.063257 79.980228 
L 223.338477 80.018084 
L 223.503609 80.115861 
L 225.760411 80.106024 
L 225.925543 80.204192 
L 227.026422 80.279024 
L 229.613488 80.324565 
L 229.77862 80.406797 
L 231.044631 80.455272 
L 231.264807 80.495764 
L 231.980379 80.509522 
L 232.145511 80.609 
L 233.576653 80.628225 
L 233.741785 80.683081 
L 234.952752 80.682711 
L 235.117884 80.738102 
L 235.8885 80.814132 
L 236.383895 80.954259 
L 238.585654 80.994585 
L 239.851665 81.048379 
L 240.071841 81.088049 
L 241.833247 81.129395 
L 242.053423 81.169022 
L 246.787204 81.192466 
L 247.00738 81.232598 
L 249.09905 81.292195 
L 249.37427 81.316761 
L 251.080633 81.377435 
L 251.355853 81.401972 
L 257.355644 81.348255 
L 257.57582 81.387629 
L 259.722535 81.410069 
L 259.94271 81.449989 
L 261.649073 81.505622 
L 311.849165 81.580643 
L 312.069341 81.623452 
L 315.867374 81.722144 
L 316.032506 81.779207 
L 320.601154 81.889749 
L 320.82133 81.93253 
L 323.298308 82.018082 
L 323.573528 82.046596 
L 324.839539 82.131533 
L 325.004671 82.188548 
L 326.435814 82.274058 
L 326.711034 82.302559 
L 328.032089 82.386251 
L 328.252265 82.428991 
L 331.169595 82.539335 
L 331.389771 82.58206 
L 334.197013 82.637211 
L 334.417188 82.722638 
L 350.159761 82.806841 
L 350.379937 82.849542 
L 362.1043 82.948557 
L 362.324476 82.991246 
L 367.223389 83.090842 
L 367.498608 83.119294 
L 375.039631 83.202812 
L 375.259807 83.24548 
L 386.268599 83.342577 
L 386.543819 83.371014 
L 399.424105 83.469917 
L 399.699325 83.498347 
L 401.185512 83.582398 
L 401.460732 83.625032 
L 402.561611 83.71029 
L 402.891875 83.781329 
L 407.680699 83.891878 
L 408.231139 83.932628 
L 414.78137 84.016589 
L 415.001546 84.059184 
L 416.707909 84.158558 
L 416.928085 84.229529 
L 419.955502 84.328873 
L 420.450898 84.343064 
L 421.937085 84.428199 
L 422.157261 84.470762 
L 428.157052 84.565046 
L 428.432272 84.593412 
L 432.230306 84.692679 
L 432.505525 84.721038 
L 435.257723 84.790669 
L 435.422855 84.847373 
L 441.862999 84.957606 
L 442.138218 84.985948 
L 448.468274 85.093603 
L 448.68845 85.1361 
L 455.403813 85.240519 
L 455.679033 85.339629 
L 459.752286 85.447775 
L 460.247681 85.461928 
L 461.183429 85.517258 
L 461.34856 85.573859 
L 463.054923 85.643321 
L 463.275099 85.685761 
L 467.018088 85.783491 
L 467.293308 85.811776 
L 472.357352 85.908835 
L 472.632572 85.935182 
L 474.559111 86.020004 
L 474.724243 86.076545 
L 476.981045 86.160052 
L 477.201221 86.258966 
L 480.66899 86.353972 
L 480.94421 86.438719 
L 485.733035 86.545839 
L 486.008255 86.574076 
L 486.944002 86.616429 
L 487.109134 86.687011 
L 490.136552 86.797961 
L 490.356727 86.868516 
L 494.319893 86.896736 
L 494.319893 86.896736 
" clip-path="url(#p43e6105724)" style="fill: none; stroke: #d62728; stroke-width: 1.8; stroke-linecap: square"/>
   </g>
   <g id="line2d_31">
    <path d="M 83.526818 244.209185 
L 83.746994 119.356765 
L 83.802038 131.262008 
L 83.912126 105.608135 
L 83.96717 110.841088 
L 84.022214 105.948755 
L 84.077258 116.078676 
L 84.132302 109.357084 
L 84.407522 89.583711 
L 84.682741 79.535729 
L 84.957961 71.113842 
L 85.013005 75.085332 
L 85.068049 73.673334 
L 85.453357 66.180695 
L 85.948752 59.817799 
L 86.774412 53.553097 
L 87.489983 50.300848 
L 88.095467 48.33204 
L 88.755994 46.81939 
L 89.691742 45.236307 
L 90.077049 44.714399 
L 90.792621 43.864164 
L 91.728368 42.957888 
L 93.544819 41.735302 
L 94.370478 41.333903 
L 96.021797 40.631092 
L 97.783204 40.078485 
L 100.535402 39.440876 
L 103.452732 38.952599 
L 107.801205 38.446799 
L 112.094633 38.096992 
L 119.14026 37.707004 
L 128.44269 37.381266 
L 140.442273 37.16759 
L 162.680033 37.165512 
L 162.955253 37.196638 
L 165.762495 37.290005 
L 166.037714 37.321124 
L 168.789912 37.383254 
L 168.955044 37.507689 
L 172.422814 37.600958 
L 172.587946 37.663154 
L 174.624572 37.725343 
L 174.789704 37.803069 
L 177.486858 37.911869 
L 177.707034 37.958491 
L 179.413397 38.03603 
L 179.578529 38.129242 
L 180.954628 38.222439 
L 181.119759 38.315621 
L 183.48665 38.408663 
L 183.651782 38.470571 
L 187.284683 38.53243 
L 187.449815 38.641056 
L 188.385562 38.718634 
L 188.605738 38.765176 
L 191.6882 38.858025 
L 191.853332 38.951074 
L 192.623947 39.028485 
L 192.844123 39.121502 
L 193.394563 39.183506 
L 193.559694 39.307492 
L 195.761453 39.4156 
L 196.036673 39.446538 
L 196.6972 39.523988 
L 196.862332 39.601427 
L 198.954003 39.694194 
L 199.119134 39.787088 
L 200.880541 39.833177 
L 201.045673 39.926039 
L 202.972212 39.987415 
L 203.137344 40.0493 
L 204.513443 40.126646 
L 204.733618 40.173049 
L 206.384937 40.265675 
L 206.605113 40.312065 
L 206.880333 40.342989 
L 207.926168 40.435577 
L 208.146344 40.481951 
L 209.467399 40.559232 
L 209.687575 40.605596 
L 210.678366 40.667409 
L 210.843498 40.775565 
L 211.173762 40.83736 
L 211.338894 40.899147 
L 213.265432 40.976043 
L 213.485608 41.02237 
L 215.136927 41.11481 
L 215.522235 41.207434 
L 216.402938 41.284608 
L 216.56807 41.392636 
L 217.008421 41.469786 
L 217.173553 41.531498 
L 218.604696 41.608629 
L 218.769828 41.670326 
L 221.687158 41.777361 
L 221.907334 41.900693 
L 222.12751 42.023997 
L 226.035631 42.11589 
L 226.200763 42.177517 
L 226.86129 42.285347 
L 227.246598 42.469636 
L 227.576862 42.577402 
L 227.741994 42.654365 
L 228.292433 42.715571 
L 228.457565 42.854057 
L 230.274016 42.961559 
L 230.549236 43.069223 
L 231.264807 43.176867 
L 231.815247 43.222994 
L 232.916126 43.330608 
L 233.136302 43.376429 
L 235.06284 43.452977 
L 235.227972 43.560539 
L 237.374687 43.667266 
L 237.539819 43.759419 
L 237.98017 43.820846 
L 238.145302 43.89762 
L 238.80583 43.989204 
L 238.970962 44.050602 
L 239.741577 44.142686 
L 239.906709 44.219412 
L 241.17272 44.311469 
L 241.337852 44.372832 
L 246.126676 44.478848 
L 246.401896 44.509516 
L 247.557819 44.570392 
L 247.722951 44.647043 
L 252.511776 44.752823 
L 252.731952 44.798792 
L 255.263974 44.860078 
L 255.429106 44.951996 
L 255.704325 45.028582 
L 255.869457 45.151098 
L 258.12626 45.257416 
L 258.456523 45.410481 
L 258.786787 45.5023 
L 259.172095 45.593849 
L 260.658282 45.669567 
L 260.823414 45.746041 
L 261.538985 45.79153 
L 261.704117 45.913852 
L 262.694908 45.975003 
L 262.86004 46.051432 
L 264.346227 46.143134 
L 264.621447 46.173698 
L 266.05259 46.265243 
L 266.547986 46.417873 
L 272.767953 46.522825 
L 272.933085 46.583897 
L 274.474316 46.674782 
L 276.290767 46.780471 
L 276.455898 46.841504 
L 278.327393 46.916625 
L 278.492525 46.992889 
L 280.474107 47.098313 
L 280.639239 47.159299 
L 282.345602 47.249567 
L 282.510734 47.325769 
L 284.712492 47.401506 
L 284.932668 47.447214 
L 287.794954 47.551548 
L 288.345394 47.734273 
L 289.886625 47.810392 
L 290.051757 47.871279 
L 291.868207 47.977338 
L 292.308559 47.992555 
L 293.84979 48.052619 
L 294.014922 48.128686 
L 296.987296 48.188398 
L 297.207471 48.386085 
L 299.299142 48.491009 
L 299.519318 48.536605 
L 302.05134 48.641974 
L 302.216472 48.748323 
L 303.537527 48.824274 
L 303.812747 48.915402 
L 305.794329 49.019622 
L 305.959461 49.080345 
L 306.619989 49.140887 
L 306.78512 49.231948 
L 307.941044 49.322994 
L 308.106175 49.383683 
L 309.096967 49.489874 
L 309.262099 49.550545 
L 309.482274 49.626375 
L 309.70245 49.762844 
L 310.197846 49.853621 
L 310.418022 49.899095 
L 311.518901 50.005187 
L 311.849165 50.156713 
L 314.271099 50.230949 
L 314.436231 50.306678 
L 314.98667 50.382398 
L 315.151802 50.442966 
L 315.81233 50.503528 
L 315.977462 50.609496 
L 318.399396 50.685175 
L 318.619572 50.791108 
L 320.050715 50.89623 
L 320.491066 50.911358 
L 322.802913 51.016446 
L 322.968045 51.197504 
L 324.399188 51.24286 
L 324.56432 51.333559 
L 325.114759 51.423834 
L 325.279891 51.484281 
L 326.766078 51.574939 
L 326.986254 51.619641 
L 328.087133 51.694128 
L 328.252265 51.799843 
L 329.243056 51.859401 
L 329.463232 52.010365 
L 330.619155 52.100924 
L 331.004463 52.191469 
L 331.279683 52.251824 
L 331.444815 52.357429 
L 331.94021 52.416895 
L 332.105342 52.477223 
L 334.527276 52.537544 
L 334.692408 52.658167 
L 337.004255 52.747284 
L 337.169386 52.807571 
L 339.150969 52.911712 
L 339.426189 52.941845 
L 340.196804 53.047299 
L 340.912376 53.13699 
L 343.05909 53.242403 
L 344.435189 53.511981 
L 346.196596 53.602268 
L 346.416772 53.677497 
L 349.224014 53.751303 
L 349.44419 53.796426 
L 350.600113 53.885713 
L 350.875332 53.915786 
L 352.361519 54.020792 
L 352.526651 54.110984 
L 354.508234 54.214501 
L 354.673366 54.304654 
L 355.278849 54.409815 
L 355.554069 54.439857 
L 356.434772 54.543763 
L 356.709992 54.573058 
L 357.810871 54.631883 
L 357.976003 54.691932 
L 359.73741 54.794014 
L 359.957586 54.839031 
L 362.489608 54.911546 
L 362.65474 55.001545 
L 364.911542 55.076533 
L 365.076674 55.136517 
L 365.627114 55.211487 
L 365.792246 55.301438 
L 366.893125 55.361397 
L 367.058257 55.451324 
L 368.379312 55.55622 
L 368.544444 55.661098 
L 370.140719 55.764124 
L 370.58107 55.883926 
L 371.13151 55.943818 
L 371.296642 56.033643 
L 374.103884 56.122389 
L 374.269016 56.182252 
L 375.700158 56.257072 
L 375.920334 56.376763 
L 377.131301 56.479846 
L 377.296433 56.539666 
L 377.571653 56.569574 
L 377.736785 56.689188 
L 378.892708 56.762836 
L 379.112884 56.807677 
L 383.186137 56.881851 
L 383.351269 56.941623 
L 386.598863 57.044819 
L 386.763994 57.10457 
L 387.589654 57.194184 
L 387.80983 57.327452 
L 388.855665 57.372241 
L 389.020797 57.49166 
L 389.185929 57.581208 
L 390.947335 57.68423 
L 391.222555 57.714069 
L 396.2866 57.815033 
L 396.451731 57.903931 
L 401.075424 58.001906 
L 401.2956 58.046616 
L 401.735952 58.136026 
L 401.901084 58.210523 
L 402.451523 58.299907 
L 402.616655 58.359488 
L 403.001963 58.433956 
L 403.167095 58.493523 
L 403.882666 58.567973 
L 404.102842 58.612638 
L 405.699117 58.716843 
L 405.919293 58.761496 
L 407.570611 58.865372 
L 407.735743 58.924892 
L 408.286183 58.984406 
L 408.451315 59.05879 
L 411.258557 59.160466 
L 411.974128 59.249688 
L 412.799788 59.324029 
L 413.075007 59.413224 
L 414.230931 59.502406 
L 414.451106 59.591573 
L 417.368436 59.679165 
L 417.533568 59.753443 
L 418.084008 59.783152 
L 418.24914 59.901971 
L 420.505942 59.941156 
L 420.671074 60.015383 
L 421.937085 60.101583 
L 422.157261 60.146102 
L 423.918668 60.233853 
L 424.083799 60.293193 
L 425.294767 60.39606 
L 425.459898 60.470211 
L 426.72591 60.513082 
L 426.891041 60.571416 
L 428.322184 60.645535 
L 428.54236 60.690002 
L 430.578987 60.77762 
L 430.90925 60.836891 
L 432.835789 60.892223 
L 433.000921 60.981095 
L 433.276141 61.040335 
L 433.441273 61.114376 
L 433.991712 61.218017 
L 434.156844 61.292035 
L 434.982504 61.336441 
L 435.202679 61.484435 
L 436.74391 61.586324 
L 436.909042 61.660288 
L 437.734702 61.763822 
L 437.899833 61.822975 
L 439.991504 61.926478 
L 440.21168 62.103867 
L 440.4869 62.177763 
L 440.652031 62.251649 
L 441.312559 62.338913 
L 441.642823 62.398002 
L 443.018922 62.471855 
L 443.239098 62.514768 
L 443.734493 62.573835 
L 443.899625 62.662425 
L 444.395021 62.765761 
L 444.615197 62.839561 
L 444.94546 62.928109 
L 445.275724 63.089341 
L 445.440856 63.087561 
L 445.605988 63.205556 
L 446.211471 63.264544 
L 446.376603 63.323526 
L 447.972878 63.382142 
L 448.13801 63.455852 
L 448.468274 63.544291 
L 448.633406 63.617979 
L 450.890208 63.676923 
L 451.05534 63.735861 
L 452.431439 63.837158 
L 453.477274 64.01389 
L 455.568945 64.114742 
L 456.669824 64.304602 
L 457.165219 64.392889 
L 457.385395 64.46645 
L 457.715659 64.540002 
L 457.880791 64.598837 
L 458.596362 64.670114 
L 458.761494 64.758336 
L 459.477066 64.817143 
L 459.642198 64.949435 
L 460.412813 65.007461 
L 460.577945 65.080934 
L 461.128385 65.183779 
L 461.513692 65.286606 
L 462.999879 65.374728 
L 463.275099 65.404098 
L 464.210846 65.505724 
L 464.375978 65.563285 
L 465.36677 65.724738 
L 466.577737 65.765641 
L 466.742869 65.868341 
L 467.018088 65.927018 
L 467.18322 65.985689 
L 468.834539 66.070138 
L 468.999671 66.128786 
L 471.861957 66.223883 
L 472.247265 66.31022 
L 472.797704 66.411978 
L 472.962836 66.485219 
L 473.513276 66.529158 
L 473.678408 66.63167 
L 475.219638 66.734164 
L 475.604946 66.822 
L 476.100342 66.909823 
L 476.320518 66.968363 
L 477.036089 67.070795 
L 477.256265 67.114688 
L 481.990045 67.224365 
L 482.155177 67.297481 
L 484.467024 67.384796 
L 484.742243 67.414035 
L 486.393562 67.501742 
L 486.613738 67.633276 
L 489.476024 67.734729 
L 489.6962 67.775233 
L 490.466815 67.862871 
L 490.797079 67.994302 
L 492.118134 68.02183 
L 492.283266 68.109425 
L 493.769453 68.209496 
L 493.989629 68.253277 
L 496.796871 68.352883 
L 497.127135 68.484172 
L 499.328893 68.509945 
L 499.494025 68.641182 
L 502.576487 68.728657 
L 502.741618 68.786965 
L 505.108509 68.874417 
L 505.438772 68.947283 
L 507.090091 68.973842 
L 507.255223 69.061258 
L 509.29185 69.160194 
L 509.56707 69.189321 
L 511.053256 69.228238 
L 511.218388 69.301033 
L 513.970586 69.40206 
L 514.410938 69.416615 
L 514.741202 69.416615 
L 514.906334 69.532166 
L 516.007213 69.630505 
L 516.172345 69.688691 
L 518.649323 69.774196 
L 518.924543 69.801958 
L 520.575862 69.799313 
L 520.740993 69.915623 
L 521.621697 69.971996 
L 521.786829 70.030133 
L 524.704159 70.099239 
L 524.86929 70.186412 
L 525.860082 70.242288 
L 526.025214 70.300387 
L 527.016005 70.358479 
L 527.181137 70.460126 
L 528.667324 70.561754 
L 528.832456 70.634334 
L 530.97917 70.705096 
L 531.144302 70.763142 
L 531.914917 70.834785 
L 532.190137 71.008861 
L 534.446939 71.052372 
L 534.612071 71.124882 
L 535.437731 71.182883 
L 535.602863 71.269874 
L 539.070632 71.304169 
L 539.290808 71.478051 
L 539.621072 71.564972 
L 539.841248 71.608427 
L 542.263182 71.679917 
L 542.263182 71.679917 
" clip-path="url(#p43e6105724)" style="fill: none; stroke: #9467bd; stroke-width: 1.8; stroke-linecap: square"/>
   </g>
   <g id="patch_3">
    <path d="M 60.59 260.44 
L 60.59 25.44 
" style="fill: none; stroke: #000000; stroke-width: 0.8; stroke-linejoin: miter; stroke-linecap: square"/>
   </g>
   <g id="patch_4">
    <path d="M 565.2 260.44 
L 565.2 25.44 
" style="fill: none; stroke: #000000; stroke-width: 0.8; stroke-linejoin: miter; stroke-linecap: square"/>
   </g>
   <g id="patch_5">
    <path d="M 60.59 260.44 
L 565.2 260.44 
" style="fill: none; stroke: #000000; stroke-width: 0.8; stroke-linejoin: miter; stroke-linecap: square"/>
   </g>
   <g id="patch_6">
    <path d="M 60.59 25.44 
L 565.2 25.44 
" style="fill: none; stroke: #000000; stroke-width: 0.8; stroke-linejoin: miter; stroke-linecap: square"/>
   </g>
   <g id="text_16">
    <!-- Timely Transfer Rate (Cumulative) -->
    <g transform="translate(210.472187 19.44) scale(0.12 -0.12)">
     <defs>
      <path id="DejaVuSans-54" d="M -19 4666 
L 3928 4666 
L 3928 4134 
L 2272 4134 
L 2272 0 
L 1638 0 
L 1638 4134 
L -19 4134 
L -19 4666 
z
" transform="scale(0.015625)"/>
      <path id="DejaVuSans-52" d="M 2841 2188 
Q 3044 2119 3236 1894 
Q 3428 1669 3622 1275 
L 4263 0 
L 3584 0 
L 2988 1197 
Q 2756 1666 2539 1819 
Q 2322 1972 1947 1972 
L 1259 1972 
L 1259 0 
L 628 0 
L 628 4666 
L 2053 4666 
Q 2853 4666 3247 4331 
Q 3641 3997 3641 3322 
Q 3641 2881 3436 2590 
Q 3231 2300 2841 2188 
z
M 1259 4147 
L 1259 2491 
L 2053 2491 
Q 2509 2491 2742 2702 
Q 2975 2913 2975 3322 
Q 2975 3731 2742 3939 
Q 2509 4147 2053 4147 
L 1259 4147 
z
" transform="scale(0.015625)"/>
      <path id="DejaVuSans-28" d="M 1984 4856 
Q 1566 4138 1362 3434 
Q 1159 2731 1159 2009 
Q 1159 1288 1364 580 
Q 1569 -128 1984 -844 
L 1484 -844 
Q 1016 -109 783 600 
Q 550 1309 550 2009 
Q 550 2706 781 3412 
Q 1013 4119 1484 4856 
L 1984 4856 
z
" transform="scale(0.015625)"/>
      <path id="DejaVuSans-43" d="M 4122 4306 
L 4122 3641 
Q 3803 3938 3442 4084 
Q 3081 4231 2675 4231 
Q 1875 4231 1450 3742 
Q 1025 3253 1025 2328 
Q 1025 1406 1450 917 
Q 1875 428 2675 428 
Q 3081 428 3442 575 
Q 3803 722 4122 1019 
L 4122 359 
Q 3791 134 3420 21 
Q 3050 -91 2638 -91 
Q 1578 -91 968 557 
Q 359 1206 359 2328 
Q 359 3453 968 4101 
Q 1578 4750 2638 4750 
Q 3056 4750 3426 4639 
Q 3797 4528 4122 4306 
z
" transform="scale(0.015625)"/>
      <path id="DejaVuSans-29" d="M 513 4856 
L 1013 4856 
Q 1481 4119 1714 3412 
Q 1947 2706 1947 2009 
Q 1947 1309 1714 600 
Q 1481 -109 1013 -844 
L 513 -844 
Q 928 -128 1133 580 
Q 1338 1288 1338 2009 
Q 1338 2731 1133 3434 
Q 928 4138 513 4856 
z
" transform="scale(0.015625)"/>
     </defs>
     <use xlink:href="#DejaVuSans-54"/>
     <use xlink:href="#DejaVuSans-69" x="57.958984"/>
     <use xlink:href="#DejaVuSans-6d" x="85.742188"/>
     <use xlink:href="#DejaVuSans-65" x="183.154297"/>
     <use xlink:href="#DejaVuSans-6c" x="244.677734"/>
     <use xlink:href="#DejaVuSans-79" x="272.460938"/>
     <use xlink:href="#DejaVuSans-20" x="331.640625"/>
     <use xlink:href="#DejaVuSans-54" x="363.427734"/>
     <use xlink:href="#DejaVuSans-72" x="409.761719"/>
     <use xlink:href="#DejaVuSans-61" x="450.875"/>
     <use xlink:href="#DejaVuSans-6e" x="512.154297"/>
     <use xlink:href="#DejaVuSans-73" x="575.533203"/>
     <use xlink:href="#DejaVuSans-66" x="627.632812"/>
     <use xlink:href="#DejaVuSans-65" x="662.837891"/>
     <use xlink:href="#DejaVuSans-72" x="724.361328"/>
     <use xlink:href="#DejaVuSans-20" x="765.474609"/>
     <use xlink:href="#DejaVuSans-52" x="797.261719"/>
     <use xlink:href="#DejaVuSans-61" x="864.494141"/>
     <use xlink:href="#DejaVuSans-74" x="925.773438"/>
     <use xlink:href="#DejaVuSans-65" x="964.982422"/>
     <use xlink:href="#DejaVuSans-20" x="1026.505859"/>
     <use xlink:href="#DejaVuSans-28" x="1058.292969"/>
     <use xlink:href="#DejaVuSans-43" x="1097.306641"/>
     <use xlink:href="#DejaVuSans-75" x="1167.130859"/>
     <use xlink:href="#DejaVuSans-6d" x="1230.509766"/>
     <use xlink:href="#DejaVuSans-75" x="1327.921875"/>
     <use xlink:href="#DejaVuSans-6c" x="1391.300781"/>
     <use xlink:href="#DejaVuSans-61" x="1419.083984"/>
     <use xlink:href="#DejaVuSans-74" x="1480.363281"/>
     <use xlink:href="#DejaVuSans-69" x="1519.572266"/>
     <use xlink:href="#DejaVuSans-76" x="1547.355469"/>
     <use xlink:href="#DejaVuSans-65" x="1606.535156"/>
     <use xlink:href="#DejaVuSans-29" x="1668.058594"/>
    </g>
   </g>
   <g id="legend_1">
    <g id="patch_7">
     <path d="M 480.614062 255.44 
L 558.2 255.44 
Q 560.2 255.44 560.2 253.44 
L 560.2 180.493125 
Q 560.2 178.493125 558.2 178.493125 
L 480.614062 178.493125 
Q 478.614062 178.493125 478.614062 180.493125 
L 478.614062 253.44 
Q 478.614062 255.44 480.614062 255.44 
z
" style="fill: #ffffff; opacity: 0.8; stroke: #cccccc; stroke-linejoin: miter"/>
    </g>
    <g id="line2d_32">
     <path d="M 482.614062 186.591563 
L 492.614062 186.591563 
L 502.614062 186.591563 
" style="fill: none; stroke: #1f77b4; stroke-width: 1.8; stroke-linecap: square"/>
    </g>
    <g id="text_17">
     <!-- sheer -->
     <g transform="translate(510.614062 190.091563) scale(0.1 -0.1)">
      <defs>
       <path id="DejaVuSans-68" d="M 3513 2113 
L 3513 0 
L 2938 0 
L 2938 2094 
Q 2938 2591 2744 2837 
Q 2550 3084 2163 3084 
Q 1697 3084 1428 2787 
Q 1159 2491 1159 1978 
L 1159 0 
L 581 0 
L 581 4863 
L 1159 4863 
L 1159 2956 
Q 1366 3272 1645 3428 
Q 1925 3584 2291 3584 
Q 2894 3584 3203 3211 
Q 3513 2838 3513 2113 
z
" transform="scale(0.015625)"/>
      </defs>
      <use xlink:href="#DejaVuSans-73"/>
      <use xlink:href="#DejaVuSans-68" x="52.099609"/>
      <use xlink:href="#DejaVuSans-65" x="115.478516"/>
      <use xlink:href="#DejaVuSans-65" x="177.001953"/>
      <use xlink:href="#DejaVuSans-72" x="238.525391"/>
     </g>
    </g>
    <g id="line2d_33">
     <path d="M 482.614062 201.269688 
L 492.614062 201.269688 
L 502.614062 201.269688 
" style="fill: none; stroke: #ff7f0e; stroke-width: 1.8; stroke-linecap: square"/>
    </g>
    <g id="text_18">
     <!-- actar -->
     <g transform="translate(510.614062 204.769688) scale(0.1 -0.1)">
      <use xlink:href="#DejaVuSans-61"/>
      <use xlink:href="#DejaVuSans-63" x="61.279297"/>
      <use xlink:href="#DejaVuSans-74" x="116.259766"/>
      <use xlink:href="#DejaVuSans-61" x="155.46875"/>
      <use xlink:href="#DejaVuSans-72" x="216.748047"/>
     </g>
    </g>
    <g id="line2d_34">
     <path d="M 482.614062 215.947813 
L 492.614062 215.947813 
L 502.614062 215.947813 
" style="fill: none; stroke: #2ca02c; stroke-width: 1.8; stroke-linecap: square"/>
    </g>
    <g id="text_19">
     <!-- tfsm_dpc -->
     <g transform="translate(510.614062 219.447813) scale(0.1 -0.1)">
      <defs>
       <path id="DejaVuSans-5f" d="M 3263 -1063 
L 3263 -1509 
L -63 -1509 
L -63 -1063 
L 3263 -1063 
z
" transform="scale(0.015625)"/>
       <path id="DejaVuSans-70" d="M 1159 525 
L 1159 -1331 
L 581 -1331 
L 581 3500 
L 1159 3500 
L 1159 2969 
Q 1341 3281 1617 3432 
Q 1894 3584 2278 3584 
Q 2916 3584 3314 3078 
Q 3713 2572 3713 1747 
Q 3713 922 3314 415 
Q 2916 -91 2278 -91 
Q 1894 -91 1617 61 
Q 1341 213 1159 525 
z
M 3116 1747 
Q 3116 2381 2855 2742 
Q 2594 3103 2138 3103 
Q 1681 3103 1420 2742 
Q 1159 2381 1159 1747 
Q 1159 1113 1420 752 
Q 1681 391 2138 391 
Q 2594 391 2855 752 
Q 3116 1113 3116 1747 
z
" transform="scale(0.015625)"/>
      </defs>
      <use xlink:href="#DejaVuSans-74"/>
      <use xlink:href="#DejaVuSans-66" x="39.208984"/>
      <use xlink:href="#DejaVuSans-73" x="74.414062"/>
      <use xlink:href="#DejaVuSans-6d" x="126.513672"/>
      <use xlink:href="#DejaVuSans-5f" x="223.925781"/>
      <use xlink:href="#DejaVuSans-64" x="273.925781"/>
      <use xlink:href="#DejaVuSans-70" x="337.402344"/>
      <use xlink:href="#DejaVuSans-63" x="400.878906"/>
     </g>
    </g>
    <g id="line2d_35">
     <path d="M 482.614062 230.904063 
L 492.614062 230.904063 
L 502.614062 230.904063 
" style="fill: none; stroke: #d62728; stroke-width: 1.8; stroke-linecap: square"/>
    </g>
    <g id="text_20">
     <!-- dst_woa -->
     <g transform="translate(510.614062 234.404063) scale(0.1 -0.1)">
      <defs>
       <path id="DejaVuSans-77" d="M 269 3500 
L 844 3500 
L 1563 769 
L 2278 3500 
L 2956 3500 
L 3675 769 
L 4391 3500 
L 4966 3500 
L 4050 0 
L 3372 0 
L 2619 2869 
L 1863 0 
L 1184 0 
L 269 3500 
z
" transform="scale(0.015625)"/>
      </defs>
      <use xlink:href="#DejaVuSans-64"/>
      <use xlink:href="#DejaVuSans-73" x="63.476562"/>
      <use xlink:href="#DejaVuSans-74" x="115.576172"/>
      <use xlink:href="#DejaVuSans-5f" x="154.785156"/>
      <use xlink:href="#DejaVuSans-77" x="204.785156"/>
      <use xlink:href="#DejaVuSans-6f" x="286.572266"/>
      <use xlink:href="#DejaVuSans-61" x="347.753906"/>
     </g>
    </g>
    <g id="line2d_36">
     <path d="M 482.614062 245.860313 
L 492.614062 245.860313 
L 502.614062 245.860313 
" style="fill: none; stroke: #9467bd; stroke-width: 1.8; stroke-linecap: square"/>
    </g>
    <g id="text_21">
     <!-- trail -->
     <g transform="translate(510.614062 249.360313) scale(0.1 -0.1)">
      <use xlink:href="#DejaVuSans-74"/>
      <use xlink:href="#DejaVuSans-72" x="39.208984"/>
      <use xlink:href="#DejaVuSans-61" x="80.322266"/>
      <use xlink:href="#DejaVuSans-69" x="141.601562"/>
      <use xlink:href="#DejaVuSans-6c" x="169.384766"/>
     </g>
    </g>
   </g>
  </g>
 </g>
 <defs>
  <clipPath id="p43e6105724">
   <rect x="60.59" y="25.44" width="504.61" height="235"/>
  </clipPath>
 </defs>
</svg>
