<?xml version="1.0" encoding="utf-8" standalone="no"?>
<!DOCTYPE svg PUBLIC "-//W3C//DTD SVG 1.1//EN"
  "http://www.w3.org/Graphics/SVG/1.1/DTD/svg11.dtd">
<svg xmlns:xlink="http://www.w3.org/1999/xlink" width="576pt" height="302.4pt" viewBox="0 0 576 302.4" xmlns="http://www.w3.org/2000/svg" version="1.1">
 <metadata>
  <rdf:RDF xmlns:dc="http://purl.org/dc/elements/1.1/" xmlns:cc="http://creativecommons.org/ns#" xmlns:rdf="http://www.w3.org/1999/02/22-rdf-syntax-ns#">
   <cc:Work>
    <dc:type rdf:resource="http://purl.org/dc/dcmitype/StillImage"/>
    <dc:date>2025-09-02T21:32:57.787297</dc:date>
    <dc:format>image/svg+xml</dc:format>
    <dc:creator>
     <cc:Agent>
      <dc:title>Matplotlib v3.9.4, https://matplotlib.org/</dc:title>
     </cc:Agent>
    </dc:creator>
   </cc:Work>
  </rdf:RDF>
 </metadata>
 <defs>
  <style type="text/css">*{stroke-linejoin: round; stroke-linecap: butt}</style>
 </defs>
 <g id="figure_1">
  <g id="patch_1">
   <path d="M 0 302.4 
L 576 302.4 
L 576 0 
L 0 0 
z
" style="fill: #ffffff"/>
  </g>
  <g id="axes_1">
   <g id="patch_2">
    <path d="M 60.59 260.44 
L 565.2 260.44 
L 565.2 25.44 
L 60.59 25.44 
z
" style="fill: #ffffff"/>
   </g>
   <g id="matplotlib.axis_1">
    <g id="xtick_1">
     <g id="line2d_1">
      <path d="M 83.473396 260.44 
L 83.473396 25.44 
" clip-path="url(#pce14758521)" style="fill: none; stroke-dasharray: 2.96,1.28; stroke-dashoffset: 0; stroke: #b0b0b0; stroke-opacity: 0.3; stroke-width: 0.8"/>
     </g>
     <g id="line2d_2">
      <defs>
       <path id="ma4b2731d9f" d="M 0 0 
L 0 3.5 
" style="stroke: #000000; stroke-width: 0.8"/>
      </defs>
      <g>
       <use xlink:href="#ma4b2731d9f" x="83.473396" y="260.44" style="stroke: #000000; stroke-width: 0.8"/>
      </g>
     </g>
     <g id="text_1">
      <!-- 0 -->
      <g transform="translate(80.292146 275.038438) scale(0.1 -0.1)">
       <defs>
        <path id="DejaVuSans-30" d="M 2034 4250 
Q 1547 4250 1301 3770 
Q 1056 3291 1056 2328 
Q 1056 1369 1301 889 
Q 1547 409 2034 409 
Q 2525 409 2770 889 
Q 3016 1369 3016 2328 
Q 3016 3291 2770 3770 
Q 2525 4250 2034 4250 
z
M 2034 4750 
Q 2819 4750 3233 4129 
Q 3647 3509 3647 2328 
Q 3647 1150 3233 529 
Q 2819 -91 2034 -91 
Q 1250 -91 836 529 
Q 422 1150 422 2328 
Q 422 3509 836 4129 
Q 1250 4750 2034 4750 
z
" transform="scale(0.015625)"/>
       </defs>
       <use xlink:href="#DejaVuSans-30"/>
      </g>
     </g>
    </g>
    <g id="xtick_2">
     <g id="line2d_3">
      <path d="M 190.31778 260.44 
L 190.31778 25.44 
" clip-path="url(#pce14758521)" style="fill: none; stroke-dasharray: 2.96,1.28; stroke-dashoffset: 0; stroke: #b0b0b0; stroke-opacity: 0.3; stroke-width: 0.8"/>
     </g>
     <g id="line2d_4">
      <g>
       <use xlink:href="#ma4b2731d9f" x="190.31778" y="260.44" style="stroke: #000000; stroke-width: 0.8"/>
      </g>
     </g>
     <g id="text_2">
      <!-- 2000 -->
      <g transform="translate(177.59278 275.038438) scale(0.1 -0.1)">
       <defs>
        <path id="DejaVuSans-32" d="M 1228 531 
L 3431 531 
L 3431 0 
L 469 0 
L 469 531 
Q 828 903 1448 1529 
Q 2069 2156 2228 2338 
Q 2531 2678 2651 2914 
Q 2772 3150 2772 3378 
Q 2772 3750 2511 3984 
Q 2250 4219 1831 4219 
Q 1534 4219 1204 4116 
Q 875 4013 500 3803 
L 500 4441 
Q 881 4594 1212 4672 
Q 1544 4750 1819 4750 
Q 2544 4750 2975 4387 
Q 3406 4025 3406 3419 
Q 3406 3131 3298 2873 
Q 3191 2616 2906 2266 
Q 2828 2175 2409 1742 
Q 1991 1309 1228 531 
z
" transform="scale(0.015625)"/>
       </defs>
       <use xlink:href="#DejaVuSans-32"/>
       <use xlink:href="#DejaVuSans-30" x="63.623047"/>
       <use xlink:href="#DejaVuSans-30" x="127.246094"/>
       <use xlink:href="#DejaVuSans-30" x="190.869141"/>
      </g>
     </g>
    </g>
    <g id="xtick_3">
     <g id="line2d_5">
      <path d="M 297.162164 260.44 
L 297.162164 25.44 
" clip-path="url(#pce14758521)" style="fill: none; stroke-dasharray: 2.96,1.28; stroke-dashoffset: 0; stroke: #b0b0b0; stroke-opacity: 0.3; stroke-width: 0.8"/>
     </g>
     <g id="line2d_6">
      <g>
       <use xlink:href="#ma4b2731d9f" x="297.162164" y="260.44" style="stroke: #000000; stroke-width: 0.8"/>
      </g>
     </g>
     <g id="text_3">
      <!-- 4000 -->
      <g transform="translate(284.437164 275.038438) scale(0.1 -0.1)">
       <defs>
        <path id="DejaVuSans-34" d="M 2419 4116 
L 825 1625 
L 2419 1625 
L 2419 4116 
z
M 2253 4666 
L 3047 4666 
L 3047 1625 
L 3713 1625 
L 3713 1100 
L 3047 1100 
L 3047 0 
L 2419 0 
L 2419 1100 
L 313 1100 
L 313 1709 
L 2253 4666 
z
" transform="scale(0.015625)"/>
       </defs>
       <use xlink:href="#DejaVuSans-34"/>
       <use xlink:href="#DejaVuSans-30" x="63.623047"/>
       <use xlink:href="#DejaVuSans-30" x="127.246094"/>
       <use xlink:href="#DejaVuSans-30" x="190.869141"/>
      </g>
     </g>
    </g>
    <g id="xtick_4">
     <g id="line2d_7">
      <path d="M 404.006549 260.44 
L 404.006549 25.44 
" clip-path="url(#pce14758521)" style="fill: none; stroke-dasharray: 2.96,1.28; stroke-dashoffset: 0; stroke: #b0b0b0; stroke-opacity: 0.3; stroke-width: 0.8"/>
     </g>
     <g id="line2d_8">
      <g>
       <use xlink:href="#ma4b2731d9f" x="404.006549" y="260.44" style="stroke: #000000; stroke-width: 0.8"/>
      </g>
     </g>
     <g id="text_4">
      <!-- 6000 -->
      <g transform="translate(391.281549 275.038438) scale(0.1 -0.1)">
       <defs>
        <path id="DejaVuSans-36" d="M 2113 2584 
Q 1688 2584 1439 2293 
Q 1191 2003 1191 1497 
Q 1191 994 1439 701 
Q 1688 409 2113 409 
Q 2538 409 2786 701 
Q 3034 994 3034 1497 
Q 3034 2003 2786 2293 
Q 2538 2584 2113 2584 
z
M 3366 4563 
L 3366 3988 
Q 3128 4100 2886 4159 
Q 2644 4219 2406 4219 
Q 1781 4219 1451 3797 
Q 1122 3375 1075 2522 
Q 1259 2794 1537 2939 
Q 1816 3084 2150 3084 
Q 2853 3084 3261 2657 
Q 3669 2231 3669 1497 
Q 3669 778 3244 343 
Q 2819 -91 2113 -91 
Q 1303 -91 875 529 
Q 447 1150 447 2328 
Q 447 3434 972 4092 
Q 1497 4750 2381 4750 
Q 2619 4750 2861 4703 
Q 3103 4656 3366 4563 
z
" transform="scale(0.015625)"/>
       </defs>
       <use xlink:href="#DejaVuSans-36"/>
       <use xlink:href="#DejaVuSans-30" x="63.623047"/>
       <use xlink:href="#DejaVuSans-30" x="127.246094"/>
       <use xlink:href="#DejaVuSans-30" x="190.869141"/>
      </g>
     </g>
    </g>
    <g id="xtick_5">
     <g id="line2d_9">
      <path d="M 510.850933 260.44 
L 510.850933 25.44 
" clip-path="url(#pce14758521)" style="fill: none; stroke-dasharray: 2.96,1.28; stroke-dashoffset: 0; stroke: #b0b0b0; stroke-opacity: 0.3; stroke-width: 0.8"/>
     </g>
     <g id="line2d_10">
      <g>
       <use xlink:href="#ma4b2731d9f" x="510.850933" y="260.44" style="stroke: #000000; stroke-width: 0.8"/>
      </g>
     </g>
     <g id="text_5">
      <!-- 8000 -->
      <g transform="translate(498.125933 275.038438) scale(0.1 -0.1)">
       <defs>
        <path id="DejaVuSans-38" d="M 2034 2216 
Q 1584 2216 1326 1975 
Q 1069 1734 1069 1313 
Q 1069 891 1326 650 
Q 1584 409 2034 409 
Q 2484 409 2743 651 
Q 3003 894 3003 1313 
Q 3003 1734 2745 1975 
Q 2488 2216 2034 2216 
z
M 1403 2484 
Q 997 2584 770 2862 
Q 544 3141 544 3541 
Q 544 4100 942 4425 
Q 1341 4750 2034 4750 
Q 2731 4750 3128 4425 
Q 3525 4100 3525 3541 
Q 3525 3141 3298 2862 
Q 3072 2584 2669 2484 
Q 3125 2378 3379 2068 
Q 3634 1759 3634 1313 
Q 3634 634 3220 271 
Q 2806 -91 2034 -91 
Q 1263 -91 848 271 
Q 434 634 434 1313 
Q 434 1759 690 2068 
Q 947 2378 1403 2484 
z
M 1172 3481 
Q 1172 3119 1398 2916 
Q 1625 2713 2034 2713 
Q 2441 2713 2670 2916 
Q 2900 3119 2900 3481 
Q 2900 3844 2670 4047 
Q 2441 4250 2034 4250 
Q 1625 4250 1398 4047 
Q 1172 3844 1172 3481 
z
" transform="scale(0.015625)"/>
       </defs>
       <use xlink:href="#DejaVuSans-38"/>
       <use xlink:href="#DejaVuSans-30" x="63.623047"/>
       <use xlink:href="#DejaVuSans-30" x="127.246094"/>
       <use xlink:href="#DejaVuSans-30" x="190.869141"/>
      </g>
     </g>
    </g>
    <g id="text_6">
     <!-- round -->
     <g transform="translate(298.380937 288.716563) scale(0.1 -0.1)">
      <defs>
       <path id="DejaVuSans-72" d="M 2631 2963 
Q 2534 3019 2420 3045 
Q 2306 3072 2169 3072 
Q 1681 3072 1420 2755 
Q 1159 2438 1159 1844 
L 1159 0 
L 581 0 
L 581 3500 
L 1159 3500 
L 1159 2956 
Q 1341 3275 1631 3429 
Q 1922 3584 2338 3584 
Q 2397 3584 2469 3576 
Q 2541 3569 2628 3553 
L 2631 2963 
z
" transform="scale(0.015625)"/>
       <path id="DejaVuSans-6f" d="M 1959 3097 
Q 1497 3097 1228 2736 
Q 959 2375 959 1747 
Q 959 1119 1226 758 
Q 1494 397 1959 397 
Q 2419 397 2687 759 
Q 2956 1122 2956 1747 
Q 2956 2369 2687 2733 
Q 2419 3097 1959 3097 
z
M 1959 3584 
Q 2709 3584 3137 3096 
Q 3566 2609 3566 1747 
Q 3566 888 3137 398 
Q 2709 -91 1959 -91 
Q 1206 -91 779 398 
Q 353 888 353 1747 
Q 353 2609 779 3096 
Q 1206 3584 1959 3584 
z
" transform="scale(0.015625)"/>
       <path id="DejaVuSans-75" d="M 544 1381 
L 544 3500 
L 1119 3500 
L 1119 1403 
Q 1119 906 1312 657 
Q 1506 409 1894 409 
Q 2359 409 2629 706 
Q 2900 1003 2900 1516 
L 2900 3500 
L 3475 3500 
L 3475 0 
L 2900 0 
L 2900 538 
Q 2691 219 2414 64 
Q 2138 -91 1772 -91 
Q 1169 -91 856 284 
Q 544 659 544 1381 
z
M 1991 3584 
L 1991 3584 
z
" transform="scale(0.015625)"/>
       <path id="DejaVuSans-6e" d="M 3513 2113 
L 3513 0 
L 2938 0 
L 2938 2094 
Q 2938 2591 2744 2837 
Q 2550 3084 2163 3084 
Q 1697 3084 1428 2787 
Q 1159 2491 1159 1978 
L 1159 0 
L 581 0 
L 581 3500 
L 1159 3500 
L 1159 2956 
Q 1366 3272 1645 3428 
Q 1925 3584 2291 3584 
Q 2894 3584 3203 3211 
Q 3513 2838 3513 2113 
z
" transform="scale(0.015625)"/>
       <path id="DejaVuSans-64" d="M 2906 2969 
L 2906 4863 
L 3481 4863 
L 3481 0 
L 2906 0 
L 2906 525 
Q 2725 213 2448 61 
Q 2172 -91 1784 -91 
Q 1150 -91 751 415 
Q 353 922 353 1747 
Q 353 2572 751 3078 
Q 1150 3584 1784 3584 
Q 2172 3584 2448 3432 
Q 2725 3281 2906 2969 
z
M 947 1747 
Q 947 1113 1208 752 
Q 1469 391 1925 391 
Q 2381 391 2643 752 
Q 2906 1113 2906 1747 
Q 2906 2381 2643 2742 
Q 2381 3103 1925 3103 
Q 1469 3103 1208 2742 
Q 947 2381 947 1747 
z
" transform="scale(0.015625)"/>
      </defs>
      <use xlink:href="#DejaVuSans-72"/>
      <use xlink:href="#DejaVuSans-6f" x="38.863281"/>
      <use xlink:href="#DejaVuSans-75" x="100.044922"/>
      <use xlink:href="#DejaVuSans-6e" x="163.423828"/>
      <use xlink:href="#DejaVuSans-64" x="226.802734"/>
     </g>
    </g>
   </g>
   <g id="matplotlib.axis_2">
    <g id="ytick_1">
     <g id="line2d_11">
      <path d="M 60.59 260.44 
L 565.2 260.44 
" clip-path="url(#pce14758521)" style="fill: none; stroke-dasharray: 2.96,1.28; stroke-dashoffset: 0; stroke: #b0b0b0; stroke-opacity: 0.3; stroke-width: 0.8"/>
     </g>
     <g id="line2d_12">
      <defs>
       <path id="ma441463ba5" d="M 0 0 
L -3.5 0 
" style="stroke: #000000; stroke-width: 0.8"/>
      </defs>
      <g>
       <use xlink:href="#ma441463ba5" x="60.59" y="260.44" style="stroke: #000000; stroke-width: 0.8"/>
      </g>
     </g>
     <g id="text_7">
      <!-- 0.825 -->
      <g transform="translate(24.961875 264.239219) scale(0.1 -0.1)">
       <defs>
        <path id="DejaVuSans-2e" d="M 684 794 
L 1344 794 
L 1344 0 
L 684 0 
L 684 794 
z
" transform="scale(0.015625)"/>
        <path id="DejaVuSans-35" d="M 691 4666 
L 3169 4666 
L 3169 4134 
L 1269 4134 
L 1269 2991 
Q 1406 3038 1543 3061 
Q 1681 3084 1819 3084 
Q 2600 3084 3056 2656 
Q 3513 2228 3513 1497 
Q 3513 744 3044 326 
Q 2575 -91 1722 -91 
Q 1428 -91 1123 -41 
Q 819 9 494 109 
L 494 744 
Q 775 591 1075 516 
Q 1375 441 1709 441 
Q 2250 441 2565 725 
Q 2881 1009 2881 1497 
Q 2881 1984 2565 2268 
Q 2250 2553 1709 2553 
Q 1456 2553 1204 2497 
Q 953 2441 691 2322 
L 691 4666 
z
" transform="scale(0.015625)"/>
       </defs>
       <use xlink:href="#DejaVuSans-30"/>
       <use xlink:href="#DejaVuSans-2e" x="63.623047"/>
       <use xlink:href="#DejaVuSans-38" x="95.410156"/>
       <use xlink:href="#DejaVuSans-32" x="159.033203"/>
       <use xlink:href="#DejaVuSans-35" x="222.65625"/>
      </g>
     </g>
    </g>
    <g id="ytick_2">
     <g id="line2d_13">
      <path d="M 60.59 228.394545 
L 565.2 228.394545 
" clip-path="url(#pce14758521)" style="fill: none; stroke-dasharray: 2.96,1.28; stroke-dashoffset: 0; stroke: #b0b0b0; stroke-opacity: 0.3; stroke-width: 0.8"/>
     </g>
     <g id="line2d_14">
      <g>
       <use xlink:href="#ma441463ba5" x="60.59" y="228.394545" style="stroke: #000000; stroke-width: 0.8"/>
      </g>
     </g>
     <g id="text_8">
      <!-- 0.850 -->
      <g transform="translate(24.961875 232.193764) scale(0.1 -0.1)">
       <use xlink:href="#DejaVuSans-30"/>
       <use xlink:href="#DejaVuSans-2e" x="63.623047"/>
       <use xlink:href="#DejaVuSans-38" x="95.410156"/>
       <use xlink:href="#DejaVuSans-35" x="159.033203"/>
       <use xlink:href="#DejaVuSans-30" x="222.65625"/>
      </g>
     </g>
    </g>
    <g id="ytick_3">
     <g id="line2d_15">
      <path d="M 60.59 196.349091 
L 565.2 196.349091 
" clip-path="url(#pce14758521)" style="fill: none; stroke-dasharray: 2.96,1.28; stroke-dashoffset: 0; stroke: #b0b0b0; stroke-opacity: 0.3; stroke-width: 0.8"/>
     </g>
     <g id="line2d_16">
      <g>
       <use xlink:href="#ma441463ba5" x="60.59" y="196.349091" style="stroke: #000000; stroke-width: 0.8"/>
      </g>
     </g>
     <g id="text_9">
      <!-- 0.875 -->
      <g transform="translate(24.961875 200.14831) scale(0.1 -0.1)">
       <defs>
        <path id="DejaVuSans-37" d="M 525 4666 
L 3525 4666 
L 3525 4397 
L 1831 0 
L 1172 0 
L 2766 4134 
L 525 4134 
L 525 4666 
z
" transform="scale(0.015625)"/>
       </defs>
       <use xlink:href="#DejaVuSans-30"/>
       <use xlink:href="#DejaVuSans-2e" x="63.623047"/>
       <use xlink:href="#DejaVuSans-38" x="95.410156"/>
       <use xlink:href="#DejaVuSans-37" x="159.033203"/>
       <use xlink:href="#DejaVuSans-35" x="222.65625"/>
      </g>
     </g>
    </g>
    <g id="ytick_4">
     <g id="line2d_17">
      <path d="M 60.59 164.303636 
L 565.2 164.303636 
" clip-path="url(#pce14758521)" style="fill: none; stroke-dasharray: 2.96,1.28; stroke-dashoffset: 0; stroke: #b0b0b0; stroke-opacity: 0.3; stroke-width: 0.8"/>
     </g>
     <g id="line2d_18">
      <g>
       <use xlink:href="#ma441463ba5" x="60.59" y="164.303636" style="stroke: #000000; stroke-width: 0.8"/>
      </g>
     </g>
     <g id="text_10">
      <!-- 0.900 -->
      <g transform="translate(24.961875 168.102855) scale(0.1 -0.1)">
       <defs>
        <path id="DejaVuSans-39" d="M 703 97 
L 703 672 
Q 941 559 1184 500 
Q 1428 441 1663 441 
Q 2288 441 2617 861 
Q 2947 1281 2994 2138 
Q 2813 1869 2534 1725 
Q 2256 1581 1919 1581 
Q 1219 1581 811 2004 
Q 403 2428 403 3163 
Q 403 3881 828 4315 
Q 1253 4750 1959 4750 
Q 2769 4750 3195 4129 
Q 3622 3509 3622 2328 
Q 3622 1225 3098 567 
Q 2575 -91 1691 -91 
Q 1453 -91 1209 -44 
Q 966 3 703 97 
z
M 1959 2075 
Q 2384 2075 2632 2365 
Q 2881 2656 2881 3163 
Q 2881 3666 2632 3958 
Q 2384 4250 1959 4250 
Q 1534 4250 1286 3958 
Q 1038 3666 1038 3163 
Q 1038 2656 1286 2365 
Q 1534 2075 1959 2075 
z
" transform="scale(0.015625)"/>
       </defs>
       <use xlink:href="#DejaVuSans-30"/>
       <use xlink:href="#DejaVuSans-2e" x="63.623047"/>
       <use xlink:href="#DejaVuSans-39" x="95.410156"/>
       <use xlink:href="#DejaVuSans-30" x="159.033203"/>
       <use xlink:href="#DejaVuSans-30" x="222.65625"/>
      </g>
     </g>
    </g>
    <g id="ytick_5">
     <g id="line2d_19">
      <path d="M 60.59 132.258182 
L 565.2 132.258182 
" clip-path="url(#pce14758521)" style="fill: none; stroke-dasharray: 2.96,1.28; stroke-dashoffset: 0; stroke: #b0b0b0; stroke-opacity: 0.3; stroke-width: 0.8"/>
     </g>
     <g id="line2d_20">
      <g>
       <use xlink:href="#ma441463ba5" x="60.59" y="132.258182" style="stroke: #000000; stroke-width: 0.8"/>
      </g>
     </g>
     <g id="text_11">
      <!-- 0.925 -->
      <g transform="translate(24.961875 136.057401) scale(0.1 -0.1)">
       <use xlink:href="#DejaVuSans-30"/>
       <use xlink:href="#DejaVuSans-2e" x="63.623047"/>
       <use xlink:href="#DejaVuSans-39" x="95.410156"/>
       <use xlink:href="#DejaVuSans-32" x="159.033203"/>
       <use xlink:href="#DejaVuSans-35" x="222.65625"/>
      </g>
     </g>
    </g>
    <g id="ytick_6">
     <g id="line2d_21">
      <path d="M 60.59 100.212727 
L 565.2 100.212727 
" clip-path="url(#pce14758521)" style="fill: none; stroke-dasharray: 2.96,1.28; stroke-dashoffset: 0; stroke: #b0b0b0; stroke-opacity: 0.3; stroke-width: 0.8"/>
     </g>
     <g id="line2d_22">
      <g>
       <use xlink:href="#ma441463ba5" x="60.59" y="100.212727" style="stroke: #000000; stroke-width: 0.8"/>
      </g>
     </g>
     <g id="text_12">
      <!-- 0.950 -->
      <g transform="translate(24.961875 104.011946) scale(0.1 -0.1)">
       <use xlink:href="#DejaVuSans-30"/>
       <use xlink:href="#DejaVuSans-2e" x="63.623047"/>
       <use xlink:href="#DejaVuSans-39" x="95.410156"/>
       <use xlink:href="#DejaVuSans-35" x="159.033203"/>
       <use xlink:href="#DejaVuSans-30" x="222.65625"/>
      </g>
     </g>
    </g>
    <g id="ytick_7">
     <g id="line2d_23">
      <path d="M 60.59 68.167273 
L 565.2 68.167273 
" clip-path="url(#pce14758521)" style="fill: none; stroke-dasharray: 2.96,1.28; stroke-dashoffset: 0; stroke: #b0b0b0; stroke-opacity: 0.3; stroke-width: 0.8"/>
     </g>
     <g id="line2d_24">
      <g>
       <use xlink:href="#ma441463ba5" x="60.59" y="68.167273" style="stroke: #000000; stroke-width: 0.8"/>
      </g>
     </g>
     <g id="text_13">
      <!-- 0.975 -->
      <g transform="translate(24.961875 71.966491) scale(0.1 -0.1)">
       <use xlink:href="#DejaVuSans-30"/>
       <use xlink:href="#DejaVuSans-2e" x="63.623047"/>
       <use xlink:href="#DejaVuSans-39" x="95.410156"/>
       <use xlink:href="#DejaVuSans-37" x="159.033203"/>
       <use xlink:href="#DejaVuSans-35" x="222.65625"/>
      </g>
     </g>
    </g>
    <g id="ytick_8">
     <g id="line2d_25">
      <path d="M 60.59 36.121818 
L 565.2 36.121818 
" clip-path="url(#pce14758521)" style="fill: none; stroke-dasharray: 2.96,1.28; stroke-dashoffset: 0; stroke: #b0b0b0; stroke-opacity: 0.3; stroke-width: 0.8"/>
     </g>
     <g id="line2d_26">
      <g>
       <use xlink:href="#ma441463ba5" x="60.59" y="36.121818" style="stroke: #000000; stroke-width: 0.8"/>
      </g>
     </g>
     <g id="text_14">
      <!-- 1.000 -->
      <g transform="translate(24.961875 39.921037) scale(0.1 -0.1)">
       <defs>
        <path id="DejaVuSans-31" d="M 794 531 
L 1825 531 
L 1825 4091 
L 703 3866 
L 703 4441 
L 1819 4666 
L 2450 4666 
L 2450 531 
L 3481 531 
L 3481 0 
L 794 0 
L 794 531 
z
" transform="scale(0.015625)"/>
       </defs>
       <use xlink:href="#DejaVuSans-31"/>
       <use xlink:href="#DejaVuSans-2e" x="63.623047"/>
       <use xlink:href="#DejaVuSans-30" x="95.410156"/>
       <use xlink:href="#DejaVuSans-30" x="159.033203"/>
       <use xlink:href="#DejaVuSans-30" x="222.65625"/>
      </g>
     </g>
    </g>
    <g id="text_15">
     <!-- cumulative timely transfer rate -->
     <g transform="translate(18.882188 221.048594) rotate(-90) scale(0.1 -0.1)">
      <defs>
       <path id="DejaVuSans-63" d="M 3122 3366 
L 3122 2828 
Q 2878 2963 2633 3030 
Q 2388 3097 2138 3097 
Q 1578 3097 1268 2742 
Q 959 2388 959 1747 
Q 959 1106 1268 751 
Q 1578 397 2138 397 
Q 2388 397 2633 464 
Q 2878 531 3122 666 
L 3122 134 
Q 2881 22 2623 -34 
Q 2366 -91 2075 -91 
Q 1284 -91 818 406 
Q 353 903 353 1747 
Q 353 2603 823 3093 
Q 1294 3584 2113 3584 
Q 2378 3584 2631 3529 
Q 2884 3475 3122 3366 
z
" transform="scale(0.015625)"/>
       <path id="DejaVuSans-6d" d="M 3328 2828 
Q 3544 3216 3844 3400 
Q 4144 3584 4550 3584 
Q 5097 3584 5394 3201 
Q 5691 2819 5691 2113 
L 5691 0 
L 5113 0 
L 5113 2094 
Q 5113 2597 4934 2840 
Q 4756 3084 4391 3084 
Q 3944 3084 3684 2787 
Q 3425 2491 3425 1978 
L 3425 0 
L 2847 0 
L 2847 2094 
Q 2847 2600 2669 2842 
Q 2491 3084 2119 3084 
Q 1678 3084 1418 2786 
Q 1159 2488 1159 1978 
L 1159 0 
L 581 0 
L 581 3500 
L 1159 3500 
L 1159 2956 
Q 1356 3278 1631 3431 
Q 1906 3584 2284 3584 
Q 2666 3584 2933 3390 
Q 3200 3197 3328 2828 
z
" transform="scale(0.015625)"/>
       <path id="DejaVuSans-6c" d="M 603 4863 
L 1178 4863 
L 1178 0 
L 603 0 
L 603 4863 
z
" transform="scale(0.015625)"/>
       <path id="DejaVuSans-61" d="M 2194 1759 
Q 1497 1759 1228 1600 
Q 959 1441 959 1056 
Q 959 750 1161 570 
Q 1363 391 1709 391 
Q 2188 391 2477 730 
Q 2766 1069 2766 1631 
L 2766 1759 
L 2194 1759 
z
M 3341 1997 
L 3341 0 
L 2766 0 
L 2766 531 
Q 2569 213 2275 61 
Q 1981 -91 1556 -91 
Q 1019 -91 701 211 
Q 384 513 384 1019 
Q 384 1609 779 1909 
Q 1175 2209 1959 2209 
L 2766 2209 
L 2766 2266 
Q 2766 2663 2505 2880 
Q 2244 3097 1772 3097 
Q 1472 3097 1187 3025 
Q 903 2953 641 2809 
L 641 3341 
Q 956 3463 1253 3523 
Q 1550 3584 1831 3584 
Q 2591 3584 2966 3190 
Q 3341 2797 3341 1997 
z
" transform="scale(0.015625)"/>
       <path id="DejaVuSans-74" d="M 1172 4494 
L 1172 3500 
L 2356 3500 
L 2356 3053 
L 1172 3053 
L 1172 1153 
Q 1172 725 1289 603 
Q 1406 481 1766 481 
L 2356 481 
L 2356 0 
L 1766 0 
Q 1100 0 847 248 
Q 594 497 594 1153 
L 594 3053 
L 172 3053 
L 172 3500 
L 594 3500 
L 594 4494 
L 1172 4494 
z
" transform="scale(0.015625)"/>
       <path id="DejaVuSans-69" d="M 603 3500 
L 1178 3500 
L 1178 0 
L 603 0 
L 603 3500 
z
M 603 4863 
L 1178 4863 
L 1178 4134 
L 603 4134 
L 603 4863 
z
" transform="scale(0.015625)"/>
       <path id="DejaVuSans-76" d="M 191 3500 
L 800 3500 
L 1894 563 
L 2988 3500 
L 3597 3500 
L 2284 0 
L 1503 0 
L 191 3500 
z
" transform="scale(0.015625)"/>
       <path id="DejaVuSans-65" d="M 3597 1894 
L 3597 1613 
L 953 1613 
Q 991 1019 1311 708 
Q 1631 397 2203 397 
Q 2534 397 2845 478 
Q 3156 559 3463 722 
L 3463 178 
Q 3153 47 2828 -22 
Q 2503 -91 2169 -91 
Q 1331 -91 842 396 
Q 353 884 353 1716 
Q 353 2575 817 3079 
Q 1281 3584 2069 3584 
Q 2775 3584 3186 3129 
Q 3597 2675 3597 1894 
z
M 3022 2063 
Q 3016 2534 2758 2815 
Q 2500 3097 2075 3097 
Q 1594 3097 1305 2825 
Q 1016 2553 972 2059 
L 3022 2063 
z
" transform="scale(0.015625)"/>
       <path id="DejaVuSans-20" transform="scale(0.015625)"/>
       <path id="DejaVuSans-79" d="M 2059 -325 
Q 1816 -950 1584 -1140 
Q 1353 -1331 966 -1331 
L 506 -1331 
L 506 -850 
L 844 -850 
Q 1081 -850 1212 -737 
Q 1344 -625 1503 -206 
L 1606 56 
L 191 3500 
L 800 3500 
L 1894 763 
L 2988 3500 
L 3597 3500 
L 2059 -325 
z
" transform="scale(0.015625)"/>
       <path id="DejaVuSans-73" d="M 2834 3397 
L 2834 2853 
Q 2591 2978 2328 3040 
Q 2066 3103 1784 3103 
Q 1356 3103 1142 2972 
Q 928 2841 928 2578 
Q 928 2378 1081 2264 
Q 1234 2150 1697 2047 
L 1894 2003 
Q 2506 1872 2764 1633 
Q 3022 1394 3022 966 
Q 3022 478 2636 193 
Q 2250 -91 1575 -91 
Q 1294 -91 989 -36 
Q 684 19 347 128 
L 347 722 
Q 666 556 975 473 
Q 1284 391 1588 391 
Q 1994 391 2212 530 
Q 2431 669 2431 922 
Q 2431 1156 2273 1281 
Q 2116 1406 1581 1522 
L 1381 1569 
Q 847 1681 609 1914 
Q 372 2147 372 2553 
Q 372 3047 722 3315 
Q 1072 3584 1716 3584 
Q 2034 3584 2315 3537 
Q 2597 3491 2834 3397 
z
" transform="scale(0.015625)"/>
       <path id="DejaVuSans-66" d="M 2375 4863 
L 2375 4384 
L 1825 4384 
Q 1516 4384 1395 4259 
Q 1275 4134 1275 3809 
L 1275 3500 
L 2222 3500 
L 2222 3053 
L 1275 3053 
L 1275 0 
L 697 0 
L 697 3053 
L 147 3053 
L 147 3500 
L 697 3500 
L 697 3744 
Q 697 4328 969 4595 
Q 1241 4863 1831 4863 
L 2375 4863 
z
" transform="scale(0.015625)"/>
      </defs>
      <use xlink:href="#DejaVuSans-63"/>
      <use xlink:href="#DejaVuSans-75" x="54.980469"/>
      <use xlink:href="#DejaVuSans-6d" x="118.359375"/>
      <use xlink:href="#DejaVuSans-75" x="215.771484"/>
      <use xlink:href="#DejaVuSans-6c" x="279.150391"/>
      <use xlink:href="#DejaVuSans-61" x="306.933594"/>
      <use xlink:href="#DejaVuSans-74" x="368.212891"/>
      <use xlink:href="#DejaVuSans-69" x="407.421875"/>
      <use xlink:href="#DejaVuSans-76" x="435.205078"/>
      <use xlink:href="#DejaVuSans-65" x="494.384766"/>
      <use xlink:href="#DejaVuSans-20" x="555.908203"/>
      <use xlink:href="#DejaVuSans-74" x="587.695312"/>
      <use xlink:href="#DejaVuSans-69" x="626.904297"/>
      <use xlink:href="#DejaVuSans-6d" x="654.6875"/>
      <use xlink:href="#DejaVuSans-65" x="752.099609"/>
      <use xlink:href="#DejaVuSans-6c" x="813.623047"/>
      <use xlink:href="#DejaVuSans-79" x="841.40625"/>
      <use xlink:href="#DejaVuSans-20" x="900.585938"/>
      <use xlink:href="#DejaVuSans-74" x="932.373047"/>
      <use xlink:href="#DejaVuSans-72" x="971.582031"/>
      <use xlink:href="#DejaVuSans-61" x="1012.695312"/>
      <use xlink:href="#DejaVuSans-6e" x="1073.974609"/>
      <use xlink:href="#DejaVuSans-73" x="1137.353516"/>
      <use xlink:href="#DejaVuSans-66" x="1189.453125"/>
      <use xlink:href="#DejaVuSans-65" x="1224.658203"/>
      <use xlink:href="#DejaVuSans-72" x="1286.181641"/>
      <use xlink:href="#DejaVuSans-20" x="1327.294922"/>
      <use xlink:href="#DejaVuSans-72" x="1359.082031"/>
      <use xlink:href="#DejaVuSans-61" x="1400.195312"/>
      <use xlink:href="#DejaVuSans-74" x="1461.474609"/>
      <use xlink:href="#DejaVuSans-65" x="1500.683594"/>
     </g>
    </g>
   </g>
   <g id="line2d_27">
    <path d="M 83.526818 36.121818 
L 87.747171 36.121818 
L 88.014282 68.153224 
L 88.174549 67.737412 
L 88.281393 82.269444 
L 88.334815 81.785919 
L 88.495082 81.16297 
L 88.548504 88.376942 
L 88.655349 87.828885 
L 88.708771 87.579794 
L 88.869037 101.663653 
L 88.92246 100.805247 
L 89.136148 122.370551 
L 89.242993 121.106833 
L 89.67037 148.868129 
L 89.723792 148.750194 
L 89.830637 147.77691 
L 89.884059 151.286894 
L 89.937481 150.773821 
L 89.990903 150.616871 
L 90.044326 153.44077 
L 90.097748 152.454897 
L 90.311437 148.452525 
L 90.364859 153.848215 
L 90.418281 153.171627 
L 90.685392 148.887121 
L 90.738814 148.300521 
L 90.792236 154.061506 
L 90.845659 153.493122 
L 90.899081 152.268682 
L 90.952503 156.812491 
L 91.005925 156.174666 
L 92.34148 129.563317 
L 92.394902 128.7379 
L 92.501746 132.679551 
L 92.608591 131.468329 
L 92.662013 135.561189 
L 92.715435 135.17267 
L 92.768857 134.638069 
L 92.82228 135.592232 
L 92.875702 140.023463 
L 92.929124 139.494252 
L 93.089391 138.194515 
L 93.142813 144.669311 
L 93.196235 144.019862 
L 93.249657 143.42215 
L 93.303079 145.223834 
L 93.356502 144.693247 
L 93.57019 142.325981 
L 93.730457 145.383348 
L 94.318101 138.404528 
L 94.371523 141.584931 
L 94.424945 140.920207 
L 94.745479 136.509166 
L 94.905745 143.263365 
L 94.959167 142.672017 
L 96.615255 122.73822 
L 97.416588 113.698978 
L 98.057654 107.669846 
L 98.164499 110.863817 
L 98.217921 110.43625 
L 98.378188 109.079825 
L 98.43161 111.053805 
L 98.485032 110.503303 
L 98.645299 109.135082 
L 98.698721 110.817985 
L 98.752143 110.439718 
L 98.858987 109.769913 
L 98.91241 111.185007 
L 98.965832 110.865298 
L 99.286365 108.386404 
L 99.927431 102.854218 
L 100.354809 100.196041 
L 100.515075 103.574388 
L 100.568497 103.534263 
L 102.171163 94.792946 
L 102.33143 99.117754 
L 102.384852 98.96698 
L 102.491696 104.487912 
L 102.545119 104.301681 
L 102.651963 105.740168 
L 102.705385 105.542248 
L 103.453296 101.52596 
L 103.773829 99.990611 
L 103.827251 100.575908 
L 103.880673 100.329165 
L 103.934096 100.080171 
L 104.094362 100.609638 
L 104.308051 104.082367 
L 104.361473 103.814152 
L 104.468317 104.867374 
L 104.575162 104.777967 
L 105.109384 102.538836 
L 105.323073 104.864966 
L 105.536761 103.805447 
L 105.643606 106.403141 
L 105.697028 106.110088 
L 105.964139 104.954282 
L 106.017561 105.604345 
L 106.070983 105.386412 
L 107.299694 100.27479 
L 107.353116 100.645708 
L 107.406538 100.452914 
L 107.513382 100.073981 
L 107.673649 102.272747 
L 107.727071 102.147523 
L 107.887338 103.202178 
L 108.101027 102.408716 
L 108.207871 104.221522 
L 108.261293 103.997379 
L 108.314715 103.807362 
L 108.368138 103.972258 
L 108.795515 106.271072 
L 108.902359 106.180586 
L 108.955782 107.221367 
L 109.009204 106.974299 
L 109.062626 106.781142 
L 109.222893 107.786442 
L 109.917381 105.375755 
L 110.13107 107.557 
L 110.184492 107.45769 
L 110.291336 108.072463 
L 110.344759 108.009285 
L 110.61187 110.947798 
L 110.665292 110.801423 
L 110.718714 111.628335 
L 110.772136 111.395467 
L 111.039247 110.496809 
L 111.199514 111.969362 
L 111.626891 110.46103 
L 111.733736 111.013751 
L 111.787158 110.877732 
L 111.84058 110.748219 
L 111.947424 111.383782 
L 112.000847 111.206115 
L 112.802179 109.071223 
L 113.015868 111.470913 
L 113.06929 111.341289 
L 113.282979 110.801702 
L 113.496668 110.08584 
L 113.55009 110.386955 
L 113.603512 110.228654 
L 113.656935 110.065509 
L 113.710357 110.661658 
L 113.763779 110.490111 
L 113.977468 110.063799 
L 114.084312 109.763078 
L 114.244579 110.373909 
L 114.351423 111.654373 
L 114.404845 111.577617 
L 114.458267 111.697655 
L 114.51169 111.607439 
L 114.725378 113.961298 
L 114.778801 113.852369 
L 115.206178 116.343096 
L 115.366445 118.498679 
L 115.419867 118.380176 
L 115.473289 118.598175 
L 115.526711 118.439595 
L 115.580133 118.3103 
L 115.686978 119.275699 
L 115.7404 119.122683 
L 115.847244 118.812614 
L 115.900667 119.432036 
L 115.954089 119.291373 
L 116.060933 119.034244 
L 116.2212 119.734834 
L 116.274622 119.615074 
L 116.488311 121.69781 
L 116.595155 121.412094 
L 116.701999 121.165442 
L 116.755422 121.931934 
L 116.808844 121.862883 
L 117.022533 121.462519 
L 117.129377 123.198505 
L 117.289644 123.003238 
L 117.44991 122.507229 
L 117.610177 123.796794 
L 117.663599 123.711127 
L 117.717021 123.509046 
L 117.770443 123.995594 
L 117.823866 123.887442 
L 117.877288 123.759711 
L 117.93071 123.858058 
L 117.984132 124.306479 
L 118.037554 124.124907 
L 118.144399 123.820193 
L 118.197821 124.40142 
L 118.251243 124.249122 
L 118.358087 124.04407 
L 118.41151 124.353032 
L 118.464932 124.123606 
L 118.678621 123.393002 
L 118.945732 124.334422 
L 118.999154 124.219151 
L 119.105998 123.894179 
L 119.266265 125.177523 
L 119.319687 124.9915 
L 119.426531 124.573073 
L 119.479953 125.013726 
L 119.533376 124.800082 
L 119.586798 124.576725 
L 119.64022 124.886951 
L 119.693642 124.675217 
L 119.960753 123.746557 
L 120.067598 123.878384 
L 120.12102 123.734948 
L 120.174442 124.382765 
L 120.227864 124.218114 
L 120.388131 123.771702 
L 120.548397 124.371629 
L 120.60182 124.180802 
L 120.655242 124.274167 
L 120.708664 124.318434 
L 120.815508 124.965117 
L 121.723686 122.355387 
L 121.777108 122.740398 
L 121.83053 122.56317 
L 122.364752 121.269652 
L 122.471596 122.05593 
L 122.525018 121.909611 
L 123.219507 120.038127 
L 123.700307 119.108965 
L 123.807151 119.717923 
L 123.860573 119.562132 
L 124.074262 119.024485 
L 124.127684 119.338147 
L 124.181106 119.197695 
L 124.394795 118.687449 
L 124.50164 119.366617 
L 124.555062 119.20415 
L 125.142706 117.844243 
L 125.356395 117.321223 
L 125.409817 117.675415 
L 125.463239 117.506082 
L 125.676928 117.058615 
L 125.73035 117.69004 
L 125.783772 117.536355 
L 125.837194 117.447644 
L 125.890617 118.142969 
L 125.944039 118.009341 
L 125.997461 117.974993 
L 126.104305 118.229037 
L 126.21115 117.987474 
L 126.478261 119.441713 
L 126.585105 119.195437 
L 126.95906 118.481092 
L 127.172749 118.871137 
L 127.493282 118.13827 
L 127.546704 118.394545 
L 127.600127 118.266377 
L 127.813815 117.782572 
L 127.92066 118.391971 
L 127.974082 118.291956 
L 128.080926 118.121339 
L 128.294615 119.677946 
L 128.454882 119.336389 
L 128.508304 119.622306 
L 128.561726 119.503141 
L 128.775415 119.113437 
L 128.882259 120.378001 
L 128.989104 120.180258 
L 129.095948 119.930095 
L 129.14937 120.58203 
L 129.202792 120.478708 
L 129.363059 120.073612 
L 129.576748 120.900735 
L 129.897281 120.190871 
L 129.950703 120.765362 
L 130.004125 120.62483 
L 130.538347 119.453432 
L 130.591769 119.858965 
L 130.645192 119.749593 
L 130.752036 119.535326 
L 130.85888 119.916567 
L 130.912303 119.775279 
L 131.232836 119.13821 
L 131.286258 119.304338 
L 131.33968 119.183329 
L 131.393102 119.204148 
L 131.499947 118.981037 
L 131.553369 119.152366 
L 131.606791 119.011257 
L 131.927324 118.387922 
L 132.034169 118.82237 
L 132.141013 118.571369 
L 132.194435 118.728176 
L 132.247857 118.829254 
L 132.461546 118.335314 
L 132.514968 118.482314 
L 132.568391 118.366471 
L 132.835501 117.808892 
L 132.888924 118.130828 
L 132.942346 118.051815 
L 133.04919 117.822366 
L 133.262879 118.687016 
L 133.316301 118.588151 
L 133.369723 118.591022 
L 133.476568 118.395961 
L 133.583412 119.203344 
L 133.636834 119.104609 
L 133.957368 118.426556 
L 134.064212 118.935125 
L 134.117634 118.913677 
L 134.545012 118.044238 
L 134.598434 118.430003 
L 134.651856 118.318393 
L 135.346345 117.504735 
L 135.399767 117.800719 
L 135.453189 117.696569 
L 136.147677 116.671368 
L 136.254522 117.214452 
L 136.307944 117.149876 
L 136.681899 116.658555 
L 136.788744 117.204226 
L 136.895588 117.098438 
L 137.055855 116.977427 
L 137.162699 116.904173 
L 137.643499 116.154444 
L 137.750343 116.84517 
L 137.803765 116.759399 
L 138.070876 116.433958 
L 138.231143 116.990324 
L 138.65852 116.343667 
L 138.711943 116.649102 
L 138.765365 116.547819 
L 138.925631 116.278494 
L 139.032476 116.654778 
L 139.085898 116.5542 
L 139.246165 116.261089 
L 139.513276 116.893239 
L 139.833809 116.508707 
L 140.10092 117.794674 
L 140.207764 117.655077 
L 140.314608 117.497537 
L 140.368031 117.766856 
L 140.421453 117.667571 
L 140.84883 117.04898 
L 141.062519 118.235237 
L 141.169363 118.076359 
L 141.383052 117.76044 
L 141.489897 118.351499 
L 141.543319 118.295523 
L 141.863852 117.788244 
L 141.917274 118.009563 
L 141.970696 117.934937 
L 142.344652 117.542232 
L 142.398074 117.682305 
L 142.451496 117.597676 
L 142.825451 117.080102 
L 142.932296 117.518581 
L 142.985718 117.421428 
L 143.199407 117.183662 
L 143.252829 117.561787 
L 143.306251 117.492015 
L 143.466518 117.291641 
L 143.626784 117.078977 
L 143.787051 117.474891 
L 144.214428 116.799462 
L 144.267851 116.933672 
L 144.321273 116.876219 
L 144.534962 116.521565 
L 144.588384 116.790217 
L 144.641806 116.704767 
L 144.74865 116.549867 
L 144.908917 117.183235 
L 144.962339 117.103074 
L 145.122606 118.073093 
L 145.549983 117.49201 
L 145.71025 117.891065 
L 146.565005 116.722679 
L 146.671849 116.997071 
L 146.725271 116.948264 
L 146.992382 116.660784 
L 147.099227 116.609541 
L 147.473182 116.137683 
L 147.633449 116.161155 
L 147.686871 116.353485 
L 147.740293 116.271922 
L 148.060826 115.86805 
L 148.114248 116.047043 
L 148.167671 115.972407 
L 148.221093 115.873909 
L 148.274515 116.104253 
L 148.327937 116.010629 
L 148.488204 115.862688 
L 148.541626 115.969646 
L 148.595048 115.877863 
L 148.64847 115.810055 
L 148.701893 115.98826 
L 148.755315 115.91333 
L 148.808737 115.943326 
L 148.862159 115.847212 
L 148.969004 115.713514 
L 149.022426 115.81386 
L 149.075848 115.938869 
L 149.12927 115.845604 
L 149.556648 115.283316 
L 149.61007 115.400632 
L 149.663492 115.319381 
L 149.930603 115.089756 
L 149.984025 115.197078 
L 150.037447 115.132642 
L 150.197714 114.903366 
L 150.251136 115.010085 
L 150.304558 114.959793 
L 150.518247 114.728851 
L 150.678514 115.21838 
L 151.105891 114.701763 
L 151.159313 114.799464 
L 151.212736 114.717584 
L 151.80038 113.960635 
L 152.014068 113.655501 
L 152.067491 113.782135 
L 152.174335 113.651506 
L 152.281179 114.028415 
L 152.334602 113.977218 
L 152.388024 113.898919 
L 152.441446 114.017033 
L 152.761979 113.705316 
L 152.815401 113.928971 
L 152.868824 113.853512 
L 153.082512 113.556339 
L 153.135934 113.658842 
L 153.189357 113.998852 
L 153.242779 113.918451 
L 153.349623 113.765611 
L 153.403045 113.934116 
L 153.456468 113.861563 
L 153.883845 113.350089 
L 153.99069 113.206236 
L 154.257801 113.987088 
L 154.364645 113.836635 
L 154.471489 114.105388 
L 155.165978 113.439574 
L 155.379667 114.187655 
L 155.539933 114.050779 
L 155.7002 114.077923 
L 220.608163 114.185621 
L 220.821852 114.233544 
L 257.255787 114.322115 
L 257.522898 114.354054 
L 259.873474 114.449861 
L 260.140585 114.481793 
L 266.978626 114.551212 
L 267.192315 114.599095 
L 287.866703 114.679221 
L 288.133814 114.71113 
L 293.262344 114.798501 
L 293.422611 114.862296 
L 298.604564 114.942032 
L 298.818252 114.989868 
L 301.168829 115.082389 
L 301.43594 115.113224 
L 303.252294 115.20886 
L 303.465983 115.256672 
L 310.197179 115.345987 
L 310.46429 115.377852 
L 318.317352 115.473438 
L 318.74473 115.489367 
L 336.000098 115.590335 
L 336.427476 115.606259 
L 341.66285 115.699687 
L 341.929961 115.731528 
L 351.332267 115.811124 
L 351.545956 115.858876 
L 356.674486 115.966054 
L 356.941597 115.99788 
L 365.863103 116.101843 
L 366.076792 116.133658 
L 368.106836 116.163353 
L 377.562564 116.269379 
L 377.776252 116.317083 
L 384.29376 116.424127 
L 384.507449 116.471815 
L 399.999884 116.562925 
L 400.160151 116.626491 
L 408.707702 116.731317 
L 409.135079 116.747204 
L 412.340411 116.842512 
L 412.767788 116.858396 
L 419.926362 116.951549 
L 420.193473 116.983309 
L 425.108315 117.062701 
L 425.375425 117.094454 
L 432.694266 117.187562 
L 432.854532 117.251053 
L 440.333639 117.361071 
L 440.493906 117.424543 
L 446.477191 117.472142 
L 446.477191 117.472142 
" clip-path="url(#pce14758521)" style="fill: none; stroke: #1f77b4; stroke-width: 1.8; stroke-linecap: square"/>
   </g>
   <g id="line2d_28">
    <path d="M 83.526818 249.758182 
L 83.687085 87.208775 
L 83.793929 70.262254 
L 83.847351 122.980134 
L 83.900774 111.388722 
L 84.007618 94.547233 
L 84.06104 102.145116 
L 84.221307 87.145649 
L 84.274729 88.909317 
L 84.328151 96.595128 
L 84.381573 93.824244 
L 84.595262 82.733388 
L 84.702106 93.277801 
L 84.808951 88.828158 
L 84.969217 98.710597 
L 85.076062 94.386281 
L 85.129484 97.72077 
L 85.182906 96.688828 
L 85.289751 92.748324 
L 85.396595 107.41477 
L 85.450017 105.422029 
L 85.556861 102.097754 
L 85.610284 108.669318 
L 85.663706 107.025456 
L 85.717128 105.11722 
L 85.77055 107.423967 
L 85.823972 105.880631 
L 85.930817 103.184838 
L 85.984239 105.631492 
L 86.037661 103.98922 
L 86.091083 102.552072 
L 86.25135 113.090885 
L 86.358194 110.276589 
L 86.411617 108.71314 
L 86.465039 115.307497 
L 86.518461 113.71592 
L 86.571883 112.363792 
L 86.678728 123.355471 
L 86.73215 121.745357 
L 86.785572 124.418082 
L 86.838994 122.771532 
L 86.892416 121.344828 
L 86.999261 128.123284 
L 87.052683 126.879032 
L 87.106105 125.475112 
L 87.159527 126.725421 
L 87.266372 129.384393 
L 87.319794 128.190051 
L 87.533483 132.901121 
L 87.640327 130.266656 
L 87.693749 130.870557 
L 87.800594 132.157924 
L 87.907438 130.221088 
L 87.96086 130.601716 
L 88.067705 135.459735 
L 88.334815 131.955152 
L 88.388238 132.572491 
L 88.548504 131.024088 
L 88.655349 136.33896 
L 88.708771 135.401449 
L 88.815615 133.394178 
L 88.869037 134.723217 
L 88.92246 134.61853 
L 88.975882 133.647801 
L 89.029304 134.607849 
L 89.082726 135.331711 
L 89.510104 128.82419 
L 89.563526 130.162462 
L 89.616948 129.551448 
L 89.723792 127.956679 
L 89.777215 129.157009 
L 89.830637 128.265298 
L 89.884059 127.328669 
L 89.990903 129.649914 
L 90.044326 128.786767 
L 90.097748 128.089582 
L 90.15117 128.493848 
L 90.258014 131.071313 
L 90.311437 130.417114 
L 90.418281 128.699799 
L 90.471703 129.948898 
L 90.525125 129.333007 
L 90.685392 127.86356 
L 90.792236 129.934949 
L 90.845659 129.540767 
L 90.899081 129.961896 
L 91.326458 125.375044 
L 91.433303 128.045962 
L 91.486725 127.391432 
L 91.540147 127.467143 
L 91.593569 127.818923 
L 91.646991 127.145872 
L 91.700414 127.744658 
L 91.807258 129.373284 
L 91.86068 128.722132 
L 91.914102 129.209239 
L 91.967525 128.599427 
L 92.074369 130.991637 
L 92.127791 130.429762 
L 92.394902 128.301697 
L 92.555169 129.856237 
L 92.662013 128.773667 
L 92.715435 128.844835 
L 92.929124 130.955442 
L 92.982546 130.416042 
L 93.142813 128.792582 
L 93.196235 130.494626 
L 93.249657 129.987095 
L 93.303079 129.402971 
L 93.356502 131.434349 
L 93.409924 130.875392 
L 93.623612 129.703078 
L 93.730457 128.842968 
L 93.890723 130.540869 
L 93.944146 130.563248 
L 93.997568 130.89613 
L 94.264679 128.984928 
L 94.424945 131.18348 
L 94.53179 130.324117 
L 94.585212 130.465893 
L 94.638634 130.682853 
L 95.012589 128.38966 
L 95.172856 129.201538 
L 95.333123 127.986103 
L 95.386545 128.150983 
L 95.439967 128.980368 
L 95.493389 128.624161 
L 95.600234 127.745488 
L 95.7605 129.000659 
L 95.813922 129.667177 
L 95.867345 129.194808 
L 95.920767 129.039384 
L 96.027611 130.190792 
L 96.081033 129.852762 
L 96.454989 127.289136 
L 96.508411 127.42728 
L 96.775522 126.317414 
L 96.935788 125.31803 
L 96.989211 125.728886 
L 97.096055 126.317323 
L 97.47001 123.975365 
L 97.523433 123.602037 
L 97.576855 123.6552 
L 97.630277 124.345704 
L 97.683699 124.033122 
L 98.057654 121.842065 
L 98.111077 122.181619 
L 98.164499 123.983829 
L 98.217921 123.627973 
L 98.538454 121.666045 
L 98.591876 123.346853 
L 98.645299 123.094746 
L 98.91241 122.163871 
L 98.965832 122.825722 
L 99.019254 122.625612 
L 99.126098 121.94423 
L 99.286365 122.671538 
L 99.339787 122.910085 
L 99.393209 122.695301 
L 99.980853 120.053367 
L 100.034276 120.22088 
L 100.354809 119.159855 
L 100.408231 119.291367 
L 100.62192 118.247151 
L 100.782186 118.69504 
L 100.835608 118.436542 
L 100.889031 118.874105 
L 100.942453 118.640274 
L 100.995875 118.401042 
L 101.102719 118.898548 
L 101.316408 117.900679 
L 101.36983 118.41037 
L 101.423253 118.128806 
L 101.476675 118.355502 
L 101.530097 118.069393 
L 101.583519 118.601307 
L 101.636941 118.351664 
L 101.85063 117.484942 
L 102.064319 118.605316 
L 102.117741 118.62187 
L 102.224585 118.10395 
L 102.278008 118.165574 
L 102.384852 118.92736 
L 102.438274 118.709344 
L 102.491696 118.43689 
L 102.545119 118.640451 
L 102.598541 119.709306 
L 102.651963 119.494819 
L 102.81223 119.234582 
L 102.865652 119.248441 
L 102.972496 118.76838 
L 103.132763 120.412242 
L 103.239607 120.044335 
L 103.346451 119.523862 
L 103.399874 119.84717 
L 103.453296 119.682862 
L 103.613562 119.058455 
L 103.666985 119.532603 
L 103.720407 119.294606 
L 103.773829 119.431665 
L 103.827251 119.262163 
L 103.880673 119.770333 
L 103.934096 119.525192 
L 104.52174 117.734733 
L 104.575162 118.329097 
L 104.628584 118.121181 
L 104.842273 117.71617 
L 104.895695 118.075247 
L 104.949117 117.868473 
L 105.055962 117.441921 
L 105.216228 118.091967 
L 105.26965 117.898976 
L 105.323073 118.129425 
L 105.376495 117.924032 
L 105.429917 118.070039 
L 105.483339 117.889688 
L 105.536761 118.493962 
L 105.590184 118.297592 
L 105.75045 118.558071 
L 105.910717 118.204691 
L 106.070983 119.310157 
L 106.124405 119.16908 
L 106.284672 119.961903 
L 106.391516 119.525073 
L 106.444939 119.879011 
L 106.498361 119.70317 
L 107.086005 117.597726 
L 107.299694 118.473372 
L 107.353116 118.796404 
L 107.406538 118.595303 
L 107.566805 119.413181 
L 107.620227 119.217282 
L 107.673649 119.056357 
L 107.727071 119.377718 
L 107.780493 119.202626 
L 107.994182 118.459481 
L 108.154449 119.284922 
L 108.368138 118.526243 
L 108.42156 119.133764 
L 108.474982 118.966472 
L 108.742093 118.08475 
L 108.795515 118.282284 
L 108.955782 118.59423 
L 109.062626 118.217268 
L 109.276315 119.508991 
L 109.329737 119.392372 
L 109.490004 118.834407 
L 109.65027 119.392813 
L 109.703692 119.580193 
L 109.757115 119.42048 
L 110.344759 117.819229 
L 110.398181 118.283599 
L 110.451603 118.115385 
L 110.665292 117.415497 
L 110.718714 117.861335 
L 110.772136 117.727739 
L 111.306358 116.141707 
L 111.413202 116.704193 
L 111.466625 116.577846 
L 111.573469 116.279861 
L 111.733736 116.993628 
L 112.107691 116.085148 
L 112.267958 116.404612 
L 112.428224 115.947958 
L 112.588491 116.684712 
L 113.229557 114.919123 
L 113.282979 115.196498 
L 113.336401 115.043067 
L 113.443246 114.754667 
L 113.496668 115.432244 
L 113.55009 115.299939 
L 113.817201 114.604747 
L 113.870623 114.732451 
L 113.977468 115.140448 
L 114.137734 114.70535 
L 114.191156 114.815216 
L 114.244579 115.012893 
L 114.298001 114.873739 
L 114.671956 114.117043 
L 114.778801 113.85155 
L 114.832223 114.108416 
L 114.885645 113.996276 
L 115.2596 113.126025 
L 115.7404 111.925255 
L 115.793822 112.467829 
L 115.847244 112.326408 
L 116.060933 112.043593 
L 116.114355 112.169862 
L 116.167778 112.032047 
L 116.2212 111.907786 
L 116.381466 112.102983 
L 116.541733 111.715803 
L 116.595155 111.848632 
L 116.648577 112.072337 
L 116.701999 111.965991 
L 117.075955 111.350374 
L 117.129377 111.57503 
L 117.182799 111.447173 
L 117.396488 110.919842 
L 117.503332 111.279356 
L 117.556755 111.159731 
L 117.663599 111.014922 
L 117.770443 111.702521 
L 117.823866 111.570809 
L 118.251243 110.792098 
L 118.625198 110.238637 
L 118.732043 110.776685 
L 118.785465 110.653257 
L 118.999154 110.181184 
L 119.105998 110.433784 
L 119.15942 110.321046 
L 119.212843 110.196992 
L 119.266265 110.468431 
L 119.319687 110.34597 
L 119.426531 110.129738 
L 119.479953 110.509923 
L 119.533376 110.3939 
L 120.227864 109.016781 
L 120.281286 109.582657 
L 120.334709 109.467763 
L 120.655242 108.977451 
L 120.815508 109.127918 
L 121.136041 108.515911 
L 121.189464 108.658631 
L 121.242886 108.568157 
L 121.456575 108.145804 
L 121.509997 108.184116 
L 121.883952 108.841771 
L 121.937374 108.73148 
L 121.990796 108.801145 
L 122.044219 108.725623 
L 122.364752 108.130951 
L 122.525018 108.505596 
L 122.578441 108.417101 
L 122.685285 108.211021 
L 122.738707 108.472344 
L 122.792129 108.367586 
L 123.05924 107.892892 
L 123.112663 108.027306 
L 123.166085 107.920343 
L 123.433196 107.440415 
L 123.486618 108.059445 
L 123.54004 107.955977 
L 123.593462 107.867887 
L 123.646884 108.08897 
L 123.700307 107.989636 
L 123.753729 107.901847 
L 123.807151 108.401439 
L 123.860573 108.294507 
L 123.967418 108.114072 
L 124.074262 108.433493 
L 124.127684 108.32975 
L 124.50164 107.935251 
L 124.555062 108.093925 
L 124.608484 108.020145 
L 124.661906 108.046085 
L 124.875595 108.88195 
L 125.035861 108.574577 
L 125.196128 108.985016 
L 125.302972 108.796571 
L 125.356395 108.998092 
L 125.409817 108.901637 
L 125.73035 108.373861 
L 125.783772 108.512407 
L 125.837194 108.879409 
L 125.890617 108.78537 
L 125.944039 108.686769 
L 125.997461 109.15971 
L 126.050883 109.058434 
L 126.317994 108.618041 
L 126.371416 108.836876 
L 126.531683 109.567599 
L 126.638527 109.390632 
L 127.012483 108.803724 
L 127.065905 108.893664 
L 127.119327 108.794036 
L 127.333016 108.607418 
L 127.386438 108.86102 
L 127.43986 108.762211 
L 127.546704 108.582717 
L 127.600127 108.763082 
L 127.653549 108.678719 
L 127.92066 108.231311 
L 128.027504 108.697786 
L 128.080926 108.60288 
L 128.294615 108.256249 
L 128.348037 108.374827 
L 128.40146 108.294549 
L 128.561726 108.013292 
L 128.615148 108.077799 
L 128.668571 108.635067 
L 128.721993 108.551723 
L 128.828837 108.378888 
L 128.882259 108.54283 
L 128.935681 108.470057 
L 129.416481 107.88009 
L 129.469903 108.080996 
L 129.523326 107.984288 
L 129.576748 107.907547 
L 129.63017 108.131442 
L 129.683592 108.051436 
L 129.790437 107.903948 
L 129.843859 108.038368 
L 129.897281 107.96425 
L 130.11097 107.622891 
L 130.164392 107.785729 
L 130.217814 107.697283 
L 130.324658 107.629079 
L 130.484925 107.39896 
L 130.698614 108.142879 
L 130.85888 107.924516 
L 131.019147 108.19062 
L 131.660213 107.544923 
L 131.873902 107.344355 
L 131.927324 107.530632 
L 131.980746 107.474323 
L 132.568391 106.926341 
L 132.621813 107.141098 
L 132.675235 107.094848 
L 132.888924 106.938048 
L 132.942346 107.119151 
L 132.995768 107.078191 
L 133.316301 106.824273 
L 133.369723 107.009676 
L 133.423146 106.965918 
L 135.079234 105.800604 
L 135.132656 106.110875 
L 135.186078 106.080269 
L 135.827144 105.72191 
L 135.880566 105.923442 
L 135.933989 105.889189 
L 136.2011 105.732055 
L 136.254522 106.099139 
L 136.307944 106.06784 
L 138.337987 105.223674 
L 139.780386 104.922508 
L 141.970696 104.684962 
L 154.578334 104.574293 
L 203.406217 104.672933 
L 203.619906 104.706121 
L 205.970482 104.789084 
L 206.184171 104.838856 
L 207.893681 104.902391 
L 208.10737 104.952152 
L 208.908703 105.035078 
L 209.122392 105.068245 
L 215.1591 105.163016 
L 215.372788 105.196174 
L 217.509676 105.27906 
L 217.830209 105.361935 
L 219.326031 105.440062 
L 219.539719 105.489772 
L 220.127363 105.572612 
L 220.341052 105.605745 
L 225.790116 105.712188 
L 226.003805 105.745308 
L 230.75838 105.841802 
L 231.025491 105.908024 
L 233.162378 106.001617 
L 233.376067 106.051267 
L 238.07722 106.128273 
L 238.290909 106.177908 
L 242.938639 106.275251 
L 243.152328 106.324873 
L 247.265837 106.405648 
L 247.479526 106.438721 
L 261.155607 106.543892 
L 261.369296 106.576953 
L 281.135507 106.676124 
L 281.562884 106.692651 
L 290.110435 106.791804 
L 290.537813 106.808328 
L 295.238966 106.89094 
L 295.452654 106.940502 
L 297.963497 107.021162 
L 298.177186 107.054196 
L 301.061984 107.136773 
L 301.275673 107.1698 
L 312.868289 107.264991 
L 313.081978 107.298009 
L 321.362417 107.390252 
L 321.576106 107.42326 
L 325.048549 107.520328 
L 325.422504 107.534881 
L 329.162057 107.617375 
L 329.375746 107.650369 
L 338.24383 107.746412 
L 338.671208 107.762905 
L 342.250495 107.844386 
L 342.464183 107.877366 
L 347.218758 107.974336 
L 347.432447 108.056762 
L 350.958312 108.139177 
L 351.172001 108.17214 
L 356.674486 108.251591 
L 356.888175 108.301024 
L 357.74293 108.380449 
L 357.956619 108.413396 
L 361.215373 108.493784 
L 361.375639 108.559661 
L 368.801324 108.668015 
L 369.015013 108.717405 
L 374.143543 108.796744 
L 374.357232 108.846121 
L 376.227009 108.928407 
L 376.440698 108.961318 
L 387.178558 109.057063 
L 387.392247 109.089966 
L 400.747795 109.167246 
L 400.908061 109.233033 
L 405.235259 109.3317 
L 405.448948 109.381028 
L 416.72103 109.473684 
L 416.881297 109.539432 
L 437.128308 109.648474 
L 437.341997 109.697767 
L 440.921283 109.761482 
L 441.134972 109.810765 
L 443.592393 109.874463 
L 443.806082 109.923735 
L 445.355325 110.022267 
L 445.782703 110.038687 
L 446.904569 110.120783 
L 447.118258 110.153618 
L 454.063143 110.259457 
L 454.276831 110.290265 
L 457.535585 110.354895 
L 457.749274 110.40412 
L 459.512206 110.399073 
L 459.725895 110.448291 
L 463.412026 110.489421 
L 466.510513 110.599166 
L 466.937891 110.615564 
L 471.211666 110.664754 
L 471.211666 110.664754 
" clip-path="url(#pce14758521)" style="fill: none; stroke: #ff7f0e; stroke-width: 1.8; stroke-linecap: square"/>
   </g>
   <g id="line2d_29">
    <path d="M 83.526818 126.073971 
L 83.58024 138.667273 
L 83.633663 101.188731 
L 83.687085 126.323838 
L 83.740507 107.333939 
L 83.900774 202.464636 
L 84.114462 154.873366 
L 84.167884 174.867206 
L 84.221307 166.37586 
L 84.381573 140.760037 
L 84.434995 165.631945 
L 84.54184 164.203572 
L 84.595262 170.498297 
L 84.702106 158.07618 
L 84.755529 164.718464 
L 84.808951 158.312358 
L 84.915795 151.701701 
L 85.076062 170.21155 
L 85.343173 155.598879 
L 85.396595 166.177317 
L 85.450017 162.69466 
L 85.663706 151.504847 
L 85.717128 155.272752 
L 85.77055 152.819138 
L 85.984239 143.081481 
L 86.037661 144.112311 
L 86.25135 137.046363 
L 86.358194 141.838782 
L 86.411617 139.268964 
L 86.518461 135.573229 
L 86.571883 136.923673 
L 86.625305 136.867287 
L 86.73215 144.645842 
L 86.785572 142.860106 
L 86.838994 142.781281 
L 87.052683 136.119707 
L 87.212949 143.321153 
L 87.426638 139.59911 
L 87.48006 144.027942 
L 87.533483 143.839845 
L 87.586905 143.503341 
L 87.640327 142.361214 
L 87.693749 144.080408 
L 87.747171 142.648261 
L 87.907438 139.189871 
L 87.96086 139.567634 
L 88.014282 142.466305 
L 88.067705 141.031837 
L 88.121127 141.060614 
L 88.44166 136.59739 
L 88.548504 138.80249 
L 88.655349 136.389585 
L 88.708771 137.028307 
L 88.762193 137.031766 
L 88.92246 135.131223 
L 88.975882 134.035787 
L 89.029304 135.669317 
L 89.082726 134.943342 
L 89.349837 130.814034 
L 89.510104 134.914225 
L 89.563526 134.682601 
L 89.777215 131.462259 
L 89.830637 131.563829 
L 90.738814 120.650294 
L 90.792236 123.648463 
L 90.845659 122.943404 
L 91.059347 121.529229 
L 91.273036 119.362134 
L 91.326458 119.906153 
L 91.37988 120.18885 
L 91.593569 123.955752 
L 91.646991 123.288088 
L 91.700414 124.225577 
L 91.753836 124.088459 
L 92.020947 121.677463 
L 92.074369 122.50549 
L 92.127791 121.933914 
L 92.181213 121.312207 
L 92.234635 121.945232 
L 92.34148 120.928367 
L 92.394902 121.076865 
L 92.448324 121.359657 
L 92.982546 117.181819 
L 93.035968 117.966457 
L 93.089391 117.43579 
L 93.142813 116.862758 
L 93.196235 117.22708 
L 93.249657 117.951732 
L 93.303079 117.615186 
L 93.463346 116.302993 
L 93.516768 116.35629 
L 93.623612 117.665936 
L 93.783879 116.491199 
L 93.890723 117.265293 
L 93.997568 116.337902 
L 94.05099 117.210818 
L 94.104412 116.812724 
L 94.318101 115.105344 
L 94.371523 115.62975 
L 94.424945 115.336408 
L 94.478368 115.390348 
L 94.53179 116.186635 
L 94.585212 115.719767 
L 94.852323 113.813511 
L 94.959167 115.285769 
L 95.012589 114.865143 
L 95.172856 114.055922 
L 95.226278 116.441285 
L 95.2797 116.007988 
L 95.333123 115.545697 
L 95.546811 118.307837 
L 95.600234 117.917471 
L 95.707078 117.208583 
L 95.7605 119.319468 
L 95.813922 119.01556 
L 96.081033 117.299964 
L 96.134456 118.623837 
L 96.187878 118.191748 
L 96.454989 116.348247 
L 96.508411 117.833948 
L 96.561833 117.538115 
L 96.828944 116.240432 
L 96.882366 116.458502 
L 96.935788 117.384373 
L 96.989211 117.060558 
L 97.309744 115.336598 
L 97.363166 115.685059 
L 97.523433 118.905122 
L 97.843966 116.964515 
L 97.897388 117.164762 
L 97.95081 117.055606 
L 98.271343 115.298636 
L 98.324765 115.489817 
L 98.43161 114.805723 
L 98.591876 115.398701 
L 98.805565 114.283149 
L 98.965832 115.031316 
L 99.019254 115.006078 
L 99.232943 113.76108 
L 99.393209 114.911262 
L 99.446631 114.667834 
L 99.500054 114.429926 
L 99.553476 116.403528 
L 99.606898 116.125156 
L 99.66032 116.211017 
L 99.927431 114.858051 
L 100.087698 115.823315 
L 100.354809 114.647617 
L 100.408231 115.50061 
L 100.461653 115.460661 
L 100.62192 114.693185 
L 100.675342 115.75001 
L 100.728764 115.511375 
L 101.423253 112.724265 
L 101.476675 113.447277 
L 101.530097 113.19482 
L 101.85063 111.983943 
L 101.957474 112.873994 
L 102.010897 112.639817 
L 102.064319 112.882814 
L 102.117741 113.235946 
L 102.171163 112.989359 
L 102.598541 111.649177 
L 102.651963 112.139553 
L 102.705385 111.941514 
L 102.865652 111.704815 
L 103.025918 112.414759 
L 103.07934 112.258277 
L 103.132763 113.203152 
L 103.186185 113.017035 
L 103.239607 112.815889 
L 103.399874 113.438338 
L 103.666985 112.343097 
L 103.720407 113.019486 
L 103.773829 112.820648 
L 104.094362 111.702764 
L 104.147784 112.012932 
L 104.201207 111.939978 
L 104.361473 111.342587 
L 104.468317 112.270424 
L 104.52174 112.172466 
L 104.628584 111.774342 
L 104.788851 113.567259 
L 104.842273 113.403791 
L 104.949117 113.040701 
L 105.002539 113.553303 
L 105.055962 113.338608 
L 105.216228 112.846113 
L 105.26965 113.458359 
L 105.323073 113.220409 
L 105.483339 112.697473 
L 105.536761 113.596964 
L 105.590184 113.430289 
L 105.910717 112.531505 
L 106.070983 113.167693 
L 106.124405 113.008623 
L 106.23125 113.679066 
L 106.444939 113.095816 
L 106.605205 113.915172 
L 106.71205 113.615735 
L 106.872316 113.162903 
L 106.979161 113.988024 
L 107.032583 113.763173 
L 107.192849 113.197367 
L 107.353116 114.144002 
L 107.566805 113.766768 
L 107.620227 113.885658 
L 107.673649 113.677423 
L 107.727071 114.347528 
L 107.780493 114.154932 
L 108.207871 113.040258 
L 108.261293 113.27437 
L 108.314715 113.060517 
L 108.42156 112.734399 
L 108.474982 113.201544 
L 108.528404 113.014977 
L 108.742093 112.401209 
L 108.795515 112.54357 
L 108.848937 112.405228 
L 108.902359 113.145907 
L 108.955782 112.954984 
L 109.009204 112.784699 
L 109.062626 113.37939 
L 109.116048 113.196538 
L 109.222893 112.970508 
L 109.276315 113.408993 
L 109.329737 113.281464 
L 109.436581 113.013075 
L 109.490004 113.468384 
L 109.543426 113.278553 
L 109.65027 112.923315 
L 109.810537 113.747392 
L 110.077648 114.361899 
L 110.291336 113.728231 
L 110.344759 114.261442 
L 110.398181 114.05942 
L 110.61187 113.384951 
L 110.665292 113.769196 
L 110.718714 113.605978 
L 110.772136 113.427229 
L 110.825558 113.84958 
L 110.878981 113.668721 
L 111.466625 112.420073 
L 111.520047 112.367545 
L 111.573469 113.250317 
L 111.626891 113.124788 
L 111.680313 112.946168 
L 111.787158 113.401764 
L 111.84058 113.230328 
L 112.054269 112.55867 
L 112.161113 113.562493 
L 112.214535 113.393255 
L 112.267958 113.712047 
L 112.32138 113.586976 
L 112.641913 112.959982 
L 112.802179 113.019506 
L 112.855602 113.208692 
L 112.909024 113.06356 
L 113.06929 112.692557 
L 113.122713 113.017518 
L 113.176135 112.871922 
L 113.336401 112.47384 
L 113.603512 111.714447 
L 113.710357 112.346987 
L 113.763779 112.230203 
L 114.03089 111.68558 
L 114.084312 111.791561 
L 114.137734 112.163611 
L 114.191156 112.016489 
L 114.51169 111.249896 
L 114.778801 112.219556 
L 115.206178 111.23041 
L 115.313022 112.314611 
L 115.366445 112.184098 
L 115.847244 111.249179 
L 115.900667 111.754447 
L 115.954089 111.653677 
L 116.114355 111.23073 
L 116.167778 111.502194 
L 116.2212 111.387643 
L 116.701999 110.291933 
L 116.808844 110.362389 
L 116.862266 110.738247 
L 116.915688 110.627226 
L 116.96911 110.518348 
L 117.022533 110.800223 
L 117.075955 110.685953 
L 117.396488 110.103757 
L 117.610177 109.636055 
L 117.663599 110.351056 
L 117.717021 110.276589 
L 117.823866 110.024164 
L 117.877288 110.302521 
L 117.93071 110.196891 
L 118.678621 108.56866 
L 118.732043 109.218364 
L 118.785465 109.116879 
L 118.945732 108.768907 
L 118.999154 109.615361 
L 119.052576 109.520829 
L 119.533376 108.606796 
L 119.64022 108.362639 
L 119.693642 108.689029 
L 119.747064 108.585978 
L 120.227864 107.655607 
L 121.456575 105.615487 
L 121.509997 105.671209 
L 121.563419 105.572476 
L 121.670263 105.374365 
L 121.723686 105.872975 
L 121.777108 105.764103 
L 122.31133 104.855859 
L 122.792129 104.349694 
L 122.845552 104.64669 
L 122.898974 104.548363 
L 123.005818 104.380863 
L 123.112663 104.872559 
L 123.166085 104.760397 
L 123.272929 104.65441 
L 123.433196 104.534942 
L 123.700307 104.118827 
L 123.807151 104.485455 
L 123.860573 104.422889 
L 124.448217 103.45068 
L 124.50164 103.731836 
L 124.555062 103.660157 
L 125.24955 102.571515 
L 125.302972 102.891056 
L 125.356395 102.786225 
L 125.409817 102.697377 
L 125.463239 102.864886 
L 125.516661 102.770952 
L 125.73035 102.532094 
L 126.638527 101.254607 
L 126.691949 101.563876 
L 126.745372 101.476595 
L 127.706971 100.170842 
L 127.760393 100.443472 
L 127.813815 100.367969 
L 128.241193 99.858503 
L 130.591769 97.555227 
L 130.752036 97.905735 
L 131.980746 96.911088 
L 132.034169 97.197782 
L 132.087591 97.140711 
L 132.621813 96.634952 
L 132.675235 96.782955 
L 132.728657 96.745534 
L 133.316301 96.301076 
L 133.52999 96.157084 
L 133.583412 96.322204 
L 133.636834 96.269156 
L 134.171056 95.844094 
L 135.079234 95.333521 
L 135.132656 95.69517 
L 135.186078 95.644693 
L 135.346345 95.53611 
L 135.399767 95.770909 
L 135.453189 95.737319 
L 135.560033 95.643663 
L 135.613455 95.761469 
L 135.666878 95.72305 
L 135.987411 95.590219 
L 136.040833 95.669209 
L 136.094255 95.632022 
L 138.444832 94.353488 
L 138.551676 94.431219 
L 139.673542 94.133644 
L 139.726964 94.23031 
L 139.780386 94.199771 
L 143.145985 93.090185 
L 144.534962 92.772709 
L 146.93896 92.295314 
L 148.701893 92.0105 
L 152.281179 91.546652 
L 154.792022 91.320933 
L 156.074155 91.213737 
L 162.431396 90.732797 
L 166.43806 90.537099 
L 170.81868 90.515262 
L 199.987197 90.588232 
L 200.147464 90.679432 
L 204.741772 90.770618 
L 204.902039 90.843558 
L 211.366124 90.952951 
L 211.52639 91.025868 
L 219.326031 91.090611 
L 219.486297 91.163501 
L 222.95874 91.254602 
L 223.119006 91.327472 
L 224.988783 91.400334 
L 225.149049 91.473188 
L 230.865224 91.564242 
L 231.025491 91.637076 
L 235.619799 91.728106 
L 235.780066 91.837324 
L 238.55802 91.944037 
L 238.718286 92.016823 
L 240.053841 92.125984 
L 240.214108 92.216938 
L 242.297573 92.253315 
L 242.45784 92.34425 
L 250.150635 92.453353 
L 250.310902 92.507898 
L 252.875167 92.544258 
L 253.035434 92.635149 
L 254.370989 92.744201 
L 254.531255 92.798719 
L 255.38601 92.835062 
L 255.546277 92.92591 
L 256.454454 92.998579 
L 256.614721 93.071239 
L 257.629742 93.162053 
L 257.790009 93.216534 
L 259.76663 93.287473 
L 259.980319 93.396405 
L 261.422718 93.450864 
L 261.582984 93.523468 
L 263.986983 93.614212 
L 264.14725 93.704941 
L 265.85676 93.795658 
L 266.017026 93.868221 
L 272.053734 93.937349 
L 272.267423 94.064292 
L 273.122178 94.154949 
L 273.282445 94.227466 
L 274.831688 94.318099 
L 275.045377 94.444963 
L 275.739865 94.517445 
L 276.006976 94.644268 
L 281.082085 94.74948 
L 281.402618 94.84003 
L 283.699772 94.912461 
L 283.860039 94.966778 
L 284.447683 95.032217 
L 284.607949 95.086517 
L 287.706436 95.170015 
L 287.866703 95.224296 
L 289.576213 95.221673 
L 289.73648 95.294037 
L 292.247323 95.378343 
L 292.407589 95.468764 
L 296.788209 95.550381 
L 296.948476 95.604612 
L 297.749809 95.713058 
L 297.910075 95.821485 
L 299.352474 95.910942 
L 299.566163 95.947075 
L 300.901718 96.037396 
L 301.061984 96.127704 
L 303.572827 96.235167 
L 303.733094 96.325445 
L 305.496026 96.397657 
L 305.763137 96.524008 
L 309.182158 96.605306 
L 309.342424 96.659433 
L 314.898332 96.756924 
L 315.058599 96.847093 
L 319.011841 96.937249 
L 319.22553 96.973308 
L 321.362417 97.079672 
L 321.736373 97.097696 
L 326.758059 97.19772 
L 326.971748 97.233757 
L 330.070235 97.283295 
L 330.230501 97.373364 
L 331.298945 97.48143 
L 331.459212 97.553463 
L 334.183744 97.64077 
L 334.34401 97.748783 
L 337.068542 97.818051 
L 337.228809 97.908033 
L 338.991741 97.957456 
L 339.152007 98.047411 
L 342.197072 98.147107 
L 342.357339 98.201058 
L 346.631114 98.282716 
L 346.791381 98.33573 
L 348.768002 98.436228 
L 348.928269 98.490138 
L 349.302224 98.526075 
L 349.46249 98.615908 
L 349.996712 98.705728 
L 350.156979 98.759614 
L 352.507555 98.831454 
L 352.667822 98.921242 
L 353.362311 99.024338 
L 353.522577 99.078191 
L 354.697865 99.167936 
L 354.911554 99.20383 
L 356.193687 99.25302 
L 356.353953 99.324791 
L 356.727909 99.359742 
L 356.888175 99.449437 
L 362.657772 99.555186 
L 362.818039 99.626918 
L 367.679458 99.677905 
L 367.893147 99.821325 
L 369.976612 99.889269 
L 370.190301 99.996793 
L 374.410654 100.081677 
L 374.570921 100.171247 
L 380.287095 100.251371 
L 380.500784 100.284354 
L 387.071714 100.371986 
L 387.285403 100.40779 
L 390.437312 100.474661 
L 390.597578 100.546249 
L 394.28371 100.652668 
L 394.443976 100.706343 
L 397.008241 100.810827 
L 397.22193 100.846601 
L 402.190194 100.914332 
L 402.403883 101.003741 
L 405.02157 101.093136 
L 405.288681 101.146766 
L 410.898011 101.254014 
L 411.1117 101.289759 
L 414.370454 101.336667 
L 414.53072 101.408137 
L 418.216852 101.4748 
L 418.430541 101.635548 
L 421.58245 101.741726 
L 421.796139 101.777435 
L 423.77276 101.862838 
L 423.986448 101.898538 
L 427.031513 102.002724 
L 427.405469 102.020569 
L 428.847868 102.127629 
L 429.008135 102.181152 
L 429.221823 102.234671 
L 429.38209 102.306021 
L 431.999777 102.413031 
L 432.266888 102.484361 
L 432.854532 102.555682 
L 433.014799 102.609168 
L 435.151687 102.714171 
L 435.311953 102.800351 
L 437.341997 102.869672 
L 437.502263 102.923124 
L 439.959684 103.026089 
L 440.173373 103.061713 
L 441.08155 103.089481 
L 442.470527 103.16071 
L 442.630794 103.214126 
L 447.385369 103.317006 
L 447.599057 103.352606 
L 451.0715 103.438638 
L 451.0715 103.438638 
" clip-path="url(#pce14758521)" style="fill: none; stroke: #2ca02c; stroke-width: 1.8; stroke-linecap: square"/>
   </g>
   <g id="line2d_30">
    <path d="M 83.526818 36.121818 
L 83.740507 36.121818 
L 83.900774 181.844306 
L 84.007618 155.876458 
L 84.06104 141.798432 
L 84.114462 155.568019 
L 84.167884 187.117046 
L 84.221307 173.72657 
L 84.274729 176.364508 
L 84.488418 148.071004 
L 84.595262 171.325862 
L 84.648684 162.830282 
L 85.02264 131.53702 
L 85.556861 107.242053 
L 85.663706 115.545103 
L 85.717128 130.063639 
L 85.77055 127.253414 
L 86.144506 115.449761 
L 86.571883 103.644192 
L 86.625305 105.017279 
L 86.678728 104.151275 
L 87.106105 96.947356 
L 87.159527 100.322876 
L 87.212949 99.605894 
L 87.48006 95.296045 
L 87.533483 100.32687 
L 87.586905 99.424955 
L 88.014282 94.128474 
L 88.067705 97.596253 
L 88.121127 96.601444 
L 88.388238 93.133397 
L 88.44166 94.989126 
L 88.495082 94.354894 
L 88.815615 91.097238 
L 88.869037 93.886619 
L 88.92246 93.519859 
L 89.189571 90.511823 
L 89.242993 93.069157 
L 89.296415 92.5641 
L 89.67037 89.257097 
L 89.723792 90.461381 
L 89.777215 89.945648 
L 89.937481 88.58025 
L 89.990903 89.820812 
L 90.044326 89.266071 
L 90.15117 88.359467 
L 90.204592 89.437449 
L 90.258014 88.932727 
L 90.63197 85.924637 
L 90.685392 87.618444 
L 90.738814 87.38181 
L 91.005925 85.802301 
L 91.059347 87.007141 
L 91.112769 86.667663 
L 91.593569 83.735085 
L 91.646991 85.362134 
L 91.700414 85.073254 
L 92.288058 81.844241 
L 92.34148 86.247316 
L 92.394902 85.950685 
L 93.196235 81.742811 
L 93.249657 83.252737 
L 93.303079 82.948386 
L 93.356502 82.682082 
L 93.409924 85.997558 
L 93.463346 85.699387 
L 93.516768 85.449176 
L 93.677035 87.08581 
L 93.730457 86.865634 
L 93.783879 88.617573 
L 93.837301 88.361027 
L 93.997568 87.557554 
L 94.157834 89.715872 
L 94.745479 86.942803 
L 94.905745 89.11793 
L 95.012589 88.563474 
L 95.172856 87.701662 
L 95.2797 89.053933 
L 95.333123 90.803905 
L 95.386545 90.527212 
L 95.546811 89.765561 
L 95.600234 90.300584 
L 95.653656 90.088118 
L 95.707078 89.833766 
L 95.7605 91.044812 
L 95.813922 90.836421 
L 95.867345 90.673225 
L 95.920767 91.058209 
L 95.974189 90.840333 
L 96.561833 88.397677 
L 96.615255 89.79856 
L 96.668677 89.618609 
L 96.882366 89.056736 
L 96.989211 92.941515 
L 97.042633 92.681376 
L 97.096055 93.666967 
L 97.149477 93.473862 
L 97.256322 93.024571 
L 97.309744 93.458201 
L 97.363166 93.209526 
L 97.416588 93.003327 
L 97.47001 93.28398 
L 97.523433 93.107961 
L 97.95081 91.333453 
L 98.057654 93.448213 
L 98.111077 93.201738 
L 98.164499 92.953899 
L 98.217921 94.655892 
L 98.271343 94.449912 
L 98.378188 94.164663 
L 98.43161 94.768608 
L 98.485032 94.589098 
L 98.752143 93.639786 
L 98.805565 94.543901 
L 98.858987 94.30779 
L 99.072676 93.497877 
L 99.17952 95.283787 
L 99.232943 95.101407 
L 99.339787 94.693475 
L 99.553476 98.019038 
L 99.606898 97.863396 
L 99.66032 97.718834 
L 99.927431 100.146035 
L 100.087698 99.703793 
L 100.247964 101.337613 
L 100.408231 100.773728 
L 100.461653 101.882294 
L 100.515075 101.666251 
L 100.835608 100.536469 
L 100.889031 101.081294 
L 100.942453 100.889604 
L 100.995875 100.655737 
L 101.049297 102.442062 
L 101.102719 102.282295 
L 101.209564 101.887901 
L 101.262986 102.965896 
L 101.316408 102.749375 
L 101.904052 100.744432 
L 102.064319 101.889651 
L 102.438274 100.57931 
L 102.491696 100.943108 
L 102.545119 100.777325 
L 102.758807 100.041674 
L 102.81223 101.050517 
L 102.865652 100.923455 
L 103.293029 99.627422 
L 103.346451 100.871895 
L 103.399874 100.64872 
L 103.506718 100.296559 
L 103.666985 102.010473 
L 103.827251 101.426172 
L 103.934096 103.17825 
L 104.04094 102.869112 
L 104.628584 101.044792 
L 104.682006 101.749686 
L 104.735428 101.571266 
L 104.788851 101.396579 
L 104.842273 102.026876 
L 104.895695 101.827013 
L 105.216228 100.907429 
L 105.26965 101.783947 
L 105.323073 101.583345 
L 105.590184 100.671936 
L 105.643606 101.216993 
L 105.697028 101.032543 
L 105.803872 100.674555 
L 105.910717 102.140409 
L 105.964139 101.987411 
L 106.124405 101.436747 
L 106.177828 102.372981 
L 106.23125 102.244952 
L 106.284672 102.073285 
L 106.338094 103.170305 
L 106.391516 103.010197 
L 106.605205 102.40047 
L 106.658627 102.964793 
L 106.71205 102.794565 
L 107.032583 101.783643 
L 107.246271 103.319347 
L 107.406538 102.797424 
L 107.45996 103.10848 
L 107.513382 102.969044 
L 107.673649 102.544382 
L 107.727071 103.031726 
L 107.780493 102.891526 
L 107.887338 102.583685 
L 107.94076 103.174657 
L 107.994182 103.025677 
L 110.558447 96.441188 
L 110.61187 96.948887 
L 110.665292 96.857391 
L 110.718714 96.708801 
L 110.772136 96.870704 
L 110.932403 96.575539 
L 111.039247 96.312332 
L 111.092669 96.418413 
L 111.146092 96.743067 
L 111.199514 96.694414 
L 112.161113 94.570377 
L 112.32138 96.079295 
L 113.336401 94.056029 
L 113.389824 94.715966 
L 113.443246 94.624109 
L 113.924045 93.732883 
L 114.03089 94.198685 
L 114.084312 94.099463 
L 114.298001 93.667876 
L 114.458267 94.051514 
L 114.51169 93.952328 
L 114.565112 94.364703 
L 114.618534 94.235573 
L 114.725378 94.156822 
L 116.007511 91.766746 
L 116.915688 90.139367 
L 116.96911 90.545949 
L 117.022533 90.471556 
L 117.236221 90.12236 
L 117.289644 90.469572 
L 117.343066 90.380438 
L 117.93071 89.428459 
L 118.571776 88.417298 
L 119.15942 87.574281 
L 119.212843 87.647276 
L 119.266265 87.927111 
L 119.319687 87.844361 
L 119.747064 87.205393 
L 119.800487 87.474075 
L 119.853909 87.389583 
L 120.067598 87.058052 
L 120.12102 87.445007 
L 120.174442 87.354002 
L 120.441553 86.994397 
L 120.494975 87.453001 
L 120.548397 87.387248 
L 120.86893 86.953163 
L 120.922353 87.369253 
L 120.975775 87.312736 
L 121.670263 86.354476 
L 121.723686 86.717966 
L 121.777108 86.656393 
L 121.83053 86.568362 
L 122.044219 87.79767 
L 122.204485 87.537545 
L 122.257907 87.994844 
L 122.31133 87.90689 
L 123.166085 86.852884 
L 123.219507 86.991895 
L 123.272929 87.182712 
L 123.326351 87.110614 
L 123.379773 87.035355 
L 123.433196 87.439685 
L 123.486618 87.3675 
L 123.700307 87.068531 
L 123.753729 87.44377 
L 123.807151 87.393428 
L 123.860573 87.325344 
L 123.913995 87.639736 
L 123.967418 87.550305 
L 124.181106 87.243034 
L 124.287951 87.741989 
L 124.394795 87.605762 
L 125.196128 86.627251 
L 125.24955 86.885828 
L 125.302972 86.808049 
L 125.463239 86.612001 
L 125.516661 87.031592 
L 125.570083 86.953046 
L 125.944039 86.496176 
L 125.997461 87.00735 
L 126.050883 86.943385 
L 126.104305 86.893165 
L 126.157727 87.251172 
L 126.21115 87.204959 
L 126.745372 86.601443 
L 126.798794 87.018342 
L 126.852216 86.968873 
L 127.493282 86.216215 
L 128.187771 85.465143 
L 128.241193 85.734094 
L 128.294615 85.680596 
L 128.989104 85.010598 
L 129.042526 85.6626 
L 129.095948 85.630071 
L 129.309637 85.409248 
L 129.416481 85.868934 
L 129.469903 85.836507 
L 129.790437 85.533369 
L 129.843859 85.812825 
L 129.897281 85.775027 
L 130.591769 85.154035 
L 130.645192 85.362409 
L 130.698614 85.340253 
L 132.30128 84.122616 
L 132.888924 83.870225 
L 132.942346 84.084081 
L 132.995768 84.049361 
L 133.369723 83.83349 
L 133.423146 84.102589 
L 133.476568 84.079276 
L 133.690257 83.964765 
L 133.743679 84.162116 
L 133.797101 84.121642 
L 134.117634 83.924556 
L 134.171056 84.20286 
L 134.224478 84.168581 
L 134.331323 84.088217 
L 134.384745 84.311671 
L 134.438167 84.269715 
L 134.705278 84.106016 
L 134.7587 84.372898 
L 134.812123 84.349 
L 135.399767 83.982424 
L 135.453189 84.22964 
L 135.506611 84.185787 
L 135.987411 84.099776 
L 136.094255 84.167953 
L 136.788744 83.780297 
L 136.895588 83.739984 
L 136.94901 83.932371 
L 137.002432 83.896106 
L 137.696921 83.659882 
L 137.750343 83.874841 
L 137.803765 83.834073 
L 137.91061 83.768989 
L 137.964032 83.98248 
L 138.017454 83.940919 
L 138.070876 83.913252 
L 138.177721 84.278523 
L 138.231143 84.240078 
L 138.337987 84.184563 
L 138.391409 84.354925 
L 138.444832 84.322231 
L 138.979054 84.065496 
L 139.032476 84.249403 
L 139.085898 84.223464 
L 139.13932 84.203218 
L 139.299587 84.577277 
L 139.459853 84.657601 
L 140.154342 84.526231 
L 140.314608 84.847963 
L 140.528297 84.780628 
L 140.581719 84.955628 
L 140.635142 84.935318 
L 140.955675 84.802496 
L 141.009097 85.093879 
L 141.062519 85.078455 
L 141.81043 84.755173 
L 141.863852 84.951781 
L 141.917274 84.92848 
L 142.237807 84.809911 
L 142.344652 84.959995 
L 142.451496 84.908783 
L 142.504918 85.030153 
L 142.55834 85.004537 
L 142.878874 84.883228 
L 142.932296 85.113563 
L 142.985718 85.093583 
L 143.51994 84.882793 
L 143.626784 85.147202 
L 143.893895 85.042372 
L 143.947317 85.330719 
L 144.054162 85.301256 
L 144.107584 85.463981 
L 144.161006 85.432877 
L 144.74865 85.248798 
L 144.802073 85.397142 
L 144.855495 85.376544 
L 145.122606 85.286433 
L 145.282872 85.416192 
L 146.244472 85.094192 
L 146.297894 85.25529 
L 146.351316 85.231828 
L 146.992382 84.986048 
L 147.206071 85.541754 
L 147.366338 85.501944 
L 147.41976 85.72531 
L 147.526604 85.694785 
L 147.740293 85.629167 
L 147.847137 85.800625 
L 147.90056 85.777947 
L 147.953982 85.958538 
L 148.007404 85.939725 
L 148.114248 85.897449 
L 148.327937 86.208556 
L 148.701893 86.065131 
L 148.755315 86.346347 
L 148.808737 86.325144 
L 149.449803 86.093876 
L 149.663492 86.533308 
L 149.984025 86.430121 
L 150.144292 86.483429 
L 151.533269 86.006584 
L 151.586691 86.184853 
L 151.640113 86.167963 
L 153.02909 85.804089 
L 153.135934 85.920641 
L 153.242779 85.882838 
L 153.403045 86.200891 
L 153.563312 86.141718 
L 153.616734 86.303554 
L 153.670156 86.283043 
L 155.486511 85.708038 
L 155.646778 85.669482 
L 155.807044 85.809297 
L 157.569976 85.505638 
L 157.730243 85.715298 
L 158.691842 85.45947 
L 158.745265 85.617376 
L 158.798687 85.599202 
L 159.920553 85.310933 
L 160.080819 85.374314 
L 160.775308 85.218123 
L 160.935575 85.32292 
L 161.202686 85.267207 
L 161.30953 85.447555 
L 161.362952 85.430384 
L 161.523219 85.401077 
L 161.576641 85.716859 
L 161.683485 85.685257 
L 161.897174 85.632915 
L 162.057441 85.729707 
L 162.377974 85.661669 
L 162.431396 85.864348 
L 162.53824 85.834216 
L 162.698507 85.92771 
L 163.820373 85.838888 
L 163.980639 85.890111 
L 165.262772 85.722331 
L 165.423039 85.79225 
L 166.384638 85.610552 
L 166.865438 85.644467 
L 168.842059 85.476615 
L 169.002326 85.575709 
L 169.803658 85.461938 
L 169.963925 85.616754 
L 172.154235 85.50432 
L 172.314501 85.643769 
L 173.436368 85.60413 
L 173.650056 85.715656 
L 175.039033 85.687443 
L 175.1993 85.814324 
L 178.190943 85.633503 
L 178.351209 85.702593 
L 180.755208 85.440731 
L 180.915474 85.564128 
L 180.968897 85.55669 
L 181.129163 85.664495 
L 182.411296 85.61145 
L 185.883738 85.506699 
L 186.150849 85.790428 
L 186.952182 85.809263 
L 187.112449 85.868518 
L 190.210936 85.68642 
L 190.371202 85.756598 
L 190.958847 85.792014 
L 191.119113 85.893145 
L 191.332802 85.937238 
L 191.493068 86.007179 
L 191.867024 86.052299 
L 192.187557 86.265287 
L 192.347824 86.317837 
L 192.614934 86.430243 
L 193.256001 86.378443 
L 193.416267 86.56457 
L 194.6984 86.503209 
L 194.858667 86.595717 
L 198.11742 86.517564 
L 198.277687 86.592738 
L 199.452975 86.62197 
L 199.613242 86.714079 
L 204.741772 86.604587 
L 206.985504 86.612148 
L 207.199193 86.638654 
L 208.053948 86.704778 
L 209.81688 86.776558 
L 209.977147 86.836081 
L 210.618213 86.864005 
L 210.77848 86.958561 
L 214.144078 86.967048 
L 214.304344 87.041841 
L 216.227543 87.059777 
L 216.38781 87.152582 
L 217.456254 87.184987 
L 217.61652 87.245456 
L 218.150742 87.290496 
L 218.311009 87.369039 
L 222.157407 87.430693 
L 222.317673 87.492266 
L 223.653228 87.519612 
L 223.920339 87.627919 
L 224.935361 87.683263 
L 225.095627 87.744712 
L 226.270915 87.78124 
L 226.484604 87.808574 
L 228.194114 87.830903 
L 228.354381 87.90824 
L 229.262558 87.95135 
L 229.422825 88.028629 
L 229.903625 88.084492 
L 230.063891 88.161054 
L 232.093934 88.233663 
L 232.307623 88.278868 
L 232.521312 88.354644 
L 232.681579 88.414435 
L 233.803445 88.467745 
L 233.963711 88.526799 
L 234.444511 88.568527 
L 234.6582 88.758511 
L 235.299266 88.834118 
L 235.512955 88.960252 
L 235.833488 89.053115 
L 236.047177 89.177812 
L 236.474554 89.234638 
L 236.688243 89.344033 
L 237.11562 89.402883 
L 237.275887 89.477631 
L 237.649842 89.553048 
L 237.810109 89.632601 
L 238.397753 89.723886 
L 238.611442 89.863545 
L 238.718286 89.909158 
L 238.878553 89.987255 
L 239.252508 90.062546 
L 239.519619 90.249739 
L 240.214108 90.301369 
L 240.374374 90.377269 
L 240.641485 90.471135 
L 240.801752 90.533232 
L 241.175707 90.575221 
L 241.442818 90.876011 
L 241.549662 90.922184 
L 241.709929 90.984213 
L 242.45784 91.023986 
L 242.618106 91.166684 
L 243.312595 91.274798 
L 243.472861 91.352615 
L 244.113928 91.384448 
L 244.327616 91.426971 
L 244.434461 91.519854 
L 244.64815 91.563065 
L 245.128949 91.614218 
L 245.289216 91.723575 
L 245.609749 91.81349 
L 245.823438 91.952989 
L 365.061771 92.061411 
L 365.328882 92.09302 
L 384.507449 92.171311 
L 384.667715 92.234513 
L 386.751181 92.313507 
L 386.964869 92.360899 
L 393.428955 92.454219 
L 393.642643 92.533183 
L 405.288681 92.622102 
L 405.448948 92.685249 
L 407.69268 92.795742 
L 407.906369 92.84309 
L 411.165122 92.921995 
L 411.378811 92.969333 
L 416.240231 93.061799 
L 416.400497 93.124899 
L 419.659251 93.21733 
L 419.87294 93.264642 
L 428.260224 93.368388 
L 428.42049 93.462972 
L 432.854532 93.571823 
L 433.068221 93.616141 
L 436.433819 93.671761 
L 436.594086 93.734775 
L 439.158351 93.793329 
L 439.318618 93.856325 
L 446.851147 93.959111 
L 447.011413 94.037823 
L 450.003056 94.148002 
L 450.430434 94.16374 
L 452.30021 94.258161 
L 452.513899 94.305366 
L 457.268474 94.384034 
L 457.482163 94.431229 
L 463.946248 94.506877 
L 464.213359 94.60124 
L 477.942863 94.690319 
L 478.156551 94.737484 
L 486.757524 94.827276 
L 486.971213 94.874426 
L 493.809254 94.964936 
L 494.076365 95.012072 
L 495.411919 95.072643 
L 495.732452 95.151185 
L 499.098051 95.258089 
L 499.418584 95.320901 
L 500.700716 95.415107 
L 500.967827 95.462204 
L 508.072979 95.521182 
L 508.072979 95.521182 
" clip-path="url(#pce14758521)" style="fill: none; stroke: #d62728; stroke-width: 1.8; stroke-linecap: square"/>
   </g>
   <g id="line2d_31">
    <path d="M 83.526818 137.31799 
L 83.687085 247.357773 
L 83.847351 164.303636 
L 83.900774 180.652149 
L 83.954196 174.195481 
L 84.007618 196.810841 
L 84.06104 184.859521 
L 84.114462 188.356757 
L 84.381573 143.566762 
L 84.702106 116.235455 
L 84.969217 101.77592 
L 85.02264 107.600901 
L 85.076062 105.267949 
L 85.556861 89.437569 
L 85.984239 80.956055 
L 86.518461 72.582956 
L 87.212949 65.778905 
L 87.96086 60.995656 
L 89.136148 55.886962 
L 89.830637 53.682943 
L 90.471703 52.025593 
L 92.127791 48.913787 
L 93.677035 46.956086 
L 95.493389 45.348428 
L 96.989211 44.323949 
L 97.897388 43.809073 
L 100.14112 42.77778 
L 106.391516 40.972973 
L 109.16947 40.455045 
L 113.389824 39.846436 
L 118.358087 39.313219 
L 131.393102 38.456398 
L 137.964032 38.266944 
L 147.259493 38.244927 
L 159.226064 38.314358 
L 159.386331 38.36647 
L 161.576641 38.453282 
L 161.736907 38.505382 
L 165.316194 38.574842 
L 165.476461 38.679018 
L 165.69015 38.765818 
L 171.192635 38.852533 
L 171.352902 38.904598 
L 172.367924 38.991288 
L 172.52819 39.060691 
L 174.2377 39.147435 
L 174.451389 39.182129 
L 178.511476 39.285685 
L 178.671742 39.372384 
L 179.473075 39.459026 
L 179.633342 39.580367 
L 184.120806 39.64936 
L 184.387917 39.770653 
L 185.990583 39.822277 
L 186.150849 39.891565 
L 187.967204 39.943371 
L 188.12747 40.012643 
L 190.79858 40.064271 
L 190.958847 40.150836 
L 192.50809 40.254419 
L 192.721779 40.288865 
L 194.538133 40.392694 
L 194.6984 40.444602 
L 196.781865 40.547506 
L 196.942132 40.633979 
L 199.025598 40.720067 
L 199.185864 40.771934 
L 201.055641 40.857984 
L 201.215907 40.909836 
L 202.177507 40.978767 
L 202.337773 41.099719 
L 202.551462 41.134273 
L 203.566484 41.220166 
L 203.72675 41.289251 
L 203.887017 41.289251 
L 204.047284 41.410133 
L 205.115727 41.479198 
L 205.329416 41.634567 
L 205.489683 41.686349 
L 207.733415 41.789899 
L 207.893681 41.876177 
L 209.977147 41.96205 
L 210.137413 42.03105 
L 210.725058 42.065548 
L 210.885324 42.169029 
L 211.793501 42.238008 
L 212.00719 42.341461 
L 214.090656 42.393182 
L 214.250922 42.496524 
L 216.38781 42.599671 
L 216.548077 42.68583 
L 217.509676 42.771708 
L 217.937054 42.94396 
L 218.57812 43.047009 
L 218.738386 43.1331 
L 220.875274 43.235722 
L 221.730029 43.407334 
L 222.210829 43.476059 
L 222.371095 43.544874 
L 223.973761 43.647677 
L 224.18745 43.733462 
L 224.775094 43.819439 
L 225.202472 43.991357 
L 225.629849 44.077299 
L 225.89696 44.231965 
L 225.950382 44.231965 
L 226.110649 44.386593 
L 226.805137 44.438128 
L 226.965404 44.575532 
L 228.247537 44.644224 
L 228.407803 44.730077 
L 229.048869 44.764416 
L 229.209136 44.850253 
L 230.384424 44.918677 
L 230.651535 45.090295 
L 234.765044 45.158441 
L 234.978733 45.261373 
L 237.916953 45.347136 
L 238.07722 45.414862 
L 242.45784 45.482568 
L 242.778373 45.653991 
L 244.16735 45.739685 
L 244.381039 45.77396 
L 245.87686 45.859244 
L 246.037127 45.979169 
L 248.441125 46.012231 
L 248.601392 46.132112 
L 252.821745 46.233353 
L 252.982012 46.318942 
L 255.439432 46.387129 
L 255.599699 46.52403 
L 256.614721 46.609578 
L 256.828409 46.643794 
L 257.148943 46.712221 
L 257.309209 46.849052 
L 259.552941 46.934556 
L 259.713208 46.98483 
L 260.514541 47.019023 
L 260.674807 47.12159 
L 262.491162 47.189958 
L 262.811695 47.360847 
L 263.506183 47.462596 
L 263.66645 47.548004 
L 264.307516 47.616323 
L 264.521205 47.667556 
L 265.002005 47.718786 
L 265.162271 47.804159 
L 266.604671 47.87245 
L 266.764937 47.940733 
L 267.833381 48.042503 
L 268.04707 48.075992 
L 269.810002 48.17756 
L 270.023691 48.22874 
L 270.825024 48.31403 
L 270.98529 48.399308 
L 272.6948 48.501295 
L 272.908489 48.552447 
L 273.549556 48.620643 
L 273.709822 48.688832 
L 275.098799 48.791101 
L 275.259066 48.859272 
L 277.769909 48.927435 
L 277.930175 49.029667 
L 280.921818 49.11223 
L 281.135507 49.265495 
L 283.272394 49.366407 
L 283.432661 49.434495 
L 284.821638 49.534635 
L 285.035327 49.585139 
L 285.35586 49.670203 
L 285.569549 49.721236 
L 286.050348 49.806282 
L 286.210615 49.908321 
L 287.706436 49.941219 
L 287.866703 50.060229 
L 288.988569 50.094228 
L 289.148836 50.247199 
L 289.843324 50.297231 
L 290.003591 50.416166 
L 292.728122 50.517128 
L 292.941811 50.568082 
L 296.57452 50.650465 
L 296.734787 50.837203 
L 298.76483 50.887726 
L 298.925097 50.97258 
L 300.794873 51.074389 
L 301.329095 51.142253 
L 305.869982 51.208494 
L 306.083671 51.259376 
L 310.250601 51.306798 
L 310.410868 51.408519 
L 310.784823 51.510224 
L 311.051934 51.645805 
L 312.227223 51.730111 
L 312.387489 51.79746 
L 313.883311 51.881526 
L 314.043577 52.000081 
L 316.180465 52.067816 
L 316.340731 52.169405 
L 319.278952 52.235183 
L 319.492641 52.28596 
L 320.774773 52.369493 
L 320.988462 52.403336 
L 323.071928 52.487059 
L 323.232194 52.605471 
L 323.60615 52.673125 
L 323.766416 52.774593 
L 328.73468 52.874924 
L 329.108635 52.890934 
L 329.909968 52.958549 
L 330.123657 53.076179 
L 330.92499 53.176198 
L 331.085256 53.276873 
L 332.474233 53.378215 
L 332.794767 53.563501 
L 335.732987 53.663155 
L 335.893254 53.747545 
L 338.136986 53.848563 
L 338.510941 53.983542 
L 339.793074 54.032478 
L 339.95334 54.201131 
L 342.197072 54.285441 
L 342.517606 54.386599 
L 343.85316 54.454028 
L 344.013427 54.555158 
L 344.494227 54.63942 
L 344.654493 54.723672 
L 345.990048 54.791065 
L 346.150315 54.908986 
L 346.52427 54.975102 
L 346.684537 55.059303 
L 347.966669 55.076142 
L 348.126936 55.194001 
L 348.661158 55.242721 
L 348.821424 55.326879 
L 349.088535 55.394196 
L 349.996712 55.44468 
L 350.156979 55.545635 
L 351.919911 55.628453 
L 352.1336 55.763008 
L 353.84311 55.846302 
L 354.003377 55.947182 
L 354.751288 56.02938 
L 354.964976 56.079802 
L 355.499198 56.16303 
L 355.712887 56.21344 
L 357.368975 56.297448 
L 357.582664 56.347847 
L 359.131907 56.394193 
L 359.292174 56.47816 
L 360.89484 56.577816 
L 361.161951 56.644967 
L 363.726216 56.71211 
L 363.886482 56.795755 
L 365.061771 56.879662 
L 365.222037 56.997114 
L 366.98497 57.064219 
L 367.145236 57.164864 
L 369.335546 57.231109 
L 369.495813 57.298186 
L 370.831367 57.33003 
L 370.991634 57.413856 
L 372.060078 57.413856 
L 372.220344 57.531194 
L 375.318831 57.614707 
L 375.479098 57.71525 
L 376.49412 57.815778 
L 376.654386 57.933039 
L 377.081764 58.033531 
L 377.24203 58.134008 
L 379.058385 58.216845 
L 379.325496 58.349288 
L 382.851361 58.416234 
L 383.011627 58.483172 
L 383.439005 58.566834 
L 383.599271 58.633756 
L 385.255359 58.734126 
L 385.469048 58.80103 
L 386.537492 58.866417 
L 386.697758 58.983463 
L 386.911447 59.033618 
L 387.979891 59.114454 
L 388.140158 59.181305 
L 392.520777 59.280954 
L 392.734466 59.313755 
L 395.138465 59.41121 
L 395.298731 59.511419 
L 395.672687 59.528119 
L 396.153486 59.528119 
L 396.313753 59.645007 
L 397.008241 59.710851 
L 397.168508 59.811009 
L 397.595886 59.91115 
L 397.756152 59.993323 
L 398.450641 60.060063 
L 398.610907 60.143477 
L 399.732773 60.242601 
L 399.89304 60.309312 
L 403.31206 60.358055 
L 403.472327 60.42475 
L 403.739438 60.508108 
L 403.899704 60.624792 
L 404.327082 60.708124 
L 404.647615 60.791445 
L 409.562457 60.888133 
L 409.722723 60.971419 
L 410.043256 61.054694 
L 411.058278 61.15461 
L 411.218545 61.23786 
L 418.003163 61.294782 
L 418.216852 61.427896 
L 422.223516 61.527713 
L 422.383783 61.659425 
L 427.405469 61.7592 
L 427.565735 61.842333 
L 429.649201 61.940029 
L 429.86289 61.989892 
L 430.931333 62.072301 
L 431.145022 62.105536 
L 432.533999 62.155385 
L 432.694266 62.238457 
L 433.442176 62.288295 
L 433.602443 62.354739 
L 435.098264 62.437089 
L 435.311953 62.48691 
L 435.739331 62.553331 
L 435.95302 62.601742 
L 437.128308 62.684748 
L 437.288574 62.767744 
L 438.463863 62.867324 
L 438.624129 63.000072 
L 439.906262 63.081957 
L 440.066528 63.181483 
L 442.523949 63.246032 
L 442.684216 63.328944 
L 442.897904 63.362106 
L 445.942969 63.442837 
L 446.103236 63.52463 
L 446.851147 63.607495 
L 447.011413 63.723488 
L 448.774346 63.772828 
L 448.934612 63.855659 
L 450.270167 63.955043 
L 450.430434 64.021289 
L 451.285189 64.119907 
L 451.445455 64.186134 
L 452.78101 64.484072 
L 453.742609 64.582226 
L 454.116565 64.698029 
L 454.383676 64.780733 
L 454.650787 64.879204 
L 455.131586 64.928812 
L 455.291853 64.994949 
L 456.894519 65.056499 
L 457.108208 65.106084 
L 457.535585 65.104937 
L 457.695852 65.220618 
L 459.512206 65.315135 
L 459.672473 65.381208 
L 461.595672 65.446113 
L 461.809361 65.644261 
L 462.397005 65.726805 
L 462.610693 65.759819 
L 462.664116 65.759819 
L 462.824382 65.891858 
L 463.572293 65.891858 
L 463.732559 66.006188 
L 465.281803 66.055685 
L 465.44207 66.138171 
L 467.044735 66.235155 
L 467.205002 66.333305 
L 468.059757 66.396467 
L 468.220024 66.478893 
L 469.34189 66.558902 
L 469.502156 66.62482 
L 471.906155 66.70439 
L 472.119844 66.753813 
L 474.310153 66.81728 
L 474.577264 66.947815 
L 475.805975 67.046608 
L 476.019664 67.079535 
L 476.981263 67.160212 
L 477.248374 67.275423 
L 478.423662 67.371691 
L 478.583929 67.453952 
L 479.171573 67.519754 
L 479.33184 67.634889 
L 481.949527 67.73356 
L 482.109794 67.815773 
L 483.659037 67.844067 
L 483.819304 67.94269 
L 484.567214 68.041297 
L 484.727481 68.107027 
L 485.902769 68.154214 
L 486.063036 68.236354 
L 487.452013 68.285634 
L 487.612279 68.351333 
L 490.336811 68.38206 
L 490.497078 68.464165 
L 491.77921 68.525158 
L 491.939477 68.640059 
L 492.74081 68.722118 
L 492.954499 68.771348 
L 497.815918 68.842215 
L 498.029607 68.940618 
L 502.837604 69.037277 
L 502.997871 69.102857 
L 505.455291 69.132178 
L 505.615558 69.21413 
L 506.63058 69.296072 
L 506.790846 69.361618 
L 508.179823 69.424534 
L 508.34009 69.506442 
L 509.675645 69.554265 
L 509.835911 69.636152 
L 511.224888 69.683518 
L 511.438577 69.830869 
L 512.400176 69.847239 
L 512.613865 70.010917 
L 512.987821 70.059122 
L 513.201509 70.19002 
L 515.338397 70.248299 
L 515.498664 70.313718 
L 518.169773 70.409136 
L 518.383462 70.441835 
L 521.001149 70.539921 
L 521.214838 70.587152 
L 522.764082 70.651622 
L 522.924348 70.83136 
L 523.93937 70.895796 
L 524.153059 70.9448 
L 526.343369 71.040968 
L 526.557057 71.07134 
L 526.717324 71.169305 
L 527.037857 71.43047 
L 528.31999 71.479426 
L 528.480256 71.561012 
L 529.228167 71.642586 
L 529.388434 71.704578 
L 530.350033 71.769818 
L 530.5103 71.83505 
L 532.326654 71.916581 
L 532.486921 71.981798 
L 532.914298 71.981798 
L 533.074565 72.112212 
L 533.982742 72.208589 
L 534.249853 72.306362 
L 534.890919 72.401747 
L 535.104608 72.434328 
L 535.745674 72.483196 
L 535.905941 72.548346 
L 537.508607 72.629775 
L 537.668873 72.743758 
L 542.263182 72.808882 
L 542.263182 72.808882 
" clip-path="url(#pce14758521)" style="fill: none; stroke: #9467bd; stroke-width: 1.8; stroke-linecap: square"/>
   </g>
   <g id="patch_3">
    <path d="M 60.59 260.44 
L 60.59 25.44 
" style="fill: none; stroke: #000000; stroke-width: 0.8; stroke-linejoin: miter; stroke-linecap: square"/>
   </g>
   <g id="patch_4">
    <path d="M 565.2 260.44 
L 565.2 25.44 
" style="fill: none; stroke: #000000; stroke-width: 0.8; stroke-linejoin: miter; stroke-linecap: square"/>
   </g>
   <g id="patch_5">
    <path d="M 60.59 260.44 
L 565.2 260.44 
" style="fill: none; stroke: #000000; stroke-width: 0.8; stroke-linejoin: miter; stroke-linecap: square"/>
   </g>
   <g id="patch_6">
    <path d="M 60.59 25.44 
L 565.2 25.44 
" style="fill: none; stroke: #000000; stroke-width: 0.8; stroke-linejoin: miter; stroke-linecap: square"/>
   </g>
   <g id="text_16">
    <!-- Timely Transfer Rate (Cumulative) -->
    <g transform="translate(210.472187 19.44) scale(0.12 -0.12)">
     <defs>
      <path id="DejaVuSans-54" d="M -19 4666 
L 3928 4666 
L 3928 4134 
L 2272 4134 
L 2272 0 
L 1638 0 
L 1638 4134 
L -19 4134 
L -19 4666 
z
" transform="scale(0.015625)"/>
      <path id="DejaVuSans-52" d="M 2841 2188 
Q 3044 2119 3236 1894 
Q 3428 1669 3622 1275 
L 4263 0 
L 3584 0 
L 2988 1197 
Q 2756 1666 2539 1819 
Q 2322 1972 1947 1972 
L 1259 1972 
L 1259 0 
L 628 0 
L 628 4666 
L 2053 4666 
Q 2853 4666 3247 4331 
Q 3641 3997 3641 3322 
Q 3641 2881 3436 2590 
Q 3231 2300 2841 2188 
z
M 1259 4147 
L 1259 2491 
L 2053 2491 
Q 2509 2491 2742 2702 
Q 2975 2913 2975 3322 
Q 2975 3731 2742 3939 
Q 2509 4147 2053 4147 
L 1259 4147 
z
" transform="scale(0.015625)"/>
      <path id="DejaVuSans-28" d="M 1984 4856 
Q 1566 4138 1362 3434 
Q 1159 2731 1159 2009 
Q 1159 1288 1364 580 
Q 1569 -128 1984 -844 
L 1484 -844 
Q 1016 -109 783 600 
Q 550 1309 550 2009 
Q 550 2706 781 3412 
Q 1013 4119 1484 4856 
L 1984 4856 
z
" transform="scale(0.015625)"/>
      <path id="DejaVuSans-43" d="M 4122 4306 
L 4122 3641 
Q 3803 3938 3442 4084 
Q 3081 4231 2675 4231 
Q 1875 4231 1450 3742 
Q 1025 3253 1025 2328 
Q 1025 1406 1450 917 
Q 1875 428 2675 428 
Q 3081 428 3442 575 
Q 3803 722 4122 1019 
L 4122 359 
Q 3791 134 3420 21 
Q 3050 -91 2638 -91 
Q 1578 -91 968 557 
Q 359 1206 359 2328 
Q 359 3453 968 4101 
Q 1578 4750 2638 4750 
Q 3056 4750 3426 4639 
Q 3797 4528 4122 4306 
z
" transform="scale(0.015625)"/>
      <path id="DejaVuSans-29" d="M 513 4856 
L 1013 4856 
Q 1481 4119 1714 3412 
Q 1947 2706 1947 2009 
Q 1947 1309 1714 600 
Q 1481 -109 1013 -844 
L 513 -844 
Q 928 -128 1133 580 
Q 1338 1288 1338 2009 
Q 1338 2731 1133 3434 
Q 928 4138 513 4856 
z
" transform="scale(0.015625)"/>
     </defs>
     <use xlink:href="#DejaVuSans-54"/>
     <use xlink:href="#DejaVuSans-69" x="57.958984"/>
     <use xlink:href="#DejaVuSans-6d" x="85.742188"/>
     <use xlink:href="#DejaVuSans-65" x="183.154297"/>
     <use xlink:href="#DejaVuSans-6c" x="244.677734"/>
     <use xlink:href="#DejaVuSans-79" x="272.460938"/>
     <use xlink:href="#DejaVuSans-20" x="331.640625"/>
     <use xlink:href="#DejaVuSans-54" x="363.427734"/>
     <use xlink:href="#DejaVuSans-72" x="409.761719"/>
     <use xlink:href="#DejaVuSans-61" x="450.875"/>
     <use xlink:href="#DejaVuSans-6e" x="512.154297"/>
     <use xlink:href="#DejaVuSans-73" x="575.533203"/>
     <use xlink:href="#DejaVuSans-66" x="627.632812"/>
     <use xlink:href="#DejaVuSans-65" x="662.837891"/>
     <use xlink:href="#DejaVuSans-72" x="724.361328"/>
     <use xlink:href="#DejaVuSans-20" x="765.474609"/>
     <use xlink:href="#DejaVuSans-52" x="797.261719"/>
     <use xlink:href="#DejaVuSans-61" x="864.494141"/>
     <use xlink:href="#DejaVuSans-74" x="925.773438"/>
     <use xlink:href="#DejaVuSans-65" x="964.982422"/>
     <use xlink:href="#DejaVuSans-20" x="1026.505859"/>
     <use xlink:href="#DejaVuSans-28" x="1058.292969"/>
     <use xlink:href="#DejaVuSans-43" x="1097.306641"/>
     <use xlink:href="#DejaVuSans-75" x="1167.130859"/>
     <use xlink:href="#DejaVuSans-6d" x="1230.509766"/>
     <use xlink:href="#DejaVuSans-75" x="1327.921875"/>
     <use xlink:href="#DejaVuSans-6c" x="1391.300781"/>
     <use xlink:href="#DejaVuSans-61" x="1419.083984"/>
     <use xlink:href="#DejaVuSans-74" x="1480.363281"/>
     <use xlink:href="#DejaVuSans-69" x="1519.572266"/>
     <use xlink:href="#DejaVuSans-76" x="1547.355469"/>
     <use xlink:href="#DejaVuSans-65" x="1606.535156"/>
     <use xlink:href="#DejaVuSans-29" x="1668.058594"/>
    </g>
   </g>
   <g id="legend_1">
    <g id="patch_7">
     <path d="M 480.614062 255.44 
L 558.2 255.44 
Q 560.2 255.44 560.2 253.44 
L 560.2 180.493125 
Q 560.2 178.493125 558.2 178.493125 
L 480.614062 178.493125 
Q 478.614062 178.493125 478.614062 180.493125 
L 478.614062 253.44 
Q 478.614062 255.44 480.614062 255.44 
z
" style="fill: #ffffff; opacity: 0.8; stroke: #cccccc; stroke-linejoin: miter"/>
    </g>
    <g id="line2d_32">
     <path d="M 482.614062 186.591563 
L 492.614062 186.591563 
L 502.614062 186.591563 
" style="fill: none; stroke: #1f77b4; stroke-width: 1.8; stroke-linecap: square"/>
    </g>
    <g id="text_17">
     <!-- sheer -->
     <g transform="translate(510.614062 190.091563) scale(0.1 -0.1)">
      <defs>
       <path id="DejaVuSans-68" d="M 3513 2113 
L 3513 0 
L 2938 0 
L 2938 2094 
Q 2938 2591 2744 2837 
Q 2550 3084 2163 3084 
Q 1697 3084 1428 2787 
Q 1159 2491 1159 1978 
L 1159 0 
L 581 0 
L 581 4863 
L 1159 4863 
L 1159 2956 
Q 1366 3272 1645 3428 
Q 1925 3584 2291 3584 
Q 2894 3584 3203 3211 
Q 3513 2838 3513 2113 
z
" transform="scale(0.015625)"/>
      </defs>
      <use xlink:href="#DejaVuSans-73"/>
      <use xlink:href="#DejaVuSans-68" x="52.099609"/>
      <use xlink:href="#DejaVuSans-65" x="115.478516"/>
      <use xlink:href="#DejaVuSans-65" x="177.001953"/>
      <use xlink:href="#DejaVuSans-72" x="238.525391"/>
     </g>
    </g>
    <g id="line2d_33">
     <path d="M 482.614062 201.269688 
L 492.614062 201.269688 
L 502.614062 201.269688 
" style="fill: none; stroke: #ff7f0e; stroke-width: 1.8; stroke-linecap: square"/>
    </g>
    <g id="text_18">
     <!-- actar -->
     <g transform="translate(510.614062 204.769688) scale(0.1 -0.1)">
      <use xlink:href="#DejaVuSans-61"/>
      <use xlink:href="#DejaVuSans-63" x="61.279297"/>
      <use xlink:href="#DejaVuSans-74" x="116.259766"/>
      <use xlink:href="#DejaVuSans-61" x="155.46875"/>
      <use xlink:href="#DejaVuSans-72" x="216.748047"/>
     </g>
    </g>
    <g id="line2d_34">
     <path d="M 482.614062 215.947813 
L 492.614062 215.947813 
L 502.614062 215.947813 
" style="fill: none; stroke: #2ca02c; stroke-width: 1.8; stroke-linecap: square"/>
    </g>
    <g id="text_19">
     <!-- tfsm_dpc -->
     <g transform="translate(510.614062 219.447813) scale(0.1 -0.1)">
      <defs>
       <path id="DejaVuSans-5f" d="M 3263 -1063 
L 3263 -1509 
L -63 -1509 
L -63 -1063 
L 3263 -1063 
z
" transform="scale(0.015625)"/>
       <path id="DejaVuSans-70" d="M 1159 525 
L 1159 -1331 
L 581 -1331 
L 581 3500 
L 1159 3500 
L 1159 2969 
Q 1341 3281 1617 3432 
Q 1894 3584 2278 3584 
Q 2916 3584 3314 3078 
Q 3713 2572 3713 1747 
Q 3713 922 3314 415 
Q 2916 -91 2278 -91 
Q 1894 -91 1617 61 
Q 1341 213 1159 525 
z
M 3116 1747 
Q 3116 2381 2855 2742 
Q 2594 3103 2138 3103 
Q 1681 3103 1420 2742 
Q 1159 2381 1159 1747 
Q 1159 1113 1420 752 
Q 1681 391 2138 391 
Q 2594 391 2855 752 
Q 3116 1113 3116 1747 
z
" transform="scale(0.015625)"/>
      </defs>
      <use xlink:href="#DejaVuSans-74"/>
      <use xlink:href="#DejaVuSans-66" x="39.208984"/>
      <use xlink:href="#DejaVuSans-73" x="74.414062"/>
      <use xlink:href="#DejaVuSans-6d" x="126.513672"/>
      <use xlink:href="#DejaVuSans-5f" x="223.925781"/>
      <use xlink:href="#DejaVuSans-64" x="273.925781"/>
      <use xlink:href="#DejaVuSans-70" x="337.402344"/>
      <use xlink:href="#DejaVuSans-63" x="400.878906"/>
     </g>
    </g>
    <g id="line2d_35">
     <path d="M 482.614062 230.904063 
L 492.614062 230.904063 
L 502.614062 230.904063 
" style="fill: none; stroke: #d62728; stroke-width: 1.8; stroke-linecap: square"/>
    </g>
    <g id="text_20">
     <!-- dst_woa -->
     <g transform="translate(510.614062 234.404063) scale(0.1 -0.1)">
      <defs>
       <path id="DejaVuSans-77" d="M 269 3500 
L 844 3500 
L 1563 769 
L 2278 3500 
L 2956 3500 
L 3675 769 
L 4391 3500 
L 4966 3500 
L 4050 0 
L 3372 0 
L 2619 2869 
L 1863 0 
L 1184 0 
L 269 3500 
z
" transform="scale(0.015625)"/>
      </defs>
      <use xlink:href="#DejaVuSans-64"/>
      <use xlink:href="#DejaVuSans-73" x="63.476562"/>
      <use xlink:href="#DejaVuSans-74" x="115.576172"/>
      <use xlink:href="#DejaVuSans-5f" x="154.785156"/>
      <use xlink:href="#DejaVuSans-77" x="204.785156"/>
      <use xlink:href="#DejaVuSans-6f" x="286.572266"/>
      <use xlink:href="#DejaVuSans-61" x="347.753906"/>
     </g>
    </g>
    <g id="line2d_36">
     <path d="M 482.614062 245.860313 
L 492.614062 245.860313 
L 502.614062 245.860313 
" style="fill: none; stroke: #9467bd; stroke-width: 1.8; stroke-linecap: square"/>
    </g>
    <g id="text_21">
     <!-- trail -->
     <g transform="translate(510.614062 249.360313) scale(0.1 -0.1)">
      <use xlink:href="#DejaVuSans-74"/>
      <use xlink:href="#DejaVuSans-72" x="39.208984"/>
      <use xlink:href="#DejaVuSans-61" x="80.322266"/>
      <use xlink:href="#DejaVuSans-69" x="141.601562"/>
      <use xlink:href="#DejaVuSans-6c" x="169.384766"/>
     </g>
    </g>
   </g>
  </g>
 </g>
 <defs>
  <clipPath id="pce14758521">
   <rect x="60.59" y="25.44" width="504.61" height="235"/>
  </clipPath>
 </defs>
</svg>
