<?xml version="1.0" encoding="utf-8" standalone="no"?>
<!DOCTYPE svg PUBLIC "-//W3C//DTD SVG 1.1//EN"
  "http://www.w3.org/Graphics/SVG/1.1/DTD/svg11.dtd">
<svg xmlns:xlink="http://www.w3.org/1999/xlink" width="576pt" height="302.4pt" viewBox="0 0 576 302.4" xmlns="http://www.w3.org/2000/svg" version="1.1">
 <metadata>
  <rdf:RDF xmlns:dc="http://purl.org/dc/elements/1.1/" xmlns:cc="http://creativecommons.org/ns#" xmlns:rdf="http://www.w3.org/1999/02/22-rdf-syntax-ns#">
   <cc:Work>
    <dc:type rdf:resource="http://purl.org/dc/dcmitype/StillImage"/>
    <dc:date>2025-09-02T20:14:43.677127</dc:date>
    <dc:format>image/svg+xml</dc:format>
    <dc:creator>
     <cc:Agent>
      <dc:title>Matplotlib v3.9.4, https://matplotlib.org/</dc:title>
     </cc:Agent>
    </dc:creator>
   </cc:Work>
  </rdf:RDF>
 </metadata>
 <defs>
  <style type="text/css">*{stroke-linejoin: round; stroke-linecap: butt}</style>
 </defs>
 <g id="figure_1">
  <g id="patch_1">
   <path d="M 0 302.4 
L 576 302.4 
L 576 0 
L 0 0 
z
" style="fill: #ffffff"/>
  </g>
  <g id="axes_1">
   <g id="patch_2">
    <path d="M 54.2 260.44 
L 565.2 260.44 
L 565.2 25.44 
L 54.2 25.44 
z
" style="fill: #ffffff"/>
   </g>
   <g id="matplotlib.axis_1">
    <g id="xtick_1">
     <g id="line2d_1">
      <path d="M 77.371498 260.44 
L 77.371498 25.44 
" clip-path="url(#peed27b0c9c)" style="fill: none; stroke-dasharray: 2.96,1.28; stroke-dashoffset: 0; stroke: #b0b0b0; stroke-opacity: 0.3; stroke-width: 0.8"/>
     </g>
     <g id="line2d_2">
      <defs>
       <path id="m0dbe5d2190" d="M 0 0 
L 0 3.5 
" style="stroke: #000000; stroke-width: 0.8"/>
      </defs>
      <g>
       <use xlink:href="#m0dbe5d2190" x="77.371498" y="260.44" style="stroke: #000000; stroke-width: 0.8"/>
      </g>
     </g>
     <g id="text_1">
      <!-- 0 -->
      <g transform="translate(74.190248 275.038438) scale(0.1 -0.1)">
       <defs>
        <path id="DejaVuSans-30" d="M 2034 4250 
Q 1547 4250 1301 3770 
Q 1056 3291 1056 2328 
Q 1056 1369 1301 889 
Q 1547 409 2034 409 
Q 2525 409 2770 889 
Q 3016 1369 3016 2328 
Q 3016 3291 2770 3770 
Q 2525 4250 2034 4250 
z
M 2034 4750 
Q 2819 4750 3233 4129 
Q 3647 3509 3647 2328 
Q 3647 1150 3233 529 
Q 2819 -91 2034 -91 
Q 1250 -91 836 529 
Q 422 1150 422 2328 
Q 422 3509 836 4129 
Q 1250 4750 2034 4750 
z
" transform="scale(0.015625)"/>
       </defs>
       <use xlink:href="#DejaVuSans-30"/>
      </g>
     </g>
    </g>
    <g id="xtick_2">
     <g id="line2d_3">
      <path d="M 188.920413 260.44 
L 188.920413 25.44 
" clip-path="url(#peed27b0c9c)" style="fill: none; stroke-dasharray: 2.96,1.28; stroke-dashoffset: 0; stroke: #b0b0b0; stroke-opacity: 0.3; stroke-width: 0.8"/>
     </g>
     <g id="line2d_4">
      <g>
       <use xlink:href="#m0dbe5d2190" x="188.920413" y="260.44" style="stroke: #000000; stroke-width: 0.8"/>
      </g>
     </g>
     <g id="text_2">
      <!-- 2000 -->
      <g transform="translate(176.195413 275.038438) scale(0.1 -0.1)">
       <defs>
        <path id="DejaVuSans-32" d="M 1228 531 
L 3431 531 
L 3431 0 
L 469 0 
L 469 531 
Q 828 903 1448 1529 
Q 2069 2156 2228 2338 
Q 2531 2678 2651 2914 
Q 2772 3150 2772 3378 
Q 2772 3750 2511 3984 
Q 2250 4219 1831 4219 
Q 1534 4219 1204 4116 
Q 875 4013 500 3803 
L 500 4441 
Q 881 4594 1212 4672 
Q 1544 4750 1819 4750 
Q 2544 4750 2975 4387 
Q 3406 4025 3406 3419 
Q 3406 3131 3298 2873 
Q 3191 2616 2906 2266 
Q 2828 2175 2409 1742 
Q 1991 1309 1228 531 
z
" transform="scale(0.015625)"/>
       </defs>
       <use xlink:href="#DejaVuSans-32"/>
       <use xlink:href="#DejaVuSans-30" x="63.623047"/>
       <use xlink:href="#DejaVuSans-30" x="127.246094"/>
       <use xlink:href="#DejaVuSans-30" x="190.869141"/>
      </g>
     </g>
    </g>
    <g id="xtick_3">
     <g id="line2d_5">
      <path d="M 300.469327 260.44 
L 300.469327 25.44 
" clip-path="url(#peed27b0c9c)" style="fill: none; stroke-dasharray: 2.96,1.28; stroke-dashoffset: 0; stroke: #b0b0b0; stroke-opacity: 0.3; stroke-width: 0.8"/>
     </g>
     <g id="line2d_6">
      <g>
       <use xlink:href="#m0dbe5d2190" x="300.469327" y="260.44" style="stroke: #000000; stroke-width: 0.8"/>
      </g>
     </g>
     <g id="text_3">
      <!-- 4000 -->
      <g transform="translate(287.744327 275.038438) scale(0.1 -0.1)">
       <defs>
        <path id="DejaVuSans-34" d="M 2419 4116 
L 825 1625 
L 2419 1625 
L 2419 4116 
z
M 2253 4666 
L 3047 4666 
L 3047 1625 
L 3713 1625 
L 3713 1100 
L 3047 1100 
L 3047 0 
L 2419 0 
L 2419 1100 
L 313 1100 
L 313 1709 
L 2253 4666 
z
" transform="scale(0.015625)"/>
       </defs>
       <use xlink:href="#DejaVuSans-34"/>
       <use xlink:href="#DejaVuSans-30" x="63.623047"/>
       <use xlink:href="#DejaVuSans-30" x="127.246094"/>
       <use xlink:href="#DejaVuSans-30" x="190.869141"/>
      </g>
     </g>
    </g>
    <g id="xtick_4">
     <g id="line2d_7">
      <path d="M 412.018242 260.44 
L 412.018242 25.44 
" clip-path="url(#peed27b0c9c)" style="fill: none; stroke-dasharray: 2.96,1.28; stroke-dashoffset: 0; stroke: #b0b0b0; stroke-opacity: 0.3; stroke-width: 0.8"/>
     </g>
     <g id="line2d_8">
      <g>
       <use xlink:href="#m0dbe5d2190" x="412.018242" y="260.44" style="stroke: #000000; stroke-width: 0.8"/>
      </g>
     </g>
     <g id="text_4">
      <!-- 6000 -->
      <g transform="translate(399.293242 275.038438) scale(0.1 -0.1)">
       <defs>
        <path id="DejaVuSans-36" d="M 2113 2584 
Q 1688 2584 1439 2293 
Q 1191 2003 1191 1497 
Q 1191 994 1439 701 
Q 1688 409 2113 409 
Q 2538 409 2786 701 
Q 3034 994 3034 1497 
Q 3034 2003 2786 2293 
Q 2538 2584 2113 2584 
z
M 3366 4563 
L 3366 3988 
Q 3128 4100 2886 4159 
Q 2644 4219 2406 4219 
Q 1781 4219 1451 3797 
Q 1122 3375 1075 2522 
Q 1259 2794 1537 2939 
Q 1816 3084 2150 3084 
Q 2853 3084 3261 2657 
Q 3669 2231 3669 1497 
Q 3669 778 3244 343 
Q 2819 -91 2113 -91 
Q 1303 -91 875 529 
Q 447 1150 447 2328 
Q 447 3434 972 4092 
Q 1497 4750 2381 4750 
Q 2619 4750 2861 4703 
Q 3103 4656 3366 4563 
z
" transform="scale(0.015625)"/>
       </defs>
       <use xlink:href="#DejaVuSans-36"/>
       <use xlink:href="#DejaVuSans-30" x="63.623047"/>
       <use xlink:href="#DejaVuSans-30" x="127.246094"/>
       <use xlink:href="#DejaVuSans-30" x="190.869141"/>
      </g>
     </g>
    </g>
    <g id="xtick_5">
     <g id="line2d_9">
      <path d="M 523.567156 260.44 
L 523.567156 25.44 
" clip-path="url(#peed27b0c9c)" style="fill: none; stroke-dasharray: 2.96,1.28; stroke-dashoffset: 0; stroke: #b0b0b0; stroke-opacity: 0.3; stroke-width: 0.8"/>
     </g>
     <g id="line2d_10">
      <g>
       <use xlink:href="#m0dbe5d2190" x="523.567156" y="260.44" style="stroke: #000000; stroke-width: 0.8"/>
      </g>
     </g>
     <g id="text_5">
      <!-- 8000 -->
      <g transform="translate(510.842156 275.038438) scale(0.1 -0.1)">
       <defs>
        <path id="DejaVuSans-38" d="M 2034 2216 
Q 1584 2216 1326 1975 
Q 1069 1734 1069 1313 
Q 1069 891 1326 650 
Q 1584 409 2034 409 
Q 2484 409 2743 651 
Q 3003 894 3003 1313 
Q 3003 1734 2745 1975 
Q 2488 2216 2034 2216 
z
M 1403 2484 
Q 997 2584 770 2862 
Q 544 3141 544 3541 
Q 544 4100 942 4425 
Q 1341 4750 2034 4750 
Q 2731 4750 3128 4425 
Q 3525 4100 3525 3541 
Q 3525 3141 3298 2862 
Q 3072 2584 2669 2484 
Q 3125 2378 3379 2068 
Q 3634 1759 3634 1313 
Q 3634 634 3220 271 
Q 2806 -91 2034 -91 
Q 1263 -91 848 271 
Q 434 634 434 1313 
Q 434 1759 690 2068 
Q 947 2378 1403 2484 
z
M 1172 3481 
Q 1172 3119 1398 2916 
Q 1625 2713 2034 2713 
Q 2441 2713 2670 2916 
Q 2900 3119 2900 3481 
Q 2900 3844 2670 4047 
Q 2441 4250 2034 4250 
Q 1625 4250 1398 4047 
Q 1172 3844 1172 3481 
z
" transform="scale(0.015625)"/>
       </defs>
       <use xlink:href="#DejaVuSans-38"/>
       <use xlink:href="#DejaVuSans-30" x="63.623047"/>
       <use xlink:href="#DejaVuSans-30" x="127.246094"/>
       <use xlink:href="#DejaVuSans-30" x="190.869141"/>
      </g>
     </g>
    </g>
    <g id="text_6">
     <!-- round -->
     <g transform="translate(295.185937 288.716563) scale(0.1 -0.1)">
      <defs>
       <path id="DejaVuSans-72" d="M 2631 2963 
Q 2534 3019 2420 3045 
Q 2306 3072 2169 3072 
Q 1681 3072 1420 2755 
Q 1159 2438 1159 1844 
L 1159 0 
L 581 0 
L 581 3500 
L 1159 3500 
L 1159 2956 
Q 1341 3275 1631 3429 
Q 1922 3584 2338 3584 
Q 2397 3584 2469 3576 
Q 2541 3569 2628 3553 
L 2631 2963 
z
" transform="scale(0.015625)"/>
       <path id="DejaVuSans-6f" d="M 1959 3097 
Q 1497 3097 1228 2736 
Q 959 2375 959 1747 
Q 959 1119 1226 758 
Q 1494 397 1959 397 
Q 2419 397 2687 759 
Q 2956 1122 2956 1747 
Q 2956 2369 2687 2733 
Q 2419 3097 1959 3097 
z
M 1959 3584 
Q 2709 3584 3137 3096 
Q 3566 2609 3566 1747 
Q 3566 888 3137 398 
Q 2709 -91 1959 -91 
Q 1206 -91 779 398 
Q 353 888 353 1747 
Q 353 2609 779 3096 
Q 1206 3584 1959 3584 
z
" transform="scale(0.015625)"/>
       <path id="DejaVuSans-75" d="M 544 1381 
L 544 3500 
L 1119 3500 
L 1119 1403 
Q 1119 906 1312 657 
Q 1506 409 1894 409 
Q 2359 409 2629 706 
Q 2900 1003 2900 1516 
L 2900 3500 
L 3475 3500 
L 3475 0 
L 2900 0 
L 2900 538 
Q 2691 219 2414 64 
Q 2138 -91 1772 -91 
Q 1169 -91 856 284 
Q 544 659 544 1381 
z
M 1991 3584 
L 1991 3584 
z
" transform="scale(0.015625)"/>
       <path id="DejaVuSans-6e" d="M 3513 2113 
L 3513 0 
L 2938 0 
L 2938 2094 
Q 2938 2591 2744 2837 
Q 2550 3084 2163 3084 
Q 1697 3084 1428 2787 
Q 1159 2491 1159 1978 
L 1159 0 
L 581 0 
L 581 3500 
L 1159 3500 
L 1159 2956 
Q 1366 3272 1645 3428 
Q 1925 3584 2291 3584 
Q 2894 3584 3203 3211 
Q 3513 2838 3513 2113 
z
" transform="scale(0.015625)"/>
       <path id="DejaVuSans-64" d="M 2906 2969 
L 2906 4863 
L 3481 4863 
L 3481 0 
L 2906 0 
L 2906 525 
Q 2725 213 2448 61 
Q 2172 -91 1784 -91 
Q 1150 -91 751 415 
Q 353 922 353 1747 
Q 353 2572 751 3078 
Q 1150 3584 1784 3584 
Q 2172 3584 2448 3432 
Q 2725 3281 2906 2969 
z
M 947 1747 
Q 947 1113 1208 752 
Q 1469 391 1925 391 
Q 2381 391 2643 752 
Q 2906 1113 2906 1747 
Q 2906 2381 2643 2742 
Q 2381 3103 1925 3103 
Q 1469 3103 1208 2742 
Q 947 2381 947 1747 
z
" transform="scale(0.015625)"/>
      </defs>
      <use xlink:href="#DejaVuSans-72"/>
      <use xlink:href="#DejaVuSans-6f" x="38.863281"/>
      <use xlink:href="#DejaVuSans-75" x="100.044922"/>
      <use xlink:href="#DejaVuSans-6e" x="163.423828"/>
      <use xlink:href="#DejaVuSans-64" x="226.802734"/>
     </g>
    </g>
   </g>
   <g id="matplotlib.axis_2">
    <g id="ytick_1">
     <g id="line2d_11">
      <path d="M 54.2 228.394545 
L 565.2 228.394545 
" clip-path="url(#peed27b0c9c)" style="fill: none; stroke-dasharray: 2.96,1.28; stroke-dashoffset: 0; stroke: #b0b0b0; stroke-opacity: 0.3; stroke-width: 0.8"/>
     </g>
     <g id="line2d_12">
      <defs>
       <path id="mb2d7b49db9" d="M 0 0 
L -3.5 0 
" style="stroke: #000000; stroke-width: 0.8"/>
      </defs>
      <g>
       <use xlink:href="#mb2d7b49db9" x="54.2" y="228.394545" style="stroke: #000000; stroke-width: 0.8"/>
      </g>
     </g>
     <g id="text_7">
      <!-- 0.75 -->
      <g transform="translate(24.934375 232.193764) scale(0.1 -0.1)">
       <defs>
        <path id="DejaVuSans-2e" d="M 684 794 
L 1344 794 
L 1344 0 
L 684 0 
L 684 794 
z
" transform="scale(0.015625)"/>
        <path id="DejaVuSans-37" d="M 525 4666 
L 3525 4666 
L 3525 4397 
L 1831 0 
L 1172 0 
L 2766 4134 
L 525 4134 
L 525 4666 
z
" transform="scale(0.015625)"/>
        <path id="DejaVuSans-35" d="M 691 4666 
L 3169 4666 
L 3169 4134 
L 1269 4134 
L 1269 2991 
Q 1406 3038 1543 3061 
Q 1681 3084 1819 3084 
Q 2600 3084 3056 2656 
Q 3513 2228 3513 1497 
Q 3513 744 3044 326 
Q 2575 -91 1722 -91 
Q 1428 -91 1123 -41 
Q 819 9 494 109 
L 494 744 
Q 775 591 1075 516 
Q 1375 441 1709 441 
Q 2250 441 2565 725 
Q 2881 1009 2881 1497 
Q 2881 1984 2565 2268 
Q 2250 2553 1709 2553 
Q 1456 2553 1204 2497 
Q 953 2441 691 2322 
L 691 4666 
z
" transform="scale(0.015625)"/>
       </defs>
       <use xlink:href="#DejaVuSans-30"/>
       <use xlink:href="#DejaVuSans-2e" x="63.623047"/>
       <use xlink:href="#DejaVuSans-37" x="95.410156"/>
       <use xlink:href="#DejaVuSans-35" x="159.033203"/>
      </g>
     </g>
    </g>
    <g id="ytick_2">
     <g id="line2d_13">
      <path d="M 54.2 189.94 
L 565.2 189.94 
" clip-path="url(#peed27b0c9c)" style="fill: none; stroke-dasharray: 2.96,1.28; stroke-dashoffset: 0; stroke: #b0b0b0; stroke-opacity: 0.3; stroke-width: 0.8"/>
     </g>
     <g id="line2d_14">
      <g>
       <use xlink:href="#mb2d7b49db9" x="54.2" y="189.94" style="stroke: #000000; stroke-width: 0.8"/>
      </g>
     </g>
     <g id="text_8">
      <!-- 0.80 -->
      <g transform="translate(24.934375 193.739219) scale(0.1 -0.1)">
       <use xlink:href="#DejaVuSans-30"/>
       <use xlink:href="#DejaVuSans-2e" x="63.623047"/>
       <use xlink:href="#DejaVuSans-38" x="95.410156"/>
       <use xlink:href="#DejaVuSans-30" x="159.033203"/>
      </g>
     </g>
    </g>
    <g id="ytick_3">
     <g id="line2d_15">
      <path d="M 54.2 151.485455 
L 565.2 151.485455 
" clip-path="url(#peed27b0c9c)" style="fill: none; stroke-dasharray: 2.96,1.28; stroke-dashoffset: 0; stroke: #b0b0b0; stroke-opacity: 0.3; stroke-width: 0.8"/>
     </g>
     <g id="line2d_16">
      <g>
       <use xlink:href="#mb2d7b49db9" x="54.2" y="151.485455" style="stroke: #000000; stroke-width: 0.8"/>
      </g>
     </g>
     <g id="text_9">
      <!-- 0.85 -->
      <g transform="translate(24.934375 155.284673) scale(0.1 -0.1)">
       <use xlink:href="#DejaVuSans-30"/>
       <use xlink:href="#DejaVuSans-2e" x="63.623047"/>
       <use xlink:href="#DejaVuSans-38" x="95.410156"/>
       <use xlink:href="#DejaVuSans-35" x="159.033203"/>
      </g>
     </g>
    </g>
    <g id="ytick_4">
     <g id="line2d_17">
      <path d="M 54.2 113.030909 
L 565.2 113.030909 
" clip-path="url(#peed27b0c9c)" style="fill: none; stroke-dasharray: 2.96,1.28; stroke-dashoffset: 0; stroke: #b0b0b0; stroke-opacity: 0.3; stroke-width: 0.8"/>
     </g>
     <g id="line2d_18">
      <g>
       <use xlink:href="#mb2d7b49db9" x="54.2" y="113.030909" style="stroke: #000000; stroke-width: 0.8"/>
      </g>
     </g>
     <g id="text_10">
      <!-- 0.90 -->
      <g transform="translate(24.934375 116.830128) scale(0.1 -0.1)">
       <defs>
        <path id="DejaVuSans-39" d="M 703 97 
L 703 672 
Q 941 559 1184 500 
Q 1428 441 1663 441 
Q 2288 441 2617 861 
Q 2947 1281 2994 2138 
Q 2813 1869 2534 1725 
Q 2256 1581 1919 1581 
Q 1219 1581 811 2004 
Q 403 2428 403 3163 
Q 403 3881 828 4315 
Q 1253 4750 1959 4750 
Q 2769 4750 3195 4129 
Q 3622 3509 3622 2328 
Q 3622 1225 3098 567 
Q 2575 -91 1691 -91 
Q 1453 -91 1209 -44 
Q 966 3 703 97 
z
M 1959 2075 
Q 2384 2075 2632 2365 
Q 2881 2656 2881 3163 
Q 2881 3666 2632 3958 
Q 2384 4250 1959 4250 
Q 1534 4250 1286 3958 
Q 1038 3666 1038 3163 
Q 1038 2656 1286 2365 
Q 1534 2075 1959 2075 
z
" transform="scale(0.015625)"/>
       </defs>
       <use xlink:href="#DejaVuSans-30"/>
       <use xlink:href="#DejaVuSans-2e" x="63.623047"/>
       <use xlink:href="#DejaVuSans-39" x="95.410156"/>
       <use xlink:href="#DejaVuSans-30" x="159.033203"/>
      </g>
     </g>
    </g>
    <g id="ytick_5">
     <g id="line2d_19">
      <path d="M 54.2 74.576364 
L 565.2 74.576364 
" clip-path="url(#peed27b0c9c)" style="fill: none; stroke-dasharray: 2.96,1.28; stroke-dashoffset: 0; stroke: #b0b0b0; stroke-opacity: 0.3; stroke-width: 0.8"/>
     </g>
     <g id="line2d_20">
      <g>
       <use xlink:href="#mb2d7b49db9" x="54.2" y="74.576364" style="stroke: #000000; stroke-width: 0.8"/>
      </g>
     </g>
     <g id="text_11">
      <!-- 0.95 -->
      <g transform="translate(24.934375 78.375582) scale(0.1 -0.1)">
       <use xlink:href="#DejaVuSans-30"/>
       <use xlink:href="#DejaVuSans-2e" x="63.623047"/>
       <use xlink:href="#DejaVuSans-39" x="95.410156"/>
       <use xlink:href="#DejaVuSans-35" x="159.033203"/>
      </g>
     </g>
    </g>
    <g id="ytick_6">
     <g id="line2d_21">
      <path d="M 54.2 36.121818 
L 565.2 36.121818 
" clip-path="url(#peed27b0c9c)" style="fill: none; stroke-dasharray: 2.96,1.28; stroke-dashoffset: 0; stroke: #b0b0b0; stroke-opacity: 0.3; stroke-width: 0.8"/>
     </g>
     <g id="line2d_22">
      <g>
       <use xlink:href="#mb2d7b49db9" x="54.2" y="36.121818" style="stroke: #000000; stroke-width: 0.8"/>
      </g>
     </g>
     <g id="text_12">
      <!-- 1.00 -->
      <g transform="translate(24.934375 39.921037) scale(0.1 -0.1)">
       <defs>
        <path id="DejaVuSans-31" d="M 794 531 
L 1825 531 
L 1825 4091 
L 703 3866 
L 703 4441 
L 1819 4666 
L 2450 4666 
L 2450 531 
L 3481 531 
L 3481 0 
L 794 0 
L 794 531 
z
" transform="scale(0.015625)"/>
       </defs>
       <use xlink:href="#DejaVuSans-31"/>
       <use xlink:href="#DejaVuSans-2e" x="63.623047"/>
       <use xlink:href="#DejaVuSans-30" x="95.410156"/>
       <use xlink:href="#DejaVuSans-30" x="159.033203"/>
      </g>
     </g>
    </g>
    <g id="text_13">
     <!-- cumulative timely transfer rate -->
     <g transform="translate(18.854688 221.048594) rotate(-90) scale(0.1 -0.1)">
      <defs>
       <path id="DejaVuSans-63" d="M 3122 3366 
L 3122 2828 
Q 2878 2963 2633 3030 
Q 2388 3097 2138 3097 
Q 1578 3097 1268 2742 
Q 959 2388 959 1747 
Q 959 1106 1268 751 
Q 1578 397 2138 397 
Q 2388 397 2633 464 
Q 2878 531 3122 666 
L 3122 134 
Q 2881 22 2623 -34 
Q 2366 -91 2075 -91 
Q 1284 -91 818 406 
Q 353 903 353 1747 
Q 353 2603 823 3093 
Q 1294 3584 2113 3584 
Q 2378 3584 2631 3529 
Q 2884 3475 3122 3366 
z
" transform="scale(0.015625)"/>
       <path id="DejaVuSans-6d" d="M 3328 2828 
Q 3544 3216 3844 3400 
Q 4144 3584 4550 3584 
Q 5097 3584 5394 3201 
Q 5691 2819 5691 2113 
L 5691 0 
L 5113 0 
L 5113 2094 
Q 5113 2597 4934 2840 
Q 4756 3084 4391 3084 
Q 3944 3084 3684 2787 
Q 3425 2491 3425 1978 
L 3425 0 
L 2847 0 
L 2847 2094 
Q 2847 2600 2669 2842 
Q 2491 3084 2119 3084 
Q 1678 3084 1418 2786 
Q 1159 2488 1159 1978 
L 1159 0 
L 581 0 
L 581 3500 
L 1159 3500 
L 1159 2956 
Q 1356 3278 1631 3431 
Q 1906 3584 2284 3584 
Q 2666 3584 2933 3390 
Q 3200 3197 3328 2828 
z
" transform="scale(0.015625)"/>
       <path id="DejaVuSans-6c" d="M 603 4863 
L 1178 4863 
L 1178 0 
L 603 0 
L 603 4863 
z
" transform="scale(0.015625)"/>
       <path id="DejaVuSans-61" d="M 2194 1759 
Q 1497 1759 1228 1600 
Q 959 1441 959 1056 
Q 959 750 1161 570 
Q 1363 391 1709 391 
Q 2188 391 2477 730 
Q 2766 1069 2766 1631 
L 2766 1759 
L 2194 1759 
z
M 3341 1997 
L 3341 0 
L 2766 0 
L 2766 531 
Q 2569 213 2275 61 
Q 1981 -91 1556 -91 
Q 1019 -91 701 211 
Q 384 513 384 1019 
Q 384 1609 779 1909 
Q 1175 2209 1959 2209 
L 2766 2209 
L 2766 2266 
Q 2766 2663 2505 2880 
Q 2244 3097 1772 3097 
Q 1472 3097 1187 3025 
Q 903 2953 641 2809 
L 641 3341 
Q 956 3463 1253 3523 
Q 1550 3584 1831 3584 
Q 2591 3584 2966 3190 
Q 3341 2797 3341 1997 
z
" transform="scale(0.015625)"/>
       <path id="DejaVuSans-74" d="M 1172 4494 
L 1172 3500 
L 2356 3500 
L 2356 3053 
L 1172 3053 
L 1172 1153 
Q 1172 725 1289 603 
Q 1406 481 1766 481 
L 2356 481 
L 2356 0 
L 1766 0 
Q 1100 0 847 248 
Q 594 497 594 1153 
L 594 3053 
L 172 3053 
L 172 3500 
L 594 3500 
L 594 4494 
L 1172 4494 
z
" transform="scale(0.015625)"/>
       <path id="DejaVuSans-69" d="M 603 3500 
L 1178 3500 
L 1178 0 
L 603 0 
L 603 3500 
z
M 603 4863 
L 1178 4863 
L 1178 4134 
L 603 4134 
L 603 4863 
z
" transform="scale(0.015625)"/>
       <path id="DejaVuSans-76" d="M 191 3500 
L 800 3500 
L 1894 563 
L 2988 3500 
L 3597 3500 
L 2284 0 
L 1503 0 
L 191 3500 
z
" transform="scale(0.015625)"/>
       <path id="DejaVuSans-65" d="M 3597 1894 
L 3597 1613 
L 953 1613 
Q 991 1019 1311 708 
Q 1631 397 2203 397 
Q 2534 397 2845 478 
Q 3156 559 3463 722 
L 3463 178 
Q 3153 47 2828 -22 
Q 2503 -91 2169 -91 
Q 1331 -91 842 396 
Q 353 884 353 1716 
Q 353 2575 817 3079 
Q 1281 3584 2069 3584 
Q 2775 3584 3186 3129 
Q 3597 2675 3597 1894 
z
M 3022 2063 
Q 3016 2534 2758 2815 
Q 2500 3097 2075 3097 
Q 1594 3097 1305 2825 
Q 1016 2553 972 2059 
L 3022 2063 
z
" transform="scale(0.015625)"/>
       <path id="DejaVuSans-20" transform="scale(0.015625)"/>
       <path id="DejaVuSans-79" d="M 2059 -325 
Q 1816 -950 1584 -1140 
Q 1353 -1331 966 -1331 
L 506 -1331 
L 506 -850 
L 844 -850 
Q 1081 -850 1212 -737 
Q 1344 -625 1503 -206 
L 1606 56 
L 191 3500 
L 800 3500 
L 1894 763 
L 2988 3500 
L 3597 3500 
L 2059 -325 
z
" transform="scale(0.015625)"/>
       <path id="DejaVuSans-73" d="M 2834 3397 
L 2834 2853 
Q 2591 2978 2328 3040 
Q 2066 3103 1784 3103 
Q 1356 3103 1142 2972 
Q 928 2841 928 2578 
Q 928 2378 1081 2264 
Q 1234 2150 1697 2047 
L 1894 2003 
Q 2506 1872 2764 1633 
Q 3022 1394 3022 966 
Q 3022 478 2636 193 
Q 2250 -91 1575 -91 
Q 1294 -91 989 -36 
Q 684 19 347 128 
L 347 722 
Q 666 556 975 473 
Q 1284 391 1588 391 
Q 1994 391 2212 530 
Q 2431 669 2431 922 
Q 2431 1156 2273 1281 
Q 2116 1406 1581 1522 
L 1381 1569 
Q 847 1681 609 1914 
Q 372 2147 372 2553 
Q 372 3047 722 3315 
Q 1072 3584 1716 3584 
Q 2034 3584 2315 3537 
Q 2597 3491 2834 3397 
z
" transform="scale(0.015625)"/>
       <path id="DejaVuSans-66" d="M 2375 4863 
L 2375 4384 
L 1825 4384 
Q 1516 4384 1395 4259 
Q 1275 4134 1275 3809 
L 1275 3500 
L 2222 3500 
L 2222 3053 
L 1275 3053 
L 1275 0 
L 697 0 
L 697 3053 
L 147 3053 
L 147 3500 
L 697 3500 
L 697 3744 
Q 697 4328 969 4595 
Q 1241 4863 1831 4863 
L 2375 4863 
z
" transform="scale(0.015625)"/>
      </defs>
      <use xlink:href="#DejaVuSans-63"/>
      <use xlink:href="#DejaVuSans-75" x="54.980469"/>
      <use xlink:href="#DejaVuSans-6d" x="118.359375"/>
      <use xlink:href="#DejaVuSans-75" x="215.771484"/>
      <use xlink:href="#DejaVuSans-6c" x="279.150391"/>
      <use xlink:href="#DejaVuSans-61" x="306.933594"/>
      <use xlink:href="#DejaVuSans-74" x="368.212891"/>
      <use xlink:href="#DejaVuSans-69" x="407.421875"/>
      <use xlink:href="#DejaVuSans-76" x="435.205078"/>
      <use xlink:href="#DejaVuSans-65" x="494.384766"/>
      <use xlink:href="#DejaVuSans-20" x="555.908203"/>
      <use xlink:href="#DejaVuSans-74" x="587.695312"/>
      <use xlink:href="#DejaVuSans-69" x="626.904297"/>
      <use xlink:href="#DejaVuSans-6d" x="654.6875"/>
      <use xlink:href="#DejaVuSans-65" x="752.099609"/>
      <use xlink:href="#DejaVuSans-6c" x="813.623047"/>
      <use xlink:href="#DejaVuSans-79" x="841.40625"/>
      <use xlink:href="#DejaVuSans-20" x="900.585938"/>
      <use xlink:href="#DejaVuSans-74" x="932.373047"/>
      <use xlink:href="#DejaVuSans-72" x="971.582031"/>
      <use xlink:href="#DejaVuSans-61" x="1012.695312"/>
      <use xlink:href="#DejaVuSans-6e" x="1073.974609"/>
      <use xlink:href="#DejaVuSans-73" x="1137.353516"/>
      <use xlink:href="#DejaVuSans-66" x="1189.453125"/>
      <use xlink:href="#DejaVuSans-65" x="1224.658203"/>
      <use xlink:href="#DejaVuSans-72" x="1286.181641"/>
      <use xlink:href="#DejaVuSans-20" x="1327.294922"/>
      <use xlink:href="#DejaVuSans-72" x="1359.082031"/>
      <use xlink:href="#DejaVuSans-61" x="1400.195312"/>
      <use xlink:href="#DejaVuSans-74" x="1461.474609"/>
      <use xlink:href="#DejaVuSans-65" x="1500.683594"/>
     </g>
    </g>
   </g>
   <g id="line2d_23">
    <path d="M 77.427273 249.758182 
L 77.483047 160.168739 
L 77.538822 166.722161 
L 77.594596 169.430909 
L 77.650371 165.572763 
L 77.873468 103.865577 
L 77.985017 115.246397 
L 78.096566 102.883182 
L 78.152341 107.379442 
L 78.208115 111.210576 
L 78.542762 89.329365 
L 78.598536 92.695106 
L 78.654311 89.914566 
L 79.044732 77.243731 
L 79.490928 68.131226 
L 80.048672 61.259949 
L 80.717966 55.774003 
L 81.052612 53.973991 
L 81.108387 57.933274 
L 81.164161 57.680735 
L 81.387259 56.642805 
L 81.554583 63.558729 
L 81.721906 62.50007 
L 81.77768 65.796045 
L 81.833455 65.516392 
L 81.945004 64.942987 
L 82.000778 68.037534 
L 82.056553 67.638787 
L 82.558523 64.632422 
L 82.725846 63.625287 
L 82.781621 64.962727 
L 82.837395 64.667428 
L 82.948944 64.036257 
L 83.283591 81.485349 
L 83.450914 80.638885 
L 83.674012 89.609107 
L 83.729786 89.278338 
L 83.785561 92.322486 
L 83.841335 91.741859 
L 83.89711 91.407036 
L 83.952884 94.598597 
L 84.008659 93.950206 
L 84.064433 93.355264 
L 84.120208 96.101562 
L 84.175982 95.619474 
L 84.231757 94.774839 
L 84.287531 97.418914 
L 84.343305 96.80693 
L 84.39908 96.226211 
L 84.454854 98.801033 
L 84.510629 98.156868 
L 84.733727 95.31782 
L 84.789501 97.278988 
L 84.845276 96.516961 
L 85.458795 89.908563 
L 85.514569 91.449276 
L 85.570343 90.848953 
L 86.351186 83.301204 
L 86.964705 80.537403 
L 87.912871 76.200609 
L 88.582164 73.622401 
L 88.637939 74.609091 
L 88.693713 74.355286 
L 89.251458 71.746952 
L 90.366947 66.619893 
L 90.422721 66.893715 
L 90.478496 66.684439 
L 91.370887 63.75827 
L 91.426662 64.391106 
L 91.593985 68.907221 
L 91.705534 70.03634 
L 91.761308 69.948829 
L 91.817083 72.203732 
L 91.872857 72.069816 
L 91.928632 71.920344 
L 91.984406 73.971996 
L 92.040181 73.781903 
L 93.769189 67.911008 
L 93.824963 68.317692 
L 93.880738 68.133698 
L 94.103835 67.51475 
L 94.215384 68.285872 
L 94.271159 68.090651 
L 95.107776 65.729951 
L 96.557912 62.241669 
L 97.28298 60.614814 
L 97.617626 64.955493 
L 97.78495 64.616296 
L 97.840724 65.250522 
L 97.896499 65.125648 
L 97.952273 64.994138 
L 98.063822 65.829411 
L 98.119596 65.745159 
L 99.79283 62.492714 
L 100.127477 61.984033 
L 100.183251 62.389909 
L 100.239026 62.284956 
L 101.633387 59.719151 
L 101.689162 59.972349 
L 101.744936 59.890719 
L 101.800711 59.809646 
L 101.856485 60.181499 
L 101.912259 60.102468 
L 102.191132 59.697389 
L 102.246906 59.960742 
L 102.302681 59.863172 
L 102.41423 59.687697 
L 102.470004 60.044591 
L 102.525778 59.957435 
L 103.195072 59.024035 
L 103.250846 59.385306 
L 103.306621 59.324839 
L 103.585493 58.983166 
L 103.641268 59.500892 
L 103.697042 59.431839 
L 103.92014 59.137954 
L 103.975914 59.585026 
L 104.031689 59.517001 
L 104.589433 58.783185 
L 104.645208 59.431617 
L 104.700982 59.373557 
L 104.756757 59.305855 
L 104.812531 59.860408 
L 104.868306 59.800766 
L 105.091404 59.527666 
L 105.147178 60.037902 
L 105.202952 59.966854 
L 105.314501 59.842791 
L 105.370276 60.284583 
L 105.42605 60.222568 
L 106.541539 58.938051 
L 106.708863 60.243823 
L 106.764637 60.200721 
L 106.876186 61.121063 
L 106.931961 61.07477 
L 107.099284 60.923592 
L 107.155058 61.188398 
L 107.210833 61.138634 
L 107.935901 60.30314 
L 108.214773 59.989577 
L 108.437871 61.47433 
L 108.493645 61.420497 
L 108.772518 61.119119 
L 108.828292 61.696381 
L 108.884067 61.617746 
L 109.162939 61.306223 
L 109.497586 63.264957 
L 109.55336 63.221103 
L 110.222654 62.465829 
L 110.278428 62.769547 
L 110.334203 62.714565 
L 110.836173 62.162536 
L 110.891947 62.451642 
L 110.947722 62.398675 
L 111.561241 61.725762 
L 111.617015 61.961992 
L 111.672789 61.905053 
L 111.951662 61.645542 
L 112.063211 62.331875 
L 112.118985 63.011776 
L 112.17476 62.949466 
L 112.230534 62.894871 
L 112.342083 63.447765 
L 112.397857 63.390036 
L 112.788279 63.012134 
L 112.844053 63.293752 
L 112.899828 63.249592 
L 113.346023 62.895054 
L 113.401798 62.869631 
L 113.457572 63.34688 
L 113.513347 63.29456 
L 113.792219 63.04383 
L 113.847993 63.678455 
L 113.903768 63.642262 
L 114.071091 63.494462 
L 114.126866 64.039742 
L 114.18264 63.997748 
L 114.238415 63.94704 
L 114.405738 64.375129 
L 118.477273 60.855098 
L 118.588822 61.242539 
L 118.644597 61.192928 
L 119.760086 60.31827 
L 119.81586 60.625895 
L 119.871635 60.591127 
L 120.540928 60.135489 
L 120.596703 60.274248 
L 120.652477 60.243561 
L 121.43332 59.824064 
L 121.600643 60.775898 
L 121.656417 60.733009 
L 121.767966 61.106658 
L 121.823741 61.0708 
L 123.106553 60.189183 
L 123.162328 60.36734 
L 123.218102 60.334407 
L 123.552749 60.130326 
L 123.720072 60.959108 
L 123.775847 60.934955 
L 123.887396 60.849459 
L 123.94317 60.995221 
L 123.998945 60.967973 
L 125.44908 60.132026 
L 125.504855 60.33977 
L 125.560629 60.312761 
L 125.839502 60.131277 
L 125.895276 60.430941 
L 125.951051 60.397645 
L 126.341472 60.174408 
L 126.397246 60.276937 
L 126.453021 60.243765 
L 126.56457 60.300637 
L 126.731893 60.213785 
L 126.787667 60.364583 
L 126.843442 60.333512 
L 128.683999 59.368193 
L 128.739773 59.747429 
L 128.795548 59.713113 
L 129.07442 59.537242 
L 129.130195 59.754324 
L 129.185969 59.72124 
L 129.743714 59.439801 
L 129.799488 59.77047 
L 129.855263 59.742687 
L 130.691879 59.285682 
L 130.747654 59.470601 
L 130.803428 59.437381 
L 131.918917 58.96827 
L 131.974692 59.179656 
L 132.030466 59.157971 
L 133.20173 58.60347 
L 133.313279 58.649106 
L 133.480602 58.573063 
L 133.536377 58.7293 
L 133.592151 58.701725 
L 133.759475 58.606317 
L 133.871023 58.720897 
L 136.213551 57.798535 
L 136.3251 57.845713 
L 136.771295 57.766773 
L 137.663687 57.625201 
L 137.719461 57.905917 
L 137.775235 57.882105 
L 138.388755 57.755135 
L 138.500303 57.850539 
L 139.225371 57.607058 
L 139.33692 57.710792 
L 139.448469 57.675943 
L 139.504244 57.87985 
L 139.560018 57.860819 
L 140.508184 57.557629 
L 140.675507 57.862046 
L 141.177477 57.804923 
L 141.344801 57.811956 
L 142.237192 57.593356 
L 142.404515 57.836772 
L 142.627613 57.757217 
L 142.683388 57.956079 
L 142.739162 57.937072 
L 142.850711 57.896318 
L 142.96226 58.020889 
L 143.910426 57.724696 
L 144.245073 57.609122 
L 144.356621 57.727448 
L 145.360562 57.475064 
L 145.472111 57.589187 
L 145.58366 57.552025 
L 145.639434 57.775411 
L 145.695208 57.752666 
L 145.918306 57.669282 
L 145.974081 57.850419 
L 146.029855 57.825044 
L 146.754923 57.564039 
L 146.866472 57.667783 
L 146.922246 57.649993 
L 147.033795 57.799231 
L 147.08957 57.779917 
L 147.201119 57.876418 
L 149.208999 57.192664 
L 150.826458 56.810367 
L 150.938007 56.929994 
L 153.336309 56.336748 
L 153.392084 56.54266 
L 153.447858 56.520686 
L 154.2287 56.398939 
L 463.274968 56.507901 
L 463.665389 56.526099 
L 541.972727 56.598137 
L 541.972727 56.598137 
" clip-path="url(#peed27b0c9c)" style="fill: none; stroke: #1f77b4; stroke-width: 1.8; stroke-linecap: square"/>
   </g>
   <g id="line2d_24">
    <path d="M 77.427273 90.28315 
L 77.594596 48.813087 
L 77.706145 44.303636 
L 77.817694 58.06102 
L 77.873468 55.814046 
L 78.152341 48.718394 
L 78.208115 51.645941 
L 78.26389 50.864775 
L 78.375439 49.20345 
L 78.431213 52.67253 
L 78.486987 51.857694 
L 78.821634 48.227529 
L 78.877409 50.771169 
L 78.933183 50.337916 
L 79.323604 47.312664 
L 79.379379 50.760841 
L 79.435153 50.428022 
L 79.714025 48.608562 
L 79.7698 50.543681 
L 79.825574 50.253836 
L 80.104447 48.843922 
L 80.160221 51.129421 
L 80.215996 50.809318 
L 80.27177 50.499094 
L 80.327545 53.167923 
L 80.383319 52.86075 
L 80.439093 52.553119 
L 80.550642 59.242146 
L 80.606417 58.800995 
L 80.662191 58.438089 
L 80.941064 61.09621 
L 81.052612 60.310733 
L 81.108387 60.945088 
L 81.164161 60.539643 
L 81.27571 59.898217 
L 81.443034 64.091148 
L 81.498808 63.695689 
L 81.554583 63.38819 
L 81.666131 64.343047 
L 81.721906 63.936596 
L 82.223876 61.34333 
L 82.335425 60.757686 
L 82.446974 62.924904 
L 82.502748 62.620694 
L 82.670072 61.768239 
L 82.89317 63.547963 
L 83.004718 63.027684 
L 83.060493 64.220325 
L 83.116267 63.918045 
L 83.172042 63.694742 
L 83.283591 66.014854 
L 83.339365 65.764237 
L 83.506689 64.912713 
L 83.562463 65.231866 
L 83.618237 67.584628 
L 83.674012 67.318317 
L 83.952884 65.969793 
L 84.120208 66.746181 
L 84.39908 65.454447 
L 84.566403 66.563307 
L 84.622178 66.348419 
L 84.956824 65.397118 
L 85.012599 65.208605 
L 85.124148 65.924607 
L 85.179922 65.689106 
L 85.347246 65.021963 
L 85.514569 67.097185 
L 85.626118 66.638233 
L 85.681892 67.054176 
L 85.737667 66.822024 
L 86.016539 65.86295 
L 86.072314 66.42119 
L 86.128088 66.244141 
L 86.40696 65.64343 
L 86.462735 65.971845 
L 86.518509 65.771419 
L 86.630058 65.426527 
L 86.685833 65.857797 
L 86.741607 65.678282 
L 87.187803 64.518522 
L 87.243577 64.825658 
L 87.299352 64.675983 
L 87.466675 64.226557 
L 87.522449 64.533027 
L 87.578224 64.363947 
L 87.745547 63.903641 
L 87.912871 65.220106 
L 87.968645 65.053451 
L 88.02442 65.583564 
L 88.080194 65.437498 
L 88.359066 64.92112 
L 88.52639 65.119003 
L 88.693713 64.67254 
L 88.861036 65.971957 
L 88.972585 65.703996 
L 89.02836 66.09585 
L 89.084134 65.942418 
L 89.251458 65.516953 
L 89.418781 66.352895 
L 89.641879 66.050555 
L 89.697653 66.253631 
L 89.753428 66.104704 
L 89.864977 65.857007 
L 89.976526 67.135579 
L 90.0323 67.042779 
L 90.088075 66.902115 
L 90.143849 67.167309 
L 90.199623 67.040668 
L 90.255398 66.924935 
L 90.366947 67.477502 
L 90.422721 67.335187 
L 90.757368 66.523325 
L 90.813142 67.047767 
L 90.868917 66.915267 
L 91.147789 66.559556 
L 91.482436 65.843688 
L 91.53821 66.210334 
L 91.593985 66.108196 
L 91.761308 65.753268 
L 91.928632 66.473487 
L 92.095955 66.170624 
L 92.151729 66.536423 
L 92.207504 66.419014 
L 92.932572 65.03655 
L 92.988346 65.352785 
L 93.044121 65.256105 
L 93.490316 64.428476 
L 93.546091 64.731974 
L 93.601865 64.635766 
L 93.65764 64.547439 
L 93.713414 64.669287 
L 93.769189 64.565871 
L 93.824963 64.491779 
L 93.880738 64.742598 
L 93.936512 64.653024 
L 94.382708 63.879281 
L 94.438482 64.591686 
L 94.494257 64.505563 
L 94.66158 64.227824 
L 94.884678 65.093798 
L 95.16355 64.644237 
L 95.275099 65.08092 
L 95.330874 64.985254 
L 95.944393 64.001078 
L 96.000167 64.284268 
L 96.055941 64.192899 
L 96.16749 64.011928 
L 96.279039 64.605629 
L 96.334814 64.512579 
L 96.948333 63.742671 
L 97.004107 63.846991 
L 97.059882 63.776335 
L 97.506077 63.124942 
L 97.561852 63.488532 
L 97.617626 63.427284 
L 97.78495 63.193198 
L 97.840724 63.523985 
L 97.896499 63.442485 
L 98.231145 62.99702 
L 98.398469 63.449667 
L 98.454243 63.376812 
L 98.510018 63.575992 
L 98.565792 63.505852 
L 99.235086 62.644686 
L 99.402409 63.603006 
L 99.513958 63.454385 
L 99.625507 63.309035 
L 99.681281 63.422636 
L 99.737056 63.346691 
L 99.904379 63.138571 
L 99.960153 63.513715 
L 100.015928 63.439318 
L 100.462124 62.87498 
L 100.517898 63.011206 
L 100.573672 62.965309 
L 100.79677 62.713324 
L 100.964094 62.917705 
L 101.29874 62.519716 
L 101.354515 62.798401 
L 101.410289 62.732525 
L 102.135357 61.948154 
L 102.246906 62.351369 
L 102.302681 62.287526 
L 102.470004 62.104196 
L 102.525778 62.561727 
L 102.581553 62.509542 
L 102.804651 62.261475 
L 102.860425 62.431687 
L 102.9162 62.370655 
L 103.697042 61.550251 
L 103.752817 61.658388 
L 103.808591 61.600588 
L 104.42211 61.112634 
L 104.756757 60.820289 
L 104.868306 61.168622 
L 104.92408 61.116703 
L 105.481825 60.696739 
L 105.649148 61.446625 
L 105.760697 61.338818 
L 105.816471 61.449841 
L 105.872246 61.39616 
L 106.374216 60.958489 
L 106.429991 61.103848 
L 106.485765 61.050873 
L 107.712803 60.052685 
L 107.768577 60.252518 
L 107.824352 60.2068 
L 107.991675 60.152181 
L 108.158999 60.474189 
L 108.493645 60.210389 
L 108.716743 60.682674 
L 108.772518 60.636529 
L 108.884067 60.960028 
L 108.939841 60.912555 
L 108.995616 60.866325 
L 109.162939 61.168086 
L 109.609135 60.813395 
L 109.664909 60.916632 
L 109.720683 60.869394 
L 109.776458 60.824918 
L 109.832232 60.991241 
L 109.888007 60.947219 
L 110.780398 60.360005 
L 110.836173 60.540614 
L 110.891947 60.4977 
L 111.115045 60.336769 
L 111.282368 60.622008 
L 111.895887 60.175703 
L 111.951662 60.269761 
L 112.007436 60.228707 
L 112.397857 59.955776 
L 112.453632 60.078033 
L 112.509406 60.036981 
L 112.899828 59.870225 
L 113.011376 60.097048 
L 113.067151 60.057513 
L 113.569121 59.814226 
L 113.847993 60.02717 
L 113.959542 59.956047 
L 114.015317 60.088065 
L 114.071091 60.048776 
L 114.294189 59.909877 
L 114.349963 60.083402 
L 114.405738 60.04622 
L 114.573061 59.933634 
L 114.628836 60.06174 
L 114.68461 60.02272 
L 115.242355 59.678865 
L 115.298129 59.860799 
L 115.353904 59.831644 
L 116.190521 59.309951 
L 116.246295 59.409779 
L 116.302069 59.375825 
L 117.417559 58.804349 
L 117.529107 58.828139 
L 118.142627 58.573121 
L 118.254175 58.640475 
L 119.202341 58.200864 
L 119.31389 58.264622 
L 119.425439 58.204174 
L 119.481214 58.385171 
L 119.536988 58.361987 
L 119.871635 58.192266 
L 119.927409 58.309716 
L 119.983184 58.279109 
L 120.262056 58.131492 
L 120.429379 58.333351 
L 121.098673 58.053413 
L 121.210222 58.125975 
L 121.489094 58.075328 
L 121.544868 58.188214 
L 121.600643 58.159581 
L 121.656417 58.13035 
L 121.712192 58.265472 
L 121.767966 58.237524 
L 122.604583 57.946921 
L 122.716132 58.003261 
L 123.94317 57.504655 
L 124.110493 57.880683 
L 124.166268 57.854633 
L 124.222042 57.828957 
L 124.389366 57.985422 
L 124.724012 57.85065 
L 124.835561 58.065185 
L 124.891336 58.041779 
L 125.002885 57.992012 
L 125.114434 58.065663 
L 125.337532 57.970376 
L 125.44908 58.05411 
L 126.229923 57.866408 
L 126.341472 57.99821 
L 127.345412 57.651628 
L 127.512735 57.661087 
L 127.56851 57.648217 
L 127.735833 57.854437 
L 129.353292 57.40666 
L 129.464841 57.540365 
L 129.687939 57.482632 
L 129.799488 57.573965 
L 130.691879 57.377367 
L 130.859203 57.495773 
L 130.970752 57.621947 
L 132.030466 57.545102 
L 134.20567 57.387593 
L 134.372994 57.472384 
L 135.488483 57.4229 
L 135.878904 57.39728 
L 136.046227 57.514924 
L 136.938619 57.468189 
L 137.105942 57.577956 
L 283.904314 57.681058 
L 284.629381 57.690434 
L 388.202549 57.793007 
L 388.927617 57.80238 
L 422.559614 57.829952 
L 422.559614 57.829952 
" clip-path="url(#peed27b0c9c)" style="fill: none; stroke: #ff7f0e; stroke-width: 1.8; stroke-linecap: square"/>
   </g>
   <g id="line2d_25">
    <path d="M 77.427273 122.644545 
L 77.483047 133.475098 
L 77.650371 81.59506 
L 77.761919 70.074008 
L 77.817694 79.558846 
L 77.873468 74.295674 
L 77.929243 75.381694 
L 77.985017 72.172955 
L 78.040792 84.401754 
L 78.096566 80.900349 
L 78.208115 74.745767 
L 78.26389 78.0605 
L 78.319664 75.923497 
L 78.598536 70.632308 
L 78.654311 69.170537 
L 78.710085 79.34941 
L 78.76586 78.658131 
L 78.988958 72.902828 
L 79.044732 74.523029 
L 79.100506 73.352575 
L 79.714025 65.811464 
L 79.7698 67.831718 
L 79.825574 67.042512 
L 80.215996 62.780815 
L 80.327545 65.247878 
L 80.383319 64.792308 
L 80.494868 63.72724 
L 80.662191 65.589604 
L 80.829515 64.047762 
L 80.885289 66.319043 
L 80.941064 65.844327 
L 80.996838 65.485298 
L 81.052612 68.248813 
L 81.108387 68.073612 
L 81.331485 66.303063 
L 81.387259 67.226409 
L 81.443034 66.73826 
L 81.610357 65.598676 
L 81.721906 68.132629 
L 81.77768 67.655365 
L 82.056553 65.761458 
L 82.112327 65.931543 
L 82.168102 66.434522 
L 82.223876 66.160553 
L 82.391199 65.103444 
L 82.446974 65.287282 
L 82.614297 68.554053 
L 82.89317 66.889803 
L 83.004718 69.199853 
L 83.060493 68.864771 
L 83.618237 66.132768 
L 83.674012 67.20296 
L 83.729786 66.988025 
L 83.952884 65.935099 
L 84.008659 66.462687 
L 84.064433 66.244998 
L 84.956824 62.824693 
L 85.124148 62.506803 
L 85.291471 64.30518 
L 85.514569 63.512052 
L 85.681892 64.495904 
L 86.128088 63.306997 
L 86.183863 64.476354 
L 86.239637 64.271819 
L 86.351186 63.983992 
L 86.40696 64.848359 
L 86.462735 64.718284 
L 86.574284 64.337457 
L 86.630058 64.891296 
L 86.685833 64.698491 
L 87.020479 63.699536 
L 87.076254 64.395839 
L 87.132028 64.213058 
L 87.410901 63.416816 
L 87.522449 64.971687 
L 87.578224 64.802401 
L 87.633998 64.659185 
L 87.745547 65.237694 
L 87.801322 65.588458 
L 87.857096 65.446909 
L 87.912871 65.304533 
L 88.080194 66.008624 
L 88.303292 65.471774 
L 88.359066 65.971749 
L 88.414841 65.826836 
L 88.693713 65.094604 
L 88.749488 65.251629 
L 88.916811 66.803776 
L 89.418781 65.553495 
L 89.474555 65.757981 
L 89.53033 65.595187 
L 89.586104 65.456797 
L 89.697653 66.559996 
L 89.753428 66.419043 
L 89.864977 66.178801 
L 89.920751 66.73504 
L 89.976526 66.595594 
L 90.311172 65.784885 
L 90.422721 66.826176 
L 90.53427 66.54225 
L 90.590045 66.41214 
L 90.645819 66.543495 
L 90.924691 65.959548 
L 91.03624 67.118928 
L 91.092015 67.019447 
L 91.147789 66.871418 
L 91.203564 67.435741 
L 91.259338 67.361235 
L 91.53821 66.796468 
L 91.593985 67.21599 
L 91.649759 67.087367 
L 91.928632 66.509151 
L 92.040181 67.293368 
L 92.151729 67.050956 
L 92.709474 66.085885 
L 92.765248 66.898065 
L 92.821023 66.79434 
L 93.267219 65.929475 
L 93.322993 66.338815 
L 93.378768 66.23181 
L 93.434542 66.157946 
L 93.490316 66.290349 
L 93.546091 66.190468 
L 94.15961 65.12163 
L 94.215384 65.02662 
L 94.271159 65.349138 
L 94.326933 65.285224 
L 94.773129 64.610551 
L 94.828903 64.822099 
L 94.884678 64.735278 
L 94.996227 64.573417 
L 95.052001 64.815646 
L 95.107776 64.729901 
L 95.275099 64.624303 
L 95.330874 64.836444 
L 95.386648 64.770776 
L 95.442422 64.691618 
L 95.609746 65.270257 
L 95.944393 64.728168 
L 96.000167 65.093525 
L 96.055941 65.03452 
L 96.334814 64.638853 
L 96.390588 64.889365 
L 96.446363 64.803253 
L 96.725235 64.409277 
L 96.781009 64.705661 
L 96.836784 64.620601 
L 96.892558 64.582315 
L 96.948333 65.063414 
L 97.004107 64.980238 
L 97.227205 64.651121 
L 97.338754 65.04882 
L 97.394528 64.968451 
L 97.840724 64.360965 
L 97.896499 64.277821 
L 97.952273 64.631965 
L 98.008047 64.539788 
L 98.175371 64.344259 
L 98.231145 64.781407 
L 98.28692 64.695398 
L 98.677341 64.251256 
L 98.733115 64.35058 
L 98.78889 64.278405 
L 98.844664 64.205561 
L 98.900439 64.412242 
L 98.956213 64.335213 
L 99.067762 64.179326 
L 99.123537 64.492341 
L 99.179311 64.427275 
L 99.681281 63.969771 
L 99.79283 63.926196 
L 100.517898 63.137579 
L 100.573672 64.038004 
L 100.629447 63.957935 
L 100.852545 63.664518 
L 101.019868 64.229416 
L 101.410289 63.756863 
L 101.466064 63.870305 
L 101.521838 63.792947 
L 101.744936 63.518887 
L 101.800711 63.720237 
L 101.856485 63.661318 
L 102.023808 63.569921 
L 102.079583 64.053767 
L 102.135357 63.992962 
L 102.470004 63.606693 
L 102.525778 63.731203 
L 102.581553 63.665285 
L 102.9162 63.265363 
L 102.971974 63.503687 
L 103.027749 63.432007 
L 103.195072 63.262326 
L 103.250846 63.62458 
L 103.306621 63.555047 
L 103.975914 62.956413 
L 104.031689 63.247431 
L 104.087463 63.187268 
L 104.310561 62.9587 
L 104.366336 63.108649 
L 104.42211 63.058984 
L 105.147178 62.404685 
L 105.202952 62.475191 
L 105.258727 62.413292 
L 105.537599 62.160546 
L 105.593374 62.375796 
L 105.649148 62.324474 
L 106.262667 61.762385 
L 106.318442 62.051181 
L 106.374216 61.996835 
L 106.764637 61.641184 
L 106.820412 61.931206 
L 106.876186 61.879467 
L 107.378156 61.446924 
L 107.433931 61.59803 
L 107.489705 62.107341 
L 107.54548 62.060464 
L 107.768577 61.88935 
L 107.824352 62.111622 
L 107.880126 62.065903 
L 108.158999 61.799534 
L 108.214773 62.239662 
L 108.270548 62.183058 
L 108.326322 62.135964 
L 108.493645 62.355433 
L 108.884067 62.028727 
L 108.939841 62.184239 
L 108.995616 62.145276 
L 109.162939 62.008534 
L 109.218713 62.3378 
L 109.274488 62.286669 
L 109.386037 62.194621 
L 109.441811 62.306691 
L 109.497586 62.263025 
L 109.943781 61.999132 
L 109.999556 62.079868 
L 110.05533 62.030383 
L 110.111105 61.997289 
L 110.166879 62.138752 
L 110.222654 62.098128 
L 110.445751 61.919032 
L 110.613075 62.147811 
L 111.840113 61.305222 
L 111.895887 61.496796 
L 111.951662 61.446894 
L 112.230534 61.269776 
L 112.286309 61.434509 
L 112.342083 61.392694 
L 112.899828 61.004171 
L 112.955602 61.16517 
L 113.011376 61.131794 
L 113.457572 60.826687 
L 113.569121 60.851429 
L 113.736444 60.739426 
L 113.903768 60.841407 
L 114.071091 60.841234 
L 114.126866 61.11458 
L 114.18264 61.071031 
L 114.573061 60.914299 
L 114.963482 60.649004 
L 115.075031 61.005168 
L 115.130806 60.961881 
L 115.744325 60.591088 
L 115.855874 61.089526 
L 115.967423 61.018287 
L 116.413618 60.870683 
L 116.469393 61.017301 
L 116.525167 60.98148 
L 116.636716 60.927691 
L 116.692491 61.071937 
L 116.748265 61.040246 
L 116.915588 60.9317 
L 116.971363 61.101814 
L 117.027137 61.058318 
L 117.361784 60.858303 
L 117.473333 60.932185 
L 117.529107 60.906662 
L 117.696431 61.166286 
L 118.588822 60.677229 
L 118.644597 60.786152 
L 118.700371 60.753832 
L 118.979243 60.650983 
L 119.090792 60.73355 
L 119.146567 60.696928 
L 119.202341 60.864571 
L 119.258116 60.832565 
L 119.704311 60.575321 
L 119.81586 60.6032 
L 121.991064 59.580049 
L 122.102613 59.68563 
L 124.389366 58.834198 
L 124.500915 58.941287 
L 124.556689 59.174483 
L 124.612464 59.151708 
L 124.891336 59.029578 
L 124.94711 59.157454 
L 125.002885 59.131367 
L 127.06654 58.417219 
L 127.289638 58.628136 
L 127.680059 58.551101 
L 127.847382 58.541875 
L 128.126254 58.445572 
L 128.237803 58.608201 
L 128.628224 58.482599 
L 128.739773 58.78022 
L 128.795548 58.759008 
L 128.962871 58.69811 
L 129.07442 58.786102 
L 129.130195 58.767853 
L 129.185969 58.966583 
L 129.241744 58.942104 
L 130.58033 58.535236 
L 130.636105 58.739341 
L 130.691879 58.721869 
L 133.145956 58.182977 
L 133.313279 58.306581 
L 134.317219 58.093243 
L 135.153836 58.069689 
L 135.321159 58.17776 
L 136.157776 58.125323 
L 140.396635 57.795134 
L 142.794937 57.659739 
L 143.018034 57.684509 
L 148.59548 57.339806 
L 155.734611 57.149054 
L 167.893442 57.038122 
L 187.358728 56.949798 
L 349.216203 56.949798 
L 349.216203 56.949798 
" clip-path="url(#peed27b0c9c)" style="fill: none; stroke: #2ca02c; stroke-width: 1.8; stroke-linecap: square"/>
   </g>
   <g id="line2d_26">
    <path d="M 77.427273 36.121818 
L 78.26389 36.121818 
L 78.319664 51.801551 
L 78.375439 50.827189 
L 78.654311 47.515758 
L 79.044732 44.691076 
L 79.100506 52.170264 
L 79.156281 51.825769 
L 79.7698 47.770185 
L 80.662191 44.502524 
L 80.829515 44.11397 
L 80.885289 46.879754 
L 80.941064 46.714806 
L 81.331485 45.672385 
L 81.77768 44.626266 
L 81.833455 46.728877 
L 81.889229 46.586703 
L 82.168102 45.972533 
L 82.223876 48.313484 
L 82.279651 48.154531 
L 82.781621 47.038283 
L 83.952884 45.101588 
L 84.008659 46.178033 
L 84.064433 46.08306 
L 84.120208 46.00175 
L 84.175982 47.94928 
L 84.231757 47.83899 
L 84.454854 47.403374 
L 84.622178 49.709661 
L 85.124148 48.802551 
L 85.235697 51.06156 
L 85.291471 50.962096 
L 85.960765 49.90452 
L 86.016539 50.25273 
L 86.072314 50.161856 
L 86.462735 49.531765 
L 86.518509 49.787797 
L 86.574284 49.704664 
L 86.630058 49.618588 
L 86.685833 49.855584 
L 86.741607 49.789263 
L 87.076254 49.29805 
L 87.132028 51.129511 
L 87.187803 51.034351 
L 87.355126 50.827589 
L 87.410901 51.170757 
L 87.466675 51.097835 
L 87.633998 50.870203 
L 87.689773 51.857521 
L 87.745547 51.766849 
L 88.080194 51.230003 
L 88.135969 52.167368 
L 88.191743 52.092433 
L 88.916811 51.122886 
L 88.972585 51.941062 
L 89.02836 51.873564 
L 89.641879 51.154024 
L 89.697653 51.912264 
L 89.753428 51.845154 
L 90.366947 51.116672 
L 90.868917 50.595772 
L 91.147789 50.305872 
L 91.203564 50.548917 
L 91.259338 50.50348 
L 91.315113 50.448021 
L 91.370887 51.586716 
L 91.426662 51.521578 
L 91.482436 51.457975 
L 91.53821 52.283551 
L 91.593985 52.210145 
L 92.430602 51.329699 
L 92.486376 51.285685 
L 92.542151 52.040726 
L 92.597925 52.005468 
L 92.6537 51.94013 
L 92.709474 52.73798 
L 92.765248 52.684893 
L 93.15567 52.298236 
L 93.211444 52.5194 
L 93.267219 52.467595 
L 93.824963 51.962591 
L 93.936512 51.881005 
L 93.992287 52.581127 
L 94.048061 52.516021 
L 94.438482 52.16177 
L 94.494257 52.725645 
L 94.550031 52.669797 
L 94.66158 52.566196 
L 94.717354 52.87832 
L 94.773129 52.83854 
L 95.107776 52.548228 
L 95.16355 53.01225 
L 95.219325 52.947043 
L 95.944393 52.299983 
L 96.000167 52.90226 
L 96.055941 52.850236 
L 96.446363 52.516233 
L 96.613686 53.894927 
L 96.66946 53.838252 
L 96.781009 53.732643 
L 96.836784 54.263322 
L 96.892558 54.195961 
L 97.004107 54.109724 
L 97.059882 54.716408 
L 97.115656 54.658441 
L 97.506077 54.298161 
L 97.561852 54.834067 
L 97.617626 54.786533 
L 98.621566 53.87492 
L 98.956213 53.607099 
L 99.011988 53.819677 
L 99.067762 53.76584 
L 100.462124 52.737413 
L 100.517898 53.00177 
L 100.573672 52.960336 
L 100.685221 52.872134 
L 100.740996 53.077725 
L 100.79677 53.041818 
L 101.075643 52.834709 
L 101.131417 52.946518 
L 101.187192 52.901121 
L 101.29874 52.814258 
L 101.354515 52.982555 
L 101.410289 52.950363 
L 101.633387 52.796901 
L 101.800711 53.861847 
L 102.581553 53.338597 
L 102.693102 54.246659 
L 102.748876 54.200706 
L 102.971974 54.05263 
L 103.027749 54.264136 
L 103.083523 54.222606 
L 103.250846 54.111929 
L 103.306621 54.510157 
L 103.362395 54.475 
L 104.031689 54.043519 
L 104.143238 53.962102 
L 104.199012 54.407711 
L 104.254787 54.373221 
L 105.593374 53.5149 
L 105.649148 54.470509 
L 105.704923 54.434102 
L 106.485765 53.944236 
L 106.653088 53.824307 
L 106.708863 54.124385 
L 106.764637 54.092808 
L 107.433931 53.71047 
L 108.326322 53.233626 
L 108.382097 53.412222 
L 108.437871 53.381899 
L 108.772518 53.170576 
L 108.828292 53.373594 
L 108.884067 53.332716 
L 109.162939 53.174585 
L 109.218713 53.345253 
L 109.330262 54.140633 
L 109.386037 54.10591 
L 109.832232 53.839392 
L 109.999556 54.416991 
L 110.111105 54.357371 
L 110.166879 54.588111 
L 110.222654 54.558118 
L 110.278428 54.532339 
L 110.334203 54.733531 
L 110.389977 54.712256 
L 110.613075 54.596877 
L 110.668849 54.923709 
L 110.724624 54.884792 
L 111.617015 54.405437 
L 111.672789 54.622783 
L 111.728564 54.598477 
L 112.063211 54.419406 
L 112.118985 54.783133 
L 112.17476 54.747571 
L 113.234474 54.203428 
L 113.290249 54.431627 
L 113.346023 54.399274 
L 113.513347 54.322368 
L 113.624895 54.783755 
L 113.68067 54.751534 
L 113.903768 54.637293 
L 113.959542 55.146158 
L 114.015317 55.115538 
L 114.294189 54.970956 
L 114.349963 55.190505 
L 114.405738 55.155881 
L 114.796159 54.940563 
L 114.851934 55.125243 
L 114.907708 55.090301 
L 115.130806 54.984402 
L 115.18658 55.250825 
L 115.242355 55.227112 
L 115.353904 55.173857 
L 115.409678 55.534282 
L 115.465453 55.506604 
L 116.971363 54.772407 
L 117.027137 55.120094 
L 117.082912 55.089709 
L 117.30601 54.973041 
L 117.361784 55.176589 
L 117.417559 55.152511 
L 120.262056 53.909709 
L 121.656417 53.33884 
L 123.162328 52.779989 
L 123.218102 53.033571 
L 123.273877 53.015929 
L 123.496974 52.939682 
L 123.552749 53.269306 
L 123.608523 53.243697 
L 123.831621 53.270652 
L 124.110493 53.179034 
L 124.222042 53.473601 
L 124.277817 53.453146 
L 124.500915 53.373496 
L 124.556689 53.695031 
L 124.612464 53.672752 
L 124.835561 53.590638 
L 124.891336 53.849197 
L 124.94711 53.831001 
L 126.062599 53.444539 
L 128.349352 52.718593 
L 128.405127 52.91937 
L 128.460901 52.899908 
L 128.516676 52.880793 
L 128.628224 53.042151 
L 128.962871 52.942275 
L 129.018646 53.177491 
L 129.07442 53.162217 
L 129.409067 53.069329 
L 129.464841 53.253473 
L 129.520616 53.234901 
L 130.245684 53.041845 
L 130.357233 53.134776 
L 130.970752 53.023884 
L 131.138075 53.107514 
L 131.640045 53.021113 
L 131.751594 53.258188 
L 131.863143 53.236018 
L 131.974692 53.436763 
L 132.19779 53.398077 
L 132.365113 53.500987 
L 132.420888 53.490259 
L 132.532437 53.677183 
L 132.922858 53.597879 
L 133.145956 53.839493 
L 133.480602 53.785736 
L 133.647926 53.938345 
L 133.815249 54.023666 
L 133.982572 53.993779 
L 134.094121 54.146172 
L 134.930738 54.021709 
L 135.042287 54.234397 
L 135.20961 54.206908 
L 135.376934 54.296884 
L 135.767355 54.224228 
L 135.878904 54.380417 
L 136.213551 54.32583 
L 136.3251 54.468852 
L 136.380874 54.459776 
L 136.548197 54.62468 
L 136.938619 54.650176 
L 137.105942 54.783018 
L 137.273265 54.836544 
L 137.440589 54.810549 
L 137.552138 54.930323 
L 137.886784 54.877692 
L 137.998333 55.023131 
L 138.277206 54.9793 
L 138.388755 55.135406 
L 138.667627 55.195531 
L 139.392695 55.194373 
L 139.560018 55.293267 
L 140.396635 55.18745 
L 140.508184 55.361652 
L 140.563958 55.351234 
L 140.731282 55.496788 
L 141.010154 55.46418 
L 141.177477 55.573486 
L 141.233252 55.56547 
L 141.400575 55.673532 
L 144.858592 55.427002 
L 145.025915 55.532027 
L 147.08957 55.276703 
L 147.312668 55.523448 
L 147.535766 55.493679 
L 147.703089 55.609313 
L 148.59548 55.593355 
L 148.762804 55.703273 
L 149.320548 55.635324 
L 149.543646 55.874937 
L 150.547586 55.754766 
L 150.71491 55.846797 
L 151.997722 55.817037 
L 152.165045 55.906712 
L 152.611241 55.964579 
L 152.778564 56.066782 
L 153.670956 56.05817 
L 153.838279 56.124475 
L 155.957709 56.002792 
L 156.125032 56.119005 
L 156.34813 56.197328 
L 156.571228 56.347914 
L 158.132912 56.268533 
L 158.300236 56.354097 
L 159.694597 56.23428 
L 159.861921 56.317005 
L 160.865861 56.32637 
L 161.088959 56.481035 
L 161.646703 56.52873 
L 162.148673 56.533833 
L 162.315997 56.615464 
L 162.873741 56.64387 
L 163.041065 56.727479 
L 163.543035 56.754678 
L 163.710358 56.814123 
L 165.327817 56.75513 
L 169.12048 56.635282 
L 169.287804 56.687725 
L 174.530603 56.521527 
L 174.753701 56.552977 
L 180.944665 56.280642 
L 181.111989 56.325177 
L 187.693375 56.086533 
L 190.705195 56.075926 
L 190.872519 56.139102 
L 192.601527 56.1256 
L 192.76885 56.189057 
L 194.720956 56.208007 
L 195.836445 56.270545 
L 196.003769 56.315809 
L 198.904041 56.266796 
L 199.071364 56.310813 
L 201.246568 56.351194 
L 201.52544 56.374539 
L 205.708524 56.287598 
L 205.875848 56.343272 
L 211.676391 56.300285 
L 211.843715 56.355669 
L 218.53665 56.304447 
L 218.703973 56.359268 
L 222.887057 56.393584 
L 223.110155 56.438302 
L 226.289299 56.444227 
L 226.512397 56.4896 
L 231.364775 56.510924 
L 235.994055 56.586816 
L 236.217153 56.622347 
L 245.754585 56.726817 
L 246.145006 56.744386 
L 251.778226 56.804969 
L 252.001324 56.8408 
L 257.244123 56.889281 
L 257.522995 56.915003 
L 262.263824 56.965575 
L 262.654245 56.981998 
L 267.729721 57.046104 
L 314.078295 57.146383 
L 314.468716 57.164847 
L 393.166475 57.237914 
L 393.166475 57.237914 
" clip-path="url(#peed27b0c9c)" style="fill: none; stroke: #d62728; stroke-width: 1.8; stroke-linecap: square"/>
   </g>
   <g id="line2d_27">
    <path d="M 77.427273 36.121818 
L 77.538822 36.121818 
L 77.594596 38.783032 
L 77.650371 57.367423 
L 77.706145 53.482787 
L 77.985017 46.390055 
L 78.26389 42.862317 
L 78.710085 40.640566 
L 79.212055 39.334395 
L 79.714025 38.618056 
L 80.27177 38.11325 
L 81.052612 37.673656 
L 82.446974 37.233061 
L 84.231757 36.944375 
L 86.964705 36.707837 
L 93.044121 36.479086 
L 105.760697 36.318311 
L 132.365113 36.223623 
L 139.671567 36.286218 
L 139.894665 36.334557 
L 140.508184 36.431218 
L 145.58366 36.527855 
L 145.974081 36.547179 
L 162.148673 36.64378 
L 162.371771 36.692074 
L 171.74188 36.778946 
L 172.020752 36.807911 
L 174.976798 36.914098 
L 175.646092 36.92375 
L 186.299013 37.029779 
L 186.577886 37.058721 
L 193.047723 37.164693 
L 193.438144 37.193621 
L 198.346296 37.280349 
L 198.625168 37.338169 
L 203.979516 37.415203 
L 204.202614 37.453744 
L 208.999217 37.559678 
L 209.27809 37.588573 
L 225.67578 37.684697 
L 225.954652 37.71358 
L 230.30506 37.800214 
L 230.583932 37.829087 
L 240.902207 37.934893 
L 241.738824 37.973307 
L 253.674558 38.06947 
L 253.897656 38.117554 
L 258.248063 38.223317 
L 258.638484 38.242544 
L 263.937058 38.328969 
L 264.160156 38.377019 
L 269.012533 38.482707 
L 269.235631 38.559553 
L 274.366881 38.655589 
L 274.813077 38.693996 
L 278.494191 38.799396 
L 279.219259 38.81849 
L 283.011922 38.914415 
L 283.290794 38.943198 
L 288.86824 39.048424 
L 289.147112 39.077194 
L 293.943716 39.172888 
L 294.222588 39.201647 
L 296.565115 39.287871 
L 296.788213 39.326203 
L 297.457507 39.335786 
L 301.529042 39.422018 
L 301.807914 39.450758 
L 307.441134 39.536793 
L 307.720007 39.565523 
L 309.337466 39.661229 
L 309.727887 39.680376 
L 314.524491 39.785667 
L 314.970686 39.890882 
L 324.061923 39.986258 
L 324.340795 40.024515 
L 331.814572 40.129452 
L 332.204994 40.148573 
L 342.467494 40.253719 
L 342.857915 40.272834 
L 347.096774 40.368126 
L 347.487195 40.396787 
L 352.283798 40.482757 
L 352.56267 40.511409 
L 363.43869 40.616169 
L 363.829111 40.635262 
L 364.777277 40.692538 
L 369.350782 40.787746 
L 369.57388 40.825914 
L 372.027956 40.930856 
L 372.306828 40.96901 
L 378.83244 41.054656 
L 379.167087 41.102331 
L 385.525375 41.197534 
L 385.748472 41.245189 
L 386.027345 41.302367 
L 394.839709 41.397251 
L 395.23013 41.416302 
L 406.942766 41.520596 
L 407.61206 41.530118 
L 412.129791 41.615667 
L 412.352889 41.653743 
L 422.50384 41.738979 
L 422.782712 41.767525 
L 438.455335 41.871529 
L 438.845756 41.890551 
L 446.375308 41.995008 
L 446.765729 42.014024 
L 451.896979 42.089927 
L 452.120077 42.127946 
L 460.04005 42.231947 
L 460.318922 42.260449 
L 469.075512 42.364937 
L 469.465933 42.393428 
L 484.357713 42.496928 
L 485.138555 42.525405 
L 493.225852 42.600851 
L 493.448949 42.648296 
L 496.349221 42.733436 
L 496.628094 42.761892 
L 498.859072 42.856482 
L 499.137944 42.884928 
L 505.328909 42.979393 
L 505.71933 42.998351 
L 509.456219 43.092951 
L 509.84664 43.111902 
L 517.710838 43.186908 
L 517.933936 43.234267 
L 531.431355 43.338258 
L 531.431355 43.338258 
" clip-path="url(#peed27b0c9c)" style="fill: none; stroke: #9467bd; stroke-width: 1.8; stroke-linecap: square"/>
   </g>
   <g id="patch_3">
    <path d="M 54.2 260.44 
L 54.2 25.44 
" style="fill: none; stroke: #000000; stroke-width: 0.8; stroke-linejoin: miter; stroke-linecap: square"/>
   </g>
   <g id="patch_4">
    <path d="M 565.2 260.44 
L 565.2 25.44 
" style="fill: none; stroke: #000000; stroke-width: 0.8; stroke-linejoin: miter; stroke-linecap: square"/>
   </g>
   <g id="patch_5">
    <path d="M 54.2 260.44 
L 565.2 260.44 
" style="fill: none; stroke: #000000; stroke-width: 0.8; stroke-linejoin: miter; stroke-linecap: square"/>
   </g>
   <g id="patch_6">
    <path d="M 54.2 25.44 
L 565.2 25.44 
" style="fill: none; stroke: #000000; stroke-width: 0.8; stroke-linejoin: miter; stroke-linecap: square"/>
   </g>
   <g id="text_14">
    <!-- Timely Transfer Rate (Cumulative) -->
    <g transform="translate(207.277187 19.44) scale(0.12 -0.12)">
     <defs>
      <path id="DejaVuSans-54" d="M -19 4666 
L 3928 4666 
L 3928 4134 
L 2272 4134 
L 2272 0 
L 1638 0 
L 1638 4134 
L -19 4134 
L -19 4666 
z
" transform="scale(0.015625)"/>
      <path id="DejaVuSans-52" d="M 2841 2188 
Q 3044 2119 3236 1894 
Q 3428 1669 3622 1275 
L 4263 0 
L 3584 0 
L 2988 1197 
Q 2756 1666 2539 1819 
Q 2322 1972 1947 1972 
L 1259 1972 
L 1259 0 
L 628 0 
L 628 4666 
L 2053 4666 
Q 2853 4666 3247 4331 
Q 3641 3997 3641 3322 
Q 3641 2881 3436 2590 
Q 3231 2300 2841 2188 
z
M 1259 4147 
L 1259 2491 
L 2053 2491 
Q 2509 2491 2742 2702 
Q 2975 2913 2975 3322 
Q 2975 3731 2742 3939 
Q 2509 4147 2053 4147 
L 1259 4147 
z
" transform="scale(0.015625)"/>
      <path id="DejaVuSans-28" d="M 1984 4856 
Q 1566 4138 1362 3434 
Q 1159 2731 1159 2009 
Q 1159 1288 1364 580 
Q 1569 -128 1984 -844 
L 1484 -844 
Q 1016 -109 783 600 
Q 550 1309 550 2009 
Q 550 2706 781 3412 
Q 1013 4119 1484 4856 
L 1984 4856 
z
" transform="scale(0.015625)"/>
      <path id="DejaVuSans-43" d="M 4122 4306 
L 4122 3641 
Q 3803 3938 3442 4084 
Q 3081 4231 2675 4231 
Q 1875 4231 1450 3742 
Q 1025 3253 1025 2328 
Q 1025 1406 1450 917 
Q 1875 428 2675 428 
Q 3081 428 3442 575 
Q 3803 722 4122 1019 
L 4122 359 
Q 3791 134 3420 21 
Q 3050 -91 2638 -91 
Q 1578 -91 968 557 
Q 359 1206 359 2328 
Q 359 3453 968 4101 
Q 1578 4750 2638 4750 
Q 3056 4750 3426 4639 
Q 3797 4528 4122 4306 
z
" transform="scale(0.015625)"/>
      <path id="DejaVuSans-29" d="M 513 4856 
L 1013 4856 
Q 1481 4119 1714 3412 
Q 1947 2706 1947 2009 
Q 1947 1309 1714 600 
Q 1481 -109 1013 -844 
L 513 -844 
Q 928 -128 1133 580 
Q 1338 1288 1338 2009 
Q 1338 2731 1133 3434 
Q 928 4138 513 4856 
z
" transform="scale(0.015625)"/>
     </defs>
     <use xlink:href="#DejaVuSans-54"/>
     <use xlink:href="#DejaVuSans-69" x="57.958984"/>
     <use xlink:href="#DejaVuSans-6d" x="85.742188"/>
     <use xlink:href="#DejaVuSans-65" x="183.154297"/>
     <use xlink:href="#DejaVuSans-6c" x="244.677734"/>
     <use xlink:href="#DejaVuSans-79" x="272.460938"/>
     <use xlink:href="#DejaVuSans-20" x="331.640625"/>
     <use xlink:href="#DejaVuSans-54" x="363.427734"/>
     <use xlink:href="#DejaVuSans-72" x="409.761719"/>
     <use xlink:href="#DejaVuSans-61" x="450.875"/>
     <use xlink:href="#DejaVuSans-6e" x="512.154297"/>
     <use xlink:href="#DejaVuSans-73" x="575.533203"/>
     <use xlink:href="#DejaVuSans-66" x="627.632812"/>
     <use xlink:href="#DejaVuSans-65" x="662.837891"/>
     <use xlink:href="#DejaVuSans-72" x="724.361328"/>
     <use xlink:href="#DejaVuSans-20" x="765.474609"/>
     <use xlink:href="#DejaVuSans-52" x="797.261719"/>
     <use xlink:href="#DejaVuSans-61" x="864.494141"/>
     <use xlink:href="#DejaVuSans-74" x="925.773438"/>
     <use xlink:href="#DejaVuSans-65" x="964.982422"/>
     <use xlink:href="#DejaVuSans-20" x="1026.505859"/>
     <use xlink:href="#DejaVuSans-28" x="1058.292969"/>
     <use xlink:href="#DejaVuSans-43" x="1097.306641"/>
     <use xlink:href="#DejaVuSans-75" x="1167.130859"/>
     <use xlink:href="#DejaVuSans-6d" x="1230.509766"/>
     <use xlink:href="#DejaVuSans-75" x="1327.921875"/>
     <use xlink:href="#DejaVuSans-6c" x="1391.300781"/>
     <use xlink:href="#DejaVuSans-61" x="1419.083984"/>
     <use xlink:href="#DejaVuSans-74" x="1480.363281"/>
     <use xlink:href="#DejaVuSans-69" x="1519.572266"/>
     <use xlink:href="#DejaVuSans-76" x="1547.355469"/>
     <use xlink:href="#DejaVuSans-65" x="1606.535156"/>
     <use xlink:href="#DejaVuSans-29" x="1668.058594"/>
    </g>
   </g>
   <g id="legend_1">
    <g id="patch_7">
     <path d="M 480.614062 255.44 
L 558.2 255.44 
Q 560.2 255.44 560.2 253.44 
L 560.2 180.493125 
Q 560.2 178.493125 558.2 178.493125 
L 480.614062 178.493125 
Q 478.614062 178.493125 478.614062 180.493125 
L 478.614062 253.44 
Q 478.614062 255.44 480.614062 255.44 
z
" style="fill: #ffffff; opacity: 0.8; stroke: #cccccc; stroke-linejoin: miter"/>
    </g>
    <g id="line2d_28">
     <path d="M 482.614062 186.591563 
L 492.614062 186.591563 
L 502.614062 186.591563 
" style="fill: none; stroke: #1f77b4; stroke-width: 1.8; stroke-linecap: square"/>
    </g>
    <g id="text_15">
     <!-- sheer -->
     <g transform="translate(510.614062 190.091563) scale(0.1 -0.1)">
      <defs>
       <path id="DejaVuSans-68" d="M 3513 2113 
L 3513 0 
L 2938 0 
L 2938 2094 
Q 2938 2591 2744 2837 
Q 2550 3084 2163 3084 
Q 1697 3084 1428 2787 
Q 1159 2491 1159 1978 
L 1159 0 
L 581 0 
L 581 4863 
L 1159 4863 
L 1159 2956 
Q 1366 3272 1645 3428 
Q 1925 3584 2291 3584 
Q 2894 3584 3203 3211 
Q 3513 2838 3513 2113 
z
" transform="scale(0.015625)"/>
      </defs>
      <use xlink:href="#DejaVuSans-73"/>
      <use xlink:href="#DejaVuSans-68" x="52.099609"/>
      <use xlink:href="#DejaVuSans-65" x="115.478516"/>
      <use xlink:href="#DejaVuSans-65" x="177.001953"/>
      <use xlink:href="#DejaVuSans-72" x="238.525391"/>
     </g>
    </g>
    <g id="line2d_29">
     <path d="M 482.614062 201.269688 
L 492.614062 201.269688 
L 502.614062 201.269688 
" style="fill: none; stroke: #ff7f0e; stroke-width: 1.8; stroke-linecap: square"/>
    </g>
    <g id="text_16">
     <!-- actar -->
     <g transform="translate(510.614062 204.769688) scale(0.1 -0.1)">
      <use xlink:href="#DejaVuSans-61"/>
      <use xlink:href="#DejaVuSans-63" x="61.279297"/>
      <use xlink:href="#DejaVuSans-74" x="116.259766"/>
      <use xlink:href="#DejaVuSans-61" x="155.46875"/>
      <use xlink:href="#DejaVuSans-72" x="216.748047"/>
     </g>
    </g>
    <g id="line2d_30">
     <path d="M 482.614062 215.947813 
L 492.614062 215.947813 
L 502.614062 215.947813 
" style="fill: none; stroke: #2ca02c; stroke-width: 1.8; stroke-linecap: square"/>
    </g>
    <g id="text_17">
     <!-- tfsm_dpc -->
     <g transform="translate(510.614062 219.447813) scale(0.1 -0.1)">
      <defs>
       <path id="DejaVuSans-5f" d="M 3263 -1063 
L 3263 -1509 
L -63 -1509 
L -63 -1063 
L 3263 -1063 
z
" transform="scale(0.015625)"/>
       <path id="DejaVuSans-70" d="M 1159 525 
L 1159 -1331 
L 581 -1331 
L 581 3500 
L 1159 3500 
L 1159 2969 
Q 1341 3281 1617 3432 
Q 1894 3584 2278 3584 
Q 2916 3584 3314 3078 
Q 3713 2572 3713 1747 
Q 3713 922 3314 415 
Q 2916 -91 2278 -91 
Q 1894 -91 1617 61 
Q 1341 213 1159 525 
z
M 3116 1747 
Q 3116 2381 2855 2742 
Q 2594 3103 2138 3103 
Q 1681 3103 1420 2742 
Q 1159 2381 1159 1747 
Q 1159 1113 1420 752 
Q 1681 391 2138 391 
Q 2594 391 2855 752 
Q 3116 1113 3116 1747 
z
" transform="scale(0.015625)"/>
      </defs>
      <use xlink:href="#DejaVuSans-74"/>
      <use xlink:href="#DejaVuSans-66" x="39.208984"/>
      <use xlink:href="#DejaVuSans-73" x="74.414062"/>
      <use xlink:href="#DejaVuSans-6d" x="126.513672"/>
      <use xlink:href="#DejaVuSans-5f" x="223.925781"/>
      <use xlink:href="#DejaVuSans-64" x="273.925781"/>
      <use xlink:href="#DejaVuSans-70" x="337.402344"/>
      <use xlink:href="#DejaVuSans-63" x="400.878906"/>
     </g>
    </g>
    <g id="line2d_31">
     <path d="M 482.614062 230.904063 
L 492.614062 230.904063 
L 502.614062 230.904063 
" style="fill: none; stroke: #d62728; stroke-width: 1.8; stroke-linecap: square"/>
    </g>
    <g id="text_18">
     <!-- dst_woa -->
     <g transform="translate(510.614062 234.404063) scale(0.1 -0.1)">
      <defs>
       <path id="DejaVuSans-77" d="M 269 3500 
L 844 3500 
L 1563 769 
L 2278 3500 
L 2956 3500 
L 3675 769 
L 4391 3500 
L 4966 3500 
L 4050 0 
L 3372 0 
L 2619 2869 
L 1863 0 
L 1184 0 
L 269 3500 
z
" transform="scale(0.015625)"/>
      </defs>
      <use xlink:href="#DejaVuSans-64"/>
      <use xlink:href="#DejaVuSans-73" x="63.476562"/>
      <use xlink:href="#DejaVuSans-74" x="115.576172"/>
      <use xlink:href="#DejaVuSans-5f" x="154.785156"/>
      <use xlink:href="#DejaVuSans-77" x="204.785156"/>
      <use xlink:href="#DejaVuSans-6f" x="286.572266"/>
      <use xlink:href="#DejaVuSans-61" x="347.753906"/>
     </g>
    </g>
    <g id="line2d_32">
     <path d="M 482.614062 245.860313 
L 492.614062 245.860313 
L 502.614062 245.860313 
" style="fill: none; stroke: #9467bd; stroke-width: 1.8; stroke-linecap: square"/>
    </g>
    <g id="text_19">
     <!-- trail -->
     <g transform="translate(510.614062 249.360313) scale(0.1 -0.1)">
      <use xlink:href="#DejaVuSans-74"/>
      <use xlink:href="#DejaVuSans-72" x="39.208984"/>
      <use xlink:href="#DejaVuSans-61" x="80.322266"/>
      <use xlink:href="#DejaVuSans-69" x="141.601562"/>
      <use xlink:href="#DejaVuSans-6c" x="169.384766"/>
     </g>
    </g>
   </g>
  </g>
 </g>
 <defs>
  <clipPath id="peed27b0c9c">
   <rect x="54.2" y="25.44" width="511" height="235"/>
  </clipPath>
 </defs>
</svg>
