<?xml version="1.0" encoding="utf-8" standalone="no"?>
<!DOCTYPE svg PUBLIC "-//W3C//DTD SVG 1.1//EN"
  "http://www.w3.org/Graphics/SVG/1.1/DTD/svg11.dtd">
<svg xmlns:xlink="http://www.w3.org/1999/xlink" width="576pt" height="302.4pt" viewBox="0 0 576 302.4" xmlns="http://www.w3.org/2000/svg" version="1.1">
 <metadata>
  <rdf:RDF xmlns:dc="http://purl.org/dc/elements/1.1/" xmlns:cc="http://creativecommons.org/ns#" xmlns:rdf="http://www.w3.org/1999/02/22-rdf-syntax-ns#">
   <cc:Work>
    <dc:type rdf:resource="http://purl.org/dc/dcmitype/StillImage"/>
    <dc:date>2025-09-02T21:43:56.864347</dc:date>
    <dc:format>image/svg+xml</dc:format>
    <dc:creator>
     <cc:Agent>
      <dc:title>Matplotlib v3.9.4, https://matplotlib.org/</dc:title>
     </cc:Agent>
    </dc:creator>
   </cc:Work>
  </rdf:RDF>
 </metadata>
 <defs>
  <style type="text/css">*{stroke-linejoin: round; stroke-linecap: butt}</style>
 </defs>
 <g id="figure_1">
  <g id="patch_1">
   <path d="M 0 302.4 
L 576 302.4 
L 576 0 
L 0 0 
z
" style="fill: #ffffff"/>
  </g>
  <g id="axes_1">
   <g id="patch_2">
    <path d="M 47.81 260.44 
L 565.2 260.44 
L 565.2 25.44 
L 47.81 25.44 
z
" style="fill: #ffffff"/>
   </g>
   <g id="matplotlib.axis_1">
    <g id="xtick_1">
     <g id="line2d_1">
      <path d="M 71.273855 260.44 
L 71.273855 25.44 
" clip-path="url(#p1f56de7dca)" style="fill: none; stroke-dasharray: 2.96,1.28; stroke-dashoffset: 0; stroke: #b0b0b0; stroke-opacity: 0.3; stroke-width: 0.8"/>
     </g>
     <g id="line2d_2">
      <defs>
       <path id="m7a2aae46bc" d="M 0 0 
L 0 3.5 
" style="stroke: #000000; stroke-width: 0.8"/>
      </defs>
      <g>
       <use xlink:href="#m7a2aae46bc" x="71.273855" y="260.44" style="stroke: #000000; stroke-width: 0.8"/>
      </g>
     </g>
     <g id="text_1">
      <!-- 0 -->
      <g transform="translate(68.092605 275.038438) scale(0.1 -0.1)">
       <defs>
        <path id="DejaVuSans-30" d="M 2034 4250 
Q 1547 4250 1301 3770 
Q 1056 3291 1056 2328 
Q 1056 1369 1301 889 
Q 1547 409 2034 409 
Q 2525 409 2770 889 
Q 3016 1369 3016 2328 
Q 3016 3291 2770 3770 
Q 2525 4250 2034 4250 
z
M 2034 4750 
Q 2819 4750 3233 4129 
Q 3647 3509 3647 2328 
Q 3647 1150 3233 529 
Q 2819 -91 2034 -91 
Q 1250 -91 836 529 
Q 422 1150 422 2328 
Q 422 3509 836 4129 
Q 1250 4750 2034 4750 
z
" transform="scale(0.015625)"/>
       </defs>
       <use xlink:href="#DejaVuSans-30"/>
      </g>
     </g>
    </g>
    <g id="xtick_2">
     <g id="line2d_3">
      <path d="M 179.017423 260.44 
L 179.017423 25.44 
" clip-path="url(#p1f56de7dca)" style="fill: none; stroke-dasharray: 2.96,1.28; stroke-dashoffset: 0; stroke: #b0b0b0; stroke-opacity: 0.3; stroke-width: 0.8"/>
     </g>
     <g id="line2d_4">
      <g>
       <use xlink:href="#m7a2aae46bc" x="179.017423" y="260.44" style="stroke: #000000; stroke-width: 0.8"/>
      </g>
     </g>
     <g id="text_2">
      <!-- 2000 -->
      <g transform="translate(166.292423 275.038438) scale(0.1 -0.1)">
       <defs>
        <path id="DejaVuSans-32" d="M 1228 531 
L 3431 531 
L 3431 0 
L 469 0 
L 469 531 
Q 828 903 1448 1529 
Q 2069 2156 2228 2338 
Q 2531 2678 2651 2914 
Q 2772 3150 2772 3378 
Q 2772 3750 2511 3984 
Q 2250 4219 1831 4219 
Q 1534 4219 1204 4116 
Q 875 4013 500 3803 
L 500 4441 
Q 881 4594 1212 4672 
Q 1544 4750 1819 4750 
Q 2544 4750 2975 4387 
Q 3406 4025 3406 3419 
Q 3406 3131 3298 2873 
Q 3191 2616 2906 2266 
Q 2828 2175 2409 1742 
Q 1991 1309 1228 531 
z
" transform="scale(0.015625)"/>
       </defs>
       <use xlink:href="#DejaVuSans-32"/>
       <use xlink:href="#DejaVuSans-30" x="63.623047"/>
       <use xlink:href="#DejaVuSans-30" x="127.246094"/>
       <use xlink:href="#DejaVuSans-30" x="190.869141"/>
      </g>
     </g>
    </g>
    <g id="xtick_3">
     <g id="line2d_5">
      <path d="M 286.760991 260.44 
L 286.760991 25.44 
" clip-path="url(#p1f56de7dca)" style="fill: none; stroke-dasharray: 2.96,1.28; stroke-dashoffset: 0; stroke: #b0b0b0; stroke-opacity: 0.3; stroke-width: 0.8"/>
     </g>
     <g id="line2d_6">
      <g>
       <use xlink:href="#m7a2aae46bc" x="286.760991" y="260.44" style="stroke: #000000; stroke-width: 0.8"/>
      </g>
     </g>
     <g id="text_3">
      <!-- 4000 -->
      <g transform="translate(274.035991 275.038438) scale(0.1 -0.1)">
       <defs>
        <path id="DejaVuSans-34" d="M 2419 4116 
L 825 1625 
L 2419 1625 
L 2419 4116 
z
M 2253 4666 
L 3047 4666 
L 3047 1625 
L 3713 1625 
L 3713 1100 
L 3047 1100 
L 3047 0 
L 2419 0 
L 2419 1100 
L 313 1100 
L 313 1709 
L 2253 4666 
z
" transform="scale(0.015625)"/>
       </defs>
       <use xlink:href="#DejaVuSans-34"/>
       <use xlink:href="#DejaVuSans-30" x="63.623047"/>
       <use xlink:href="#DejaVuSans-30" x="127.246094"/>
       <use xlink:href="#DejaVuSans-30" x="190.869141"/>
      </g>
     </g>
    </g>
    <g id="xtick_4">
     <g id="line2d_7">
      <path d="M 394.504559 260.44 
L 394.504559 25.44 
" clip-path="url(#p1f56de7dca)" style="fill: none; stroke-dasharray: 2.96,1.28; stroke-dashoffset: 0; stroke: #b0b0b0; stroke-opacity: 0.3; stroke-width: 0.8"/>
     </g>
     <g id="line2d_8">
      <g>
       <use xlink:href="#m7a2aae46bc" x="394.504559" y="260.44" style="stroke: #000000; stroke-width: 0.8"/>
      </g>
     </g>
     <g id="text_4">
      <!-- 6000 -->
      <g transform="translate(381.779559 275.038438) scale(0.1 -0.1)">
       <defs>
        <path id="DejaVuSans-36" d="M 2113 2584 
Q 1688 2584 1439 2293 
Q 1191 2003 1191 1497 
Q 1191 994 1439 701 
Q 1688 409 2113 409 
Q 2538 409 2786 701 
Q 3034 994 3034 1497 
Q 3034 2003 2786 2293 
Q 2538 2584 2113 2584 
z
M 3366 4563 
L 3366 3988 
Q 3128 4100 2886 4159 
Q 2644 4219 2406 4219 
Q 1781 4219 1451 3797 
Q 1122 3375 1075 2522 
Q 1259 2794 1537 2939 
Q 1816 3084 2150 3084 
Q 2853 3084 3261 2657 
Q 3669 2231 3669 1497 
Q 3669 778 3244 343 
Q 2819 -91 2113 -91 
Q 1303 -91 875 529 
Q 447 1150 447 2328 
Q 447 3434 972 4092 
Q 1497 4750 2381 4750 
Q 2619 4750 2861 4703 
Q 3103 4656 3366 4563 
z
" transform="scale(0.015625)"/>
       </defs>
       <use xlink:href="#DejaVuSans-36"/>
       <use xlink:href="#DejaVuSans-30" x="63.623047"/>
       <use xlink:href="#DejaVuSans-30" x="127.246094"/>
       <use xlink:href="#DejaVuSans-30" x="190.869141"/>
      </g>
     </g>
    </g>
    <g id="xtick_5">
     <g id="line2d_9">
      <path d="M 502.248127 260.44 
L 502.248127 25.44 
" clip-path="url(#p1f56de7dca)" style="fill: none; stroke-dasharray: 2.96,1.28; stroke-dashoffset: 0; stroke: #b0b0b0; stroke-opacity: 0.3; stroke-width: 0.8"/>
     </g>
     <g id="line2d_10">
      <g>
       <use xlink:href="#m7a2aae46bc" x="502.248127" y="260.44" style="stroke: #000000; stroke-width: 0.8"/>
      </g>
     </g>
     <g id="text_5">
      <!-- 8000 -->
      <g transform="translate(489.523127 275.038438) scale(0.1 -0.1)">
       <defs>
        <path id="DejaVuSans-38" d="M 2034 2216 
Q 1584 2216 1326 1975 
Q 1069 1734 1069 1313 
Q 1069 891 1326 650 
Q 1584 409 2034 409 
Q 2484 409 2743 651 
Q 3003 894 3003 1313 
Q 3003 1734 2745 1975 
Q 2488 2216 2034 2216 
z
M 1403 2484 
Q 997 2584 770 2862 
Q 544 3141 544 3541 
Q 544 4100 942 4425 
Q 1341 4750 2034 4750 
Q 2731 4750 3128 4425 
Q 3525 4100 3525 3541 
Q 3525 3141 3298 2862 
Q 3072 2584 2669 2484 
Q 3125 2378 3379 2068 
Q 3634 1759 3634 1313 
Q 3634 634 3220 271 
Q 2806 -91 2034 -91 
Q 1263 -91 848 271 
Q 434 634 434 1313 
Q 434 1759 690 2068 
Q 947 2378 1403 2484 
z
M 1172 3481 
Q 1172 3119 1398 2916 
Q 1625 2713 2034 2713 
Q 2441 2713 2670 2916 
Q 2900 3119 2900 3481 
Q 2900 3844 2670 4047 
Q 2441 4250 2034 4250 
Q 1625 4250 1398 4047 
Q 1172 3844 1172 3481 
z
" transform="scale(0.015625)"/>
       </defs>
       <use xlink:href="#DejaVuSans-38"/>
       <use xlink:href="#DejaVuSans-30" x="63.623047"/>
       <use xlink:href="#DejaVuSans-30" x="127.246094"/>
       <use xlink:href="#DejaVuSans-30" x="190.869141"/>
      </g>
     </g>
    </g>
    <g id="text_6">
     <!-- round -->
     <g transform="translate(291.990937 288.716563) scale(0.1 -0.1)">
      <defs>
       <path id="DejaVuSans-72" d="M 2631 2963 
Q 2534 3019 2420 3045 
Q 2306 3072 2169 3072 
Q 1681 3072 1420 2755 
Q 1159 2438 1159 1844 
L 1159 0 
L 581 0 
L 581 3500 
L 1159 3500 
L 1159 2956 
Q 1341 3275 1631 3429 
Q 1922 3584 2338 3584 
Q 2397 3584 2469 3576 
Q 2541 3569 2628 3553 
L 2631 2963 
z
" transform="scale(0.015625)"/>
       <path id="DejaVuSans-6f" d="M 1959 3097 
Q 1497 3097 1228 2736 
Q 959 2375 959 1747 
Q 959 1119 1226 758 
Q 1494 397 1959 397 
Q 2419 397 2687 759 
Q 2956 1122 2956 1747 
Q 2956 2369 2687 2733 
Q 2419 3097 1959 3097 
z
M 1959 3584 
Q 2709 3584 3137 3096 
Q 3566 2609 3566 1747 
Q 3566 888 3137 398 
Q 2709 -91 1959 -91 
Q 1206 -91 779 398 
Q 353 888 353 1747 
Q 353 2609 779 3096 
Q 1206 3584 1959 3584 
z
" transform="scale(0.015625)"/>
       <path id="DejaVuSans-75" d="M 544 1381 
L 544 3500 
L 1119 3500 
L 1119 1403 
Q 1119 906 1312 657 
Q 1506 409 1894 409 
Q 2359 409 2629 706 
Q 2900 1003 2900 1516 
L 2900 3500 
L 3475 3500 
L 3475 0 
L 2900 0 
L 2900 538 
Q 2691 219 2414 64 
Q 2138 -91 1772 -91 
Q 1169 -91 856 284 
Q 544 659 544 1381 
z
M 1991 3584 
L 1991 3584 
z
" transform="scale(0.015625)"/>
       <path id="DejaVuSans-6e" d="M 3513 2113 
L 3513 0 
L 2938 0 
L 2938 2094 
Q 2938 2591 2744 2837 
Q 2550 3084 2163 3084 
Q 1697 3084 1428 2787 
Q 1159 2491 1159 1978 
L 1159 0 
L 581 0 
L 581 3500 
L 1159 3500 
L 1159 2956 
Q 1366 3272 1645 3428 
Q 1925 3584 2291 3584 
Q 2894 3584 3203 3211 
Q 3513 2838 3513 2113 
z
" transform="scale(0.015625)"/>
       <path id="DejaVuSans-64" d="M 2906 2969 
L 2906 4863 
L 3481 4863 
L 3481 0 
L 2906 0 
L 2906 525 
Q 2725 213 2448 61 
Q 2172 -91 1784 -91 
Q 1150 -91 751 415 
Q 353 922 353 1747 
Q 353 2572 751 3078 
Q 1150 3584 1784 3584 
Q 2172 3584 2448 3432 
Q 2725 3281 2906 2969 
z
M 947 1747 
Q 947 1113 1208 752 
Q 1469 391 1925 391 
Q 2381 391 2643 752 
Q 2906 1113 2906 1747 
Q 2906 2381 2643 2742 
Q 2381 3103 1925 3103 
Q 1469 3103 1208 2742 
Q 947 2381 947 1747 
z
" transform="scale(0.015625)"/>
      </defs>
      <use xlink:href="#DejaVuSans-72"/>
      <use xlink:href="#DejaVuSans-6f" x="38.863281"/>
      <use xlink:href="#DejaVuSans-75" x="100.044922"/>
      <use xlink:href="#DejaVuSans-6e" x="163.423828"/>
      <use xlink:href="#DejaVuSans-64" x="226.802734"/>
     </g>
    </g>
   </g>
   <g id="matplotlib.axis_2">
    <g id="ytick_1">
     <g id="line2d_11">
      <path d="M 47.81 252.242326 
L 565.2 252.242326 
" clip-path="url(#p1f56de7dca)" style="fill: none; stroke-dasharray: 2.96,1.28; stroke-dashoffset: 0; stroke: #b0b0b0; stroke-opacity: 0.3; stroke-width: 0.8"/>
     </g>
     <g id="line2d_12">
      <defs>
       <path id="mb82aa5174a" d="M 0 0 
L -3.5 0 
" style="stroke: #000000; stroke-width: 0.8"/>
      </defs>
      <g>
       <use xlink:href="#mb82aa5174a" x="47.81" y="252.242326" style="stroke: #000000; stroke-width: 0.8"/>
      </g>
     </g>
     <g id="text_7">
      <!-- 0.5 -->
      <g transform="translate(24.906875 256.041544) scale(0.1 -0.1)">
       <defs>
        <path id="DejaVuSans-2e" d="M 684 794 
L 1344 794 
L 1344 0 
L 684 0 
L 684 794 
z
" transform="scale(0.015625)"/>
        <path id="DejaVuSans-35" d="M 691 4666 
L 3169 4666 
L 3169 4134 
L 1269 4134 
L 1269 2991 
Q 1406 3038 1543 3061 
Q 1681 3084 1819 3084 
Q 2600 3084 3056 2656 
Q 3513 2228 3513 1497 
Q 3513 744 3044 326 
Q 2575 -91 1722 -91 
Q 1428 -91 1123 -41 
Q 819 9 494 109 
L 494 744 
Q 775 591 1075 516 
Q 1375 441 1709 441 
Q 2250 441 2565 725 
Q 2881 1009 2881 1497 
Q 2881 1984 2565 2268 
Q 2250 2553 1709 2553 
Q 1456 2553 1204 2497 
Q 953 2441 691 2322 
L 691 4666 
z
" transform="scale(0.015625)"/>
       </defs>
       <use xlink:href="#DejaVuSans-30"/>
       <use xlink:href="#DejaVuSans-2e" x="63.623047"/>
       <use xlink:href="#DejaVuSans-35" x="95.410156"/>
      </g>
     </g>
    </g>
    <g id="ytick_2">
     <g id="line2d_13">
      <path d="M 47.81 209.018224 
L 565.2 209.018224 
" clip-path="url(#p1f56de7dca)" style="fill: none; stroke-dasharray: 2.96,1.28; stroke-dashoffset: 0; stroke: #b0b0b0; stroke-opacity: 0.3; stroke-width: 0.8"/>
     </g>
     <g id="line2d_14">
      <g>
       <use xlink:href="#mb82aa5174a" x="47.81" y="209.018224" style="stroke: #000000; stroke-width: 0.8"/>
      </g>
     </g>
     <g id="text_8">
      <!-- 0.6 -->
      <g transform="translate(24.906875 212.817443) scale(0.1 -0.1)">
       <use xlink:href="#DejaVuSans-30"/>
       <use xlink:href="#DejaVuSans-2e" x="63.623047"/>
       <use xlink:href="#DejaVuSans-36" x="95.410156"/>
      </g>
     </g>
    </g>
    <g id="ytick_3">
     <g id="line2d_15">
      <path d="M 47.81 165.794123 
L 565.2 165.794123 
" clip-path="url(#p1f56de7dca)" style="fill: none; stroke-dasharray: 2.96,1.28; stroke-dashoffset: 0; stroke: #b0b0b0; stroke-opacity: 0.3; stroke-width: 0.8"/>
     </g>
     <g id="line2d_16">
      <g>
       <use xlink:href="#mb82aa5174a" x="47.81" y="165.794123" style="stroke: #000000; stroke-width: 0.8"/>
      </g>
     </g>
     <g id="text_9">
      <!-- 0.7 -->
      <g transform="translate(24.906875 169.593341) scale(0.1 -0.1)">
       <defs>
        <path id="DejaVuSans-37" d="M 525 4666 
L 3525 4666 
L 3525 4397 
L 1831 0 
L 1172 0 
L 2766 4134 
L 525 4134 
L 525 4666 
z
" transform="scale(0.015625)"/>
       </defs>
       <use xlink:href="#DejaVuSans-30"/>
       <use xlink:href="#DejaVuSans-2e" x="63.623047"/>
       <use xlink:href="#DejaVuSans-37" x="95.410156"/>
      </g>
     </g>
    </g>
    <g id="ytick_4">
     <g id="line2d_17">
      <path d="M 47.81 122.570021 
L 565.2 122.570021 
" clip-path="url(#p1f56de7dca)" style="fill: none; stroke-dasharray: 2.96,1.28; stroke-dashoffset: 0; stroke: #b0b0b0; stroke-opacity: 0.3; stroke-width: 0.8"/>
     </g>
     <g id="line2d_18">
      <g>
       <use xlink:href="#mb82aa5174a" x="47.81" y="122.570021" style="stroke: #000000; stroke-width: 0.8"/>
      </g>
     </g>
     <g id="text_10">
      <!-- 0.8 -->
      <g transform="translate(24.906875 126.36924) scale(0.1 -0.1)">
       <use xlink:href="#DejaVuSans-30"/>
       <use xlink:href="#DejaVuSans-2e" x="63.623047"/>
       <use xlink:href="#DejaVuSans-38" x="95.410156"/>
      </g>
     </g>
    </g>
    <g id="ytick_5">
     <g id="line2d_19">
      <path d="M 47.81 79.34592 
L 565.2 79.34592 
" clip-path="url(#p1f56de7dca)" style="fill: none; stroke-dasharray: 2.96,1.28; stroke-dashoffset: 0; stroke: #b0b0b0; stroke-opacity: 0.3; stroke-width: 0.8"/>
     </g>
     <g id="line2d_20">
      <g>
       <use xlink:href="#mb82aa5174a" x="47.81" y="79.34592" style="stroke: #000000; stroke-width: 0.8"/>
      </g>
     </g>
     <g id="text_11">
      <!-- 0.9 -->
      <g transform="translate(24.906875 83.145138) scale(0.1 -0.1)">
       <defs>
        <path id="DejaVuSans-39" d="M 703 97 
L 703 672 
Q 941 559 1184 500 
Q 1428 441 1663 441 
Q 2288 441 2617 861 
Q 2947 1281 2994 2138 
Q 2813 1869 2534 1725 
Q 2256 1581 1919 1581 
Q 1219 1581 811 2004 
Q 403 2428 403 3163 
Q 403 3881 828 4315 
Q 1253 4750 1959 4750 
Q 2769 4750 3195 4129 
Q 3622 3509 3622 2328 
Q 3622 1225 3098 567 
Q 2575 -91 1691 -91 
Q 1453 -91 1209 -44 
Q 966 3 703 97 
z
M 1959 2075 
Q 2384 2075 2632 2365 
Q 2881 2656 2881 3163 
Q 2881 3666 2632 3958 
Q 2384 4250 1959 4250 
Q 1534 4250 1286 3958 
Q 1038 3666 1038 3163 
Q 1038 2656 1286 2365 
Q 1534 2075 1959 2075 
z
" transform="scale(0.015625)"/>
       </defs>
       <use xlink:href="#DejaVuSans-30"/>
       <use xlink:href="#DejaVuSans-2e" x="63.623047"/>
       <use xlink:href="#DejaVuSans-39" x="95.410156"/>
      </g>
     </g>
    </g>
    <g id="ytick_6">
     <g id="line2d_21">
      <path d="M 47.81 36.121818 
L 565.2 36.121818 
" clip-path="url(#p1f56de7dca)" style="fill: none; stroke-dasharray: 2.96,1.28; stroke-dashoffset: 0; stroke: #b0b0b0; stroke-opacity: 0.3; stroke-width: 0.8"/>
     </g>
     <g id="line2d_22">
      <g>
       <use xlink:href="#mb82aa5174a" x="47.81" y="36.121818" style="stroke: #000000; stroke-width: 0.8"/>
      </g>
     </g>
     <g id="text_12">
      <!-- 1.0 -->
      <g transform="translate(24.906875 39.921037) scale(0.1 -0.1)">
       <defs>
        <path id="DejaVuSans-31" d="M 794 531 
L 1825 531 
L 1825 4091 
L 703 3866 
L 703 4441 
L 1819 4666 
L 2450 4666 
L 2450 531 
L 3481 531 
L 3481 0 
L 794 0 
L 794 531 
z
" transform="scale(0.015625)"/>
       </defs>
       <use xlink:href="#DejaVuSans-31"/>
       <use xlink:href="#DejaVuSans-2e" x="63.623047"/>
       <use xlink:href="#DejaVuSans-30" x="95.410156"/>
      </g>
     </g>
    </g>
    <g id="text_13">
     <!-- cumulative timely transfer rate -->
     <g transform="translate(18.827188 221.048594) rotate(-90) scale(0.1 -0.1)">
      <defs>
       <path id="DejaVuSans-63" d="M 3122 3366 
L 3122 2828 
Q 2878 2963 2633 3030 
Q 2388 3097 2138 3097 
Q 1578 3097 1268 2742 
Q 959 2388 959 1747 
Q 959 1106 1268 751 
Q 1578 397 2138 397 
Q 2388 397 2633 464 
Q 2878 531 3122 666 
L 3122 134 
Q 2881 22 2623 -34 
Q 2366 -91 2075 -91 
Q 1284 -91 818 406 
Q 353 903 353 1747 
Q 353 2603 823 3093 
Q 1294 3584 2113 3584 
Q 2378 3584 2631 3529 
Q 2884 3475 3122 3366 
z
" transform="scale(0.015625)"/>
       <path id="DejaVuSans-6d" d="M 3328 2828 
Q 3544 3216 3844 3400 
Q 4144 3584 4550 3584 
Q 5097 3584 5394 3201 
Q 5691 2819 5691 2113 
L 5691 0 
L 5113 0 
L 5113 2094 
Q 5113 2597 4934 2840 
Q 4756 3084 4391 3084 
Q 3944 3084 3684 2787 
Q 3425 2491 3425 1978 
L 3425 0 
L 2847 0 
L 2847 2094 
Q 2847 2600 2669 2842 
Q 2491 3084 2119 3084 
Q 1678 3084 1418 2786 
Q 1159 2488 1159 1978 
L 1159 0 
L 581 0 
L 581 3500 
L 1159 3500 
L 1159 2956 
Q 1356 3278 1631 3431 
Q 1906 3584 2284 3584 
Q 2666 3584 2933 3390 
Q 3200 3197 3328 2828 
z
" transform="scale(0.015625)"/>
       <path id="DejaVuSans-6c" d="M 603 4863 
L 1178 4863 
L 1178 0 
L 603 0 
L 603 4863 
z
" transform="scale(0.015625)"/>
       <path id="DejaVuSans-61" d="M 2194 1759 
Q 1497 1759 1228 1600 
Q 959 1441 959 1056 
Q 959 750 1161 570 
Q 1363 391 1709 391 
Q 2188 391 2477 730 
Q 2766 1069 2766 1631 
L 2766 1759 
L 2194 1759 
z
M 3341 1997 
L 3341 0 
L 2766 0 
L 2766 531 
Q 2569 213 2275 61 
Q 1981 -91 1556 -91 
Q 1019 -91 701 211 
Q 384 513 384 1019 
Q 384 1609 779 1909 
Q 1175 2209 1959 2209 
L 2766 2209 
L 2766 2266 
Q 2766 2663 2505 2880 
Q 2244 3097 1772 3097 
Q 1472 3097 1187 3025 
Q 903 2953 641 2809 
L 641 3341 
Q 956 3463 1253 3523 
Q 1550 3584 1831 3584 
Q 2591 3584 2966 3190 
Q 3341 2797 3341 1997 
z
" transform="scale(0.015625)"/>
       <path id="DejaVuSans-74" d="M 1172 4494 
L 1172 3500 
L 2356 3500 
L 2356 3053 
L 1172 3053 
L 1172 1153 
Q 1172 725 1289 603 
Q 1406 481 1766 481 
L 2356 481 
L 2356 0 
L 1766 0 
Q 1100 0 847 248 
Q 594 497 594 1153 
L 594 3053 
L 172 3053 
L 172 3500 
L 594 3500 
L 594 4494 
L 1172 4494 
z
" transform="scale(0.015625)"/>
       <path id="DejaVuSans-69" d="M 603 3500 
L 1178 3500 
L 1178 0 
L 603 0 
L 603 3500 
z
M 603 4863 
L 1178 4863 
L 1178 4134 
L 603 4134 
L 603 4863 
z
" transform="scale(0.015625)"/>
       <path id="DejaVuSans-76" d="M 191 3500 
L 800 3500 
L 1894 563 
L 2988 3500 
L 3597 3500 
L 2284 0 
L 1503 0 
L 191 3500 
z
" transform="scale(0.015625)"/>
       <path id="DejaVuSans-65" d="M 3597 1894 
L 3597 1613 
L 953 1613 
Q 991 1019 1311 708 
Q 1631 397 2203 397 
Q 2534 397 2845 478 
Q 3156 559 3463 722 
L 3463 178 
Q 3153 47 2828 -22 
Q 2503 -91 2169 -91 
Q 1331 -91 842 396 
Q 353 884 353 1716 
Q 353 2575 817 3079 
Q 1281 3584 2069 3584 
Q 2775 3584 3186 3129 
Q 3597 2675 3597 1894 
z
M 3022 2063 
Q 3016 2534 2758 2815 
Q 2500 3097 2075 3097 
Q 1594 3097 1305 2825 
Q 1016 2553 972 2059 
L 3022 2063 
z
" transform="scale(0.015625)"/>
       <path id="DejaVuSans-20" transform="scale(0.015625)"/>
       <path id="DejaVuSans-79" d="M 2059 -325 
Q 1816 -950 1584 -1140 
Q 1353 -1331 966 -1331 
L 506 -1331 
L 506 -850 
L 844 -850 
Q 1081 -850 1212 -737 
Q 1344 -625 1503 -206 
L 1606 56 
L 191 3500 
L 800 3500 
L 1894 763 
L 2988 3500 
L 3597 3500 
L 2059 -325 
z
" transform="scale(0.015625)"/>
       <path id="DejaVuSans-73" d="M 2834 3397 
L 2834 2853 
Q 2591 2978 2328 3040 
Q 2066 3103 1784 3103 
Q 1356 3103 1142 2972 
Q 928 2841 928 2578 
Q 928 2378 1081 2264 
Q 1234 2150 1697 2047 
L 1894 2003 
Q 2506 1872 2764 1633 
Q 3022 1394 3022 966 
Q 3022 478 2636 193 
Q 2250 -91 1575 -91 
Q 1294 -91 989 -36 
Q 684 19 347 128 
L 347 722 
Q 666 556 975 473 
Q 1284 391 1588 391 
Q 1994 391 2212 530 
Q 2431 669 2431 922 
Q 2431 1156 2273 1281 
Q 2116 1406 1581 1522 
L 1381 1569 
Q 847 1681 609 1914 
Q 372 2147 372 2553 
Q 372 3047 722 3315 
Q 1072 3584 1716 3584 
Q 2034 3584 2315 3537 
Q 2597 3491 2834 3397 
z
" transform="scale(0.015625)"/>
       <path id="DejaVuSans-66" d="M 2375 4863 
L 2375 4384 
L 1825 4384 
Q 1516 4384 1395 4259 
Q 1275 4134 1275 3809 
L 1275 3500 
L 2222 3500 
L 2222 3053 
L 1275 3053 
L 1275 0 
L 697 0 
L 697 3053 
L 147 3053 
L 147 3500 
L 697 3500 
L 697 3744 
Q 697 4328 969 4595 
Q 1241 4863 1831 4863 
L 2375 4863 
z
" transform="scale(0.015625)"/>
      </defs>
      <use xlink:href="#DejaVuSans-63"/>
      <use xlink:href="#DejaVuSans-75" x="54.980469"/>
      <use xlink:href="#DejaVuSans-6d" x="118.359375"/>
      <use xlink:href="#DejaVuSans-75" x="215.771484"/>
      <use xlink:href="#DejaVuSans-6c" x="279.150391"/>
      <use xlink:href="#DejaVuSans-61" x="306.933594"/>
      <use xlink:href="#DejaVuSans-74" x="368.212891"/>
      <use xlink:href="#DejaVuSans-69" x="407.421875"/>
      <use xlink:href="#DejaVuSans-76" x="435.205078"/>
      <use xlink:href="#DejaVuSans-65" x="494.384766"/>
      <use xlink:href="#DejaVuSans-20" x="555.908203"/>
      <use xlink:href="#DejaVuSans-74" x="587.695312"/>
      <use xlink:href="#DejaVuSans-69" x="626.904297"/>
      <use xlink:href="#DejaVuSans-6d" x="654.6875"/>
      <use xlink:href="#DejaVuSans-65" x="752.099609"/>
      <use xlink:href="#DejaVuSans-6c" x="813.623047"/>
      <use xlink:href="#DejaVuSans-79" x="841.40625"/>
      <use xlink:href="#DejaVuSans-20" x="900.585938"/>
      <use xlink:href="#DejaVuSans-74" x="932.373047"/>
      <use xlink:href="#DejaVuSans-72" x="971.582031"/>
      <use xlink:href="#DejaVuSans-61" x="1012.695312"/>
      <use xlink:href="#DejaVuSans-6e" x="1073.974609"/>
      <use xlink:href="#DejaVuSans-73" x="1137.353516"/>
      <use xlink:href="#DejaVuSans-66" x="1189.453125"/>
      <use xlink:href="#DejaVuSans-65" x="1224.658203"/>
      <use xlink:href="#DejaVuSans-72" x="1286.181641"/>
      <use xlink:href="#DejaVuSans-20" x="1327.294922"/>
      <use xlink:href="#DejaVuSans-72" x="1359.082031"/>
      <use xlink:href="#DejaVuSans-61" x="1400.195312"/>
      <use xlink:href="#DejaVuSans-74" x="1461.474609"/>
      <use xlink:href="#DejaVuSans-65" x="1500.683594"/>
     </g>
    </g>
   </g>
   <g id="line2d_23">
    <path d="M 71.327727 236.805146 
L 71.435471 249.758182 
L 71.70483 137.134664 
L 71.920317 109.296478 
L 72.081932 142.24087 
L 72.135804 137.679879 
L 72.189676 143.31759 
L 72.566778 111.11886 
L 72.997753 92.0306 
L 73.482599 79.253164 
L 74.021316 70.420807 
L 74.344547 67.949541 
L 74.452291 74.492227 
L 74.506163 74.032012 
L 74.560034 73.307258 
L 74.667778 78.827352 
L 74.72165 77.941958 
L 75.314239 70.681351 
L 75.799085 66.668886 
L 76.014572 71.441123 
L 76.23006 70.455856 
L 76.391675 74.785579 
L 76.445547 74.381917 
L 76.499419 73.918678 
L 76.55329 75.259487 
L 76.607162 75.01779 
L 76.822649 73.724022 
L 76.876521 74.968795 
L 76.930393 74.692131 
L 77.038136 74.213393 
L 77.092008 73.885287 
L 77.199752 76.020989 
L 77.253624 75.876135 
L 77.307495 75.447816 
L 77.684598 89.847607 
L 77.792341 89.566635 
L 77.900085 89.308352 
L 78.0617 88.034654 
L 78.115572 88.773526 
L 78.169444 88.341955 
L 78.277187 87.463691 
L 78.438803 88.938198 
L 78.869777 85.088219 
L 79.300751 80.789211 
L 79.354623 81.510815 
L 79.408495 81.063192 
L 79.462367 80.723869 
L 79.623982 83.030789 
L 79.731726 82.244396 
L 80.001084 87.829967 
L 80.054956 87.558499 
L 80.1627 86.698692 
L 80.216572 88.521045 
L 80.270443 88.116027 
L 80.485931 86.925695 
L 80.647546 89.251443 
L 80.755289 88.751944 
L 80.863033 88.380465 
L 80.916905 89.993069 
L 80.970777 89.629973 
L 81.024648 89.165203 
L 81.778853 97.933428 
L 81.832725 97.695112 
L 82.155956 95.958772 
L 82.263699 97.870535 
L 82.317571 97.570725 
L 82.802417 94.494443 
L 82.856289 95.102835 
L 82.910161 94.71104 
L 83.17952 92.63125 
L 84.472443 82.332802 
L 86.142468 73.554941 
L 86.19634 73.864175 
L 86.250211 73.6166 
L 86.357955 73.263747 
L 86.627314 74.793544 
L 86.681186 74.655476 
L 86.788929 76.198062 
L 86.842801 76.057129 
L 86.896673 76.296155 
L 86.950545 76.155983 
L 87.004416 75.974795 
L 87.058288 76.161749 
L 87.11216 76.226655 
L 87.273775 75.90784 
L 87.327647 76.461377 
L 87.381519 76.358888 
L 87.435391 76.175715 
L 87.489262 76.397043 
L 87.543134 76.223529 
L 88.62057 72.235244 
L 88.728313 73.374093 
L 88.782185 74.144427 
L 88.836057 74.04435 
L 88.889929 73.948108 
L 89.105416 75.090387 
L 89.159288 74.916016 
L 89.21316 74.746508 
L 89.320903 75.219916 
L 89.428647 74.927133 
L 89.482518 75.376987 
L 89.53639 75.239468 
L 90.021236 73.7095 
L 90.075108 74.220205 
L 90.12898 74.09311 
L 90.290595 73.787376 
L 90.398339 74.039464 
L 90.452211 73.960083 
L 90.506082 73.83726 
L 90.559954 73.981616 
L 90.613826 74.819575 
L 90.667698 74.677598 
L 90.883185 74.117093 
L 91.0448 75.258587 
L 91.368031 74.780082 
L 91.421903 74.997153 
L 91.475774 74.981963 
L 91.529646 74.941391 
L 92.391595 72.122672 
L 92.55321 71.902979 
L 92.876441 74.418109 
L 92.984184 74.703846 
L 93.038056 74.501458 
L 93.253543 74.132075 
L 93.361287 73.854576 
L 93.415159 74.056078 
L 93.46903 73.924501 
L 93.684518 73.498418 
L 93.846133 73.48273 
L 94.330979 72.238381 
L 94.384851 72.432168 
L 94.492594 73.287535 
L 94.546466 73.140626 
L 94.65421 72.994061 
L 94.708081 73.284361 
L 94.761953 73.15223 
L 95.031312 72.75688 
L 95.139056 72.532843 
L 95.300671 72.923838 
L 95.354543 72.807781 
L 95.408415 73.291501 
L 95.462286 73.195076 
L 95.623902 73.525732 
L 95.677774 74.09845 
L 95.731645 74.043763 
L 95.893261 73.796617 
L 96.054876 74.364991 
L 96.216491 74.0836 
L 96.270363 74.537747 
L 96.324235 74.390476 
L 96.48585 74.038864 
L 96.539722 74.075335 
L 96.647466 74.026877 
L 96.862953 73.731692 
L 96.970696 74.339108 
L 97.024568 74.258824 
L 97.186184 74.513757 
L 97.617158 73.658868 
L 97.67103 73.602623 
L 97.778773 73.96005 
L 97.832645 73.863889 
L 97.99426 74.513066 
L 98.263619 75.496041 
L 98.317491 75.388769 
L 98.371363 75.313291 
L 98.58685 75.846244 
L 98.694594 76.412265 
L 98.748465 76.334445 
L 99.071696 75.912394 
L 99.125568 76.047382 
L 99.17944 75.945004 
L 99.772029 74.794034 
L 99.825901 74.957876 
L 99.879773 74.863753 
L 99.987516 74.941295 
L 100.256875 74.633241 
L 100.310747 74.593917 
L 100.633978 77.091239 
L 100.741721 77.676847 
L 100.795593 77.626492 
L 100.903337 77.43144 
L 101.172696 78.629439 
L 101.280439 78.479235 
L 101.334311 78.532444 
L 101.442054 78.774629 
L 101.495926 79.059201 
L 101.549798 78.947662 
L 101.60367 78.860924 
L 101.657542 79.0125 
L 101.711413 78.913992 
L 101.819157 78.743971 
L 101.873029 78.791765 
L 102.196259 79.678085 
L 102.411747 79.317202 
L 102.573362 79.534231 
L 102.681106 79.473424 
L 102.734977 79.37605 
L 102.788849 79.469627 
L 103.004336 79.352558 
L 103.273695 80.729854 
L 103.327567 80.829043 
L 103.381439 80.791701 
L 103.758541 80.49372 
L 104.0279 80.935513 
L 104.081772 80.857409 
L 104.189515 81.152581 
L 104.243387 81.106033 
L 104.297259 81.043013 
L 104.512746 81.925754 
L 104.782105 82.23738 
L 104.835977 82.195084 
L 104.889849 82.30128 
L 104.94372 82.252781 
L 105.159208 81.975464 
L 105.859541 83.543232 
L 106.075028 84.366779 
L 106.506002 83.657465 
L 106.559874 83.731016 
L 106.775361 83.940526 
L 106.829233 83.837977 
L 107.04472 83.900133 
L 107.098592 83.811442 
L 107.206335 84.36177 
L 107.260207 84.274335 
L 107.367951 84.471313 
L 107.421823 84.395464 
L 107.475694 84.297376 
L 107.529566 84.642335 
L 107.583438 84.534419 
L 109.199591 82.063481 
L 109.253463 82.129872 
L 109.415079 82.29637 
L 109.576694 82.259379 
L 109.738309 82.709002 
L 109.846053 82.549467 
L 109.899925 82.68627 
L 109.953796 82.602602 
L 110.223155 82.256968 
L 110.277027 82.365802 
L 110.330899 82.278044 
L 110.384771 82.214178 
L 110.438642 82.358296 
L 110.492514 82.282097 
L 110.97736 81.681876 
L 111.031232 81.805 
L 111.085104 81.7647 
L 111.300591 81.48745 
L 111.462206 81.53162 
L 111.731565 81.101561 
L 111.839309 81.185428 
L 112.162539 80.726391 
L 112.324155 80.964352 
L 112.539642 81.162079 
L 112.647386 81.266534 
L 112.701257 81.207279 
L 112.862873 81.374921 
L 112.916744 81.305854 
L 113.132232 81.154116 
L 113.186103 81.119192 
L 113.401591 81.558154 
L 113.563206 81.559711 
L 113.99418 80.94261 
L 114.048052 81.008518 
L 114.263539 80.750844 
L 114.317411 80.870019 
L 114.479026 81.362048 
L 114.532898 81.315522 
L 114.748385 81.287594 
L 114.856129 81.604207 
L 114.91 81.543602 
L 114.963872 81.451224 
L 115.017744 81.541544 
L 115.179359 81.605565 
L 115.879693 80.793763 
L 116.149051 80.731982 
L 116.41841 80.493176 
L 116.472282 80.433542 
L 116.526154 80.570459 
L 116.580026 80.513095 
L 116.849385 80.295619 
L 117.011 80.523535 
L 117.172615 80.61582 
L 117.280359 80.539886 
L 117.334231 80.861447 
L 117.388103 80.817915 
L 117.441974 80.764704 
L 117.495846 80.89608 
L 117.549718 80.819076 
L 117.60359 80.759606 
L 117.657461 80.818756 
L 117.711333 80.900819 
L 117.765205 80.848986 
L 118.034564 80.776659 
L 118.142308 80.750059 
L 118.250051 80.646669 
L 118.357795 80.859484 
L 118.411666 80.778638 
L 118.734897 80.522952 
L 118.788769 80.77326 
L 118.842641 80.704005 
L 119.165871 80.475922 
L 119.327487 80.73339 
L 120.02782 80.05635 
L 120.081692 80.211207 
L 120.135564 80.140192 
L 120.458794 79.893921 
L 120.512666 80.020462 
L 120.566538 79.972215 
L 120.782025 79.894892 
L 120.94364 80.013863 
L 121.159127 79.907719 
L 121.212999 79.971109 
L 121.266871 79.913 
L 121.482358 79.654358 
L 121.643973 79.841032 
L 122.12882 79.93357 
L 122.559794 79.634396 
L 122.667537 79.61422 
L 123.367871 79.175167 
L 123.529486 79.486952 
L 123.583358 79.434071 
L 123.637229 79.551952 
L 123.691101 79.500032 
L 123.852717 79.387487 
L 123.906588 79.467779 
L 123.96046 79.424373 
L 124.660793 78.855504 
L 124.822409 79.097913 
L 124.87628 79.401633 
L 124.930152 79.348569 
L 125.253383 79.129172 
L 125.361127 79.259207 
L 125.414998 79.207695 
L 126.438562 78.653758 
L 126.492434 78.935158 
L 126.546306 78.890281 
L 126.654049 78.799967 
L 126.761793 78.980746 
L 127.031152 78.860693 
L 127.138895 78.80603 
L 127.246639 78.705313 
L 127.300511 78.999898 
L 127.354383 78.951513 
L 127.785357 78.772134 
L 127.839229 78.907562 
L 127.8931 78.878709 
L 128.377946 78.439236 
L 128.593434 78.566146 
L 129.293767 78.192499 
L 129.455382 78.217085 
L 130.101844 77.846693 
L 130.748305 77.389124 
L 130.90992 77.597947 
L 132.0951 77.361555 
L 132.310587 77.297101 
L 132.741561 77.120474 
L 132.795433 77.19075 
L 132.849305 77.146799 
L 133.064792 77.004069 
L 133.172535 77.113052 
L 133.388022 77.023287 
L 133.549638 76.953525 
L 133.657381 76.882207 
L 133.711253 77.042277 
L 133.765125 76.9992 
L 133.818997 76.981572 
L 133.92674 77.308528 
L 133.980612 77.25968 
L 134.196099 77.099089 
L 134.249971 77.19185 
L 134.303843 77.159556 
L 134.896432 76.747869 
L 135.219663 76.612644 
L 135.327407 76.944661 
L 135.43515 76.874297 
L 135.704509 76.773202 
L 135.758381 76.881372 
L 135.812253 76.847512 
L 136.512586 76.538809 
L 136.674201 76.632026 
L 137.374534 76.255585 
L 137.428406 76.389464 
L 137.482278 76.357576 
L 138.559714 75.965551 
L 138.613585 76.142611 
L 138.667457 76.119136 
L 139.313919 75.771921 
L 139.36779 75.920573 
L 139.421662 75.885069 
L 139.637149 75.86277 
L 139.798765 75.932517 
L 140.121995 75.798991 
L 140.445226 75.891372 
L 140.8762 75.686848 
L 141.037816 75.638812 
L 142.115251 75.123204 
L 142.222995 75.257442 
L 142.276867 75.221695 
L 142.38461 75.232015 
L 142.438482 75.352497 
L 142.492354 75.318549 
L 142.923328 75.048487 
L 142.9772 75.117496 
L 143.031072 75.075405 
L 144.216251 74.423798 
L 144.808841 74.125948 
L 144.970456 74.18222 
L 145.724661 74.145631 
L 230.949823 74.244138 
L 231.219182 74.272401 
L 239.138334 74.357165 
L 239.407693 74.385411 
L 246.788128 74.491061 
L 247.272974 74.530576 
L 260.794791 74.618912 
L 261.06415 74.647109 
L 267.043918 74.737973 
L 267.421021 74.777418 
L 275.932763 74.867636 
L 276.255993 74.890158 
L 283.851915 74.996616 
L 284.121274 75.024746 
L 290.532016 75.122076 
L 290.855247 75.144563 
L 296.888887 75.244047 
L 297.265989 75.260901 
L 304.861911 75.364257 
L 305.185141 75.38671 
L 308.579064 75.48603 
L 308.848423 75.514077 
L 315.528524 75.622278 
L 315.797883 75.650302 
L 324.417368 75.75167 
L 324.686727 75.779672 
L 332.444264 75.890506 
L 332.767495 75.912892 
L 339.178237 76.022979 
L 339.501468 76.045345 
L 348.498056 76.149151 
L 348.821286 76.199427 
L 355.824618 76.289782 
L 356.201721 76.328854 
L 362.127617 76.418548 
L 362.450848 76.452011 
L 370.800974 76.555642 
L 371.501307 76.58908 
L 375.757178 76.69473 
L 376.134281 76.711435 
L 380.605639 76.808168 
L 380.928869 76.830426 
L 387.824458 76.937964 
L 388.093817 76.965761 
L 394.019713 77.065541 
L 394.396815 77.082206 
L 399.945609 77.174868 
L 400.26884 77.208178 
L 405.063429 77.308071 
L 405.494403 77.33581 
L 417.507811 77.440281 
L 417.884913 77.456911 
L 427.043117 77.564803 
L 427.635706 77.575881 
L 433.346115 77.682512 
L 433.723218 77.69794 
L 441.696242 77.798354 
L 442.181088 77.83707 
L 451.716394 77.927512 
L 451.985752 77.955147 
L 454.194496 78.071168 
L 460.06652 78.175057 
L 460.335879 78.202651 
L 467.716313 78.307769 
L 468.308903 78.318797 
L 472.026056 78.421735 
L 472.45703 78.438266 
L 476.65903 78.544354 
L 477.305491 78.565177 
L 478.813901 78.669742 
L 479.298747 78.702751 
L 485.009156 78.793837 
L 485.278515 78.821326 
L 487.217899 78.928826 
L 488.834053 78.984413 
L 491.204411 79.000888 
L 491.204411 79.000888 
" clip-path="url(#p1f56de7dca)" style="fill: none; stroke: #1f77b4; stroke-width: 1.8; stroke-linecap: square"/>
   </g>
   <g id="line2d_24">
    <path d="M 71.327727 36.121818 
L 71.381599 130.238813 
L 71.435471 122.139931 
L 71.650958 77.985355 
L 71.758702 87.709353 
L 71.812573 85.520791 
L 71.974189 79.709147 
L 72.135804 85.785343 
L 72.243548 79.127248 
L 72.297419 80.297394 
L 72.459035 84.411938 
L 72.512907 84.117411 
L 72.566778 82.173665 
L 72.62065 83.665774 
L 72.728394 87.768707 
L 72.782265 86.44803 
L 72.836137 85.726942 
L 72.890009 86.793832 
L 72.943881 84.777769 
L 72.997753 85.520791 
L 73.051624 86.071417 
L 73.105496 85.526241 
L 73.21324 90.581653 
L 73.374855 88.664877 
L 73.428727 87.602209 
L 73.53647 91.294927 
L 73.590342 89.663155 
L 73.644214 88.283785 
L 73.698086 89.504447 
L 73.805829 88.045978 
L 73.859701 88.999483 
L 73.913573 89.703217 
L 73.967445 88.54226 
L 74.021316 91.952418 
L 74.075188 91.013545 
L 74.182932 89.742511 
L 74.236804 89.359364 
L 74.398419 87.173017 
L 74.452291 89.194309 
L 74.506163 88.191174 
L 74.667778 90.670468 
L 74.775521 89.439213 
L 74.937137 92.084557 
L 75.04488 90.243677 
L 75.098752 91.158999 
L 75.260367 92.632976 
L 75.314239 93.024865 
L 75.368111 92.324965 
L 75.421983 93.260471 
L 75.475855 92.57611 
L 75.63747 90.869159 
L 75.691342 92.600262 
L 75.745214 92.111183 
L 75.960701 89.354931 
L 76.014572 89.829184 
L 76.122316 89.052233 
L 76.283931 87.434272 
L 76.499419 89.743447 
L 76.607162 88.760682 
L 76.714906 88.790112 
L 76.768777 89.044084 
L 76.822649 88.912686 
L 76.930393 87.817596 
L 76.984265 88.318343 
L 77.199752 86.897296 
L 77.307495 89.024511 
L 77.361367 88.554607 
L 77.469111 87.858312 
L 77.576854 87.933416 
L 77.73847 88.771048 
L 77.900085 88.009723 
L 78.007828 88.571208 
L 78.277187 86.685673 
L 78.384931 86.782377 
L 78.438803 86.999577 
L 78.546546 86.284906 
L 78.762033 87.848176 
L 79.031392 86.453117 
L 79.085264 86.668676 
L 79.24688 87.453193 
L 79.300751 87.752311 
L 79.354623 87.67749 
L 79.57011 86.624205 
L 79.623982 88.515944 
L 79.677854 88.141157 
L 79.731726 88.191551 
L 79.785597 87.844022 
L 79.839469 88.818183 
L 79.893341 88.393013 
L 79.947213 88.144103 
L 80.001084 88.476981 
L 80.054956 88.278501 
L 80.324315 87.195653 
L 80.378187 86.916811 
L 80.593674 87.968 
L 80.863033 86.800383 
L 80.916905 86.941419 
L 80.970777 86.836739 
L 81.240136 86.099243 
L 81.347879 85.53679 
L 81.401751 85.666129 
L 81.563366 86.653283 
L 81.617238 86.374478 
L 81.67111 86.445449 
L 81.778853 86.575096 
L 81.886597 86.071145 
L 82.048212 87.692688 
L 82.155956 87.244313 
L 82.209828 86.924464 
L 82.263699 86.977475 
L 82.317571 87.084454 
L 82.371443 86.852244 
L 82.533058 87.294244 
L 82.58693 87.087457 
L 82.640802 87.551772 
L 82.694674 87.313126 
L 82.748545 87.386971 
L 82.802417 87.180403 
L 82.856289 87.199043 
L 82.910161 87.715975 
L 82.964033 87.641454 
L 83.125648 87.19755 
L 83.233392 87.839945 
L 83.341135 87.656336 
L 83.395007 87.801229 
L 83.448879 87.555664 
L 83.50275 87.749007 
L 83.556622 87.763893 
L 83.825981 86.93741 
L 83.933725 86.887169 
L 83.987596 87.504797 
L 84.041468 87.256554 
L 84.418571 86.079188 
L 84.472443 86.173021 
L 84.580186 85.744893 
L 84.634058 85.775386 
L 84.68793 85.859786 
L 84.741801 86.286598 
L 84.795673 86.072669 
L 84.849545 85.884367 
L 84.903417 85.98489 
L 84.957289 86.101207 
L 85.01116 85.956484 
L 85.065032 86.005565 
L 85.172776 86.592016 
L 85.226648 86.395268 
L 85.496006 85.49045 
L 85.549878 85.79423 
L 85.60375 85.746949 
L 85.765365 85.116392 
L 85.819237 85.151998 
L 85.926981 85.403852 
L 86.142468 84.902698 
L 86.19634 85.115089 
L 86.250211 84.942493 
L 86.51957 84.378171 
L 86.573442 84.458842 
L 86.842801 83.505449 
L 86.896673 84.049199 
L 86.950545 83.859011 
L 87.489262 82.861652 
L 87.812493 83.091699 
L 87.974109 82.759173 
L 88.02798 83.08823 
L 88.081852 82.923531 
L 88.405083 82.227526 
L 88.512826 82.975239 
L 88.566698 82.835313 
L 88.782185 82.493799 
L 88.836057 82.546015 
L 88.889929 82.448204 
L 88.997672 82.299144 
L 89.051544 82.810829 
L 89.105416 82.688302 
L 89.805749 81.363983 
L 89.967365 81.690404 
L 90.021236 81.528169 
L 90.075108 81.718109 
L 90.182852 81.429562 
L 90.236723 81.660353 
L 90.290595 81.577619 
L 90.398339 81.449715 
L 90.452211 81.742833 
L 90.506082 81.693036 
L 90.559954 81.564062 
L 90.613826 81.668987 
L 90.667698 81.691386 
L 90.721569 82.141703 
L 90.775441 81.984678 
L 90.883185 81.881441 
L 90.990928 82.255167 
L 91.0448 82.154864 
L 91.314159 81.704477 
L 91.475774 82.233 
L 91.529646 82.076617 
L 91.799005 81.442153 
L 91.852877 81.749775 
L 91.906749 81.622633 
L 91.960621 81.620872 
L 92.229979 81.14178 
L 92.283851 81.341838 
L 92.337723 81.206587 
L 92.391595 81.061964 
L 92.445467 81.21165 
L 92.499338 81.242582 
L 92.55321 81.127706 
L 92.607082 81.158694 
L 92.714825 81.411246 
L 92.930313 81.13367 
L 92.984184 81.230885 
L 93.038056 81.121862 
L 93.522902 80.313485 
L 93.576774 80.417362 
L 93.630646 80.518726 
L 93.684518 80.479873 
L 94.06162 79.688956 
L 94.115492 79.906606 
L 94.169364 79.783286 
L 94.223235 79.825521 
L 94.546466 79.397685 
L 94.600338 79.475686 
L 94.65421 79.3724 
L 94.708081 79.294524 
L 94.869697 79.424652 
L 95.300671 78.853794 
L 95.354543 79.007573 
L 95.408415 78.888921 
L 95.677774 78.890396 
L 95.839389 79.178438 
L 96.001004 79.462419 
L 96.108748 79.358336 
L 96.270363 79.519896 
L 96.324235 79.449863 
L 96.701338 78.88291 
L 96.809081 78.81659 
L 96.916825 78.63339 
L 96.970696 78.867562 
L 97.024568 78.754537 
L 97.347799 79.044295 
L 97.455542 78.83952 
L 97.509414 78.965664 
L 97.563286 78.872929 
L 97.617158 78.863519 
L 97.832645 79.447484 
L 97.886517 79.388237 
L 98.263619 78.899946 
L 98.317491 78.942663 
L 98.479106 79.295805 
L 98.694594 79.074977 
L 98.748465 79.137539 
L 98.802337 79.061143 
L 99.287183 78.530095 
L 99.341055 78.721066 
L 99.394927 78.658977 
L 99.825901 78.154188 
L 99.933645 77.99257 
L 100.256875 78.728701 
L 100.418491 78.464319 
L 100.472362 78.533314 
L 100.68785 78.856076 
L 100.795593 78.701299 
L 101.388183 77.975586 
L 101.442054 78.173077 
L 101.495926 78.092201 
L 102.142388 77.288153 
L 102.465618 77.618085 
L 102.51949 77.546271 
L 102.734977 77.258407 
L 102.788849 77.401754 
L 102.842721 77.309586 
L 103.058208 77.289657 
L 103.219823 77.219554 
L 103.327567 77.254975 
L 103.704669 76.867043 
L 103.866285 77.309323 
L 104.0279 77.241044 
L 104.081772 77.481447 
L 104.135644 77.404877 
L 104.512746 77.056116 
L 104.566618 77.298244 
L 104.62049 77.225019 
L 104.782105 77.02213 
L 104.889849 77.206927 
L 105.105336 77.073693 
L 105.266951 77.114461 
L 105.590182 76.929641 
L 105.697925 76.967724 
L 105.805669 76.927958 
L 105.967284 76.982109 
L 106.075028 76.910024 
L 106.236643 77.026512 
L 106.398259 77.005085 
L 106.45213 76.929191 
L 106.506002 77.056008 
L 106.559874 76.991081 
L 106.775361 76.695225 
L 106.990848 77.32296 
L 107.04472 77.248791 
L 107.260207 76.99085 
L 107.314079 77.075471 
L 107.367951 77.019147 
L 107.475694 76.893856 
L 107.529566 76.992242 
L 107.691181 77.075425 
L 107.852797 77.234387 
L 107.906669 77.179543 
L 108.122156 77.048943 
L 108.229899 77.457308 
L 108.283771 77.388059 
L 108.445386 77.520209 
L 108.499258 77.452138 
L 108.768617 77.256605 
L 108.822489 77.230292 
L 108.876361 77.365238 
L 108.930232 77.30245 
L 109.091848 77.258543 
L 109.199591 77.48772 
L 109.253463 77.432038 
L 109.46895 77.173326 
L 109.522822 77.242227 
L 109.953796 77.042202 
L 110.06154 76.989213 
L 110.277027 76.905414 
L 110.384771 77.0537 
L 110.438642 77.00118 
L 110.708001 76.831029 
L 110.761873 76.778444 
L 110.815745 76.885091 
L 110.869617 76.840541 
L 111.031232 76.704242 
L 111.085104 76.88297 
L 111.138976 76.814262 
L 111.408335 76.693537 
L 111.731565 77.122702 
L 112.108668 76.824078 
L 112.216411 76.920493 
L 112.270283 76.86288 
L 112.48577 76.760762 
L 112.701257 76.734474 
L 112.916744 76.682968 
L 112.970616 76.763896 
L 113.024488 76.711317 
L 113.347719 76.496981 
L 113.509334 76.629852 
L 113.724821 76.418535 
L 113.832565 76.591035 
L 113.886437 76.538286 
L 114.371283 76.211339 
L 114.425154 76.413115 
L 114.479026 76.364921 
L 114.694513 76.301536 
L 114.963872 76.45516 
L 115.017744 76.537538 
L 115.071616 76.500537 
L 115.664205 76.10368 
L 116.041308 76.160955 
L 116.09518 76.279094 
L 116.149051 76.254237 
L 116.795513 75.76386 
L 116.849385 75.889805 
L 116.903256 75.848134 
L 117.980692 75.249333 
L 118.142308 75.428773 
L 118.196179 75.389255 
L 118.842641 75.104721 
L 118.950384 75.134088 
L 119.273615 74.960683 
L 119.381359 75.016159 
L 119.973948 74.749354 
L 120.02782 74.918281 
L 120.081692 74.885933 
L 121.051384 74.573504 
L 121.159127 74.797129 
L 121.212999 74.765362 
L 122.236563 74.565601 
L 122.45205 74.690581 
L 122.990768 74.535353 
L 123.152383 74.528826 
L 123.906588 74.548109 
L 124.068204 74.552818 
L 124.445306 74.420066 
L 124.55305 74.494255 
L 124.660793 74.531814 
L 124.87628 74.757409 
L 125.037896 74.758878 
L 125.46887 74.609121 
L 125.576614 74.700873 
L 125.845973 74.703819 
L 126.06146 74.759305 
L 126.330819 74.820751 
L 126.492434 74.827836 
L 126.97728 74.775254 
L 127.192767 74.832383 
L 128.324075 74.657603 
L 130.856049 74.548369 
L 133.92674 74.43248 
L 192.000523 74.53403 
L 192.323754 74.557272 
L 198.572881 74.655574 
L 198.896112 74.696214 
L 204.929751 74.782129 
L 205.19911 74.822741 
L 209.508853 74.930072 
L 210.909519 74.97065 
L 218.828672 75.077933 
L 219.205774 75.095308 
L 224.485209 75.183919 
L 224.754568 75.212857 
L 231.542413 75.295608 
L 231.811772 75.324526 
L 242.370641 75.431483 
L 242.64 75.460379 
L 253.737588 75.555112 
L 253.953075 75.589761 
L 263.380637 75.687899 
L 263.757739 75.705213 
L 278.841839 75.797464 
L 279.111198 75.826298 
L 289.400709 75.932321 
L 289.616196 75.966895 
L 297.050502 76.076337 
L 297.373733 76.098196 
L 305.562244 76.189584 
L 305.885474 76.212599 
L 311.48814 76.30463 
L 311.757499 76.333381 
L 315.205293 76.431102 
L 315.474652 76.459834 
L 323.770907 76.551566 
L 324.040266 76.580276 
L 327.757419 76.666381 
L 328.026778 76.712288 
L 335.999802 76.806826 
L 336.323032 76.829762 
L 344.834774 76.934845 
L 345.642851 76.997856 
L 352.538439 77.103977 
L 352.86167 77.126868 
L 362.396976 77.225635 
L 362.720207 77.247306 
L 367.35318 77.334248 
L 367.622539 77.362815 
L 373.225204 77.454202 
L 373.494563 77.482752 
L 383.191484 77.582121 
L 383.460843 77.610646 
L 387.28574 77.709049 
L 387.662842 77.726151 
L 394.666174 77.814295 
L 394.935533 77.84278 
L 403.555019 77.940616 
L 403.932121 77.957692 
L 412.874837 78.065989 
L 413.25194 78.083052 
L 419.770426 78.174195 
L 420.039785 78.202611 
L 425.426963 78.308098 
L 425.750194 78.336493 
L 431.729962 78.429926 
L 431.999321 78.4583 
L 441.803985 78.486055 
L 441.803985 78.486055 
" clip-path="url(#p1f56de7dca)" style="fill: none; stroke: #ff7f0e; stroke-width: 1.8; stroke-linecap: square"/>
   </g>
   <g id="line2d_25">
    <path d="M 71.327727 36.121818 
L 71.381599 36.121818 
L 71.543214 90.690451 
L 71.597086 99.285978 
L 71.70483 83.124572 
L 71.758702 90.684787 
L 71.812573 83.899754 
L 71.866445 85.540678 
L 71.974189 76.662257 
L 72.081932 93.548857 
L 72.135804 90.091711 
L 72.297419 81.641705 
L 72.566778 95.883012 
L 72.62065 92.774767 
L 72.782265 87.969578 
L 72.890009 95.947564 
L 73.374855 87.815249 
L 73.53647 97.74584 
L 73.913573 89.519796 
L 74.021316 91.007303 
L 74.290675 87.504371 
L 74.398419 87.479691 
L 74.452291 89.776736 
L 74.613906 86.524481 
L 74.667778 89.11512 
L 74.72165 88.961355 
L 74.991009 86.597159 
L 75.04488 87.010208 
L 75.260367 84.758738 
L 75.583598 88.344917 
L 75.63747 87.581202 
L 75.691342 87.27929 
L 75.745214 87.479767 
L 75.852957 88.571248 
L 75.906829 88.000814 
L 76.014572 88.389757 
L 76.068444 87.672007 
L 76.122316 88.093559 
L 76.23006 88.128381 
L 76.499419 91.681887 
L 76.661034 89.999089 
L 76.714906 90.418453 
L 76.768777 90.459084 
L 76.822649 90.663709 
L 76.984265 91.577119 
L 77.038136 91.662285 
L 77.14588 91.022075 
L 77.253624 91.840639 
L 77.522982 90.066491 
L 78.331059 84.547389 
L 78.438803 84.172866 
L 78.546546 85.626989 
L 78.600418 85.58649 
L 78.815905 86.998133 
L 78.923649 86.239683 
L 78.977521 86.548239 
L 79.031392 86.646125 
L 79.354623 84.853686 
L 79.408495 85.341909 
L 79.462367 85.020459 
L 79.516238 84.936269 
L 79.57011 84.557738 
L 79.623982 85.143189 
L 79.677854 84.910434 
L 79.731726 84.492857 
L 79.893341 85.151465 
L 79.947213 85.053914 
L 80.1627 87.071713 
L 80.216572 86.809482 
L 80.324315 86.252975 
L 80.485931 88.092145 
L 80.539802 88.145382 
L 80.647546 88.896878 
L 80.701418 88.669899 
L 80.755289 88.673917 
L 80.916905 88.029549 
L 80.970777 88.900806 
L 81.024648 88.882882 
L 81.294007 88.037406 
L 81.401751 88.656201 
L 81.455623 88.455242 
L 81.67111 87.66387 
L 81.724982 87.539991 
L 81.778853 87.775824 
L 81.886597 87.487358 
L 81.99434 87.76686 
L 82.048212 87.468958 
L 82.102084 87.645091 
L 82.155956 87.694199 
L 82.263699 88.197768 
L 82.317571 87.985091 
L 82.371443 87.907826 
L 82.425315 87.606526 
L 82.533058 87.625962 
L 82.748545 87.035556 
L 82.856289 87.218258 
L 83.071776 86.288242 
L 83.125648 86.328325 
L 83.50275 85.206922 
L 83.664366 85.863093 
L 83.772109 86.123673 
L 83.825981 85.901776 
L 84.041468 85.232494 
L 84.09534 85.348676 
L 84.849545 83.24032 
L 84.957289 84.072349 
L 85.01116 83.876491 
L 85.065032 83.672867 
L 85.118904 83.850314 
L 85.280519 84.12689 
L 85.334391 83.910887 
L 85.388263 83.964021 
L 85.549878 84.467622 
L 85.60375 84.415077 
L 85.819237 83.999168 
L 85.926981 83.632563 
L 85.980853 83.844163 
L 86.034724 83.910317 
L 86.142468 83.662799 
L 86.250211 84.203764 
L 86.357955 85.192345 
L 86.411827 84.989913 
L 86.465699 84.969739 
L 86.51957 84.755342 
L 86.573442 85.023413 
L 86.627314 84.893616 
L 86.735057 84.59342 
L 86.896673 85.126689 
L 87.11216 84.691009 
L 87.273775 85.234548 
L 87.327647 85.040493 
L 87.597006 84.436327 
L 87.650878 84.41677 
L 87.812493 84.088124 
L 87.866365 84.279554 
L 87.920237 84.159048 
L 87.974109 84.031345 
L 88.135724 84.395919 
L 88.243467 84.202353 
L 88.351211 85.280165 
L 88.405083 85.101228 
L 88.458955 85.080054 
L 88.512826 85.246813 
L 88.674442 86.152104 
L 88.997672 85.268691 
L 89.051544 85.181063 
L 89.105416 85.41169 
L 89.159288 85.304316 
L 89.374775 84.650352 
L 89.428647 84.869023 
L 89.53639 85.115852 
L 89.590262 85.052748 
L 89.859621 84.403165 
L 89.913493 84.519218 
L 90.12898 84.042705 
L 90.236723 84.484881 
L 90.344467 84.453515 
L 90.613826 84.052014 
L 90.775441 84.161953 
L 90.937057 84.016165 
L 90.990928 84.031867 
L 91.098672 83.830844 
L 91.152544 84.240364 
L 91.206416 84.107199 
L 91.314159 83.899417 
L 91.421903 83.763264 
L 91.475774 83.809246 
L 92.337723 82.256252 
L 92.391595 82.396291 
L 92.445467 82.289404 
L 92.499338 82.165324 
L 92.55321 82.403099 
L 92.607082 82.298822 
L 92.768697 81.942356 
L 92.822569 82.029799 
L 92.876441 81.97793 
L 93.091928 81.635986 
L 93.199672 81.490252 
L 93.253543 81.409812 
L 93.361287 81.885803 
L 93.415159 81.736168 
L 93.522902 81.607002 
L 93.738389 81.36222 
L 94.438723 80.46726 
L 94.492594 80.562073 
L 94.546466 80.43566 
L 94.65421 80.383727 
L 94.815825 80.06499 
L 94.97744 80.663153 
L 95.031312 80.561201 
L 95.408415 80.142453 
L 95.462286 80.208845 
L 95.516158 80.099922 
L 96.054876 79.330087 
L 96.16262 79.95431 
L 96.216491 79.834763 
L 96.270363 79.939149 
L 96.324235 79.8249 
L 96.431979 79.621689 
L 96.48585 79.74846 
L 96.593594 79.708237 
L 96.755209 79.989081 
L 96.809081 79.875382 
L 97.024568 79.504172 
L 97.07844 79.585868 
L 97.132312 79.500519 
L 97.563286 79.296688 
L 98.317491 78.442573 
L 98.58685 78.073988 
L 98.640722 78.132284 
L 98.748465 78.523897 
L 98.802337 78.425954 
L 98.963952 78.332855 
L 99.017824 78.492282 
L 99.071696 78.39951 
L 99.125568 78.294766 
L 99.17944 78.368508 
L 99.233311 78.445301 
L 99.287183 78.39865 
L 99.933645 77.579327 
L 100.526234 76.906346 
L 101.01108 76.566502 
L 101.064952 76.671164 
L 101.118824 76.621806 
L 101.172696 76.554133 
L 101.226567 76.643185 
L 101.280439 76.605147 
L 101.549798 77.21657 
L 102.034644 76.744581 
L 102.142388 76.797935 
L 102.304003 76.656673 
L 102.357875 76.827545 
L 102.411747 76.759862 
L 102.465618 76.665248 
L 102.573362 76.788711 
L 102.627234 76.716826 
L 102.681106 76.833472 
L 102.734977 76.78291 
L 102.896593 76.734818 
L 103.058208 76.758701 
L 103.219823 76.575995 
L 103.273695 76.669364 
L 103.327567 76.5969 
L 103.704669 76.477251 
L 103.812413 76.705219 
L 103.920157 77.083004 
L 103.974028 77.018089 
L 104.135644 76.813314 
L 104.189515 76.949487 
L 104.243387 77.144086 
L 104.297259 77.054948 
L 104.674362 76.584184 
L 104.782105 76.72933 
L 104.889849 76.583508 
L 104.94372 76.780574 
L 104.997592 76.722576 
L 105.266951 76.398455 
L 105.374695 76.617442 
L 105.428566 76.550708 
L 105.590182 76.506213 
L 105.644054 76.637997 
L 105.697925 76.598475 
L 106.398259 76.067574 
L 106.45213 76.203871 
L 106.506002 76.172843 
L 106.883105 75.894876 
L 106.936976 76.072518 
L 106.990848 76.003391 
L 107.206335 75.754295 
L 107.260207 76.020485 
L 107.314079 75.966177 
L 107.475694 76.0063 
L 107.691181 76.297444 
L 107.798925 76.532237 
L 107.852797 76.485067 
L 107.96054 76.357161 
L 108.068284 76.712384 
L 108.122156 76.631445 
L 108.660874 76.205895 
L 108.714745 76.395322 
L 108.768617 76.329069 
L 109.522822 75.747761 
L 109.630566 75.745106 
L 110.007668 75.433993 
L 110.223155 75.199926 
L 110.277027 75.327535 
L 110.330899 75.263615 
L 110.815745 74.821808 
L 111.031232 74.879578 
L 112.108668 73.948087 
L 112.162539 74.156564 
L 112.216411 74.109198 
L 112.539642 73.836489 
L 112.593514 73.93898 
L 112.647386 73.877438 
L 112.970616 73.671495 
L 113.724821 73.076818 
L 113.778693 73.022246 
L 113.832565 73.244999 
L 113.886437 73.183968 
L 113.99418 73.102643 
L 114.048052 73.253525 
L 114.101924 73.203837 
L 114.371283 73.160356 
L 114.479026 73.183533 
L 115.933564 72.268299 
L 116.041308 72.307637 
L 116.687769 71.955945 
L 116.741641 72.058054 
L 116.795513 72.018435 
L 118.411666 71.327311 
L 118.51941 71.565447 
L 118.573282 71.521445 
L 118.734897 71.570045 
L 119.489102 71.301253 
L 119.650717 71.501122 
L 120.404922 71.11187 
L 120.512666 71.12073 
L 120.835897 70.999824 
L 120.997512 71.008202 
L 122.344307 70.51707 
L 122.883024 70.244669 
L 123.098512 70.390908 
L 123.583358 70.26343 
L 123.744973 70.408867 
L 124.391434 70.27156 
L 124.55305 70.3221 
L 125.145639 70.150079 
L 125.414998 70.205638 
L 129.132151 69.327243 
L 129.347639 69.400894 
L 129.886356 69.306262 
L 130.155715 69.271805 
L 132.41833 68.984257 
L 140.445226 68.200877 
L 153.805428 67.543184 
L 188.337242 67.647891 
L 188.606601 67.673101 
L 198.357394 67.77391 
L 198.572881 67.8117 
L 206.276546 67.906443 
L 206.545905 67.937909 
L 211.178878 68.032274 
L 211.448237 68.057431 
L 218.990287 68.158777 
L 219.36739 68.177629 
L 226.909439 68.261773 
L 227.124926 68.299444 
L 228.687208 68.39359 
L 228.956567 68.424962 
L 233.751156 68.490409 
L 233.966643 68.546842 
L 235.475053 68.653392 
L 235.744412 68.678455 
L 241.293206 68.789149 
L 241.562564 68.814193 
L 244.794872 68.905512 
L 245.06423 68.930539 
L 248.942999 69.011855 
L 249.212358 69.09939 
L 252.336921 69.198347 
L 252.714024 69.217089 
L 255.461485 69.321715 
L 255.730844 69.389328 
L 258.693792 69.492224 
L 258.909279 69.52963 
L 260.309945 69.627251 
L 260.579304 69.664629 
L 262.357073 69.761116 
L 262.626432 69.792241 
L 265.643252 69.885059 
L 265.858739 69.922384 
L 267.905867 70.015666 
L 268.175226 70.081396 
L 272.700456 70.183135 
L 272.969815 70.214181 
L 274.101122 70.294877 
L 274.370481 70.325906 
L 278.464736 70.425271 
L 278.841839 70.442265 
L 281.104454 70.541421 
L 281.373813 70.572398 
L 285.791299 70.681455 
L 286.168402 70.700023 
L 287.245837 70.799024 
L 287.676812 70.93507 
L 289.885555 71.021597 
L 290.208785 71.095732 
L 291.717195 71.15749 
L 291.932682 71.206883 
L 294.626272 71.315785 
L 295.003374 71.334293 
L 297.858579 71.437623 
L 298.127938 71.517743 
L 300.444424 71.616307 
L 300.659911 71.653256 
L 304.700295 71.762473 
L 305.346757 71.797726 
L 307.501628 71.90842 
L 307.87873 71.969889 
L 309.97973 72.064858 
L 310.464576 72.113991 
L 313.050422 72.212222 
L 313.319781 72.232856 
L 315.851755 72.312614 
L 316.067242 72.36168 
L 320.646343 72.471973 
L 321.346676 72.525427 
L 323.501548 72.626718 
L 324.255753 72.684538 
L 327.434188 72.761815 
L 327.703547 72.822977 
L 329.804547 72.906298 
L 330.073905 72.9613 
L 338.585647 73.063669 
L 339.124365 73.075878 
L 341.38698 73.173527 
L 341.656339 73.197931 
L 344.780902 73.293225 
L 345.104133 73.360285 
L 347.959338 73.455239 
L 348.390312 73.538762 
L 352.484568 73.632703 
L 352.753927 73.675275 
L 354.96267 73.778044 
L 355.2859 73.820003 
L 358.733695 73.921781 
L 359.110797 73.976421 
L 362.720207 74.075726 
L 363.151181 74.151636 
L 364.605719 74.258386 
L 364.92895 74.28262 
L 368.269 74.36818 
L 368.538359 74.416611 
L 371.070333 74.513436 
L 371.609051 74.579976 
L 373.763922 74.689526 
L 374.033281 74.719742 
L 378.720126 74.817794 
L 379.043357 74.860056 
L 381.952433 74.959675 
L 382.329536 74.977773 
L 387.231868 75.081011 
L 387.501227 75.111146 
L 391.056765 75.219594 
L 391.379996 75.243686 
L 395.366508 75.340022 
L 395.689738 75.364099 
L 403.393403 75.456763 
L 403.662762 75.486838 
L 407.864761 75.594464 
L 408.187992 75.636537 
L 410.612222 75.737464 
L 410.82771 75.779505 
L 413.790658 75.821537 
L 413.790658 75.821537 
" clip-path="url(#p1f56de7dca)" style="fill: none; stroke: #2ca02c; stroke-width: 1.8; stroke-linecap: square"/>
   </g>
   <g id="line2d_26">
    <path d="M 71.327727 36.121818 
L 71.489343 36.121818 
L 71.543214 58.772002 
L 71.597086 54.914906 
L 71.812573 46.252467 
L 72.02806 70.701099 
L 72.081932 68.680232 
L 72.135804 77.114664 
L 72.189676 76.780547 
L 72.297419 73.399277 
L 72.351291 75.265031 
L 72.405163 73.812593 
L 72.459035 72.173864 
L 72.512907 75.317477 
L 72.566778 73.200476 
L 72.62065 74.513823 
L 72.943881 66.977177 
L 72.997753 69.684062 
L 73.051624 68.669345 
L 73.267111 64.749924 
L 73.374855 64.951517 
L 73.428727 67.759039 
L 73.482599 66.856347 
L 73.53647 66.417282 
L 73.644214 67.695169 
L 73.698086 66.867747 
L 73.967445 77.079487 
L 74.021316 76.164651 
L 74.506163 71.44474 
L 74.667778 74.574263 
L 74.829393 77.574539 
L 74.883265 77.208005 
L 74.991009 75.83627 
L 75.04488 77.249653 
L 75.098752 76.820568 
L 75.421983 73.469594 
L 75.475855 73.516454 
L 75.63747 72.117248 
L 75.691342 72.617868 
L 75.745214 72.110083 
L 76.068444 69.562176 
L 76.122316 69.931812 
L 76.283931 72.42331 
L 76.337803 72.037497 
L 76.391675 71.632639 
L 76.55329 73.11614 
L 76.607162 72.810289 
L 76.661034 73.570592 
L 76.714906 73.278554 
L 76.822649 72.545328 
L 76.876521 72.820809 
L 76.930393 73.399587 
L 76.984265 73.025908 
L 77.253624 71.351493 
L 77.307495 71.700696 
L 77.361367 71.423953 
L 77.576854 70.112998 
L 77.630726 70.978888 
L 77.684598 70.72231 
L 78.0617 68.769743 
L 78.115572 69.61445 
L 78.169444 69.328554 
L 78.708162 66.853898 
L 78.815905 66.426953 
L 78.977521 66.968635 
L 79.300751 65.745483 
L 79.516238 68.07276 
L 80.001084 66.388468 
L 80.054956 67.35647 
L 80.108828 67.203017 
L 80.378187 66.264018 
L 80.432059 66.717191 
L 80.485931 66.511239 
L 81.07852 64.700454 
L 81.186264 65.919733 
L 81.240136 65.749526 
L 81.401751 65.18846 
L 81.455623 65.63058 
L 81.509494 65.447296 
L 81.724982 64.800551 
L 81.778853 64.99947 
L 81.832725 64.868584 
L 82.802417 62.985498 
L 82.910161 63.598619 
L 82.964033 63.446776 
L 83.233392 62.888712 
L 83.341135 62.694733 
L 83.50275 63.050016 
L 83.556622 63.225357 
L 83.610494 63.11539 
L 83.825981 62.686384 
L 83.879853 62.531314 
L 83.933725 63.440657 
L 83.987596 63.322531 
L 84.09534 63.083124 
L 84.149212 63.687874 
L 84.203084 63.529352 
L 84.634058 62.634625 
L 84.68793 63.052232 
L 84.741801 62.946676 
L 84.903417 62.711218 
L 85.01116 63.483921 
L 85.065032 63.375001 
L 85.172776 63.218983 
L 85.226648 63.734341 
L 85.280519 63.672247 
L 85.765365 62.641645 
L 86.034724 62.117614 
L 86.088596 62.7015 
L 86.142468 62.627969 
L 86.250211 62.420105 
L 86.411827 62.651875 
L 86.51957 62.452208 
L 86.681186 63.174723 
L 86.735057 63.061516 
L 86.788929 63.605982 
L 86.842801 63.521208 
L 87.058288 63.115102 
L 87.11216 63.4103 
L 87.166032 63.276237 
L 87.381519 62.93051 
L 87.435391 63.180957 
L 87.489262 63.107578 
L 87.543134 63.003898 
L 87.597006 63.442493 
L 87.650878 63.372356 
L 87.866365 62.992161 
L 87.920237 63.222362 
L 87.974109 63.135304 
L 88.405083 62.575994 
L 88.458955 62.726934 
L 88.512826 62.63802 
L 88.674442 62.474725 
L 88.836057 62.820258 
L 89.159288 62.338247 
L 89.21316 62.422944 
L 89.267031 62.321791 
L 89.320903 62.258082 
L 89.374775 62.495294 
L 89.428647 62.425883 
L 89.590262 62.143554 
L 89.698006 62.792932 
L 89.805749 62.649983 
L 89.913493 62.511317 
L 89.967365 62.99609 
L 90.021236 62.912317 
L 90.236723 62.601408 
L 90.452211 63.550006 
L 90.506082 63.470806 
L 90.559954 63.694948 
L 90.613826 63.613026 
L 90.883185 63.190462 
L 90.937057 63.446908 
L 90.990928 63.343225 
L 91.206416 63.028979 
L 91.260287 63.865387 
L 91.314159 63.808885 
L 91.691262 63.45852 
L 91.745133 63.48586 
L 91.852877 63.895768 
L 91.906749 63.812099 
L 92.283851 63.286577 
L 92.499338 64.106375 
L 92.984184 63.480554 
L 93.038056 63.571192 
L 93.091928 63.513858 
L 93.415159 63.128596 
L 93.46903 63.331608 
L 93.522902 63.277039 
L 93.846133 62.9253 
L 93.900005 63.151955 
L 93.953877 63.067529 
L 94.384851 62.608556 
L 94.438723 62.896687 
L 94.492594 62.830599 
L 94.546466 62.758166 
L 94.600338 63.443782 
L 94.65421 63.366687 
L 94.708081 63.288903 
L 94.761953 63.393276 
L 94.815825 63.783536 
L 94.869697 63.74264 
L 95.031312 63.678617 
L 95.085184 63.82213 
L 95.139056 63.74565 
L 95.300671 63.573997 
L 95.408415 63.822896 
L 95.677774 63.62073 
L 95.893261 63.362184 
L 95.947133 63.462518 
L 96.001004 63.39826 
L 97.401671 61.907424 
L 97.509414 61.918442 
L 97.724901 61.716286 
L 97.778773 61.983336 
L 97.832645 61.927722 
L 98.048132 61.722439 
L 98.102004 61.852493 
L 98.155876 61.794107 
L 98.640722 61.270553 
L 98.694594 61.540597 
L 98.748465 61.483441 
L 99.448798 60.806101 
L 100.364619 60.198752 
L 100.418491 60.469806 
L 100.472362 60.41206 
L 100.903337 60.03708 
L 100.957208 60.132876 
L 101.01108 60.077815 
L 101.118824 59.963083 
L 101.172696 60.038923 
L 101.60367 59.872376 
L 101.765285 60.073248 
L 101.819157 60.029615 
L 101.873029 60.180388 
L 101.926901 60.14423 
L 103.866285 58.810536 
L 103.920157 59.054831 
L 103.974028 59.016556 
L 104.297259 58.765935 
L 104.351131 58.881865 
L 104.405003 58.831329 
L 104.62049 58.663626 
L 104.674362 58.855738 
L 104.728233 58.833017 
L 105.159208 58.612923 
L 105.266951 58.545293 
L 105.428566 58.839512 
L 105.482438 58.805231 
L 105.805669 58.562551 
L 105.859541 58.699971 
L 105.913413 58.665756 
L 106.075028 58.632395 
L 106.236643 59.070478 
L 106.290515 59.02551 
L 106.829233 58.714708 
L 106.883105 58.856738 
L 106.936976 58.831221 
L 108.283771 58.391612 
L 108.391515 58.482939 
L 108.876361 58.279309 
L 108.984104 58.551067 
L 109.037976 58.525019 
L 109.415079 58.339764 
L 109.576694 58.495053 
L 110.223155 58.220613 
L 110.277027 58.336957 
L 110.330899 58.310977 
L 110.600258 58.216671 
L 110.65413 58.24114 
L 110.708001 58.448532 
L 110.761873 58.416782 
L 111.300591 58.151749 
L 111.462206 58.282253 
L 111.623822 58.187197 
L 111.677693 58.37438 
L 111.731565 58.354493 
L 112.162539 58.085876 
L 112.324155 58.394447 
L 112.970616 58.037959 
L 113.07836 58.133956 
L 113.132232 58.09951 
L 113.186103 58.46848 
L 113.239975 58.434626 
L 113.886437 58.090389 
L 113.940308 58.460228 
L 113.99418 58.433446 
L 114.856129 58.119176 
L 114.963872 58.277897 
L 115.071616 58.223559 
L 115.179359 58.285865 
L 115.233231 58.26334 
L 115.287103 58.39141 
L 115.340975 58.367392 
L 115.448718 58.308529 
L 115.50259 58.43283 
L 115.556462 58.401709 
L 116.256795 58.094291 
L 116.364539 58.204796 
L 116.526154 58.137922 
L 116.580026 58.331077 
L 116.633898 58.310112 
L 116.741641 58.254859 
L 116.795513 58.387191 
L 116.849385 58.364407 
L 117.118744 58.253478 
L 117.172615 58.358173 
L 117.226487 58.33006 
L 117.334231 58.28321 
L 117.441974 58.541975 
L 117.495846 58.511037 
L 117.60359 58.474209 
L 117.819077 58.895084 
L 118.250051 58.820626 
L 118.411666 58.813882 
L 118.842641 58.610296 
L 118.896512 58.80081 
L 118.950384 58.772266 
L 119.112 58.706842 
L 119.219743 59.047403 
L 119.273615 59.023711 
L 119.596846 58.943188 
L 119.758461 59.001115 
L 120.297179 58.899307 
L 120.404922 59.142911 
L 120.458794 59.124993 
L 121.051384 58.96193 
L 121.212999 59.112215 
L 122.12882 58.842074 
L 122.182691 59.06139 
L 122.236563 59.040599 
L 123.421742 58.709292 
L 123.637229 58.943287 
L 123.798845 58.969105 
L 123.96046 59.010036 
L 124.337563 58.992762 
L 124.499178 59.052082 
L 124.768537 59.079299 
L 124.930152 59.122824 
L 125.199511 59.136576 
L 125.361127 59.206643 
L 125.522742 59.161117 
L 125.684357 59.242739 
L 125.845973 59.317366 
L 126.223075 59.275094 
L 126.38469 59.439105 
L 126.869537 59.370778 
L 127.031152 59.410898 
L 127.138895 59.497004 
L 127.354383 59.542385 
L 127.785357 59.534714 
L 128.108588 59.829827 
L 128.593434 59.710997 
L 128.755049 59.808641 
L 129.07828 59.791388 
L 129.293767 59.871242 
L 129.509254 59.923917 
L 130.155715 59.870178 
L 130.478946 60.010504 
L 130.856049 60.008549 
L 131.448638 59.865018 
L 131.610253 59.954859 
L 132.310587 59.891207 
L 132.633817 59.977576 
L 133.657381 59.939195 
L 133.818997 59.976354 
L 134.357714 59.859274 
L 134.51933 60.042953 
L 134.680945 60.112571 
L 135.165791 60.126106 
L 135.489022 60.275794 
L 135.919996 60.300606 
L 136.404842 60.342982 
L 136.620329 60.454131 
L 137.590022 60.395943 
L 137.751637 60.446432 
L 138.398098 60.51451 
L 138.559714 60.634435 
L 139.475534 60.638829 
L 139.637149 60.682704 
L 139.744893 60.671652 
L 139.906508 60.758647 
L 140.391354 60.747129 
L 140.606841 60.754128 
L 140.8762 60.791517 
L 141.037816 60.855801 
L 141.953636 60.804822 
L 142.115251 60.920507 
L 143.300431 60.920182 
L 143.515918 61.05526 
L 143.731405 61.03247 
L 143.89302 61.152138 
L 144.323994 61.158202 
L 144.593353 61.336669 
L 145.616917 61.231479 
L 145.99402 61.243887 
L 147.879532 61.130426 
L 148.041148 61.192826 
L 148.525994 61.244977 
L 149.172455 61.265332 
L 149.33407 61.309294 
L 149.818916 61.322669 
L 150.034404 61.348139 
L 150.896352 61.411601 
L 151.057967 61.454044 
L 152.35089 61.354479 
L 152.512506 61.432784 
L 153.158967 61.43533 
L 153.428326 61.558183 
L 154.398018 61.553535 
L 154.775121 61.677712 
L 155.906428 61.672273 
L 156.175787 61.793897 
L 156.445146 61.876691 
L 156.606761 61.925797 
L 157.091607 61.92638 
L 157.253223 61.98533 
L 159.461966 61.894138 
L 159.677453 61.912916 
L 160.754889 61.910075 
L 160.970376 61.935213 
L 162.155555 61.924477 
L 162.371042 61.956324 
L 163.017504 62.000108 
L 163.232991 62.029291 
L 164.687529 62.058701 
L 164.956888 62.070801 
L 165.495606 62.127162 
L 165.657221 62.173691 
L 169.482118 62.21186 
L 169.697605 62.250715 
L 171.044399 62.229702 
L 171.313758 62.248246 
L 173.199271 62.239346 
L 173.414758 62.308362 
L 174.546065 62.318054 
L 174.761552 62.406787 
L 177.131911 62.45122 
L 177.40127 62.464757 
L 177.886116 62.51009 
L 178.101603 62.546816 
L 179.125167 62.573 
L 180.633577 62.877028 
L 181.172295 62.951126 
L 181.495525 63.027406 
L 184.189115 63.103679 
L 184.404602 63.144215 
L 185.051063 63.176618 
L 187.313678 63.227424 
L 187.529165 63.270545 
L 189.414678 63.316156 
L 189.630165 63.353039 
L 190.38437 63.437502 
L 190.599857 63.471293 
L 192.700856 63.476201 
L 193.024087 63.530607 
L 195.609933 63.616584 
L 195.82542 63.690023 
L 196.795112 63.768094 
L 197.064471 63.832558 
L 198.626753 63.917567 
L 199.003855 63.930801 
L 200.296778 64.011884 
L 200.512265 64.047948 
L 201.481957 64.144223 
L 201.805188 64.163494 
L 203.6907 64.263208 
L 203.906188 64.295813 
L 206.007187 64.336604 
L 206.38429 64.391131 
L 207.353982 64.478659 
L 207.731084 64.525028 
L 209.293366 64.610472 
L 209.616597 64.629173 
L 212.579545 64.723414 
L 212.956647 64.766342 
L 214.518929 64.853796 
L 220.28321 64.952003 
L 220.606441 64.971359 
L 224.323594 65.02125 
L 224.754568 65.051834 
L 236.767976 65.072672 
L 318.653087 65.176793 
L 319.245677 65.188048 
L 329.481316 65.288831 
L 329.858418 65.305699 
L 336.700135 65.411275 
L 337.077237 65.426907 
L 342.841518 65.522402 
L 343.272493 65.544865 
L 353.615875 65.647416 
L 354.262336 65.669861 
L 358.572079 65.779574 
L 359.272412 65.811976 
L 362.82795 65.909133 
L 363.258924 65.937146 
L 365.413796 66.042726 
L 365.790898 66.059522 
L 371.501307 66.164195 
L 372.147769 66.185321 
L 388.848022 66.291306 
L 389.440611 66.302486 
L 403.28566 66.398032 
L 403.716634 66.431548 
L 411.043197 66.529104 
L 411.474171 66.557013 
L 420.79399 66.654062 
L 421.171092 66.670795 
L 434.208064 66.774657 
L 434.800653 66.785803 
L 436.309063 66.830381 
L 442.23496 66.928082 
L 442.665934 66.955067 
L 451.60865 67.06038 
L 452.52447 67.136964 
L 459.743289 67.237853 
L 460.443623 67.276751 
L 462.383007 67.387413 
L 462.867853 67.426281 
L 467.554698 67.525759 
L 467.877929 67.559051 
L 475.958696 67.662259 
L 476.281927 67.684001 
L 488.187591 67.788286 
L 488.564694 67.804906 
L 491.312155 67.903279 
L 491.581514 67.942033 
L 494.975436 68.048304 
L 495.621897 68.070431 
L 501.224563 68.173727 
L 501.817153 68.184784 
L 509.359202 68.259052 
L 509.359202 68.259052 
" clip-path="url(#p1f56de7dca)" style="fill: none; stroke: #d62728; stroke-width: 1.8; stroke-linecap: square"/>
   </g>
   <g id="line2d_27">
    <path d="M 71.327727 36.121818 
L 71.489343 95.849667 
L 71.543214 111.294169 
L 71.597086 98.464272 
L 71.650958 96.205113 
L 71.866445 74.786902 
L 71.920317 76.577874 
L 71.974189 82.13615 
L 72.02806 79.026417 
L 72.728394 60.453266 
L 72.782265 62.318243 
L 72.836137 61.326665 
L 73.267111 55.706665 
L 73.482599 53.589197 
L 73.53647 54.746474 
L 73.590342 54.418509 
L 74.075188 51.121853 
L 75.260367 46.552345 
L 76.445547 44.116806 
L 77.522982 42.687637 
L 78.600418 41.712105 
L 79.57011 41.078711 
L 80.916905 40.402789 
L 82.371443 39.841364 
L 87.004416 38.767112 
L 93.1458 38.023283 
L 101.064952 37.514742 
L 113.455462 37.10592 
L 123.637229 36.939651 
L 137.53615 36.916344 
L 153.751557 37.023763 
L 154.128659 37.055453 
L 156.175787 37.163164 
L 156.391274 37.213833 
L 159.192607 37.315135 
L 159.408094 37.353111 
L 164.579785 37.447633 
L 165.064631 37.510865 
L 166.788528 37.573951 
L 166.950144 37.637141 
L 170.020835 37.731725 
L 170.236323 37.788549 
L 174.438322 37.882526 
L 174.707681 37.914062 
L 179.017423 37.983098 
L 179.23291 38.033521 
L 180.74132 38.128032 
L 180.956808 38.165825 
L 185.158807 38.253608 
L 185.374294 38.341715 
L 187.475293 38.442193 
L 187.690781 38.479853 
L 188.337242 38.567464 
L 188.552729 38.630292 
L 189.737908 38.730779 
L 190.276626 38.812312 
L 191.785036 38.86839 
L 191.946651 38.943663 
L 194.478625 39.043687 
L 194.747984 39.075026 
L 197.818676 39.181094 
L 198.088035 39.2625 
L 198.465137 39.331357 
L 198.626753 39.400192 
L 202.290034 39.485954 
L 202.505521 39.523456 
L 204.660392 39.623428 
L 205.037495 39.679642 
L 206.330418 39.766633 
L 206.545905 39.816562 
L 207.407853 39.872719 
L 207.623341 39.978753 
L 209.454981 40.078502 
L 210.263058 40.159279 
L 212.956647 40.240256 
L 213.172134 40.290072 
L 214.24957 40.395894 
L 214.411185 40.451896 
L 216.512185 40.538788 
L 216.6738 40.638266 
L 218.343826 40.737228 
L 218.613185 40.848885 
L 220.121594 40.947085 
L 220.498697 41.058454 
L 223.192286 41.156844 
L 223.569389 41.174996 
L 226.370721 41.272991 
L 227.448157 41.532894 
L 230.303362 41.638003 
L 230.464977 41.693629 
L 233.697284 41.792153 
L 233.912771 41.834806 
L 235.852155 41.914978 
L 236.067643 41.989032 
L 237.037335 42.09946 
L 237.306694 42.241237 
L 238.060899 42.314813 
L 238.276386 42.357926 
L 240.431257 42.430538 
L 240.592872 42.498233 
L 242.801616 42.59051 
L 243.070974 42.615111 
L 245.118102 42.706957 
L 245.387461 42.780705 
L 246.949743 42.884552 
L 247.650076 42.939815 
L 250.666896 43.024953 
L 250.936255 43.080173 
L 252.60628 43.171462 
L 252.983383 43.245026 
L 254.060818 43.336842 
L 254.330177 43.379097 
L 255.569228 43.427037 
L 255.730844 43.494056 
L 258.208946 43.596892 
L 258.370561 43.658047 
L 260.74092 43.75509 
L 260.956407 43.791754 
L 262.680304 43.901709 
L 263.057406 43.920029 
L 264.889047 44.017029 
L 265.266149 44.035337 
L 267.959739 44.105227 
L 268.121354 44.160102 
L 270.383969 44.255987 
L 270.599456 44.365622 
L 271.676892 44.468755 
L 272.000122 44.493098 
L 273.13143 44.546892 
L 273.293045 44.613795 
L 274.208866 44.71715 
L 274.424353 44.76577 
L 275.55566 44.875125 
L 275.825019 44.935853 
L 277.926019 45.044736 
L 278.195378 45.068496 
L 279.434429 45.165165 
L 279.649916 45.207222 
L 281.212197 45.304208 
L 281.427685 45.346625 
L 282.50512 45.448668 
L 282.720607 45.521321 
L 284.282889 45.628758 
L 286.922607 45.815372 
L 287.62294 45.924127 
L 287.784555 45.996599 
L 289.185221 46.096373 
L 289.45458 46.126539 
L 290.585888 46.210982 
L 290.801375 46.25922 
L 291.501708 46.330972 
L 291.717195 46.373154 
L 294.303041 46.47364 
L 294.5724 46.503745 
L 295.757579 46.58712 
L 296.08081 46.689395 
L 296.99663 46.760042 
L 297.373733 46.861759 
L 298.882143 46.969423 
L 299.043758 47.029468 
L 301.360245 47.129936 
L 301.575732 47.219915 
L 303.568988 47.325925 
L 303.784475 47.361881 
L 304.646423 47.46826 
L 304.915782 47.4982 
L 306.909038 47.598168 
L 307.124526 47.634067 
L 309.117782 47.741068 
L 309.764243 47.854645 
L 311.542012 47.961346 
L 311.811371 48.008277 
L 313.91237 48.114193 
L 314.289473 48.161924 
L 317.898882 48.271793 
L 318.383728 48.325433 
L 319.35342 48.400974 
L 319.622779 48.472437 
L 321.777651 48.573105 
L 322.04701 48.602858 
L 323.070574 48.721829 
L 325.117701 48.808317 
L 325.440932 48.885563 
L 327.218701 48.979322 
L 327.48806 49.009009 
L 329.211957 49.109175 
L 329.696803 49.162571 
L 330.666495 49.269322 
L 331.043598 49.328231 
L 333.360084 49.428971 
L 333.575571 49.529662 
L 339.016622 49.640613 
L 339.232109 49.682033 
L 340.902134 49.750324 
L 341.117621 49.797626 
L 342.248929 49.88038 
L 342.464416 49.915835 
L 344.834774 50.067832 
L 346.720287 50.131973 
L 346.989646 50.220478 
L 348.282568 50.314243 
L 348.498056 50.349617 
L 350.114209 50.41934 
L 350.329696 50.554831 
L 352.26908 50.65492 
L 352.484568 50.690235 
L 355.232029 50.786334 
L 355.447516 50.827496 
L 357.063669 50.903918 
L 357.279156 50.986188 
L 360.726951 51.096733 
L 360.942438 51.137831 
L 361.696643 51.237607 
L 362.396976 51.277611 
L 365.036693 51.357579 
L 365.306052 51.404478 
L 368.969333 51.496516 
L 369.292564 51.519949 
L 371.87841 51.629475 
L 372.093897 51.676302 
L 372.955845 51.781625 
L 373.171333 51.821908 
L 374.679743 51.932332 
L 375.056845 51.949867 
L 376.134281 52.04786 
L 376.349768 52.081337 
L 378.612383 52.19001 
L 380.066921 52.236691 
L 381.736946 52.341459 
L 382.006305 52.432914 
L 383.029869 52.529673 
L 383.245356 52.634491 
L 384.215048 52.710161 
L 384.484407 52.797438 
L 385.885074 52.848147 
L 386.154433 52.877222 
L 386.854766 52.958607 
L 387.070253 53.005099 
L 389.871586 53.114287 
L 390.194816 53.137515 
L 395.959097 53.247813 
L 396.174584 53.294237 
L 398.060097 53.369653 
L 398.329456 53.450114 
L 403.608891 53.548117 
L 403.824378 53.58287 
L 405.548275 53.680817 
L 405.871505 53.703972 
L 407.110556 53.802349 
L 407.487659 53.819704 
L 410.989325 53.927107 
L 411.312556 54.019585 
L 413.198068 54.129349 
L 413.413555 54.175549 
L 415.837785 54.277688 
L 416.053273 54.31231 
L 418.800734 54.407826 
L 419.123964 54.430891 
L 420.686246 54.523121 
L 420.901733 54.569221 
L 424.618886 54.675052 
L 424.780502 54.77291 
L 427.851193 54.857654 
L 428.174424 54.932418 
L 434.531294 55.032175 
L 434.854525 55.055151 
L 436.578422 55.150126 
L 436.793909 55.218997 
L 438.302319 55.299317 
L 438.463935 55.367336 
L 439.002653 55.433719 
L 439.21814 55.479564 
L 439.487499 55.536857 
L 441.319139 55.60915 
L 441.588498 55.752245 
L 446.005984 55.843204 
L 446.436959 56.008941 
L 448.053112 56.091572 
L 448.322471 56.154368 
L 450.477343 56.210048 
L 450.638958 56.267099 
L 453.70965 56.371809 
L 454.086752 56.411707 
L 456.510982 56.499211 
L 456.834213 56.578935 
L 457.696162 56.66432 
L 457.857777 56.715534 
L 459.042956 56.800863 
L 459.312315 56.852043 
L 459.689418 56.925373 
L 459.904905 56.965155 
L 461.036212 57.067418 
L 461.736545 57.18666 
L 461.844289 57.232068 
L 462.005904 57.31718 
L 464.160776 57.385244 
L 464.322391 57.453286 
L 465.776929 57.546145 
L 466.10016 57.591453 
L 466.962108 57.674893 
L 467.177596 57.711535 
L 469.170852 57.808878 
L 469.44021 57.837148 
L 472.780261 57.940633 
L 473.157364 57.957581 
L 475.635466 58.044329 
L 475.904825 58.123356 
L 478.652286 58.214718 
L 478.921644 58.27111 
L 482.908156 58.373012 
L 483.123644 58.406814 
L 484.847541 58.494468 
L 485.063028 58.528246 
L 485.763361 58.595787 
L 486.03272 58.713929 
L 487.864361 58.823901 
L 488.13372 58.851994 
L 489.157283 58.940615 
L 489.372771 58.97992 
L 490.504078 59.080011 
L 490.827309 59.129877 
L 492.227975 59.223007 
L 492.551206 59.245433 
L 493.467026 59.329509 
L 493.682513 59.363129 
L 494.813821 59.452757 
L 495.137051 59.553541 
L 498.800333 59.654395 
L 499.01582 59.697848 
L 500.362614 59.801803 
L 500.955204 59.81298 
L 502.679101 59.914902 
L 503.702665 60.017714 
L 506.773357 60.096169 
L 506.988844 60.140784 
L 508.874356 60.235863 
L 509.089843 60.286009 
L 511.514074 60.389512 
L 512.106663 60.406214 
L 513.453458 60.508303 
L 513.722817 60.569493 
L 514.42315 60.64889 
L 517.655457 60.738332 
L 518.03256 60.816088 
L 520.618405 60.923063 
L 520.941636 60.950806 
L 522.450046 61.055971 
L 522.665533 61.150199 
L 524.38943 61.244383 
L 524.658789 61.2932 
L 526.005584 61.40323 
L 526.221071 61.447499 
L 527.244635 61.547069 
L 527.567865 61.56746 
L 531.069531 61.650383 
L 531.392762 61.727748 
L 532.955044 61.794037 
L 533.170531 61.84374 
L 536.402838 61.954147 
L 536.726069 62.081041 
L 541.682273 62.141702 
L 541.682273 62.141702 
" clip-path="url(#p1f56de7dca)" style="fill: none; stroke: #9467bd; stroke-width: 1.8; stroke-linecap: square"/>
   </g>
   <g id="patch_3">
    <path d="M 47.81 260.44 
L 47.81 25.44 
" style="fill: none; stroke: #000000; stroke-width: 0.8; stroke-linejoin: miter; stroke-linecap: square"/>
   </g>
   <g id="patch_4">
    <path d="M 565.2 260.44 
L 565.2 25.44 
" style="fill: none; stroke: #000000; stroke-width: 0.8; stroke-linejoin: miter; stroke-linecap: square"/>
   </g>
   <g id="patch_5">
    <path d="M 47.81 260.44 
L 565.2 260.44 
" style="fill: none; stroke: #000000; stroke-width: 0.8; stroke-linejoin: miter; stroke-linecap: square"/>
   </g>
   <g id="patch_6">
    <path d="M 47.81 25.44 
L 565.2 25.44 
" style="fill: none; stroke: #000000; stroke-width: 0.8; stroke-linejoin: miter; stroke-linecap: square"/>
   </g>
   <g id="text_14">
    <!-- Timely Transfer Rate (Cumulative) -->
    <g transform="translate(204.082187 19.44) scale(0.12 -0.12)">
     <defs>
      <path id="DejaVuSans-54" d="M -19 4666 
L 3928 4666 
L 3928 4134 
L 2272 4134 
L 2272 0 
L 1638 0 
L 1638 4134 
L -19 4134 
L -19 4666 
z
" transform="scale(0.015625)"/>
      <path id="DejaVuSans-52" d="M 2841 2188 
Q 3044 2119 3236 1894 
Q 3428 1669 3622 1275 
L 4263 0 
L 3584 0 
L 2988 1197 
Q 2756 1666 2539 1819 
Q 2322 1972 1947 1972 
L 1259 1972 
L 1259 0 
L 628 0 
L 628 4666 
L 2053 4666 
Q 2853 4666 3247 4331 
Q 3641 3997 3641 3322 
Q 3641 2881 3436 2590 
Q 3231 2300 2841 2188 
z
M 1259 4147 
L 1259 2491 
L 2053 2491 
Q 2509 2491 2742 2702 
Q 2975 2913 2975 3322 
Q 2975 3731 2742 3939 
Q 2509 4147 2053 4147 
L 1259 4147 
z
" transform="scale(0.015625)"/>
      <path id="DejaVuSans-28" d="M 1984 4856 
Q 1566 4138 1362 3434 
Q 1159 2731 1159 2009 
Q 1159 1288 1364 580 
Q 1569 -128 1984 -844 
L 1484 -844 
Q 1016 -109 783 600 
Q 550 1309 550 2009 
Q 550 2706 781 3412 
Q 1013 4119 1484 4856 
L 1984 4856 
z
" transform="scale(0.015625)"/>
      <path id="DejaVuSans-43" d="M 4122 4306 
L 4122 3641 
Q 3803 3938 3442 4084 
Q 3081 4231 2675 4231 
Q 1875 4231 1450 3742 
Q 1025 3253 1025 2328 
Q 1025 1406 1450 917 
Q 1875 428 2675 428 
Q 3081 428 3442 575 
Q 3803 722 4122 1019 
L 4122 359 
Q 3791 134 3420 21 
Q 3050 -91 2638 -91 
Q 1578 -91 968 557 
Q 359 1206 359 2328 
Q 359 3453 968 4101 
Q 1578 4750 2638 4750 
Q 3056 4750 3426 4639 
Q 3797 4528 4122 4306 
z
" transform="scale(0.015625)"/>
      <path id="DejaVuSans-29" d="M 513 4856 
L 1013 4856 
Q 1481 4119 1714 3412 
Q 1947 2706 1947 2009 
Q 1947 1309 1714 600 
Q 1481 -109 1013 -844 
L 513 -844 
Q 928 -128 1133 580 
Q 1338 1288 1338 2009 
Q 1338 2731 1133 3434 
Q 928 4138 513 4856 
z
" transform="scale(0.015625)"/>
     </defs>
     <use xlink:href="#DejaVuSans-54"/>
     <use xlink:href="#DejaVuSans-69" x="57.958984"/>
     <use xlink:href="#DejaVuSans-6d" x="85.742188"/>
     <use xlink:href="#DejaVuSans-65" x="183.154297"/>
     <use xlink:href="#DejaVuSans-6c" x="244.677734"/>
     <use xlink:href="#DejaVuSans-79" x="272.460938"/>
     <use xlink:href="#DejaVuSans-20" x="331.640625"/>
     <use xlink:href="#DejaVuSans-54" x="363.427734"/>
     <use xlink:href="#DejaVuSans-72" x="409.761719"/>
     <use xlink:href="#DejaVuSans-61" x="450.875"/>
     <use xlink:href="#DejaVuSans-6e" x="512.154297"/>
     <use xlink:href="#DejaVuSans-73" x="575.533203"/>
     <use xlink:href="#DejaVuSans-66" x="627.632812"/>
     <use xlink:href="#DejaVuSans-65" x="662.837891"/>
     <use xlink:href="#DejaVuSans-72" x="724.361328"/>
     <use xlink:href="#DejaVuSans-20" x="765.474609"/>
     <use xlink:href="#DejaVuSans-52" x="797.261719"/>
     <use xlink:href="#DejaVuSans-61" x="864.494141"/>
     <use xlink:href="#DejaVuSans-74" x="925.773438"/>
     <use xlink:href="#DejaVuSans-65" x="964.982422"/>
     <use xlink:href="#DejaVuSans-20" x="1026.505859"/>
     <use xlink:href="#DejaVuSans-28" x="1058.292969"/>
     <use xlink:href="#DejaVuSans-43" x="1097.306641"/>
     <use xlink:href="#DejaVuSans-75" x="1167.130859"/>
     <use xlink:href="#DejaVuSans-6d" x="1230.509766"/>
     <use xlink:href="#DejaVuSans-75" x="1327.921875"/>
     <use xlink:href="#DejaVuSans-6c" x="1391.300781"/>
     <use xlink:href="#DejaVuSans-61" x="1419.083984"/>
     <use xlink:href="#DejaVuSans-74" x="1480.363281"/>
     <use xlink:href="#DejaVuSans-69" x="1519.572266"/>
     <use xlink:href="#DejaVuSans-76" x="1547.355469"/>
     <use xlink:href="#DejaVuSans-65" x="1606.535156"/>
     <use xlink:href="#DejaVuSans-29" x="1668.058594"/>
    </g>
   </g>
   <g id="legend_1">
    <g id="patch_7">
     <path d="M 480.614062 255.44 
L 558.2 255.44 
Q 560.2 255.44 560.2 253.44 
L 560.2 180.493125 
Q 560.2 178.493125 558.2 178.493125 
L 480.614062 178.493125 
Q 478.614062 178.493125 478.614062 180.493125 
L 478.614062 253.44 
Q 478.614062 255.44 480.614062 255.44 
z
" style="fill: #ffffff; opacity: 0.8; stroke: #cccccc; stroke-linejoin: miter"/>
    </g>
    <g id="line2d_28">
     <path d="M 482.614062 186.591563 
L 492.614062 186.591563 
L 502.614062 186.591563 
" style="fill: none; stroke: #1f77b4; stroke-width: 1.8; stroke-linecap: square"/>
    </g>
    <g id="text_15">
     <!-- sheer -->
     <g transform="translate(510.614062 190.091563) scale(0.1 -0.1)">
      <defs>
       <path id="DejaVuSans-68" d="M 3513 2113 
L 3513 0 
L 2938 0 
L 2938 2094 
Q 2938 2591 2744 2837 
Q 2550 3084 2163 3084 
Q 1697 3084 1428 2787 
Q 1159 2491 1159 1978 
L 1159 0 
L 581 0 
L 581 4863 
L 1159 4863 
L 1159 2956 
Q 1366 3272 1645 3428 
Q 1925 3584 2291 3584 
Q 2894 3584 3203 3211 
Q 3513 2838 3513 2113 
z
" transform="scale(0.015625)"/>
      </defs>
      <use xlink:href="#DejaVuSans-73"/>
      <use xlink:href="#DejaVuSans-68" x="52.099609"/>
      <use xlink:href="#DejaVuSans-65" x="115.478516"/>
      <use xlink:href="#DejaVuSans-65" x="177.001953"/>
      <use xlink:href="#DejaVuSans-72" x="238.525391"/>
     </g>
    </g>
    <g id="line2d_29">
     <path d="M 482.614062 201.269688 
L 492.614062 201.269688 
L 502.614062 201.269688 
" style="fill: none; stroke: #ff7f0e; stroke-width: 1.8; stroke-linecap: square"/>
    </g>
    <g id="text_16">
     <!-- actar -->
     <g transform="translate(510.614062 204.769688) scale(0.1 -0.1)">
      <use xlink:href="#DejaVuSans-61"/>
      <use xlink:href="#DejaVuSans-63" x="61.279297"/>
      <use xlink:href="#DejaVuSans-74" x="116.259766"/>
      <use xlink:href="#DejaVuSans-61" x="155.46875"/>
      <use xlink:href="#DejaVuSans-72" x="216.748047"/>
     </g>
    </g>
    <g id="line2d_30">
     <path d="M 482.614062 215.947813 
L 492.614062 215.947813 
L 502.614062 215.947813 
" style="fill: none; stroke: #2ca02c; stroke-width: 1.8; stroke-linecap: square"/>
    </g>
    <g id="text_17">
     <!-- tfsm_dpc -->
     <g transform="translate(510.614062 219.447813) scale(0.1 -0.1)">
      <defs>
       <path id="DejaVuSans-5f" d="M 3263 -1063 
L 3263 -1509 
L -63 -1509 
L -63 -1063 
L 3263 -1063 
z
" transform="scale(0.015625)"/>
       <path id="DejaVuSans-70" d="M 1159 525 
L 1159 -1331 
L 581 -1331 
L 581 3500 
L 1159 3500 
L 1159 2969 
Q 1341 3281 1617 3432 
Q 1894 3584 2278 3584 
Q 2916 3584 3314 3078 
Q 3713 2572 3713 1747 
Q 3713 922 3314 415 
Q 2916 -91 2278 -91 
Q 1894 -91 1617 61 
Q 1341 213 1159 525 
z
M 3116 1747 
Q 3116 2381 2855 2742 
Q 2594 3103 2138 3103 
Q 1681 3103 1420 2742 
Q 1159 2381 1159 1747 
Q 1159 1113 1420 752 
Q 1681 391 2138 391 
Q 2594 391 2855 752 
Q 3116 1113 3116 1747 
z
" transform="scale(0.015625)"/>
      </defs>
      <use xlink:href="#DejaVuSans-74"/>
      <use xlink:href="#DejaVuSans-66" x="39.208984"/>
      <use xlink:href="#DejaVuSans-73" x="74.414062"/>
      <use xlink:href="#DejaVuSans-6d" x="126.513672"/>
      <use xlink:href="#DejaVuSans-5f" x="223.925781"/>
      <use xlink:href="#DejaVuSans-64" x="273.925781"/>
      <use xlink:href="#DejaVuSans-70" x="337.402344"/>
      <use xlink:href="#DejaVuSans-63" x="400.878906"/>
     </g>
    </g>
    <g id="line2d_31">
     <path d="M 482.614062 230.904063 
L 492.614062 230.904063 
L 502.614062 230.904063 
" style="fill: none; stroke: #d62728; stroke-width: 1.8; stroke-linecap: square"/>
    </g>
    <g id="text_18">
     <!-- dst_woa -->
     <g transform="translate(510.614062 234.404063) scale(0.1 -0.1)">
      <defs>
       <path id="DejaVuSans-77" d="M 269 3500 
L 844 3500 
L 1563 769 
L 2278 3500 
L 2956 3500 
L 3675 769 
L 4391 3500 
L 4966 3500 
L 4050 0 
L 3372 0 
L 2619 2869 
L 1863 0 
L 1184 0 
L 269 3500 
z
" transform="scale(0.015625)"/>
      </defs>
      <use xlink:href="#DejaVuSans-64"/>
      <use xlink:href="#DejaVuSans-73" x="63.476562"/>
      <use xlink:href="#DejaVuSans-74" x="115.576172"/>
      <use xlink:href="#DejaVuSans-5f" x="154.785156"/>
      <use xlink:href="#DejaVuSans-77" x="204.785156"/>
      <use xlink:href="#DejaVuSans-6f" x="286.572266"/>
      <use xlink:href="#DejaVuSans-61" x="347.753906"/>
     </g>
    </g>
    <g id="line2d_32">
     <path d="M 482.614062 245.860313 
L 492.614062 245.860313 
L 502.614062 245.860313 
" style="fill: none; stroke: #9467bd; stroke-width: 1.8; stroke-linecap: square"/>
    </g>
    <g id="text_19">
     <!-- trail -->
     <g transform="translate(510.614062 249.360313) scale(0.1 -0.1)">
      <use xlink:href="#DejaVuSans-74"/>
      <use xlink:href="#DejaVuSans-72" x="39.208984"/>
      <use xlink:href="#DejaVuSans-61" x="80.322266"/>
      <use xlink:href="#DejaVuSans-69" x="141.601562"/>
      <use xlink:href="#DejaVuSans-6c" x="169.384766"/>
     </g>
    </g>
   </g>
  </g>
 </g>
 <defs>
  <clipPath id="p1f56de7dca">
   <rect x="47.81" y="25.44" width="517.39" height="235"/>
  </clipPath>
 </defs>
</svg>
