<?xml version="1.0" encoding="utf-8" standalone="no"?>
<!DOCTYPE svg PUBLIC "-//W3C//DTD SVG 1.1//EN"
  "http://www.w3.org/Graphics/SVG/1.1/DTD/svg11.dtd">
<svg xmlns:xlink="http://www.w3.org/1999/xlink" width="576pt" height="302.4pt" viewBox="0 0 576 302.4" xmlns="http://www.w3.org/2000/svg" version="1.1">
 <metadata>
  <rdf:RDF xmlns:dc="http://purl.org/dc/elements/1.1/" xmlns:cc="http://creativecommons.org/ns#" xmlns:rdf="http://www.w3.org/1999/02/22-rdf-syntax-ns#">
   <cc:Work>
    <dc:type rdf:resource="http://purl.org/dc/dcmitype/StillImage"/>
    <dc:date>2025-09-03T16:34:44.338787</dc:date>
    <dc:format>image/svg+xml</dc:format>
    <dc:creator>
     <cc:Agent>
      <dc:title>Matplotlib v3.9.4, https://matplotlib.org/</dc:title>
     </cc:Agent>
    </dc:creator>
   </cc:Work>
  </rdf:RDF>
 </metadata>
 <defs>
  <style type="text/css">*{stroke-linejoin: round; stroke-linecap: butt}</style>
 </defs>
 <g id="figure_1">
  <g id="patch_1">
   <path d="M 0 302.4 
L 576 302.4 
L 576 0 
L 0 0 
z
" style="fill: #ffffff"/>
  </g>
  <g id="axes_1">
   <g id="patch_2">
    <path d="M 47.81 260.44 
L 565.2 260.44 
L 565.2 25.44 
L 47.81 25.44 
z
" style="fill: #ffffff"/>
   </g>
   <g id="matplotlib.axis_1">
    <g id="xtick_1">
     <g id="line2d_1">
      <path d="M 71.275003 260.44 
L 71.275003 25.44 
" clip-path="url(#pf202a7102d)" style="fill: none; stroke-dasharray: 2.96,1.28; stroke-dashoffset: 0; stroke: #b0b0b0; stroke-opacity: 0.3; stroke-width: 0.8"/>
     </g>
     <g id="line2d_2">
      <defs>
       <path id="m9937d1510c" d="M 0 0 
L 0 3.5 
" style="stroke: #000000; stroke-width: 0.8"/>
      </defs>
      <g>
       <use xlink:href="#m9937d1510c" x="71.275003" y="260.44" style="stroke: #000000; stroke-width: 0.8"/>
      </g>
     </g>
     <g id="text_1">
      <!-- 0 -->
      <g transform="translate(68.093753 275.038438) scale(0.1 -0.1)">
       <defs>
        <path id="DejaVuSans-30" d="M 2034 4250 
Q 1547 4250 1301 3770 
Q 1056 3291 1056 2328 
Q 1056 1369 1301 889 
Q 1547 409 2034 409 
Q 2525 409 2770 889 
Q 3016 1369 3016 2328 
Q 3016 3291 2770 3770 
Q 2525 4250 2034 4250 
z
M 2034 4750 
Q 2819 4750 3233 4129 
Q 3647 3509 3647 2328 
Q 3647 1150 3233 529 
Q 2819 -91 2034 -91 
Q 1250 -91 836 529 
Q 422 1150 422 2328 
Q 422 3509 836 4129 
Q 1250 4750 2034 4750 
z
" transform="scale(0.015625)"/>
       </defs>
       <use xlink:href="#DejaVuSans-30"/>
      </g>
     </g>
    </g>
    <g id="xtick_2">
     <g id="line2d_3">
      <path d="M 176.723842 260.44 
L 176.723842 25.44 
" clip-path="url(#pf202a7102d)" style="fill: none; stroke-dasharray: 2.96,1.28; stroke-dashoffset: 0; stroke: #b0b0b0; stroke-opacity: 0.3; stroke-width: 0.8"/>
     </g>
     <g id="line2d_4">
      <g>
       <use xlink:href="#m9937d1510c" x="176.723842" y="260.44" style="stroke: #000000; stroke-width: 0.8"/>
      </g>
     </g>
     <g id="text_2">
      <!-- 2000 -->
      <g transform="translate(163.998842 275.038438) scale(0.1 -0.1)">
       <defs>
        <path id="DejaVuSans-32" d="M 1228 531 
L 3431 531 
L 3431 0 
L 469 0 
L 469 531 
Q 828 903 1448 1529 
Q 2069 2156 2228 2338 
Q 2531 2678 2651 2914 
Q 2772 3150 2772 3378 
Q 2772 3750 2511 3984 
Q 2250 4219 1831 4219 
Q 1534 4219 1204 4116 
Q 875 4013 500 3803 
L 500 4441 
Q 881 4594 1212 4672 
Q 1544 4750 1819 4750 
Q 2544 4750 2975 4387 
Q 3406 4025 3406 3419 
Q 3406 3131 3298 2873 
Q 3191 2616 2906 2266 
Q 2828 2175 2409 1742 
Q 1991 1309 1228 531 
z
" transform="scale(0.015625)"/>
       </defs>
       <use xlink:href="#DejaVuSans-32"/>
       <use xlink:href="#DejaVuSans-30" x="63.623047"/>
       <use xlink:href="#DejaVuSans-30" x="127.246094"/>
       <use xlink:href="#DejaVuSans-30" x="190.869141"/>
      </g>
     </g>
    </g>
    <g id="xtick_3">
     <g id="line2d_5">
      <path d="M 282.17268 260.44 
L 282.17268 25.44 
" clip-path="url(#pf202a7102d)" style="fill: none; stroke-dasharray: 2.96,1.28; stroke-dashoffset: 0; stroke: #b0b0b0; stroke-opacity: 0.3; stroke-width: 0.8"/>
     </g>
     <g id="line2d_6">
      <g>
       <use xlink:href="#m9937d1510c" x="282.17268" y="260.44" style="stroke: #000000; stroke-width: 0.8"/>
      </g>
     </g>
     <g id="text_3">
      <!-- 4000 -->
      <g transform="translate(269.44768 275.038438) scale(0.1 -0.1)">
       <defs>
        <path id="DejaVuSans-34" d="M 2419 4116 
L 825 1625 
L 2419 1625 
L 2419 4116 
z
M 2253 4666 
L 3047 4666 
L 3047 1625 
L 3713 1625 
L 3713 1100 
L 3047 1100 
L 3047 0 
L 2419 0 
L 2419 1100 
L 313 1100 
L 313 1709 
L 2253 4666 
z
" transform="scale(0.015625)"/>
       </defs>
       <use xlink:href="#DejaVuSans-34"/>
       <use xlink:href="#DejaVuSans-30" x="63.623047"/>
       <use xlink:href="#DejaVuSans-30" x="127.246094"/>
       <use xlink:href="#DejaVuSans-30" x="190.869141"/>
      </g>
     </g>
    </g>
    <g id="xtick_4">
     <g id="line2d_7">
      <path d="M 387.621519 260.44 
L 387.621519 25.44 
" clip-path="url(#pf202a7102d)" style="fill: none; stroke-dasharray: 2.96,1.28; stroke-dashoffset: 0; stroke: #b0b0b0; stroke-opacity: 0.3; stroke-width: 0.8"/>
     </g>
     <g id="line2d_8">
      <g>
       <use xlink:href="#m9937d1510c" x="387.621519" y="260.44" style="stroke: #000000; stroke-width: 0.8"/>
      </g>
     </g>
     <g id="text_4">
      <!-- 6000 -->
      <g transform="translate(374.896519 275.038438) scale(0.1 -0.1)">
       <defs>
        <path id="DejaVuSans-36" d="M 2113 2584 
Q 1688 2584 1439 2293 
Q 1191 2003 1191 1497 
Q 1191 994 1439 701 
Q 1688 409 2113 409 
Q 2538 409 2786 701 
Q 3034 994 3034 1497 
Q 3034 2003 2786 2293 
Q 2538 2584 2113 2584 
z
M 3366 4563 
L 3366 3988 
Q 3128 4100 2886 4159 
Q 2644 4219 2406 4219 
Q 1781 4219 1451 3797 
Q 1122 3375 1075 2522 
Q 1259 2794 1537 2939 
Q 1816 3084 2150 3084 
Q 2853 3084 3261 2657 
Q 3669 2231 3669 1497 
Q 3669 778 3244 343 
Q 2819 -91 2113 -91 
Q 1303 -91 875 529 
Q 447 1150 447 2328 
Q 447 3434 972 4092 
Q 1497 4750 2381 4750 
Q 2619 4750 2861 4703 
Q 3103 4656 3366 4563 
z
" transform="scale(0.015625)"/>
       </defs>
       <use xlink:href="#DejaVuSans-36"/>
       <use xlink:href="#DejaVuSans-30" x="63.623047"/>
       <use xlink:href="#DejaVuSans-30" x="127.246094"/>
       <use xlink:href="#DejaVuSans-30" x="190.869141"/>
      </g>
     </g>
    </g>
    <g id="xtick_5">
     <g id="line2d_9">
      <path d="M 493.070358 260.44 
L 493.070358 25.44 
" clip-path="url(#pf202a7102d)" style="fill: none; stroke-dasharray: 2.96,1.28; stroke-dashoffset: 0; stroke: #b0b0b0; stroke-opacity: 0.3; stroke-width: 0.8"/>
     </g>
     <g id="line2d_10">
      <g>
       <use xlink:href="#m9937d1510c" x="493.070358" y="260.44" style="stroke: #000000; stroke-width: 0.8"/>
      </g>
     </g>
     <g id="text_5">
      <!-- 8000 -->
      <g transform="translate(480.345358 275.038438) scale(0.1 -0.1)">
       <defs>
        <path id="DejaVuSans-38" d="M 2034 2216 
Q 1584 2216 1326 1975 
Q 1069 1734 1069 1313 
Q 1069 891 1326 650 
Q 1584 409 2034 409 
Q 2484 409 2743 651 
Q 3003 894 3003 1313 
Q 3003 1734 2745 1975 
Q 2488 2216 2034 2216 
z
M 1403 2484 
Q 997 2584 770 2862 
Q 544 3141 544 3541 
Q 544 4100 942 4425 
Q 1341 4750 2034 4750 
Q 2731 4750 3128 4425 
Q 3525 4100 3525 3541 
Q 3525 3141 3298 2862 
Q 3072 2584 2669 2484 
Q 3125 2378 3379 2068 
Q 3634 1759 3634 1313 
Q 3634 634 3220 271 
Q 2806 -91 2034 -91 
Q 1263 -91 848 271 
Q 434 634 434 1313 
Q 434 1759 690 2068 
Q 947 2378 1403 2484 
z
M 1172 3481 
Q 1172 3119 1398 2916 
Q 1625 2713 2034 2713 
Q 2441 2713 2670 2916 
Q 2900 3119 2900 3481 
Q 2900 3844 2670 4047 
Q 2441 4250 2034 4250 
Q 1625 4250 1398 4047 
Q 1172 3844 1172 3481 
z
" transform="scale(0.015625)"/>
       </defs>
       <use xlink:href="#DejaVuSans-38"/>
       <use xlink:href="#DejaVuSans-30" x="63.623047"/>
       <use xlink:href="#DejaVuSans-30" x="127.246094"/>
       <use xlink:href="#DejaVuSans-30" x="190.869141"/>
      </g>
     </g>
    </g>
    <g id="text_6">
     <!-- round -->
     <g transform="translate(291.990937 288.716563) scale(0.1 -0.1)">
      <defs>
       <path id="DejaVuSans-72" d="M 2631 2963 
Q 2534 3019 2420 3045 
Q 2306 3072 2169 3072 
Q 1681 3072 1420 2755 
Q 1159 2438 1159 1844 
L 1159 0 
L 581 0 
L 581 3500 
L 1159 3500 
L 1159 2956 
Q 1341 3275 1631 3429 
Q 1922 3584 2338 3584 
Q 2397 3584 2469 3576 
Q 2541 3569 2628 3553 
L 2631 2963 
z
" transform="scale(0.015625)"/>
       <path id="DejaVuSans-6f" d="M 1959 3097 
Q 1497 3097 1228 2736 
Q 959 2375 959 1747 
Q 959 1119 1226 758 
Q 1494 397 1959 397 
Q 2419 397 2687 759 
Q 2956 1122 2956 1747 
Q 2956 2369 2687 2733 
Q 2419 3097 1959 3097 
z
M 1959 3584 
Q 2709 3584 3137 3096 
Q 3566 2609 3566 1747 
Q 3566 888 3137 398 
Q 2709 -91 1959 -91 
Q 1206 -91 779 398 
Q 353 888 353 1747 
Q 353 2609 779 3096 
Q 1206 3584 1959 3584 
z
" transform="scale(0.015625)"/>
       <path id="DejaVuSans-75" d="M 544 1381 
L 544 3500 
L 1119 3500 
L 1119 1403 
Q 1119 906 1312 657 
Q 1506 409 1894 409 
Q 2359 409 2629 706 
Q 2900 1003 2900 1516 
L 2900 3500 
L 3475 3500 
L 3475 0 
L 2900 0 
L 2900 538 
Q 2691 219 2414 64 
Q 2138 -91 1772 -91 
Q 1169 -91 856 284 
Q 544 659 544 1381 
z
M 1991 3584 
L 1991 3584 
z
" transform="scale(0.015625)"/>
       <path id="DejaVuSans-6e" d="M 3513 2113 
L 3513 0 
L 2938 0 
L 2938 2094 
Q 2938 2591 2744 2837 
Q 2550 3084 2163 3084 
Q 1697 3084 1428 2787 
Q 1159 2491 1159 1978 
L 1159 0 
L 581 0 
L 581 3500 
L 1159 3500 
L 1159 2956 
Q 1366 3272 1645 3428 
Q 1925 3584 2291 3584 
Q 2894 3584 3203 3211 
Q 3513 2838 3513 2113 
z
" transform="scale(0.015625)"/>
       <path id="DejaVuSans-64" d="M 2906 2969 
L 2906 4863 
L 3481 4863 
L 3481 0 
L 2906 0 
L 2906 525 
Q 2725 213 2448 61 
Q 2172 -91 1784 -91 
Q 1150 -91 751 415 
Q 353 922 353 1747 
Q 353 2572 751 3078 
Q 1150 3584 1784 3584 
Q 2172 3584 2448 3432 
Q 2725 3281 2906 2969 
z
M 947 1747 
Q 947 1113 1208 752 
Q 1469 391 1925 391 
Q 2381 391 2643 752 
Q 2906 1113 2906 1747 
Q 2906 2381 2643 2742 
Q 2381 3103 1925 3103 
Q 1469 3103 1208 2742 
Q 947 2381 947 1747 
z
" transform="scale(0.015625)"/>
      </defs>
      <use xlink:href="#DejaVuSans-72"/>
      <use xlink:href="#DejaVuSans-6f" x="38.863281"/>
      <use xlink:href="#DejaVuSans-75" x="100.044922"/>
      <use xlink:href="#DejaVuSans-6e" x="163.423828"/>
      <use xlink:href="#DejaVuSans-64" x="226.802734"/>
     </g>
    </g>
   </g>
   <g id="matplotlib.axis_2">
    <g id="ytick_1">
     <g id="line2d_11">
      <path d="M 47.81 242.603893 
L 565.2 242.603893 
" clip-path="url(#pf202a7102d)" style="fill: none; stroke-dasharray: 2.96,1.28; stroke-dashoffset: 0; stroke: #b0b0b0; stroke-opacity: 0.3; stroke-width: 0.8"/>
     </g>
     <g id="line2d_12">
      <defs>
       <path id="meb64fc6d2e" d="M 0 0 
L -3.5 0 
" style="stroke: #000000; stroke-width: 0.8"/>
      </defs>
      <g>
       <use xlink:href="#meb64fc6d2e" x="47.81" y="242.603893" style="stroke: #000000; stroke-width: 0.8"/>
      </g>
     </g>
     <g id="text_7">
      <!-- 0.5 -->
      <g transform="translate(24.906875 246.403112) scale(0.1 -0.1)">
       <defs>
        <path id="DejaVuSans-2e" d="M 684 794 
L 1344 794 
L 1344 0 
L 684 0 
L 684 794 
z
" transform="scale(0.015625)"/>
        <path id="DejaVuSans-35" d="M 691 4666 
L 3169 4666 
L 3169 4134 
L 1269 4134 
L 1269 2991 
Q 1406 3038 1543 3061 
Q 1681 3084 1819 3084 
Q 2600 3084 3056 2656 
Q 3513 2228 3513 1497 
Q 3513 744 3044 326 
Q 2575 -91 1722 -91 
Q 1428 -91 1123 -41 
Q 819 9 494 109 
L 494 744 
Q 775 591 1075 516 
Q 1375 441 1709 441 
Q 2250 441 2565 725 
Q 2881 1009 2881 1497 
Q 2881 1984 2565 2268 
Q 2250 2553 1709 2553 
Q 1456 2553 1204 2497 
Q 953 2441 691 2322 
L 691 4666 
z
" transform="scale(0.015625)"/>
       </defs>
       <use xlink:href="#DejaVuSans-30"/>
       <use xlink:href="#DejaVuSans-2e" x="63.623047"/>
       <use xlink:href="#DejaVuSans-35" x="95.410156"/>
      </g>
     </g>
    </g>
    <g id="ytick_2">
     <g id="line2d_13">
      <path d="M 47.81 201.109016 
L 565.2 201.109016 
" clip-path="url(#pf202a7102d)" style="fill: none; stroke-dasharray: 2.96,1.28; stroke-dashoffset: 0; stroke: #b0b0b0; stroke-opacity: 0.3; stroke-width: 0.8"/>
     </g>
     <g id="line2d_14">
      <g>
       <use xlink:href="#meb64fc6d2e" x="47.81" y="201.109016" style="stroke: #000000; stroke-width: 0.8"/>
      </g>
     </g>
     <g id="text_8">
      <!-- 0.6 -->
      <g transform="translate(24.906875 204.908235) scale(0.1 -0.1)">
       <use xlink:href="#DejaVuSans-30"/>
       <use xlink:href="#DejaVuSans-2e" x="63.623047"/>
       <use xlink:href="#DejaVuSans-36" x="95.410156"/>
      </g>
     </g>
    </g>
    <g id="ytick_3">
     <g id="line2d_15">
      <path d="M 47.81 159.61414 
L 565.2 159.61414 
" clip-path="url(#pf202a7102d)" style="fill: none; stroke-dasharray: 2.96,1.28; stroke-dashoffset: 0; stroke: #b0b0b0; stroke-opacity: 0.3; stroke-width: 0.8"/>
     </g>
     <g id="line2d_16">
      <g>
       <use xlink:href="#meb64fc6d2e" x="47.81" y="159.61414" style="stroke: #000000; stroke-width: 0.8"/>
      </g>
     </g>
     <g id="text_9">
      <!-- 0.7 -->
      <g transform="translate(24.906875 163.413359) scale(0.1 -0.1)">
       <defs>
        <path id="DejaVuSans-37" d="M 525 4666 
L 3525 4666 
L 3525 4397 
L 1831 0 
L 1172 0 
L 2766 4134 
L 525 4134 
L 525 4666 
z
" transform="scale(0.015625)"/>
       </defs>
       <use xlink:href="#DejaVuSans-30"/>
       <use xlink:href="#DejaVuSans-2e" x="63.623047"/>
       <use xlink:href="#DejaVuSans-37" x="95.410156"/>
      </g>
     </g>
    </g>
    <g id="ytick_4">
     <g id="line2d_17">
      <path d="M 47.81 118.119264 
L 565.2 118.119264 
" clip-path="url(#pf202a7102d)" style="fill: none; stroke-dasharray: 2.96,1.28; stroke-dashoffset: 0; stroke: #b0b0b0; stroke-opacity: 0.3; stroke-width: 0.8"/>
     </g>
     <g id="line2d_18">
      <g>
       <use xlink:href="#meb64fc6d2e" x="47.81" y="118.119264" style="stroke: #000000; stroke-width: 0.8"/>
      </g>
     </g>
     <g id="text_10">
      <!-- 0.8 -->
      <g transform="translate(24.906875 121.918482) scale(0.1 -0.1)">
       <use xlink:href="#DejaVuSans-30"/>
       <use xlink:href="#DejaVuSans-2e" x="63.623047"/>
       <use xlink:href="#DejaVuSans-38" x="95.410156"/>
      </g>
     </g>
    </g>
    <g id="ytick_5">
     <g id="line2d_19">
      <path d="M 47.81 76.624387 
L 565.2 76.624387 
" clip-path="url(#pf202a7102d)" style="fill: none; stroke-dasharray: 2.96,1.28; stroke-dashoffset: 0; stroke: #b0b0b0; stroke-opacity: 0.3; stroke-width: 0.8"/>
     </g>
     <g id="line2d_20">
      <g>
       <use xlink:href="#meb64fc6d2e" x="47.81" y="76.624387" style="stroke: #000000; stroke-width: 0.8"/>
      </g>
     </g>
     <g id="text_11">
      <!-- 0.9 -->
      <g transform="translate(24.906875 80.423606) scale(0.1 -0.1)">
       <defs>
        <path id="DejaVuSans-39" d="M 703 97 
L 703 672 
Q 941 559 1184 500 
Q 1428 441 1663 441 
Q 2288 441 2617 861 
Q 2947 1281 2994 2138 
Q 2813 1869 2534 1725 
Q 2256 1581 1919 1581 
Q 1219 1581 811 2004 
Q 403 2428 403 3163 
Q 403 3881 828 4315 
Q 1253 4750 1959 4750 
Q 2769 4750 3195 4129 
Q 3622 3509 3622 2328 
Q 3622 1225 3098 567 
Q 2575 -91 1691 -91 
Q 1453 -91 1209 -44 
Q 966 3 703 97 
z
M 1959 2075 
Q 2384 2075 2632 2365 
Q 2881 2656 2881 3163 
Q 2881 3666 2632 3958 
Q 2384 4250 1959 4250 
Q 1534 4250 1286 3958 
Q 1038 3666 1038 3163 
Q 1038 2656 1286 2365 
Q 1534 2075 1959 2075 
z
" transform="scale(0.015625)"/>
       </defs>
       <use xlink:href="#DejaVuSans-30"/>
       <use xlink:href="#DejaVuSans-2e" x="63.623047"/>
       <use xlink:href="#DejaVuSans-39" x="95.410156"/>
      </g>
     </g>
    </g>
    <g id="ytick_6">
     <g id="line2d_21">
      <path d="M 47.81 35.129511 
L 565.2 35.129511 
" clip-path="url(#pf202a7102d)" style="fill: none; stroke-dasharray: 2.96,1.28; stroke-dashoffset: 0; stroke: #b0b0b0; stroke-opacity: 0.3; stroke-width: 0.8"/>
     </g>
     <g id="line2d_22">
      <g>
       <use xlink:href="#meb64fc6d2e" x="47.81" y="35.129511" style="stroke: #000000; stroke-width: 0.8"/>
      </g>
     </g>
     <g id="text_12">
      <!-- 1.0 -->
      <g transform="translate(24.906875 38.92873) scale(0.1 -0.1)">
       <defs>
        <path id="DejaVuSans-31" d="M 794 531 
L 1825 531 
L 1825 4091 
L 703 3866 
L 703 4441 
L 1819 4666 
L 2450 4666 
L 2450 531 
L 3481 531 
L 3481 0 
L 794 0 
L 794 531 
z
" transform="scale(0.015625)"/>
       </defs>
       <use xlink:href="#DejaVuSans-31"/>
       <use xlink:href="#DejaVuSans-2e" x="63.623047"/>
       <use xlink:href="#DejaVuSans-30" x="95.410156"/>
      </g>
     </g>
    </g>
    <g id="text_13">
     <!-- cumulative timely transfer rate -->
     <g transform="translate(18.827188 221.048594) rotate(-90) scale(0.1 -0.1)">
      <defs>
       <path id="DejaVuSans-63" d="M 3122 3366 
L 3122 2828 
Q 2878 2963 2633 3030 
Q 2388 3097 2138 3097 
Q 1578 3097 1268 2742 
Q 959 2388 959 1747 
Q 959 1106 1268 751 
Q 1578 397 2138 397 
Q 2388 397 2633 464 
Q 2878 531 3122 666 
L 3122 134 
Q 2881 22 2623 -34 
Q 2366 -91 2075 -91 
Q 1284 -91 818 406 
Q 353 903 353 1747 
Q 353 2603 823 3093 
Q 1294 3584 2113 3584 
Q 2378 3584 2631 3529 
Q 2884 3475 3122 3366 
z
" transform="scale(0.015625)"/>
       <path id="DejaVuSans-6d" d="M 3328 2828 
Q 3544 3216 3844 3400 
Q 4144 3584 4550 3584 
Q 5097 3584 5394 3201 
Q 5691 2819 5691 2113 
L 5691 0 
L 5113 0 
L 5113 2094 
Q 5113 2597 4934 2840 
Q 4756 3084 4391 3084 
Q 3944 3084 3684 2787 
Q 3425 2491 3425 1978 
L 3425 0 
L 2847 0 
L 2847 2094 
Q 2847 2600 2669 2842 
Q 2491 3084 2119 3084 
Q 1678 3084 1418 2786 
Q 1159 2488 1159 1978 
L 1159 0 
L 581 0 
L 581 3500 
L 1159 3500 
L 1159 2956 
Q 1356 3278 1631 3431 
Q 1906 3584 2284 3584 
Q 2666 3584 2933 3390 
Q 3200 3197 3328 2828 
z
" transform="scale(0.015625)"/>
       <path id="DejaVuSans-6c" d="M 603 4863 
L 1178 4863 
L 1178 0 
L 603 0 
L 603 4863 
z
" transform="scale(0.015625)"/>
       <path id="DejaVuSans-61" d="M 2194 1759 
Q 1497 1759 1228 1600 
Q 959 1441 959 1056 
Q 959 750 1161 570 
Q 1363 391 1709 391 
Q 2188 391 2477 730 
Q 2766 1069 2766 1631 
L 2766 1759 
L 2194 1759 
z
M 3341 1997 
L 3341 0 
L 2766 0 
L 2766 531 
Q 2569 213 2275 61 
Q 1981 -91 1556 -91 
Q 1019 -91 701 211 
Q 384 513 384 1019 
Q 384 1609 779 1909 
Q 1175 2209 1959 2209 
L 2766 2209 
L 2766 2266 
Q 2766 2663 2505 2880 
Q 2244 3097 1772 3097 
Q 1472 3097 1187 3025 
Q 903 2953 641 2809 
L 641 3341 
Q 956 3463 1253 3523 
Q 1550 3584 1831 3584 
Q 2591 3584 2966 3190 
Q 3341 2797 3341 1997 
z
" transform="scale(0.015625)"/>
       <path id="DejaVuSans-74" d="M 1172 4494 
L 1172 3500 
L 2356 3500 
L 2356 3053 
L 1172 3053 
L 1172 1153 
Q 1172 725 1289 603 
Q 1406 481 1766 481 
L 2356 481 
L 2356 0 
L 1766 0 
Q 1100 0 847 248 
Q 594 497 594 1153 
L 594 3053 
L 172 3053 
L 172 3500 
L 594 3500 
L 594 4494 
L 1172 4494 
z
" transform="scale(0.015625)"/>
       <path id="DejaVuSans-69" d="M 603 3500 
L 1178 3500 
L 1178 0 
L 603 0 
L 603 3500 
z
M 603 4863 
L 1178 4863 
L 1178 4134 
L 603 4134 
L 603 4863 
z
" transform="scale(0.015625)"/>
       <path id="DejaVuSans-76" d="M 191 3500 
L 800 3500 
L 1894 563 
L 2988 3500 
L 3597 3500 
L 2284 0 
L 1503 0 
L 191 3500 
z
" transform="scale(0.015625)"/>
       <path id="DejaVuSans-65" d="M 3597 1894 
L 3597 1613 
L 953 1613 
Q 991 1019 1311 708 
Q 1631 397 2203 397 
Q 2534 397 2845 478 
Q 3156 559 3463 722 
L 3463 178 
Q 3153 47 2828 -22 
Q 2503 -91 2169 -91 
Q 1331 -91 842 396 
Q 353 884 353 1716 
Q 353 2575 817 3079 
Q 1281 3584 2069 3584 
Q 2775 3584 3186 3129 
Q 3597 2675 3597 1894 
z
M 3022 2063 
Q 3016 2534 2758 2815 
Q 2500 3097 2075 3097 
Q 1594 3097 1305 2825 
Q 1016 2553 972 2059 
L 3022 2063 
z
" transform="scale(0.015625)"/>
       <path id="DejaVuSans-20" transform="scale(0.015625)"/>
       <path id="DejaVuSans-79" d="M 2059 -325 
Q 1816 -950 1584 -1140 
Q 1353 -1331 966 -1331 
L 506 -1331 
L 506 -850 
L 844 -850 
Q 1081 -850 1212 -737 
Q 1344 -625 1503 -206 
L 1606 56 
L 191 3500 
L 800 3500 
L 1894 763 
L 2988 3500 
L 3597 3500 
L 2059 -325 
z
" transform="scale(0.015625)"/>
       <path id="DejaVuSans-73" d="M 2834 3397 
L 2834 2853 
Q 2591 2978 2328 3040 
Q 2066 3103 1784 3103 
Q 1356 3103 1142 2972 
Q 928 2841 928 2578 
Q 928 2378 1081 2264 
Q 1234 2150 1697 2047 
L 1894 2003 
Q 2506 1872 2764 1633 
Q 3022 1394 3022 966 
Q 3022 478 2636 193 
Q 2250 -91 1575 -91 
Q 1294 -91 989 -36 
Q 684 19 347 128 
L 347 722 
Q 666 556 975 473 
Q 1284 391 1588 391 
Q 1994 391 2212 530 
Q 2431 669 2431 922 
Q 2431 1156 2273 1281 
Q 2116 1406 1581 1522 
L 1381 1569 
Q 847 1681 609 1914 
Q 372 2147 372 2553 
Q 372 3047 722 3315 
Q 1072 3584 1716 3584 
Q 2034 3584 2315 3537 
Q 2597 3491 2834 3397 
z
" transform="scale(0.015625)"/>
       <path id="DejaVuSans-66" d="M 2375 4863 
L 2375 4384 
L 1825 4384 
Q 1516 4384 1395 4259 
Q 1275 4134 1275 3809 
L 1275 3500 
L 2222 3500 
L 2222 3053 
L 1275 3053 
L 1275 0 
L 697 0 
L 697 3053 
L 147 3053 
L 147 3500 
L 697 3500 
L 697 3744 
Q 697 4328 969 4595 
Q 1241 4863 1831 4863 
L 2375 4863 
z
" transform="scale(0.015625)"/>
      </defs>
      <use xlink:href="#DejaVuSans-63"/>
      <use xlink:href="#DejaVuSans-75" x="54.980469"/>
      <use xlink:href="#DejaVuSans-6d" x="118.359375"/>
      <use xlink:href="#DejaVuSans-75" x="215.771484"/>
      <use xlink:href="#DejaVuSans-6c" x="279.150391"/>
      <use xlink:href="#DejaVuSans-61" x="306.933594"/>
      <use xlink:href="#DejaVuSans-74" x="368.212891"/>
      <use xlink:href="#DejaVuSans-69" x="407.421875"/>
      <use xlink:href="#DejaVuSans-76" x="435.205078"/>
      <use xlink:href="#DejaVuSans-65" x="494.384766"/>
      <use xlink:href="#DejaVuSans-20" x="555.908203"/>
      <use xlink:href="#DejaVuSans-74" x="587.695312"/>
      <use xlink:href="#DejaVuSans-69" x="626.904297"/>
      <use xlink:href="#DejaVuSans-6d" x="654.6875"/>
      <use xlink:href="#DejaVuSans-65" x="752.099609"/>
      <use xlink:href="#DejaVuSans-6c" x="813.623047"/>
      <use xlink:href="#DejaVuSans-79" x="841.40625"/>
      <use xlink:href="#DejaVuSans-20" x="900.585938"/>
      <use xlink:href="#DejaVuSans-74" x="932.373047"/>
      <use xlink:href="#DejaVuSans-72" x="971.582031"/>
      <use xlink:href="#DejaVuSans-61" x="1012.695312"/>
      <use xlink:href="#DejaVuSans-6e" x="1073.974609"/>
      <use xlink:href="#DejaVuSans-73" x="1137.353516"/>
      <use xlink:href="#DejaVuSans-66" x="1189.453125"/>
      <use xlink:href="#DejaVuSans-65" x="1224.658203"/>
      <use xlink:href="#DejaVuSans-72" x="1286.181641"/>
      <use xlink:href="#DejaVuSans-20" x="1327.294922"/>
      <use xlink:href="#DejaVuSans-72" x="1359.082031"/>
      <use xlink:href="#DejaVuSans-61" x="1400.195312"/>
      <use xlink:href="#DejaVuSans-74" x="1461.474609"/>
      <use xlink:href="#DejaVuSans-65" x="1500.683594"/>
     </g>
    </g>
   </g>
   <g id="line2d_23">
    <path d="M 71.327727 249.758182 
L 71.380452 246.376154 
L 71.433176 201.109016 
L 71.485901 214.798048 
L 71.538625 221.026557 
L 71.749523 185.442584 
L 72.013145 155.097691 
L 72.698562 95.113601 
L 73.173082 79.107871 
L 73.647602 69.844713 
L 74.174846 62.98942 
L 74.70209 58.017665 
L 75.071161 55.659572 
L 75.123885 57.482052 
L 75.17661 57.253835 
L 75.282059 56.655551 
L 75.440232 62.632691 
L 75.492956 62.374714 
L 75.545681 62.121532 
L 75.756579 67.893979 
L 75.809303 67.702281 
L 75.862027 67.450145 
L 75.967476 72.584716 
L 76.072925 72.061111 
L 76.125649 71.82174 
L 76.336547 75.83651 
L 76.441996 75.131235 
L 76.705618 79.993555 
L 76.758342 79.937004 
L 76.811067 84.937103 
L 76.916516 84.629775 
L 76.96924 85.915299 
L 77.021965 85.646482 
L 77.074689 85.502909 
L 77.180138 90.98482 
L 77.285587 90.022929 
L 77.338311 90.025456 
L 77.44376 89.517553 
L 77.496484 90.667586 
L 77.549209 90.371834 
L 77.707382 89.199529 
L 78.181902 85.037438 
L 78.340075 83.897834 
L 78.445524 85.327126 
L 78.498248 84.723907 
L 79.23639 77.230737 
L 79.341839 76.511935 
L 79.394563 78.112694 
L 79.447288 77.838333 
L 79.605461 76.959459 
L 79.658186 77.194579 
L 79.816359 83.168532 
L 79.921808 82.643515 
L 79.974532 83.965004 
L 80.027256 83.797596 
L 80.132705 83.081371 
L 80.290879 85.283847 
L 80.65995 83.359651 
L 80.923572 87.912897 
L 81.081745 87.485828 
L 81.239918 86.897173 
L 81.292643 87.599417 
L 81.345367 87.408617 
L 81.398091 87.031151 
L 81.450816 88.049497 
L 81.50354 87.683307 
L 81.767162 86.699275 
L 81.925336 86.091092 
L 81.97806 86.316315 
L 82.030784 87.674699 
L 82.083509 87.381092 
L 82.610753 83.66198 
L 82.663477 83.924553 
L 83.085273 80.908561 
L 84.350659 72.559248 
L 85.299698 68.435912 
L 85.457872 69.075196 
L 85.510596 68.932954 
L 85.563321 69.267645 
L 85.616045 69.080324 
L 85.721494 68.711783 
L 85.826943 69.482353 
L 85.879667 69.319678 
L 86.03784 68.777925 
L 86.090565 69.169213 
L 86.143289 68.892246 
L 86.354187 68.156802 
L 86.51236 68.467899 
L 86.565084 68.216633 
L 86.617809 68.438998 
L 86.881431 67.572077 
L 87.039604 66.975719 
L 87.092329 66.999221 
L 87.197778 68.320325 
L 87.303226 69.771484 
L 87.355951 69.618108 
L 87.408675 69.926314 
L 87.4614 69.736073 
L 89.201305 63.92936 
L 89.412203 64.658827 
L 89.464928 64.59708 
L 89.517652 64.844767 
L 89.570376 64.780567 
L 89.781274 64.295134 
L 89.939447 64.994715 
L 90.044896 64.812258 
L 90.097621 65.511854 
L 90.150345 65.342224 
L 90.255794 65.119734 
L 90.361243 66.162471 
L 90.413967 66.043847 
L 90.466692 65.949138 
L 90.519416 66.102296 
L 90.57214 66.785714 
L 90.624865 66.664022 
L 90.677589 66.573365 
L 90.783038 67.624039 
L 90.835762 67.505894 
L 91.04666 67.185258 
L 91.152109 67.350578 
L 91.257558 67.079927 
L 91.310282 67.18874 
L 91.626629 68.064629 
L 91.679353 67.926918 
L 91.732078 67.788161 
L 91.784802 67.95721 
L 91.942975 68.143643 
L 92.048424 67.877905 
L 92.101149 68.048653 
L 92.153873 68.214501 
L 92.206597 68.10113 
L 92.681117 67.098387 
L 92.786566 67.488489 
L 92.83929 67.327331 
L 92.892015 67.224714 
L 92.944739 67.354363 
L 93.155637 67.894543 
L 93.208361 67.998712 
L 93.31381 68.723305 
L 93.366535 68.63362 
L 93.471983 68.414433 
L 93.524708 68.754921 
L 93.577432 68.615413 
L 93.630157 68.480939 
L 93.682881 68.814945 
L 93.735606 68.673058 
L 94.421023 67.106215 
L 94.579196 66.741666 
L 94.737369 66.961743 
L 94.948267 66.724484 
L 95.000992 66.768919 
L 95.053716 66.696032 
L 95.10644 66.630062 
L 95.159165 66.837636 
L 95.211889 66.747116 
L 95.264614 66.647325 
L 95.317338 66.913731 
L 95.370063 66.841806 
L 95.633685 66.418589 
L 95.791858 67.397042 
L 95.844582 67.405849 
L 96.266378 69.706877 
L 96.319102 69.74584 
L 96.371826 69.6562 
L 96.424551 69.560311 
L 96.688173 70.586199 
L 96.740897 70.472588 
L 96.793622 70.578291 
L 96.846346 70.581367 
L 97.00452 71.320207 
L 97.109968 72.021208 
L 97.215417 71.876237 
L 97.37359 71.672801 
L 97.479039 72.103433 
L 97.531764 72.035136 
L 97.584488 71.99428 
L 98.006283 73.725018 
L 98.111732 73.588909 
L 98.269906 73.316123 
L 98.32263 73.488773 
L 98.375354 73.408233 
L 98.480803 73.251556 
L 98.533528 73.459368 
L 98.586252 73.38811 
L 98.638977 73.328931 
L 98.691701 73.387717 
L 98.744425 73.489495 
L 98.79715 73.400246 
L 98.849874 73.286345 
L 99.060772 74.251197 
L 99.218945 74.484409 
L 99.27167 74.420189 
L 99.482567 75.874925 
L 99.535292 75.778413 
L 99.798914 75.440407 
L 99.957087 75.788457 
L 100.378882 75.263456 
L 100.58978 75.492281 
L 100.642504 75.917507 
L 100.695229 75.828788 
L 100.747953 75.768221 
L 100.853402 76.396695 
L 100.906127 76.347168 
L 100.958851 76.281318 
L 101.117024 77.239627 
L 101.169749 77.201163 
L 101.696993 78.152848 
L 101.749717 78.06248 
L 101.802442 77.990792 
L 101.855166 78.050809 
L 101.907891 78.100667 
L 102.066064 78.992375 
L 102.118788 78.911507 
L 102.171513 78.795779 
L 102.276961 79.20397 
L 102.329686 79.10669 
L 102.435135 79.032692 
L 102.593308 79.478168 
L 102.698757 79.384887 
L 102.751481 79.566049 
L 102.804206 79.487766 
L 103.015103 79.105353 
L 103.067828 79.155333 
L 103.173277 79.754918 
L 103.226001 79.675842 
L 103.33145 79.523426 
L 103.436899 79.844145 
L 103.489623 79.773783 
L 103.542348 79.674345 
L 103.595072 79.762299 
L 103.647796 79.715155 
L 103.700521 79.97661 
L 103.753245 79.943255 
L 103.911418 79.81838 
L 104.069592 80.282317 
L 104.227765 80.238127 
L 104.280489 80.181684 
L 104.385938 80.564663 
L 104.438663 80.482248 
L 104.544111 80.359986 
L 104.596836 80.6257 
L 104.64956 80.579008 
L 104.755009 80.409151 
L 104.807734 80.588736 
L 104.860458 80.484918 
L 104.913182 80.419677 
L 105.071356 80.966285 
L 105.12408 80.932725 
L 105.229529 80.814856 
L 105.387702 81.000357 
L 105.704049 80.826454 
L 105.862222 80.944938 
L 105.914946 80.855843 
L 106.125844 81.345816 
L 106.336742 81.099777 
L 106.494915 80.883262 
L 106.600364 81.098377 
L 106.653088 80.993067 
L 106.811262 80.699545 
L 106.863986 80.911782 
L 106.91671 80.824572 
L 107.074884 80.556023 
L 107.180332 80.84043 
L 107.233057 80.776571 
L 107.443955 80.473102 
L 107.602128 81.002909 
L 107.707577 80.786318 
L 107.760301 80.901651 
L 107.86575 80.845768 
L 108.129372 80.578516 
L 108.182096 80.502936 
L 108.34027 80.64553 
L 108.445719 80.912423 
L 108.551167 80.808755 
L 109.763829 79.238092 
L 109.922002 79.678548 
L 110.027451 79.818935 
L 110.238349 79.520622 
L 110.291073 79.777663 
L 110.343798 79.758866 
L 110.396522 79.679485 
L 110.501971 79.970593 
L 110.554695 79.934829 
L 110.60742 79.877709 
L 110.660144 80.071196 
L 110.712869 79.992074 
L 110.923766 79.955363 
L 111.292837 79.420208 
L 111.345562 79.553507 
L 111.398286 79.489499 
L 111.609184 79.338962 
L 111.661908 79.525549 
L 111.714633 79.448488 
L 112.083703 79.145845 
L 112.241877 79.155511 
L 112.40005 79.109049 
L 112.610948 79.769808 
L 112.663672 79.692014 
L 112.927294 79.508998 
L 112.980019 79.585508 
L 113.032743 79.502903 
L 113.138192 79.376599 
L 113.190916 79.45922 
L 113.243641 79.542716 
L 113.296365 79.469174 
L 113.71816 79.006302 
L 113.770885 79.096432 
L 113.823609 79.038507 
L 113.929058 78.937888 
L 114.139956 78.743394 
L 114.19268 78.885111 
L 114.245405 78.827073 
L 114.350854 78.711456 
L 114.403578 78.764207 
L 114.456302 78.836574 
L 114.509027 78.789142 
L 114.614476 78.667643 
L 114.772649 78.953958 
L 115.299893 78.610341 
L 115.352617 78.654872 
L 115.405342 78.584577 
L 115.458066 78.529818 
L 115.510791 78.620417 
L 115.932586 78.99151 
L 116.143484 78.828347 
L 116.407106 78.634181 
L 116.512555 78.643211 
L 116.723452 78.459205 
L 116.776177 78.55556 
L 116.93435 78.540777 
L 117.250697 78.286424 
L 117.356145 78.524215 
L 117.619768 78.289012 
L 117.672492 78.372487 
L 117.725216 78.308732 
L 117.936114 78.092147 
L 118.252461 78.721151 
L 118.357909 78.583406 
L 118.410634 78.669985 
L 118.568807 78.833773 
L 118.832429 78.631043 
L 118.990602 78.764522 
L 119.043327 78.715281 
L 119.148776 78.680929 
L 119.306949 78.520304 
L 119.886918 77.93605 
L 120.045091 78.081848 
L 120.097815 78.046278 
L 120.15054 78.213853 
L 120.203264 78.150397 
L 120.361437 77.984951 
L 120.466886 78.309855 
L 120.519611 78.277346 
L 120.677784 78.23168 
L 120.783233 78.311126 
L 120.835957 78.255159 
L 120.941406 78.138003 
L 120.99413 78.221252 
L 121.099579 78.173049 
L 121.732272 77.714477 
L 121.784997 77.64947 
L 121.94317 77.735064 
L 122.101343 77.671772 
L 122.259516 77.700354 
L 122.312241 77.625325 
L 122.364965 77.795525 
L 122.41769 77.74131 
L 122.470414 77.687233 
L 122.681312 78.084743 
L 122.786761 78.108712 
L 122.944934 78.09596 
L 123.103107 78.528441 
L 123.155832 78.467933 
L 123.366729 78.281156 
L 123.577627 78.319645 
L 123.7358 78.293663 
L 124.104871 78.367983 
L 124.368493 78.205874 
L 124.421218 78.176187 
L 124.473942 78.310461 
L 124.526666 78.249351 
L 124.843013 78.167837 
L 126.108399 77.278707 
L 126.213848 77.587878 
L 126.266572 77.53327 
L 126.372021 77.474021 
L 126.47747 77.583095 
L 126.530194 77.530452 
L 127.162887 77.826251 
L 127.373785 77.613979 
L 127.479234 77.717292 
L 128.006478 77.383126 
L 128.059203 77.484753 
L 128.111927 77.444185 
L 128.375549 77.21891 
L 128.428273 77.384497 
L 128.480998 77.334111 
L 129.008242 76.962143 
L 129.271864 77.074533 
L 129.482762 77.003682 
L 130.168179 76.850086 
L 130.431801 77.107979 
L 130.53725 77.1256 
L 130.695424 77.269147 
L 130.748148 77.217161 
L 130.853597 77.394044 
L 130.906321 77.358646 
L 131.117219 77.200797 
L 131.169943 77.339284 
L 131.222668 77.30639 
L 131.539014 77.118939 
L 131.644463 77.171236 
L 132.013534 77.014912 
L 132.066258 77.144783 
L 132.118983 77.093546 
L 132.277156 77.015719 
L 132.435329 77.034886 
L 132.593503 77.009216 
L 132.646227 77.088289 
L 132.698951 77.046345 
L 133.068022 76.886077 
L 133.120747 76.8539 
L 133.226196 76.944403 
L 133.542542 76.822657 
L 134.017062 76.768525 
L 134.175235 76.839249 
L 134.438857 76.738289 
L 134.597031 76.802988 
L 135.54607 76.451276 
L 135.704243 76.568627 
L 136.547834 76.271208 
L 136.600558 76.454376 
L 136.653283 76.42307 
L 136.864181 76.258662 
L 136.916905 76.403337 
L 136.969629 76.365622 
L 137.3387 76.196796 
L 137.444149 76.189433 
L 137.496874 76.302701 
L 137.549598 76.26937 
L 138.024118 76.097331 
L 138.076842 76.171559 
L 138.129567 76.133463 
L 138.182291 76.094149 
L 138.235015 76.256842 
L 138.28774 76.213611 
L 138.604086 76.012854 
L 138.709535 76.156889 
L 138.76226 76.123032 
L 138.973157 76.228916 
L 139.289504 76.070354 
L 139.447677 76.152811 
L 139.711299 76.033412 
L 139.816748 76.103478 
L 140.238543 75.92727 
L 140.502166 76.019495 
L 140.765788 75.98799 
L 140.976685 75.988867 
L 141.293032 75.898216 
L 141.398481 76.042049 
L 141.662103 76.215136 
L 142.611142 75.705872 
L 142.769316 75.854874 
L 143.349284 75.49177 
L 143.454733 75.553374 
L 143.718355 75.48976 
L 143.876528 75.538696 
L 144.403773 75.502131 
L 203.455122 75.609701 
L 203.718744 75.64196 
L 213.789108 75.735207 
L 214.052731 75.76207 
L 221.012354 75.867835 
L 221.3287 75.889306 
L 228.815568 75.978372 
L 229.026466 76.015909 
L 234.56253 76.111885 
L 234.826152 76.138674 
L 245.054689 76.24285 
L 245.476485 76.258912 
L 246.794595 76.355253 
L 247.058217 76.387355 
L 250.485304 76.494324 
L 250.801651 76.515711 
L 258.973936 76.605985 
L 259.290282 76.627355 
L 265.089969 76.73179 
L 265.353591 76.758483 
L 271.522348 76.869358 
L 271.944143 76.884168 
L 280.485499 76.987831 
L 280.907294 77.003823 
L 288.235989 77.102076 
L 288.552335 77.123383 
L 292.823013 77.226879 
L 293.13936 77.24817 
L 298.464526 77.350976 
L 298.833597 77.382888 
L 304.686008 77.489222 
L 304.94963 77.52111 
L 309.800276 77.627365 
L 310.116623 77.648609 
L 325.090358 77.749931 
L 325.670326 77.760545 
L 335.213446 77.850738 
L 335.529793 77.871953 
L 337.744218 77.878906 
L 345.125637 77.98596 
L 345.441984 78.007156 
L 351.24167 78.110651 
L 351.874363 78.131831 
L 362.208349 78.240304 
L 362.524696 78.261465 
L 372.542335 78.357397 
L 373.069579 78.409633 
L 383.245392 78.517219 
L 383.509015 78.548897 
L 393.157583 78.657583 
L 393.737552 78.668133 
L 407.973145 78.774543 
L 408.39494 78.790351 
L 419.308895 78.868738 
L 419.308895 78.868738 
" clip-path="url(#pf202a7102d)" style="fill: none; stroke: #1f77b4; stroke-width: 1.8; stroke-linecap: square"/>
   </g>
   <g id="line2d_24">
    <path d="M 71.327727 78.055245 
L 71.433176 48.302488 
L 71.644074 97.371826 
L 71.696798 90.765099 
L 71.802247 82.688109 
L 71.907696 95.04991 
L 72.013145 90.913729 
L 72.065869 87.299085 
L 72.171318 97.041397 
L 72.276767 93.911286 
L 72.329491 94.025465 
L 72.487664 98.610479 
L 72.593113 100.412904 
L 72.751287 94.707594 
L 72.90946 98.403892 
L 73.067633 96.172144 
L 73.38398 90.639011 
L 73.436704 92.583955 
L 73.489428 91.160625 
L 73.542153 90.883795 
L 73.647602 88.534701 
L 73.805775 94.096589 
L 73.858499 92.796107 
L 74.174846 88.627781 
L 74.438468 86.450474 
L 74.491192 87.356527 
L 74.543917 86.271094 
L 74.649366 89.946834 
L 74.70209 89.303112 
L 74.860263 87.567091 
L 74.912988 88.758074 
L 74.965712 88.196098 
L 75.018437 88.135192 
L 75.071161 87.288596 
L 75.123885 87.984363 
L 75.17661 87.921334 
L 75.492956 84.033909 
L 75.65113 87.52431 
L 75.703854 86.812729 
L 75.914752 84.534924 
L 75.967476 85.604779 
L 76.072925 85.490697 
L 76.125649 86.097669 
L 76.178374 85.560814 
L 76.231098 85.512828 
L 76.389272 85.060301 
L 76.49472 85.876367 
L 76.96924 83.081988 
L 77.021965 82.988279 
L 77.074689 82.547336 
L 77.127413 82.592635 
L 77.180138 82.672224 
L 77.232862 82.359904 
L 77.285587 82.494072 
L 77.338311 82.531966 
L 77.496484 83.461157 
L 77.549209 83.024462 
L 77.601933 83.380584 
L 77.654658 83.387824 
L 77.707382 82.998305 
L 77.760106 83.615372 
L 77.812831 83.354524 
L 77.971004 82.296349 
L 78.023729 82.319763 
L 78.445524 80.334332 
L 78.550973 80.604602 
L 78.656422 80.637982 
L 78.709146 80.3526 
L 78.867319 80.937538 
L 78.972768 80.594442 
L 79.025493 80.717375 
L 79.130941 80.094313 
L 79.341839 81.294521 
L 79.394563 81.467302 
L 79.605461 80.323931 
L 79.763634 81.248012 
L 79.869083 80.658019 
L 79.921808 80.953017 
L 80.132705 83.15807 
L 80.18543 82.809381 
L 80.396327 81.871033 
L 80.449052 81.835573 
L 80.501776 82.040508 
L 80.818123 80.940968 
L 80.870847 80.722946 
L 80.923572 80.749086 
L 80.976296 80.987399 
L 81.02902 80.795035 
L 81.081745 80.862018 
L 81.239918 80.543144 
L 81.450816 81.404993 
L 81.556265 81.653484 
L 81.872611 80.648284 
L 82.083509 81.238342 
L 82.136233 81.231535 
L 82.347131 80.349247 
L 82.505304 80.844456 
L 82.610753 80.546061 
L 82.768926 80.821988 
L 83.032548 79.958395 
L 83.190722 80.520164 
L 83.243446 80.485597 
L 83.401619 80.604842 
L 83.559793 81.375258 
L 83.823415 80.396171 
L 84.034312 81.180281 
L 84.087037 81.177698 
L 84.297934 80.604389 
L 84.350659 81.226514 
L 84.403383 81.031034 
L 84.456108 80.859274 
L 84.508832 80.99122 
L 84.561557 80.93135 
L 84.71973 81.139653 
L 84.772454 80.963753 
L 84.877903 81.221473 
L 85.036076 81.01131 
L 85.088801 81.134233 
L 85.141525 80.981385 
L 85.246974 81.009756 
L 85.405147 80.882544 
L 85.457872 80.927852 
L 85.510596 80.769478 
L 85.563321 80.87389 
L 85.668769 81.628255 
L 85.774218 81.461714 
L 86.03784 81.447306 
L 86.248738 81.079184 
L 86.301462 81.043379 
L 86.406911 81.475789 
L 86.459636 81.314136 
L 86.617809 80.850005 
L 86.670533 80.898428 
L 86.775982 81.171423 
L 86.828707 80.979621 
L 86.98688 81.591922 
L 87.092329 82.049219 
L 87.197778 81.961269 
L 87.4614 81.370195 
L 87.514124 81.603287 
L 87.566848 81.449842 
L 87.777746 81.053716 
L 87.883195 81.24371 
L 88.041368 80.973931 
L 88.094093 81.03965 
L 88.146817 80.88676 
L 88.199541 81.224156 
L 88.252266 81.041777 
L 88.463164 80.671039 
L 88.515888 80.706319 
L 88.937683 79.873785 
L 89.095857 80.1346 
L 89.306754 79.809864 
L 89.359479 80.090304 
L 89.412203 79.974658 
L 89.464928 79.974704 
L 89.517652 79.836766 
L 89.570376 80.067804 
L 89.623101 79.905328 
L 89.675825 79.784239 
L 89.781274 80.345106 
L 89.833998 80.183512 
L 89.886723 80.195884 
L 90.255794 79.378991 
L 90.361243 79.621973 
L 90.413967 79.490051 
L 90.624865 79.18096 
L 90.677589 79.317459 
L 90.730314 79.186837 
L 90.835762 78.987924 
L 90.888487 79.302822 
L 90.941211 79.175281 
L 91.152109 78.700037 
L 91.204833 78.961202 
L 91.257558 79.227025 
L 91.310282 79.119436 
L 91.468455 78.948799 
L 91.573904 79.4388 
L 91.679353 79.347989 
L 91.784802 79.295047 
L 91.890251 79.412894 
L 91.9957 79.219296 
L 92.312046 79.936841 
L 92.364771 79.808209 
L 92.417495 79.868297 
L 92.522944 80.039446 
L 92.575668 79.951575 
L 92.681117 79.690016 
L 92.786566 80.024066 
L 92.892015 79.939513 
L 92.944739 80.028663 
L 92.997464 79.911823 
L 93.208361 79.644575 
L 93.419259 79.627171 
L 93.471983 79.838635 
L 93.524708 79.712596 
L 93.893779 79.081321 
L 93.946503 78.952341 
L 93.999228 79.088128 
L 94.104676 79.268153 
L 94.157401 79.150409 
L 94.210125 79.54381 
L 94.26285 79.416877 
L 94.315574 79.338663 
L 94.368299 79.762466 
L 94.421023 79.650888 
L 94.579196 79.334297 
L 94.631921 79.594755 
L 94.684645 79.557137 
L 94.948267 79.205054 
L 95.053716 78.977682 
L 95.159165 79.365179 
L 95.211889 79.262618 
L 95.264614 79.404408 
L 95.317338 79.296518 
L 95.370063 79.19201 
L 95.422787 79.237023 
L 95.475511 79.314862 
L 95.528236 79.215313 
L 95.739133 79.004307 
L 95.844582 78.853424 
L 95.897307 78.739823 
L 96.002756 78.970239 
L 96.160929 78.849394 
L 96.477275 78.496163 
L 96.688173 78.752101 
L 97.057244 78.152129 
L 97.109968 78.331954 
L 97.215417 78.647585 
L 97.268142 78.628995 
L 97.426315 78.347935 
L 97.479039 78.418327 
L 97.584488 78.327503 
L 97.742661 78.588014 
L 97.953559 78.226768 
L 98.006283 78.286889 
L 98.111732 78.380912 
L 98.269906 78.144679 
L 98.375354 78.239989 
L 98.638977 77.865607 
L 98.849874 78.30587 
L 98.902599 78.332691 
L 98.955323 78.232157 
L 99.008047 78.312228 
L 99.113496 78.507049 
L 99.482567 78.067439 
L 99.535292 78.192703 
L 99.588016 78.100705 
L 99.693465 78.074766 
L 99.851638 77.924797 
L 100.009811 78.150206 
L 100.062536 78.052934 
L 100.378882 77.725161 
L 100.58978 77.515042 
L 100.800678 77.56288 
L 101.0643 77.22623 
L 101.117024 77.263762 
L 101.327922 77.149909 
L 101.380646 77.091698 
L 101.433371 77.153539 
L 101.53882 77.081585 
L 101.591544 77.004687 
L 101.644268 77.115738 
L 101.749717 77.014997 
L 102.013339 76.720166 
L 102.066064 76.838493 
L 102.118788 76.758205 
L 102.487859 76.771976 
L 102.593308 76.68156 
L 102.751481 76.561427 
L 102.804206 76.616275 
L 102.85693 76.536331 
L 103.067828 76.513815 
L 103.226001 76.302365 
L 103.278725 76.361818 
L 103.436899 76.704837 
L 103.700521 76.480541 
L 103.80597 76.416334 
L 103.964143 76.431152 
L 104.016867 76.537694 
L 104.069592 76.456203 
L 104.438663 76.449498 
L 104.702285 76.323133 
L 104.755009 76.405543 
L 104.807734 76.330906 
L 105.018631 76.124563 
L 105.071356 76.195091 
L 105.12408 76.147629 
L 105.387702 75.970447 
L 105.440427 76.083243 
L 105.493151 76.016247 
L 105.545875 75.945817 
L 105.5986 76.20841 
L 105.651324 76.130599 
L 105.756773 76.009437 
L 105.809498 76.28115 
L 105.862222 76.203726 
L 106.231293 76.181686 
L 106.284017 76.108968 
L 106.336742 76.299055 
L 106.389466 76.242488 
L 106.705813 76.189487 
L 106.863986 76.146245 
L 107.233057 75.842299 
L 107.549403 76.207741 
L 107.707577 76.013695 
L 107.760301 76.116294 
L 108.498443 75.52645 
L 108.709341 75.550893 
L 108.920238 75.400578 
L 109.078412 75.370018 
L 109.447482 75.089262 
L 109.605656 75.057217 
L 109.869278 74.828687 
L 109.922002 74.920242 
L 109.974727 74.866838 
L 110.554695 74.350596 
L 110.818317 74.452078 
L 110.976491 74.416017 
L 111.029215 74.479268 
L 111.081939 74.431737 
L 111.292837 74.347616 
L 111.503735 74.443761 
L 111.556459 74.380465 
L 111.609184 74.472418 
L 111.661908 74.436732 
L 111.714633 74.580216 
L 111.767357 74.525954 
L 111.872806 74.465064 
L 112.083703 74.313084 
L 112.347326 74.418705 
L 112.452774 74.31173 
L 112.505499 74.380591 
L 112.769121 74.456415 
L 113.401814 74.097945 
L 113.559987 74.079908 
L 113.665436 73.999871 
L 113.71816 74.092608 
L 113.770885 74.043552 
L 113.876334 74.052815 
L 114.034507 74.070093 
L 114.403578 73.787326 
L 114.561751 73.832773 
L 114.983547 73.563326 
L 115.299893 73.498949 
L 115.668964 73.268656 
L 115.774413 73.236542 
L 116.196208 73.02138 
L 116.301657 72.987669 
L 116.512555 72.838116 
L 116.670728 73.020233 
L 116.828901 72.945073 
L 116.93435 72.932885 
L 117.514319 72.632189 
L 117.672492 72.655871 
L 117.936114 72.695183 
L 118.305185 72.755082 
L 118.516083 72.934129 
L 119.359673 72.58101 
L 119.465122 72.606094 
L 119.834193 72.51109 
L 120.045091 72.694391 
L 121.205028 72.353831 
L 121.363201 72.376574 
L 121.679548 72.352913 
L 122.048619 72.606262 
L 122.259516 72.602744 
L 122.41769 72.606644 
L 122.575863 72.600079 
L 122.944934 72.716976 
L 123.208556 72.726586 
L 123.577627 72.662979 
L 123.7358 72.655819 
L 123.999422 72.641395 
L 124.104871 72.831475 
L 124.157596 72.810847 
L 124.473942 72.750912 
L 124.632115 72.784724 
L 129.166415 72.204395 
L 226.442969 72.31064 
L 227.497458 72.31623 
L 246.583697 72.426414 
L 247.69091 72.432 
L 256.126817 72.535884 
L 256.864959 72.580536 
L 268.042536 72.683211 
L 268.622505 72.694365 
L 274.949435 72.794732 
L 275.318506 72.810894 
L 282.330854 72.901682 
L 282.594476 72.951781 
L 292.981186 73.041343 
L 293.244809 73.069153 
L 310.749316 73.167501 
L 311.065662 73.189729 
L 316.127207 73.289726 
L 316.338104 73.323047 
L 325.986673 73.430593 
L 327.410232 73.469427 
L 330.995493 73.573096 
L 331.417288 73.589727 
L 348.078205 73.690912 
L 348.5 73.713066 
L 352.243434 73.821521 
L 353.350647 73.831451 
L 359.150333 73.933718 
L 359.730301 73.944779 
L 362.57742 74.048683 
L 363.157389 74.059737 
L 365.951783 74.107754 
L 366.584476 74.129853 
L 372.436886 74.239162 
L 374.229517 74.316442 
L 395.793804 74.420187 
L 396.2156 74.436728 
L 408.342216 74.525809 
L 408.658563 74.547848 
L 421.576045 74.656845 
L 421.892392 74.678868 
L 435.917087 74.788051 
L 437.0243 74.793552 
L 440.662285 74.89513 
L 441.242254 74.906125 
L 448.676397 75.008209 
L 448.676397 75.008209 
" clip-path="url(#pf202a7102d)" style="fill: none; stroke: #ff7f0e; stroke-width: 1.8; stroke-linecap: square"/>
   </g>
   <g id="line2d_25">
    <path d="M 71.327727 113.421731 
L 71.380452 117.297583 
L 71.433176 87.989226 
L 71.485901 118.558363 
L 71.538625 94.856985 
L 71.644074 95.751749 
L 72.065869 67.508466 
L 72.118594 66.060325 
L 72.224042 77.539104 
L 72.276767 74.945855 
L 72.329491 73.294321 
L 72.382216 78.623718 
L 72.43494 75.83651 
L 72.593113 70.347613 
L 72.645838 73.723031 
L 72.698562 72.658552 
L 72.804011 70.353939 
L 72.856735 71.545338 
L 72.90946 73.987589 
L 72.962184 72.975001 
L 73.014909 71.761877 
L 73.225806 76.468392 
L 73.38398 73.87959 
L 73.436704 74.400206 
L 73.594877 77.992713 
L 73.753051 74.866778 
L 73.805775 75.290677 
L 73.858499 76.81588 
L 73.911224 76.537517 
L 74.174846 73.350234 
L 74.22757 72.590163 
L 74.280295 73.762229 
L 74.333019 72.977868 
L 74.438468 71.384831 
L 74.491192 73.927457 
L 74.543917 73.253655 
L 74.596641 73.256853 
L 74.70209 73.737114 
L 74.807539 72.549955 
L 74.860263 74.271639 
L 74.912988 73.722139 
L 74.965712 73.719849 
L 75.018437 74.325306 
L 75.17661 72.975316 
L 75.387508 75.587704 
L 75.492956 74.525077 
L 75.545681 74.791139 
L 75.65113 76.041161 
L 75.703854 75.719567 
L 75.756579 75.391368 
L 75.809303 76.300663 
L 75.862027 75.78826 
L 75.914752 75.327672 
L 75.967476 75.809195 
L 76.072925 75.809225 
L 76.178374 74.900224 
L 76.231098 75.442284 
L 76.283823 75.135445 
L 76.547445 76.403405 
L 76.705618 77.916998 
L 76.758342 77.781999 
L 76.811067 77.565902 
L 77.021965 78.993845 
L 77.074689 78.502597 
L 77.338311 81.070046 
L 77.391036 81.050998 
L 77.707382 79.190243 
L 77.865555 78.20201 
L 77.91828 78.368629 
L 77.971004 78.248343 
L 78.023729 78.808328 
L 78.076453 78.651357 
L 78.234626 77.832871 
L 78.340075 80.524522 
L 78.392799 80.419845 
L 78.445524 80.051537 
L 78.498248 80.594738 
L 78.550973 80.519401 
L 78.603697 80.272968 
L 78.656422 80.798368 
L 78.709146 80.569269 
L 78.76187 80.628279 
L 78.814595 80.415797 
L 78.972768 80.957186 
L 79.078217 80.343017 
L 79.183666 80.457247 
L 79.23639 81.192977 
L 79.289115 80.885922 
L 79.341839 80.542159 
L 79.394563 81.522446 
L 79.447288 81.260455 
L 79.500012 81.300896 
L 79.552737 81.703542 
L 79.605461 81.521018 
L 79.71091 80.952348 
L 79.763634 81.234929 
L 79.816359 81.327992 
L 80.079981 80.250236 
L 80.132705 80.464313 
L 80.18543 81.571465 
L 80.238154 81.332581 
L 80.501776 79.866175 
L 80.65995 80.846562 
L 80.712674 80.69391 
L 80.818123 80.118775 
L 80.923572 80.766527 
L 81.187194 79.807052 
L 81.292643 80.718469 
L 81.345367 80.482741 
L 81.450816 79.992786 
L 81.50354 80.088952 
L 81.608989 81.043322 
L 81.661713 80.758879 
L 81.714438 80.709927 
L 81.925336 81.475162 
L 81.97806 81.177182 
L 82.030784 81.330703 
L 82.083509 81.566212 
L 82.188958 81.080441 
L 82.399855 82.330306 
L 82.45258 82.082415 
L 82.558029 81.787525 
L 82.610753 82.469379 
L 82.663477 82.348378 
L 82.821651 82.079533 
L 82.874375 82.040634 
L 83.085273 81.536612 
L 83.29617 81.759512 
L 83.348895 82.257079 
L 83.401619 82.018782 
L 83.559793 81.853368 
L 83.612517 82.040409 
L 83.665241 82.014185 
L 83.717966 81.984316 
L 83.823415 82.371919 
L 83.876139 82.696522 
L 83.928864 82.548882 
L 84.139761 81.96047 
L 84.297934 82.487175 
L 84.350659 82.280204 
L 84.508832 81.670003 
L 84.614281 82.785235 
L 84.667005 82.664483 
L 84.71973 82.70185 
L 84.930627 82.219172 
L 85.036076 82.936777 
L 85.352423 82.250454 
L 85.457872 82.28278 
L 85.616045 83.57465 
L 85.774218 83.09766 
L 85.826943 83.211078 
L 85.879667 83.113842 
L 85.985116 82.705663 
L 86.090565 83.415459 
L 86.143289 83.215307 
L 86.301462 83.450534 
L 86.406911 83.110948 
L 86.459636 83.226067 
L 86.617809 83.495997 
L 86.723258 83.378254 
L 86.934155 83.742854 
L 86.98688 83.717368 
L 87.197778 83.335668 
L 87.250502 83.521721 
L 87.303226 83.387403 
L 87.355951 83.38257 
L 87.408675 83.262743 
L 87.514124 83.409499 
L 87.830471 82.51282 
L 87.883195 82.627656 
L 88.252266 81.603946 
L 88.30499 81.93736 
L 88.357715 81.800993 
L 88.410439 81.813128 
L 88.515888 81.498226 
L 88.568612 81.596958 
L 88.77951 81.295662 
L 88.832235 81.332758 
L 88.884959 81.599592 
L 88.937683 81.473517 
L 89.148581 80.921365 
L 89.201305 81.095721 
L 89.25403 80.903137 
L 89.359479 80.716636 
L 89.517652 80.963232 
L 89.570376 81.013269 
L 89.623101 80.888826 
L 89.675825 80.974673 
L 89.781274 80.807925 
L 89.833998 81.118045 
L 89.886723 80.977689 
L 90.203069 81.405602 
L 90.308518 81.148992 
L 90.361243 81.277784 
L 90.413967 81.249882 
L 90.624865 81.973967 
L 90.677589 81.828534 
L 90.993936 81.228716 
L 91.468455 80.567175 
L 91.784802 80.113807 
L 91.837526 80.246233 
L 91.890251 80.135767 
L 92.101149 79.800817 
L 92.417495 79.447972 
L 92.575668 80.255146 
L 92.892015 79.72371 
L 92.944739 79.874231 
L 93.102912 80.274322 
L 93.155637 80.150227 
L 93.208361 80.381435 
L 93.261086 80.294002 
L 93.31381 80.194233 
L 93.366535 80.509078 
L 93.419259 80.425609 
L 93.735606 80.01316 
L 93.78833 80.036043 
L 93.893779 80.336104 
L 93.946503 80.244267 
L 94.104676 80.119303 
L 94.26285 80.181091 
L 94.421023 80.091177 
L 94.579196 79.840885 
L 95.000992 79.292813 
L 95.10644 79.220331 
L 95.211889 79.122891 
L 95.317338 79.403794 
L 95.370063 79.328679 
L 95.422787 79.401297 
L 95.475511 79.321631 
L 95.633685 79.263333 
L 95.739133 79.101288 
L 95.791858 79.259867 
L 95.844582 79.157658 
L 95.897307 79.082899 
L 95.950031 79.208372 
L 96.002756 79.100557 
L 96.108204 79.254669 
L 96.160929 79.133394 
L 96.371826 78.812957 
L 96.635449 79.10798 
L 96.951795 78.511234 
L 97.162693 79.107765 
L 97.426315 78.686735 
L 97.953559 79.536623 
L 98.006283 79.457117 
L 98.217181 79.257009 
L 98.428079 79.147853 
L 98.849874 78.465639 
L 98.902599 78.710915 
L 98.955323 78.689948 
L 99.113496 78.506667 
L 99.166221 78.780514 
L 99.218945 78.68898 
L 99.27167 78.600584 
L 99.429843 79.059419 
L 99.482567 78.972416 
L 99.693465 78.843787 
L 99.746189 79.102986 
L 99.798914 79.014104 
L 100.220709 78.519264 
L 100.58978 78.640216 
L 100.853402 78.430679 
L 100.906127 78.365779 
L 100.958851 78.416203 
L 101.433371 78.496787 
L 101.486095 78.425327 
L 101.53882 78.530418 
L 101.696993 79.181335 
L 101.855166 78.984806 
L 102.013339 78.882204 
L 102.118788 78.832872 
L 102.38241 78.54956 
L 102.698757 78.913776 
L 102.751481 78.840957 
L 103.120552 78.404177 
L 103.173277 78.510623 
L 103.226001 78.43232 
L 103.33145 78.317188 
L 103.436899 78.475017 
L 103.489623 78.386674 
L 103.542348 78.485262 
L 103.858694 78.250906 
L 104.069592 78.788244 
L 104.755009 78.238645 
L 104.807734 78.297532 
L 104.860458 78.209767 
L 105.12408 77.992255 
L 105.176805 78.191564 
L 105.229529 78.120675 
L 105.440427 77.798456 
L 105.493151 78.020798 
L 105.545875 77.959818 
L 105.862222 77.795056 
L 106.020395 77.785617 
L 106.07312 77.945799 
L 106.125844 77.902177 
L 106.178568 77.837996 
L 106.231293 77.923704 
L 106.284017 78.02659 
L 106.336742 77.941935 
L 106.442191 77.805889 
L 106.547639 77.950546 
L 106.758537 77.71816 
L 106.811262 77.842234 
L 106.863986 77.785764 
L 107.338506 77.281608 
L 107.443955 77.488906 
L 107.496679 77.428631 
L 107.707577 77.18 
L 107.760301 77.305758 
L 108.182096 76.968295 
L 108.287545 77.285283 
L 108.34027 77.221579 
L 108.603892 76.89996 
L 108.709341 77.045915 
L 108.762065 76.998215 
L 108.920238 76.81735 
L 109.236585 76.597195 
L 110.554695 75.40749 
L 110.60742 75.464053 
L 110.660144 75.403867 
L 110.871042 75.261758 
L 110.923766 75.354992 
L 110.976491 75.32159 
L 111.872806 74.955698 
L 111.92553 75.05923 
L 111.978255 74.998901 
L 112.083703 74.894415 
L 112.189152 75.136228 
L 112.241877 75.093561 
L 112.769121 74.717664 
L 113.190916 74.932644 
L 113.243641 75.125103 
L 113.296365 75.094578 
L 113.559987 74.950255 
L 114.719924 73.979397 
L 114.983547 74.257117 
L 115.247169 74.017828 
L 115.405342 74.226958 
L 115.721688 74.067595 
L 116.828901 73.334658 
L 116.93435 73.323899 
L 118.990602 72.265731 
L 119.096051 72.346461 
L 119.834193 71.951821 
L 120.15054 71.859242 
L 120.308713 71.930742 
L 120.941406 71.593399 
L 120.99413 71.680185 
L 121.046855 71.647599 
L 121.257752 71.515856 
L 121.363201 71.784621 
L 121.415926 71.749481 
L 122.523139 71.520732 
L 122.628587 71.570818 
L 123.366729 71.243237 
L 124.737564 70.82333 
L 124.895737 70.83216 
L 125.212084 70.734255 
L 126.161123 70.532224 
L 126.319297 70.534502 
L 127.004714 70.375227 
L 127.215612 70.512194 
L 128.850069 70.146108 
L 129.060967 70.1745 
L 129.640935 70.021674 
L 130.906321 69.828605 
L 131.064494 69.867367 
L 133.015298 69.629876 
L 133.173471 69.681417 
L 142.452969 68.896642 
L 145.985505 68.71515 
L 150.045285 68.579382 
L 188.165041 68.662841 
L 188.375938 68.698959 
L 189.377702 68.704978 
L 206.88221 68.806379 
L 207.145832 68.836449 
L 218.639755 68.907682 
L 218.850653 68.949745 
L 221.961393 69.021833 
L 222.172291 69.063337 
L 231.82086 69.170856 
L 232.084482 69.20086 
L 242.365744 69.300686 
L 242.629366 69.330667 
L 248.270879 69.438562 
L 248.587225 69.510457 
L 254.703258 69.611739 
L 254.914156 69.646564 
L 261.926503 69.742291 
L 262.190125 69.790137 
L 267.778914 69.893373 
L 267.989812 69.9352 
L 273.262254 70.033449 
L 273.525876 70.063301 
L 278.1129 70.173394 
L 278.376522 70.203221 
L 288.60506 70.304485 
L 288.921406 70.334285 
L 292.401218 70.432113 
L 292.612115 70.465622 
L 295.195612 70.554902 
L 295.511959 70.578703 
L 301.153471 70.662917 
L 301.417094 70.692646 
L 312.436497 70.803339 
L 312.700119 70.833044 
L 315.758136 70.93658 
L 316.074482 70.960325 
L 323.614074 71.070262 
L 324.035869 71.111781 
L 325.406704 71.206649 
L 325.775775 71.224431 
L 337.058801 71.330786 
L 338.587809 71.395925 
L 349.44904 71.495312 
L 349.976284 71.507142 
L 356.303214 71.617212 
L 356.725009 71.658585 
L 365.635436 71.750259 
L 365.899058 71.785694 
L 372.911406 71.885815 
L 373.175028 71.915313 
L 387.305173 72.014996 
L 387.674244 72.032683 
L 396.584671 72.133577 
L 396.848293 72.163032 
L 408.553114 72.273956 
L 409.080358 72.283989 
L 416.356328 72.385233 
L 416.672674 72.437566 
L 420.257935 72.520484 
L 420.521557 72.549857 
L 425.161306 72.644436 
L 425.530377 72.660295 
L 429.379259 72.767684 
L 429.906504 72.779414 
L 435.864363 72.885535 
L 436.233434 72.903117 
L 448.992743 73.003813 
L 449.572712 73.026052 
L 459.695801 73.134874 
L 460.275769 73.152422 
L 466.866322 73.254128 
L 467.44629 73.277507 
L 472.244212 73.374467 
L 472.666008 73.40773 
L 475.934922 73.41941 
L 475.934922 73.41941 
" clip-path="url(#pf202a7102d)" style="fill: none; stroke: #2ca02c; stroke-width: 1.8; stroke-linecap: square"/>
   </g>
   <g id="line2d_26">
    <path d="M 71.327727 173.445766 
L 71.380452 118.119264 
L 71.485901 121.905868 
L 71.802247 73.745724 
L 71.907696 92.871358 
L 72.013145 88.671287 
L 72.329491 72.590163 
L 72.382216 81.845597 
L 72.43494 80.824274 
L 72.856735 71.477169 
L 72.90946 70.580982 
L 73.014909 76.736233 
L 73.067633 75.140123 
L 73.120358 74.030958 
L 73.225806 81.412258 
L 73.331255 78.591413 
L 73.436704 76.66019 
L 73.542153 80.541615 
L 73.594877 79.558026 
L 73.858499 74.865102 
L 74.016673 77.023377 
L 74.280295 72.922242 
L 74.333019 74.618209 
L 74.385744 73.94126 
L 74.596641 71.217057 
L 74.70209 74.044976 
L 74.807539 73.100825 
L 74.965712 71.471566 
L 75.071161 70.420497 
L 75.123885 74.213063 
L 75.17661 73.56167 
L 75.387508 71.329347 
L 75.440232 72.040437 
L 75.492956 71.828773 
L 75.914752 69.004603 
L 75.967476 69.625252 
L 76.020201 69.302733 
L 76.072925 68.767417 
L 76.125649 69.601684 
L 76.178374 69.18715 
L 76.600169 67.517547 
L 76.652894 68.176591 
L 76.705618 67.746514 
L 76.758342 67.338522 
L 76.916516 68.612011 
L 77.44376 65.903981 
L 77.496484 66.266362 
L 77.549209 66.027963 
L 77.654658 65.476693 
L 77.812831 66.970962 
L 77.865555 66.681864 
L 78.076453 65.714293 
L 78.181902 66.616138 
L 78.234626 66.316104 
L 78.392799 65.676548 
L 78.445524 66.020742 
L 78.498248 65.812721 
L 78.920044 64.240673 
L 79.025493 63.828123 
L 79.078217 64.380733 
L 79.130941 64.119623 
L 79.289115 63.63114 
L 79.341839 64.872173 
L 79.394563 64.662548 
L 79.763634 63.398527 
L 79.816359 63.686891 
L 79.869083 63.465709 
L 79.921808 63.281448 
L 79.974532 63.697412 
L 80.027256 63.505108 
L 80.079981 63.339327 
L 80.18543 64.522985 
L 80.238154 64.381774 
L 80.396327 64.016724 
L 80.449052 64.291294 
L 80.501776 64.071564 
L 81.02902 62.51557 
L 81.081745 62.983763 
L 81.134469 62.827054 
L 81.292643 62.444175 
L 81.345367 62.645079 
L 81.398091 62.455688 
L 81.925336 61.0959 
L 82.030784 61.745573 
L 82.083509 61.590221 
L 82.188958 61.354903 
L 82.347131 62.505462 
L 82.399855 62.389432 
L 82.610753 61.817087 
L 82.663477 62.067551 
L 82.716202 61.9037 
L 82.768926 61.791931 
L 82.9271 62.238065 
L 83.085273 61.885444 
L 83.137997 62.100356 
L 83.190722 61.970258 
L 83.401619 61.511299 
L 83.454344 62.031761 
L 83.507068 61.936473 
L 83.77069 61.388525 
L 83.928864 62.745502 
L 84.350659 61.913899 
L 84.403383 61.977382 
L 84.456108 61.881222 
L 84.71973 61.279913 
L 84.772454 62.170011 
L 84.825179 62.076107 
L 84.930627 61.927211 
L 84.983352 62.247177 
L 85.036076 62.121048 
L 85.563321 61.156175 
L 85.616045 61.039969 
L 85.668769 61.44016 
L 85.721494 61.359573 
L 86.090565 60.724087 
L 86.143289 61.162418 
L 86.196014 61.070359 
L 86.248738 60.965943 
L 86.301462 61.171016 
L 86.354187 61.075137 
L 86.406911 60.973535 
L 86.459636 61.076654 
L 86.723258 60.645386 
L 86.934155 60.273395 
L 87.145053 60.945598 
L 87.355951 60.591395 
L 87.408675 60.672627 
L 87.4614 60.704909 
L 87.514124 60.607134 
L 87.777746 60.146329 
L 87.830471 60.442751 
L 87.883195 60.356856 
L 88.041368 60.144648 
L 88.199541 60.402888 
L 88.621337 60.010732 
L 88.77951 60.492422 
L 88.937683 60.271922 
L 88.990408 60.444106 
L 89.043132 60.397353 
L 89.201305 60.34093 
L 89.464928 59.994394 
L 89.517652 60.306321 
L 89.623101 60.281131 
L 89.781274 60.038188 
L 89.833998 60.324847 
L 89.886723 60.242526 
L 90.57214 59.274026 
L 90.677589 59.376397 
L 90.783038 59.210917 
L 90.941211 59.500202 
L 91.099385 59.308271 
L 91.152109 59.813145 
L 91.204833 59.73496 
L 91.363007 59.521355 
L 91.415731 59.809058 
L 91.468455 59.730915 
L 91.52118 59.657754 
L 91.626629 60.113683 
L 91.679353 60.053565 
L 91.732078 59.98473 
L 91.837526 60.395712 
L 91.890251 60.323095 
L 92.048424 60.109951 
L 92.101149 60.219265 
L 92.417495 59.879501 
L 92.470219 60.202053 
L 92.522944 60.140816 
L 92.628393 60.019233 
L 92.681117 60.16039 
L 92.733842 60.082644 
L 92.944739 59.844883 
L 92.997464 60.06744 
L 93.050188 60.026084 
L 93.102912 59.964833 
L 93.155637 60.195417 
L 93.208361 60.139305 
L 93.419259 59.883154 
L 93.471983 60.087013 
L 93.524708 60.031963 
L 93.841054 59.837345 
L 93.893779 59.988427 
L 93.946503 59.926572 
L 94.526472 59.387902 
L 94.579196 59.517933 
L 94.631921 59.476414 
L 94.790094 59.315544 
L 94.842818 59.792021 
L 94.895543 59.733142 
L 95.000992 59.612409 
L 95.159165 60.028044 
L 95.422787 59.76938 
L 95.686409 59.582578 
L 95.739133 59.56594 
L 95.897307 59.935383 
L 96.266378 59.574414 
L 96.424551 60.092168 
L 98.586252 58.464383 
L 98.744425 58.649952 
L 99.27167 58.222718 
L 99.535292 58.751012 
L 99.64074 58.637629 
L 99.693465 58.805713 
L 99.746189 58.774123 
L 100.220709 58.372482 
L 100.326158 58.741149 
L 100.378882 58.703595 
L 101.117024 58.181506 
L 101.222473 58.320158 
L 101.275197 58.261654 
L 101.380646 58.188583 
L 101.433371 58.350179 
L 101.486095 58.307606 
L 101.696993 58.147243 
L 101.749717 58.279324 
L 101.802442 58.245 
L 102.698757 57.60041 
L 102.751481 57.770166 
L 102.804206 57.729703 
L 103.173277 57.61856 
L 103.226001 57.810134 
L 103.278725 57.769604 
L 103.80597 57.370238 
L 103.858694 57.520183 
L 103.911418 57.47912 
L 104.122316 57.452851 
L 104.596836 57.169714 
L 104.965907 56.924662 
L 105.071356 57.148356 
L 105.12408 57.118945 
L 105.756773 56.763915 
L 105.809498 56.886458 
L 105.862222 56.84401 
L 106.231293 56.61887 
L 106.284017 56.735831 
L 106.336742 56.711884 
L 106.600364 56.513254 
L 106.705813 57.136828 
L 106.758537 57.104755 
L 107.180332 56.838659 
L 107.285781 57.132276 
L 107.338506 57.08784 
L 107.496679 56.985035 
L 107.549403 57.132054 
L 107.602128 57.103023 
L 107.654852 57.070732 
L 107.707577 57.177798 
L 107.760301 57.151609 
L 108.076648 56.950872 
L 108.182096 56.977648 
L 109.816553 56.179072 
L 109.922002 56.293104 
L 110.185624 56.122075 
L 110.343798 56.624693 
L 110.396522 56.596916 
L 110.660144 56.457114 
L 110.712869 56.545348 
L 110.765593 56.510459 
L 110.818317 56.477667 
L 110.871042 56.588892 
L 110.923766 56.552608 
L 111.029215 56.493229 
L 111.187388 56.696455 
L 111.714633 56.41667 
L 111.820081 56.554902 
L 112.241877 56.393657 
L 112.347326 56.561012 
L 112.40005 56.5342 
L 112.505499 56.486488 
L 112.558223 56.619298 
L 112.610948 56.595879 
L 113.032743 56.403306 
L 113.085467 56.560891 
L 113.138192 56.532631 
L 113.243641 56.467447 
L 113.296365 56.599108 
L 113.34909 56.577524 
L 114.772649 55.862046 
L 114.930822 56.16897 
L 114.983547 56.140237 
L 115.14172 56.073791 
L 115.247169 56.189511 
L 115.61624 56.107266 
L 115.721688 56.147276 
L 116.196208 56.021264 
L 116.354381 56.058127 
L 116.776177 55.861434 
L 116.881626 55.934252 
L 117.039799 55.847376 
L 117.145248 55.993786 
L 117.197972 55.975404 
L 117.356145 56.098482 
L 117.725216 56.01658 
L 117.988838 56.121584 
L 118.041563 56.095172 
L 118.094287 56.195714 
L 118.147012 56.166782 
L 118.937878 56.04192 
L 118.990602 56.162117 
L 119.043327 56.138155 
L 119.254225 56.129879 
L 119.465122 56.257556 
L 119.67602 56.278237 
L 119.781469 56.377125 
L 119.886918 56.448963 
L 120.519611 56.388923 
L 121.099579 56.29381 
L 121.257752 56.460998 
L 121.94317 56.38988 
L 122.364965 56.594873 
L 122.734036 56.494861 
L 122.892209 56.575672 
L 123.314005 56.547048 
L 123.472178 56.655791 
L 123.999422 56.582828 
L 124.263044 56.794132 
L 125.317533 56.606503 
L 125.475706 56.663278 
L 125.633879 56.630438 
L 125.792053 56.777862 
L 126.266572 56.759033 
L 126.424746 56.824364 
L 126.741092 56.847749 
L 126.899265 57.067725 
L 127.584683 57.064396 
L 128.006478 57.415743 
L 128.2701 57.366735 
L 128.480998 57.627553 
L 128.586447 57.604649 
L 128.74462 57.706943 
L 128.955518 57.827539 
L 129.060967 57.880583 
L 129.324589 57.947569 
L 129.535486 57.980239 
L 129.69366 58.070793 
L 130.484526 57.97655 
L 130.642699 58.161097 
L 130.800872 58.191989 
L 131.064494 58.358499 
L 132.118983 58.343135 
L 132.329881 58.476477 
L 132.698951 58.452565 
L 132.857125 58.532427 
L 133.542542 58.525397 
L 133.806164 58.605332 
L 134.702479 58.543247 
L 134.913377 58.546964 
L 135.07155 58.627253 
L 135.229724 58.649954 
L 135.651519 58.643433 
L 135.862417 58.746863 
L 136.231488 58.78106 
L 136.389661 58.85018 
L 137.022354 58.911774 
L 137.285976 58.988626 
L 137.707771 59.036745 
L 139.025882 58.9896 
L 139.184055 59.040453 
L 139.711299 58.98588 
L 139.869472 59.051435 
L 140.55489 59.054557 
L 140.765788 59.077285 
L 141.609378 59.070387 
L 144.298324 58.944575 
L 144.456497 58.982314 
L 145.08919 59.010565 
L 145.300088 59.082985 
L 145.932781 59.149859 
L 146.301852 59.199981 
L 147.039994 59.188904 
L 147.198167 59.244847 
L 148.041757 59.228449 
L 148.569002 59.207751 
L 149.359868 59.188409 
L 149.518041 59.235693 
L 150.308908 59.25815 
L 151.679742 59.219166 
L 151.837916 59.261238 
L 153.525097 59.259075 
L 153.735995 59.289371 
L 154.63231 59.355628 
L 154.948656 59.461116 
L 155.159554 59.560873 
L 155.370452 59.58754 
L 155.897696 59.654815 
L 156.108594 59.679902 
L 157.268531 59.727102 
L 157.479429 59.798855 
L 158.955712 59.871068 
L 159.16661 59.910584 
L 160.168374 59.93921 
L 160.431996 59.986959 
L 161.064689 60.071583 
L 161.275587 60.142147 
L 161.644658 60.207365 
L 161.90828 60.271338 
L 162.646422 60.328427 
L 163.964532 60.352444 
L 164.122705 60.411755 
L 164.755398 60.441268 
L 164.966296 60.473894 
L 165.862611 60.47351 
L 166.073509 60.490737 
L 167.338895 60.499728 
L 167.918864 60.558672 
L 169.131525 60.631819 
L 169.289699 60.688503 
L 170.133289 60.728504 
L 170.344187 60.764094 
L 171.187778 60.813311 
L 171.4514 60.876903 
L 172.664061 60.876544 
L 172.822235 60.933832 
L 173.349479 60.954413 
L 173.507652 61.025966 
L 174.456692 61.061165 
L 178.780094 61.034105 
L 179.043716 61.057794 
L 181.205417 61.09795 
L 181.416315 61.132447 
L 184.57978 61.169642 
L 184.790678 61.21074 
L 188.586836 61.212822 
L 196.284601 61.312518 
L 196.495499 61.348035 
L 199.237169 61.380478 
L 199.500791 61.40595 
L 202.71698 61.46759 
L 203.402398 61.503198 
L 205.564099 61.561922 
L 205.880446 61.596418 
L 207.25128 61.681616 
L 207.462178 61.718678 
L 210.520194 61.763525 
L 210.783817 61.788378 
L 212.787345 61.853075 
L 212.998242 61.916296 
L 214.421802 61.965448 
L 214.632699 62.035571 
L 218.21796 62.124656 
L 218.428857 62.154025 
L 222.172291 62.24798 
L 222.435913 62.27411 
L 223.384953 62.37589 
L 223.59585 62.405521 
L 224.808512 62.511118 
L 225.01941 62.547673 
L 226.126623 62.61068 
L 226.33752 62.647197 
L 227.181111 62.717487 
L 227.392009 62.74776 
L 230.291852 62.793149 
L 231.979033 62.858216 
L 234.931601 62.962608 
L 235.722467 63.019424 
L 292.243045 63.122661 
L 292.66484 63.138871 
L 306.109567 63.234141 
L 306.531362 63.250341 
L 325.037633 63.357909 
L 325.459429 63.374098 
L 336.795179 63.483427 
L 337.216974 63.510386 
L 365.582712 63.62119 
L 366.004507 63.637353 
L 396.584671 63.740287 
L 397.164639 63.751054 
L 417.727163 63.847708 
L 418.148958 63.863846 
L 438.026064 63.966735 
L 438.500584 64.00435 
L 450.996271 64.111782 
L 451.259893 64.143597 
L 460.381218 64.252671 
L 461.066635 64.28486 
L 467.657188 64.376925 
L 467.973534 64.397147 
L 470.082511 64.454471 
L 470.398858 64.481261 
L 473.667772 64.579756 
L 474.036843 64.617232 
L 479.309285 64.714397 
L 479.73108 64.730034 
L 486.110735 64.815601 
L 486.374357 64.847678 
L 491.594074 64.951255 
L 492.174043 64.96194 
L 495.021162 65.027641 
L 498.395524 65.128233 
L 498.764595 65.165585 
L 507.200502 65.267671 
L 507.622298 65.283666 
L 520.961576 65.366738 
L 521.225198 65.404028 
L 526.550364 65.505206 
L 526.97216 65.521176 
L 532.086428 65.626769 
L 532.982744 65.69592 
L 535.355342 65.767396 
L 535.618964 65.793973 
L 541.682273 65.861781 
L 541.682273 65.861781 
" clip-path="url(#pf202a7102d)" style="fill: none; stroke: #d62728; stroke-width: 1.8; stroke-linecap: square"/>
   </g>
   <g id="line2d_27">
    <path d="M 71.327727 83.947013 
L 71.380452 85.158795 
L 71.433176 70.756425 
L 71.485901 80.858558 
L 71.538625 85.077047 
L 71.591349 77.163282 
L 71.644074 102.74393 
L 71.696798 93.270125 
L 71.96042 75.09485 
L 72.013145 80.871894 
L 72.065869 77.6661 
L 72.171318 71.863909 
L 72.224042 72.947626 
L 72.276767 74.133384 
L 72.382216 70.450615 
L 72.43494 70.614785 
L 72.487664 72.080753 
L 72.540389 71.734947 
L 72.698562 67.475183 
L 72.751287 69.671671 
L 72.804011 68.308397 
L 73.067633 63.396763 
L 73.120358 63.644118 
L 73.805775 55.813501 
L 74.333019 51.988097 
L 75.282059 47.975978 
L 75.862027 46.333196 
L 76.49472 44.944726 
L 77.074689 43.928347 
L 77.812831 42.93344 
L 78.76187 41.984345 
L 79.183666 41.646822 
L 79.921808 41.077682 
L 80.818123 40.506461 
L 82.399855 39.728454 
L 84.087037 39.131916 
L 86.670533 38.447961 
L 89.517652 37.91028 
L 92.048424 37.575417 
L 95.475511 37.222488 
L 101.275197 36.821146 
L 108.34027 36.496322 
L 121.099579 36.159961 
L 130.220904 36.121818 
L 145.08919 36.206763 
L 145.300088 36.243182 
L 156.003145 36.3524 
L 156.319491 36.388793 
L 160.221098 36.491833 
L 160.379272 36.552443 
L 165.440816 36.654812 
L 165.757162 36.679029 
L 168.498832 36.76355 
L 168.70973 36.8059 
L 169.606045 36.884526 
L 169.816943 36.932897 
L 172.347715 37.028909 
L 172.664061 37.071189 
L 173.613101 37.167617 
L 173.823999 37.209865 
L 175.9857 37.299923 
L 176.302046 37.353966 
L 178.621921 37.456428 
L 178.885543 37.534748 
L 183.208945 37.642664 
L 183.367118 37.720897 
L 187.79597 37.80496 
L 188.059592 37.901162 
L 190.748537 38.009335 
L 190.959435 38.051387 
L 193.279309 38.14699 
L 193.701105 38.189008 
L 194.386522 38.285015 
L 194.59742 38.321006 
L 196.39005 38.404484 
L 196.600948 38.452436 
L 198.709925 38.560287 
L 199.078995 38.584247 
L 199.658964 38.638094 
L 199.817137 38.697963 
L 201.662492 38.78106 
L 201.820665 38.834896 
L 203.349673 38.930568 
L 203.876918 39.001843 
L 205.774997 39.10161 
L 206.144068 39.119519 
L 207.25128 39.209038 
L 207.514903 39.328336 
L 211.41651 39.417018 
L 211.680132 39.494477 
L 212.207376 39.554042 
L 212.365549 39.613589 
L 215.370841 39.70697 
L 215.792636 39.784154 
L 217.954338 39.848595 
L 218.112511 39.902077 
L 221.012354 39.984681 
L 221.223252 40.032184 
L 223.912197 40.126723 
L 224.281268 40.227575 
L 226.232071 40.334305 
L 226.495694 40.363791 
L 226.917489 40.452675 
L 227.444733 40.571128 
L 229.764608 40.677435 
L 230.186403 40.765935 
L 232.242655 40.847734 
L 232.506277 40.883199 
L 234.246183 40.971075 
L 234.56253 40.994702 
L 235.089774 41.089181 
L 235.511569 41.218755 
L 236.987853 41.29508 
L 237.198751 41.330459 
L 238.14779 41.377622 
L 238.305964 41.442453 
L 240.625838 41.530272 
L 240.942184 41.606824 
L 242.260295 41.683348 
L 242.523917 41.783374 
L 244.158374 41.86513 
L 244.316547 41.918039 
L 246.109178 42.011472 
L 246.3728 42.040844 
L 247.005493 42.076085 
L 248.429052 42.152419 
L 248.63995 42.19938 
L 252.436108 42.303248 
L 252.752454 42.326707 
L 253.965116 42.390369 
L 254.228738 42.419675 
L 256.864959 42.504814 
L 257.128581 42.557087 
L 258.552141 42.650737 
L 258.710314 42.709246 
L 259.132109 42.802825 
L 259.290282 42.855445 
L 262.611921 42.912108 
L 262.770094 42.976369 
L 265.248142 43.08515 
L 265.459039 43.126 
L 266.829874 43.223896 
L 267.146221 43.247221 
L 268.56978 43.334662 
L 268.938851 43.421591 
L 269.466095 43.433241 
L 271.153277 43.543164 
L 271.364174 43.589729 
L 272.365938 43.664276 
L 272.524112 43.716624 
L 274.474915 43.81385 
L 274.633088 43.865524 
L 276.689341 43.968811 
L 277.111136 43.997839 
L 279.641908 44.096504 
L 279.852806 44.142917 
L 280.801846 44.241511 
L 281.170916 44.258905 
L 282.594476 44.356653 
L 283.12172 44.414191 
L 284.43983 44.495271 
L 284.756177 44.628402 
L 286.285185 44.719596 
L 286.759705 44.829443 
L 289.554099 44.91389 
L 289.870446 44.936993 
L 292.66484 45.045566 
L 292.875738 45.137892 
L 294.721092 45.230175 
L 294.93199 45.270536 
L 297.515486 45.373117 
L 298.042731 45.38464 
L 299.835361 45.44683 
L 300.046259 45.521682 
L 301.997062 45.623784 
L 302.366133 45.641043 
L 304.686008 45.747593 
L 304.896905 45.793572 
L 305.740496 45.879754 
L 305.951394 45.931445 
L 306.320465 45.977382 
L 307.954922 46.07868 
L 308.218544 46.2278 
L 310.907489 46.329859 
L 311.118387 46.369964 
L 313.385537 46.47733 
L 313.965505 46.563184 
L 314.86182 46.67188 
L 315.019994 46.734783 
L 317.972561 46.830134 
L 318.183459 46.864414 
L 319.607018 46.932958 
L 319.817916 46.98435 
L 321.505097 47.087096 
L 322.61231 47.218306 
L 324.457665 47.298131 
L 324.668562 47.332332 
L 327.041161 47.438855 
L 327.568406 47.449027 
L 328.464721 47.515603 
L 328.675618 47.578209 
L 332.208154 47.683815 
L 332.735399 47.695187 
L 334.686202 47.796794 
L 334.949824 47.825206 
L 335.582517 47.852176 
L 336.68973 47.943045 
L 337.006077 47.994141 
L 338.429636 48.096111 
L 338.640534 48.147167 
L 339.695022 48.232232 
L 339.90592 48.271916 
L 342.331243 48.366767 
L 342.489416 48.428326 
L 344.334771 48.500427 
L 344.492944 48.557024 
L 346.23285 48.664135 
L 346.601921 48.702957 
L 347.867307 48.792251 
L 348.02548 48.848757 
L 349.554488 48.939133 
L 349.765386 48.989952 
L 351.083497 49.068192 
L 351.24167 49.124617 
L 352.876127 49.23178 
L 353.087025 49.265609 
L 355.30145 49.344522 
L 355.459623 49.406502 
L 356.566836 49.507076 
L 356.883183 49.529597 
L 357.515876 49.557136 
L 358.254018 49.646363 
L 358.51764 49.696991 
L 360.78479 49.802389 
L 361.892003 49.926016 
L 362.524696 49.999033 
L 362.682869 50.055181 
L 364.106428 50.150597 
L 364.475499 50.189873 
L 368.482555 50.275368 
L 368.693453 50.337027 
L 370.855154 50.430779 
L 371.593296 50.481185 
L 373.280477 50.556974 
L 373.491375 50.596148 
L 375.020383 50.702438 
L 375.231281 50.741583 
L 379.501959 50.848323 
L 379.765581 50.87295 
L 380.925518 50.951123 
L 381.136416 50.990198 
L 382.190904 51.057166 
L 382.349077 51.112955 
L 386.567031 51.222237 
L 387.252448 51.261253 
L 387.726968 51.372005 
L 388.043315 51.438832 
L 392.788512 51.535594 
L 392.99941 51.580101 
L 394.317521 51.674647 
L 394.528418 51.708005 
L 396.742844 51.800862 
L 397.164639 51.860803 
L 398.535474 51.966301 
L 398.904545 52.042822 
L 401.013522 52.146319 
L 401.382593 52.240562 
L 404.598782 52.339341 
L 404.915129 52.361497 
L 406.655035 52.439023 
L 406.865932 52.477775 
L 410.29302 52.579521 
L 411.13661 52.645888 
L 412.876516 52.75596 
L 413.034689 52.811216 
L 415.301839 52.910639 
L 415.67091 52.94929 
L 416.778123 53.032089 
L 416.989021 53.087269 
L 420.890628 53.197574 
L 424.739511 53.49349 
L 428.535669 53.588178 
L 428.746566 53.623851 
L 430.170126 53.709221 
L 430.486472 53.758666 
L 433.913559 53.864867 
L 434.071733 53.919752 
L 434.862599 54.029476 
L 435.126221 54.095281 
L 436.54978 54.17745 
L 440.820458 54.264216 
L 441.084081 54.340846 
L 443.034884 54.446794 
L 443.562128 54.500936 
L 444.405719 54.577457 
L 444.616617 54.626634 
L 446.778318 54.73154 
L 446.989215 54.818868 
L 449.045468 54.910247 
L 449.361814 54.997491 
L 450.6272 55.095593 
L 450.838098 55.128283 
L 452.999799 55.220875 
L 453.316146 55.297095 
L 456.268713 55.394491 
L 456.479611 55.43257 
L 458.37769 55.540201 
L 458.641312 55.56738 
L 461.11936 55.670624 
L 461.910226 55.722388 
L 463.86103 55.832117 
L 464.282825 55.859246 
L 464.862794 55.937747 
L 465.073691 55.986543 
L 467.604463 56.082081 
L 467.868086 56.108015 
L 469.977062 56.19206 
L 470.293409 56.288323 
L 473.984118 56.374742 
L 474.405914 56.472045 
L 476.198544 56.550447 
L 476.356717 56.604455 
L 477.885725 56.701632 
L 478.096623 56.79876 
L 479.625631 56.90334 
L 480.047426 56.919513 
L 484.107207 56.998256 
L 484.318104 57.04674 
L 486.427081 57.14126 
L 486.690703 57.168175 
L 488.219711 57.27337 
L 488.79968 57.284128 
L 489.74872 57.359416 
L 490.012342 57.461547 
L 491.06683 57.568995 
L 491.910421 57.627759 
L 492.806736 57.712722 
L 493.017634 57.761016 
L 493.861224 57.846305 
L 494.124846 57.873111 
L 496.286548 57.974005 
L 496.866516 58.038288 
L 498.237351 58.123967 
L 498.553698 58.188202 
L 500.399052 58.292999 
L 500.60995 58.330436 
L 502.8771 58.426291 
L 503.193447 58.474377 
L 505.671494 58.570514 
L 506.09329 58.586532 
L 507.4114 58.672463 
L 507.622298 58.709809 
L 509.836723 58.81486 
L 510.15307 58.836184 
L 514.21285 58.922212 
L 514.529197 58.999794 
L 517.270867 59.08634 
L 517.42904 59.14484 
L 518.588977 59.245844 
L 519.010772 59.304296 
L 519.590741 59.362731 
L 519.748914 59.421148 
L 521.48882 59.530634 
L 521.699718 59.578386 
L 524.125041 59.64898 
L 524.335939 59.712264 
L 524.810459 59.802353 
L 524.968632 59.855327 
L 525.706774 59.954591 
L 525.970396 59.981058 
L 529.186585 60.059639 
L 529.397483 60.101951 
L 531.295562 60.207688 
L 531.770082 60.238377 
L 534.037232 60.264797 
L 534.037232 60.264797 
" clip-path="url(#pf202a7102d)" style="fill: none; stroke: #9467bd; stroke-width: 1.8; stroke-linecap: square"/>
   </g>
   <g id="patch_3">
    <path d="M 47.81 260.44 
L 47.81 25.44 
" style="fill: none; stroke: #000000; stroke-width: 0.8; stroke-linejoin: miter; stroke-linecap: square"/>
   </g>
   <g id="patch_4">
    <path d="M 565.2 260.44 
L 565.2 25.44 
" style="fill: none; stroke: #000000; stroke-width: 0.8; stroke-linejoin: miter; stroke-linecap: square"/>
   </g>
   <g id="patch_5">
    <path d="M 47.81 260.44 
L 565.2 260.44 
" style="fill: none; stroke: #000000; stroke-width: 0.8; stroke-linejoin: miter; stroke-linecap: square"/>
   </g>
   <g id="patch_6">
    <path d="M 47.81 25.44 
L 565.2 25.44 
" style="fill: none; stroke: #000000; stroke-width: 0.8; stroke-linejoin: miter; stroke-linecap: square"/>
   </g>
   <g id="text_14">
    <!-- Timely Transfer Rate (Cumulative) -->
    <g transform="translate(204.082187 19.44) scale(0.12 -0.12)">
     <defs>
      <path id="DejaVuSans-54" d="M -19 4666 
L 3928 4666 
L 3928 4134 
L 2272 4134 
L 2272 0 
L 1638 0 
L 1638 4134 
L -19 4134 
L -19 4666 
z
" transform="scale(0.015625)"/>
      <path id="DejaVuSans-52" d="M 2841 2188 
Q 3044 2119 3236 1894 
Q 3428 1669 3622 1275 
L 4263 0 
L 3584 0 
L 2988 1197 
Q 2756 1666 2539 1819 
Q 2322 1972 1947 1972 
L 1259 1972 
L 1259 0 
L 628 0 
L 628 4666 
L 2053 4666 
Q 2853 4666 3247 4331 
Q 3641 3997 3641 3322 
Q 3641 2881 3436 2590 
Q 3231 2300 2841 2188 
z
M 1259 4147 
L 1259 2491 
L 2053 2491 
Q 2509 2491 2742 2702 
Q 2975 2913 2975 3322 
Q 2975 3731 2742 3939 
Q 2509 4147 2053 4147 
L 1259 4147 
z
" transform="scale(0.015625)"/>
      <path id="DejaVuSans-28" d="M 1984 4856 
Q 1566 4138 1362 3434 
Q 1159 2731 1159 2009 
Q 1159 1288 1364 580 
Q 1569 -128 1984 -844 
L 1484 -844 
Q 1016 -109 783 600 
Q 550 1309 550 2009 
Q 550 2706 781 3412 
Q 1013 4119 1484 4856 
L 1984 4856 
z
" transform="scale(0.015625)"/>
      <path id="DejaVuSans-43" d="M 4122 4306 
L 4122 3641 
Q 3803 3938 3442 4084 
Q 3081 4231 2675 4231 
Q 1875 4231 1450 3742 
Q 1025 3253 1025 2328 
Q 1025 1406 1450 917 
Q 1875 428 2675 428 
Q 3081 428 3442 575 
Q 3803 722 4122 1019 
L 4122 359 
Q 3791 134 3420 21 
Q 3050 -91 2638 -91 
Q 1578 -91 968 557 
Q 359 1206 359 2328 
Q 359 3453 968 4101 
Q 1578 4750 2638 4750 
Q 3056 4750 3426 4639 
Q 3797 4528 4122 4306 
z
" transform="scale(0.015625)"/>
      <path id="DejaVuSans-29" d="M 513 4856 
L 1013 4856 
Q 1481 4119 1714 3412 
Q 1947 2706 1947 2009 
Q 1947 1309 1714 600 
Q 1481 -109 1013 -844 
L 513 -844 
Q 928 -128 1133 580 
Q 1338 1288 1338 2009 
Q 1338 2731 1133 3434 
Q 928 4138 513 4856 
z
" transform="scale(0.015625)"/>
     </defs>
     <use xlink:href="#DejaVuSans-54"/>
     <use xlink:href="#DejaVuSans-69" x="57.958984"/>
     <use xlink:href="#DejaVuSans-6d" x="85.742188"/>
     <use xlink:href="#DejaVuSans-65" x="183.154297"/>
     <use xlink:href="#DejaVuSans-6c" x="244.677734"/>
     <use xlink:href="#DejaVuSans-79" x="272.460938"/>
     <use xlink:href="#DejaVuSans-20" x="331.640625"/>
     <use xlink:href="#DejaVuSans-54" x="363.427734"/>
     <use xlink:href="#DejaVuSans-72" x="409.761719"/>
     <use xlink:href="#DejaVuSans-61" x="450.875"/>
     <use xlink:href="#DejaVuSans-6e" x="512.154297"/>
     <use xlink:href="#DejaVuSans-73" x="575.533203"/>
     <use xlink:href="#DejaVuSans-66" x="627.632812"/>
     <use xlink:href="#DejaVuSans-65" x="662.837891"/>
     <use xlink:href="#DejaVuSans-72" x="724.361328"/>
     <use xlink:href="#DejaVuSans-20" x="765.474609"/>
     <use xlink:href="#DejaVuSans-52" x="797.261719"/>
     <use xlink:href="#DejaVuSans-61" x="864.494141"/>
     <use xlink:href="#DejaVuSans-74" x="925.773438"/>
     <use xlink:href="#DejaVuSans-65" x="964.982422"/>
     <use xlink:href="#DejaVuSans-20" x="1026.505859"/>
     <use xlink:href="#DejaVuSans-28" x="1058.292969"/>
     <use xlink:href="#DejaVuSans-43" x="1097.306641"/>
     <use xlink:href="#DejaVuSans-75" x="1167.130859"/>
     <use xlink:href="#DejaVuSans-6d" x="1230.509766"/>
     <use xlink:href="#DejaVuSans-75" x="1327.921875"/>
     <use xlink:href="#DejaVuSans-6c" x="1391.300781"/>
     <use xlink:href="#DejaVuSans-61" x="1419.083984"/>
     <use xlink:href="#DejaVuSans-74" x="1480.363281"/>
     <use xlink:href="#DejaVuSans-69" x="1519.572266"/>
     <use xlink:href="#DejaVuSans-76" x="1547.355469"/>
     <use xlink:href="#DejaVuSans-65" x="1606.535156"/>
     <use xlink:href="#DejaVuSans-29" x="1668.058594"/>
    </g>
   </g>
   <g id="legend_1">
    <g id="patch_7">
     <path d="M 480.614062 255.44 
L 558.2 255.44 
Q 560.2 255.44 560.2 253.44 
L 560.2 180.493125 
Q 560.2 178.493125 558.2 178.493125 
L 480.614062 178.493125 
Q 478.614062 178.493125 478.614062 180.493125 
L 478.614062 253.44 
Q 478.614062 255.44 480.614062 255.44 
z
" style="fill: #ffffff; opacity: 0.8; stroke: #cccccc; stroke-linejoin: miter"/>
    </g>
    <g id="line2d_28">
     <path d="M 482.614062 186.591563 
L 492.614062 186.591563 
L 502.614062 186.591563 
" style="fill: none; stroke: #1f77b4; stroke-width: 1.8; stroke-linecap: square"/>
    </g>
    <g id="text_15">
     <!-- sheer -->
     <g transform="translate(510.614062 190.091563) scale(0.1 -0.1)">
      <defs>
       <path id="DejaVuSans-68" d="M 3513 2113 
L 3513 0 
L 2938 0 
L 2938 2094 
Q 2938 2591 2744 2837 
Q 2550 3084 2163 3084 
Q 1697 3084 1428 2787 
Q 1159 2491 1159 1978 
L 1159 0 
L 581 0 
L 581 4863 
L 1159 4863 
L 1159 2956 
Q 1366 3272 1645 3428 
Q 1925 3584 2291 3584 
Q 2894 3584 3203 3211 
Q 3513 2838 3513 2113 
z
" transform="scale(0.015625)"/>
      </defs>
      <use xlink:href="#DejaVuSans-73"/>
      <use xlink:href="#DejaVuSans-68" x="52.099609"/>
      <use xlink:href="#DejaVuSans-65" x="115.478516"/>
      <use xlink:href="#DejaVuSans-65" x="177.001953"/>
      <use xlink:href="#DejaVuSans-72" x="238.525391"/>
     </g>
    </g>
    <g id="line2d_29">
     <path d="M 482.614062 201.269688 
L 492.614062 201.269688 
L 502.614062 201.269688 
" style="fill: none; stroke: #ff7f0e; stroke-width: 1.8; stroke-linecap: square"/>
    </g>
    <g id="text_16">
     <!-- actar -->
     <g transform="translate(510.614062 204.769688) scale(0.1 -0.1)">
      <use xlink:href="#DejaVuSans-61"/>
      <use xlink:href="#DejaVuSans-63" x="61.279297"/>
      <use xlink:href="#DejaVuSans-74" x="116.259766"/>
      <use xlink:href="#DejaVuSans-61" x="155.46875"/>
      <use xlink:href="#DejaVuSans-72" x="216.748047"/>
     </g>
    </g>
    <g id="line2d_30">
     <path d="M 482.614062 215.947813 
L 492.614062 215.947813 
L 502.614062 215.947813 
" style="fill: none; stroke: #2ca02c; stroke-width: 1.8; stroke-linecap: square"/>
    </g>
    <g id="text_17">
     <!-- tfsm_dpc -->
     <g transform="translate(510.614062 219.447813) scale(0.1 -0.1)">
      <defs>
       <path id="DejaVuSans-5f" d="M 3263 -1063 
L 3263 -1509 
L -63 -1509 
L -63 -1063 
L 3263 -1063 
z
" transform="scale(0.015625)"/>
       <path id="DejaVuSans-70" d="M 1159 525 
L 1159 -1331 
L 581 -1331 
L 581 3500 
L 1159 3500 
L 1159 2969 
Q 1341 3281 1617 3432 
Q 1894 3584 2278 3584 
Q 2916 3584 3314 3078 
Q 3713 2572 3713 1747 
Q 3713 922 3314 415 
Q 2916 -91 2278 -91 
Q 1894 -91 1617 61 
Q 1341 213 1159 525 
z
M 3116 1747 
Q 3116 2381 2855 2742 
Q 2594 3103 2138 3103 
Q 1681 3103 1420 2742 
Q 1159 2381 1159 1747 
Q 1159 1113 1420 752 
Q 1681 391 2138 391 
Q 2594 391 2855 752 
Q 3116 1113 3116 1747 
z
" transform="scale(0.015625)"/>
      </defs>
      <use xlink:href="#DejaVuSans-74"/>
      <use xlink:href="#DejaVuSans-66" x="39.208984"/>
      <use xlink:href="#DejaVuSans-73" x="74.414062"/>
      <use xlink:href="#DejaVuSans-6d" x="126.513672"/>
      <use xlink:href="#DejaVuSans-5f" x="223.925781"/>
      <use xlink:href="#DejaVuSans-64" x="273.925781"/>
      <use xlink:href="#DejaVuSans-70" x="337.402344"/>
      <use xlink:href="#DejaVuSans-63" x="400.878906"/>
     </g>
    </g>
    <g id="line2d_31">
     <path d="M 482.614062 230.904063 
L 492.614062 230.904063 
L 502.614062 230.904063 
" style="fill: none; stroke: #d62728; stroke-width: 1.8; stroke-linecap: square"/>
    </g>
    <g id="text_18">
     <!-- dst_woa -->
     <g transform="translate(510.614062 234.404063) scale(0.1 -0.1)">
      <defs>
       <path id="DejaVuSans-77" d="M 269 3500 
L 844 3500 
L 1563 769 
L 2278 3500 
L 2956 3500 
L 3675 769 
L 4391 3500 
L 4966 3500 
L 4050 0 
L 3372 0 
L 2619 2869 
L 1863 0 
L 1184 0 
L 269 3500 
z
" transform="scale(0.015625)"/>
      </defs>
      <use xlink:href="#DejaVuSans-64"/>
      <use xlink:href="#DejaVuSans-73" x="63.476562"/>
      <use xlink:href="#DejaVuSans-74" x="115.576172"/>
      <use xlink:href="#DejaVuSans-5f" x="154.785156"/>
      <use xlink:href="#DejaVuSans-77" x="204.785156"/>
      <use xlink:href="#DejaVuSans-6f" x="286.572266"/>
      <use xlink:href="#DejaVuSans-61" x="347.753906"/>
     </g>
    </g>
    <g id="line2d_32">
     <path d="M 482.614062 245.860313 
L 492.614062 245.860313 
L 502.614062 245.860313 
" style="fill: none; stroke: #9467bd; stroke-width: 1.8; stroke-linecap: square"/>
    </g>
    <g id="text_19">
     <!-- trail -->
     <g transform="translate(510.614062 249.360313) scale(0.1 -0.1)">
      <use xlink:href="#DejaVuSans-74"/>
      <use xlink:href="#DejaVuSans-72" x="39.208984"/>
      <use xlink:href="#DejaVuSans-61" x="80.322266"/>
      <use xlink:href="#DejaVuSans-69" x="141.601562"/>
      <use xlink:href="#DejaVuSans-6c" x="169.384766"/>
     </g>
    </g>
   </g>
  </g>
 </g>
 <defs>
  <clipPath id="pf202a7102d">
   <rect x="47.81" y="25.44" width="517.39" height="235"/>
  </clipPath>
 </defs>
</svg>
