<?xml version="1.0" encoding="utf-8" standalone="no"?>
<!DOCTYPE svg PUBLIC "-//W3C//DTD SVG 1.1//EN"
  "http://www.w3.org/Graphics/SVG/1.1/DTD/svg11.dtd">
<svg xmlns:xlink="http://www.w3.org/1999/xlink" width="576pt" height="302.4pt" viewBox="0 0 576 302.4" xmlns="http://www.w3.org/2000/svg" version="1.1">
 <metadata>
  <rdf:RDF xmlns:dc="http://purl.org/dc/elements/1.1/" xmlns:cc="http://creativecommons.org/ns#" xmlns:rdf="http://www.w3.org/1999/02/22-rdf-syntax-ns#">
   <cc:Work>
    <dc:type rdf:resource="http://purl.org/dc/dcmitype/StillImage"/>
    <dc:date>2025-09-02T19:22:25.262346</dc:date>
    <dc:format>image/svg+xml</dc:format>
    <dc:creator>
     <cc:Agent>
      <dc:title>Matplotlib v3.9.4, https://matplotlib.org/</dc:title>
     </cc:Agent>
    </dc:creator>
   </cc:Work>
  </rdf:RDF>
 </metadata>
 <defs>
  <style type="text/css">*{stroke-linejoin: round; stroke-linecap: butt}</style>
 </defs>
 <g id="figure_1">
  <g id="patch_1">
   <path d="M 0 302.4 
L 576 302.4 
L 576 0 
L 0 0 
z
" style="fill: #ffffff"/>
  </g>
  <g id="axes_1">
   <g id="patch_2">
    <path d="M 54.2 260.44 
L 565.2 260.44 
L 565.2 25.44 
L 54.2 25.44 
z
" style="fill: #ffffff"/>
   </g>
   <g id="matplotlib.axis_1">
    <g id="xtick_1">
     <g id="line2d_1">
      <path d="M 77.382017 260.44 
L 77.382017 25.44 
" clip-path="url(#pbc436073bf)" style="fill: none; stroke-dasharray: 2.96,1.28; stroke-dashoffset: 0; stroke: #b0b0b0; stroke-opacity: 0.3; stroke-width: 0.8"/>
     </g>
     <g id="line2d_2">
      <defs>
       <path id="m969c14bf73" d="M 0 0 
L 0 3.5 
" style="stroke: #000000; stroke-width: 0.8"/>
      </defs>
      <g>
       <use xlink:href="#m969c14bf73" x="77.382017" y="260.44" style="stroke: #000000; stroke-width: 0.8"/>
      </g>
     </g>
     <g id="text_1">
      <!-- 0 -->
      <g transform="translate(74.200767 275.038438) scale(0.1 -0.1)">
       <defs>
        <path id="DejaVuSans-30" d="M 2034 4250 
Q 1547 4250 1301 3770 
Q 1056 3291 1056 2328 
Q 1056 1369 1301 889 
Q 1547 409 2034 409 
Q 2525 409 2770 889 
Q 3016 1369 3016 2328 
Q 3016 3291 2770 3770 
Q 2525 4250 2034 4250 
z
M 2034 4750 
Q 2819 4750 3233 4129 
Q 3647 3509 3647 2328 
Q 3647 1150 3233 529 
Q 2819 -91 2034 -91 
Q 1250 -91 836 529 
Q 422 1150 422 2328 
Q 422 3509 836 4129 
Q 1250 4750 2034 4750 
z
" transform="scale(0.015625)"/>
       </defs>
       <use xlink:href="#DejaVuSans-30"/>
      </g>
     </g>
    </g>
    <g id="xtick_2">
     <g id="line2d_3">
      <path d="M 167.892578 260.44 
L 167.892578 25.44 
" clip-path="url(#pbc436073bf)" style="fill: none; stroke-dasharray: 2.96,1.28; stroke-dashoffset: 0; stroke: #b0b0b0; stroke-opacity: 0.3; stroke-width: 0.8"/>
     </g>
     <g id="line2d_4">
      <g>
       <use xlink:href="#m969c14bf73" x="167.892578" y="260.44" style="stroke: #000000; stroke-width: 0.8"/>
      </g>
     </g>
     <g id="text_2">
      <!-- 2000 -->
      <g transform="translate(155.167578 275.038438) scale(0.1 -0.1)">
       <defs>
        <path id="DejaVuSans-32" d="M 1228 531 
L 3431 531 
L 3431 0 
L 469 0 
L 469 531 
Q 828 903 1448 1529 
Q 2069 2156 2228 2338 
Q 2531 2678 2651 2914 
Q 2772 3150 2772 3378 
Q 2772 3750 2511 3984 
Q 2250 4219 1831 4219 
Q 1534 4219 1204 4116 
Q 875 4013 500 3803 
L 500 4441 
Q 881 4594 1212 4672 
Q 1544 4750 1819 4750 
Q 2544 4750 2975 4387 
Q 3406 4025 3406 3419 
Q 3406 3131 3298 2873 
Q 3191 2616 2906 2266 
Q 2828 2175 2409 1742 
Q 1991 1309 1228 531 
z
" transform="scale(0.015625)"/>
       </defs>
       <use xlink:href="#DejaVuSans-32"/>
       <use xlink:href="#DejaVuSans-30" x="63.623047"/>
       <use xlink:href="#DejaVuSans-30" x="127.246094"/>
       <use xlink:href="#DejaVuSans-30" x="190.869141"/>
      </g>
     </g>
    </g>
    <g id="xtick_3">
     <g id="line2d_5">
      <path d="M 258.40314 260.44 
L 258.40314 25.44 
" clip-path="url(#pbc436073bf)" style="fill: none; stroke-dasharray: 2.96,1.28; stroke-dashoffset: 0; stroke: #b0b0b0; stroke-opacity: 0.3; stroke-width: 0.8"/>
     </g>
     <g id="line2d_6">
      <g>
       <use xlink:href="#m969c14bf73" x="258.40314" y="260.44" style="stroke: #000000; stroke-width: 0.8"/>
      </g>
     </g>
     <g id="text_3">
      <!-- 4000 -->
      <g transform="translate(245.67814 275.038438) scale(0.1 -0.1)">
       <defs>
        <path id="DejaVuSans-34" d="M 2419 4116 
L 825 1625 
L 2419 1625 
L 2419 4116 
z
M 2253 4666 
L 3047 4666 
L 3047 1625 
L 3713 1625 
L 3713 1100 
L 3047 1100 
L 3047 0 
L 2419 0 
L 2419 1100 
L 313 1100 
L 313 1709 
L 2253 4666 
z
" transform="scale(0.015625)"/>
       </defs>
       <use xlink:href="#DejaVuSans-34"/>
       <use xlink:href="#DejaVuSans-30" x="63.623047"/>
       <use xlink:href="#DejaVuSans-30" x="127.246094"/>
       <use xlink:href="#DejaVuSans-30" x="190.869141"/>
      </g>
     </g>
    </g>
    <g id="xtick_4">
     <g id="line2d_7">
      <path d="M 348.913701 260.44 
L 348.913701 25.44 
" clip-path="url(#pbc436073bf)" style="fill: none; stroke-dasharray: 2.96,1.28; stroke-dashoffset: 0; stroke: #b0b0b0; stroke-opacity: 0.3; stroke-width: 0.8"/>
     </g>
     <g id="line2d_8">
      <g>
       <use xlink:href="#m969c14bf73" x="348.913701" y="260.44" style="stroke: #000000; stroke-width: 0.8"/>
      </g>
     </g>
     <g id="text_4">
      <!-- 6000 -->
      <g transform="translate(336.188701 275.038438) scale(0.1 -0.1)">
       <defs>
        <path id="DejaVuSans-36" d="M 2113 2584 
Q 1688 2584 1439 2293 
Q 1191 2003 1191 1497 
Q 1191 994 1439 701 
Q 1688 409 2113 409 
Q 2538 409 2786 701 
Q 3034 994 3034 1497 
Q 3034 2003 2786 2293 
Q 2538 2584 2113 2584 
z
M 3366 4563 
L 3366 3988 
Q 3128 4100 2886 4159 
Q 2644 4219 2406 4219 
Q 1781 4219 1451 3797 
Q 1122 3375 1075 2522 
Q 1259 2794 1537 2939 
Q 1816 3084 2150 3084 
Q 2853 3084 3261 2657 
Q 3669 2231 3669 1497 
Q 3669 778 3244 343 
Q 2819 -91 2113 -91 
Q 1303 -91 875 529 
Q 447 1150 447 2328 
Q 447 3434 972 4092 
Q 1497 4750 2381 4750 
Q 2619 4750 2861 4703 
Q 3103 4656 3366 4563 
z
" transform="scale(0.015625)"/>
       </defs>
       <use xlink:href="#DejaVuSans-36"/>
       <use xlink:href="#DejaVuSans-30" x="63.623047"/>
       <use xlink:href="#DejaVuSans-30" x="127.246094"/>
       <use xlink:href="#DejaVuSans-30" x="190.869141"/>
      </g>
     </g>
    </g>
    <g id="xtick_5">
     <g id="line2d_9">
      <path d="M 439.424262 260.44 
L 439.424262 25.44 
" clip-path="url(#pbc436073bf)" style="fill: none; stroke-dasharray: 2.96,1.28; stroke-dashoffset: 0; stroke: #b0b0b0; stroke-opacity: 0.3; stroke-width: 0.8"/>
     </g>
     <g id="line2d_10">
      <g>
       <use xlink:href="#m969c14bf73" x="439.424262" y="260.44" style="stroke: #000000; stroke-width: 0.8"/>
      </g>
     </g>
     <g id="text_5">
      <!-- 8000 -->
      <g transform="translate(426.699262 275.038438) scale(0.1 -0.1)">
       <defs>
        <path id="DejaVuSans-38" d="M 2034 2216 
Q 1584 2216 1326 1975 
Q 1069 1734 1069 1313 
Q 1069 891 1326 650 
Q 1584 409 2034 409 
Q 2484 409 2743 651 
Q 3003 894 3003 1313 
Q 3003 1734 2745 1975 
Q 2488 2216 2034 2216 
z
M 1403 2484 
Q 997 2584 770 2862 
Q 544 3141 544 3541 
Q 544 4100 942 4425 
Q 1341 4750 2034 4750 
Q 2731 4750 3128 4425 
Q 3525 4100 3525 3541 
Q 3525 3141 3298 2862 
Q 3072 2584 2669 2484 
Q 3125 2378 3379 2068 
Q 3634 1759 3634 1313 
Q 3634 634 3220 271 
Q 2806 -91 2034 -91 
Q 1263 -91 848 271 
Q 434 634 434 1313 
Q 434 1759 690 2068 
Q 947 2378 1403 2484 
z
M 1172 3481 
Q 1172 3119 1398 2916 
Q 1625 2713 2034 2713 
Q 2441 2713 2670 2916 
Q 2900 3119 2900 3481 
Q 2900 3844 2670 4047 
Q 2441 4250 2034 4250 
Q 1625 4250 1398 4047 
Q 1172 3844 1172 3481 
z
" transform="scale(0.015625)"/>
       </defs>
       <use xlink:href="#DejaVuSans-38"/>
       <use xlink:href="#DejaVuSans-30" x="63.623047"/>
       <use xlink:href="#DejaVuSans-30" x="127.246094"/>
       <use xlink:href="#DejaVuSans-30" x="190.869141"/>
      </g>
     </g>
    </g>
    <g id="xtick_6">
     <g id="line2d_11">
      <path d="M 529.934823 260.44 
L 529.934823 25.44 
" clip-path="url(#pbc436073bf)" style="fill: none; stroke-dasharray: 2.96,1.28; stroke-dashoffset: 0; stroke: #b0b0b0; stroke-opacity: 0.3; stroke-width: 0.8"/>
     </g>
     <g id="line2d_12">
      <g>
       <use xlink:href="#m969c14bf73" x="529.934823" y="260.44" style="stroke: #000000; stroke-width: 0.8"/>
      </g>
     </g>
     <g id="text_6">
      <!-- 10000 -->
      <g transform="translate(514.028573 275.038438) scale(0.1 -0.1)">
       <defs>
        <path id="DejaVuSans-31" d="M 794 531 
L 1825 531 
L 1825 4091 
L 703 3866 
L 703 4441 
L 1819 4666 
L 2450 4666 
L 2450 531 
L 3481 531 
L 3481 0 
L 794 0 
L 794 531 
z
" transform="scale(0.015625)"/>
       </defs>
       <use xlink:href="#DejaVuSans-31"/>
       <use xlink:href="#DejaVuSans-30" x="63.623047"/>
       <use xlink:href="#DejaVuSans-30" x="127.246094"/>
       <use xlink:href="#DejaVuSans-30" x="190.869141"/>
       <use xlink:href="#DejaVuSans-30" x="254.492188"/>
      </g>
     </g>
    </g>
    <g id="text_7">
     <!-- round -->
     <g transform="translate(295.185937 288.716563) scale(0.1 -0.1)">
      <defs>
       <path id="DejaVuSans-72" d="M 2631 2963 
Q 2534 3019 2420 3045 
Q 2306 3072 2169 3072 
Q 1681 3072 1420 2755 
Q 1159 2438 1159 1844 
L 1159 0 
L 581 0 
L 581 3500 
L 1159 3500 
L 1159 2956 
Q 1341 3275 1631 3429 
Q 1922 3584 2338 3584 
Q 2397 3584 2469 3576 
Q 2541 3569 2628 3553 
L 2631 2963 
z
" transform="scale(0.015625)"/>
       <path id="DejaVuSans-6f" d="M 1959 3097 
Q 1497 3097 1228 2736 
Q 959 2375 959 1747 
Q 959 1119 1226 758 
Q 1494 397 1959 397 
Q 2419 397 2687 759 
Q 2956 1122 2956 1747 
Q 2956 2369 2687 2733 
Q 2419 3097 1959 3097 
z
M 1959 3584 
Q 2709 3584 3137 3096 
Q 3566 2609 3566 1747 
Q 3566 888 3137 398 
Q 2709 -91 1959 -91 
Q 1206 -91 779 398 
Q 353 888 353 1747 
Q 353 2609 779 3096 
Q 1206 3584 1959 3584 
z
" transform="scale(0.015625)"/>
       <path id="DejaVuSans-75" d="M 544 1381 
L 544 3500 
L 1119 3500 
L 1119 1403 
Q 1119 906 1312 657 
Q 1506 409 1894 409 
Q 2359 409 2629 706 
Q 2900 1003 2900 1516 
L 2900 3500 
L 3475 3500 
L 3475 0 
L 2900 0 
L 2900 538 
Q 2691 219 2414 64 
Q 2138 -91 1772 -91 
Q 1169 -91 856 284 
Q 544 659 544 1381 
z
M 1991 3584 
L 1991 3584 
z
" transform="scale(0.015625)"/>
       <path id="DejaVuSans-6e" d="M 3513 2113 
L 3513 0 
L 2938 0 
L 2938 2094 
Q 2938 2591 2744 2837 
Q 2550 3084 2163 3084 
Q 1697 3084 1428 2787 
Q 1159 2491 1159 1978 
L 1159 0 
L 581 0 
L 581 3500 
L 1159 3500 
L 1159 2956 
Q 1366 3272 1645 3428 
Q 1925 3584 2291 3584 
Q 2894 3584 3203 3211 
Q 3513 2838 3513 2113 
z
" transform="scale(0.015625)"/>
       <path id="DejaVuSans-64" d="M 2906 2969 
L 2906 4863 
L 3481 4863 
L 3481 0 
L 2906 0 
L 2906 525 
Q 2725 213 2448 61 
Q 2172 -91 1784 -91 
Q 1150 -91 751 415 
Q 353 922 353 1747 
Q 353 2572 751 3078 
Q 1150 3584 1784 3584 
Q 2172 3584 2448 3432 
Q 2725 3281 2906 2969 
z
M 947 1747 
Q 947 1113 1208 752 
Q 1469 391 1925 391 
Q 2381 391 2643 752 
Q 2906 1113 2906 1747 
Q 2906 2381 2643 2742 
Q 2381 3103 1925 3103 
Q 1469 3103 1208 2742 
Q 947 2381 947 1747 
z
" transform="scale(0.015625)"/>
      </defs>
      <use xlink:href="#DejaVuSans-72"/>
      <use xlink:href="#DejaVuSans-6f" x="38.863281"/>
      <use xlink:href="#DejaVuSans-75" x="100.044922"/>
      <use xlink:href="#DejaVuSans-6e" x="163.423828"/>
      <use xlink:href="#DejaVuSans-64" x="226.802734"/>
     </g>
    </g>
   </g>
   <g id="matplotlib.axis_2">
    <g id="ytick_1">
     <g id="line2d_13">
      <path d="M 54.2 233.206779 
L 565.2 233.206779 
" clip-path="url(#pbc436073bf)" style="fill: none; stroke-dasharray: 2.96,1.28; stroke-dashoffset: 0; stroke: #b0b0b0; stroke-opacity: 0.3; stroke-width: 0.8"/>
     </g>
     <g id="line2d_14">
      <defs>
       <path id="m3120ba0ef0" d="M 0 0 
L -3.5 0 
" style="stroke: #000000; stroke-width: 0.8"/>
      </defs>
      <g>
       <use xlink:href="#m3120ba0ef0" x="54.2" y="233.206779" style="stroke: #000000; stroke-width: 0.8"/>
      </g>
     </g>
     <g id="text_8">
      <!-- 0.70 -->
      <g transform="translate(24.934375 237.005997) scale(0.1 -0.1)">
       <defs>
        <path id="DejaVuSans-2e" d="M 684 794 
L 1344 794 
L 1344 0 
L 684 0 
L 684 794 
z
" transform="scale(0.015625)"/>
        <path id="DejaVuSans-37" d="M 525 4666 
L 3525 4666 
L 3525 4397 
L 1831 0 
L 1172 0 
L 2766 4134 
L 525 4134 
L 525 4666 
z
" transform="scale(0.015625)"/>
       </defs>
       <use xlink:href="#DejaVuSans-30"/>
       <use xlink:href="#DejaVuSans-2e" x="63.623047"/>
       <use xlink:href="#DejaVuSans-37" x="95.410156"/>
       <use xlink:href="#DejaVuSans-30" x="159.033203"/>
      </g>
     </g>
    </g>
    <g id="ytick_2">
     <g id="line2d_15">
      <path d="M 54.2 200.103972 
L 565.2 200.103972 
" clip-path="url(#pbc436073bf)" style="fill: none; stroke-dasharray: 2.96,1.28; stroke-dashoffset: 0; stroke: #b0b0b0; stroke-opacity: 0.3; stroke-width: 0.8"/>
     </g>
     <g id="line2d_16">
      <g>
       <use xlink:href="#m3120ba0ef0" x="54.2" y="200.103972" style="stroke: #000000; stroke-width: 0.8"/>
      </g>
     </g>
     <g id="text_9">
      <!-- 0.75 -->
      <g transform="translate(24.934375 203.903191) scale(0.1 -0.1)">
       <defs>
        <path id="DejaVuSans-35" d="M 691 4666 
L 3169 4666 
L 3169 4134 
L 1269 4134 
L 1269 2991 
Q 1406 3038 1543 3061 
Q 1681 3084 1819 3084 
Q 2600 3084 3056 2656 
Q 3513 2228 3513 1497 
Q 3513 744 3044 326 
Q 2575 -91 1722 -91 
Q 1428 -91 1123 -41 
Q 819 9 494 109 
L 494 744 
Q 775 591 1075 516 
Q 1375 441 1709 441 
Q 2250 441 2565 725 
Q 2881 1009 2881 1497 
Q 2881 1984 2565 2268 
Q 2250 2553 1709 2553 
Q 1456 2553 1204 2497 
Q 953 2441 691 2322 
L 691 4666 
z
" transform="scale(0.015625)"/>
       </defs>
       <use xlink:href="#DejaVuSans-30"/>
       <use xlink:href="#DejaVuSans-2e" x="63.623047"/>
       <use xlink:href="#DejaVuSans-37" x="95.410156"/>
       <use xlink:href="#DejaVuSans-35" x="159.033203"/>
      </g>
     </g>
    </g>
    <g id="ytick_3">
     <g id="line2d_17">
      <path d="M 54.2 167.001166 
L 565.2 167.001166 
" clip-path="url(#pbc436073bf)" style="fill: none; stroke-dasharray: 2.96,1.28; stroke-dashoffset: 0; stroke: #b0b0b0; stroke-opacity: 0.3; stroke-width: 0.8"/>
     </g>
     <g id="line2d_18">
      <g>
       <use xlink:href="#m3120ba0ef0" x="54.2" y="167.001166" style="stroke: #000000; stroke-width: 0.8"/>
      </g>
     </g>
     <g id="text_10">
      <!-- 0.80 -->
      <g transform="translate(24.934375 170.800385) scale(0.1 -0.1)">
       <use xlink:href="#DejaVuSans-30"/>
       <use xlink:href="#DejaVuSans-2e" x="63.623047"/>
       <use xlink:href="#DejaVuSans-38" x="95.410156"/>
       <use xlink:href="#DejaVuSans-30" x="159.033203"/>
      </g>
     </g>
    </g>
    <g id="ytick_4">
     <g id="line2d_19">
      <path d="M 54.2 133.89836 
L 565.2 133.89836 
" clip-path="url(#pbc436073bf)" style="fill: none; stroke-dasharray: 2.96,1.28; stroke-dashoffset: 0; stroke: #b0b0b0; stroke-opacity: 0.3; stroke-width: 0.8"/>
     </g>
     <g id="line2d_20">
      <g>
       <use xlink:href="#m3120ba0ef0" x="54.2" y="133.89836" style="stroke: #000000; stroke-width: 0.8"/>
      </g>
     </g>
     <g id="text_11">
      <!-- 0.85 -->
      <g transform="translate(24.934375 137.697578) scale(0.1 -0.1)">
       <use xlink:href="#DejaVuSans-30"/>
       <use xlink:href="#DejaVuSans-2e" x="63.623047"/>
       <use xlink:href="#DejaVuSans-38" x="95.410156"/>
       <use xlink:href="#DejaVuSans-35" x="159.033203"/>
      </g>
     </g>
    </g>
    <g id="ytick_5">
     <g id="line2d_21">
      <path d="M 54.2 100.795553 
L 565.2 100.795553 
" clip-path="url(#pbc436073bf)" style="fill: none; stroke-dasharray: 2.96,1.28; stroke-dashoffset: 0; stroke: #b0b0b0; stroke-opacity: 0.3; stroke-width: 0.8"/>
     </g>
     <g id="line2d_22">
      <g>
       <use xlink:href="#m3120ba0ef0" x="54.2" y="100.795553" style="stroke: #000000; stroke-width: 0.8"/>
      </g>
     </g>
     <g id="text_12">
      <!-- 0.90 -->
      <g transform="translate(24.934375 104.594772) scale(0.1 -0.1)">
       <defs>
        <path id="DejaVuSans-39" d="M 703 97 
L 703 672 
Q 941 559 1184 500 
Q 1428 441 1663 441 
Q 2288 441 2617 861 
Q 2947 1281 2994 2138 
Q 2813 1869 2534 1725 
Q 2256 1581 1919 1581 
Q 1219 1581 811 2004 
Q 403 2428 403 3163 
Q 403 3881 828 4315 
Q 1253 4750 1959 4750 
Q 2769 4750 3195 4129 
Q 3622 3509 3622 2328 
Q 3622 1225 3098 567 
Q 2575 -91 1691 -91 
Q 1453 -91 1209 -44 
Q 966 3 703 97 
z
M 1959 2075 
Q 2384 2075 2632 2365 
Q 2881 2656 2881 3163 
Q 2881 3666 2632 3958 
Q 2384 4250 1959 4250 
Q 1534 4250 1286 3958 
Q 1038 3666 1038 3163 
Q 1038 2656 1286 2365 
Q 1534 2075 1959 2075 
z
" transform="scale(0.015625)"/>
       </defs>
       <use xlink:href="#DejaVuSans-30"/>
       <use xlink:href="#DejaVuSans-2e" x="63.623047"/>
       <use xlink:href="#DejaVuSans-39" x="95.410156"/>
       <use xlink:href="#DejaVuSans-30" x="159.033203"/>
      </g>
     </g>
    </g>
    <g id="ytick_6">
     <g id="line2d_23">
      <path d="M 54.2 67.692747 
L 565.2 67.692747 
" clip-path="url(#pbc436073bf)" style="fill: none; stroke-dasharray: 2.96,1.28; stroke-dashoffset: 0; stroke: #b0b0b0; stroke-opacity: 0.3; stroke-width: 0.8"/>
     </g>
     <g id="line2d_24">
      <g>
       <use xlink:href="#m3120ba0ef0" x="54.2" y="67.692747" style="stroke: #000000; stroke-width: 0.8"/>
      </g>
     </g>
     <g id="text_13">
      <!-- 0.95 -->
      <g transform="translate(24.934375 71.491966) scale(0.1 -0.1)">
       <use xlink:href="#DejaVuSans-30"/>
       <use xlink:href="#DejaVuSans-2e" x="63.623047"/>
       <use xlink:href="#DejaVuSans-39" x="95.410156"/>
       <use xlink:href="#DejaVuSans-35" x="159.033203"/>
      </g>
     </g>
    </g>
    <g id="ytick_7">
     <g id="line2d_25">
      <path d="M 54.2 34.589941 
L 565.2 34.589941 
" clip-path="url(#pbc436073bf)" style="fill: none; stroke-dasharray: 2.96,1.28; stroke-dashoffset: 0; stroke: #b0b0b0; stroke-opacity: 0.3; stroke-width: 0.8"/>
     </g>
     <g id="line2d_26">
      <g>
       <use xlink:href="#m3120ba0ef0" x="54.2" y="34.589941" style="stroke: #000000; stroke-width: 0.8"/>
      </g>
     </g>
     <g id="text_14">
      <!-- 1.00 -->
      <g transform="translate(24.934375 38.389159) scale(0.1 -0.1)">
       <use xlink:href="#DejaVuSans-31"/>
       <use xlink:href="#DejaVuSans-2e" x="63.623047"/>
       <use xlink:href="#DejaVuSans-30" x="95.410156"/>
       <use xlink:href="#DejaVuSans-30" x="159.033203"/>
      </g>
     </g>
    </g>
    <g id="text_15">
     <!-- cumulative timely transfer rate -->
     <g transform="translate(18.854688 221.048594) rotate(-90) scale(0.1 -0.1)">
      <defs>
       <path id="DejaVuSans-63" d="M 3122 3366 
L 3122 2828 
Q 2878 2963 2633 3030 
Q 2388 3097 2138 3097 
Q 1578 3097 1268 2742 
Q 959 2388 959 1747 
Q 959 1106 1268 751 
Q 1578 397 2138 397 
Q 2388 397 2633 464 
Q 2878 531 3122 666 
L 3122 134 
Q 2881 22 2623 -34 
Q 2366 -91 2075 -91 
Q 1284 -91 818 406 
Q 353 903 353 1747 
Q 353 2603 823 3093 
Q 1294 3584 2113 3584 
Q 2378 3584 2631 3529 
Q 2884 3475 3122 3366 
z
" transform="scale(0.015625)"/>
       <path id="DejaVuSans-6d" d="M 3328 2828 
Q 3544 3216 3844 3400 
Q 4144 3584 4550 3584 
Q 5097 3584 5394 3201 
Q 5691 2819 5691 2113 
L 5691 0 
L 5113 0 
L 5113 2094 
Q 5113 2597 4934 2840 
Q 4756 3084 4391 3084 
Q 3944 3084 3684 2787 
Q 3425 2491 3425 1978 
L 3425 0 
L 2847 0 
L 2847 2094 
Q 2847 2600 2669 2842 
Q 2491 3084 2119 3084 
Q 1678 3084 1418 2786 
Q 1159 2488 1159 1978 
L 1159 0 
L 581 0 
L 581 3500 
L 1159 3500 
L 1159 2956 
Q 1356 3278 1631 3431 
Q 1906 3584 2284 3584 
Q 2666 3584 2933 3390 
Q 3200 3197 3328 2828 
z
" transform="scale(0.015625)"/>
       <path id="DejaVuSans-6c" d="M 603 4863 
L 1178 4863 
L 1178 0 
L 603 0 
L 603 4863 
z
" transform="scale(0.015625)"/>
       <path id="DejaVuSans-61" d="M 2194 1759 
Q 1497 1759 1228 1600 
Q 959 1441 959 1056 
Q 959 750 1161 570 
Q 1363 391 1709 391 
Q 2188 391 2477 730 
Q 2766 1069 2766 1631 
L 2766 1759 
L 2194 1759 
z
M 3341 1997 
L 3341 0 
L 2766 0 
L 2766 531 
Q 2569 213 2275 61 
Q 1981 -91 1556 -91 
Q 1019 -91 701 211 
Q 384 513 384 1019 
Q 384 1609 779 1909 
Q 1175 2209 1959 2209 
L 2766 2209 
L 2766 2266 
Q 2766 2663 2505 2880 
Q 2244 3097 1772 3097 
Q 1472 3097 1187 3025 
Q 903 2953 641 2809 
L 641 3341 
Q 956 3463 1253 3523 
Q 1550 3584 1831 3584 
Q 2591 3584 2966 3190 
Q 3341 2797 3341 1997 
z
" transform="scale(0.015625)"/>
       <path id="DejaVuSans-74" d="M 1172 4494 
L 1172 3500 
L 2356 3500 
L 2356 3053 
L 1172 3053 
L 1172 1153 
Q 1172 725 1289 603 
Q 1406 481 1766 481 
L 2356 481 
L 2356 0 
L 1766 0 
Q 1100 0 847 248 
Q 594 497 594 1153 
L 594 3053 
L 172 3053 
L 172 3500 
L 594 3500 
L 594 4494 
L 1172 4494 
z
" transform="scale(0.015625)"/>
       <path id="DejaVuSans-69" d="M 603 3500 
L 1178 3500 
L 1178 0 
L 603 0 
L 603 3500 
z
M 603 4863 
L 1178 4863 
L 1178 4134 
L 603 4134 
L 603 4863 
z
" transform="scale(0.015625)"/>
       <path id="DejaVuSans-76" d="M 191 3500 
L 800 3500 
L 1894 563 
L 2988 3500 
L 3597 3500 
L 2284 0 
L 1503 0 
L 191 3500 
z
" transform="scale(0.015625)"/>
       <path id="DejaVuSans-65" d="M 3597 1894 
L 3597 1613 
L 953 1613 
Q 991 1019 1311 708 
Q 1631 397 2203 397 
Q 2534 397 2845 478 
Q 3156 559 3463 722 
L 3463 178 
Q 3153 47 2828 -22 
Q 2503 -91 2169 -91 
Q 1331 -91 842 396 
Q 353 884 353 1716 
Q 353 2575 817 3079 
Q 1281 3584 2069 3584 
Q 2775 3584 3186 3129 
Q 3597 2675 3597 1894 
z
M 3022 2063 
Q 3016 2534 2758 2815 
Q 2500 3097 2075 3097 
Q 1594 3097 1305 2825 
Q 1016 2553 972 2059 
L 3022 2063 
z
" transform="scale(0.015625)"/>
       <path id="DejaVuSans-20" transform="scale(0.015625)"/>
       <path id="DejaVuSans-79" d="M 2059 -325 
Q 1816 -950 1584 -1140 
Q 1353 -1331 966 -1331 
L 506 -1331 
L 506 -850 
L 844 -850 
Q 1081 -850 1212 -737 
Q 1344 -625 1503 -206 
L 1606 56 
L 191 3500 
L 800 3500 
L 1894 763 
L 2988 3500 
L 3597 3500 
L 2059 -325 
z
" transform="scale(0.015625)"/>
       <path id="DejaVuSans-73" d="M 2834 3397 
L 2834 2853 
Q 2591 2978 2328 3040 
Q 2066 3103 1784 3103 
Q 1356 3103 1142 2972 
Q 928 2841 928 2578 
Q 928 2378 1081 2264 
Q 1234 2150 1697 2047 
L 1894 2003 
Q 2506 1872 2764 1633 
Q 3022 1394 3022 966 
Q 3022 478 2636 193 
Q 2250 -91 1575 -91 
Q 1294 -91 989 -36 
Q 684 19 347 128 
L 347 722 
Q 666 556 975 473 
Q 1284 391 1588 391 
Q 1994 391 2212 530 
Q 2431 669 2431 922 
Q 2431 1156 2273 1281 
Q 2116 1406 1581 1522 
L 1381 1569 
Q 847 1681 609 1914 
Q 372 2147 372 2553 
Q 372 3047 722 3315 
Q 1072 3584 1716 3584 
Q 2034 3584 2315 3537 
Q 2597 3491 2834 3397 
z
" transform="scale(0.015625)"/>
       <path id="DejaVuSans-66" d="M 2375 4863 
L 2375 4384 
L 1825 4384 
Q 1516 4384 1395 4259 
Q 1275 4134 1275 3809 
L 1275 3500 
L 2222 3500 
L 2222 3053 
L 1275 3053 
L 1275 0 
L 697 0 
L 697 3053 
L 147 3053 
L 147 3500 
L 697 3500 
L 697 3744 
Q 697 4328 969 4595 
Q 1241 4863 1831 4863 
L 2375 4863 
z
" transform="scale(0.015625)"/>
      </defs>
      <use xlink:href="#DejaVuSans-63"/>
      <use xlink:href="#DejaVuSans-75" x="54.980469"/>
      <use xlink:href="#DejaVuSans-6d" x="118.359375"/>
      <use xlink:href="#DejaVuSans-75" x="215.771484"/>
      <use xlink:href="#DejaVuSans-6c" x="279.150391"/>
      <use xlink:href="#DejaVuSans-61" x="306.933594"/>
      <use xlink:href="#DejaVuSans-74" x="368.212891"/>
      <use xlink:href="#DejaVuSans-69" x="407.421875"/>
      <use xlink:href="#DejaVuSans-76" x="435.205078"/>
      <use xlink:href="#DejaVuSans-65" x="494.384766"/>
      <use xlink:href="#DejaVuSans-20" x="555.908203"/>
      <use xlink:href="#DejaVuSans-74" x="587.695312"/>
      <use xlink:href="#DejaVuSans-69" x="626.904297"/>
      <use xlink:href="#DejaVuSans-6d" x="654.6875"/>
      <use xlink:href="#DejaVuSans-65" x="752.099609"/>
      <use xlink:href="#DejaVuSans-6c" x="813.623047"/>
      <use xlink:href="#DejaVuSans-79" x="841.40625"/>
      <use xlink:href="#DejaVuSans-20" x="900.585938"/>
      <use xlink:href="#DejaVuSans-74" x="932.373047"/>
      <use xlink:href="#DejaVuSans-72" x="971.582031"/>
      <use xlink:href="#DejaVuSans-61" x="1012.695312"/>
      <use xlink:href="#DejaVuSans-6e" x="1073.974609"/>
      <use xlink:href="#DejaVuSans-73" x="1137.353516"/>
      <use xlink:href="#DejaVuSans-66" x="1189.453125"/>
      <use xlink:href="#DejaVuSans-65" x="1224.658203"/>
      <use xlink:href="#DejaVuSans-72" x="1286.181641"/>
      <use xlink:href="#DejaVuSans-20" x="1327.294922"/>
      <use xlink:href="#DejaVuSans-72" x="1359.082031"/>
      <use xlink:href="#DejaVuSans-61" x="1400.195312"/>
      <use xlink:href="#DejaVuSans-74" x="1461.474609"/>
      <use xlink:href="#DejaVuSans-65" x="1500.683594"/>
     </g>
    </g>
   </g>
   <g id="line2d_27">
    <path d="M 77.427273 190.367853 
L 77.472528 249.758182 
L 77.517783 235.213009 
L 77.563039 219.34979 
L 77.608294 229.660049 
L 77.653549 237.556052 
L 77.970336 164.63668 
L 78.015591 167.444013 
L 78.241868 144.662842 
L 78.60391 111.154255 
L 78.784931 100.698335 
L 78.830186 102.108412 
L 78.875442 103.328008 
L 79.282739 86.355646 
L 79.509016 80.290454 
L 79.644781 87.981564 
L 79.690037 86.741957 
L 79.871058 83.120289 
L 79.916313 84.056776 
L 79.961568 85.027648 
L 80.006824 84.183963 
L 80.595142 73.93892 
L 81.183461 67.17082 
L 81.636014 63.869366 
L 81.681269 63.546111 
L 81.817035 73.981873 
L 81.907545 73.518626 
L 81.952801 73.283265 
L 82.269588 92.310184 
L 82.314843 91.840914 
L 82.495864 90.659841 
L 82.722141 102.68329 
L 82.767396 102.110306 
L 84.396586 81.651211 
L 84.577607 80.112703 
L 84.713373 81.428113 
L 85.03016 79.293813 
L 85.075415 79.717737 
L 85.12067 80.688463 
L 85.211181 80.28606 
L 85.256436 80.147334 
L 85.392202 80.837957 
L 85.437457 80.464696 
L 85.618479 81.888795 
L 85.89001 80.540188 
L 86.025776 79.752324 
L 86.116287 81.086039 
L 86.161542 80.774323 
L 86.433074 79.307767 
L 86.840371 76.279769 
L 86.976137 77.094665 
L 87.021392 76.830912 
L 87.111903 77.772027 
L 87.157158 77.549752 
L 88.017008 73.561972 
L 88.198029 72.741395 
L 88.243285 74.419033 
L 88.333795 74.168399 
L 88.560072 73.555399 
L 88.605327 75.275944 
L 88.695838 74.85011 
L 88.786348 74.501126 
L 88.876859 77.314309 
L 88.922114 77.12141 
L 88.967369 76.897646 
L 89.193646 80.265981 
L 89.238901 79.989941 
L 89.329412 79.502484 
L 89.374667 80.699712 
L 89.419922 80.422143 
L 89.646198 78.968849 
L 89.691454 79.606383 
L 89.736709 79.326552 
L 90.460794 75.084569 
L 90.732325 77.616228 
L 90.913346 76.851639 
L 90.958602 76.965718 
L 91.003857 77.18367 
L 91.049112 76.992088 
L 91.411154 75.325179 
L 91.45641 75.402042 
L 91.773197 74.02854 
L 91.954218 76.136684 
L 92.135239 75.58039 
L 92.180494 75.975594 
L 92.225749 75.75523 
L 92.271005 75.52671 
L 92.31626 75.820794 
L 92.361515 75.629022 
L 92.497281 76.996872 
L 92.542536 76.824271 
L 92.678302 76.345636 
L 92.723558 76.772899 
L 92.768813 76.594478 
L 93.221366 74.901417 
L 93.402387 76.190326 
L 93.809684 74.44456 
L 93.85494 74.913877 
L 93.900195 74.760598 
L 93.94545 74.56849 
L 93.990705 74.819943 
L 94.035961 74.632338 
L 94.081216 75.023335 
L 94.126471 74.864829 
L 94.171727 74.676812 
L 94.352748 76.566248 
L 94.398003 76.354637 
L 94.669535 75.550986 
L 94.71479 76.351149 
L 94.8053 75.987553 
L 95.076832 75.091898 
L 95.167343 75.305298 
L 95.212598 75.114581 
L 95.303109 75.210448 
L 95.710406 73.789846 
L 95.755661 74.075444 
L 95.800917 73.955226 
L 95.846172 73.784419 
L 95.891427 74.016239 
L 96.208214 73.182388 
L 96.34398 72.803749 
L 96.570256 74.205875 
L 96.615512 74.061316 
L 96.887043 73.343378 
L 96.932299 74.343132 
L 97.022809 74.130258 
L 97.068064 74.58015 
L 97.158575 74.378606 
L 97.837404 72.598822 
L 97.97317 73.603782 
L 98.018425 73.488971 
L 98.154191 73.189326 
L 98.199446 73.622427 
L 98.244702 73.540273 
L 98.470978 72.986122 
L 98.516233 73.246822 
L 98.561489 73.108389 
L 99.059297 71.750308 
L 99.240318 73.13017 
L 99.285573 73.02235 
L 99.557105 72.273838 
L 99.60236 72.551805 
L 99.647615 72.460393 
L 99.738126 72.234628 
L 99.828637 72.700306 
L 99.873892 72.592804 
L 99.964402 72.416661 
L 100.009658 72.667871 
L 100.054913 72.543136 
L 100.914763 70.569742 
L 101.322061 69.696102 
L 101.457827 70.579737 
L 101.503082 70.511093 
L 101.548337 70.721587 
L 101.593593 70.644223 
L 101.638848 70.574444 
L 101.774614 70.806063 
L 101.819869 70.710734 
L 102.00089 71.860512 
L 102.046145 71.779706 
L 102.408188 71.06933 
L 102.498698 71.609554 
L 102.543953 71.520203 
L 102.634464 71.369433 
L 102.86074 73.292071 
L 102.905996 73.220681 
L 103.132272 74.261498 
L 103.222783 74.111277 
L 103.494314 74.806267 
L 103.584825 74.605778 
L 103.63008 74.78157 
L 103.675335 74.875872 
L 103.720591 74.765281 
L 104.354165 73.541222 
L 104.39942 74.374195 
L 104.48993 74.260874 
L 104.535186 74.187972 
L 104.580441 74.333466 
L 104.625696 74.286767 
L 104.806717 74.219981 
L 104.897228 75.324541 
L 105.032994 75.127668 
L 105.078249 75.024452 
L 105.123504 75.343582 
L 105.16876 75.252712 
L 105.621312 74.548046 
L 105.983355 77.690181 
L 106.02861 77.628137 
L 106.073865 77.566273 
L 106.300142 78.331251 
L 106.526418 77.946693 
L 106.571673 78.124491 
L 106.616929 78.070151 
L 106.707439 77.931436 
L 106.843205 78.361378 
L 107.205247 77.994917 
L 107.341013 78.628921 
L 107.522034 78.289676 
L 107.56729 78.568387 
L 107.612545 78.485427 
L 107.929332 78.046533 
L 107.974587 78.302065 
L 108.065098 78.275763 
L 108.110353 78.183186 
L 108.155608 78.518973 
L 108.200863 78.435511 
L 108.472395 77.946492 
L 108.834437 79.104289 
L 108.879693 79.045527 
L 109.015459 79.178497 
L 109.060714 79.259716 
L 109.105969 79.171551 
L 111.459244 75.551386 
L 111.504499 75.606575 
L 112.183328 74.768564 
L 112.228583 74.979688 
L 112.273839 74.903284 
L 112.409605 74.739071 
L 112.45486 74.857842 
L 112.500115 75.014949 
L 112.54537 74.95042 
L 112.635881 74.832142 
L 112.681136 75.011159 
L 112.726392 74.957182 
L 113.31471 74.120556 
L 113.359965 74.159986 
L 113.405221 74.08992 
L 113.767263 73.786394 
L 113.857774 74.236614 
L 113.948284 74.09492 
L 114.581858 73.224474 
L 114.627113 73.426115 
L 114.672369 73.355766 
L 114.989156 73.006379 
L 115.124921 73.137716 
L 115.803751 72.391229 
L 115.849006 72.479599 
L 115.984772 73.061416 
L 116.075282 72.939345 
L 116.618346 72.302833 
L 116.663601 72.629894 
L 116.754111 72.534301 
L 116.980388 72.289976 
L 117.025643 72.420892 
L 117.070898 72.37873 
L 117.206664 72.230675 
L 117.25192 72.443506 
L 117.297175 72.38191 
L 117.749728 71.970243 
L 117.794983 72.214803 
L 117.885494 72.111391 
L 118.428557 71.631344 
L 118.473812 71.780992 
L 118.519067 71.730484 
L 118.654833 71.592869 
L 118.700089 71.7637 
L 118.745344 71.706624 
L 119.333662 71.252261 
L 119.469428 71.506918 
L 119.514684 71.451467 
L 119.605194 71.365623 
L 119.74096 71.569748 
L 120.193513 71.258599 
L 120.736576 70.711789 
L 120.781831 70.927676 
L 120.872342 70.843019 
L 120.917597 70.98756 
L 121.008108 70.908743 
L 121.053363 70.876181 
L 121.27964 71.190458 
L 121.460661 71.067426 
L 121.505916 71.133742 
L 121.686937 70.965253 
L 121.822703 71.116039 
L 123.587659 69.870635 
L 123.632914 70.124129 
L 123.723425 70.055288 
L 124.085467 69.822188 
L 124.130722 70.066237 
L 124.221233 70.007151 
L 124.447509 69.799988 
L 124.53802 70.146149 
L 124.62853 70.095164 
L 126.121955 69.055179 
L 126.16721 69.274582 
L 126.25772 69.211067 
L 126.302976 69.168654 
L 126.438742 69.48475 
L 126.483997 69.441585 
L 126.846039 69.309141 
L 126.891294 69.387553 
L 126.93655 69.346734 
L 127.162826 69.276431 
L 127.208081 69.512148 
L 127.298592 69.451461 
L 127.751145 69.080204 
L 127.7964 69.186829 
L 127.886911 69.115996 
L 128.339463 68.789242 
L 128.384719 68.924834 
L 128.475229 68.855986 
L 128.520484 68.929244 
L 128.610995 68.870707 
L 129.154058 68.467019 
L 129.199314 68.587678 
L 129.244569 68.720738 
L 129.335079 68.648611 
L 129.742377 68.503493 
L 130.104419 68.384746 
L 130.149675 68.467666 
L 130.19493 68.424678 
L 130.511717 68.207125 
L 130.556972 68.367782 
L 130.647483 68.31998 
L 131.597844 67.690193 
L 131.688354 67.758022 
L 131.733609 67.729943 
L 132.276673 67.369687 
L 132.321928 67.542687 
L 132.367183 67.73249 
L 132.457694 67.675672 
L 133.45331 67.020314 
L 133.498565 67.121382 
L 133.589076 67.07554 
L 134.132139 66.732267 
L 134.177395 66.84321 
L 134.267905 66.789851 
L 136.62118 65.588696 
L 136.666435 65.744759 
L 136.756945 65.688959 
L 137.435775 65.297943 
L 137.48103 65.393027 
L 137.571541 65.347166 
L 138.702923 64.722418 
L 138.748178 64.693958 
L 138.838688 64.879566 
L 138.883944 64.848594 
L 139.291241 64.619111 
L 139.381752 64.934069 
L 139.427007 64.904173 
L 139.789049 64.703302 
L 139.87956 64.844465 
L 139.924815 64.82848 
L 140.6489 64.799353 
L 169.204982 64.903722 
L 169.386003 64.953719 
L 190.203432 65.049673 
L 190.565474 65.06633 
L 208.396055 65.165445 
L 208.758097 65.182095 
L 217.582877 65.265333 
L 217.763898 65.323586 
L 227.946336 65.430929 
L 228.217867 65.455882 
L 240.934601 65.562357 
L 241.296643 65.578985 
L 246.093703 65.652163 
L 246.31998 65.710337 
L 258.538905 65.790958 
L 258.765182 65.824184 
L 266.911132 65.923016 
L 267.31843 65.96453 
L 276.369486 66.061655 
L 276.731528 66.078252 
L 283.927118 66.184451 
L 284.560692 66.192746 
L 294.83364 66.283144 
L 295.059917 66.316312 
L 303.613165 66.415794 
L 303.884696 66.44066 
L 308.500735 66.547549 
L 308.772267 66.572403 
L 318.366386 66.670806 
L 318.637918 66.695643 
L 323.932786 66.792011 
L 324.159062 66.825111 
L 335.020329 66.924592 
L 335.246606 66.95767 
L 345.700576 67.039922 
L 345.926852 67.072987 
L 350.045083 67.163898 
L 350.271359 67.19695 
L 362.128242 67.299623 
L 362.354519 67.332655 
L 370.183682 67.427855 
L 370.455214 67.45003 
L 375.297529 67.547753 
L 375.659571 67.564253 
L 386.837626 67.674087 
L 387.199668 67.688842 
L 393.852194 67.785149 
L 394.033215 67.826352 
L 402.405442 67.931708 
L 402.767484 67.948181 
L 406.976225 68.043498 
L 407.247757 68.068196 
L 409.374755 68.150509 
L 409.646287 68.215464 
L 414.352836 68.321808 
L 414.533857 68.362921 
L 416.027282 68.461572 
L 416.253558 68.494449 
L 422.046234 68.599495 
L 422.227255 68.648785 
L 425.757167 68.74734 
L 426.028699 68.771975 
L 427.83891 68.8787 
L 428.472484 68.886908 
L 433.541075 68.993595 
L 433.812607 69.018209 
L 437.070987 69.115747 
L 437.252008 69.156753 
L 439.786304 69.222352 
L 439.967325 69.271543 
L 444.402342 69.345314 
L 444.583364 69.38629 
L 449.154147 69.482789 
L 449.380423 69.515554 
L 453.046101 69.595624 
L 453.272377 69.652938 
L 457.481119 69.742981 
L 457.797906 69.792084 
L 460.92052 69.897066 
L 461.192052 69.921606 
L 466.124877 70.026072 
L 466.396409 70.099651 
L 477.0314 70.203113 
L 477.212421 70.243966 
L 481.91897 70.323791 
L 482.190502 70.387723 
L 493.051769 70.498274 
L 493.459067 70.530919 
L 496.898468 70.623668 
L 497.124744 70.680293 
L 502.510123 70.768578 
L 502.691144 70.80934 
L 506.85463 70.903364 
L 507.126161 70.927809 
L 511.923221 71.010784 
L 512.149497 71.043359 
L 517.670642 71.124782 
L 517.896918 71.189904 
L 525.45455 71.266517 
L 525.635571 71.307196 
L 532.785905 71.390928 
L 533.012182 71.423453 
L 538.171284 71.532943 
L 538.442815 71.557323 
L 541.972727 71.556843 
L 541.972727 71.556843 
" clip-path="url(#pbc436073bf)" style="fill: none; stroke: #1f77b4; stroke-width: 1.8; stroke-linecap: square"/>
   </g>
   <g id="line2d_28">
    <path d="M 77.427273 61.797727 
L 77.472528 49.19412 
L 77.608294 93.959104 
L 77.653549 95.863758 
L 77.74406 81.069908 
L 77.789315 86.990121 
L 77.83457 87.233218 
L 77.925081 77.751611 
L 77.970336 81.204096 
L 78.015591 84.650895 
L 78.060847 81.05002 
L 78.106102 82.660022 
L 78.151357 94.174992 
L 78.241868 93.952947 
L 78.558655 80.491605 
L 78.830186 91.120185 
L 78.875442 90.094848 
L 79.011208 85.725356 
L 79.056463 87.172016 
L 79.146973 84.642294 
L 79.192229 88.049261 
L 79.237484 86.659353 
L 79.282739 85.533528 
L 79.37325 88.712779 
L 79.418505 87.515371 
L 79.690037 84.043896 
L 79.780547 85.272863 
L 79.961568 83.206784 
L 80.097334 86.98181 
L 80.14259 86.188168 
L 80.459377 81.701566 
L 80.549887 83.958836 
L 80.595142 83.159226 
L 80.776163 81.802631 
L 80.957185 86.806525 
L 81.047695 85.42342 
L 81.09295 84.767287 
L 81.228716 85.974669 
L 81.319227 85.254864 
L 81.364482 85.902612 
L 81.454993 85.793739 
L 81.726524 82.690039 
L 81.998056 86.85753 
L 82.043311 86.287238 
L 82.133822 86.502518 
L 82.179077 87.209275 
L 82.224332 87.12611 
L 82.314843 86.200076 
L 82.405354 87.502808 
L 82.450609 87.055369 
L 82.676885 85.799546 
L 82.767396 87.353285 
L 82.812651 86.832107 
L 82.857906 86.436377 
L 82.903162 86.469934 
L 83.038928 88.095937 
L 83.219949 87.130781 
L 83.310459 87.079975 
L 83.355714 87.632813 
L 83.40097 87.395677 
L 83.446225 87.538426 
L 83.536736 88.092741 
L 83.763012 86.100751 
L 83.808267 86.245489 
L 83.898778 86.415383 
L 83.944033 86.107756 
L 83.989288 86.493189 
L 84.034544 86.801805 
L 84.079799 86.46052 
L 84.17031 85.69956 
L 84.26082 85.81455 
L 84.306075 85.490486 
L 84.487096 87.422633 
L 84.577607 86.755678 
L 84.713373 87.702241 
L 84.849139 86.863232 
L 84.894394 87.00339 
L 84.984905 87.824593 
L 85.03016 87.535389 
L 85.075415 87.575457 
L 85.12067 87.788546 
L 85.211181 87.166049 
L 85.301692 87.240162 
L 85.844755 84.11817 
L 85.89001 85.006849 
L 85.935265 84.735635 
L 85.980521 84.421107 
L 86.025776 84.888735 
L 86.071031 84.626079 
L 86.252052 83.816344 
L 86.433074 83.168859 
L 86.568839 83.734349 
L 86.65935 83.317622 
L 86.840371 85.870539 
L 86.930882 85.837407 
L 86.976137 86.111818 
L 87.021392 85.915382 
L 87.111903 85.427584 
L 87.157158 85.977118 
L 87.247669 85.855986 
L 87.292924 85.87021 
L 87.473945 84.984777 
L 87.5192 85.289375 
L 87.564456 85.118217 
L 87.700221 84.777939 
L 87.835987 85.957707 
L 87.971753 85.216182 
L 88.017008 85.385033 
L 88.062264 85.511484 
L 88.198029 86.978012 
L 88.243285 86.773914 
L 88.514816 88.86878 
L 88.786348 87.719882 
L 88.831603 87.939198 
L 88.876859 88.014069 
L 89.14839 87.161013 
L 89.238901 87.694578 
L 89.284156 87.516088 
L 89.510433 86.572611 
L 89.600943 87.156843 
L 89.646198 86.953709 
L 89.691454 86.79912 
L 89.736709 86.969574 
L 89.872475 87.877226 
L 89.91773 87.693784 
L 89.962985 88.374499 
L 90.008241 88.203746 
L 90.460794 86.718871 
L 90.596559 87.302595 
L 90.641815 87.084805 
L 90.68707 87.978107 
L 90.732325 87.761752 
L 90.822836 87.382492 
L 90.868091 87.601498 
L 91.003857 87.382437 
L 91.049112 87.887541 
L 91.094367 87.691927 
L 91.230133 87.220789 
L 91.275389 87.34027 
L 91.320644 87.45285 
L 91.411154 87.075654 
L 91.54692 87.795231 
L 91.592176 87.684879 
L 91.637431 87.742531 
L 91.727941 88.423926 
L 91.773197 88.283901 
L 91.954218 87.610183 
L 91.999473 87.930034 
L 92.044728 87.771589 
L 92.31626 87.03003 
L 92.361515 86.838987 
L 92.452026 86.895824 
L 92.497281 86.749333 
L 92.542536 86.962625 
L 92.587792 86.964416 
L 92.814068 86.26454 
L 92.859323 86.401204 
L 92.995089 86.908827 
L 93.130855 86.452764 
L 93.17611 86.716905 
L 93.221366 86.622008 
L 93.311876 86.337384 
L 93.357131 86.395292 
L 93.402387 86.499519 
L 93.447642 86.337147 
L 93.492897 86.16402 
L 93.583408 86.242725 
L 93.673918 86.019271 
L 93.719174 86.451169 
L 93.764429 86.286395 
L 93.809684 86.116905 
L 93.85494 86.253493 
L 93.900195 86.43697 
L 93.94545 86.277895 
L 94.126471 85.997905 
L 94.216982 86.826446 
L 94.307492 86.533301 
L 94.352748 86.372068 
L 94.398003 86.525726 
L 94.443258 86.810596 
L 94.488513 86.69643 
L 94.669535 86.451004 
L 94.71479 86.922229 
L 94.760045 86.805885 
L 94.850556 86.547363 
L 94.941066 86.606158 
L 94.986322 86.836274 
L 95.031577 86.716356 
L 95.212598 86.210117 
L 95.257853 86.326928 
L 95.303109 86.234721 
L 95.348364 86.80157 
L 95.393619 86.659236 
L 95.891427 85.265679 
L 96.027193 85.859107 
L 96.525001 84.620703 
L 96.660767 84.783287 
L 96.932299 84.026777 
L 96.977554 84.060905 
L 97.022809 84.259086 
L 97.068064 84.157289 
L 97.565873 83.35402 
L 97.656383 83.70135 
L 97.701638 83.571426 
L 97.837404 83.217653 
L 97.97317 83.431273 
L 98.244702 82.740532 
L 98.289957 82.910698 
L 98.380468 82.703144 
L 98.425723 82.925558 
L 98.470978 82.812484 
L 99.149807 81.534965 
L 99.195063 81.736054 
L 99.240318 81.625976 
L 99.285573 81.517713 
L 99.330828 81.637569 
L 99.376084 81.845714 
L 99.421339 81.742857 
L 99.828637 81.069173 
L 99.873892 81.226442 
L 99.919147 81.134773 
L 100.3717 80.19177 
L 100.416955 80.433442 
L 100.462211 80.329914 
L 100.552721 80.136161 
L 100.688487 80.457814 
L 100.778997 80.25489 
L 100.824253 80.322057 
L 100.869508 80.489542 
L 100.960019 80.464589 
L 101.14104 80.288495 
L 101.186295 80.474519 
L 101.23155 80.382645 
L 101.276806 80.283048 
L 101.322061 80.436805 
L 101.367316 80.358263 
L 101.412571 80.463647 
L 101.548337 80.548591 
L 101.593593 80.454578 
L 101.638848 80.592396 
L 101.774614 80.851932 
L 101.819869 80.773055 
L 101.910379 81.095458 
L 101.955635 80.998402 
L 102.136656 80.800526 
L 102.181911 80.898149 
L 102.227166 80.809408 
L 102.543953 80.351706 
L 102.589209 80.523881 
L 102.634464 80.434067 
L 102.679719 80.34025 
L 102.724975 80.531994 
L 102.77023 80.450311 
L 103.222783 79.801877 
L 103.313293 80.047425 
L 103.358548 79.953868 
L 103.53957 79.613404 
L 103.584825 79.766677 
L 103.63008 79.708782 
L 104.263654 78.778283 
L 104.39942 78.895631 
L 104.761462 78.393303 
L 104.806717 78.598615 
L 104.851973 78.518863 
L 104.897228 78.441311 
L 104.942483 78.605072 
L 104.987739 78.544829 
L 105.304526 78.163463 
L 105.349781 78.280795 
L 105.395036 78.219118 
L 105.576057 78.125905 
L 105.711823 78.311948 
L 105.938099 77.959093 
L 105.983355 78.085915 
L 106.02861 78.024099 
L 106.345397 77.686073 
L 106.481163 77.906604 
L 106.526418 77.845235 
L 107.069481 77.143742 
L 107.114737 77.212665 
L 107.159992 77.15278 
L 107.386268 76.797814 
L 107.431524 76.939003 
L 107.476779 76.870088 
L 107.522034 76.801397 
L 107.56729 76.99401 
L 107.612545 76.921998 
L 107.974587 76.518053 
L 108.019842 76.645305 
L 108.065098 76.576625 
L 108.291374 76.371857 
L 108.336629 76.433429 
L 108.381885 76.364183 
L 108.743927 76.020362 
L 108.834437 76.011596 
L 109.015459 75.887375 
L 109.105969 76.173755 
L 109.151224 76.105872 
L 109.784798 75.395533 
L 109.920564 75.531498 
L 110.418372 75.079205 
L 110.463628 75.171878 
L 110.508883 75.120833 
L 111.640265 74.07246 
L 111.68552 74.209553 
L 111.730775 74.151943 
L 112.273839 73.662475 
L 112.319094 73.771659 
L 112.364349 73.711746 
L 112.726392 73.402162 
L 112.771647 73.478831 
L 112.816902 73.424705 
L 112.862157 73.373976 
L 112.997923 73.481819 
L 113.948284 72.471181 
L 114.129305 72.407044 
L 114.219816 72.601711 
L 114.310326 72.507536 
L 114.491347 72.321787 
L 114.536603 72.449859 
L 114.581858 72.411744 
L 115.034411 72.093626 
L 115.351198 71.818399 
L 115.396453 72.11392 
L 115.486964 72.028316 
L 115.532219 71.982742 
L 115.577474 72.070267 
L 115.622729 72.185212 
L 115.667985 72.143112 
L 116.256303 71.713349 
L 116.301559 71.861158 
L 116.392069 71.787632 
L 116.799367 71.447749 
L 116.844622 71.549555 
L 117.794983 70.993176 
L 117.840238 71.257634 
L 117.930749 71.201566 
L 118.11177 71.086161 
L 118.157025 71.219654 
L 118.247536 71.164495 
L 118.292791 71.134282 
L 118.338046 71.247247 
L 118.428557 71.192764 
L 118.654833 71.050046 
L 118.790599 71.274581 
L 118.835854 71.244571 
L 118.88111 71.317678 
L 118.97162 71.261465 
L 119.288407 71.184705 
L 119.921981 70.831564 
L 119.967236 70.944827 
L 120.057747 70.892724 
L 120.555555 70.738931 
L 120.827087 70.631711 
L 120.872342 70.788652 
L 120.962853 70.755311 
L 121.189129 70.673502 
L 121.234384 70.868783 
L 121.324895 70.836516 
L 122.13949 70.601129 
L 122.275256 70.671063 
L 122.456277 70.621592 
L 122.592043 70.763168 
L 123.632914 70.499159 
L 123.76868 70.583319 
L 124.266488 70.453104 
L 124.402254 70.53154 
L 125.035828 70.469334 
L 133.724842 70.106699 
L 139.562773 70.092801 
L 150.152509 70.200753 
L 150.469295 70.217727 
L 174.861892 70.319555 
L 175.269189 70.361974 
L 187.940668 70.461326 
L 188.212199 70.486764 
L 195.317278 70.594536 
L 195.58881 70.619962 
L 209.120139 70.726693 
L 209.346415 70.769046 
L 219.664619 70.848338 
L 219.890896 70.882203 
L 227.90108 70.971374 
L 228.127357 71.005221 
L 239.848475 71.11273 
L 240.255772 71.14656 
L 243.514152 71.17094 
L 243.876194 71.187852 
L 256.140376 71.282359 
L 256.592928 71.333063 
L 269.762215 71.441897 
L 270.124257 71.45879 
L 280.442461 71.558132 
L 280.668738 71.591902 
L 290.127091 71.691189 
L 290.398623 71.716505 
L 304.744547 71.814734 
L 305.106589 71.831603 
L 318.275876 71.939217 
L 318.547407 71.964509 
L 326.376571 72.065153 
L 326.693358 72.079984 
L 336.196967 72.180075 
L 336.468498 72.205345 
L 356.471332 72.312283 
L 356.833375 72.329122 
L 368.690258 72.438042 
L 368.916535 72.471705 
L 383.352969 72.575963 
L 383.579245 72.626426 
L 400.097423 72.724245 
L 400.368955 72.749464 
L 407.609799 72.85872 
L 407.881331 72.883928 
L 426.707528 72.989 
L 427.06957 73.005796 
L 435.668073 73.11495 
L 436.030116 73.13174 
L 443.859279 73.224066 
L 444.130811 73.266024 
L 451.914719 73.354659 
L 452.140995 73.388208 
L 458.069437 73.442205 
L 458.069437 73.442205 
" clip-path="url(#pbc436073bf)" style="fill: none; stroke: #ff7f0e; stroke-width: 1.8; stroke-linecap: square"/>
   </g>
   <g id="line2d_29">
    <path d="M 77.427273 45.098768 
L 77.517783 125.328598 
L 77.608294 118.320568 
L 77.74406 86.825562 
L 77.83457 111.335241 
L 77.879826 109.697148 
L 77.925081 111.240205 
L 78.106102 99.149907 
L 78.151357 99.497404 
L 78.196612 100.795553 
L 78.377634 94.860512 
L 78.422889 91.988586 
L 78.60391 104.379333 
L 78.739676 97.497174 
L 78.784931 97.783231 
L 78.830186 98.079102 
L 79.011208 91.337609 
L 79.056463 93.427155 
L 79.101718 95.801943 
L 79.146973 94.253497 
L 79.237484 90.872117 
L 79.282739 91.939101 
L 79.327995 92.313695 
L 79.37325 90.891138 
L 79.418505 95.208677 
L 79.46376 93.852146 
L 79.599526 92.512066 
L 79.690037 103.222562 
L 79.780547 101.081333 
L 79.961568 98.225322 
L 80.006824 97.087482 
L 80.052079 98.466541 
L 80.097334 97.28274 
L 80.14259 98.531972 
L 80.187845 98.252299 
L 80.459377 94.494483 
L 80.504632 98.772564 
L 80.595142 96.882826 
L 80.640398 96.225311 
L 80.776163 100.487496 
L 80.821419 99.749295 
L 81.047695 96.653816 
L 81.09295 96.31752 
L 81.138206 97.177226 
L 81.183461 96.243767 
L 81.409737 93.515211 
L 81.454993 93.651872 
L 81.500248 95.172427 
L 81.545503 94.726521 
L 81.636014 93.814028 
L 81.77178 96.286551 
L 81.726524 93.649079 
L 81.817035 95.618041 
L 81.86229 94.917005 
L 81.907545 95.682484 
L 81.952801 95.647011 
L 82.043311 94.2577 
L 82.088567 95.149811 
L 82.314843 92.53387 
L 82.676885 98.565069 
L 82.767396 98.512016 
L 83.038928 95.942195 
L 83.219949 99.04342 
L 83.355714 97.410559 
L 83.40097 97.44863 
L 83.446225 97.760661 
L 83.49148 97.306349 
L 83.672501 96.018574 
L 83.853523 97.074559 
L 83.944033 96.057701 
L 84.034544 96.065607 
L 84.125054 97.172361 
L 84.17031 97.022868 
L 84.306075 95.66764 
L 84.396586 97.00427 
L 84.441841 96.635669 
L 84.487096 96.342719 
L 84.532352 97.19887 
L 84.577607 96.846933 
L 84.622862 96.540016 
L 84.668118 96.962071 
L 84.713373 96.570455 
L 84.758628 97.037587 
L 84.803883 96.581132 
L 85.211181 93.619014 
L 85.256436 93.731 
L 85.301692 94.421899 
L 85.346947 94.132706 
L 85.392202 93.805604 
L 85.437457 94.540572 
L 85.482713 94.14917 
L 85.527968 94.137007 
L 85.663734 94.976851 
L 85.89001 93.561112 
L 85.935265 93.868984 
L 86.116287 92.697183 
L 86.206797 92.882884 
L 86.252052 92.930665 
L 86.342563 92.304508 
L 86.478329 93.582549 
L 86.65935 92.512438 
L 86.749861 93.826798 
L 86.795116 93.509536 
L 87.383434 90.673113 
L 87.42869 91.11749 
L 87.473945 90.788571 
L 87.700221 89.857544 
L 87.745477 90.033936 
L 87.790732 90.014415 
L 88.243285 87.982246 
L 88.333795 88.262234 
L 88.379051 89.263932 
L 88.469561 88.812731 
L 88.560072 88.358913 
L 88.605327 88.500108 
L 88.650582 88.89955 
L 88.695838 88.673399 
L 89.14839 87.274386 
L 89.284156 87.840183 
L 89.691454 86.548114 
L 89.962985 86.021009 
L 90.008241 87.195952 
L 90.098751 86.876548 
L 90.279772 87.358911 
L 90.551304 86.825305 
L 90.596559 87.176173 
L 90.641815 87.013153 
L 91.049112 85.621115 
L 91.230133 84.959072 
L 91.320644 84.626951 
L 91.45641 86.063912 
L 91.501665 85.904024 
L 91.727941 85.193775 
L 91.773197 85.219269 
L 92.044728 84.430227 
L 92.135239 85.308459 
L 92.180494 85.15827 
L 92.225749 85.018421 
L 92.406771 85.578619 
L 92.904579 84.297503 
L 92.949834 84.471691 
L 92.995089 84.331817 
L 93.266621 83.631135 
L 93.311876 83.735942 
L 93.357131 83.571446 
L 93.402387 83.480062 
L 93.538153 83.9831 
L 93.628663 83.731784 
L 93.673918 83.788995 
L 93.719174 84.202618 
L 93.764429 84.070043 
L 94.443258 82.474503 
L 94.579024 82.713613 
L 94.533769 82.412132 
L 94.624279 82.550291 
L 94.669535 82.570817 
L 94.8053 82.202751 
L 94.941066 82.602645 
L 95.031577 82.336003 
L 95.076832 82.629823 
L 95.167343 82.495257 
L 95.257853 82.739477 
L 95.303109 82.640538 
L 95.438874 82.506259 
L 95.48413 82.930789 
L 95.529385 82.771718 
L 95.57464 82.654018 
L 95.665151 83.242082 
L 95.710406 83.12234 
L 95.755661 83.019649 
L 95.800917 83.362257 
L 95.846172 83.270538 
L 96.162959 82.769345 
L 96.208214 82.948398 
L 96.253469 82.820164 
L 96.434491 82.416792 
L 96.479746 82.591241 
L 96.525001 82.458694 
L 97.022809 81.195469 
L 97.158575 81.04512 
L 97.339596 81.464842 
L 97.565873 81.119211 
L 98.244702 79.845697 
L 98.289957 80.073196 
L 98.335212 79.994495 
L 99.51185 77.735734 
L 100.145424 76.601101 
L 100.733742 75.653656 
L 100.914763 75.425836 
L 101.005274 76.018548 
L 101.095784 75.851615 
L 101.412571 75.415838 
L 101.457827 75.661515 
L 101.503082 75.572453 
L 101.774614 75.116649 
L 101.910379 75.5087 
L 102.091401 75.213183 
L 102.543953 74.528489 
L 102.679719 74.783079 
L 102.724975 74.725591 
L 102.951251 74.320158 
L 102.996506 74.521427 
L 103.041762 74.476956 
L 103.268038 74.096007 
L 103.313293 74.214425 
L 103.811101 73.61762 
L 104.037378 73.318327 
L 104.173144 73.583092 
L 104.670952 72.961428 
L 104.716207 73.198622 
L 104.761462 73.114105 
L 105.485547 72.084312 
L 105.530802 72.118904 
L 106.119121 71.444724 
L 106.164376 71.633862 
L 106.209631 71.573997 
L 107.431524 70.402044 
L 107.476779 70.537304 
L 107.522034 70.480867 
L 108.653416 69.224283 
L 108.698672 69.368466 
L 108.743927 69.320658 
L 108.970203 69.200867 
L 109.558522 68.611015 
L 109.603777 68.76215 
L 109.649032 68.915284 
L 109.694288 68.872365 
L 110.192096 68.388559 
L 110.418372 68.164496 
L 110.463628 68.32644 
L 110.554138 68.240597 
L 110.91618 67.940708 
L 110.961436 68.084085 
L 111.051946 68.002863 
L 111.413988 67.867283 
L 111.459244 68.016846 
L 111.549754 67.94102 
L 112.183328 67.382778 
L 112.45486 67.258445 
L 113.495731 66.469146 
L 114.446092 65.939217 
L 114.491347 66.079472 
L 114.581858 66.005236 
L 114.627113 65.960863 
L 114.672369 66.101601 
L 114.717624 66.05781 
L 114.808134 65.96883 
L 114.85339 66.204319 
L 114.9439 66.134081 
L 116.301559 65.086994 
L 118.338046 64.00832 
L 118.473812 64.007829 
L 119.695705 63.317009 
L 119.967236 63.293266 
L 120.012492 63.452309 
L 120.103002 63.401836 
L 120.5103 63.194128 
L 120.555555 63.320286 
L 120.646066 63.27194 
L 122.773064 62.413568 
L 123.361382 62.350122 
L 123.406638 62.481044 
L 123.497148 62.447854 
L 124.266488 62.211198 
L 125.126338 61.981093 
L 125.216849 62.176473 
L 125.262104 62.159712 
L 127.660634 61.546574 
L 130.28544 61.110284 
L 133.091268 60.826798 
L 139.427007 60.501795 
L 149.021127 60.31048 
L 159.791883 60.20883 
L 160.01816 60.356211 
L 160.425457 60.436839 
L 160.651734 60.538089 
L 161.059031 60.630106 
L 161.240052 60.676105 
L 161.466329 60.76619 
L 161.873626 61.022039 
L 162.5072 61.119639 
L 163.36705 61.365183 
L 163.729093 61.425145 
L 164.000624 61.64443 
L 164.543688 61.72378 
L 164.769964 61.776397 
L 164.996241 61.858829 
L 165.132006 61.932083 
L 165.629814 62.005321 
L 165.810836 62.056673 
L 165.946601 62.157317 
L 166.127623 62.238443 
L 166.715941 62.346567 
L 167.032728 62.41929 
L 167.349515 62.516186 
L 167.711557 62.725419 
L 169.114471 62.832102 
L 169.70279 62.8396 
L 171.241469 62.935463 
L 171.467746 62.962822 
L 173.096936 63.015487 
L 173.277957 63.0793 
L 174.635615 63.17955 
L 174.816636 63.225108 
L 176.853124 63.302554 
L 177.034145 63.348087 
L 177.667719 63.418025 
L 179.025377 63.5144 
L 179.206399 63.578086 
L 180.473546 63.684724 
L 180.790333 63.70291 
L 182.012226 63.789211 
L 182.193247 63.852825 
L 184.637032 63.938203 
L 184.818053 63.983613 
L 187.804902 64.086644 
L 187.985923 64.141099 
L 189.569858 64.211565 
L 189.750879 64.256923 
L 191.742111 64.342499 
L 191.968388 64.369698 
L 193.733344 64.475473 
L 194.321662 64.593258 
L 197.12749 64.700649 
L 197.353766 64.800241 
L 198.530403 64.875628 
L 198.75668 64.929913 
L 199.163977 64.973403 
L 200.747912 65.072882 
L 200.928933 65.136171 
L 202.241336 65.244636 
L 202.467613 65.271746 
L 204.368335 65.362097 
L 204.594611 65.387435 
L 205.409206 65.475096 
L 205.635482 65.502183 
L 206.585843 65.590681 
L 206.81212 65.662876 
L 208.803352 65.749532 
L 209.029628 65.77659 
L 211.066116 65.882116 
L 211.473414 65.927188 
L 212.55954 66.008303 
L 212.740561 66.042999 
L 214.324496 66.133087 
L 214.505517 66.169116 
L 215.908431 66.263648 
L 216.542005 66.397294 
L 217.401855 66.467452 
L 217.582877 66.521422 
L 219.212067 66.623848 
L 219.393088 66.659804 
L 221.655852 66.761224 
L 221.836873 66.797158 
L 222.606213 66.886973 
L 222.832489 66.913913 
L 226.317146 67.018412 
L 226.633933 67.036363 
L 228.715676 67.135073 
L 229.032462 67.153017 
L 231.340482 67.249364 
L 231.702524 67.276267 
L 234.734628 67.369758 
L 234.960904 67.396647 
L 236.816371 67.501369 
L 236.997392 67.564074 
L 237.4952 67.662587 
L 237.676221 67.698402 
L 241.115622 67.79637 
L 241.387154 67.850052 
L 245.595895 67.94038 
L 245.822172 67.967203 
L 248.763765 68.05279 
L 248.944786 68.097473 
L 253.379803 68.198952 
L 253.560825 68.243606 
L 255.23527 68.339424 
L 255.416291 68.375129 
L 258.810437 68.482476 
L 258.991458 68.535993 
L 261.616264 68.61937 
L 261.797286 68.66394 
L 264.331581 68.741728 
L 264.512602 68.795187 
L 268.404557 68.888306 
L 268.630833 68.91502 
L 272.024979 69.024407 
L 272.206 69.0778 
L 275.37387 69.166767 
L 275.645401 69.246816 
L 277.138826 69.317954 
L 277.319847 69.362407 
L 279.40159 69.449812 
L 279.627866 69.476472 
L 283.972373 69.582554 
L 284.28916 69.600315 
L 284.832223 69.689106 
L 285.013244 69.724615 
L 286.868711 69.81975 
L 287.049732 69.855242 
L 287.728561 69.905972 
L 287.864327 69.976927 
L 291.077452 70.060076 
L 291.258473 70.104396 
L 292.570876 70.200365 
L 292.751897 70.253521 
L 297.051149 70.34994 
L 297.277425 70.376505 
L 299.585445 70.469836 
L 299.811721 70.496388 
L 301.531422 70.593219 
L 302.074485 70.690527 
L 304.925568 70.783714 
L 305.106589 70.836756 
L 306.237971 70.933977 
L 306.509503 70.978158 
L 307.821906 71.071729 
L 308.048182 71.096162 
L 311.261307 71.181876 
L 311.442328 71.226011 
L 315.198517 71.302867 
L 315.379538 71.355791 
L 317.099238 71.388993 
L 317.416025 71.406629 
L 318.864194 71.406629 
L 318.864194 71.406629 
" clip-path="url(#pbc436073bf)" style="fill: none; stroke: #2ca02c; stroke-width: 1.8; stroke-linecap: square"/>
   </g>
   <g id="line2d_30">
    <path d="M 77.427273 162.729836 
L 77.608294 65.264356 
L 77.83457 49.523537 
L 77.925081 46.663912 
L 77.970336 51.421876 
L 78.015591 50.066577 
L 78.287123 44.952558 
L 78.332378 44.570686 
L 78.377634 47.894927 
L 78.468144 46.706634 
L 78.875442 43.52216 
L 79.011208 53.597878 
L 79.056463 53.08488 
L 79.192229 51.866062 
L 79.599526 48.650888 
L 79.644781 48.436559 
L 79.690037 52.974005 
L 79.780547 52.168596 
L 80.052079 50.586464 
L 80.097334 55.328105 
L 80.187845 54.595057 
L 80.595142 51.849643 
L 80.640398 54.60857 
L 80.730908 54.112709 
L 81.183461 51.548345 
L 81.545503 49.940899 
L 81.636014 52.799499 
L 81.681269 52.602639 
L 82.179077 50.795237 
L 82.224332 52.116527 
L 82.314843 51.761727 
L 82.63163 50.663546 
L 82.676885 51.955987 
L 82.767396 51.641885 
L 83.581991 49.342819 
L 83.627246 50.355137 
L 83.717757 50.123947 
L 84.622862 48.145958 
L 84.668118 48.884971 
L 84.758628 48.676241 
L 84.939649 48.344849 
L 84.984905 49.536136 
L 85.075415 49.392278 
L 85.980521 47.82157 
L 86.025776 48.518025 
L 86.116287 48.393744 
L 86.206797 48.225096 
L 86.252052 48.897524 
L 86.342563 48.752481 
L 86.795116 48.075868 
L 86.840371 48.660183 
L 86.930882 48.515047 
L 87.881243 47.259245 
L 88.379051 46.690546 
L 88.424306 47.326226 
L 88.514816 47.226697 
L 89.238901 46.497114 
L 89.284156 46.751558 
L 89.374667 46.666117 
L 90.098751 45.93558 
L 90.144007 46.257536 
L 90.234517 46.183367 
L 90.460794 45.962397 
L 90.506049 46.249279 
L 90.596559 46.173124 
L 90.77758 46.021783 
L 90.822836 47.084432 
L 90.913346 47.027357 
L 91.954218 46.137227 
L 92.587792 45.675876 
L 92.633047 46.445958 
L 92.723558 46.377785 
L 93.311876 45.943701 
L 93.492897 46.34072 
L 93.538153 46.301288 
L 93.628663 46.223767 
L 93.673918 46.505568 
L 93.764429 46.421291 
L 93.85494 46.354723 
L 93.900195 46.881774 
L 93.990705 46.811473 
L 94.216982 46.62953 
L 94.262237 46.980638 
L 94.352748 46.908661 
L 94.850556 46.544096 
L 94.895811 46.843232 
L 94.986322 46.779997 
L 95.257853 46.586912 
L 95.303109 46.931866 
L 95.393619 46.874876 
L 95.48413 46.836131 
L 95.529385 47.365623 
L 95.619895 47.298641 
L 95.936682 47.074302 
L 95.981938 47.290139 
L 96.072448 47.227829 
L 96.208214 47.128062 
L 96.253469 47.199248 
L 96.298725 47.836987 
L 96.389235 47.764654 
L 96.615512 47.592161 
L 96.796533 48.039877 
L 97.022809 47.881229 
L 97.158575 48.326078 
L 97.20383 48.286771 
L 97.339596 48.202547 
L 97.430107 49.185735 
L 97.520617 49.11679 
L 98.018425 48.918774 
L 98.108936 49.751344 
L 98.154191 49.710508 
L 98.470978 49.461937 
L 98.516233 49.970994 
L 98.606744 49.905043 
L 98.878276 49.698715 
L 98.923531 49.942919 
L 99.014042 49.874631 
L 99.330828 49.66706 
L 99.421339 50.258549 
L 99.466594 50.615748 
L 99.557105 50.549427 
L 99.60236 50.506065 
L 99.692871 51.158343 
L 99.783381 51.08943 
L 99.964402 50.953864 
L 100.009658 51.110646 
L 100.100168 51.034123 
L 100.145424 51.015378 
L 100.235934 51.346378 
L 100.281189 51.328493 
L 100.960019 50.87177 
L 101.005274 51.058252 
L 101.095784 50.999258 
L 101.186295 50.927551 
L 101.367316 51.71881 
L 101.412571 51.685583 
L 101.729358 51.553479 
L 101.774614 51.884773 
L 101.865124 51.820548 
L 101.955635 51.762671 
L 102.046145 52.279246 
L 102.136656 52.220227 
L 102.227166 52.149166 
L 102.272422 52.383868 
L 102.362932 52.315267 
L 102.77023 52.060811 
L 102.815485 52.320207 
L 102.905996 52.268077 
L 103.268038 53.469496 
L 103.313293 53.431635 
L 103.403804 53.361328 
L 103.449059 54.174069 
L 103.53957 54.112257 
L 103.675335 54.479131 
L 103.720591 54.438187 
L 104.580441 53.844203 
L 104.716207 53.767609 
L 104.761462 54.132394 
L 104.851973 54.070861 
L 105.078249 54.61014 
L 105.349781 54.405479 
L 105.530802 55.011787 
L 105.576057 54.985758 
L 105.847589 54.803222 
L 105.892844 55.246447 
L 105.983355 55.193935 
L 106.164376 55.078798 
L 106.209631 55.202798 
L 106.300142 55.13512 
L 106.526418 54.984457 
L 106.571673 55.140647 
L 106.662184 55.084672 
L 106.88846 54.920148 
L 106.933716 55.211051 
L 107.024226 55.152391 
L 107.295758 54.984672 
L 107.341013 55.423282 
L 107.431524 55.363179 
L 107.476779 55.324536 
L 107.522034 55.553029 
L 107.612545 55.476475 
L 107.929332 55.267248 
L 107.974587 55.531212 
L 108.065098 55.483035 
L 108.155608 55.41845 
L 108.200863 55.76743 
L 108.291374 55.701739 
L 108.42714 55.589697 
L 108.472395 55.83343 
L 108.562906 55.752591 
L 108.698672 55.747785 
L 108.743927 55.964309 
L 108.834437 55.90605 
L 109.060714 55.751041 
L 109.105969 55.84921 
L 109.19648 55.793962 
L 109.241735 55.760849 
L 109.28699 55.97016 
L 109.377501 55.908781 
L 109.784798 55.641855 
L 109.920564 55.893303 
L 109.965819 55.867759 
L 110.327862 55.639614 
L 110.373117 55.761591 
L 110.463628 55.692491 
L 110.508883 55.659327 
L 110.554138 55.845049 
L 110.644649 55.78049 
L 110.735159 55.735725 
L 110.780414 56.004359 
L 110.870925 55.944149 
L 111.006691 55.85858 
L 111.097201 56.350899 
L 111.187712 56.290311 
L 111.459244 56.630221 
L 111.821286 56.479498 
L 111.957052 56.825575 
L 112.002307 56.800497 
L 112.047562 56.772045 
L 112.092818 56.987482 
L 112.183328 56.921979 
L 112.681136 56.606332 
L 112.726392 56.826699 
L 112.816902 56.77769 
L 113.631497 56.266685 
L 113.722008 56.649647 
L 113.767263 56.623195 
L 113.812518 56.587101 
L 113.857774 56.787198 
L 113.948284 56.741187 
L 113.993539 56.716633 
L 114.038795 57.022207 
L 114.129305 56.961454 
L 114.265071 56.861698 
L 114.536603 57.58207 
L 114.627113 57.531066 
L 114.672369 57.674185 
L 114.762879 57.615624 
L 114.9439 57.494727 
L 115.079666 57.762241 
L 115.170177 57.725157 
L 115.215432 57.86017 
L 115.305943 57.811771 
L 115.532219 57.686313 
L 115.577474 57.972092 
L 115.667985 57.927161 
L 115.803751 57.856371 
L 115.849006 57.939701 
L 115.984772 58.26253 
L 116.256303 58.191373 
L 116.437325 58.09389 
L 116.48258 58.21111 
L 116.57309 58.159248 
L 116.935133 58.000914 
L 116.980388 58.152903 
L 117.070898 58.113537 
L 117.25192 58.005276 
L 117.34243 58.403622 
L 117.387685 58.382962 
L 117.659217 58.346356 
L 117.704472 58.452734 
L 117.794983 58.406184 
L 118.473812 58.246879 
L 118.700089 58.710718 
L 118.745344 58.684405 
L 118.97162 58.668767 
L 119.016876 58.862855 
L 119.107386 58.829303 
L 119.197897 58.7805 
L 119.243152 58.960332 
L 119.333662 58.923633 
L 119.514684 58.961912 
L 119.559939 58.947915 
L 119.74096 59.103289 
L 119.831471 59.064852 
L 119.967236 59.162905 
L 120.012492 59.144822 
L 120.057747 59.369276 
L 120.148258 59.327439 
L 120.646066 59.222735 
L 120.691321 59.35041 
L 120.781831 59.317077 
L 121.143874 59.289413 
L 121.324895 59.774585 
L 121.686937 59.648813 
L 121.822703 59.716289 
L 122.13949 59.610878 
L 122.275256 59.719061 
L 124.62853 59.146271 
L 124.764296 59.254574 
L 124.945317 59.310609 
L 125.126338 59.481158 
L 125.624146 59.338959 
L 125.759912 59.409959 
L 125.850423 59.484293 
L 125.986189 59.576819 
L 126.121955 59.543564 
L 126.25772 59.703893 
L 126.619763 59.694203 
L 127.660634 59.608631 
L 127.7964 59.688596 
L 127.977421 59.654975 
L 128.158442 59.936144 
L 128.429974 59.888353 
L 128.56574 59.975105 
L 128.973037 60.001151 
L 129.108803 60.071819 
L 129.335079 60.020725 
L 129.42559 60.23956 
L 129.470845 60.225977 
L 129.697122 60.179821 
L 129.742377 60.442541 
L 129.832888 60.421642 
L 131.281057 60.12798 
L 131.416822 60.183059 
L 132.095652 60.124997 
L 132.231417 60.166557 
L 132.321928 60.145877 
L 132.457694 60.232545 
L 134.494181 59.943756 
L 134.629947 60.0666 
L 135.218266 60.033066 
L 135.354032 60.143536 
L 135.897095 60.141189 
L 135.987606 60.289208 
L 136.032861 60.275849 
L 136.756945 60.24717 
L 136.937967 60.449079 
L 137.390519 60.367965 
L 137.526285 60.51852 
L 138.024093 60.490805 
L 138.159859 60.586774 
L 139.517518 60.383542 
L 139.698539 60.398064 
L 140.603644 60.336568 
L 140.73941 60.379747 
L 142.549621 60.312778 
L 142.730643 60.482353 
L 143.635748 60.443838 
L 143.771514 60.497174 
L 144.133556 60.523083 
L 144.314577 60.602673 
L 144.405088 60.649082 
L 144.540854 60.731906 
L 145.400704 60.681161 
L 146.939384 60.476931 
L 147.075149 60.580329 
L 147.256171 60.605972 
L 147.482447 60.575905 
L 147.618213 60.676247 
L 148.116021 60.666613 
L 148.251787 60.744792 
L 149.021127 60.672597 
L 150.107253 60.59275 
L 150.33353 60.79867 
L 151.283891 60.714138 
L 151.419656 60.751882 
L 151.872209 60.742866 
L 152.007975 60.798216 
L 152.460528 60.854087 
L 152.596294 60.898988 
L 153.999207 60.814898 
L 154.134973 60.870403 
L 155.085334 60.825961 
L 155.266355 60.857422 
L 156.759779 60.721295 
L 156.940801 60.852742 
L 158.841522 60.845272 
L 158.977288 60.892175 
L 160.289691 60.814973 
L 160.561223 60.975937 
L 161.602094 60.953313 
L 161.783116 61.138489 
L 162.371434 61.191789 
L 162.552455 61.226575 
L 163.457561 61.258065 
L 163.593327 61.327153 
L 165.086751 61.26933 
L 165.222517 61.323306 
L 166.489665 61.214639 
L 166.670686 61.245045 
L 167.213749 61.305962 
L 167.39477 61.346641 
L 168.209365 61.335715 
L 168.526152 61.508157 
L 169.023961 61.574472 
L 169.386003 61.710333 
L 170.019577 61.740423 
L 171.694022 61.702092 
L 172.19183 61.733298 
L 172.327596 61.796276 
L 172.734894 61.843972 
L 173.006425 61.977772 
L 173.594744 62.169013 
L 174.228318 62.243369 
L 174.454594 62.36342 
L 175.042913 62.420336 
L 175.223934 62.46414 
L 175.857508 62.506597 
L 176.038529 62.548466 
L 176.581592 62.633817 
L 176.853124 62.708729 
L 178.120272 62.765887 
L 178.301293 62.816971 
L 179.070633 62.858702 
L 179.251654 62.939226 
L 180.111504 63.01458 
L 181.288142 63.11941 
L 181.469163 63.157317 
L 183.188863 63.201813 
L 183.369884 63.341725 
L 183.731927 63.417688 
L 183.912948 63.456596 
L 184.546522 63.538123 
L 184.818053 63.61774 
L 186.175712 63.698269 
L 186.356733 63.738975 
L 189.434092 63.838444 
L 189.660368 63.860228 
L 191.108537 63.965775 
L 191.380069 63.989064 
L 193.95962 64.087919 
L 194.185896 64.136361 
L 195.091002 64.218755 
L 195.543555 64.272314 
L 197.715808 64.315756 
L 197.98734 64.338962 
L 201.15521 64.430792 
L 201.471997 64.485353 
L 203.146442 64.556828 
L 203.372718 64.578395 
L 208.305544 64.638837 
L 208.53182 64.66034 
L 211.835456 64.733352 
L 212.061732 64.754806 
L 219.438343 64.737904 
L 253.560825 64.841028 
L 254.194398 64.849199 
L 271.889213 64.952655 
L 272.522787 64.960823 
L 279.808887 65.065798 
L 280.216185 65.098454 
L 296.010278 65.195608 
L 296.37232 65.22009 
L 303.613165 65.324167 
L 304.246739 65.332324 
L 315.786835 65.435553 
L 316.058367 65.460011 
L 327.145911 65.563177 
L 327.91525 65.595771 
L 337.554625 65.691929 
L 337.916667 65.708219 
L 353.031931 65.795384 
L 353.303463 65.819809 
L 366.653771 65.917491 
L 367.015813 65.933768 
L 385.253691 66.037521 
L 385.887265 66.045656 
L 413.900283 66.156269 
L 414.533857 66.1644 
L 424.942572 66.221312 
L 424.942572 66.221312 
" clip-path="url(#pbc436073bf)" style="fill: none; stroke: #d62728; stroke-width: 1.8; stroke-linecap: square"/>
   </g>
   <g id="line2d_31">
    <path d="M 77.427273 140.13512 
L 77.472528 100.290167 
L 77.517783 112.678612 
L 77.563039 159.843802 
L 77.608294 140.362221 
L 77.789315 103.152387 
L 77.970336 137.75788 
L 78.332378 108.978269 
L 78.60391 95.812335 
L 78.920697 82.800632 
L 79.509016 68.41045 
L 80.14259 60.53518 
L 80.776163 55.526446 
L 81.319227 52.627903 
L 81.817035 50.576695 
L 82.948417 47.243975 
L 84.487096 44.517031 
L 85.7995 42.945187 
L 87.5192 41.532186 
L 89.012625 40.62714 
L 93.221366 39.021167 
L 98.244702 37.969683 
L 100.778997 37.600719 
L 104.625696 37.178802 
L 108.698672 36.840808 
L 114.627113 36.480148 
L 121.189129 36.212928 
L 127.977421 36.157359 
L 128.203697 36.184012 
L 128.475229 36.281721 
L 128.65625 36.317245 
L 130.104419 36.414915 
L 130.28544 36.459225 
L 131.371567 36.565431 
L 131.597844 36.592046 
L 132.321928 36.663009 
L 132.502949 36.707353 
L 133.272289 36.80474 
L 133.498565 36.831334 
L 135.173011 36.937689 
L 135.444542 36.990853 
L 138.929199 37.097089 
L 139.245986 37.167937 
L 141.418239 37.238592 
L 141.644516 37.309404 
L 141.870792 37.335955 
L 143.499982 37.441754 
L 145.491215 37.529965 
L 145.717491 37.556492 
L 146.848873 37.66258 
L 147.029894 37.724449 
L 149.880977 37.830222 
L 150.197764 37.84789 
L 151.057614 37.945045 
L 151.283891 37.97131 
L 152.279507 38.068422 
L 152.460528 38.103728 
L 154.180228 38.174329 
L 154.36125 38.218447 
L 156.442993 38.306566 
L 156.624014 38.350666 
L 158.072183 38.456169 
L 158.434225 38.544314 
L 159.384586 38.64984 
L 159.791883 38.693887 
L 160.696989 38.772878 
L 160.87801 38.852123 
L 162.326179 38.93106 
L 162.552455 38.992663 
L 165.448793 39.089085 
L 165.67507 39.124268 
L 166.806452 39.221004 
L 167.077983 39.291339 
L 167.666302 39.352871 
L 167.847323 39.405602 
L 169.748045 39.510909 
L 169.974321 39.537263 
L 171.694022 39.616311 
L 171.875043 39.668999 
L 172.734894 39.748015 
L 172.915915 39.791905 
L 173.775765 39.896437 
L 174.047297 39.949072 
L 175.721742 40.045111 
L 175.948018 40.080184 
L 179.070633 40.167104 
L 179.296909 40.245972 
L 181.966971 40.34234 
L 182.147992 40.386135 
L 186.266222 40.490194 
L 187.171328 40.560218 
L 189.9319 40.654779 
L 190.112921 40.724749 
L 190.837006 40.811858 
L 191.018027 40.855567 
L 193.054514 40.958749 
L 193.280791 40.984956 
L 195.000492 41.081033 
L 195.181513 41.124695 
L 198.032595 41.220554 
L 198.258872 41.24674 
L 199.390254 41.316558 
L 199.571275 41.368913 
L 201.924549 41.473139 
L 202.105571 41.516744 
L 204.866143 41.620719 
L 205.092419 41.646868 
L 206.223801 41.742733 
L 206.404822 41.786299 
L 207.128907 41.882122 
L 207.355183 41.908251 
L 208.486565 41.995037 
L 208.758097 42.134313 
L 211.518669 42.237918 
L 211.744945 42.298807 
L 212.876327 42.385461 
L 213.102604 42.411545 
L 213.917199 42.498476 
L 214.09822 42.541933 
L 217.582877 42.645778 
L 217.809153 42.671839 
L 221.067533 42.740786 
L 221.248554 42.827619 
L 225.004743 42.912882 
L 225.185764 42.973624 
L 226.814954 43.042805 
L 227.04123 43.129539 
L 230.29961 43.197882 
L 230.525887 43.293232 
L 231.114205 43.371225 
L 231.295226 43.414546 
L 233.150693 43.518493 
L 233.422225 43.561795 
L 235.051415 43.631066 
L 235.232436 43.691665 
L 236.409073 43.768955 
L 236.590094 43.81222 
L 238.083519 43.907384 
L 238.309795 43.941982 
L 241.703941 44.034856 
L 241.930217 44.060789 
L 245.188598 44.163231 
L 245.369619 44.206428 
L 247.541872 44.310077 
L 247.858659 44.379159 
L 248.854275 44.482753 
L 249.035296 44.569057 
L 251.433826 44.671658 
L 251.660103 44.706159 
L 253.108272 44.77515 
L 253.289293 44.818262 
L 254.963738 44.929096 
L 255.190015 44.963566 
L 255.416291 45.032494 
L 255.597312 45.075567 
L 256.683439 45.178918 
L 256.909715 45.204751 
L 259.444011 45.298887 
L 259.625032 45.384952 
L 261.978307 45.479597 
L 262.249838 45.530632 
L 263.652752 45.616631 
L 263.833773 45.659622 
L 267.227919 45.754035 
L 267.454196 45.779819 
L 268.857109 45.847526 
L 269.03813 45.907662 
L 270.893597 46.001538 
L 271.255639 46.104112 
L 271.843958 46.189942 
L 272.024979 46.24143 
L 273.473148 46.335802 
L 273.608914 46.404419 
L 276.595762 46.497802 
L 276.822039 46.549236 
L 278.315463 46.634942 
L 278.541739 46.669218 
L 279.854142 46.754411 
L 280.035164 46.814368 
L 281.438077 46.882876 
L 281.619098 46.934247 
L 282.795736 47.044868 
L 283.022012 47.07054 
L 285.692074 47.156101 
L 285.963605 47.233086 
L 288.543156 47.318604 
L 288.814688 47.369399 
L 289.991325 47.453692 
L 290.172346 47.504963 
L 292.706642 47.606112 
L 292.932919 47.640274 
L 293.928535 47.741701 
L 294.109556 47.784382 
L 295.286193 47.886443 
L 296.508086 47.962701 
L 296.734362 48.056522 
L 298.318297 48.141077 
L 298.544573 48.226318 
L 301.983975 48.309914 
L 302.164996 48.35251 
L 303.975207 48.454717 
L 304.291994 48.471749 
L 306.82629 48.563754 
L 307.097821 48.640353 
L 308.410225 48.699918 
L 308.591246 48.776485 
L 309.858393 48.870043 
L 310.039415 48.91256 
L 311.125541 49.006078 
L 311.397073 49.031579 
L 312.709476 49.132987 
L 312.935753 49.166973 
L 314.700708 49.259644 
L 314.97224 49.285122 
L 317.959089 49.377166 
L 318.23062 49.402632 
L 320.040832 49.49521 
L 320.402874 49.579268 
L 321.172214 49.671776 
L 321.443745 49.697215 
L 322.891914 49.781201 
L 323.118191 49.832057 
L 324.56636 49.941414 
L 324.837891 49.991637 
L 327.553208 50.083986 
L 327.779485 50.117854 
L 330.721078 50.226059 
L 330.902099 50.26837 
L 333.255374 50.361435 
L 333.48165 50.394856 
L 337.373604 50.501253 
L 337.554625 50.577325 
L 340.179431 50.678095 
L 340.496218 50.728782 
L 342.804238 50.811333 
L 343.030514 50.904203 
L 344.885981 51.011992 
L 345.157512 51.037304 
L 349.049466 51.144587 
L 349.366253 51.160803 
L 355.385206 51.255008 
L 355.611482 51.288711 
L 357.512204 51.379622 
L 357.783736 51.404887 
L 361.494669 51.5128 
L 361.67569 51.563302 
L 363.350135 51.653643 
L 363.531156 51.693921 
L 365.748665 51.785755 
L 365.974941 51.844607 
L 366.834792 51.945019 
L 367.061068 51.995439 
L 367.604131 52.062652 
L 367.785153 52.113053 
L 372.039149 52.196119 
L 372.265425 52.288471 
L 374.890232 52.36216 
L 375.071253 52.437676 
L 376.971974 52.545086 
L 377.243506 52.570243 
L 378.103357 52.66247 
L 378.284378 52.704382 
L 379.461015 52.743218 
L 379.642036 52.801157 
L 381.452247 52.892108 
L 381.678524 52.925605 
L 383.171948 53.026075 
L 383.398224 53.084668 
L 384.665372 53.159986 
L 384.846393 53.210188 
L 386.882881 53.283776 
L 387.063902 53.333954 
L 390.639069 53.433308 
L 390.865346 53.466744 
L 392.947089 53.548347 
L 393.12811 53.597736 
L 396.567511 53.689615 
L 396.839043 53.714669 
L 399.056551 53.821213 
L 399.237573 53.871042 
L 401.590847 53.96233 
L 401.952889 54.03741 
L 402.224421 54.136981 
L 402.450697 54.170333 
L 404.351419 54.234733 
L 404.53244 54.284738 
L 405.754333 54.375368 
L 406.07112 54.433678 
L 407.790821 54.540388 
L 408.198118 54.582015 
L 409.193734 54.655108 
L 409.465266 54.738318 
L 412.633136 54.834994 
L 412.904667 54.859941 
L 414.12656 54.968024 
L 414.352836 55.001272 
L 414.624368 55.026207 
L 416.570345 55.124063 
L 416.887132 55.172574 
L 418.697343 55.271695 
L 418.968875 55.296604 
L 420.190767 55.404519 
L 420.371789 55.446015 
L 420.914852 55.537288 
L 421.141128 55.603652 
L 423.313382 55.703172 
L 423.584913 55.726954 
L 425.168848 55.793275 
L 425.349869 55.843007 
L 427.250591 55.92422 
L 427.476868 55.95736 
L 428.200952 56.056757 
L 428.427228 56.147844 
L 430.146929 56.255178 
L 430.373206 56.288283 
L 431.278311 56.395849 
L 431.549843 56.462026 
L 433.088522 56.561265 
L 433.314799 56.594338 
L 435.306031 56.677005 
L 435.532307 56.710066 
L 436.7542 56.817491 
L 437.206753 56.867059 
L 441.958557 56.946481 
L 442.184834 56.979509 
L 444.357087 57.078574 
L 444.538108 57.119841 
L 447.615467 57.214483 
L 447.841744 57.247477 
L 448.927871 57.321701 
L 449.154147 57.387664 
L 451.914719 57.48363 
L 452.231506 57.541311 
L 453.091356 57.648405 
L 453.362888 57.673114 
L 455.670907 57.779267 
L 455.897184 57.812197 
L 456.168715 57.836892 
L 458.52199 57.910065 
L 458.703011 57.959437 
L 459.019798 58.017027 
L 460.286946 58.123954 
L 460.739499 58.173292 
L 465.219772 58.18609 
L 465.219772 58.18609 
" clip-path="url(#pbc436073bf)" style="fill: none; stroke: #9467bd; stroke-width: 1.8; stroke-linecap: square"/>
   </g>
   <g id="patch_3">
    <path d="M 54.2 260.44 
L 54.2 25.44 
" style="fill: none; stroke: #000000; stroke-width: 0.8; stroke-linejoin: miter; stroke-linecap: square"/>
   </g>
   <g id="patch_4">
    <path d="M 565.2 260.44 
L 565.2 25.44 
" style="fill: none; stroke: #000000; stroke-width: 0.8; stroke-linejoin: miter; stroke-linecap: square"/>
   </g>
   <g id="patch_5">
    <path d="M 54.2 260.44 
L 565.2 260.44 
" style="fill: none; stroke: #000000; stroke-width: 0.8; stroke-linejoin: miter; stroke-linecap: square"/>
   </g>
   <g id="patch_6">
    <path d="M 54.2 25.44 
L 565.2 25.44 
" style="fill: none; stroke: #000000; stroke-width: 0.8; stroke-linejoin: miter; stroke-linecap: square"/>
   </g>
   <g id="text_16">
    <!-- Timely Transfer Rate (Cumulative) -->
    <g transform="translate(207.277187 19.44) scale(0.12 -0.12)">
     <defs>
      <path id="DejaVuSans-54" d="M -19 4666 
L 3928 4666 
L 3928 4134 
L 2272 4134 
L 2272 0 
L 1638 0 
L 1638 4134 
L -19 4134 
L -19 4666 
z
" transform="scale(0.015625)"/>
      <path id="DejaVuSans-52" d="M 2841 2188 
Q 3044 2119 3236 1894 
Q 3428 1669 3622 1275 
L 4263 0 
L 3584 0 
L 2988 1197 
Q 2756 1666 2539 1819 
Q 2322 1972 1947 1972 
L 1259 1972 
L 1259 0 
L 628 0 
L 628 4666 
L 2053 4666 
Q 2853 4666 3247 4331 
Q 3641 3997 3641 3322 
Q 3641 2881 3436 2590 
Q 3231 2300 2841 2188 
z
M 1259 4147 
L 1259 2491 
L 2053 2491 
Q 2509 2491 2742 2702 
Q 2975 2913 2975 3322 
Q 2975 3731 2742 3939 
Q 2509 4147 2053 4147 
L 1259 4147 
z
" transform="scale(0.015625)"/>
      <path id="DejaVuSans-28" d="M 1984 4856 
Q 1566 4138 1362 3434 
Q 1159 2731 1159 2009 
Q 1159 1288 1364 580 
Q 1569 -128 1984 -844 
L 1484 -844 
Q 1016 -109 783 600 
Q 550 1309 550 2009 
Q 550 2706 781 3412 
Q 1013 4119 1484 4856 
L 1984 4856 
z
" transform="scale(0.015625)"/>
      <path id="DejaVuSans-43" d="M 4122 4306 
L 4122 3641 
Q 3803 3938 3442 4084 
Q 3081 4231 2675 4231 
Q 1875 4231 1450 3742 
Q 1025 3253 1025 2328 
Q 1025 1406 1450 917 
Q 1875 428 2675 428 
Q 3081 428 3442 575 
Q 3803 722 4122 1019 
L 4122 359 
Q 3791 134 3420 21 
Q 3050 -91 2638 -91 
Q 1578 -91 968 557 
Q 359 1206 359 2328 
Q 359 3453 968 4101 
Q 1578 4750 2638 4750 
Q 3056 4750 3426 4639 
Q 3797 4528 4122 4306 
z
" transform="scale(0.015625)"/>
      <path id="DejaVuSans-29" d="M 513 4856 
L 1013 4856 
Q 1481 4119 1714 3412 
Q 1947 2706 1947 2009 
Q 1947 1309 1714 600 
Q 1481 -109 1013 -844 
L 513 -844 
Q 928 -128 1133 580 
Q 1338 1288 1338 2009 
Q 1338 2731 1133 3434 
Q 928 4138 513 4856 
z
" transform="scale(0.015625)"/>
     </defs>
     <use xlink:href="#DejaVuSans-54"/>
     <use xlink:href="#DejaVuSans-69" x="57.958984"/>
     <use xlink:href="#DejaVuSans-6d" x="85.742188"/>
     <use xlink:href="#DejaVuSans-65" x="183.154297"/>
     <use xlink:href="#DejaVuSans-6c" x="244.677734"/>
     <use xlink:href="#DejaVuSans-79" x="272.460938"/>
     <use xlink:href="#DejaVuSans-20" x="331.640625"/>
     <use xlink:href="#DejaVuSans-54" x="363.427734"/>
     <use xlink:href="#DejaVuSans-72" x="409.761719"/>
     <use xlink:href="#DejaVuSans-61" x="450.875"/>
     <use xlink:href="#DejaVuSans-6e" x="512.154297"/>
     <use xlink:href="#DejaVuSans-73" x="575.533203"/>
     <use xlink:href="#DejaVuSans-66" x="627.632812"/>
     <use xlink:href="#DejaVuSans-65" x="662.837891"/>
     <use xlink:href="#DejaVuSans-72" x="724.361328"/>
     <use xlink:href="#DejaVuSans-20" x="765.474609"/>
     <use xlink:href="#DejaVuSans-52" x="797.261719"/>
     <use xlink:href="#DejaVuSans-61" x="864.494141"/>
     <use xlink:href="#DejaVuSans-74" x="925.773438"/>
     <use xlink:href="#DejaVuSans-65" x="964.982422"/>
     <use xlink:href="#DejaVuSans-20" x="1026.505859"/>
     <use xlink:href="#DejaVuSans-28" x="1058.292969"/>
     <use xlink:href="#DejaVuSans-43" x="1097.306641"/>
     <use xlink:href="#DejaVuSans-75" x="1167.130859"/>
     <use xlink:href="#DejaVuSans-6d" x="1230.509766"/>
     <use xlink:href="#DejaVuSans-75" x="1327.921875"/>
     <use xlink:href="#DejaVuSans-6c" x="1391.300781"/>
     <use xlink:href="#DejaVuSans-61" x="1419.083984"/>
     <use xlink:href="#DejaVuSans-74" x="1480.363281"/>
     <use xlink:href="#DejaVuSans-69" x="1519.572266"/>
     <use xlink:href="#DejaVuSans-76" x="1547.355469"/>
     <use xlink:href="#DejaVuSans-65" x="1606.535156"/>
     <use xlink:href="#DejaVuSans-29" x="1668.058594"/>
    </g>
   </g>
   <g id="legend_1">
    <g id="patch_7">
     <path d="M 480.614062 255.44 
L 558.2 255.44 
Q 560.2 255.44 560.2 253.44 
L 560.2 180.493125 
Q 560.2 178.493125 558.2 178.493125 
L 480.614062 178.493125 
Q 478.614062 178.493125 478.614062 180.493125 
L 478.614062 253.44 
Q 478.614062 255.44 480.614062 255.44 
z
" style="fill: #ffffff; opacity: 0.8; stroke: #cccccc; stroke-linejoin: miter"/>
    </g>
    <g id="line2d_32">
     <path d="M 482.614062 186.591563 
L 492.614062 186.591563 
L 502.614062 186.591563 
" style="fill: none; stroke: #1f77b4; stroke-width: 1.8; stroke-linecap: square"/>
    </g>
    <g id="text_17">
     <!-- sheer -->
     <g transform="translate(510.614062 190.091563) scale(0.1 -0.1)">
      <defs>
       <path id="DejaVuSans-68" d="M 3513 2113 
L 3513 0 
L 2938 0 
L 2938 2094 
Q 2938 2591 2744 2837 
Q 2550 3084 2163 3084 
Q 1697 3084 1428 2787 
Q 1159 2491 1159 1978 
L 1159 0 
L 581 0 
L 581 4863 
L 1159 4863 
L 1159 2956 
Q 1366 3272 1645 3428 
Q 1925 3584 2291 3584 
Q 2894 3584 3203 3211 
Q 3513 2838 3513 2113 
z
" transform="scale(0.015625)"/>
      </defs>
      <use xlink:href="#DejaVuSans-73"/>
      <use xlink:href="#DejaVuSans-68" x="52.099609"/>
      <use xlink:href="#DejaVuSans-65" x="115.478516"/>
      <use xlink:href="#DejaVuSans-65" x="177.001953"/>
      <use xlink:href="#DejaVuSans-72" x="238.525391"/>
     </g>
    </g>
    <g id="line2d_33">
     <path d="M 482.614062 201.269688 
L 492.614062 201.269688 
L 502.614062 201.269688 
" style="fill: none; stroke: #ff7f0e; stroke-width: 1.8; stroke-linecap: square"/>
    </g>
    <g id="text_18">
     <!-- actar -->
     <g transform="translate(510.614062 204.769688) scale(0.1 -0.1)">
      <use xlink:href="#DejaVuSans-61"/>
      <use xlink:href="#DejaVuSans-63" x="61.279297"/>
      <use xlink:href="#DejaVuSans-74" x="116.259766"/>
      <use xlink:href="#DejaVuSans-61" x="155.46875"/>
      <use xlink:href="#DejaVuSans-72" x="216.748047"/>
     </g>
    </g>
    <g id="line2d_34">
     <path d="M 482.614062 215.947813 
L 492.614062 215.947813 
L 502.614062 215.947813 
" style="fill: none; stroke: #2ca02c; stroke-width: 1.8; stroke-linecap: square"/>
    </g>
    <g id="text_19">
     <!-- tfsm_dpc -->
     <g transform="translate(510.614062 219.447813) scale(0.1 -0.1)">
      <defs>
       <path id="DejaVuSans-5f" d="M 3263 -1063 
L 3263 -1509 
L -63 -1509 
L -63 -1063 
L 3263 -1063 
z
" transform="scale(0.015625)"/>
       <path id="DejaVuSans-70" d="M 1159 525 
L 1159 -1331 
L 581 -1331 
L 581 3500 
L 1159 3500 
L 1159 2969 
Q 1341 3281 1617 3432 
Q 1894 3584 2278 3584 
Q 2916 3584 3314 3078 
Q 3713 2572 3713 1747 
Q 3713 922 3314 415 
Q 2916 -91 2278 -91 
Q 1894 -91 1617 61 
Q 1341 213 1159 525 
z
M 3116 1747 
Q 3116 2381 2855 2742 
Q 2594 3103 2138 3103 
Q 1681 3103 1420 2742 
Q 1159 2381 1159 1747 
Q 1159 1113 1420 752 
Q 1681 391 2138 391 
Q 2594 391 2855 752 
Q 3116 1113 3116 1747 
z
" transform="scale(0.015625)"/>
      </defs>
      <use xlink:href="#DejaVuSans-74"/>
      <use xlink:href="#DejaVuSans-66" x="39.208984"/>
      <use xlink:href="#DejaVuSans-73" x="74.414062"/>
      <use xlink:href="#DejaVuSans-6d" x="126.513672"/>
      <use xlink:href="#DejaVuSans-5f" x="223.925781"/>
      <use xlink:href="#DejaVuSans-64" x="273.925781"/>
      <use xlink:href="#DejaVuSans-70" x="337.402344"/>
      <use xlink:href="#DejaVuSans-63" x="400.878906"/>
     </g>
    </g>
    <g id="line2d_35">
     <path d="M 482.614062 230.904063 
L 492.614062 230.904063 
L 502.614062 230.904063 
" style="fill: none; stroke: #d62728; stroke-width: 1.8; stroke-linecap: square"/>
    </g>
    <g id="text_20">
     <!-- dst_woa -->
     <g transform="translate(510.614062 234.404063) scale(0.1 -0.1)">
      <defs>
       <path id="DejaVuSans-77" d="M 269 3500 
L 844 3500 
L 1563 769 
L 2278 3500 
L 2956 3500 
L 3675 769 
L 4391 3500 
L 4966 3500 
L 4050 0 
L 3372 0 
L 2619 2869 
L 1863 0 
L 1184 0 
L 269 3500 
z
" transform="scale(0.015625)"/>
      </defs>
      <use xlink:href="#DejaVuSans-64"/>
      <use xlink:href="#DejaVuSans-73" x="63.476562"/>
      <use xlink:href="#DejaVuSans-74" x="115.576172"/>
      <use xlink:href="#DejaVuSans-5f" x="154.785156"/>
      <use xlink:href="#DejaVuSans-77" x="204.785156"/>
      <use xlink:href="#DejaVuSans-6f" x="286.572266"/>
      <use xlink:href="#DejaVuSans-61" x="347.753906"/>
     </g>
    </g>
    <g id="line2d_36">
     <path d="M 482.614062 245.860313 
L 492.614062 245.860313 
L 502.614062 245.860313 
" style="fill: none; stroke: #9467bd; stroke-width: 1.8; stroke-linecap: square"/>
    </g>
    <g id="text_21">
     <!-- trail -->
     <g transform="translate(510.614062 249.360313) scale(0.1 -0.1)">
      <use xlink:href="#DejaVuSans-74"/>
      <use xlink:href="#DejaVuSans-72" x="39.208984"/>
      <use xlink:href="#DejaVuSans-61" x="80.322266"/>
      <use xlink:href="#DejaVuSans-69" x="141.601562"/>
      <use xlink:href="#DejaVuSans-6c" x="169.384766"/>
     </g>
    </g>
   </g>
  </g>
 </g>
 <defs>
  <clipPath id="pbc436073bf">
   <rect x="54.2" y="25.44" width="511" height="235"/>
  </clipPath>
 </defs>
</svg>
