<?xml version="1.0" encoding="utf-8" standalone="no"?>
<!DOCTYPE svg PUBLIC "-//W3C//DTD SVG 1.1//EN"
  "http://www.w3.org/Graphics/SVG/1.1/DTD/svg11.dtd">
<svg xmlns:xlink="http://www.w3.org/1999/xlink" width="576pt" height="302.4pt" viewBox="0 0 576 302.4" xmlns="http://www.w3.org/2000/svg" version="1.1">
 <metadata>
  <rdf:RDF xmlns:dc="http://purl.org/dc/elements/1.1/" xmlns:cc="http://creativecommons.org/ns#" xmlns:rdf="http://www.w3.org/1999/02/22-rdf-syntax-ns#">
   <cc:Work>
    <dc:type rdf:resource="http://purl.org/dc/dcmitype/StillImage"/>
    <dc:date>2025-09-06T15:49:15.165862</dc:date>
    <dc:format>image/svg+xml</dc:format>
    <dc:creator>
     <cc:Agent>
      <dc:title>Matplotlib v3.9.4, https://matplotlib.org/</dc:title>
     </cc:Agent>
    </dc:creator>
   </cc:Work>
  </rdf:RDF>
 </metadata>
 <defs>
  <style type="text/css">*{stroke-linejoin: round; stroke-linecap: butt}</style>
 </defs>
 <g id="figure_1">
  <g id="patch_1">
   <path d="M 0 302.4 
L 576 302.4 
L 576 0 
L 0 0 
z
" style="fill: #ffffff"/>
  </g>
  <g id="axes_1">
   <g id="patch_2">
    <path d="M 54.2 260.44 
L 565.2 260.44 
L 565.2 25.44 
L 54.2 25.44 
z
" style="fill: #ffffff"/>
   </g>
   <g id="matplotlib.axis_1">
    <g id="xtick_1">
     <g id="line2d_1">
      <path d="M 77.372876 260.44 
L 77.372876 25.44 
" clip-path="url(#p66c0381a7e)" style="fill: none; stroke-dasharray: 2.96,1.28; stroke-dashoffset: 0; stroke: #b0b0b0; stroke-opacity: 0.3; stroke-width: 0.8"/>
     </g>
     <g id="line2d_2">
      <defs>
       <path id="m4c99cae9ca" d="M 0 0 
L 0 3.5 
" style="stroke: #000000; stroke-width: 0.8"/>
      </defs>
      <g>
       <use xlink:href="#m4c99cae9ca" x="77.372876" y="260.44" style="stroke: #000000; stroke-width: 0.8"/>
      </g>
     </g>
     <g id="text_1">
      <!-- 0 -->
      <g transform="translate(74.191626 275.038438) scale(0.1 -0.1)">
       <defs>
        <path id="DejaVuSans-30" d="M 2034 4250 
Q 1547 4250 1301 3770 
Q 1056 3291 1056 2328 
Q 1056 1369 1301 889 
Q 1547 409 2034 409 
Q 2525 409 2770 889 
Q 3016 1369 3016 2328 
Q 3016 3291 2770 3770 
Q 2525 4250 2034 4250 
z
M 2034 4750 
Q 2819 4750 3233 4129 
Q 3647 3509 3647 2328 
Q 3647 1150 3233 529 
Q 2819 -91 2034 -91 
Q 1250 -91 836 529 
Q 422 1150 422 2328 
Q 422 3509 836 4129 
Q 1250 4750 2034 4750 
z
" transform="scale(0.015625)"/>
       </defs>
       <use xlink:href="#DejaVuSans-30"/>
      </g>
     </g>
    </g>
    <g id="xtick_2">
     <g id="line2d_3">
      <path d="M 186.165723 260.44 
L 186.165723 25.44 
" clip-path="url(#p66c0381a7e)" style="fill: none; stroke-dasharray: 2.96,1.28; stroke-dashoffset: 0; stroke: #b0b0b0; stroke-opacity: 0.3; stroke-width: 0.8"/>
     </g>
     <g id="line2d_4">
      <g>
       <use xlink:href="#m4c99cae9ca" x="186.165723" y="260.44" style="stroke: #000000; stroke-width: 0.8"/>
      </g>
     </g>
     <g id="text_2">
      <!-- 2000 -->
      <g transform="translate(173.440723 275.038438) scale(0.1 -0.1)">
       <defs>
        <path id="DejaVuSans-32" d="M 1228 531 
L 3431 531 
L 3431 0 
L 469 0 
L 469 531 
Q 828 903 1448 1529 
Q 2069 2156 2228 2338 
Q 2531 2678 2651 2914 
Q 2772 3150 2772 3378 
Q 2772 3750 2511 3984 
Q 2250 4219 1831 4219 
Q 1534 4219 1204 4116 
Q 875 4013 500 3803 
L 500 4441 
Q 881 4594 1212 4672 
Q 1544 4750 1819 4750 
Q 2544 4750 2975 4387 
Q 3406 4025 3406 3419 
Q 3406 3131 3298 2873 
Q 3191 2616 2906 2266 
Q 2828 2175 2409 1742 
Q 1991 1309 1228 531 
z
" transform="scale(0.015625)"/>
       </defs>
       <use xlink:href="#DejaVuSans-32"/>
       <use xlink:href="#DejaVuSans-30" x="63.623047"/>
       <use xlink:href="#DejaVuSans-30" x="127.246094"/>
       <use xlink:href="#DejaVuSans-30" x="190.869141"/>
      </g>
     </g>
    </g>
    <g id="xtick_3">
     <g id="line2d_5">
      <path d="M 294.958569 260.44 
L 294.958569 25.44 
" clip-path="url(#p66c0381a7e)" style="fill: none; stroke-dasharray: 2.96,1.28; stroke-dashoffset: 0; stroke: #b0b0b0; stroke-opacity: 0.3; stroke-width: 0.8"/>
     </g>
     <g id="line2d_6">
      <g>
       <use xlink:href="#m4c99cae9ca" x="294.958569" y="260.44" style="stroke: #000000; stroke-width: 0.8"/>
      </g>
     </g>
     <g id="text_3">
      <!-- 4000 -->
      <g transform="translate(282.233569 275.038438) scale(0.1 -0.1)">
       <defs>
        <path id="DejaVuSans-34" d="M 2419 4116 
L 825 1625 
L 2419 1625 
L 2419 4116 
z
M 2253 4666 
L 3047 4666 
L 3047 1625 
L 3713 1625 
L 3713 1100 
L 3047 1100 
L 3047 0 
L 2419 0 
L 2419 1100 
L 313 1100 
L 313 1709 
L 2253 4666 
z
" transform="scale(0.015625)"/>
       </defs>
       <use xlink:href="#DejaVuSans-34"/>
       <use xlink:href="#DejaVuSans-30" x="63.623047"/>
       <use xlink:href="#DejaVuSans-30" x="127.246094"/>
       <use xlink:href="#DejaVuSans-30" x="190.869141"/>
      </g>
     </g>
    </g>
    <g id="xtick_4">
     <g id="line2d_7">
      <path d="M 403.751416 260.44 
L 403.751416 25.44 
" clip-path="url(#p66c0381a7e)" style="fill: none; stroke-dasharray: 2.96,1.28; stroke-dashoffset: 0; stroke: #b0b0b0; stroke-opacity: 0.3; stroke-width: 0.8"/>
     </g>
     <g id="line2d_8">
      <g>
       <use xlink:href="#m4c99cae9ca" x="403.751416" y="260.44" style="stroke: #000000; stroke-width: 0.8"/>
      </g>
     </g>
     <g id="text_4">
      <!-- 6000 -->
      <g transform="translate(391.026416 275.038438) scale(0.1 -0.1)">
       <defs>
        <path id="DejaVuSans-36" d="M 2113 2584 
Q 1688 2584 1439 2293 
Q 1191 2003 1191 1497 
Q 1191 994 1439 701 
Q 1688 409 2113 409 
Q 2538 409 2786 701 
Q 3034 994 3034 1497 
Q 3034 2003 2786 2293 
Q 2538 2584 2113 2584 
z
M 3366 4563 
L 3366 3988 
Q 3128 4100 2886 4159 
Q 2644 4219 2406 4219 
Q 1781 4219 1451 3797 
Q 1122 3375 1075 2522 
Q 1259 2794 1537 2939 
Q 1816 3084 2150 3084 
Q 2853 3084 3261 2657 
Q 3669 2231 3669 1497 
Q 3669 778 3244 343 
Q 2819 -91 2113 -91 
Q 1303 -91 875 529 
Q 447 1150 447 2328 
Q 447 3434 972 4092 
Q 1497 4750 2381 4750 
Q 2619 4750 2861 4703 
Q 3103 4656 3366 4563 
z
" transform="scale(0.015625)"/>
       </defs>
       <use xlink:href="#DejaVuSans-36"/>
       <use xlink:href="#DejaVuSans-30" x="63.623047"/>
       <use xlink:href="#DejaVuSans-30" x="127.246094"/>
       <use xlink:href="#DejaVuSans-30" x="190.869141"/>
      </g>
     </g>
    </g>
    <g id="xtick_5">
     <g id="line2d_9">
      <path d="M 512.544262 260.44 
L 512.544262 25.44 
" clip-path="url(#p66c0381a7e)" style="fill: none; stroke-dasharray: 2.96,1.28; stroke-dashoffset: 0; stroke: #b0b0b0; stroke-opacity: 0.3; stroke-width: 0.8"/>
     </g>
     <g id="line2d_10">
      <g>
       <use xlink:href="#m4c99cae9ca" x="512.544262" y="260.44" style="stroke: #000000; stroke-width: 0.8"/>
      </g>
     </g>
     <g id="text_5">
      <!-- 8000 -->
      <g transform="translate(499.819262 275.038438) scale(0.1 -0.1)">
       <defs>
        <path id="DejaVuSans-38" d="M 2034 2216 
Q 1584 2216 1326 1975 
Q 1069 1734 1069 1313 
Q 1069 891 1326 650 
Q 1584 409 2034 409 
Q 2484 409 2743 651 
Q 3003 894 3003 1313 
Q 3003 1734 2745 1975 
Q 2488 2216 2034 2216 
z
M 1403 2484 
Q 997 2584 770 2862 
Q 544 3141 544 3541 
Q 544 4100 942 4425 
Q 1341 4750 2034 4750 
Q 2731 4750 3128 4425 
Q 3525 4100 3525 3541 
Q 3525 3141 3298 2862 
Q 3072 2584 2669 2484 
Q 3125 2378 3379 2068 
Q 3634 1759 3634 1313 
Q 3634 634 3220 271 
Q 2806 -91 2034 -91 
Q 1263 -91 848 271 
Q 434 634 434 1313 
Q 434 1759 690 2068 
Q 947 2378 1403 2484 
z
M 1172 3481 
Q 1172 3119 1398 2916 
Q 1625 2713 2034 2713 
Q 2441 2713 2670 2916 
Q 2900 3119 2900 3481 
Q 2900 3844 2670 4047 
Q 2441 4250 2034 4250 
Q 1625 4250 1398 4047 
Q 1172 3844 1172 3481 
z
" transform="scale(0.015625)"/>
       </defs>
       <use xlink:href="#DejaVuSans-38"/>
       <use xlink:href="#DejaVuSans-30" x="63.623047"/>
       <use xlink:href="#DejaVuSans-30" x="127.246094"/>
       <use xlink:href="#DejaVuSans-30" x="190.869141"/>
      </g>
     </g>
    </g>
    <g id="text_6">
     <!-- round -->
     <g transform="translate(295.185937 288.716563) scale(0.1 -0.1)">
      <defs>
       <path id="DejaVuSans-72" d="M 2631 2963 
Q 2534 3019 2420 3045 
Q 2306 3072 2169 3072 
Q 1681 3072 1420 2755 
Q 1159 2438 1159 1844 
L 1159 0 
L 581 0 
L 581 3500 
L 1159 3500 
L 1159 2956 
Q 1341 3275 1631 3429 
Q 1922 3584 2338 3584 
Q 2397 3584 2469 3576 
Q 2541 3569 2628 3553 
L 2631 2963 
z
" transform="scale(0.015625)"/>
       <path id="DejaVuSans-6f" d="M 1959 3097 
Q 1497 3097 1228 2736 
Q 959 2375 959 1747 
Q 959 1119 1226 758 
Q 1494 397 1959 397 
Q 2419 397 2687 759 
Q 2956 1122 2956 1747 
Q 2956 2369 2687 2733 
Q 2419 3097 1959 3097 
z
M 1959 3584 
Q 2709 3584 3137 3096 
Q 3566 2609 3566 1747 
Q 3566 888 3137 398 
Q 2709 -91 1959 -91 
Q 1206 -91 779 398 
Q 353 888 353 1747 
Q 353 2609 779 3096 
Q 1206 3584 1959 3584 
z
" transform="scale(0.015625)"/>
       <path id="DejaVuSans-75" d="M 544 1381 
L 544 3500 
L 1119 3500 
L 1119 1403 
Q 1119 906 1312 657 
Q 1506 409 1894 409 
Q 2359 409 2629 706 
Q 2900 1003 2900 1516 
L 2900 3500 
L 3475 3500 
L 3475 0 
L 2900 0 
L 2900 538 
Q 2691 219 2414 64 
Q 2138 -91 1772 -91 
Q 1169 -91 856 284 
Q 544 659 544 1381 
z
M 1991 3584 
L 1991 3584 
z
" transform="scale(0.015625)"/>
       <path id="DejaVuSans-6e" d="M 3513 2113 
L 3513 0 
L 2938 0 
L 2938 2094 
Q 2938 2591 2744 2837 
Q 2550 3084 2163 3084 
Q 1697 3084 1428 2787 
Q 1159 2491 1159 1978 
L 1159 0 
L 581 0 
L 581 3500 
L 1159 3500 
L 1159 2956 
Q 1366 3272 1645 3428 
Q 1925 3584 2291 3584 
Q 2894 3584 3203 3211 
Q 3513 2838 3513 2113 
z
" transform="scale(0.015625)"/>
       <path id="DejaVuSans-64" d="M 2906 2969 
L 2906 4863 
L 3481 4863 
L 3481 0 
L 2906 0 
L 2906 525 
Q 2725 213 2448 61 
Q 2172 -91 1784 -91 
Q 1150 -91 751 415 
Q 353 922 353 1747 
Q 353 2572 751 3078 
Q 1150 3584 1784 3584 
Q 2172 3584 2448 3432 
Q 2725 3281 2906 2969 
z
M 947 1747 
Q 947 1113 1208 752 
Q 1469 391 1925 391 
Q 2381 391 2643 752 
Q 2906 1113 2906 1747 
Q 2906 2381 2643 2742 
Q 2381 3103 1925 3103 
Q 1469 3103 1208 2742 
Q 947 2381 947 1747 
z
" transform="scale(0.015625)"/>
      </defs>
      <use xlink:href="#DejaVuSans-72"/>
      <use xlink:href="#DejaVuSans-6f" x="38.863281"/>
      <use xlink:href="#DejaVuSans-75" x="100.044922"/>
      <use xlink:href="#DejaVuSans-6e" x="163.423828"/>
      <use xlink:href="#DejaVuSans-64" x="226.802734"/>
     </g>
    </g>
   </g>
   <g id="matplotlib.axis_2">
    <g id="ytick_1">
     <g id="line2d_11">
      <path d="M 54.2 217.712727 
L 565.2 217.712727 
" clip-path="url(#p66c0381a7e)" style="fill: none; stroke-dasharray: 2.96,1.28; stroke-dashoffset: 0; stroke: #b0b0b0; stroke-opacity: 0.3; stroke-width: 0.8"/>
     </g>
     <g id="line2d_12">
      <defs>
       <path id="m8d51ec968b" d="M 0 0 
L -3.5 0 
" style="stroke: #000000; stroke-width: 0.8"/>
      </defs>
      <g>
       <use xlink:href="#m8d51ec968b" x="54.2" y="217.712727" style="stroke: #000000; stroke-width: 0.8"/>
      </g>
     </g>
     <g id="text_7">
      <!-- 0.80 -->
      <g transform="translate(24.934375 221.511946) scale(0.1 -0.1)">
       <defs>
        <path id="DejaVuSans-2e" d="M 684 794 
L 1344 794 
L 1344 0 
L 684 0 
L 684 794 
z
" transform="scale(0.015625)"/>
       </defs>
       <use xlink:href="#DejaVuSans-30"/>
       <use xlink:href="#DejaVuSans-2e" x="63.623047"/>
       <use xlink:href="#DejaVuSans-38" x="95.410156"/>
       <use xlink:href="#DejaVuSans-30" x="159.033203"/>
      </g>
     </g>
    </g>
    <g id="ytick_2">
     <g id="line2d_13">
      <path d="M 54.2 172.315 
L 565.2 172.315 
" clip-path="url(#p66c0381a7e)" style="fill: none; stroke-dasharray: 2.96,1.28; stroke-dashoffset: 0; stroke: #b0b0b0; stroke-opacity: 0.3; stroke-width: 0.8"/>
     </g>
     <g id="line2d_14">
      <g>
       <use xlink:href="#m8d51ec968b" x="54.2" y="172.315" style="stroke: #000000; stroke-width: 0.8"/>
      </g>
     </g>
     <g id="text_8">
      <!-- 0.85 -->
      <g transform="translate(24.934375 176.114219) scale(0.1 -0.1)">
       <defs>
        <path id="DejaVuSans-35" d="M 691 4666 
L 3169 4666 
L 3169 4134 
L 1269 4134 
L 1269 2991 
Q 1406 3038 1543 3061 
Q 1681 3084 1819 3084 
Q 2600 3084 3056 2656 
Q 3513 2228 3513 1497 
Q 3513 744 3044 326 
Q 2575 -91 1722 -91 
Q 1428 -91 1123 -41 
Q 819 9 494 109 
L 494 744 
Q 775 591 1075 516 
Q 1375 441 1709 441 
Q 2250 441 2565 725 
Q 2881 1009 2881 1497 
Q 2881 1984 2565 2268 
Q 2250 2553 1709 2553 
Q 1456 2553 1204 2497 
Q 953 2441 691 2322 
L 691 4666 
z
" transform="scale(0.015625)"/>
       </defs>
       <use xlink:href="#DejaVuSans-30"/>
       <use xlink:href="#DejaVuSans-2e" x="63.623047"/>
       <use xlink:href="#DejaVuSans-38" x="95.410156"/>
       <use xlink:href="#DejaVuSans-35" x="159.033203"/>
      </g>
     </g>
    </g>
    <g id="ytick_3">
     <g id="line2d_15">
      <path d="M 54.2 126.917273 
L 565.2 126.917273 
" clip-path="url(#p66c0381a7e)" style="fill: none; stroke-dasharray: 2.96,1.28; stroke-dashoffset: 0; stroke: #b0b0b0; stroke-opacity: 0.3; stroke-width: 0.8"/>
     </g>
     <g id="line2d_16">
      <g>
       <use xlink:href="#m8d51ec968b" x="54.2" y="126.917273" style="stroke: #000000; stroke-width: 0.8"/>
      </g>
     </g>
     <g id="text_9">
      <!-- 0.90 -->
      <g transform="translate(24.934375 130.716491) scale(0.1 -0.1)">
       <defs>
        <path id="DejaVuSans-39" d="M 703 97 
L 703 672 
Q 941 559 1184 500 
Q 1428 441 1663 441 
Q 2288 441 2617 861 
Q 2947 1281 2994 2138 
Q 2813 1869 2534 1725 
Q 2256 1581 1919 1581 
Q 1219 1581 811 2004 
Q 403 2428 403 3163 
Q 403 3881 828 4315 
Q 1253 4750 1959 4750 
Q 2769 4750 3195 4129 
Q 3622 3509 3622 2328 
Q 3622 1225 3098 567 
Q 2575 -91 1691 -91 
Q 1453 -91 1209 -44 
Q 966 3 703 97 
z
M 1959 2075 
Q 2384 2075 2632 2365 
Q 2881 2656 2881 3163 
Q 2881 3666 2632 3958 
Q 2384 4250 1959 4250 
Q 1534 4250 1286 3958 
Q 1038 3666 1038 3163 
Q 1038 2656 1286 2365 
Q 1534 2075 1959 2075 
z
" transform="scale(0.015625)"/>
       </defs>
       <use xlink:href="#DejaVuSans-30"/>
       <use xlink:href="#DejaVuSans-2e" x="63.623047"/>
       <use xlink:href="#DejaVuSans-39" x="95.410156"/>
       <use xlink:href="#DejaVuSans-30" x="159.033203"/>
      </g>
     </g>
    </g>
    <g id="ytick_4">
     <g id="line2d_17">
      <path d="M 54.2 81.519545 
L 565.2 81.519545 
" clip-path="url(#p66c0381a7e)" style="fill: none; stroke-dasharray: 2.96,1.28; stroke-dashoffset: 0; stroke: #b0b0b0; stroke-opacity: 0.3; stroke-width: 0.8"/>
     </g>
     <g id="line2d_18">
      <g>
       <use xlink:href="#m8d51ec968b" x="54.2" y="81.519545" style="stroke: #000000; stroke-width: 0.8"/>
      </g>
     </g>
     <g id="text_10">
      <!-- 0.95 -->
      <g transform="translate(24.934375 85.318764) scale(0.1 -0.1)">
       <use xlink:href="#DejaVuSans-30"/>
       <use xlink:href="#DejaVuSans-2e" x="63.623047"/>
       <use xlink:href="#DejaVuSans-39" x="95.410156"/>
       <use xlink:href="#DejaVuSans-35" x="159.033203"/>
      </g>
     </g>
    </g>
    <g id="ytick_5">
     <g id="line2d_19">
      <path d="M 54.2 36.121818 
L 565.2 36.121818 
" clip-path="url(#p66c0381a7e)" style="fill: none; stroke-dasharray: 2.96,1.28; stroke-dashoffset: 0; stroke: #b0b0b0; stroke-opacity: 0.3; stroke-width: 0.8"/>
     </g>
     <g id="line2d_20">
      <g>
       <use xlink:href="#m8d51ec968b" x="54.2" y="36.121818" style="stroke: #000000; stroke-width: 0.8"/>
      </g>
     </g>
     <g id="text_11">
      <!-- 1.00 -->
      <g transform="translate(24.934375 39.921037) scale(0.1 -0.1)">
       <defs>
        <path id="DejaVuSans-31" d="M 794 531 
L 1825 531 
L 1825 4091 
L 703 3866 
L 703 4441 
L 1819 4666 
L 2450 4666 
L 2450 531 
L 3481 531 
L 3481 0 
L 794 0 
L 794 531 
z
" transform="scale(0.015625)"/>
       </defs>
       <use xlink:href="#DejaVuSans-31"/>
       <use xlink:href="#DejaVuSans-2e" x="63.623047"/>
       <use xlink:href="#DejaVuSans-30" x="95.410156"/>
       <use xlink:href="#DejaVuSans-30" x="159.033203"/>
      </g>
     </g>
    </g>
    <g id="text_12">
     <!-- cumulative timely transfer rate -->
     <g transform="translate(18.854688 221.048594) rotate(-90) scale(0.1 -0.1)">
      <defs>
       <path id="DejaVuSans-63" d="M 3122 3366 
L 3122 2828 
Q 2878 2963 2633 3030 
Q 2388 3097 2138 3097 
Q 1578 3097 1268 2742 
Q 959 2388 959 1747 
Q 959 1106 1268 751 
Q 1578 397 2138 397 
Q 2388 397 2633 464 
Q 2878 531 3122 666 
L 3122 134 
Q 2881 22 2623 -34 
Q 2366 -91 2075 -91 
Q 1284 -91 818 406 
Q 353 903 353 1747 
Q 353 2603 823 3093 
Q 1294 3584 2113 3584 
Q 2378 3584 2631 3529 
Q 2884 3475 3122 3366 
z
" transform="scale(0.015625)"/>
       <path id="DejaVuSans-6d" d="M 3328 2828 
Q 3544 3216 3844 3400 
Q 4144 3584 4550 3584 
Q 5097 3584 5394 3201 
Q 5691 2819 5691 2113 
L 5691 0 
L 5113 0 
L 5113 2094 
Q 5113 2597 4934 2840 
Q 4756 3084 4391 3084 
Q 3944 3084 3684 2787 
Q 3425 2491 3425 1978 
L 3425 0 
L 2847 0 
L 2847 2094 
Q 2847 2600 2669 2842 
Q 2491 3084 2119 3084 
Q 1678 3084 1418 2786 
Q 1159 2488 1159 1978 
L 1159 0 
L 581 0 
L 581 3500 
L 1159 3500 
L 1159 2956 
Q 1356 3278 1631 3431 
Q 1906 3584 2284 3584 
Q 2666 3584 2933 3390 
Q 3200 3197 3328 2828 
z
" transform="scale(0.015625)"/>
       <path id="DejaVuSans-6c" d="M 603 4863 
L 1178 4863 
L 1178 0 
L 603 0 
L 603 4863 
z
" transform="scale(0.015625)"/>
       <path id="DejaVuSans-61" d="M 2194 1759 
Q 1497 1759 1228 1600 
Q 959 1441 959 1056 
Q 959 750 1161 570 
Q 1363 391 1709 391 
Q 2188 391 2477 730 
Q 2766 1069 2766 1631 
L 2766 1759 
L 2194 1759 
z
M 3341 1997 
L 3341 0 
L 2766 0 
L 2766 531 
Q 2569 213 2275 61 
Q 1981 -91 1556 -91 
Q 1019 -91 701 211 
Q 384 513 384 1019 
Q 384 1609 779 1909 
Q 1175 2209 1959 2209 
L 2766 2209 
L 2766 2266 
Q 2766 2663 2505 2880 
Q 2244 3097 1772 3097 
Q 1472 3097 1187 3025 
Q 903 2953 641 2809 
L 641 3341 
Q 956 3463 1253 3523 
Q 1550 3584 1831 3584 
Q 2591 3584 2966 3190 
Q 3341 2797 3341 1997 
z
" transform="scale(0.015625)"/>
       <path id="DejaVuSans-74" d="M 1172 4494 
L 1172 3500 
L 2356 3500 
L 2356 3053 
L 1172 3053 
L 1172 1153 
Q 1172 725 1289 603 
Q 1406 481 1766 481 
L 2356 481 
L 2356 0 
L 1766 0 
Q 1100 0 847 248 
Q 594 497 594 1153 
L 594 3053 
L 172 3053 
L 172 3500 
L 594 3500 
L 594 4494 
L 1172 4494 
z
" transform="scale(0.015625)"/>
       <path id="DejaVuSans-69" d="M 603 3500 
L 1178 3500 
L 1178 0 
L 603 0 
L 603 3500 
z
M 603 4863 
L 1178 4863 
L 1178 4134 
L 603 4134 
L 603 4863 
z
" transform="scale(0.015625)"/>
       <path id="DejaVuSans-76" d="M 191 3500 
L 800 3500 
L 1894 563 
L 2988 3500 
L 3597 3500 
L 2284 0 
L 1503 0 
L 191 3500 
z
" transform="scale(0.015625)"/>
       <path id="DejaVuSans-65" d="M 3597 1894 
L 3597 1613 
L 953 1613 
Q 991 1019 1311 708 
Q 1631 397 2203 397 
Q 2534 397 2845 478 
Q 3156 559 3463 722 
L 3463 178 
Q 3153 47 2828 -22 
Q 2503 -91 2169 -91 
Q 1331 -91 842 396 
Q 353 884 353 1716 
Q 353 2575 817 3079 
Q 1281 3584 2069 3584 
Q 2775 3584 3186 3129 
Q 3597 2675 3597 1894 
z
M 3022 2063 
Q 3016 2534 2758 2815 
Q 2500 3097 2075 3097 
Q 1594 3097 1305 2825 
Q 1016 2553 972 2059 
L 3022 2063 
z
" transform="scale(0.015625)"/>
       <path id="DejaVuSans-20" transform="scale(0.015625)"/>
       <path id="DejaVuSans-79" d="M 2059 -325 
Q 1816 -950 1584 -1140 
Q 1353 -1331 966 -1331 
L 506 -1331 
L 506 -850 
L 844 -850 
Q 1081 -850 1212 -737 
Q 1344 -625 1503 -206 
L 1606 56 
L 191 3500 
L 800 3500 
L 1894 763 
L 2988 3500 
L 3597 3500 
L 2059 -325 
z
" transform="scale(0.015625)"/>
       <path id="DejaVuSans-73" d="M 2834 3397 
L 2834 2853 
Q 2591 2978 2328 3040 
Q 2066 3103 1784 3103 
Q 1356 3103 1142 2972 
Q 928 2841 928 2578 
Q 928 2378 1081 2264 
Q 1234 2150 1697 2047 
L 1894 2003 
Q 2506 1872 2764 1633 
Q 3022 1394 3022 966 
Q 3022 478 2636 193 
Q 2250 -91 1575 -91 
Q 1294 -91 989 -36 
Q 684 19 347 128 
L 347 722 
Q 666 556 975 473 
Q 1284 391 1588 391 
Q 1994 391 2212 530 
Q 2431 669 2431 922 
Q 2431 1156 2273 1281 
Q 2116 1406 1581 1522 
L 1381 1569 
Q 847 1681 609 1914 
Q 372 2147 372 2553 
Q 372 3047 722 3315 
Q 1072 3584 1716 3584 
Q 2034 3584 2315 3537 
Q 2597 3491 2834 3397 
z
" transform="scale(0.015625)"/>
       <path id="DejaVuSans-66" d="M 2375 4863 
L 2375 4384 
L 1825 4384 
Q 1516 4384 1395 4259 
Q 1275 4134 1275 3809 
L 1275 3500 
L 2222 3500 
L 2222 3053 
L 1275 3053 
L 1275 0 
L 697 0 
L 697 3053 
L 147 3053 
L 147 3500 
L 697 3500 
L 697 3744 
Q 697 4328 969 4595 
Q 1241 4863 1831 4863 
L 2375 4863 
z
" transform="scale(0.015625)"/>
      </defs>
      <use xlink:href="#DejaVuSans-63"/>
      <use xlink:href="#DejaVuSans-75" x="54.980469"/>
      <use xlink:href="#DejaVuSans-6d" x="118.359375"/>
      <use xlink:href="#DejaVuSans-75" x="215.771484"/>
      <use xlink:href="#DejaVuSans-6c" x="279.150391"/>
      <use xlink:href="#DejaVuSans-61" x="306.933594"/>
      <use xlink:href="#DejaVuSans-74" x="368.212891"/>
      <use xlink:href="#DejaVuSans-69" x="407.421875"/>
      <use xlink:href="#DejaVuSans-76" x="435.205078"/>
      <use xlink:href="#DejaVuSans-65" x="494.384766"/>
      <use xlink:href="#DejaVuSans-20" x="555.908203"/>
      <use xlink:href="#DejaVuSans-74" x="587.695312"/>
      <use xlink:href="#DejaVuSans-69" x="626.904297"/>
      <use xlink:href="#DejaVuSans-6d" x="654.6875"/>
      <use xlink:href="#DejaVuSans-65" x="752.099609"/>
      <use xlink:href="#DejaVuSans-6c" x="813.623047"/>
      <use xlink:href="#DejaVuSans-79" x="841.40625"/>
      <use xlink:href="#DejaVuSans-20" x="900.585938"/>
      <use xlink:href="#DejaVuSans-74" x="932.373047"/>
      <use xlink:href="#DejaVuSans-72" x="971.582031"/>
      <use xlink:href="#DejaVuSans-61" x="1012.695312"/>
      <use xlink:href="#DejaVuSans-6e" x="1073.974609"/>
      <use xlink:href="#DejaVuSans-73" x="1137.353516"/>
      <use xlink:href="#DejaVuSans-66" x="1189.453125"/>
      <use xlink:href="#DejaVuSans-65" x="1224.658203"/>
      <use xlink:href="#DejaVuSans-72" x="1286.181641"/>
      <use xlink:href="#DejaVuSans-20" x="1327.294922"/>
      <use xlink:href="#DejaVuSans-72" x="1359.082031"/>
      <use xlink:href="#DejaVuSans-61" x="1400.195312"/>
      <use xlink:href="#DejaVuSans-74" x="1461.474609"/>
      <use xlink:href="#DejaVuSans-65" x="1500.683594"/>
     </g>
    </g>
   </g>
   <g id="line2d_21">
    <path d="M 77.427273 249.758182 
L 77.481669 149.616136 
L 77.536066 175.807133 
L 77.590462 197.812354 
L 77.808048 132.591989 
L 77.862444 138.632815 
L 78.08003 118.964386 
L 78.134426 113.067119 
L 78.243219 113.112116 
L 78.732787 83.225006 
L 79.167958 70.361977 
L 79.657526 62.217638 
L 80.147094 57.27096 
L 80.745455 53.230773 
L 81.452608 50.046029 
L 81.72459 49.137479 
L 81.778987 52.050845 
L 81.833383 51.88948 
L 82.159762 50.952292 
L 82.268554 50.805719 
L 82.322951 51.852705 
L 82.703726 92.658369 
L 82.758122 92.150072 
L 82.866915 94.146245 
L 83.030104 100.774928 
L 83.084501 101.123895 
L 83.24769 99.27219 
L 83.302086 100.310546 
L 83.356483 99.728071 
L 83.465276 98.350237 
L 83.628465 109.01875 
L 83.682861 108.133063 
L 83.846051 115.035836 
L 83.900447 115.986841 
L 83.954844 115.30054 
L 84.063636 115.951364 
L 84.281222 114.120971 
L 84.444411 118.687511 
L 85.097168 107.882147 
L 85.151565 108.057272 
L 85.53234 103.746984 
L 85.586736 104.110832 
L 86.674665 95.37701 
L 86.89225 93.89742 
L 87.109836 95.580788 
L 87.6538 92.072344 
L 88.360954 86.357313 
L 88.632936 84.79567 
L 88.796125 88.929418 
L 88.850522 88.573376 
L 88.904918 90.455672 
L 88.959314 90.127569 
L 89.1769 88.468042 
L 89.231297 88.800874 
L 89.285693 88.503811 
L 89.340089 88.21008 
L 89.394486 88.783182 
L 89.448882 88.439381 
L 89.992846 85.589014 
L 90.047243 87.807806 
L 90.101639 87.458761 
L 90.264829 86.874088 
L 90.319225 89.03072 
L 90.373621 88.852391 
L 91.407154 82.854773 
L 91.787928 88.721949 
L 91.896721 88.277944 
L 91.951118 89.752089 
L 92.005514 89.501942 
L 92.059911 89.242648 
L 92.277496 95.703933 
L 92.386289 95.672337 
L 92.549478 97.253105 
L 92.603875 96.869856 
L 92.712668 96.288594 
L 92.821461 98.613357 
L 92.875857 98.350366 
L 92.930253 97.984644 
L 92.98465 99.300285 
L 93.039046 98.995345 
L 93.202235 98.357782 
L 93.256632 99.379504 
L 93.311028 99.074501 
L 93.365425 98.694359 
L 93.419821 100.246324 
L 93.474218 99.948241 
L 93.637407 99.147047 
L 93.800596 100.175344 
L 93.854993 99.829172 
L 93.909389 100.355696 
L 93.963785 99.948895 
L 94.018182 99.558621 
L 94.072578 99.927535 
L 94.126975 100.360468 
L 94.235768 100.345514 
L 94.670939 97.431134 
L 94.834128 98.5879 
L 95.051714 98.001244 
L 95.323696 99.741901 
L 95.378092 99.424717 
L 95.432489 100.056335 
L 95.486885 99.652777 
L 95.541282 99.273603 
L 95.704471 100.902576 
L 95.758867 100.577897 
L 96.302832 97.49282 
L 96.520417 96.850747 
L 96.62921 97.616247 
L 96.683607 97.302716 
L 96.792399 96.871599 
L 96.846796 96.965728 
L 96.901192 97.125014 
L 96.955589 96.930855 
L 97.009985 96.966342 
L 97.118778 97.910556 
L 97.173174 97.663714 
L 97.281967 97.09937 
L 97.39076 97.813658 
L 97.445156 97.545049 
L 97.608346 96.959322 
L 97.662742 97.333542 
L 97.717139 97.130622 
L 97.825931 96.606213 
L 97.989121 98.563206 
L 98.15231 99.838913 
L 98.206706 99.56776 
L 98.261103 99.368821 
L 98.369896 100.639766 
L 98.424292 100.467226 
L 98.805067 107.408614 
L 99.022653 106.761052 
L 99.077049 106.87084 
L 99.349031 105.460841 
L 99.457824 105.95267 
L 99.512221 105.721299 
L 100.056185 103.117761 
L 100.164978 103.444515 
L 100.27377 104.742629 
L 100.328167 104.581968 
L 100.382563 104.698445 
L 100.491356 104.114631 
L 100.545753 104.293284 
L 100.708942 103.639284 
L 100.817735 103.121603 
L 101.19851 105.190401 
L 101.252906 104.944235 
L 101.361699 105.341129 
L 101.524888 106.088677 
L 101.579285 105.888791 
L 101.688077 106.640835 
L 101.742474 106.441357 
L 102.232042 104.97843 
L 102.286438 105.466571 
L 102.340835 105.351414 
L 102.612817 104.44374 
L 102.667213 104.807385 
L 102.72161 104.606036 
L 102.776006 104.415369 
L 102.884799 104.991889 
L 102.993592 104.547016 
L 103.047988 104.796922 
L 103.102385 104.578052 
L 103.156781 104.369865 
L 103.211177 104.682321 
L 103.265574 104.490656 
L 103.755142 102.450956 
L 103.809538 102.763227 
L 103.863934 102.603763 
L 104.462295 100.546436 
L 104.516692 100.743967 
L 104.571088 100.616534 
L 104.951863 99.364106 
L 105.006259 99.432841 
L 105.169449 98.894714 
L 105.223845 99.377628 
L 105.278241 99.216529 
L 105.441431 99.03423 
L 105.495827 99.088528 
L 105.60462 98.765519 
L 105.713413 99.571928 
L 105.767809 99.469153 
L 105.930999 99.376996 
L 106.148584 100.593849 
L 106.257377 101.516814 
L 106.311773 101.405343 
L 106.529359 100.905904 
L 106.746945 103.219034 
L 107.073323 102.608349 
L 107.12772 103.078307 
L 107.182116 103.005441 
L 107.236513 102.892686 
L 107.345306 104.45738 
L 107.454098 104.289417 
L 107.617288 103.873099 
L 107.671684 104.026337 
L 107.72608 103.923619 
L 107.780477 104.136524 
L 107.834873 104.049008 
L 107.88927 103.939308 
L 107.943666 104.322323 
L 107.998063 104.20762 
L 108.106855 103.84857 
L 108.270045 104.936114 
L 108.378838 104.700423 
L 108.433234 104.828537 
L 108.705216 104.092358 
L 108.868405 105.152667 
L 108.922802 104.984798 
L 109.194784 104.129134 
L 109.303577 104.539905 
L 109.357973 104.414562 
L 109.629955 103.71827 
L 109.684352 103.979604 
L 109.738748 103.85467 
L 109.793145 103.746305 
L 109.901937 104.370089 
L 109.956334 104.254535 
L 110.119523 103.885097 
L 110.337109 105.399099 
L 110.391505 105.327336 
L 110.445902 105.207291 
L 110.500298 105.547942 
L 110.554694 105.423258 
L 110.609091 105.32659 
L 110.77228 106.282897 
L 110.826677 106.162572 
L 110.881073 106.077207 
L 110.935469 106.221689 
L 110.989866 106.085957 
L 111.044262 106.143177 
L 111.098659 106.056003 
L 111.370641 105.68083 
L 111.425037 105.586041 
L 111.479434 106.253885 
L 111.53383 106.158659 
L 111.751416 105.731083 
L 111.805812 105.912984 
L 111.860209 105.758964 
L 111.969001 105.475039 
L 112.023398 105.873459 
L 112.077794 105.747318 
L 112.29538 105.171159 
L 112.349776 105.648584 
L 112.404173 105.5657 
L 112.512966 105.307415 
L 112.676155 105.79719 
L 112.730551 105.680351 
L 112.784948 106.012091 
L 112.839344 105.867283 
L 113.002534 105.432177 
L 113.05693 105.812411 
L 113.111326 105.680163 
L 113.81848 104.473544 
L 113.981669 104.905031 
L 114.036066 104.770796 
L 114.144858 105.157926 
L 114.416841 104.527174 
L 114.471237 104.81888 
L 114.525633 104.6691 
L 114.688823 104.304392 
L 114.743219 104.46671 
L 114.797615 104.323012 
L 114.906408 104.552743 
L 114.960805 104.438976 
L 115.559165 103.363512 
L 115.613562 103.680086 
L 115.667958 103.547463 
L 116.266319 102.592827 
L 116.483905 103.348331 
L 116.538301 103.256687 
L 116.647094 103.037757 
L 116.810283 103.33684 
L 116.919076 103.171371 
L 117.245455 102.476714 
L 117.299851 102.731226 
L 117.354247 102.671061 
L 117.898212 101.815461 
L 117.952608 101.834516 
L 118.170194 101.576759 
L 118.278987 102.195006 
L 118.333383 102.109682 
L 118.550969 101.899085 
L 118.659762 102.713198 
L 118.714158 102.578986 
L 119.094933 101.831315 
L 119.149329 102.053076 
L 119.203726 101.943732 
L 119.584501 101.13991 
L 119.638897 101.419303 
L 119.693294 101.291715 
L 120.128465 100.484613 
L 120.182861 101.102228 
L 120.237258 100.988343 
L 120.454844 100.541442 
L 120.618033 101.613908 
L 120.726826 101.452009 
L 120.781222 101.547635 
L 121.053204 102.760882 
L 121.107601 102.911399 
L 121.161997 102.846441 
L 121.488376 102.403824 
L 121.651565 103.039634 
L 121.705961 102.958188 
L 121.869151 104.27762 
L 121.923547 104.154029 
L 122.304322 103.497719 
L 122.413115 103.77186 
L 122.467511 103.701969 
L 122.521908 103.615195 
L 122.576304 103.660951 
L 122.6307 103.846484 
L 122.685097 103.773821 
L 123.011475 103.154087 
L 123.120268 103.812999 
L 123.174665 103.74133 
L 123.446647 103.322 
L 123.501043 103.588195 
L 123.55544 103.530933 
L 123.881818 102.866055 
L 123.936215 102.923881 
L 123.990611 103.091402 
L 124.045007 102.971966 
L 124.480179 102.376089 
L 124.534575 102.482762 
L 124.588972 102.422117 
L 124.806557 102.006388 
L 125.078539 102.724762 
L 125.241729 102.464283 
L 125.296125 102.651551 
L 125.350522 102.54242 
L 125.404918 102.453398 
L 125.459314 102.582455 
L 125.513711 102.533067 
L 125.6769 102.294223 
L 125.731297 102.446147 
L 125.785693 102.399931 
L 126.166468 102.003503 
L 126.275261 102.521466 
L 126.329657 102.427365 
L 126.384054 102.483317 
L 126.43845 102.718613 
L 126.492846 102.641189 
L 126.764829 102.187212 
L 126.819225 102.595359 
L 126.873621 102.513345 
L 127.091207 102.226531 
L 127.254396 102.703051 
L 127.852757 101.889628 
L 127.907154 102.046212 
L 127.96155 101.964039 
L 128.179136 101.784004 
L 128.342325 102.165398 
L 128.396721 102.049843 
L 128.505514 101.991087 
L 128.668703 101.896373 
L 128.7231 101.852188 
L 128.777496 102.055845 
L 128.831893 101.959704 
L 128.940686 102.110415 
L 128.995082 102.024908 
L 129.103875 101.871293 
L 129.158271 101.956293 
L 129.321461 102.302512 
L 129.48465 102.191764 
L 129.539046 102.489211 
L 129.593443 102.406915 
L 129.647839 102.367127 
L 129.756632 102.643135 
L 129.811028 102.567352 
L 129.919821 102.46359 
L 129.974218 102.585231 
L 130.028614 102.503434 
L 130.2462 102.154244 
L 130.409389 102.526248 
L 130.84456 101.898714 
L 130.898957 102.013034 
L 130.953353 101.9633 
L 131.388525 101.363756 
L 131.660507 102.159479 
L 131.823696 101.94171 
L 131.986885 102.712413 
L 132.041282 102.651022 
L 132.095678 102.57383 
L 132.150075 102.922978 
L 132.204471 102.875081 
L 132.313264 102.781941 
L 132.422057 103.144876 
L 132.476453 103.057825 
L 132.911624 102.495654 
L 133.074814 102.588376 
L 133.12921 102.498282 
L 133.183607 102.625902 
L 133.238003 102.551525 
L 133.455589 102.231927 
L 133.509985 102.395873 
L 133.564382 102.341243 
L 133.89076 102.038817 
L 133.945156 102.220909 
L 133.999553 102.166899 
L 134.162742 101.913297 
L 134.271535 102.228083 
L 134.325931 102.151089 
L 134.543517 101.870306 
L 134.706706 102.270838 
L 134.761103 102.217578 
L 135.033085 101.996902 
L 135.196274 102.216738 
L 135.522653 101.910634 
L 135.740238 101.829773 
L 135.794635 101.756524 
L 135.849031 101.858828 
L 135.903428 101.817194 
L 136.066617 102.485385 
L 136.610581 102.009382 
L 136.664978 102.270387 
L 136.719374 102.22135 
L 137.100149 101.823662 
L 137.154545 102.075447 
L 137.208942 101.987416 
L 137.480924 101.683164 
L 137.644113 101.498634 
L 137.69851 101.626817 
L 137.752906 101.55647 
L 138.405663 100.787229 
L 138.46006 100.888946 
L 138.514456 100.811896 
L 138.568852 100.759228 
L 138.786438 101.071402 
L 138.840835 101.004076 
L 138.895231 101.175097 
L 138.949627 101.120407 
L 139.22161 100.970497 
L 139.276006 101.100818 
L 139.330402 101.049676 
L 139.384799 100.976755 
L 139.439195 101.083818 
L 139.493592 101.381733 
L 139.547988 101.301374 
L 140.037556 100.837727 
L 140.255142 101.385987 
L 140.58152 100.975714 
L 140.635917 101.241421 
L 140.690313 101.207706 
L 141.34307 100.507866 
L 141.397466 100.611785 
L 141.560656 100.981731 
L 141.615052 100.913607 
L 141.887034 100.647499 
L 141.941431 100.835219 
L 141.995827 100.771649 
L 142.322206 100.471389 
L 142.376602 100.417363 
L 142.430999 100.57303 
L 142.485395 100.518015 
L 142.811773 100.211271 
L 142.920566 100.167493 
L 142.974963 100.120065 
L 143.029359 100.308026 
L 143.083756 100.238338 
L 143.138152 100.161085 
L 143.246945 100.582755 
L 143.301341 100.543043 
L 143.355738 100.489848 
L 143.410134 100.596315 
L 143.464531 100.526757 
L 143.845306 100.123022 
L 143.954098 100.117603 
L 144.280477 99.877731 
L 145.15082 99.2447 
L 145.205216 99.432384 
L 145.259613 99.358617 
L 145.368405 99.271242 
L 145.422802 99.534056 
L 145.477198 99.476066 
L 145.640387 99.298159 
L 145.803577 99.635394 
L 145.966766 99.490896 
L 146.021162 99.728147 
L 146.075559 99.66415 
L 146.293145 99.423039 
L 146.347541 99.528207 
L 146.401937 99.713157 
L 146.456334 99.653224 
L 146.619523 99.50298 
L 146.67392 99.723217 
L 146.728316 99.677087 
L 147.163487 99.395792 
L 147.381073 99.597832 
L 147.979434 99.574527 
L 253.345306 99.676457 
L 253.562891 99.71222 
L 273.471982 99.792059 
L 273.689568 99.839725 
L 288.050224 99.93144 
L 288.267809 99.967177 
L 340.705961 100.060655 
L 340.923547 100.09638 
L 363.38927 100.19163 
L 363.715648 100.21544 
L 387.432489 100.310663 
L 387.650075 100.346367 
L 404.730551 100.441561 
L 405.05693 100.465356 
L 415.337854 100.544995 
L 415.55544 100.592569 
L 431.602385 100.695951 
L 431.983159 100.743506 
L 462.445156 100.845922 
L 462.771535 100.86969 
L 475.228316 100.945559 
L 475.445902 100.981197 
L 481.755887 101.071643 
L 482.082265 101.095393 
L 485.128465 101.178508 
L 485.346051 101.214124 
L 494.321461 101.305413 
L 494.539046 101.341016 
L 502.970492 101.443209 
L 503.29687 101.466935 
L 506.125484 101.466935 
L 506.125484 101.466935 
" clip-path="url(#p66c0381a7e)" style="fill: none; stroke: #1f77b4; stroke-width: 1.8; stroke-linecap: square"/>
   </g>
   <g id="line2d_22">
    <path d="M 77.427273 36.121818 
L 77.481669 100.062279 
L 77.536066 80.848643 
L 77.590462 95.986953 
L 77.644858 94.528251 
L 77.753651 77.563727 
L 77.808048 81.038297 
L 77.916841 100.320624 
L 77.971237 93.602145 
L 78.243219 75.250906 
L 78.297615 98.688005 
L 78.352012 95.24444 
L 78.406408 97.317289 
L 78.67839 84.574149 
L 78.732787 87.715893 
L 78.787183 85.435643 
L 78.84158 83.663586 
L 78.895976 85.091163 
L 78.950373 92.976657 
L 79.004769 90.998192 
L 79.113562 87.692386 
L 79.222355 99.356978 
L 79.276751 97.599758 
L 79.331148 102.305293 
L 79.385544 100.425497 
L 79.43994 101.371875 
L 79.494337 111.438961 
L 79.548733 109.404059 
L 80.038301 97.89964 
L 80.255887 94.845246 
L 80.419076 98.032927 
L 80.473472 96.828723 
L 80.527869 97.869685 
L 80.691058 94.726157 
L 80.854247 100.065042 
L 80.96304 98.058035 
L 81.235022 104.772899 
L 81.452608 101.047061 
L 81.561401 101.161542 
L 81.615797 102.854873 
L 81.670194 102.715697 
L 81.72459 101.845488 
L 81.778987 103.052885 
L 81.833383 102.27931 
L 81.887779 102.733156 
L 81.942176 101.950005 
L 82.214158 107.386099 
L 82.322951 105.964476 
L 82.377347 106.74653 
L 82.431744 105.861508 
L 82.48614 106.740505 
L 82.649329 110.010179 
L 82.703726 109.286594 
L 82.758122 108.536913 
L 82.812519 109.291686 
L 83.030104 106.490094 
L 83.138897 106.509553 
L 83.193294 107.682434 
L 83.24769 106.988823 
L 83.356483 105.789343 
L 83.465276 107.761265 
L 83.519672 107.236049 
L 83.574069 106.907377 
L 83.628465 107.396195 
L 83.682861 109.983415 
L 83.737258 109.786258 
L 83.846051 108.441453 
L 83.900447 108.665929 
L 83.954844 110.353167 
L 84.00924 109.829161 
L 84.063636 109.853388 
L 84.118033 110.248869 
L 84.172429 109.565253 
L 84.335618 112.432089 
L 84.390015 112.045603 
L 84.444411 112.593407 
L 84.498808 112.089984 
L 84.77079 109.50317 
L 84.825186 110.189604 
L 84.879583 109.5391 
L 84.988376 108.57366 
L 85.097168 109.889223 
L 85.151565 109.442628 
L 85.314754 107.811565 
L 85.423547 109.378507 
L 85.477943 108.925076 
L 85.641133 107.433699 
L 85.695529 107.704328 
L 85.749925 107.774297 
L 85.804322 107.290681 
L 85.967511 108.114333 
L 86.1307 106.983103 
L 86.185097 107.872449 
L 86.239493 107.503361 
L 86.457079 106.239125 
L 86.620268 106.749611 
L 86.674665 107.371698 
L 86.729061 107.018918 
L 86.783458 106.578564 
L 87.109836 109.839181 
L 87.164232 109.433607 
L 87.218629 111.253709 
L 87.273025 110.775859 
L 87.381818 109.860482 
L 87.436215 110.018736 
L 87.490611 110.198948 
L 87.599404 111.437568 
L 87.6538 110.972314 
L 87.708197 111.41399 
L 88.088972 109.201399 
L 88.143368 109.32649 
L 88.252161 110.007487 
L 88.360954 109.174915 
L 88.41535 110.026538 
L 88.469747 109.724722 
L 88.524143 109.754717 
L 88.632936 109.018833 
L 88.687332 109.114956 
L 88.741729 109.340065 
L 88.796125 109.020207 
L 88.850522 109.083519 
L 88.904918 109.919907 
L 88.959314 109.611612 
L 89.1769 108.283313 
L 89.231297 108.48703 
L 89.340089 110.599777 
L 89.394486 110.225422 
L 89.612072 112.182602 
L 89.666468 112.293065 
L 89.884054 111.418822 
L 89.992846 112.482677 
L 90.047243 112.254653 
L 90.373621 110.688899 
L 90.482414 110.426634 
L 90.536811 110.823968 
L 90.591207 110.528989 
L 90.7 109.925014 
L 90.808793 110.664932 
L 91.189568 108.690676 
L 91.352757 109.273625 
L 91.407154 109.222748 
L 91.570343 108.810344 
L 91.624739 109.640989 
L 91.679136 109.357865 
L 91.733532 109.111434 
L 91.787928 109.323245 
L 91.842325 109.433445 
L 92.059911 108.332206 
L 92.114307 108.908872 
L 92.168703 108.619209 
L 92.331893 108.867987 
L 92.440686 108.394545 
L 92.495082 108.972021 
L 92.549478 108.729283 
L 92.603875 108.734773 
L 92.930253 107.720117 
L 92.98465 107.79782 
L 93.202235 106.766461 
L 93.419821 108.694963 
L 93.58301 107.931462 
L 93.7462 108.965829 
L 93.800596 109.413931 
L 93.854993 109.125485 
L 93.963785 108.568509 
L 94.018182 108.718718 
L 94.181371 109.520683 
L 94.235768 109.320373 
L 94.290164 109.043068 
L 94.34456 109.124201 
L 94.398957 109.330349 
L 94.670939 108.465485 
L 94.779732 109.262819 
L 94.888525 109.092566 
L 94.997317 108.593685 
L 95.051714 108.674646 
L 95.10611 108.745847 
L 95.704471 106.577206 
L 95.758867 106.744232 
L 95.813264 106.647247 
L 96.194039 105.292022 
L 96.357228 105.964476 
L 96.411624 105.72939 
L 96.466021 105.845963 
L 96.574814 105.563712 
L 96.683607 105.154033 
L 96.846796 105.580323 
L 97.118778 105.135237 
L 97.173174 105.39572 
L 97.227571 105.174994 
L 97.281967 104.997338 
L 97.336364 105.197871 
L 97.445156 105.702745 
L 97.553949 105.357669 
L 97.608346 105.494461 
L 97.771535 105.742941 
L 97.825931 105.728217 
L 97.880328 105.918324 
L 98.043517 105.296161 
L 98.206706 106.476171 
L 98.261103 106.336795 
L 98.315499 106.448745 
L 98.369896 106.464799 
L 98.478689 106.146267 
L 98.587481 106.697576 
L 98.696274 107.44577 
L 98.805067 107.065229 
L 98.859463 107.13822 
L 98.91386 107.154864 
L 98.968256 107.021148 
L 99.022653 107.215092 
L 99.077049 107.010517 
L 99.131446 107.109239 
L 99.729806 105.377503 
L 99.892996 106.323396 
L 100.001788 106.907512 
L 100.056185 106.738836 
L 100.164978 106.974454 
L 100.219374 106.843996 
L 100.382563 106.342977 
L 100.43696 106.603523 
L 100.491356 106.456949 
L 100.600149 106.197074 
L 100.654545 106.468901 
L 100.708942 106.276634 
L 100.817735 105.904162 
L 100.872131 106.312096 
L 100.926528 106.155685 
L 101.307303 105.458702 
L 101.361699 105.562327 
L 101.633681 105.049789 
L 101.742474 105.577321 
L 101.79687 105.413013 
L 102.123249 104.741653 
L 102.177645 104.924127 
L 102.232042 104.762361 
L 102.612817 103.777556 
L 102.667213 103.824306 
L 102.776006 103.501448 
L 102.884799 103.844683 
L 102.939195 103.698183 
L 102.993592 103.880806 
L 103.047988 103.768357 
L 103.31997 103.076336 
L 103.428763 103.406665 
L 103.483159 103.27368 
L 103.537556 103.160384 
L 103.591952 103.457354 
L 103.646349 103.328866 
L 103.809538 102.950111 
L 103.972727 103.320974 
L 104.027124 103.516435 
L 104.08152 103.35041 
L 104.135917 103.188948 
L 104.244709 103.476822 
L 104.788674 102.361376 
L 104.951863 102.73992 
L 105.115052 102.31487 
L 105.332638 103.622777 
L 105.387034 103.469962 
L 105.441431 103.510012 
L 105.495827 103.569595 
L 105.930999 102.715598 
L 106.039791 102.441606 
L 106.094188 102.666295 
L 106.148584 102.517893 
L 106.311773 102.108928 
L 106.36617 102.71761 
L 106.420566 102.59448 
L 106.529359 102.33603 
L 106.692548 102.510786 
L 106.855738 102.108154 
L 106.910134 102.401722 
L 106.964531 102.293266 
L 107.018927 102.173544 
L 107.182116 102.611721 
L 107.236513 102.470863 
L 107.399702 102.920913 
L 107.562891 102.579908 
L 107.72608 102.84095 
L 107.943666 102.530566 
L 107.998063 102.607536 
L 108.052459 102.528508 
L 108.48763 101.503914 
L 108.705216 102.07071 
L 108.759613 101.958303 
L 108.977198 101.693587 
L 109.031595 101.715007 
L 109.194784 101.350872 
L 109.357973 101.585626 
L 109.684352 100.978695 
L 109.956334 101.503318 
L 110.01073 101.387312 
L 110.445902 100.521539 
L 110.500298 100.699505 
L 110.554694 100.634431 
L 110.826677 100.122791 
L 110.935469 100.236602 
L 110.989866 100.155831 
L 111.044262 100.038581 
L 111.098659 100.200261 
L 111.153055 100.122749 
L 111.53383 99.364691 
L 111.642623 99.865876 
L 111.697019 99.750098 
L 111.805812 99.548495 
L 111.969001 100.082042 
L 112.132191 99.759686 
L 112.349776 100.280728 
L 112.404173 100.17471 
L 112.512966 99.938118 
L 112.567362 100.282945 
L 112.621759 100.165552 
L 112.730551 99.962818 
L 112.839344 100.424118 
L 112.893741 100.318137 
L 113.111326 99.916195 
L 113.274516 100.234328 
L 113.328912 100.116802 
L 113.383308 100.151673 
L 113.655291 100.925473 
L 113.764083 101.093053 
L 113.927273 100.768446 
L 114.090462 101.089344 
L 114.362444 100.576613 
L 114.471237 100.890424 
L 114.688823 100.522137 
L 114.797615 100.84761 
L 114.852012 100.737845 
L 114.906408 100.625912 
L 114.960805 100.861001 
L 115.015201 100.772059 
L 115.123994 100.599956 
L 115.17839 100.866691 
L 115.232787 100.774434 
L 115.395976 100.514255 
L 115.504769 100.779614 
L 115.559165 100.67826 
L 115.667958 100.859361 
L 115.722355 101.261833 
L 115.776751 101.17786 
L 115.831148 101.086614 
L 115.994337 101.302062 
L 116.157526 101.009067 
L 116.266319 101.677543 
L 116.320715 101.573163 
L 116.429508 101.39623 
L 116.483905 101.559675 
L 116.538301 101.449921 
L 116.810283 100.951457 
L 116.86468 101.191385 
L 116.919076 101.084582 
L 117.571833 100.143612 
L 117.680626 99.955872 
L 117.735022 100.02507 
L 117.843815 100.294013 
L 117.898212 100.669605 
L 117.952608 100.594408 
L 118.496572 99.752364 
L 118.659762 100.207375 
L 118.714158 100.115755 
L 118.768554 100.025538 
L 118.877347 100.422946 
L 118.931744 100.342954 
L 119.802086 99.256369 
L 119.856483 99.385218 
L 119.910879 99.302799 
L 119.965276 99.210745 
L 120.019672 99.328867 
L 120.291654 98.892866 
L 120.346051 99.018618 
L 120.618033 99.725308 
L 120.890015 99.476444 
L 121.107601 99.71498 
L 121.27079 99.66473 
L 121.433979 99.526635 
L 121.488376 99.458639 
L 121.542772 99.60388 
L 121.597168 99.542323 
L 121.760358 99.356259 
L 121.814754 99.577512 
L 121.869151 99.501542 
L 121.923547 99.444683 
L 122.086736 99.622399 
L 122.141133 99.552016 
L 122.304322 99.927994 
L 122.576304 99.592133 
L 122.6307 100.016623 
L 122.685097 99.958078 
L 122.739493 99.902768 
L 122.79389 100.563712 
L 122.848286 100.482778 
L 123.283458 100.051326 
L 123.337854 100.372598 
L 123.39225 100.299031 
L 123.664232 99.975689 
L 123.718629 100.059819 
L 123.773025 100.410665 
L 123.827422 100.335589 
L 123.990611 100.123653 
L 124.045007 100.414714 
L 124.099404 100.351276 
L 124.31699 100.102825 
L 124.371386 100.483626 
L 124.425782 100.420478 
L 124.643368 100.307181 
L 125.024143 100.130842 
L 125.296125 99.876976 
L 125.459314 100.120047 
L 125.894486 99.899855 
L 126.275261 99.716144 
L 126.384054 100.021335 
L 126.43845 99.968264 
L 126.928018 99.613783 
L 126.982414 99.797273 
L 127.036811 99.75157 
L 127.145604 99.665205 
L 127.2 99.790586 
L 127.254396 99.764397 
L 127.580775 99.567152 
L 127.635171 99.782603 
L 127.689568 99.756545 
L 127.907154 99.644834 
L 127.96155 99.758165 
L 128.015946 99.72545 
L 128.7231 99.381114 
L 128.777496 99.490972 
L 128.831893 99.460505 
L 129.103875 99.337032 
L 129.158271 99.542812 
L 129.212668 99.517155 
L 129.321461 99.463059 
L 129.375857 99.623884 
L 129.430253 99.597289 
L 129.593443 99.531846 
L 129.647839 99.706842 
L 129.702235 99.681212 
L 130.518182 99.440836 
L 130.572578 99.614766 
L 130.626975 99.58651 
L 131.170939 99.353888 
L 131.225335 99.503983 
L 131.279732 99.480582 
L 132.150075 99.337739 
L 132.313264 99.477748 
L 134.924292 99.186976 
L 136.338599 99.177357 
L 141.615052 99.019806 
L 150.209687 98.839273 
L 263.46304 98.948262 
L 264.007004 98.960574 
L 287.288674 99.068608 
L 287.560656 99.093222 
L 307.252161 99.188908 
L 307.469747 99.225816 
L 318.729806 99.324222 
L 319.001788 99.34882 
L 332.328912 99.454882 
L 332.872876 99.467177 
L 350.551714 99.57781 
L 350.823696 99.602391 
L 375.900447 99.694226 
L 376.172429 99.718797 
L 386.616542 99.827499 
L 386.888525 99.852062 
L 393.524888 99.949372 
L 393.79687 99.973928 
L 406.852012 99.994766 
L 406.852012 99.994766 
" clip-path="url(#p66c0381a7e)" style="fill: none; stroke: #ff7f0e; stroke-width: 1.8; stroke-linecap: square"/>
   </g>
   <g id="line2d_23">
    <path d="M 77.427273 36.121818 
L 77.699255 36.121818 
L 77.808048 77.48649 
L 77.862444 71.450789 
L 77.916841 67.757865 
L 77.971237 84.787069 
L 78.025633 79.954107 
L 78.188823 71.197325 
L 78.297615 84.824361 
L 78.460805 78.247298 
L 78.623994 86.845536 
L 78.895976 78.011301 
L 79.004769 94.966221 
L 79.167958 90.244049 
L 79.331148 95.126822 
L 79.385544 94.430826 
L 79.43994 92.917273 
L 79.657526 97.760227 
L 79.766319 95.084207 
L 79.875112 99.386158 
L 79.929508 97.999542 
L 80.147094 92.321804 
L 80.20149 92.938266 
L 80.36468 89.730886 
L 80.419076 89.981365 
L 80.473472 90.920847 
L 80.745455 86.538041 
L 80.908644 88.3259 
L 80.96304 87.5032 
L 81.12623 90.582462 
L 81.507004 85.56769 
L 81.561401 84.808697 
L 81.72459 90.164594 
L 81.778987 89.416342 
L 81.996572 86.816368 
L 82.105365 88.272858 
L 82.159762 87.767537 
L 82.48614 84.874133 
L 82.703726 90.416143 
L 82.866915 88.649294 
L 82.921311 89.389988 
L 82.975708 89.036838 
L 83.193294 87.148702 
L 83.24769 87.825528 
L 83.302086 87.388 
L 83.519672 85.583869 
L 83.682861 84.170281 
L 83.737258 84.988067 
L 83.791654 84.594777 
L 83.846051 84.820648 
L 84.172429 82.851396 
L 84.390015 86.520471 
L 84.444411 86.091859 
L 84.553204 85.338452 
L 84.607601 88.106413 
L 84.661997 87.800117 
L 84.716393 87.425286 
L 84.825186 87.918234 
L 84.879583 87.627376 
L 85.042772 90.142464 
L 85.097168 89.757118 
L 85.260358 91.251525 
L 85.369151 90.503239 
L 85.477943 92.538037 
L 85.53234 92.098816 
L 85.967511 89.875068 
L 86.021908 90.502857 
L 86.076304 90.283672 
L 86.348286 88.621403 
L 86.402683 88.712771 
L 86.457079 88.387518 
L 86.511475 88.758109 
L 86.565872 88.549864 
L 86.729061 87.656646 
L 86.89225 89.530909 
L 86.946647 89.216653 
L 87.001043 88.868098 
L 87.05544 89.135145 
L 87.273025 88.2006 
L 87.327422 88.50229 
L 87.381818 88.243385 
L 87.599404 87.355571 
L 87.6538 87.657064 
L 87.708197 88.765685 
L 87.762593 88.725053 
L 88.034575 87.300116 
L 88.088972 89.561135 
L 88.143368 89.281775 
L 88.197765 88.954598 
L 88.252161 89.237989 
L 88.306557 88.981694 
L 88.360954 89.160889 
L 88.41535 89.154052 
L 88.469747 89.497552 
L 88.524143 89.244567 
L 88.578539 88.965362 
L 88.632936 89.596613 
L 88.687332 89.29408 
L 88.796125 88.894652 
L 88.850522 89.534937 
L 88.904918 89.242471 
L 88.959314 88.94137 
L 89.013711 89.419929 
L 89.068107 89.211118 
L 89.231297 88.361565 
L 89.394486 90.491919 
L 89.448882 90.188393 
L 89.503279 91.26102 
L 89.557675 91.003141 
L 89.612072 90.732256 
L 89.720864 93.899591 
L 89.775261 93.658448 
L 89.829657 93.631053 
L 89.884054 93.896765 
L 89.93845 93.698512 
L 89.992846 93.562954 
L 90.047243 94.235356 
L 90.101639 93.987394 
L 90.319225 93.027721 
L 90.373621 93.185327 
L 90.536811 94.893535 
L 90.591207 95.057553 
L 90.808793 94.102452 
L 90.863189 94.635737 
L 90.917586 94.337387 
L 90.971982 94.474689 
L 91.189568 93.560022 
L 91.243964 94.577464 
L 91.298361 94.349277 
L 91.46155 93.717611 
L 91.570343 94.485587 
L 91.842325 93.713722 
L 91.896721 93.750847 
L 92.005514 93.29469 
L 92.059911 93.552839 
L 92.114307 93.408032 
L 92.2231 92.888761 
L 92.386289 93.9178 
L 92.549478 93.21325 
L 92.603875 93.34649 
L 92.767064 94.013751 
L 92.875857 93.570725 
L 92.930253 93.805523 
L 92.98465 93.836294 
L 93.365425 92.392569 
L 93.419821 92.545365 
L 93.474218 92.374475 
L 93.691803 91.616655 
L 93.909389 92.968565 
L 94.290164 91.721153 
L 94.34456 92.207269 
L 94.398957 91.985455 
L 94.50775 91.635282 
L 94.562146 91.987627 
L 94.616542 91.821795 
L 94.834128 91.246047 
L 94.888525 91.471971 
L 94.942921 91.356418 
L 94.997317 91.375631 
L 95.323696 90.572383 
L 95.378092 91.555013 
L 95.432489 91.367051 
L 95.704471 90.859949 
L 95.758867 92.389424 
L 95.813264 92.210706 
L 95.922057 91.889817 
L 95.976453 92.444487 
L 96.030849 92.239714 
L 96.139642 91.912636 
L 96.194039 92.106205 
L 96.248435 91.922468 
L 96.466021 91.447526 
L 96.520417 92.01142 
L 96.574814 91.860741 
L 96.683607 91.549624 
L 96.738003 91.948161 
L 96.792399 91.840643 
L 96.846796 91.634106 
L 96.901192 92.708668 
L 96.955589 92.534592 
L 97.717139 90.40603 
L 97.880328 91.689432 
L 97.934724 91.545142 
L 97.989121 91.698692 
L 98.097914 91.573677 
L 98.369896 91.030119 
L 98.424292 91.301579 
L 98.478689 91.191474 
L 98.641878 90.75581 
L 98.696274 91.430164 
L 98.750671 91.271864 
L 99.022653 90.579133 
L 99.077049 90.616154 
L 99.131446 90.828989 
L 99.185842 90.647889 
L 99.512221 89.836221 
L 99.566617 90.27466 
L 99.621013 90.115606 
L 99.67541 90.130144 
L 99.729806 90.541915 
L 99.784203 90.473875 
L 99.892996 90.148413 
L 99.947392 90.549983 
L 100.001788 90.443885 
L 100.164978 90.049676 
L 100.219374 90.248581 
L 100.27377 90.1283 
L 100.545753 89.702969 
L 100.980924 89.029803 
L 101.03532 89.310709 
L 101.089717 89.177561 
L 101.361699 88.542062 
L 101.416095 88.994352 
L 101.470492 88.901329 
L 101.524888 88.749477 
L 101.579285 89.048483 
L 101.633681 88.919091 
L 101.742474 88.673155 
L 101.851267 89.026405 
L 101.905663 88.938684 
L 102.014456 88.707987 
L 102.068852 88.951551 
L 102.123249 88.83574 
L 102.232042 88.596687 
L 102.286438 88.724186 
L 102.340835 88.615252 
L 102.993592 87.364456 
L 103.047988 87.448039 
L 103.102385 87.341304 
L 103.374367 86.746409 
L 103.428763 87.034881 
L 103.483159 86.919158 
L 103.591952 86.863909 
L 103.700745 86.674256 
L 103.755142 86.800386 
L 103.809538 87.066717 
L 103.863934 86.933128 
L 104.190313 86.264473 
L 104.244709 86.584386 
L 104.299106 86.50506 
L 104.407899 86.263864 
L 104.462295 86.57161 
L 104.516692 86.460044 
L 104.625484 86.241495 
L 104.679881 86.520013 
L 104.734277 86.434347 
L 104.897466 86.142174 
L 104.951863 86.387464 
L 105.006259 86.296718 
L 105.713413 85.139725 
L 105.985395 84.66364 
L 106.039791 84.952402 
L 106.094188 84.85618 
L 106.638152 83.840092 
L 106.746945 84.485226 
L 106.801341 84.386825 
L 106.855738 84.308116 
L 106.910134 84.55574 
L 106.964531 84.461871 
L 107.073323 84.379956 
L 107.345306 84.011282 
L 107.72608 83.382437 
L 107.780477 83.956677 
L 107.834873 83.877101 
L 108.052459 83.54575 
L 108.324441 84.190437 
L 108.596423 83.824952 
L 108.65082 84.179626 
L 108.705216 84.152042 
L 108.814009 83.983252 
L 109.140387 85.253818 
L 109.194784 85.187441 
L 109.684352 84.42483 
L 109.738748 84.558032 
L 109.793145 84.464938 
L 109.901937 84.272346 
L 109.956334 84.629525 
L 110.01073 84.537012 
L 110.17392 84.307268 
L 110.337109 85.042532 
L 110.445902 84.891842 
L 110.826677 84.548502 
L 111.261848 84.144181 
L 111.316244 84.576711 
L 111.370641 84.479484 
L 111.642623 84.089733 
L 111.697019 84.253543 
L 111.751416 84.156919 
L 112.023398 83.816057 
L 112.077794 83.976094 
L 112.132191 83.901959 
L 112.404173 83.551791 
L 112.567362 83.967169 
L 112.839344 83.629814 
L 112.893741 83.69477 
L 112.948137 84.007357 
L 113.002534 83.934889 
L 113.927273 82.698069 
L 114.090462 82.479165 
L 114.144858 82.661738 
L 114.199255 82.587276 
L 114.688823 81.973144 
L 114.797615 81.818544 
L 114.852012 82.277941 
L 114.906408 82.241696 
L 115.123994 81.930284 
L 115.17839 82.256817 
L 115.232787 82.186106 
L 115.504769 81.836788 
L 115.722355 82.34771 
L 115.776751 82.281923 
L 115.831148 82.505978 
L 115.885544 82.431067 
L 116.157526 82.17677 
L 116.211923 82.36972 
L 116.266319 82.289664 
L 117.027869 81.470421 
L 117.082265 81.576315 
L 117.136662 81.520506 
L 117.843815 80.78679 
L 117.952608 81.036832 
L 118.007004 80.966982 
L 118.98614 79.978847 
L 119.040537 80.247399 
L 119.094933 80.190335 
L 119.366915 79.933603 
L 119.421311 80.120899 
L 119.475708 80.078579 
L 120.998808 78.958847 
L 121.053204 79.290653 
L 121.107601 79.233785 
L 121.651565 78.849091 
L 121.705961 79.031808 
L 121.760358 78.982603 
L 122.576304 78.316507 
L 124.208197 77.078932 
L 124.643368 76.805204 
L 124.697765 76.947585 
L 124.752161 76.903328 
L 125.568107 76.332297 
L 126.928018 75.456389 
L 127.526379 75.067502 
L 127.580775 75.278297 
L 127.635171 75.250645 
L 128.777496 74.775568 
L 128.831893 74.94568 
L 128.886289 74.923294 
L 130.681371 74.140585 
L 130.953353 74.026585 
L 131.00775 74.166287 
L 131.062146 74.143617 
L 131.823696 73.864991 
L 132.258867 73.700751 
L 132.313264 73.9347 
L 132.36766 73.917396 
L 135.087481 73.195743 
L 135.141878 73.427644 
L 135.196274 73.412705 
L 137.317735 73.011473 
L 142.920566 72.279799 
L 145.966766 72.043794 
L 154.398212 71.810849 
L 169.194039 71.609013 
L 169.466021 71.700473 
L 170.445156 71.790275 
L 170.771535 71.908253 
L 173.763338 72.009076 
L 174.03532 72.035641 
L 178.550224 72.140238 
L 178.767809 72.180071 
L 183.337109 72.284071 
L 183.826677 72.297344 
L 186.546498 72.363701 
L 186.81848 72.483119 
L 188.395976 72.547231 
L 188.559165 72.626808 
L 190.191058 72.693111 
L 190.354247 72.746147 
L 191.442176 72.785919 
L 191.605365 72.878707 
L 193.291654 72.958223 
L 193.454844 73.064223 
L 196.229061 73.113275 
L 196.39225 73.19274 
L 200.145604 73.279781 
L 200.308793 73.345967 
L 201.233532 73.451844 
L 201.451118 73.491541 
L 203.300596 73.568079 
L 203.463785 73.634216 
L 207.924292 73.721649 
L 208.087481 73.787754 
L 208.957824 73.879136 
L 209.17541 73.918784 
L 210.100149 74.011282 
L 210.372131 74.037707 
L 211.351267 74.143388 
L 211.514456 74.235839 
L 211.786438 74.26225 
L 213.853502 74.340312 
L 214.071088 74.379917 
L 215.974963 74.406318 
L 216.138152 74.49871 
L 220.217884 74.585829 
L 220.381073 74.664979 
L 224.787183 74.744115 
L 224.950373 74.823236 
L 229.791654 74.89999 
L 230.00924 74.938359 
L 235.285693 75.037892 
L 235.503279 75.077418 
L 237.624739 75.155275 
L 237.842325 75.194789 
L 241.758867 75.282819 
L 241.922057 75.335482 
L 245.838599 75.412678 
L 246.056185 75.450375 
L 248.286438 75.542486 
L 248.504024 75.581957 
L 249.972727 75.660887 
L 250.135917 75.713499 
L 252.039791 75.791204 
L 252.202981 75.870093 
L 253.562891 75.962113 
L 253.88927 76.012875 
L 255.031595 76.103044 
L 255.24918 76.142459 
L 257.261848 76.244511 
L 257.425037 76.388955 
L 258.730551 76.42834 
L 258.893741 76.5071 
L 263.245455 76.597132 
L 263.408644 76.662738 
L 264.714158 76.762155 
L 264.931744 76.801499 
L 267.488376 76.906399 
L 267.651565 76.985057 
L 271.078539 77.088675 
L 271.241729 77.141091 
L 273.417586 77.1804 
L 273.580775 77.285205 
L 277.986885 77.349449 
L 278.150075 77.428023 
L 281.957824 77.519673 
L 282.121013 77.585126 
L 286.527124 77.681669 
L 286.690313 77.760166 
L 290.334873 77.837389 
L 290.552459 77.876624 
L 293.544262 77.964999 
L 293.816244 78.030364 
L 297.732787 78.119957 
L 297.895976 78.172229 
L 303.933979 78.280911 
L 304.151565 78.320092 
L 306.762593 78.398443 
L 306.925782 78.463725 
L 307.469747 78.528997 
L 307.632936 78.581208 
L 310.026379 78.683685 
L 310.243964 78.722828 
L 312.093443 78.812216 
L 312.256632 78.877429 
L 314.922057 78.968066 
L 315.139642 79.00718 
L 318.566617 79.070422 
L 318.729806 79.200752 
L 322.374367 79.300435 
L 322.646349 79.326488 
L 324.441431 79.430682 
L 324.659016 79.469749 
L 329.554694 79.56089 
L 329.717884 79.612963 
L 333.852012 79.678044 
L 334.069598 79.756129 
L 342.229061 79.864011 
L 342.39225 79.916035 
L 346.689568 80.00244 
L 347.015946 80.054442 
L 348.267064 80.106437 
L 348.430253 80.171423 
L 350.932489 80.244747 
L 351.150075 80.283722 
L 354.849031 80.344019 
L 355.012221 80.395968 
L 358.384799 80.498513 
L 358.602385 80.53746 
L 361.430999 80.637957 
L 361.648584 80.676888 
L 363.606855 80.780689 
L 363.824441 80.819608 
L 368.774516 80.91597 
L 368.937705 80.967836 
L 370.352012 80.990396 
L 371.657526 81.068173 
L 371.875112 81.107056 
L 376.118033 81.195062 
L 376.335618 81.233931 
L 377.967511 81.272796 
L 378.1307 81.350517 
L 380.360954 81.439813 
L 380.632936 81.465711 
L 382.7 81.568603 
L 383.080775 81.646267 
L 385.854993 81.747059 
L 386.072578 81.785874 
L 392.164978 81.870252 
L 392.328167 81.921982 
L 396.407899 81.970268 
L 396.571088 82.03491 
L 400.270045 82.123324 
L 400.542027 82.149171 
L 404.404173 82.23686 
L 404.676155 82.262699 
L 406.688823 82.361882 
L 406.852012 82.413539 
L 409.245455 82.503924 
L 409.46304 82.568473 
L 412.074069 82.645918 
L 412.346051 82.72335 
L 416.480179 82.824473 
L 416.643368 82.876072 
L 419.526379 82.979251 
L 419.852757 83.030831 
L 424.585246 83.132566 
L 424.802832 83.171237 
L 427.196274 83.248568 
L 427.522653 83.351655 
L 432.146349 83.439712 
L 432.363934 83.478353 
L 433.506259 83.555626 
L 433.832638 83.658634 
L 439.000298 83.753067 
L 439.217884 83.791673 
L 441.611326 83.879597 
L 441.828912 83.91819 
L 446.180626 84.027501 
L 446.452608 84.091789 
L 451.29389 84.169567 
L 451.511475 84.208118 
L 455.156036 84.293018 
L 455.319225 84.344398 
L 461.683607 84.406451 
L 461.683607 84.406451 
" clip-path="url(#p66c0381a7e)" style="fill: none; stroke: #2ca02c; stroke-width: 1.8; stroke-linecap: square"/>
   </g>
   <g id="line2d_24">
    <path d="M 77.427273 36.121818 
L 77.481669 36.121818 
L 77.536066 126.917273 
L 77.590462 107.614302 
L 77.808048 72.295306 
L 77.862444 69.625676 
L 77.916841 83.827904 
L 77.971237 79.62505 
L 78.134426 70.999874 
L 78.188823 73.552218 
L 78.243219 87.687165 
L 78.297615 85.806026 
L 78.569598 74.108432 
L 78.623994 72.785066 
L 78.67839 83.836109 
L 78.732787 81.552466 
L 79.113562 72.003183 
L 79.494337 65.562074 
L 79.548733 73.181187 
L 79.60313 72.025117 
L 79.983905 66.286421 
L 80.147094 75.831042 
L 80.36468 72.49774 
L 80.473472 83.806163 
L 80.582265 82.083993 
L 80.745455 80.104885 
L 80.799851 79.393899 
L 80.854247 81.855088 
L 80.908644 80.99521 
L 81.398212 75.83269 
L 81.452608 84.16624 
L 81.507004 83.424199 
L 81.778987 80.488894 
L 81.833383 82.404359 
L 81.887779 81.80748 
L 81.942176 81.159997 
L 81.996572 84.381454 
L 82.050969 83.714722 
L 82.105365 83.056756 
L 82.159762 84.069576 
L 82.214158 83.460983 
L 82.268554 82.939868 
L 82.377347 86.935686 
L 82.431744 86.271948 
L 82.758122 83.38783 
L 83.24769 79.476318 
L 83.302086 79.122545 
L 83.356483 80.950182 
L 83.410879 80.520224 
L 83.791654 78.01705 
L 83.954844 84.265981 
L 84.118033 82.823132 
L 84.172429 84.047566 
L 84.226826 83.64047 
L 84.281222 83.208247 
L 84.444411 88.269891 
L 84.498808 87.790148 
L 84.661997 86.635029 
L 84.825186 90.469204 
L 85.042772 88.688188 
L 85.097168 88.866521 
L 85.151565 89.889445 
L 85.205961 89.530909 
L 85.369151 88.300686 
L 85.423547 89.753164 
L 85.477943 89.359314 
L 85.804322 87.224888 
L 85.967511 88.819559 
L 86.021908 88.496295 
L 86.348286 86.485436 
L 86.402683 87.322966 
L 86.457079 86.99778 
L 87.05544 83.922698 
L 87.109836 85.738245 
L 87.164232 85.436195 
L 87.490611 84.063565 
L 87.6538 85.162445 
L 87.81699 84.401682 
L 87.871386 86.073486 
L 87.925782 85.803261 
L 88.360954 83.7464 
L 89.068107 80.600417 
L 89.122504 81.738304 
L 89.1769 81.498142 
L 89.829657 78.849091 
L 89.884054 78.710438 
L 89.93845 80.126077 
L 89.992846 80.045442 
L 90.264829 79.044961 
L 90.319225 79.848961 
L 90.373621 79.606602 
L 90.754396 78.273724 
L 90.808793 78.734753 
L 90.863189 78.557138 
L 91.407154 76.944858 
L 91.46155 77.549176 
L 91.515946 77.492304 
L 91.842325 76.461206 
L 91.896721 77.408205 
L 91.951118 77.272309 
L 92.114307 76.785824 
L 92.168703 77.443869 
L 92.2231 77.274768 
L 92.495082 76.636699 
L 92.549478 77.086325 
L 92.603875 76.93989 
L 92.712668 76.652577 
L 92.767064 77.620221 
L 92.821461 77.503561 
L 92.98465 77.113723 
L 93.039046 78.005988 
L 93.093443 77.882814 
L 93.311028 77.459758 
L 93.963785 75.683887 
L 94.616542 74.284702 
L 94.670939 74.852271 
L 94.725335 74.695367 
L 95.160507 73.639434 
L 95.2693 74.399756 
L 95.323696 74.283714 
L 95.595678 73.790166 
L 95.650075 75.152889 
L 95.704471 75.02108 
L 96.139642 74.126514 
L 96.357228 73.646074 
L 96.411624 73.859574 
L 96.466021 73.782771 
L 96.792399 73.163525 
L 96.846796 73.438569 
L 96.901192 73.320013 
L 97.281967 72.612316 
L 97.39076 72.411439 
L 97.445156 72.815312 
L 97.499553 72.71234 
L 97.825931 72.075538 
L 97.880328 72.724643 
L 97.934724 72.616151 
L 98.15231 72.317058 
L 98.206706 72.920971 
L 98.261103 72.821483 
L 98.478689 72.48785 
L 98.533085 72.750208 
L 98.587481 72.641433 
L 99.022653 71.952915 
L 100.056185 70.307916 
L 100.110581 70.234005 
L 100.164978 70.669391 
L 100.219374 70.610443 
L 100.43696 70.292544 
L 100.545753 71.45178 
L 100.600149 71.351543 
L 100.872131 70.963103 
L 100.926528 71.138165 
L 100.980924 71.045894 
L 101.144113 70.816651 
L 101.19851 71.251328 
L 101.252906 71.166668 
L 101.307303 71.083772 
L 101.361699 71.524522 
L 101.416095 71.424734 
L 101.742474 70.942072 
L 101.79687 71.617629 
L 101.851267 71.554359 
L 101.96006 71.407158 
L 102.123249 72.023082 
L 102.177645 71.941113 
L 102.939195 71.029227 
L 102.993592 71.217564 
L 103.047988 71.16303 
L 103.265574 70.892883 
L 103.31997 71.522822 
L 103.374367 71.472242 
L 103.646349 71.130855 
L 103.700745 71.455031 
L 103.755142 71.366663 
L 104.299106 70.625281 
L 104.353502 71.202945 
L 104.407899 71.125868 
L 104.516692 71.004916 
L 104.571088 71.404464 
L 104.625484 71.323926 
L 104.897466 70.954852 
L 105.495827 70.24395 
L 105.60462 70.168618 
L 105.767809 70.735223 
L 105.822206 70.671801 
L 105.876602 71.003252 
L 105.930999 70.920337 
L 106.638152 70.075637 
L 107.073323 69.557226 
L 107.12772 70.56773 
L 107.182116 70.537641 
L 107.671684 70.024666 
L 107.72608 70.418423 
L 107.780477 70.342817 
L 108.868405 69.175939 
L 108.922802 69.574045 
L 108.977198 69.50604 
L 109.303577 69.162415 
L 109.357973 69.394177 
L 109.41237 69.342888 
L 109.466766 69.286941 
L 109.521162 69.604501 
L 109.575559 69.534756 
L 109.684352 69.439329 
L 109.738748 69.742018 
L 109.793145 69.679213 
L 109.847541 69.634908 
L 109.901937 69.78445 
L 109.956334 69.72668 
L 110.282712 69.396428 
L 110.337109 69.749764 
L 110.391505 69.690921 
L 111.098659 69.029644 
L 111.207452 68.924368 
L 111.316244 69.541774 
L 111.370641 69.487659 
L 111.914605 69.005731 
L 111.969001 68.981733 
L 112.132191 70.235435 
L 112.186587 70.16859 
L 112.458569 69.907411 
L 112.512966 70.341878 
L 112.567362 70.308234 
L 112.730551 70.131112 
L 112.784948 70.320497 
L 112.839344 70.268222 
L 114.090462 69.246209 
L 114.144858 69.463674 
L 114.199255 69.401134 
L 114.906408 68.767273 
L 115.015201 69.429689 
L 115.069598 69.370352 
L 115.613562 68.894365 
L 115.667958 69.147597 
L 115.722355 69.100996 
L 116.538301 68.407434 
L 116.592697 68.79557 
L 116.647094 68.773825 
L 116.755887 68.680958 
L 116.810283 69.082872 
L 116.86468 69.030692 
L 117.46304 68.554052 
L 117.517437 68.780231 
L 117.571833 68.724893 
L 117.898212 68.496448 
L 117.952608 68.75545 
L 118.007004 68.714951 
L 118.98614 68.000639 
L 119.040537 68.261982 
L 119.094933 68.216596 
L 119.258122 68.081915 
L 119.312519 68.501065 
L 119.366915 68.475825 
L 120.019672 68.015543 
L 120.074069 68.164229 
L 120.128465 68.122843 
L 120.618033 67.85474 
L 120.672429 68.398106 
L 120.726826 68.350747 
L 120.998808 68.155131 
L 121.053204 68.537654 
L 121.107601 68.500208 
L 121.651565 68.119624 
L 121.760358 68.869541 
L 121.869151 68.810246 
L 122.79389 68.224443 
L 122.902683 68.666468 
L 122.957079 68.628925 
L 123.120268 68.519474 
L 123.283458 68.939676 
L 124.045007 68.488547 
L 124.208197 68.380454 
L 124.262593 68.681009 
L 124.31699 68.665972 
L 124.752161 68.433046 
L 124.806557 68.734166 
L 124.860954 68.695232 
L 125.459314 68.362287 
L 125.513711 68.551957 
L 125.568107 68.527723 
L 126.329657 68.157305 
L 127.852757 67.588498 
L 127.907154 67.721164 
L 127.96155 67.696544 
L 128.342325 67.525867 
L 128.451118 67.646233 
L 128.668703 67.559031 
L 128.7231 67.800208 
L 128.777496 67.781164 
L 128.831893 67.76036 
L 128.886289 67.936845 
L 128.940686 67.910012 
L 131.00775 67.382014 
L 131.062146 67.551141 
L 131.116542 67.527645 
L 131.714903 67.417559 
L 131.7693 67.943576 
L 131.823696 67.919999 
L 131.878092 67.896456 
L 131.986885 68.074979 
L 132.585246 67.856878 
L 132.694039 68.008956 
L 133.074814 67.87595 
L 133.238003 67.97732 
L 133.455589 67.90942 
L 133.509985 68.043229 
L 133.564382 68.020573 
L 133.673174 67.982131 
L 133.727571 68.155354 
L 133.781967 68.136075 
L 133.945156 68.079508 
L 134.162742 68.383594 
L 134.65231 68.243754 
L 134.815499 68.434501 
L 135.41386 68.267688 
L 135.577049 68.623893 
L 135.685842 68.591088 
L 135.740238 68.782849 
L 135.794635 68.761842 
L 136.93696 68.524144 
L 137.154545 68.513 
L 137.208942 68.496819 
L 137.372131 68.646962 
L 137.916095 68.628794 
L 138.840835 68.458102 
L 138.895231 68.621725 
L 138.949627 68.601795 
L 139.330402 68.519564 
L 139.493592 68.624723 
L 139.928763 68.555906 
L 140.091952 68.706235 
L 140.907899 68.637212 
L 141.016692 68.622985 
L 141.179881 68.756467 
L 141.451863 68.695682 
L 141.615052 68.822248 
L 141.832638 68.773524 
L 141.995827 68.98208 
L 143.355738 68.904207 
L 143.573323 69.072085 
L 144.062891 69.044952 
L 144.22608 69.243947 
L 144.715648 69.171292 
L 144.878838 69.355726 
L 145.15082 69.314698 
L 145.314009 69.436182 
L 145.477198 69.403341 
L 145.640387 69.589644 
L 146.021162 69.602679 
L 146.184352 69.709033 
L 146.401937 69.746465 
L 146.67392 70.056147 
L 146.945902 70.099604 
L 147.109091 70.405462 
L 147.326677 70.471504 
L 147.489866 70.53495 
L 147.598659 70.522085 
L 147.653055 70.834343 
L 147.707452 70.822503 
L 148.088227 70.820156 
L 148.251416 70.874652 
L 148.305812 70.863965 
L 148.360209 71.156143 
L 148.469001 71.133485 
L 148.632191 71.261444 
L 149.067362 71.182159 
L 149.230551 71.328249 
L 149.611326 71.356267 
L 149.828912 71.682728 
L 150.046498 71.643385 
L 150.264083 71.863022 
L 150.372876 71.836712 
L 150.644858 72.351783 
L 150.808048 72.31939 
L 151.025633 72.648476 
L 151.406408 72.644655 
L 151.732787 72.594145 
L 151.895976 72.76941 
L 152.059165 72.737421 
L 152.222355 72.875341 
L 152.494337 72.907661 
L 152.657526 72.98964 
L 153.092697 73.014557 
L 153.255887 73.103637 
L 154.72459 73.100829 
L 155.594933 72.994802 
L 155.975708 72.945761 
L 156.138897 73.03862 
L 157.00924 72.926387 
L 157.172429 73.000752 
L 157.988376 72.911335 
L 158.205961 73.070095 
L 159.511475 73.019011 
L 159.674665 73.113598 
L 160.109836 73.068486 
L 160.273025 73.180044 
L 162.013711 72.974263 
L 162.1769 73.105908 
L 162.666468 73.128154 
L 164.407154 73.00177 
L 164.515946 72.989982 
L 164.679136 73.190771 
L 164.842325 73.282606 
L 165.658271 73.260155 
L 165.821461 73.335665 
L 166.474218 73.266412 
L 166.637407 73.361095 
L 166.800596 73.344208 
L 166.963785 73.453625 
L 167.888525 73.429959 
L 168.160507 73.538016 
L 168.704471 73.528901 
L 168.86766 73.614441 
L 169.085246 73.67486 
L 169.248435 73.80844 
L 171.206706 73.71769 
L 171.424292 73.848236 
L 171.696274 73.923358 
L 173.600149 73.817971 
L 173.763338 73.916231 
L 174.688077 73.928626 
L 174.851267 74.005856 
L 175.449627 73.956052 
L 175.612817 74.028096 
L 176.428763 74.077569 
L 176.591952 74.16554 
L 177.679881 74.167177 
L 177.84307 74.243726 
L 178.006259 74.280238 
L 178.876602 74.272957 
L 179.039791 74.349245 
L 180.617288 74.226522 
L 180.834873 74.397334 
L 182.303577 74.274939 
L 182.466766 74.364397 
L 184.044262 74.375007 
L 184.261848 74.52088 
L 185.404173 74.50953 
L 185.567362 74.56228 
L 186.383308 74.588485 
L 186.546498 74.65029 
L 186.927273 74.698721 
L 187.090462 74.786511 
L 187.852012 74.796177 
L 188.015201 74.899016 
L 188.722355 74.945312 
L 188.93994 74.988644 
L 189.10313 75.071858 
L 190.62623 75.140859 
L 190.789419 75.179341 
L 191.007004 75.268514 
L 191.170194 75.317642 
L 191.768554 75.348271 
L 191.931744 75.400103 
L 193.998808 75.447813 
L 194.161997 75.525784 
L 194.760358 75.534243 
L 194.923547 75.597543 
L 196.337854 75.51261 
L 196.664232 75.660655 
L 197.31699 75.715844 
L 197.480179 75.787804 
L 197.588972 75.845231 
L 197.806557 75.965534 
L 197.91535 75.994995 
L 198.132936 76.133027 
L 199.166468 76.191438 
L 199.384054 76.30869 
L 200.635171 76.344092 
L 200.907154 76.36173 
L 201.124739 76.392707 
L 201.287928 76.462575 
L 202.158271 76.496919 
L 202.321461 76.555645 
L 203.028614 76.603787 
L 203.2462 76.633523 
L 204.442921 76.702145 
L 204.60611 76.772887 
L 207.108346 76.781623 
L 207.325931 76.827349 
L 207.65231 76.876647 
L 207.869896 76.995718 
L 209.121013 77.047432 
L 209.284203 77.105172 
L 210.916095 77.151649 
L 211.079285 77.219669 
L 212.22161 77.282559 
L 212.439195 77.329755 
L 213.635917 77.357407 
L 213.907899 77.426396 
L 215.376602 77.46885 
L 215.702981 77.610053 
L 219.075559 77.571205 
L 219.293145 77.617007 
L 220.163487 77.69762 
L 220.381073 77.76799 
L 220.489866 77.825751 
L 220.653055 77.86917 
L 223.046498 77.954871 
L 223.209687 78.013099 
L 226.745455 78.068543 
L 227.017437 78.160818 
L 228.105365 78.235855 
L 228.322951 78.270579 
L 228.975708 78.359845 
L 229.193294 78.442371 
L 230.390015 78.523947 
L 230.716393 78.606406 
L 231.260358 78.699612 
L 231.586736 78.722321 
L 233.001043 78.816823 
L 233.980179 79.146729 
L 234.796125 79.23974 
L 235.068107 79.298749 
L 235.557675 79.355961 
L 235.720864 79.415545 
L 238.495082 79.47565 
L 238.658271 79.534587 
L 241.595678 79.601684 
L 241.813264 79.635574 
L 243.009985 79.708032 
L 243.227571 79.754987 
L 245.621013 79.836253 
L 245.838599 79.883175 
L 246.763338 79.972179 
L 249.428763 80.05631 
L 249.646349 80.10379 
L 255.793145 80.163133 
L 256.01073 80.246199 
L 258.023398 80.329249 
L 258.349776 80.412284 
L 260.416841 80.491037 
L 260.634426 80.538465 
L 264.333383 80.639658 
L 264.659762 80.663361 
L 266.291654 80.732626 
L 266.454844 80.791866 
L 272.112072 80.894177 
L 272.329657 80.929706 
L 276.953353 81.011978 
L 277.170939 81.047496 
L 284.242474 81.125421 
L 284.46006 81.17276 
L 291.042027 81.238809 
L 291.205216 81.29796 
L 293.979434 81.380756 
L 294.197019 81.428062 
L 302.193294 81.534476 
L 302.519672 81.558114 
L 304.097168 81.652655 
L 304.423547 81.676287 
L 306.925782 81.755862 
L 307.143368 81.791299 
L 313.997317 81.86896 
L 314.214903 81.904383 
L 321.177645 82.009377 
L 321.72161 82.021181 
L 324.876602 82.126771 
L 325.692548 82.196307 
L 328.466766 82.301847 
L 329.17392 82.349026 
L 336.789419 82.453256 
L 337.007004 82.500416 
L 348.375857 82.603963 
L 348.647839 82.674672 
L 352.945156 82.779438 
L 353.162742 82.814778 
L 356.480924 82.906446 
L 356.807303 82.929999 
L 360.179881 83.024196 
L 360.397466 83.059514 
L 367.414605 83.151111 
L 367.414605 83.151111 
" clip-path="url(#p66c0381a7e)" style="fill: none; stroke: #d62728; stroke-width: 1.8; stroke-linecap: square"/>
   </g>
   <g id="line2d_25">
    <path d="M 77.427273 69.749764 
L 77.590462 56.004035 
L 77.644858 60.735044 
L 77.808048 52.207627 
L 77.862444 54.68307 
L 77.916841 52.605108 
L 77.971237 55.80647 
L 78.025633 80.329343 
L 78.08003 77.153368 
L 78.134426 78.05742 
L 78.460805 64.661325 
L 78.787183 57.860151 
L 79.222355 52.505387 
L 79.657526 49.21 
L 80.147094 46.906914 
L 80.582265 45.448633 
L 81.289419 43.677856 
L 82.48614 41.887886 
L 84.118033 40.470453 
L 85.205961 39.880198 
L 86.837854 39.232738 
L 89.503279 38.548297 
L 91.624739 38.179587 
L 96.194039 37.674124 
L 100.654545 37.376423 
L 109.303577 37.032845 
L 120.128465 36.805651 
L 135.250671 36.69388 
L 139.112817 36.731362 
L 139.384799 36.982891 
L 139.711177 37.088756 
L 139.983159 37.168078 
L 140.363934 37.220876 
L 140.58152 37.353114 
L 141.34307 37.445502 
L 141.506259 37.511585 
L 143.62772 37.617298 
L 143.790909 37.683355 
L 144.443666 37.749167 
L 144.606855 37.801991 
L 145.368405 37.881215 
L 145.531595 37.947225 
L 146.51073 38.026063 
L 146.67392 38.078845 
L 147.816244 38.118282 
L 147.979434 38.289752 
L 148.740984 38.368871 
L 149.067362 38.5006 
L 150.699255 38.55332 
L 150.862444 38.619103 
L 151.950373 38.697932 
L 152.113562 38.750622 
L 153.147094 38.803189 
L 153.36468 38.908535 
L 155.703726 39.000692 
L 155.866915 39.053345 
L 157.553204 39.132313 
L 157.716393 39.18495 
L 159.402683 39.276867 
L 160.05544 39.487301 
L 161.687332 39.552892 
L 161.850522 39.631765 
L 164.842325 39.723765 
L 165.005514 39.776329 
L 166.58301 39.881437 
L 166.800596 39.920846 
L 167.453353 39.986521 
L 167.616542 40.039054 
L 169.520417 40.117842 
L 169.738003 40.15723 
L 170.934724 40.249124 
L 171.15231 40.393491 
L 173.43696 40.459097 
L 173.600149 40.537811 
L 175.014456 40.615925 
L 175.177645 40.694602 
L 177.135917 40.799415 
L 177.299106 40.851846 
L 179.311773 40.956058 
L 179.529359 41.034664 
L 180.562891 41.125919 
L 181.215648 41.321865 
L 182.738748 41.400241 
L 182.956334 41.439499 
L 186.492101 41.530383 
L 186.655291 41.582704 
L 191.714158 41.686684 
L 192.203726 41.699436 
L 192.530104 41.79078 
L 192.74769 41.895335 
L 194.651565 41.999866 
L 195.141133 42.130496 
L 195.902683 42.208855 
L 196.065872 42.261087 
L 198.459314 42.350225 
L 198.622504 42.402422 
L 200.580775 42.50652 
L 200.743964 42.558697 
L 202.974218 42.649991 
L 203.300596 42.702151 
L 207.434724 42.766285 
L 207.597914 42.87036 
L 208.41386 42.961574 
L 208.685842 43.078821 
L 209.501788 43.183016 
L 209.664978 43.235104 
L 210.480924 43.325724 
L 210.69851 43.364775 
L 212.81997 43.415785 
L 212.983159 43.480846 
L 216.790909 43.544719 
L 216.954098 43.596746 
L 218.096423 43.674775 
L 218.314009 43.713784 
L 219.347541 43.817793 
L 219.51073 43.882786 
L 221.79538 43.972627 
L 222.012966 44.011605 
L 222.502534 44.10254 
L 222.774516 44.128518 
L 223.699255 44.21943 
L 223.916841 44.258386 
L 225.711923 44.336289 
L 225.929508 44.37476 
L 227.72459 44.439659 
L 227.887779 44.491572 
L 228.649329 44.543479 
L 228.812519 44.620837 
L 229.193294 44.698669 
L 231.314754 44.789455 
L 231.477943 44.841324 
L 232.1307 44.880222 
L 232.29389 44.970971 
L 234.741729 45.061702 
L 234.959314 45.100582 
L 236.536811 45.152415 
L 236.7 45.24311 
L 240.670939 45.318845 
L 240.888525 45.357693 
L 241.758867 45.448326 
L 242.030849 45.474218 
L 242.846796 45.551885 
L 243.064382 45.590713 
L 244.424292 45.66836 
L 244.587481 45.720116 
L 246.27377 45.822634 
L 246.491356 45.861435 
L 246.817735 45.939027 
L 246.980924 46.003676 
L 249.591952 46.079667 
L 249.809538 46.170131 
L 251.659016 46.260576 
L 251.876602 46.351004 
L 253.454098 46.415584 
L 253.617288 46.480154 
L 254.324441 46.583448 
L 254.48763 46.660903 
L 261.069598 46.723761 
L 261.34158 46.852783 
L 265.965276 46.954885 
L 266.128465 47.006466 
L 268.086736 47.09672 
L 268.249925 47.148285 
L 268.576304 47.212415 
L 268.739493 47.276852 
L 271.840089 47.377992 
L 272.057675 47.416634 
L 273.308793 47.480379 
L 273.471982 47.531886 
L 275.430253 47.595604 
L 275.593443 47.647095 
L 278.585246 47.723822 
L 278.802832 47.762428 
L 279.999553 47.865363 
L 280.162742 47.942548 
L 281.957824 48.018525 
L 282.121013 48.095676 
L 283.861699 48.196964 
L 284.133681 48.222669 
L 289.246945 48.322498 
L 289.464531 48.425255 
L 290.334873 48.527987 
L 290.606855 48.553667 
L 291.694784 48.630697 
L 291.91237 48.758507 
L 292.619523 48.822667 
L 292.782712 48.873989 
L 295.339344 48.950409 
L 295.55693 48.988888 
L 297.460805 49.053012 
L 297.623994 49.104305 
L 298.820715 49.168413 
L 298.983905 49.219693 
L 301.159762 49.322234 
L 301.322951 49.386121 
L 301.975708 49.463 
L 302.24769 49.539481 
L 302.737258 49.603524 
L 302.900447 49.654752 
L 304.205961 49.718778 
L 304.369151 49.769993 
L 305.89225 49.857637 
L 306.164232 49.883234 
L 307.850522 49.985009 
L 308.122504 50.009405 
L 308.285693 50.073362 
L 308.448882 50.124522 
L 309.156036 50.175676 
L 309.319225 50.252396 
L 310.679136 50.327883 
L 310.842325 50.390974 
L 312.7462 50.466825 
L 312.909389 50.530704 
L 316.662742 50.631441 
L 316.825931 50.682521 
L 317.696274 50.770432 
L 317.91386 50.898069 
L 323.625484 50.996964 
L 323.788674 51.060741 
L 324.876602 51.162765 
L 325.202981 51.264766 
L 326.671684 51.36609 
L 327.052459 51.506265 
L 328.793145 51.569305 
L 328.956334 51.632994 
L 329.77228 51.733765 
L 329.989866 51.835619 
L 330.969001 51.936547 
L 331.186587 51.974726 
L 332.437705 52.076519 
L 332.600894 52.127406 
L 335.973472 52.213922 
L 336.46304 52.341071 
L 337.115797 52.390761 
L 337.278987 52.45431 
L 338.638897 52.542094 
L 338.802086 52.592913 
L 340.433979 52.681833 
L 340.651565 52.719936 
L 342.773025 52.807879 
L 342.990611 52.845969 
L 343.588972 52.909445 
L 343.752161 52.96022 
L 345.710432 53.059339 
L 345.928018 53.097402 
L 347.070343 53.148148 
L 347.233532 53.236938 
L 348.811028 53.336432 
L 349.028614 53.374467 
L 350.279732 53.436619 
L 350.442921 53.49999 
L 352.401192 53.599872 
L 352.564382 53.662715 
L 355.664978 53.726047 
L 355.882563 53.826351 
L 358.384799 53.914974 
L 358.656781 54.117476 
L 359.527124 54.21715 
L 359.690313 54.29304 
L 360.397466 54.381564 
L 360.669449 54.406853 
L 361.050224 54.470069 
L 361.267809 54.520636 
L 364.096423 54.621752 
L 364.259613 54.710209 
L 365.619523 54.798119 
L 365.837109 54.886539 
L 367.79538 54.974674 
L 367.958569 55.037807 
L 370.134426 55.100931 
L 370.352012 55.151423 
L 371.276751 55.227152 
L 371.494337 55.265011 
L 373.071833 55.34072 
L 373.398212 55.441645 
L 375.24769 55.542548 
L 375.574069 55.756889 
L 378.185097 55.832514 
L 378.457079 55.920728 
L 381.612072 55.981191 
L 381.775261 56.044173 
L 384.767064 56.141802 
L 385.039046 56.166983 
L 385.365425 56.229358 
L 385.637407 56.330049 
L 386.072578 56.39297 
L 386.235768 56.493624 
L 387.595678 56.5691 
L 387.813264 56.606833 
L 389.553949 56.679377 
L 389.771535 56.729667 
L 392.001788 56.815902 
L 392.219374 56.866173 
L 393.79687 56.962269 
L 394.014456 56.999952 
L 396.571088 57.075308 
L 396.788674 57.163207 
L 398.855738 57.263641 
L 399.12772 57.338352 
L 400.814009 57.438744 
L 400.977198 57.501477 
L 404.676155 57.59849 
L 404.948137 57.67373 
L 405.437705 57.73642 
L 405.709687 57.88684 
L 408.429508 57.986474 
L 408.86468 58.161855 
L 411.421311 58.269555 
L 411.638897 58.319627 
L 413.161997 58.40724 
L 413.433979 58.431324 
L 416.262593 58.541082 
L 416.480179 58.591115 
L 417.187332 58.641143 
L 417.350522 58.728677 
L 418.819225 58.810427 
L 418.982414 58.872913 
L 419.526379 58.960379 
L 419.743964 59.010352 
L 421.539046 59.084004 
L 421.811028 59.171423 
L 423.279732 59.256539 
L 423.497317 59.306471 
L 425.020417 59.380373 
L 425.346796 59.480197 
L 428.93696 59.586517 
L 429.154545 59.636396 
L 429.53532 59.736137 
L 429.752906 59.773534 
L 431.22161 59.884031 
L 431.439195 60.008625 
L 433.887034 60.107261 
L 434.050224 60.18198 
L 436.606855 60.251249 
L 436.878838 60.363261 
L 438.782712 60.462803 
L 439.109091 60.561635 
L 439.761848 60.636259 
L 439.979434 60.686 
L 441.393741 60.784426 
L 441.665723 60.883866 
L 442.699255 61.008135 
L 443.787183 61.10612 
L 443.950373 61.168224 
L 445.038301 61.263328 
L 445.255887 61.312986 
L 445.473472 61.348806 
L 448.193294 61.41936 
L 448.410879 61.468989 
L 452.599404 61.578488 
L 452.762593 61.640496 
L 454.231297 61.690096 
L 454.394486 61.764486 
L 458.637407 61.861121 
L 459.018182 61.923083 
L 460.160507 62.009815 
L 460.378092 62.046981 
L 463.261103 62.142785 
L 463.696274 62.328503 
L 465.382563 62.43731 
L 465.600149 62.486804 
L 466.03532 62.536292 
L 466.19851 62.598145 
L 467.776006 62.694109 
L 467.993592 62.731204 
L 468.918331 62.815501 
L 469.190313 62.926737 
L 471.094188 63.034926 
L 471.257377 63.109041 
L 472.562891 63.207841 
L 472.72608 63.281927 
L 475.01073 63.389593 
L 475.17392 63.451298 
L 477.621759 63.534215 
L 477.839344 63.583557 
L 478.492101 63.630968 
L 478.655291 63.754277 
L 479.797615 63.828247 
L 480.015201 63.877553 
L 481.157526 63.963825 
L 481.375112 64.000794 
L 483.061401 64.099362 
L 483.387779 64.197907 
L 485.400447 64.294854 
L 485.618033 64.344105 
L 487.086736 64.454899 
L 487.304322 64.491824 
L 491.112072 64.598199 
L 491.384054 64.696612 
L 494.539046 64.78979 
L 494.702235 64.838969 
L 496.00775 64.885729 
L 496.225335 64.934892 
L 499.815499 65.030778 
L 499.978689 65.092206 
L 502.752906 65.176161 
L 502.970492 65.225284 
L 506.125484 65.285458 
L 506.397466 65.469588 
L 508.083756 65.578383 
L 508.301341 65.615188 
L 509.933234 65.711255 
L 510.15082 65.748047 
L 511.565127 65.843654 
L 511.837109 65.868172 
L 514.230551 65.964567 
L 514.448137 66.013587 
L 521.465276 66.115071 
L 521.682861 66.249775 
L 522.390015 66.298748 
L 522.553204 66.372197 
L 526.41535 66.466725 
L 526.632936 66.503433 
L 528.373621 66.562483 
L 528.591207 66.611412 
L 529.135171 66.683091 
L 529.298361 66.742951 
L 530.386289 66.791855 
L 530.549478 66.8652 
L 531.637407 66.935528 
L 531.854993 67.02106 
L 535.118778 67.122369 
L 535.281967 67.19563 
L 536.696274 67.255372 
L 536.859463 67.316403 
L 541.972727 67.395738 
L 541.972727 67.395738 
" clip-path="url(#p66c0381a7e)" style="fill: none; stroke: #9467bd; stroke-width: 1.8; stroke-linecap: square"/>
   </g>
   <g id="patch_3">
    <path d="M 54.2 260.44 
L 54.2 25.44 
" style="fill: none; stroke: #000000; stroke-width: 0.8; stroke-linejoin: miter; stroke-linecap: square"/>
   </g>
   <g id="patch_4">
    <path d="M 565.2 260.44 
L 565.2 25.44 
" style="fill: none; stroke: #000000; stroke-width: 0.8; stroke-linejoin: miter; stroke-linecap: square"/>
   </g>
   <g id="patch_5">
    <path d="M 54.2 260.44 
L 565.2 260.44 
" style="fill: none; stroke: #000000; stroke-width: 0.8; stroke-linejoin: miter; stroke-linecap: square"/>
   </g>
   <g id="patch_6">
    <path d="M 54.2 25.44 
L 565.2 25.44 
" style="fill: none; stroke: #000000; stroke-width: 0.8; stroke-linejoin: miter; stroke-linecap: square"/>
   </g>
   <g id="text_13">
    <!-- Timely Transfer Rate (Cumulative) -->
    <g transform="translate(207.277187 19.44) scale(0.12 -0.12)">
     <defs>
      <path id="DejaVuSans-54" d="M -19 4666 
L 3928 4666 
L 3928 4134 
L 2272 4134 
L 2272 0 
L 1638 0 
L 1638 4134 
L -19 4134 
L -19 4666 
z
" transform="scale(0.015625)"/>
      <path id="DejaVuSans-52" d="M 2841 2188 
Q 3044 2119 3236 1894 
Q 3428 1669 3622 1275 
L 4263 0 
L 3584 0 
L 2988 1197 
Q 2756 1666 2539 1819 
Q 2322 1972 1947 1972 
L 1259 1972 
L 1259 0 
L 628 0 
L 628 4666 
L 2053 4666 
Q 2853 4666 3247 4331 
Q 3641 3997 3641 3322 
Q 3641 2881 3436 2590 
Q 3231 2300 2841 2188 
z
M 1259 4147 
L 1259 2491 
L 2053 2491 
Q 2509 2491 2742 2702 
Q 2975 2913 2975 3322 
Q 2975 3731 2742 3939 
Q 2509 4147 2053 4147 
L 1259 4147 
z
" transform="scale(0.015625)"/>
      <path id="DejaVuSans-28" d="M 1984 4856 
Q 1566 4138 1362 3434 
Q 1159 2731 1159 2009 
Q 1159 1288 1364 580 
Q 1569 -128 1984 -844 
L 1484 -844 
Q 1016 -109 783 600 
Q 550 1309 550 2009 
Q 550 2706 781 3412 
Q 1013 4119 1484 4856 
L 1984 4856 
z
" transform="scale(0.015625)"/>
      <path id="DejaVuSans-43" d="M 4122 4306 
L 4122 3641 
Q 3803 3938 3442 4084 
Q 3081 4231 2675 4231 
Q 1875 4231 1450 3742 
Q 1025 3253 1025 2328 
Q 1025 1406 1450 917 
Q 1875 428 2675 428 
Q 3081 428 3442 575 
Q 3803 722 4122 1019 
L 4122 359 
Q 3791 134 3420 21 
Q 3050 -91 2638 -91 
Q 1578 -91 968 557 
Q 359 1206 359 2328 
Q 359 3453 968 4101 
Q 1578 4750 2638 4750 
Q 3056 4750 3426 4639 
Q 3797 4528 4122 4306 
z
" transform="scale(0.015625)"/>
      <path id="DejaVuSans-29" d="M 513 4856 
L 1013 4856 
Q 1481 4119 1714 3412 
Q 1947 2706 1947 2009 
Q 1947 1309 1714 600 
Q 1481 -109 1013 -844 
L 513 -844 
Q 928 -128 1133 580 
Q 1338 1288 1338 2009 
Q 1338 2731 1133 3434 
Q 928 4138 513 4856 
z
" transform="scale(0.015625)"/>
     </defs>
     <use xlink:href="#DejaVuSans-54"/>
     <use xlink:href="#DejaVuSans-69" x="57.958984"/>
     <use xlink:href="#DejaVuSans-6d" x="85.742188"/>
     <use xlink:href="#DejaVuSans-65" x="183.154297"/>
     <use xlink:href="#DejaVuSans-6c" x="244.677734"/>
     <use xlink:href="#DejaVuSans-79" x="272.460938"/>
     <use xlink:href="#DejaVuSans-20" x="331.640625"/>
     <use xlink:href="#DejaVuSans-54" x="363.427734"/>
     <use xlink:href="#DejaVuSans-72" x="409.761719"/>
     <use xlink:href="#DejaVuSans-61" x="450.875"/>
     <use xlink:href="#DejaVuSans-6e" x="512.154297"/>
     <use xlink:href="#DejaVuSans-73" x="575.533203"/>
     <use xlink:href="#DejaVuSans-66" x="627.632812"/>
     <use xlink:href="#DejaVuSans-65" x="662.837891"/>
     <use xlink:href="#DejaVuSans-72" x="724.361328"/>
     <use xlink:href="#DejaVuSans-20" x="765.474609"/>
     <use xlink:href="#DejaVuSans-52" x="797.261719"/>
     <use xlink:href="#DejaVuSans-61" x="864.494141"/>
     <use xlink:href="#DejaVuSans-74" x="925.773438"/>
     <use xlink:href="#DejaVuSans-65" x="964.982422"/>
     <use xlink:href="#DejaVuSans-20" x="1026.505859"/>
     <use xlink:href="#DejaVuSans-28" x="1058.292969"/>
     <use xlink:href="#DejaVuSans-43" x="1097.306641"/>
     <use xlink:href="#DejaVuSans-75" x="1167.130859"/>
     <use xlink:href="#DejaVuSans-6d" x="1230.509766"/>
     <use xlink:href="#DejaVuSans-75" x="1327.921875"/>
     <use xlink:href="#DejaVuSans-6c" x="1391.300781"/>
     <use xlink:href="#DejaVuSans-61" x="1419.083984"/>
     <use xlink:href="#DejaVuSans-74" x="1480.363281"/>
     <use xlink:href="#DejaVuSans-69" x="1519.572266"/>
     <use xlink:href="#DejaVuSans-76" x="1547.355469"/>
     <use xlink:href="#DejaVuSans-65" x="1606.535156"/>
     <use xlink:href="#DejaVuSans-29" x="1668.058594"/>
    </g>
   </g>
   <g id="legend_1">
    <g id="patch_7">
     <path d="M 480.614062 255.44 
L 558.2 255.44 
Q 560.2 255.44 560.2 253.44 
L 560.2 180.493125 
Q 560.2 178.493125 558.2 178.493125 
L 480.614062 178.493125 
Q 478.614062 178.493125 478.614062 180.493125 
L 478.614062 253.44 
Q 478.614062 255.44 480.614062 255.44 
z
" style="fill: #ffffff; opacity: 0.8; stroke: #cccccc; stroke-linejoin: miter"/>
    </g>
    <g id="line2d_26">
     <path d="M 482.614062 186.591563 
L 492.614062 186.591563 
L 502.614062 186.591563 
" style="fill: none; stroke: #1f77b4; stroke-width: 1.8; stroke-linecap: square"/>
    </g>
    <g id="text_14">
     <!-- sheer -->
     <g transform="translate(510.614062 190.091563) scale(0.1 -0.1)">
      <defs>
       <path id="DejaVuSans-68" d="M 3513 2113 
L 3513 0 
L 2938 0 
L 2938 2094 
Q 2938 2591 2744 2837 
Q 2550 3084 2163 3084 
Q 1697 3084 1428 2787 
Q 1159 2491 1159 1978 
L 1159 0 
L 581 0 
L 581 4863 
L 1159 4863 
L 1159 2956 
Q 1366 3272 1645 3428 
Q 1925 3584 2291 3584 
Q 2894 3584 3203 3211 
Q 3513 2838 3513 2113 
z
" transform="scale(0.015625)"/>
      </defs>
      <use xlink:href="#DejaVuSans-73"/>
      <use xlink:href="#DejaVuSans-68" x="52.099609"/>
      <use xlink:href="#DejaVuSans-65" x="115.478516"/>
      <use xlink:href="#DejaVuSans-65" x="177.001953"/>
      <use xlink:href="#DejaVuSans-72" x="238.525391"/>
     </g>
    </g>
    <g id="line2d_27">
     <path d="M 482.614062 201.269688 
L 492.614062 201.269688 
L 502.614062 201.269688 
" style="fill: none; stroke: #ff7f0e; stroke-width: 1.8; stroke-linecap: square"/>
    </g>
    <g id="text_15">
     <!-- actar -->
     <g transform="translate(510.614062 204.769688) scale(0.1 -0.1)">
      <use xlink:href="#DejaVuSans-61"/>
      <use xlink:href="#DejaVuSans-63" x="61.279297"/>
      <use xlink:href="#DejaVuSans-74" x="116.259766"/>
      <use xlink:href="#DejaVuSans-61" x="155.46875"/>
      <use xlink:href="#DejaVuSans-72" x="216.748047"/>
     </g>
    </g>
    <g id="line2d_28">
     <path d="M 482.614062 215.947813 
L 492.614062 215.947813 
L 502.614062 215.947813 
" style="fill: none; stroke: #2ca02c; stroke-width: 1.8; stroke-linecap: square"/>
    </g>
    <g id="text_16">
     <!-- tfsm_dpc -->
     <g transform="translate(510.614062 219.447813) scale(0.1 -0.1)">
      <defs>
       <path id="DejaVuSans-5f" d="M 3263 -1063 
L 3263 -1509 
L -63 -1509 
L -63 -1063 
L 3263 -1063 
z
" transform="scale(0.015625)"/>
       <path id="DejaVuSans-70" d="M 1159 525 
L 1159 -1331 
L 581 -1331 
L 581 3500 
L 1159 3500 
L 1159 2969 
Q 1341 3281 1617 3432 
Q 1894 3584 2278 3584 
Q 2916 3584 3314 3078 
Q 3713 2572 3713 1747 
Q 3713 922 3314 415 
Q 2916 -91 2278 -91 
Q 1894 -91 1617 61 
Q 1341 213 1159 525 
z
M 3116 1747 
Q 3116 2381 2855 2742 
Q 2594 3103 2138 3103 
Q 1681 3103 1420 2742 
Q 1159 2381 1159 1747 
Q 1159 1113 1420 752 
Q 1681 391 2138 391 
Q 2594 391 2855 752 
Q 3116 1113 3116 1747 
z
" transform="scale(0.015625)"/>
      </defs>
      <use xlink:href="#DejaVuSans-74"/>
      <use xlink:href="#DejaVuSans-66" x="39.208984"/>
      <use xlink:href="#DejaVuSans-73" x="74.414062"/>
      <use xlink:href="#DejaVuSans-6d" x="126.513672"/>
      <use xlink:href="#DejaVuSans-5f" x="223.925781"/>
      <use xlink:href="#DejaVuSans-64" x="273.925781"/>
      <use xlink:href="#DejaVuSans-70" x="337.402344"/>
      <use xlink:href="#DejaVuSans-63" x="400.878906"/>
     </g>
    </g>
    <g id="line2d_29">
     <path d="M 482.614062 230.904063 
L 492.614062 230.904063 
L 502.614062 230.904063 
" style="fill: none; stroke: #d62728; stroke-width: 1.8; stroke-linecap: square"/>
    </g>
    <g id="text_17">
     <!-- dst_woa -->
     <g transform="translate(510.614062 234.404063) scale(0.1 -0.1)">
      <defs>
       <path id="DejaVuSans-77" d="M 269 3500 
L 844 3500 
L 1563 769 
L 2278 3500 
L 2956 3500 
L 3675 769 
L 4391 3500 
L 4966 3500 
L 4050 0 
L 3372 0 
L 2619 2869 
L 1863 0 
L 1184 0 
L 269 3500 
z
" transform="scale(0.015625)"/>
      </defs>
      <use xlink:href="#DejaVuSans-64"/>
      <use xlink:href="#DejaVuSans-73" x="63.476562"/>
      <use xlink:href="#DejaVuSans-74" x="115.576172"/>
      <use xlink:href="#DejaVuSans-5f" x="154.785156"/>
      <use xlink:href="#DejaVuSans-77" x="204.785156"/>
      <use xlink:href="#DejaVuSans-6f" x="286.572266"/>
      <use xlink:href="#DejaVuSans-61" x="347.753906"/>
     </g>
    </g>
    <g id="line2d_30">
     <path d="M 482.614062 245.860313 
L 492.614062 245.860313 
L 502.614062 245.860313 
" style="fill: none; stroke: #9467bd; stroke-width: 1.8; stroke-linecap: square"/>
    </g>
    <g id="text_18">
     <!-- trail -->
     <g transform="translate(510.614062 249.360313) scale(0.1 -0.1)">
      <use xlink:href="#DejaVuSans-74"/>
      <use xlink:href="#DejaVuSans-72" x="39.208984"/>
      <use xlink:href="#DejaVuSans-61" x="80.322266"/>
      <use xlink:href="#DejaVuSans-69" x="141.601562"/>
      <use xlink:href="#DejaVuSans-6c" x="169.384766"/>
     </g>
    </g>
   </g>
  </g>
 </g>
 <defs>
  <clipPath id="p66c0381a7e">
   <rect x="54.2" y="25.44" width="511" height="235"/>
  </clipPath>
 </defs>
</svg>
