<?xml version="1.0" encoding="utf-8" standalone="no"?>
<!DOCTYPE svg PUBLIC "-//W3C//DTD SVG 1.1//EN"
  "http://www.w3.org/Graphics/SVG/1.1/DTD/svg11.dtd">
<svg xmlns:xlink="http://www.w3.org/1999/xlink" width="576pt" height="302.4pt" viewBox="0 0 576 302.4" xmlns="http://www.w3.org/2000/svg" version="1.1">
 <metadata>
  <rdf:RDF xmlns:dc="http://purl.org/dc/elements/1.1/" xmlns:cc="http://creativecommons.org/ns#" xmlns:rdf="http://www.w3.org/1999/02/22-rdf-syntax-ns#">
   <cc:Work>
    <dc:type rdf:resource="http://purl.org/dc/dcmitype/StillImage"/>
    <dc:date>2025-09-02T20:18:32.429469</dc:date>
    <dc:format>image/svg+xml</dc:format>
    <dc:creator>
     <cc:Agent>
      <dc:title>Matplotlib v3.9.4, https://matplotlib.org/</dc:title>
     </cc:Agent>
    </dc:creator>
   </cc:Work>
  </rdf:RDF>
 </metadata>
 <defs>
  <style type="text/css">*{stroke-linejoin: round; stroke-linecap: butt}</style>
 </defs>
 <g id="figure_1">
  <g id="patch_1">
   <path d="M 0 302.4 
L 576 302.4 
L 576 0 
L 0 0 
z
" style="fill: #ffffff"/>
  </g>
  <g id="axes_1">
   <g id="patch_2">
    <path d="M 54.2 260.44 
L 565.2 260.44 
L 565.2 25.44 
L 54.2 25.44 
z
" style="fill: #ffffff"/>
   </g>
   <g id="matplotlib.axis_1">
    <g id="xtick_1">
     <g id="line2d_1">
      <path d="M 77.378062 260.44 
L 77.378062 25.44 
" clip-path="url(#p6022c4ea06)" style="fill: none; stroke-dasharray: 2.96,1.28; stroke-dashoffset: 0; stroke: #b0b0b0; stroke-opacity: 0.3; stroke-width: 0.8"/>
     </g>
     <g id="line2d_2">
      <defs>
       <path id="mb4825fbe9c" d="M 0 0 
L 0 3.5 
" style="stroke: #000000; stroke-width: 0.8"/>
      </defs>
      <g>
       <use xlink:href="#mb4825fbe9c" x="77.378062" y="260.44" style="stroke: #000000; stroke-width: 0.8"/>
      </g>
     </g>
     <g id="text_1">
      <!-- 0 -->
      <g transform="translate(74.196812 275.038438) scale(0.1 -0.1)">
       <defs>
        <path id="DejaVuSans-30" d="M 2034 4250 
Q 1547 4250 1301 3770 
Q 1056 3291 1056 2328 
Q 1056 1369 1301 889 
Q 1547 409 2034 409 
Q 2525 409 2770 889 
Q 3016 1369 3016 2328 
Q 3016 3291 2770 3770 
Q 2525 4250 2034 4250 
z
M 2034 4750 
Q 2819 4750 3233 4129 
Q 3647 3509 3647 2328 
Q 3647 1150 3233 529 
Q 2819 -91 2034 -91 
Q 1250 -91 836 529 
Q 422 1150 422 2328 
Q 422 3509 836 4129 
Q 1250 4750 2034 4750 
z
" transform="scale(0.015625)"/>
       </defs>
       <use xlink:href="#DejaVuSans-30"/>
      </g>
     </g>
    </g>
    <g id="xtick_2">
     <g id="line2d_3">
      <path d="M 175.79871 260.44 
L 175.79871 25.44 
" clip-path="url(#p6022c4ea06)" style="fill: none; stroke-dasharray: 2.96,1.28; stroke-dashoffset: 0; stroke: #b0b0b0; stroke-opacity: 0.3; stroke-width: 0.8"/>
     </g>
     <g id="line2d_4">
      <g>
       <use xlink:href="#mb4825fbe9c" x="175.79871" y="260.44" style="stroke: #000000; stroke-width: 0.8"/>
      </g>
     </g>
     <g id="text_2">
      <!-- 2000 -->
      <g transform="translate(163.07371 275.038438) scale(0.1 -0.1)">
       <defs>
        <path id="DejaVuSans-32" d="M 1228 531 
L 3431 531 
L 3431 0 
L 469 0 
L 469 531 
Q 828 903 1448 1529 
Q 2069 2156 2228 2338 
Q 2531 2678 2651 2914 
Q 2772 3150 2772 3378 
Q 2772 3750 2511 3984 
Q 2250 4219 1831 4219 
Q 1534 4219 1204 4116 
Q 875 4013 500 3803 
L 500 4441 
Q 881 4594 1212 4672 
Q 1544 4750 1819 4750 
Q 2544 4750 2975 4387 
Q 3406 4025 3406 3419 
Q 3406 3131 3298 2873 
Q 3191 2616 2906 2266 
Q 2828 2175 2409 1742 
Q 1991 1309 1228 531 
z
" transform="scale(0.015625)"/>
       </defs>
       <use xlink:href="#DejaVuSans-32"/>
       <use xlink:href="#DejaVuSans-30" x="63.623047"/>
       <use xlink:href="#DejaVuSans-30" x="127.246094"/>
       <use xlink:href="#DejaVuSans-30" x="190.869141"/>
      </g>
     </g>
    </g>
    <g id="xtick_3">
     <g id="line2d_5">
      <path d="M 274.219357 260.44 
L 274.219357 25.44 
" clip-path="url(#p6022c4ea06)" style="fill: none; stroke-dasharray: 2.96,1.28; stroke-dashoffset: 0; stroke: #b0b0b0; stroke-opacity: 0.3; stroke-width: 0.8"/>
     </g>
     <g id="line2d_6">
      <g>
       <use xlink:href="#mb4825fbe9c" x="274.219357" y="260.44" style="stroke: #000000; stroke-width: 0.8"/>
      </g>
     </g>
     <g id="text_3">
      <!-- 4000 -->
      <g transform="translate(261.494357 275.038438) scale(0.1 -0.1)">
       <defs>
        <path id="DejaVuSans-34" d="M 2419 4116 
L 825 1625 
L 2419 1625 
L 2419 4116 
z
M 2253 4666 
L 3047 4666 
L 3047 1625 
L 3713 1625 
L 3713 1100 
L 3047 1100 
L 3047 0 
L 2419 0 
L 2419 1100 
L 313 1100 
L 313 1709 
L 2253 4666 
z
" transform="scale(0.015625)"/>
       </defs>
       <use xlink:href="#DejaVuSans-34"/>
       <use xlink:href="#DejaVuSans-30" x="63.623047"/>
       <use xlink:href="#DejaVuSans-30" x="127.246094"/>
       <use xlink:href="#DejaVuSans-30" x="190.869141"/>
      </g>
     </g>
    </g>
    <g id="xtick_4">
     <g id="line2d_7">
      <path d="M 372.640004 260.44 
L 372.640004 25.44 
" clip-path="url(#p6022c4ea06)" style="fill: none; stroke-dasharray: 2.96,1.28; stroke-dashoffset: 0; stroke: #b0b0b0; stroke-opacity: 0.3; stroke-width: 0.8"/>
     </g>
     <g id="line2d_8">
      <g>
       <use xlink:href="#mb4825fbe9c" x="372.640004" y="260.44" style="stroke: #000000; stroke-width: 0.8"/>
      </g>
     </g>
     <g id="text_4">
      <!-- 6000 -->
      <g transform="translate(359.915004 275.038438) scale(0.1 -0.1)">
       <defs>
        <path id="DejaVuSans-36" d="M 2113 2584 
Q 1688 2584 1439 2293 
Q 1191 2003 1191 1497 
Q 1191 994 1439 701 
Q 1688 409 2113 409 
Q 2538 409 2786 701 
Q 3034 994 3034 1497 
Q 3034 2003 2786 2293 
Q 2538 2584 2113 2584 
z
M 3366 4563 
L 3366 3988 
Q 3128 4100 2886 4159 
Q 2644 4219 2406 4219 
Q 1781 4219 1451 3797 
Q 1122 3375 1075 2522 
Q 1259 2794 1537 2939 
Q 1816 3084 2150 3084 
Q 2853 3084 3261 2657 
Q 3669 2231 3669 1497 
Q 3669 778 3244 343 
Q 2819 -91 2113 -91 
Q 1303 -91 875 529 
Q 447 1150 447 2328 
Q 447 3434 972 4092 
Q 1497 4750 2381 4750 
Q 2619 4750 2861 4703 
Q 3103 4656 3366 4563 
z
" transform="scale(0.015625)"/>
       </defs>
       <use xlink:href="#DejaVuSans-36"/>
       <use xlink:href="#DejaVuSans-30" x="63.623047"/>
       <use xlink:href="#DejaVuSans-30" x="127.246094"/>
       <use xlink:href="#DejaVuSans-30" x="190.869141"/>
      </g>
     </g>
    </g>
    <g id="xtick_5">
     <g id="line2d_9">
      <path d="M 471.060651 260.44 
L 471.060651 25.44 
" clip-path="url(#p6022c4ea06)" style="fill: none; stroke-dasharray: 2.96,1.28; stroke-dashoffset: 0; stroke: #b0b0b0; stroke-opacity: 0.3; stroke-width: 0.8"/>
     </g>
     <g id="line2d_10">
      <g>
       <use xlink:href="#mb4825fbe9c" x="471.060651" y="260.44" style="stroke: #000000; stroke-width: 0.8"/>
      </g>
     </g>
     <g id="text_5">
      <!-- 8000 -->
      <g transform="translate(458.335651 275.038438) scale(0.1 -0.1)">
       <defs>
        <path id="DejaVuSans-38" d="M 2034 2216 
Q 1584 2216 1326 1975 
Q 1069 1734 1069 1313 
Q 1069 891 1326 650 
Q 1584 409 2034 409 
Q 2484 409 2743 651 
Q 3003 894 3003 1313 
Q 3003 1734 2745 1975 
Q 2488 2216 2034 2216 
z
M 1403 2484 
Q 997 2584 770 2862 
Q 544 3141 544 3541 
Q 544 4100 942 4425 
Q 1341 4750 2034 4750 
Q 2731 4750 3128 4425 
Q 3525 4100 3525 3541 
Q 3525 3141 3298 2862 
Q 3072 2584 2669 2484 
Q 3125 2378 3379 2068 
Q 3634 1759 3634 1313 
Q 3634 634 3220 271 
Q 2806 -91 2034 -91 
Q 1263 -91 848 271 
Q 434 634 434 1313 
Q 434 1759 690 2068 
Q 947 2378 1403 2484 
z
M 1172 3481 
Q 1172 3119 1398 2916 
Q 1625 2713 2034 2713 
Q 2441 2713 2670 2916 
Q 2900 3119 2900 3481 
Q 2900 3844 2670 4047 
Q 2441 4250 2034 4250 
Q 1625 4250 1398 4047 
Q 1172 3844 1172 3481 
z
" transform="scale(0.015625)"/>
       </defs>
       <use xlink:href="#DejaVuSans-38"/>
       <use xlink:href="#DejaVuSans-30" x="63.623047"/>
       <use xlink:href="#DejaVuSans-30" x="127.246094"/>
       <use xlink:href="#DejaVuSans-30" x="190.869141"/>
      </g>
     </g>
    </g>
    <g id="text_6">
     <!-- round -->
     <g transform="translate(295.185937 288.716563) scale(0.1 -0.1)">
      <defs>
       <path id="DejaVuSans-72" d="M 2631 2963 
Q 2534 3019 2420 3045 
Q 2306 3072 2169 3072 
Q 1681 3072 1420 2755 
Q 1159 2438 1159 1844 
L 1159 0 
L 581 0 
L 581 3500 
L 1159 3500 
L 1159 2956 
Q 1341 3275 1631 3429 
Q 1922 3584 2338 3584 
Q 2397 3584 2469 3576 
Q 2541 3569 2628 3553 
L 2631 2963 
z
" transform="scale(0.015625)"/>
       <path id="DejaVuSans-6f" d="M 1959 3097 
Q 1497 3097 1228 2736 
Q 959 2375 959 1747 
Q 959 1119 1226 758 
Q 1494 397 1959 397 
Q 2419 397 2687 759 
Q 2956 1122 2956 1747 
Q 2956 2369 2687 2733 
Q 2419 3097 1959 3097 
z
M 1959 3584 
Q 2709 3584 3137 3096 
Q 3566 2609 3566 1747 
Q 3566 888 3137 398 
Q 2709 -91 1959 -91 
Q 1206 -91 779 398 
Q 353 888 353 1747 
Q 353 2609 779 3096 
Q 1206 3584 1959 3584 
z
" transform="scale(0.015625)"/>
       <path id="DejaVuSans-75" d="M 544 1381 
L 544 3500 
L 1119 3500 
L 1119 1403 
Q 1119 906 1312 657 
Q 1506 409 1894 409 
Q 2359 409 2629 706 
Q 2900 1003 2900 1516 
L 2900 3500 
L 3475 3500 
L 3475 0 
L 2900 0 
L 2900 538 
Q 2691 219 2414 64 
Q 2138 -91 1772 -91 
Q 1169 -91 856 284 
Q 544 659 544 1381 
z
M 1991 3584 
L 1991 3584 
z
" transform="scale(0.015625)"/>
       <path id="DejaVuSans-6e" d="M 3513 2113 
L 3513 0 
L 2938 0 
L 2938 2094 
Q 2938 2591 2744 2837 
Q 2550 3084 2163 3084 
Q 1697 3084 1428 2787 
Q 1159 2491 1159 1978 
L 1159 0 
L 581 0 
L 581 3500 
L 1159 3500 
L 1159 2956 
Q 1366 3272 1645 3428 
Q 1925 3584 2291 3584 
Q 2894 3584 3203 3211 
Q 3513 2838 3513 2113 
z
" transform="scale(0.015625)"/>
       <path id="DejaVuSans-64" d="M 2906 2969 
L 2906 4863 
L 3481 4863 
L 3481 0 
L 2906 0 
L 2906 525 
Q 2725 213 2448 61 
Q 2172 -91 1784 -91 
Q 1150 -91 751 415 
Q 353 922 353 1747 
Q 353 2572 751 3078 
Q 1150 3584 1784 3584 
Q 2172 3584 2448 3432 
Q 2725 3281 2906 2969 
z
M 947 1747 
Q 947 1113 1208 752 
Q 1469 391 1925 391 
Q 2381 391 2643 752 
Q 2906 1113 2906 1747 
Q 2906 2381 2643 2742 
Q 2381 3103 1925 3103 
Q 1469 3103 1208 2742 
Q 947 2381 947 1747 
z
" transform="scale(0.015625)"/>
      </defs>
      <use xlink:href="#DejaVuSans-72"/>
      <use xlink:href="#DejaVuSans-6f" x="38.863281"/>
      <use xlink:href="#DejaVuSans-75" x="100.044922"/>
      <use xlink:href="#DejaVuSans-6e" x="163.423828"/>
      <use xlink:href="#DejaVuSans-64" x="226.802734"/>
     </g>
    </g>
   </g>
   <g id="matplotlib.axis_2">
    <g id="ytick_1">
     <g id="line2d_11">
      <path d="M 54.2 249.758182 
L 565.2 249.758182 
" clip-path="url(#p6022c4ea06)" style="fill: none; stroke-dasharray: 2.96,1.28; stroke-dashoffset: 0; stroke: #b0b0b0; stroke-opacity: 0.3; stroke-width: 0.8"/>
     </g>
     <g id="line2d_12">
      <defs>
       <path id="mc3633f534a" d="M 0 0 
L -3.5 0 
" style="stroke: #000000; stroke-width: 0.8"/>
      </defs>
      <g>
       <use xlink:href="#mc3633f534a" x="54.2" y="249.758182" style="stroke: #000000; stroke-width: 0.8"/>
      </g>
     </g>
     <g id="text_7">
      <!-- 0.60 -->
      <g transform="translate(24.934375 253.557401) scale(0.1 -0.1)">
       <defs>
        <path id="DejaVuSans-2e" d="M 684 794 
L 1344 794 
L 1344 0 
L 684 0 
L 684 794 
z
" transform="scale(0.015625)"/>
       </defs>
       <use xlink:href="#DejaVuSans-30"/>
       <use xlink:href="#DejaVuSans-2e" x="63.623047"/>
       <use xlink:href="#DejaVuSans-36" x="95.410156"/>
       <use xlink:href="#DejaVuSans-30" x="159.033203"/>
      </g>
     </g>
    </g>
    <g id="ytick_2">
     <g id="line2d_13">
      <path d="M 54.2 223.053636 
L 565.2 223.053636 
" clip-path="url(#p6022c4ea06)" style="fill: none; stroke-dasharray: 2.96,1.28; stroke-dashoffset: 0; stroke: #b0b0b0; stroke-opacity: 0.3; stroke-width: 0.8"/>
     </g>
     <g id="line2d_14">
      <g>
       <use xlink:href="#mc3633f534a" x="54.2" y="223.053636" style="stroke: #000000; stroke-width: 0.8"/>
      </g>
     </g>
     <g id="text_8">
      <!-- 0.65 -->
      <g transform="translate(24.934375 226.852855) scale(0.1 -0.1)">
       <defs>
        <path id="DejaVuSans-35" d="M 691 4666 
L 3169 4666 
L 3169 4134 
L 1269 4134 
L 1269 2991 
Q 1406 3038 1543 3061 
Q 1681 3084 1819 3084 
Q 2600 3084 3056 2656 
Q 3513 2228 3513 1497 
Q 3513 744 3044 326 
Q 2575 -91 1722 -91 
Q 1428 -91 1123 -41 
Q 819 9 494 109 
L 494 744 
Q 775 591 1075 516 
Q 1375 441 1709 441 
Q 2250 441 2565 725 
Q 2881 1009 2881 1497 
Q 2881 1984 2565 2268 
Q 2250 2553 1709 2553 
Q 1456 2553 1204 2497 
Q 953 2441 691 2322 
L 691 4666 
z
" transform="scale(0.015625)"/>
       </defs>
       <use xlink:href="#DejaVuSans-30"/>
       <use xlink:href="#DejaVuSans-2e" x="63.623047"/>
       <use xlink:href="#DejaVuSans-36" x="95.410156"/>
       <use xlink:href="#DejaVuSans-35" x="159.033203"/>
      </g>
     </g>
    </g>
    <g id="ytick_3">
     <g id="line2d_15">
      <path d="M 54.2 196.349091 
L 565.2 196.349091 
" clip-path="url(#p6022c4ea06)" style="fill: none; stroke-dasharray: 2.96,1.28; stroke-dashoffset: 0; stroke: #b0b0b0; stroke-opacity: 0.3; stroke-width: 0.8"/>
     </g>
     <g id="line2d_16">
      <g>
       <use xlink:href="#mc3633f534a" x="54.2" y="196.349091" style="stroke: #000000; stroke-width: 0.8"/>
      </g>
     </g>
     <g id="text_9">
      <!-- 0.70 -->
      <g transform="translate(24.934375 200.14831) scale(0.1 -0.1)">
       <defs>
        <path id="DejaVuSans-37" d="M 525 4666 
L 3525 4666 
L 3525 4397 
L 1831 0 
L 1172 0 
L 2766 4134 
L 525 4134 
L 525 4666 
z
" transform="scale(0.015625)"/>
       </defs>
       <use xlink:href="#DejaVuSans-30"/>
       <use xlink:href="#DejaVuSans-2e" x="63.623047"/>
       <use xlink:href="#DejaVuSans-37" x="95.410156"/>
       <use xlink:href="#DejaVuSans-30" x="159.033203"/>
      </g>
     </g>
    </g>
    <g id="ytick_4">
     <g id="line2d_17">
      <path d="M 54.2 169.644545 
L 565.2 169.644545 
" clip-path="url(#p6022c4ea06)" style="fill: none; stroke-dasharray: 2.96,1.28; stroke-dashoffset: 0; stroke: #b0b0b0; stroke-opacity: 0.3; stroke-width: 0.8"/>
     </g>
     <g id="line2d_18">
      <g>
       <use xlink:href="#mc3633f534a" x="54.2" y="169.644545" style="stroke: #000000; stroke-width: 0.8"/>
      </g>
     </g>
     <g id="text_10">
      <!-- 0.75 -->
      <g transform="translate(24.934375 173.443764) scale(0.1 -0.1)">
       <use xlink:href="#DejaVuSans-30"/>
       <use xlink:href="#DejaVuSans-2e" x="63.623047"/>
       <use xlink:href="#DejaVuSans-37" x="95.410156"/>
       <use xlink:href="#DejaVuSans-35" x="159.033203"/>
      </g>
     </g>
    </g>
    <g id="ytick_5">
     <g id="line2d_19">
      <path d="M 54.2 142.94 
L 565.2 142.94 
" clip-path="url(#p6022c4ea06)" style="fill: none; stroke-dasharray: 2.96,1.28; stroke-dashoffset: 0; stroke: #b0b0b0; stroke-opacity: 0.3; stroke-width: 0.8"/>
     </g>
     <g id="line2d_20">
      <g>
       <use xlink:href="#mc3633f534a" x="54.2" y="142.94" style="stroke: #000000; stroke-width: 0.8"/>
      </g>
     </g>
     <g id="text_11">
      <!-- 0.80 -->
      <g transform="translate(24.934375 146.739219) scale(0.1 -0.1)">
       <use xlink:href="#DejaVuSans-30"/>
       <use xlink:href="#DejaVuSans-2e" x="63.623047"/>
       <use xlink:href="#DejaVuSans-38" x="95.410156"/>
       <use xlink:href="#DejaVuSans-30" x="159.033203"/>
      </g>
     </g>
    </g>
    <g id="ytick_6">
     <g id="line2d_21">
      <path d="M 54.2 116.235455 
L 565.2 116.235455 
" clip-path="url(#p6022c4ea06)" style="fill: none; stroke-dasharray: 2.96,1.28; stroke-dashoffset: 0; stroke: #b0b0b0; stroke-opacity: 0.3; stroke-width: 0.8"/>
     </g>
     <g id="line2d_22">
      <g>
       <use xlink:href="#mc3633f534a" x="54.2" y="116.235455" style="stroke: #000000; stroke-width: 0.8"/>
      </g>
     </g>
     <g id="text_12">
      <!-- 0.85 -->
      <g transform="translate(24.934375 120.034673) scale(0.1 -0.1)">
       <use xlink:href="#DejaVuSans-30"/>
       <use xlink:href="#DejaVuSans-2e" x="63.623047"/>
       <use xlink:href="#DejaVuSans-38" x="95.410156"/>
       <use xlink:href="#DejaVuSans-35" x="159.033203"/>
      </g>
     </g>
    </g>
    <g id="ytick_7">
     <g id="line2d_23">
      <path d="M 54.2 89.530909 
L 565.2 89.530909 
" clip-path="url(#p6022c4ea06)" style="fill: none; stroke-dasharray: 2.96,1.28; stroke-dashoffset: 0; stroke: #b0b0b0; stroke-opacity: 0.3; stroke-width: 0.8"/>
     </g>
     <g id="line2d_24">
      <g>
       <use xlink:href="#mc3633f534a" x="54.2" y="89.530909" style="stroke: #000000; stroke-width: 0.8"/>
      </g>
     </g>
     <g id="text_13">
      <!-- 0.90 -->
      <g transform="translate(24.934375 93.330128) scale(0.1 -0.1)">
       <defs>
        <path id="DejaVuSans-39" d="M 703 97 
L 703 672 
Q 941 559 1184 500 
Q 1428 441 1663 441 
Q 2288 441 2617 861 
Q 2947 1281 2994 2138 
Q 2813 1869 2534 1725 
Q 2256 1581 1919 1581 
Q 1219 1581 811 2004 
Q 403 2428 403 3163 
Q 403 3881 828 4315 
Q 1253 4750 1959 4750 
Q 2769 4750 3195 4129 
Q 3622 3509 3622 2328 
Q 3622 1225 3098 567 
Q 2575 -91 1691 -91 
Q 1453 -91 1209 -44 
Q 966 3 703 97 
z
M 1959 2075 
Q 2384 2075 2632 2365 
Q 2881 2656 2881 3163 
Q 2881 3666 2632 3958 
Q 2384 4250 1959 4250 
Q 1534 4250 1286 3958 
Q 1038 3666 1038 3163 
Q 1038 2656 1286 2365 
Q 1534 2075 1959 2075 
z
" transform="scale(0.015625)"/>
       </defs>
       <use xlink:href="#DejaVuSans-30"/>
       <use xlink:href="#DejaVuSans-2e" x="63.623047"/>
       <use xlink:href="#DejaVuSans-39" x="95.410156"/>
       <use xlink:href="#DejaVuSans-30" x="159.033203"/>
      </g>
     </g>
    </g>
    <g id="ytick_8">
     <g id="line2d_25">
      <path d="M 54.2 62.826364 
L 565.2 62.826364 
" clip-path="url(#p6022c4ea06)" style="fill: none; stroke-dasharray: 2.96,1.28; stroke-dashoffset: 0; stroke: #b0b0b0; stroke-opacity: 0.3; stroke-width: 0.8"/>
     </g>
     <g id="line2d_26">
      <g>
       <use xlink:href="#mc3633f534a" x="54.2" y="62.826364" style="stroke: #000000; stroke-width: 0.8"/>
      </g>
     </g>
     <g id="text_14">
      <!-- 0.95 -->
      <g transform="translate(24.934375 66.625582) scale(0.1 -0.1)">
       <use xlink:href="#DejaVuSans-30"/>
       <use xlink:href="#DejaVuSans-2e" x="63.623047"/>
       <use xlink:href="#DejaVuSans-39" x="95.410156"/>
       <use xlink:href="#DejaVuSans-35" x="159.033203"/>
      </g>
     </g>
    </g>
    <g id="ytick_9">
     <g id="line2d_27">
      <path d="M 54.2 36.121818 
L 565.2 36.121818 
" clip-path="url(#p6022c4ea06)" style="fill: none; stroke-dasharray: 2.96,1.28; stroke-dashoffset: 0; stroke: #b0b0b0; stroke-opacity: 0.3; stroke-width: 0.8"/>
     </g>
     <g id="line2d_28">
      <g>
       <use xlink:href="#mc3633f534a" x="54.2" y="36.121818" style="stroke: #000000; stroke-width: 0.8"/>
      </g>
     </g>
     <g id="text_15">
      <!-- 1.00 -->
      <g transform="translate(24.934375 39.921037) scale(0.1 -0.1)">
       <defs>
        <path id="DejaVuSans-31" d="M 794 531 
L 1825 531 
L 1825 4091 
L 703 3866 
L 703 4441 
L 1819 4666 
L 2450 4666 
L 2450 531 
L 3481 531 
L 3481 0 
L 794 0 
L 794 531 
z
" transform="scale(0.015625)"/>
       </defs>
       <use xlink:href="#DejaVuSans-31"/>
       <use xlink:href="#DejaVuSans-2e" x="63.623047"/>
       <use xlink:href="#DejaVuSans-30" x="95.410156"/>
       <use xlink:href="#DejaVuSans-30" x="159.033203"/>
      </g>
     </g>
    </g>
    <g id="text_16">
     <!-- cumulative timely transfer rate -->
     <g transform="translate(18.854688 221.048594) rotate(-90) scale(0.1 -0.1)">
      <defs>
       <path id="DejaVuSans-63" d="M 3122 3366 
L 3122 2828 
Q 2878 2963 2633 3030 
Q 2388 3097 2138 3097 
Q 1578 3097 1268 2742 
Q 959 2388 959 1747 
Q 959 1106 1268 751 
Q 1578 397 2138 397 
Q 2388 397 2633 464 
Q 2878 531 3122 666 
L 3122 134 
Q 2881 22 2623 -34 
Q 2366 -91 2075 -91 
Q 1284 -91 818 406 
Q 353 903 353 1747 
Q 353 2603 823 3093 
Q 1294 3584 2113 3584 
Q 2378 3584 2631 3529 
Q 2884 3475 3122 3366 
z
" transform="scale(0.015625)"/>
       <path id="DejaVuSans-6d" d="M 3328 2828 
Q 3544 3216 3844 3400 
Q 4144 3584 4550 3584 
Q 5097 3584 5394 3201 
Q 5691 2819 5691 2113 
L 5691 0 
L 5113 0 
L 5113 2094 
Q 5113 2597 4934 2840 
Q 4756 3084 4391 3084 
Q 3944 3084 3684 2787 
Q 3425 2491 3425 1978 
L 3425 0 
L 2847 0 
L 2847 2094 
Q 2847 2600 2669 2842 
Q 2491 3084 2119 3084 
Q 1678 3084 1418 2786 
Q 1159 2488 1159 1978 
L 1159 0 
L 581 0 
L 581 3500 
L 1159 3500 
L 1159 2956 
Q 1356 3278 1631 3431 
Q 1906 3584 2284 3584 
Q 2666 3584 2933 3390 
Q 3200 3197 3328 2828 
z
" transform="scale(0.015625)"/>
       <path id="DejaVuSans-6c" d="M 603 4863 
L 1178 4863 
L 1178 0 
L 603 0 
L 603 4863 
z
" transform="scale(0.015625)"/>
       <path id="DejaVuSans-61" d="M 2194 1759 
Q 1497 1759 1228 1600 
Q 959 1441 959 1056 
Q 959 750 1161 570 
Q 1363 391 1709 391 
Q 2188 391 2477 730 
Q 2766 1069 2766 1631 
L 2766 1759 
L 2194 1759 
z
M 3341 1997 
L 3341 0 
L 2766 0 
L 2766 531 
Q 2569 213 2275 61 
Q 1981 -91 1556 -91 
Q 1019 -91 701 211 
Q 384 513 384 1019 
Q 384 1609 779 1909 
Q 1175 2209 1959 2209 
L 2766 2209 
L 2766 2266 
Q 2766 2663 2505 2880 
Q 2244 3097 1772 3097 
Q 1472 3097 1187 3025 
Q 903 2953 641 2809 
L 641 3341 
Q 956 3463 1253 3523 
Q 1550 3584 1831 3584 
Q 2591 3584 2966 3190 
Q 3341 2797 3341 1997 
z
" transform="scale(0.015625)"/>
       <path id="DejaVuSans-74" d="M 1172 4494 
L 1172 3500 
L 2356 3500 
L 2356 3053 
L 1172 3053 
L 1172 1153 
Q 1172 725 1289 603 
Q 1406 481 1766 481 
L 2356 481 
L 2356 0 
L 1766 0 
Q 1100 0 847 248 
Q 594 497 594 1153 
L 594 3053 
L 172 3053 
L 172 3500 
L 594 3500 
L 594 4494 
L 1172 4494 
z
" transform="scale(0.015625)"/>
       <path id="DejaVuSans-69" d="M 603 3500 
L 1178 3500 
L 1178 0 
L 603 0 
L 603 3500 
z
M 603 4863 
L 1178 4863 
L 1178 4134 
L 603 4134 
L 603 4863 
z
" transform="scale(0.015625)"/>
       <path id="DejaVuSans-76" d="M 191 3500 
L 800 3500 
L 1894 563 
L 2988 3500 
L 3597 3500 
L 2284 0 
L 1503 0 
L 191 3500 
z
" transform="scale(0.015625)"/>
       <path id="DejaVuSans-65" d="M 3597 1894 
L 3597 1613 
L 953 1613 
Q 991 1019 1311 708 
Q 1631 397 2203 397 
Q 2534 397 2845 478 
Q 3156 559 3463 722 
L 3463 178 
Q 3153 47 2828 -22 
Q 2503 -91 2169 -91 
Q 1331 -91 842 396 
Q 353 884 353 1716 
Q 353 2575 817 3079 
Q 1281 3584 2069 3584 
Q 2775 3584 3186 3129 
Q 3597 2675 3597 1894 
z
M 3022 2063 
Q 3016 2534 2758 2815 
Q 2500 3097 2075 3097 
Q 1594 3097 1305 2825 
Q 1016 2553 972 2059 
L 3022 2063 
z
" transform="scale(0.015625)"/>
       <path id="DejaVuSans-20" transform="scale(0.015625)"/>
       <path id="DejaVuSans-79" d="M 2059 -325 
Q 1816 -950 1584 -1140 
Q 1353 -1331 966 -1331 
L 506 -1331 
L 506 -850 
L 844 -850 
Q 1081 -850 1212 -737 
Q 1344 -625 1503 -206 
L 1606 56 
L 191 3500 
L 800 3500 
L 1894 763 
L 2988 3500 
L 3597 3500 
L 2059 -325 
z
" transform="scale(0.015625)"/>
       <path id="DejaVuSans-73" d="M 2834 3397 
L 2834 2853 
Q 2591 2978 2328 3040 
Q 2066 3103 1784 3103 
Q 1356 3103 1142 2972 
Q 928 2841 928 2578 
Q 928 2378 1081 2264 
Q 1234 2150 1697 2047 
L 1894 2003 
Q 2506 1872 2764 1633 
Q 3022 1394 3022 966 
Q 3022 478 2636 193 
Q 2250 -91 1575 -91 
Q 1294 -91 989 -36 
Q 684 19 347 128 
L 347 722 
Q 666 556 975 473 
Q 1284 391 1588 391 
Q 1994 391 2212 530 
Q 2431 669 2431 922 
Q 2431 1156 2273 1281 
Q 2116 1406 1581 1522 
L 1381 1569 
Q 847 1681 609 1914 
Q 372 2147 372 2553 
Q 372 3047 722 3315 
Q 1072 3584 1716 3584 
Q 2034 3584 2315 3537 
Q 2597 3491 2834 3397 
z
" transform="scale(0.015625)"/>
       <path id="DejaVuSans-66" d="M 2375 4863 
L 2375 4384 
L 1825 4384 
Q 1516 4384 1395 4259 
Q 1275 4134 1275 3809 
L 1275 3500 
L 2222 3500 
L 2222 3053 
L 1275 3053 
L 1275 0 
L 697 0 
L 697 3053 
L 147 3053 
L 147 3500 
L 697 3500 
L 697 3744 
Q 697 4328 969 4595 
Q 1241 4863 1831 4863 
L 2375 4863 
z
" transform="scale(0.015625)"/>
      </defs>
      <use xlink:href="#DejaVuSans-63"/>
      <use xlink:href="#DejaVuSans-75" x="54.980469"/>
      <use xlink:href="#DejaVuSans-6d" x="118.359375"/>
      <use xlink:href="#DejaVuSans-75" x="215.771484"/>
      <use xlink:href="#DejaVuSans-6c" x="279.150391"/>
      <use xlink:href="#DejaVuSans-61" x="306.933594"/>
      <use xlink:href="#DejaVuSans-74" x="368.212891"/>
      <use xlink:href="#DejaVuSans-69" x="407.421875"/>
      <use xlink:href="#DejaVuSans-76" x="435.205078"/>
      <use xlink:href="#DejaVuSans-65" x="494.384766"/>
      <use xlink:href="#DejaVuSans-20" x="555.908203"/>
      <use xlink:href="#DejaVuSans-74" x="587.695312"/>
      <use xlink:href="#DejaVuSans-69" x="626.904297"/>
      <use xlink:href="#DejaVuSans-6d" x="654.6875"/>
      <use xlink:href="#DejaVuSans-65" x="752.099609"/>
      <use xlink:href="#DejaVuSans-6c" x="813.623047"/>
      <use xlink:href="#DejaVuSans-79" x="841.40625"/>
      <use xlink:href="#DejaVuSans-20" x="900.585938"/>
      <use xlink:href="#DejaVuSans-74" x="932.373047"/>
      <use xlink:href="#DejaVuSans-72" x="971.582031"/>
      <use xlink:href="#DejaVuSans-61" x="1012.695312"/>
      <use xlink:href="#DejaVuSans-6e" x="1073.974609"/>
      <use xlink:href="#DejaVuSans-73" x="1137.353516"/>
      <use xlink:href="#DejaVuSans-66" x="1189.453125"/>
      <use xlink:href="#DejaVuSans-65" x="1224.658203"/>
      <use xlink:href="#DejaVuSans-72" x="1286.181641"/>
      <use xlink:href="#DejaVuSans-20" x="1327.294922"/>
      <use xlink:href="#DejaVuSans-72" x="1359.082031"/>
      <use xlink:href="#DejaVuSans-61" x="1400.195312"/>
      <use xlink:href="#DejaVuSans-74" x="1461.474609"/>
      <use xlink:href="#DejaVuSans-65" x="1500.683594"/>
     </g>
    </g>
   </g>
   <g id="line2d_29">
    <path d="M 77.427273 184.480404 
L 77.722535 69.272288 
L 77.820955 61.69 
L 78.017797 76.036085 
L 78.116217 70.738822 
L 78.165428 74.271169 
L 78.214638 71.633182 
L 78.362269 66.33058 
L 78.55911 72.78483 
L 79.198844 59.261588 
L 79.690948 54.234892 
L 79.838579 59.643957 
L 80.08463 57.739784 
L 80.133841 60.191183 
L 80.183051 59.822868 
L 80.330682 58.865778 
L 80.379892 61.13328 
L 80.429102 60.708156 
L 80.822785 57.67111 
L 80.871995 59.598342 
L 80.921206 59.30117 
L 81.216468 57.652919 
L 81.51173 67.700458 
L 81.856202 65.707779 
L 82.003833 72.390317 
L 82.053043 72.155678 
L 82.151464 77.095145 
L 82.200674 76.426119 
L 82.446726 73.490699 
L 82.495936 73.779316 
L 82.545146 73.847287 
L 82.594357 73.272339 
L 82.791198 77.918523 
L 83.283301 73.392152 
L 83.332512 73.598824 
L 83.430932 73.080153 
L 83.480143 73.435251 
L 83.529353 73.153019 
L 84.021456 69.521391 
L 84.710401 64.468142 
L 85.350135 62.057676 
L 85.448555 64.549425 
L 85.546976 64.249994 
L 85.694607 64.576556 
L 85.743817 64.474653 
L 85.793028 64.679835 
L 85.842238 64.590293 
L 86.580393 62.433725 
L 88.204334 57.314598 
L 88.302754 58.833503 
L 88.351965 58.761041 
L 88.401175 58.695877 
L 88.450385 59.479738 
L 88.499596 59.367558 
L 89.040909 58.308663 
L 89.090119 59.769636 
L 89.18854 59.516504 
L 89.23775 59.3887 
L 89.434592 61.752357 
L 89.483802 61.609888 
L 89.533012 61.472411 
L 89.680643 63.020514 
L 89.828274 62.576399 
L 89.926695 63.245232 
L 89.975905 63.116816 
L 90.074326 62.853434 
L 90.221957 64.536573 
L 90.271167 64.364149 
L 90.369588 64.018677 
L 90.418798 64.795228 
L 90.468008 64.653143 
L 90.66485 64.022561 
L 90.71406 64.40349 
L 90.76327 64.235147 
L 91.403005 62.080973 
L 91.747477 61.111444 
L 91.845898 61.802425 
L 91.895108 61.645421 
L 92.338001 60.412803 
L 92.387211 61.076933 
L 92.436421 60.985908 
L 92.485632 60.864782 
L 92.534842 61.388017 
L 92.584052 61.270955 
L 92.633263 61.178556 
L 92.928525 63.098584 
L 92.977735 62.982645 
L 93.026945 63.14225 
L 93.076156 63.027186 
L 93.125366 63.733111 
L 93.174576 63.594547 
L 93.223787 63.440316 
L 93.272997 63.574205 
L 93.371418 64.503008 
L 93.420628 64.34462 
L 93.469838 64.248966 
L 93.66668 65.340937 
L 93.81431 64.921278 
L 94.306414 67.214836 
L 94.355624 67.068824 
L 94.404834 67.177556 
L 94.454045 67.471917 
L 94.503255 67.402722 
L 94.552465 67.248145 
L 94.749307 68.774926 
L 94.798517 68.664255 
L 94.847727 68.801204 
L 95.1922 68.316663 
L 95.24141 68.180001 
L 95.29062 68.876968 
L 95.339831 68.758517 
L 95.438251 68.48149 
L 95.585882 69.567448 
L 95.635092 69.399584 
L 95.782723 71.297617 
L 95.831934 71.178704 
L 95.930354 70.953022 
L 96.028775 71.908545 
L 96.127196 71.693439 
L 96.520878 70.708923 
L 96.81614 69.779636 
L 96.865351 70.056059 
L 96.914561 69.911031 
L 97.111402 69.317748 
L 97.209823 70.065558 
L 97.308243 69.805942 
L 97.357454 69.706982 
L 97.505085 70.431869 
L 97.603505 70.323709 
L 97.849557 73.237104 
L 98.046398 74.83239 
L 98.095609 74.733103 
L 98.194029 74.545168 
L 98.538502 76.030883 
L 98.686133 75.839191 
L 98.833763 75.518963 
L 99.276656 78.271212 
L 100.064022 76.245698 
L 100.162442 76.005321 
L 100.211653 76.229645 
L 100.260863 76.102019 
L 100.408494 75.785455 
L 100.556125 76.141581 
L 100.654545 75.90035 
L 100.752966 76.346125 
L 100.802176 76.321626 
L 100.900597 77.56479 
L 100.949807 77.466624 
L 100.999018 77.573089 
L 101.3927 80.668723 
L 101.491121 80.414319 
L 101.540331 80.618564 
L 101.589542 80.517023 
L 101.638752 80.383781 
L 101.737173 80.986996 
L 101.786383 80.849274 
L 101.983224 80.310925 
L 102.081645 80.042444 
L 102.229276 80.23295 
L 102.721379 78.972004 
L 102.8198 79.521521 
L 102.86901 79.41415 
L 102.91822 79.363577 
L 103.065851 80.163409 
L 103.262693 80.906281 
L 103.311903 80.838721 
L 103.459534 81.581375 
L 103.508744 81.48335 
L 103.656375 82.223823 
L 103.705586 82.149241 
L 103.951637 83.114589 
L 104.000847 83.069777 
L 104.050058 83.265839 
L 104.099268 83.196584 
L 104.34532 82.873026 
L 104.44374 83.479074 
L 104.492951 83.334649 
L 105.280316 81.971951 
L 105.329526 82.043166 
L 106.018471 80.547473 
L 106.608995 82.045213 
L 106.707415 81.900459 
L 107.150308 83.910157 
L 107.297939 83.546089 
L 107.347149 83.854961 
L 107.39636 83.78988 
L 107.49478 83.78466 
L 107.642411 84.20309 
L 107.691622 84.139855 
L 107.740832 84.064542 
L 107.790042 84.360908 
L 107.839253 84.280261 
L 107.937673 84.178959 
L 108.183725 85.260564 
L 108.232935 85.216419 
L 108.331356 85.075686 
L 108.380566 85.111347 
L 108.528197 85.352388 
L 108.577408 85.287697 
L 108.92188 84.867913 
L 108.97109 84.94562 
L 109.0203 84.873986 
L 109.217142 85.961159 
L 109.364773 86.156519 
L 109.413983 86.056473 
L 109.610824 85.894911 
L 109.758455 86.362681 
L 109.807666 86.273925 
L 109.856876 86.207564 
L 110.004507 86.79882 
L 110.152138 86.710645 
L 110.348979 87.126991 
L 110.49661 86.879444 
L 110.54582 87.010377 
L 110.595031 86.904348 
L 110.644241 86.850662 
L 110.791872 87.51219 
L 110.841082 87.40759 
L 111.185555 86.693697 
L 111.726868 85.627963 
L 112.02213 85.112533 
L 112.218971 85.970303 
L 112.317392 85.805078 
L 112.661864 85.309247 
L 112.809495 85.410529 
L 113.006337 85.273266 
L 113.153968 85.70245 
L 113.252388 85.528785 
L 113.301599 85.438723 
L 113.49844 86.144856 
L 113.54765 86.067877 
L 113.793702 85.828359 
L 113.842912 85.938019 
L 113.892122 85.831882 
L 113.941333 85.768127 
L 114.088964 85.993432 
L 114.236595 85.800388 
L 114.285805 85.908128 
L 114.335015 86.423158 
L 114.384226 86.337983 
L 114.482646 86.1456 
L 114.630277 86.415125 
L 114.679488 86.398122 
L 114.728698 86.391158 
L 114.827119 86.561225 
L 114.876329 86.480208 
L 115.270012 85.922789 
L 115.417643 86.029255 
L 115.516063 85.938673 
L 115.565273 86.059539 
L 115.614484 85.979898 
L 115.811325 85.6368 
L 115.958956 86.149339 
L 116.008166 86.12225 
L 116.106587 85.980314 
L 116.59869 87.140265 
L 116.697111 87.027558 
L 116.746321 87.250483 
L 116.795532 87.165042 
L 116.844742 87.101487 
L 117.041583 87.429895 
L 117.090794 87.430757 
L 117.189214 87.770971 
L 117.238424 87.728998 
L 117.386055 87.588203 
L 117.533686 87.877823 
L 117.730528 87.75907 
L 117.779738 87.832036 
L 117.828948 87.74946 
L 118.222631 87.376472 
L 118.321052 87.573309 
L 118.370262 87.505393 
L 118.419472 87.437656 
L 118.468683 87.594759 
L 118.517893 87.523191 
L 118.714734 87.344666 
L 118.862365 87.657728 
L 119.059206 87.702806 
L 119.256048 87.402693 
L 119.305258 87.301295 
L 119.354468 87.331502 
L 119.452889 87.508803 
L 119.502099 87.468382 
L 119.60052 87.362577 
L 119.895782 87.995874 
L 119.994203 87.857378 
L 120.092623 88.265756 
L 120.141834 88.22447 
L 120.240254 88.081296 
L 120.535516 88.915515 
L 120.584727 88.843676 
L 120.781568 88.727736 
L 120.830778 88.790806 
L 120.879988 88.728393 
L 120.929199 88.668616 
L 120.978409 88.773512 
L 121.027619 88.913099 
L 121.07683 88.85832 
L 121.470512 88.423966 
L 121.519723 88.795693 
L 121.568933 88.717156 
L 121.814985 88.325543 
L 121.913405 88.569814 
L 121.962616 88.519108 
L 122.454719 88.139086 
L 122.503929 88.422061 
L 122.553139 88.353248 
L 122.60235 88.285798 
L 122.749981 88.712827 
L 122.799191 88.66423 
L 123.094453 88.374775 
L 123.143663 88.490921 
L 123.192874 88.436016 
L 123.291294 88.311447 
L 123.389715 88.707591 
L 123.438925 88.659813 
L 123.488136 88.719264 
L 123.537346 88.656511 
L 123.586556 88.586961 
L 123.684977 88.904061 
L 123.734187 88.841373 
L 124.324711 88.551692 
L 124.373921 88.678729 
L 124.423132 88.613776 
L 124.472342 88.562611 
L 124.521552 88.71538 
L 124.570763 88.644949 
L 124.669183 88.50578 
L 124.718394 88.688328 
L 124.767604 88.640853 
L 124.964445 88.527852 
L 125.112076 88.53714 
L 125.308918 88.377002 
L 125.358128 88.711709 
L 125.407338 88.675983 
L 125.801021 88.231265 
L 125.948652 88.523021 
L 126.194703 88.242935 
L 126.243914 88.335823 
L 126.293124 88.326025 
L 126.391545 88.671749 
L 126.440755 88.595309 
L 127.22812 87.863342 
L 127.277331 87.980178 
L 127.326541 87.912452 
L 127.867854 87.448973 
L 128.015485 87.638187 
L 128.212327 87.536264 
L 128.310747 87.684001 
L 128.359958 87.633664 
L 128.852061 87.067299 
L 128.901271 87.203929 
L 128.999692 87.159969 
L 129.048902 87.08789 
L 129.098112 87.423592 
L 129.147323 87.370379 
L 129.541005 86.929884 
L 129.737847 87.276512 
L 130.377581 86.713151 
L 130.574422 86.792501 
L 130.771263 86.593146 
L 130.869684 86.91418 
L 130.968105 86.844299 
L 131.115736 86.804686 
L 131.164946 86.972348 
L 131.214156 86.915162 
L 131.263367 86.848608 
L 131.312577 86.913433 
L 131.361787 87.023726 
L 131.410998 86.98572 
L 131.657049 86.839388 
L 131.70626 86.960736 
L 131.75547 86.925877 
L 131.853891 86.823463 
L 131.903101 86.927465 
L 132.001522 86.910238 
L 132.395204 86.494115 
L 132.493625 86.497632 
L 132.985728 86.316916 
L 133.084149 86.469536 
L 133.133359 86.429562 
L 133.3302 86.356904 
L 133.428621 86.603544 
L 133.477831 86.554699 
L 133.723883 86.391886 
L 133.773093 86.539893 
L 133.822304 86.512957 
L 134.019145 86.305619 
L 134.068355 86.402779 
L 134.117565 86.340501 
L 134.166776 86.277492 
L 134.215986 86.480712 
L 134.265196 86.440738 
L 134.363617 86.337101 
L 134.511248 86.469875 
L 134.904931 86.146528 
L 134.954141 86.311295 
L 135.003351 86.257092 
L 135.150982 86.094315 
L 135.200193 86.193999 
L 135.593875 86.000985 
L 135.692296 86.349544 
L 135.741506 86.290881 
L 135.790716 86.258158 
L 135.839927 86.36657 
L 135.889137 86.320087 
L 136.28282 85.924186 
L 136.33203 86.12537 
L 136.38124 86.195675 
L 136.430451 86.144716 
L 136.627292 85.962962 
L 136.676502 86.037531 
L 136.774923 86.271072 
L 136.824133 86.241496 
L 137.070185 86.151403 
L 137.217816 86.34787 
L 137.267026 86.281551 
L 137.611498 86.165662 
L 137.709919 86.178726 
L 137.90676 86.028109 
L 138.103602 86.190916 
L 138.398864 86.049211 
L 138.497284 86.005493 
L 138.743336 85.787497 
L 138.890967 86.220493 
L 138.940177 86.177402 
L 139.43228 85.88809 
L 139.481491 85.974542 
L 139.530701 85.928068 
L 139.875173 85.762995 
L 140.170435 85.52134 
L 140.219646 85.676557 
L 140.268856 85.634844 
L 140.514908 85.432643 
L 140.564118 85.534563 
L 140.613328 85.482367 
L 141.056221 85.120831 
L 141.253062 85.339381 
L 142.3849 84.650255 
L 142.532531 84.840865 
L 143.073844 84.443173 
L 143.467527 84.189679 
L 143.516737 84.287826 
L 143.565948 84.250914 
L 143.762789 84.061457 
L 143.86121 84.192553 
L 143.91042 84.15668 
L 144.353313 83.985954 
L 144.500944 84.134161 
L 144.550154 84.092307 
L 144.943837 83.859335 
L 144.993047 83.938925 
L 145.042257 83.893365 
L 145.189888 83.821476 
L 145.288309 84.06105 
L 145.337519 84.013512 
L 145.829622 83.799126 
L 146.223305 83.782908 
L 147.453563 83.790755 
L 190.118914 83.894751 
L 190.660227 83.93683 
L 206.013848 84.035088 
L 206.21069 84.070129 
L 236.228987 84.166912 
L 236.475039 84.194925 
L 247.891834 84.28878 
L 248.137885 84.316776 
L 255.224172 84.400744 
L 255.470223 84.428727 
L 266.591757 84.537142 
L 267.034649 84.551125 
L 274.66225 84.646887 
L 274.859091 84.681826 
L 280.419857 84.786611 
L 280.665909 84.814546 
L 293.165331 84.917167 
L 293.460593 84.938107 
L 299.808725 85.028823 
L 300.103987 85.049752 
L 305.221861 85.154373 
L 305.517122 85.175292 
L 314.867084 85.28259 
L 315.113136 85.310463 
L 322.150212 85.412721 
L 322.445474 85.433612 
L 325.250462 85.538036 
L 325.447304 85.572834 
L 333.665428 85.65064 
L 333.862269 85.692373 
L 337.306992 85.781343 
L 337.503833 85.823051 
L 345.033012 85.9182 
L 345.279064 85.94599 
L 346.706163 86.022395 
L 346.952215 86.091832 
L 350.642989 86.202892 
L 350.889041 86.230648 
L 357.630855 86.33111 
L 357.827696 86.372718 
L 367.374499 86.462846 
L 367.620551 86.490571 
L 371.212904 86.584691 
L 371.409746 86.626254 
L 376.084727 86.729081 
L 376.330778 86.756768 
L 380.415235 86.856938 
L 380.612076 86.898443 
L 386.960208 86.995624 
L 387.157049 87.037099 
L 393.505181 87.125824 
L 393.702022 87.174176 
L 403.93777 87.267521 
L 404.183821 87.29513 
L 410.03985 87.39601 
L 410.285901 87.423599 
L 414.321148 87.494316 
L 414.517989 87.542569 
L 418.110343 87.645936 
L 418.356394 87.673493 
L 423.080586 87.775581 
L 423.523478 87.78935 
L 430.905027 87.897259 
L 431.101868 87.931661 
L 434.743432 88.030397 
L 434.940273 88.064777 
L 448.473112 88.160469 
L 448.719164 88.229177 
L 452.459149 88.318467 
L 452.7052 88.345935 
L 458.019915 88.455773 
L 458.216757 88.496949 
L 463.925154 88.606718 
L 464.220416 88.627295 
L 474.308532 88.721796 
L 474.505374 88.762925 
L 484.54428 88.870412 
L 485.626907 88.911508 
L 495.17371 89.017302 
L 495.370551 89.05837 
L 504.868143 89.161062 
L 505.114195 89.188421 
L 513.972053 89.298616 
L 514.168894 89.339626 
L 518.10572 89.450476 
L 518.400982 89.505113 
L 524.552273 89.609791 
L 524.995166 89.623441 
L 531.835401 89.728047 
L 532.032242 89.76215 
L 541.972727 89.800782 
L 541.972727 89.800782 
" clip-path="url(#p6022c4ea06)" style="fill: none; stroke: #1f77b4; stroke-width: 1.8; stroke-linecap: square"/>
   </g>
   <g id="line2d_30">
    <path d="M 77.427273 157.932026 
L 77.525693 161.251688 
L 77.574904 120.343846 
L 77.820955 76.449124 
L 77.870166 71.440733 
L 77.919376 75.828285 
L 78.017797 91.991851 
L 78.067007 87.86765 
L 78.116217 83.396461 
L 78.214638 97.035471 
L 78.263848 93.134084 
L 78.362269 107.011713 
L 78.411479 103.553669 
L 78.46069 102.657179 
L 78.5099 105.203075 
L 78.55911 101.861116 
L 78.60832 108.006545 
L 78.657531 106.886576 
L 78.903582 96.9809 
L 79.100424 103.972803 
L 79.198844 103.021633 
L 79.297265 106.084604 
L 79.395686 102.858354 
L 79.444896 103.462038 
L 79.494106 103.353995 
L 79.641737 99.657458 
L 79.690948 102.360247 
L 79.789368 101.755879 
L 79.838579 102.167954 
L 79.887789 101.21163 
L 79.936999 106.210422 
L 79.98621 104.496517 
L 80.03542 104.579546 
L 80.183051 106.192054 
L 80.281471 104.067076 
L 80.379892 109.072758 
L 80.429102 108.003619 
L 80.478313 107.991571 
L 80.773575 103.408862 
L 80.822785 106.115656 
L 80.871995 104.960202 
L 81.068837 103.641985 
L 81.118047 103.959555 
L 81.167257 103.868781 
L 81.413309 100.216624 
L 81.51173 102.479144 
L 81.56094 101.986739 
L 81.659361 100.441255 
L 81.708571 100.932029 
L 81.757781 101.70876 
L 81.806992 100.919612 
L 81.856202 101.441656 
L 81.905412 101.066993 
L 81.954622 100.986244 
L 82.200674 98.713177 
L 82.249884 99.750864 
L 82.299095 99.142112 
L 82.545146 96.789345 
L 82.594357 96.961806 
L 82.643567 97.377383 
L 82.692777 96.93713 
L 82.840408 95.440781 
L 82.889619 95.877697 
L 82.938829 96.459656 
L 82.988039 96.006475 
L 83.03725 96.181371 
L 83.184881 95.135098 
L 83.234091 95.343397 
L 83.332512 94.28347 
L 83.381722 94.419063 
L 83.430932 94.486255 
L 83.627773 93.364097 
L 83.726194 95.598121 
L 83.775404 95.534595 
L 83.923035 94.631435 
L 83.972246 94.75262 
L 84.119877 96.122725 
L 84.169087 95.628266 
L 84.218297 95.103323 
L 84.267508 95.214206 
L 84.316718 95.350134 
L 84.513559 93.930883 
L 84.56277 94.092047 
L 84.66119 97.243492 
L 84.759611 96.490275 
L 84.858032 97.053017 
L 84.907242 96.6377 
L 84.956452 96.953654 
L 85.005663 96.966957 
L 85.202504 95.335472 
L 85.399345 96.98334 
L 85.448555 96.815089 
L 85.546976 97.629689 
L 85.645397 97.195102 
L 85.743817 97.595801 
L 85.842238 97.014567 
L 86.235921 102.078828 
L 86.285131 102.311623 
L 86.383552 103.190433 
L 86.531183 102.466633 
L 86.629603 102.744118 
L 86.728024 102.036494 
L 86.875655 102.992687 
L 87.170917 101.614761 
L 87.367758 102.248493 
L 87.416968 101.959986 
L 87.466179 102.166163 
L 87.515389 102.213074 
L 87.564599 101.856683 
L 87.61381 102.029754 
L 87.66302 102.092308 
L 87.810651 101.709262 
L 87.909072 101.684214 
L 87.958282 101.417494 
L 88.007492 101.556427 
L 88.155123 102.313828 
L 88.204334 102.11581 
L 88.450385 100.549118 
L 88.499596 100.95921 
L 88.598016 101.219649 
L 88.647227 101.753118 
L 88.696437 101.508593 
L 88.844068 100.868459 
L 88.942488 101.75684 
L 88.991699 101.551952 
L 89.090119 101.229336 
L 89.286961 102.89976 
L 89.336171 102.614931 
L 89.483802 102.043673 
L 89.533012 102.088597 
L 89.631433 102.195915 
L 89.680643 102.643091 
L 89.779064 102.57772 
L 89.828274 102.776414 
L 89.926695 102.25543 
L 90.025116 103.214281 
L 90.074326 102.945257 
L 90.123536 103.219132 
L 90.172747 103.029504 
L 90.468008 101.846339 
L 90.517219 102.098284 
L 90.566429 101.865296 
L 90.615639 101.883179 
L 90.76327 101.454401 
L 90.910901 102.029419 
L 91.058532 101.535414 
L 91.156953 102.114412 
L 91.206163 101.850386 
L 91.255374 101.953476 
L 91.304584 101.671266 
L 91.353794 101.798891 
L 91.599846 102.75891 
L 92.091949 101.007375 
L 92.141159 101.150373 
L 92.23958 101.614055 
L 92.28879 101.375009 
L 92.436421 100.794441 
L 92.682473 99.950943 
L 92.731683 100.040638 
L 92.928525 99.376428 
L 92.977735 99.696858 
L 93.026945 99.561956 
L 93.125366 99.157708 
L 93.223787 99.765702 
L 93.272997 99.579392 
L 93.371418 99.708175 
L 93.420628 99.654329 
L 93.469838 99.638773 
L 93.617469 100.254447 
L 93.66668 100.057 
L 93.71589 99.811894 
L 93.81431 100.318085 
L 93.863521 100.206042 
L 94.109572 99.360774 
L 94.207993 99.884803 
L 94.257203 99.704069 
L 94.306414 99.704622 
L 94.404834 100.111084 
L 94.552465 99.464506 
L 94.601676 99.627572 
L 94.749307 100.241657 
L 94.847727 100.058166 
L 94.896938 100.150915 
L 94.995358 100.891136 
L 95.044569 100.726904 
L 95.093779 100.552817 
L 95.142989 100.603902 
L 95.1922 100.63119 
L 95.24141 100.421718 
L 95.29062 100.560666 
L 95.339831 100.549823 
L 95.635092 99.633473 
L 95.684303 99.685706 
L 95.782723 99.411527 
L 95.881144 99.857486 
L 95.930354 99.650749 
L 96.077985 99.218953 
L 96.127196 99.263921 
L 96.176406 99.494902 
L 96.225616 99.319593 
L 96.520878 98.729187 
L 96.619299 98.83727 
L 96.81614 98.51656 
L 96.865351 98.538095 
L 96.914561 98.970207 
L 96.963771 98.781869 
L 97.062192 98.459626 
L 97.111402 98.577439 
L 97.160612 98.781192 
L 97.209823 98.586512 
L 97.259033 98.593087 
L 97.308243 98.73978 
L 97.357454 98.604079 
L 97.406664 98.615366 
L 97.652716 98.036157 
L 97.701926 98.365278 
L 97.751136 98.219598 
L 97.898767 97.788826 
L 97.997188 97.86984 
L 98.046398 97.98768 
L 98.095609 97.856149 
L 98.24324 97.443297 
L 98.29245 97.466296 
L 98.34166 97.782219 
L 98.390871 97.657243 
L 98.489291 97.374696 
L 98.538502 97.692819 
L 98.587712 97.573433 
L 98.784553 97.039787 
L 98.833763 97.240249 
L 98.882974 97.417819 
L 98.932184 97.284077 
L 99.178236 96.76206 
L 99.227446 96.814782 
L 99.276656 96.672406 
L 99.325867 96.782717 
L 99.473498 96.852195 
L 99.670339 97.49867 
L 100.113232 96.407971 
L 100.408494 96.030194 
L 100.506914 96.277481 
L 100.556125 96.181929 
L 100.900597 95.600162 
L 100.949807 95.481852 
L 100.999018 95.525959 
L 101.146649 95.496328 
L 101.491121 94.81669 
L 101.687962 95.417058 
L 101.884804 95.1219 
L 101.934014 95.156264 
L 101.983224 95.033568 
L 102.081645 95.312672 
L 102.130855 95.225336 
L 102.278486 94.830331 
L 102.327696 94.927124 
L 102.426117 95.100227 
L 102.475327 94.983544 
L 102.672169 94.556306 
L 102.8198 94.844096 
L 102.91822 94.951875 
L 102.967431 94.836206 
L 103.115062 95.15268 
L 103.213482 94.907966 
L 103.311903 95.456924 
L 103.361113 95.357165 
L 103.557955 95.092252 
L 103.754796 95.094848 
L 103.853216 94.866088 
L 103.951637 95.201894 
L 104.44374 94.316299 
L 104.492951 94.645262 
L 104.542161 94.535553 
L 104.689792 94.399477 
L 104.739002 94.455474 
L 104.837423 94.738964 
L 104.886633 94.639752 
L 104.985054 94.411606 
L 105.034264 94.449595 
L 105.083475 94.576113 
L 105.132685 94.478113 
L 105.378737 94.188751 
L 105.427947 94.258872 
L 105.723209 93.766897 
L 105.92005 93.365778 
L 105.96926 93.410389 
L 106.018471 93.573558 
L 106.067681 93.46432 
L 106.313733 93.212214 
L 106.412153 93.482385 
L 106.510574 93.279243 
L 106.608995 93.074703 
L 106.658205 93.205798 
L 106.953467 92.610312 
L 107.002677 92.812447 
L 107.101098 92.756559 
L 107.543991 92.327721 
L 107.642411 92.248317 
L 107.839253 92.039583 
L 107.888463 92.100898 
L 107.937673 92.019913 
L 107.986884 91.925947 
L 108.036094 92.003167 
L 108.134515 92.156596 
L 108.183725 92.047305 
L 108.331356 91.794811 
L 108.429777 92.320946 
L 108.478987 92.230698 
L 108.528197 92.261598 
L 108.675828 92.436771 
L 108.97109 91.931125 
L 109.0203 92.180536 
L 109.069511 92.071761 
L 109.266352 91.8166 
L 109.561614 92.134767 
L 109.807666 91.819802 
L 109.906086 91.976402 
L 109.955297 91.895822 
L 110.39819 91.3464 
L 110.49661 91.566684 
L 110.54582 91.47731 
L 110.841082 91.037843 
L 110.939503 91.157378 
L 111.136344 91.013099 
L 111.283975 91.105775 
L 111.579237 90.777744 
L 111.92371 90.521307 
L 111.97292 90.579804 
L 112.02213 90.505053 
L 112.169761 90.440644 
L 112.317392 90.323133 
L 112.366602 90.410826 
L 112.415813 90.330548 
L 112.563444 90.258262 
L 112.760285 89.965041 
L 112.809495 90.035913 
L 112.858706 89.982363 
L 113.153968 89.708063 
L 113.252388 89.909986 
L 113.301599 89.822774 
L 114.039753 89.004799 
L 114.088964 89.131897 
L 114.138174 89.061493 
L 114.335015 88.83034 
L 114.384226 88.905781 
L 114.433436 88.862856 
L 114.531857 88.714181 
L 114.581067 88.91107 
L 114.630277 88.853126 
L 114.925539 88.515457 
L 115.02396 88.710669 
L 115.07317 88.653686 
L 115.270012 88.463676 
L 115.319222 88.653697 
L 115.368432 88.57349 
L 115.663694 88.247253 
L 115.712904 88.366697 
L 115.762115 88.298476 
L 115.909746 88.269871 
L 116.54948 87.62609 
L 116.59869 87.755867 
L 116.647901 87.690961 
L 117.287635 86.856338 
L 117.336845 86.951656 
L 117.386055 87.040815 
L 117.435266 86.974451 
L 117.484476 86.907355 
L 117.533686 86.974485 
L 117.582897 87.109312 
L 117.681317 87.069722 
L 117.779738 86.932731 
L 117.828948 86.98717 
L 117.976579 87.104976 
L 118.12421 87.047855 
L 118.321052 87.123902 
L 118.567103 86.8844 
L 118.616314 86.930778 
L 118.813155 86.823154 
L 118.960786 86.9483 
L 119.009996 86.882903 
L 119.55131 86.297392 
L 119.748151 86.353812 
L 119.895782 86.532979 
L 119.994203 86.412156 
L 120.043413 86.646589 
L 120.141834 86.614767 
L 120.289465 86.802626 
L 120.732357 86.410857 
L 120.781568 86.488992 
L 120.830778 86.444222 
L 121.519723 86.032315 
L 121.667354 86.153085 
L 121.962616 85.993153 
L 122.011826 86.128042 
L 122.061036 86.079754 
L 122.257878 85.898704 
L 122.307088 86.02678 
L 122.356298 85.987632 
L 122.897612 85.667027 
L 123.143663 85.57687 
L 123.291294 85.895241 
L 123.340505 85.851298 
L 123.635767 85.621864 
L 123.684977 85.713163 
L 123.734187 85.683633 
L 123.783398 85.654915 
L 123.832608 85.822769 
L 123.931029 85.764509 
L 124.17708 85.598252 
L 124.22629 85.668589 
L 127.523382 84.135783 
L 128.113906 84.008651 
L 128.606009 83.843175 
L 129.885478 83.45305 
L 132.345994 83.177974 
L 134.708089 83.055437 
L 140.9578 82.903332 
L 146.567777 82.930365 
L 147.059881 83.028084 
L 147.798035 83.133563 
L 150.160131 83.224986 
L 150.455393 83.246339 
L 152.473016 83.338845 
L 152.719068 83.367301 
L 154.933532 83.476444 
L 155.228794 83.540412 
L 156.11458 83.64352 
L 156.655894 83.771342 
L 158.230624 83.863616 
L 158.525886 83.920383 
L 160.051406 84.026889 
L 160.543509 84.119052 
L 161.183243 84.189922 
L 161.429295 84.289106 
L 163.299287 84.389702 
L 163.545339 84.418018 
L 164.874018 84.524172 
L 165.120069 84.552471 
L 167.285324 84.643015 
L 167.580586 84.734915 
L 169.204526 84.842301 
L 169.401367 84.877618 
L 170.926888 84.966528 
L 171.222149 85.02299 
L 171.960304 85.123834 
L 172.550828 85.187305 
L 174.3224 85.297243 
L 174.519241 85.332479 
L 176.635285 85.434575 
L 176.881337 85.462746 
L 179.391063 85.553422 
L 179.735535 85.595649 
L 182.491314 85.696148 
L 182.934206 85.773505 
L 185.640774 85.868846 
L 185.985247 85.911004 
L 187.855239 86.007898 
L 188.150501 86.028966 
L 190.561807 86.132825 
L 191.201541 86.200825 
L 193.809688 86.292024 
L 194.10495 86.313065 
L 197.451252 86.398393 
L 197.697304 86.458558 
L 200.502292 86.559268 
L 201.289657 86.67831 
L 205.472535 86.761973 
L 205.718586 86.78996 
L 207.244106 86.887889 
L 207.490158 86.915862 
L 210.590408 87.003806 
L 210.83646 87.031764 
L 213.100135 87.122603 
L 213.346186 87.150547 
L 215.511441 87.239124 
L 215.708282 87.271077 
L 217.430643 87.371329 
L 217.676695 87.455046 
L 219.645108 87.555938 
L 219.94037 87.674429 
L 223.532723 87.763019 
L 223.729565 87.797839 
L 225.697978 87.895308 
L 226.190081 87.992737 
L 228.010863 88.083172 
L 228.355335 88.117946 
L 230.5698 88.221485 
L 230.865062 88.242338 
L 232.439792 88.318781 
L 232.636633 88.360468 
L 236.622669 88.457708 
L 236.819511 88.492427 
L 243.708956 88.602872 
L 243.955008 88.630626 
L 249.860247 88.737937 
L 250.204719 88.772602 
L 251.188925 88.878941 
L 251.484187 88.899727 
L 254.584438 88.996703 
L 254.8797 89.017478 
L 257.389426 89.121447 
L 257.832319 89.135286 
L 262.999403 89.239862 
L 263.294665 89.288266 
L 266.247284 89.375838 
L 266.493336 89.403481 
L 268.314118 89.491001 
L 268.510959 89.525537 
L 272.250944 89.629116 
L 272.496995 89.653653 
L 273.874884 89.7426 
L 277.860921 89.790895 
L 277.860921 89.790895 
" clip-path="url(#p6022c4ea06)" style="fill: none; stroke: #ff7f0e; stroke-width: 1.8; stroke-linecap: square"/>
   </g>
   <g id="line2d_31">
    <path d="M 77.427273 249.758182 
L 77.574904 87.103223 
L 77.673324 68.075975 
L 77.722535 72.083051 
L 77.919376 59.493706 
L 78.017797 71.288298 
L 78.116217 68.141657 
L 78.214638 69.813179 
L 78.411479 87.224505 
L 78.46069 85.348794 
L 78.5099 86.428654 
L 78.55911 86.13033 
L 78.657531 82.037474 
L 78.706741 83.486598 
L 78.805162 86.451526 
L 78.854372 84.215312 
L 78.903582 84.453069 
L 78.952793 86.322799 
L 79.100424 94.139815 
L 79.297265 88.497805 
L 79.395686 91.466846 
L 79.444896 90.493033 
L 79.494106 89.574903 
L 79.543317 91.836337 
L 79.592527 90.383292 
L 79.641737 91.059243 
L 79.740158 89.013919 
L 79.789368 91.019327 
L 79.838579 89.966979 
L 79.887789 88.844035 
L 79.98621 92.054034 
L 80.03542 91.30657 
L 80.08463 93.223727 
L 80.133841 92.059844 
L 80.183051 91.555741 
L 80.330682 96.498683 
L 80.379892 95.396468 
L 80.429102 95.583838 
L 80.478313 95.71607 
L 80.675154 97.557136 
L 80.773575 95.832136 
L 80.921206 99.111074 
L 80.970416 98.086734 
L 81.019626 98.368385 
L 81.068837 99.664812 
L 81.118047 98.786817 
L 81.314888 95.844068 
L 81.364099 95.928873 
L 81.56094 101.040161 
L 81.659361 99.410357 
L 81.708571 99.663859 
L 81.757781 99.646664 
L 82.102253 103.735662 
L 82.299095 101.035845 
L 82.348305 101.58864 
L 82.397515 102.357861 
L 82.446726 101.941283 
L 82.495936 101.974788 
L 82.545146 101.058497 
L 82.594357 101.658203 
L 82.889619 104.009825 
L 82.938829 103.529756 
L 83.08646 101.975203 
L 83.13567 102.488144 
L 83.184881 102.12865 
L 83.234091 102.105077 
L 83.381722 100.931317 
L 83.430932 101.430422 
L 83.529353 100.759834 
L 83.578563 100.897816 
L 83.676984 99.961696 
L 83.726194 100.083512 
L 83.873825 101.897935 
L 84.070666 101.065968 
L 84.119877 101.226969 
L 84.169087 101.207687 
L 84.267508 102.661928 
L 84.316718 102.264116 
L 84.415139 101.411746 
L 84.56277 102.330391 
L 84.759611 104.194032 
L 84.808821 103.836371 
L 85.005663 102.704197 
L 85.054873 103.075578 
L 85.104083 103.660671 
L 85.153294 103.379875 
L 85.350135 102.119583 
L 85.399345 102.27433 
L 85.448555 102.015785 
L 85.645397 103.44744 
L 85.989869 101.69893 
L 86.039079 103.087668 
L 86.08829 102.660338 
L 86.235921 101.860044 
L 86.285131 101.993883 
L 86.334341 101.859215 
L 86.432762 101.53815 
L 86.481972 101.559444 
L 86.629603 102.42919 
L 86.728024 102.190914 
L 86.924865 101.267604 
L 86.974076 100.864403 
L 87.170917 102.750616 
L 87.318548 102.080885 
L 87.416968 102.539603 
L 87.466179 102.334397 
L 87.564599 102.450315 
L 87.810651 101.229465 
L 87.958282 101.745659 
L 88.204334 100.657455 
L 88.253544 101.562307 
L 88.351965 101.32843 
L 88.450385 101.132267 
L 88.499596 101.811925 
L 88.548806 101.505712 
L 88.598016 101.396439 
L 88.647227 102.171612 
L 88.745647 102.14745 
L 88.794857 101.797874 
L 88.844068 102.188371 
L 88.893278 102.625874 
L 88.942488 102.297253 
L 89.13933 101.786825 
L 89.18854 101.955404 
L 89.23775 101.713281 
L 89.286961 102.586294 
L 89.336171 102.473486 
L 89.533012 101.682978 
L 89.582223 102.159899 
L 89.631433 101.92533 
L 89.729854 101.661459 
L 89.828274 102.453525 
L 89.877485 102.209193 
L 90.074326 101.528031 
L 90.123536 101.649839 
L 90.172747 102.117447 
L 90.221957 101.832625 
L 90.369588 101.272835 
L 90.468008 101.673453 
L 90.71406 100.468064 
L 90.76327 100.706227 
L 90.812481 100.545897 
L 90.861691 100.652866 
L 90.960112 100.94959 
L 91.009322 100.649592 
L 91.058532 101.086912 
L 91.107743 100.933521 
L 91.156953 100.708787 
L 91.206163 100.900008 
L 91.255374 100.9078 
L 91.304584 101.03335 
L 91.353794 100.938992 
L 91.501425 100.270693 
L 91.550636 100.376974 
L 91.649056 100.549203 
L 91.698267 100.455207 
L 91.747477 100.334133 
L 91.993529 101.656921 
L 92.19037 100.931543 
L 92.23958 101.121688 
L 92.28879 101.030387 
L 92.436421 100.925935 
L 92.633263 100.278041 
L 92.682473 100.690709 
L 92.731683 100.476869 
L 92.780894 100.472243 
L 92.830104 100.704788 
L 92.879314 100.658532 
L 93.223787 99.580135 
L 93.272997 99.408244 
L 93.322207 99.762633 
L 93.371418 99.534374 
L 93.66668 98.635643 
L 93.71589 98.58988 
L 93.81431 98.333524 
L 93.912731 98.652449 
L 94.158783 99.701518 
L 94.306414 100.082099 
L 94.454045 99.757287 
L 94.503255 99.82844 
L 94.552465 99.706564 
L 94.650886 99.331387 
L 94.749307 99.43453 
L 95.1922 98.733956 
L 95.438251 99.341764 
L 95.487461 99.155675 
L 95.536672 99.360253 
L 95.585882 99.429579 
L 95.635092 99.336194 
L 95.684303 99.225025 
L 95.733513 99.399927 
L 95.782723 99.196067 
L 95.831934 99.309141 
L 95.881144 99.233434 
L 96.028775 98.823246 
L 96.127196 99.308135 
L 96.176406 99.137276 
L 96.225616 99.05625 
L 96.324037 99.296173 
L 96.422458 99.003572 
L 96.471668 99.173723 
L 96.520878 99.025648 
L 96.76693 98.629785 
L 96.81614 98.63497 
L 96.963771 98.123189 
L 97.062192 98.539949 
L 97.406664 97.710231 
L 97.554295 97.903339 
L 97.652716 97.683071 
L 97.701926 97.746833 
L 97.751136 97.722843 
L 97.800347 97.908457 
L 97.849557 97.744281 
L 98.046398 97.283984 
L 98.095609 97.350139 
L 98.144819 97.723241 
L 98.194029 97.549268 
L 98.440081 97.068935 
L 98.538502 97.201878 
L 98.587712 97.03049 
L 98.636922 97.263898 
L 98.686133 97.110262 
L 98.833763 96.727879 
L 98.981394 96.882751 
L 99.079815 96.678905 
L 99.129025 96.744176 
L 99.325867 96.666201 
L 99.473498 96.786887 
L 99.86718 95.894236 
L 99.965601 96.06423 
L 100.064022 95.821402 
L 100.211653 96.057604 
L 100.260863 96.054581 
L 100.457704 95.52651 
L 100.506914 95.6136 
L 100.556125 95.630718 
L 100.605335 95.523931 
L 100.654545 95.966398 
L 100.703756 95.885559 
L 100.900597 95.495298 
L 100.949807 95.645159 
L 100.999018 95.520822 
L 101.34349 94.956709 
L 101.441911 95.055466 
L 101.491121 94.932592 
L 101.540331 95.264407 
L 101.589542 95.154106 
L 101.983224 94.470061 
L 102.180065 94.908181 
L 102.229276 95.072411 
L 102.278486 95.021905 
L 102.327696 94.890994 
L 102.376907 95.120869 
L 102.426117 95.103636 
L 102.524538 94.851723 
L 102.622958 95.339105 
L 102.672169 95.319485 
L 102.967431 94.709725 
L 103.016641 94.738743 
L 103.164272 95.095786 
L 103.213482 94.979455 
L 103.262693 95.064204 
L 103.311903 95.09217 
L 103.361113 94.976542 
L 103.410324 95.2194 
L 103.459534 95.119322 
L 103.656375 94.693961 
L 103.754796 95.142048 
L 103.804006 94.994061 
L 103.853216 95.122623 
L 103.902427 95.003635 
L 104.000847 94.783927 
L 104.050058 94.934236 
L 104.148478 94.864187 
L 104.591371 93.988061 
L 104.837423 94.494125 
L 104.985054 94.640861 
L 105.329526 94.122935 
L 105.427947 94.456322 
L 105.477157 94.336354 
L 105.624788 94.104878 
L 105.821629 94.62038 
L 106.166102 94.10829 
L 106.215312 94.197447 
L 106.264522 94.108471 
L 106.412153 93.895661 
L 106.461364 93.927246 
L 106.658205 94.50165 
L 106.756626 94.558302 
L 106.805836 94.657404 
L 106.855046 94.572934 
L 106.904257 94.473574 
L 106.953467 94.634021 
L 107.002677 94.543284 
L 107.248729 94.124225 
L 107.593201 93.65643 
L 107.691622 93.536441 
L 107.937673 93.301819 
L 107.986884 93.310365 
L 108.232935 92.926234 
L 108.282146 93.240934 
L 108.331356 93.175039 
L 108.626618 92.843168 
L 108.675828 93.087259 
L 108.725039 93.034689 
L 108.774249 92.908302 
L 108.823459 93.025448 
L 108.92188 92.909993 
L 109.0203 92.78499 
L 109.069511 92.86692 
L 109.118721 93.058343 
L 109.167931 92.97463 
L 109.364773 92.678302 
L 109.413983 92.90861 
L 109.463193 92.804726 
L 109.807666 92.351487 
L 109.955297 92.558326 
L 110.004507 92.578601 
L 110.102928 92.368926 
L 110.152138 92.514704 
L 110.250559 92.355727 
L 110.39819 92.628323 
L 110.4474 92.799622 
L 110.49661 92.722578 
L 110.54582 92.61825 
L 110.595031 92.696064 
L 110.693451 92.835826 
L 110.791872 92.66592 
L 110.841082 92.858486 
L 110.890293 92.779499 
L 110.988713 92.627889 
L 111.037924 92.806566 
L 111.087134 92.739324 
L 111.136344 92.679568 
L 111.283975 93.170768 
L 111.431606 92.947643 
L 111.480817 93.069193 
L 111.628448 93.16618 
L 111.825289 92.992366 
L 111.92371 92.891696 
L 111.97292 93.018326 
L 112.02213 92.926364 
L 112.218971 92.641234 
L 112.268182 92.710532 
L 112.317392 92.610207 
L 112.612654 92.126006 
L 112.711075 92.079329 
L 112.809495 91.937254 
L 112.858706 92.142213 
L 112.907916 92.041893 
L 113.350809 91.452662 
L 113.842912 90.831748 
L 113.990543 91.215214 
L 114.039753 91.136006 
L 114.187384 90.897211 
L 114.236595 91.086729 
L 114.335015 91.058569 
L 114.482646 91.114361 
L 114.531857 91.012493 
L 114.581067 91.152176 
L 114.679488 91.179473 
L 114.777908 91.014293 
L 114.827119 91.14775 
L 114.876329 91.071684 
L 115.171591 90.747345 
L 115.270012 91.033062 
L 115.319222 90.967866 
L 115.565273 90.677894 
L 115.614484 90.766467 
L 116.008166 90.45564 
L 116.057377 90.650314 
L 116.106587 90.566672 
L 116.205008 90.505591 
L 116.401849 90.359443 
L 116.647901 90.03614 
L 116.697111 90.141365 
L 116.893952 90.144543 
L 117.140004 89.766673 
L 117.238424 90.053525 
L 117.287635 89.999659 
L 117.336845 89.919631 
L 117.386055 89.963087 
L 117.435266 90.098129 
L 117.484476 90.068456 
L 117.681317 89.870707 
L 117.927369 90.144215 
L 118.222631 89.735278 
L 118.271841 89.818252 
L 118.517893 89.700931 
L 118.567103 89.927839 
L 118.665524 89.877471 
L 118.813155 89.957603 
L 118.960786 89.878573 
L 119.157627 89.84533 
L 119.305258 89.692554 
L 119.354468 89.742226 
L 119.452889 89.854299 
L 119.502099 89.794519 
L 119.846572 89.433375 
L 119.895782 89.566246 
L 119.944992 89.509516 
L 120.240254 89.3055 
L 120.289465 89.436368 
L 120.338675 89.37917 
L 120.584727 89.284133 
L 120.978409 89.005313 
L 121.322881 89.440714 
L 121.372092 89.381785 
L 121.519723 89.242736 
L 121.568933 89.29979 
L 121.618143 89.364943 
L 121.667354 89.313611 
L 122.60235 88.771691 
L 122.65156 88.932895 
L 122.70077 88.88998 
L 122.996032 88.702068 
L 123.143663 88.693876 
L 123.389715 88.571667 
L 123.488136 88.613009 
L 123.635767 88.532238 
L 123.734187 88.590681 
L 123.783398 88.652759 
L 123.832608 88.589684 
L 124.078659 88.319698 
L 124.12787 88.451175 
L 124.17708 88.404135 
L 124.472342 88.195219 
L 124.521552 88.301604 
L 124.570763 88.257898 
L 124.866025 88.072194 
L 125.062866 88.131574 
L 125.210497 88.034088 
L 125.259707 88.096204 
L 125.308918 88.04292 
L 125.456549 88.037612 
L 126.096283 87.569639 
L 126.194703 87.537101 
L 126.588386 87.226501 
L 127.326541 86.773016 
L 127.424961 86.763171 
L 128.163116 86.411326 
L 128.310747 86.4618 
L 129.294954 85.811412 
L 129.344164 85.933733 
L 129.393374 85.896736 
L 129.639426 85.733433 
L 129.688636 85.914748 
L 129.787057 85.872924 
L 131.115736 85.362675 
L 131.312577 85.47882 
L 131.607839 85.400601 
L 131.657049 85.537575 
L 131.75547 85.496953 
L 132.001522 85.44503 
L 132.395204 85.379283 
L 132.542835 85.387919 
L 132.838097 85.442316 
L 132.985728 85.448713 
L 133.133359 85.403823 
L 133.28099 85.552041 
L 133.773093 85.431427 
L 134.019145 85.530729 
L 134.068355 85.52115 
L 134.215986 85.632473 
L 134.462038 85.609578 
L 134.609669 85.641718 
L 134.80651 85.651154 
L 134.954141 85.675407 
L 135.643086 85.512523 
L 135.790716 85.538177 
L 136.38124 85.445949 
L 136.528871 85.489494 
L 138.300443 85.234014 
L 138.497284 85.245062 
L 140.170435 84.985865 
L 145.977253 84.618173 
L 146.174095 84.647617 
L 155.474846 84.473114 
L 172.698459 84.322807 
L 186.624981 84.422812 
L 186.821822 84.460104 
L 193.465216 84.562259 
L 193.858898 84.577167 
L 200.108609 84.673302 
L 200.502292 84.738857 
L 203.012018 84.843832 
L 203.405701 84.858719 
L 204.882011 84.962908 
L 205.177273 84.985228 
L 206.112269 85.014985 
L 210.83646 85.081925 
L 211.033301 85.126542 
L 218.41485 85.230615 
L 219.202215 85.238048 
L 235.835304 85.344864 
L 236.228987 85.359717 
L 245.972631 85.445039 
L 246.218683 85.474729 
L 253.846283 85.58225 
L 254.732069 85.608134 
L 257.340216 85.704532 
L 257.586267 85.734186 
L 263.442296 85.843072 
L 263.835978 85.85789 
L 272.300154 85.951684 
L 272.546206 85.981299 
L 274.71146 86.065543 
L 274.908301 86.10254 
L 281.846957 86.189526 
L 282.043798 86.226497 
L 288.34272 86.324618 
L 288.637982 86.346786 
L 289.91745 86.442825 
L 290.114291 86.479753 
L 295.232165 86.581581 
L 295.527427 86.603725 
L 299.611884 86.707467 
L 300.005566 86.719132 
L 303.843971 86.811907 
L 304.090023 86.841395 
L 309.404738 86.950012 
L 309.7 86.979478 
L 314.32577 87.073663 
L 314.621032 87.09575 
L 320.181799 87.191439 
L 320.477061 87.220874 
L 325.840986 87.331223 
L 326.087038 87.360641 
L 331.844646 87.453098 
L 332.090697 87.497199 
L 335.240158 87.600068 
L 335.48621 87.629451 
L 342.474076 87.726768 
L 342.670917 87.763472 
L 351.922458 87.860707 
L 352.168509 87.890052 
L 357.089542 87.991152 
L 357.384804 88.013149 
L 359.107165 88.040106 
L 365.406086 88.137177 
L 365.799769 88.15183 
L 369.04765 88.203108 
L 369.04765 88.203108 
" clip-path="url(#p6022c4ea06)" style="fill: none; stroke: #2ca02c; stroke-width: 1.8; stroke-linecap: square"/>
   </g>
   <g id="line2d_32">
    <path d="M 77.427273 36.121818 
L 77.525693 36.121818 
L 77.574904 85.38263 
L 77.624114 78.22857 
L 77.722535 64.706965 
L 77.870166 99.397649 
L 77.919376 107.400868 
L 77.968586 99.640168 
L 78.017797 92.888966 
L 78.067007 99.293861 
L 78.165428 90.964292 
L 78.263848 103.021404 
L 78.313059 99.917475 
L 78.362269 97.610876 
L 78.411479 100.136292 
L 78.46069 106.636376 
L 78.5099 102.615064 
L 78.755951 91.127859 
L 78.805162 97.760718 
L 78.854372 96.198793 
L 79.346475 80.690615 
L 79.592527 89.197796 
L 79.789368 85.311694 
L 79.838579 88.884016 
L 79.887789 87.598084 
L 79.936999 87.70249 
L 80.330682 80.204468 
L 80.379892 86.309203 
L 80.478313 84.746835 
L 80.527523 86.40558 
L 80.576733 85.588773 
L 80.822785 82.422044 
L 80.921206 84.990167 
L 80.970416 84.254085 
L 81.51173 77.981075 
L 81.61015 80.189482 
L 81.659361 79.888551 
L 81.806992 78.583704 
L 82.003833 76.927809 
L 82.053043 78.075536 
L 82.102253 77.591423 
L 82.200674 76.858435 
L 82.249884 78.527741 
L 82.299095 78.119915 
L 82.446726 76.61562 
L 82.495936 77.582245 
L 82.545146 77.161888 
L 82.692777 75.971088 
L 82.938829 81.492341 
L 83.13567 79.860928 
L 83.184881 80.867253 
L 83.234091 80.539115 
L 83.332512 79.88361 
L 83.381722 80.419036 
L 83.430932 80.103873 
L 83.726194 78.217653 
L 83.923035 76.900128 
L 83.972246 77.446729 
L 84.021456 77.21144 
L 84.169087 76.280119 
L 84.218297 76.763079 
L 84.267508 76.496633 
L 84.316718 76.457364 
L 84.907242 73.103854 
L 85.005663 75.467777 
L 85.054873 75.139543 
L 85.153294 74.630137 
L 85.202504 75.494305 
L 85.251714 75.201641 
L 85.448555 74.336159 
L 85.497766 75.035105 
L 85.546976 74.829284 
L 85.793028 73.914868 
L 85.891448 73.500056 
L 85.940659 75.231186 
L 86.039079 74.796777 
L 86.285131 73.708868 
L 86.334341 74.113396 
L 86.383552 73.925784 
L 86.481972 73.559877 
L 86.531183 75.345472 
L 86.580393 75.096746 
L 86.974076 73.433045 
L 87.023286 75.290189 
L 87.121706 75.003555 
L 87.416968 73.92221 
L 87.515389 75.989545 
L 87.564599 75.746979 
L 87.66302 75.518015 
L 87.71223 76.151071 
L 87.761441 75.911782 
L 88.844068 72.32035 
L 88.991699 71.884922 
L 89.040909 72.120279 
L 89.090119 71.997085 
L 89.286961 71.360462 
L 89.336171 72.157368 
L 89.385381 71.995448 
L 89.729854 71.011572 
L 90.025116 70.29071 
L 90.074326 70.594495 
L 90.123536 70.448135 
L 90.271167 70.092538 
L 90.369588 71.461837 
L 90.418798 71.317706 
L 90.910901 69.975757 
L 90.960112 70.646614 
L 91.009322 70.535739 
L 91.206163 70.092392 
L 91.353794 70.532233 
L 91.698267 69.593361 
L 91.747477 70.241325 
L 91.796687 70.157866 
L 91.845898 70.024742 
L 91.895108 70.462573 
L 91.944318 70.292224 
L 92.485632 69.016116 
L 92.534842 69.221511 
L 92.584052 69.134921 
L 92.780894 68.642276 
L 92.830104 68.903994 
L 92.879314 68.784914 
L 93.125366 68.268062 
L 93.174576 68.488127 
L 93.223787 68.403235 
L 93.272997 68.292605 
L 93.469838 69.552157 
L 93.519049 69.433988 
L 93.961941 68.476625 
L 94.158783 69.020416 
L 94.207993 68.948585 
L 94.454045 68.471811 
L 94.503255 68.369465 
L 94.552465 68.87133 
L 94.601676 68.785841 
L 95.093779 67.885604 
L 95.142989 68.106612 
L 95.1922 68.00128 
L 95.389041 67.682972 
L 95.438251 68.166187 
L 95.487461 68.070426 
L 95.733513 67.66304 
L 95.782723 67.838126 
L 95.831934 67.727814 
L 95.881144 67.652614 
L 95.930354 68.1984 
L 95.979565 68.133576 
L 96.914561 66.514188 
L 96.963771 66.836471 
L 97.012982 66.774944 
L 97.259033 66.351064 
L 97.308243 67.075814 
L 97.406664 66.910903 
L 97.554295 66.675776 
L 97.603505 67.069997 
L 97.652716 67.02262 
L 97.849557 66.70045 
L 97.997188 66.994671 
L 98.046398 66.940193 
L 98.095609 67.084291 
L 98.144819 66.994667 
L 98.29245 66.726219 
L 98.34166 67.049699 
L 98.390871 66.985439 
L 98.440081 66.90283 
L 98.489291 67.070604 
L 98.538502 66.989482 
L 98.932184 66.633561 
L 98.981394 66.975496 
L 99.030605 66.936487 
L 99.424287 66.401789 
L 99.473498 66.617341 
L 99.522708 66.545693 
L 99.621129 66.440719 
L 99.670339 66.626293 
L 99.719549 66.541541 
L 99.81797 66.40174 
L 99.86718 66.801009 
L 99.916391 66.727756 
L 100.310073 66.267819 
L 100.359284 66.768119 
L 100.408494 66.679416 
L 100.556125 66.473629 
L 100.605335 67.162389 
L 100.703756 67.03847 
L 100.752966 66.969651 
L 100.802176 67.267239 
L 100.851387 67.193406 
L 100.999018 67.019298 
L 101.146649 67.448423 
L 101.34349 67.170542 
L 101.491121 67.667231 
L 101.589542 67.511742 
L 101.737173 68.461927 
L 101.835593 68.319916 
L 101.934014 68.161339 
L 101.983224 68.462861 
L 102.032435 68.405609 
L 102.130855 68.309456 
L 102.180065 68.499279 
L 102.229276 68.423417 
L 102.426117 68.185129 
L 102.475327 68.310203 
L 102.524538 68.233351 
L 102.573748 68.177688 
L 102.672169 68.54445 
L 102.721379 68.482841 
L 102.770589 68.523384 
L 102.8198 68.453992 
L 103.262693 67.937286 
L 103.311903 68.498332 
L 103.410324 68.36734 
L 103.607165 68.124012 
L 103.656375 68.172808 
L 103.705586 68.377153 
L 103.754796 68.316116 
L 103.804006 68.234357 
L 103.853216 68.420025 
L 103.902427 68.361514 
L 103.951637 68.290044 
L 104.000847 68.376364 
L 104.050058 68.546498 
L 104.099268 68.48822 
L 104.542161 68.190128 
L 104.591371 68.519076 
L 104.640582 68.476927 
L 105.132685 67.895031 
L 105.181895 68.034174 
L 105.231106 67.96544 
L 105.772419 67.346909 
L 105.821629 67.519869 
L 105.87084 67.471817 
L 106.166102 67.141484 
L 106.215312 67.311328 
L 106.264522 67.261305 
L 106.855046 66.669544 
L 107.051888 66.457108 
L 107.101098 66.835842 
L 107.150308 66.781476 
L 107.297939 66.620452 
L 107.347149 66.871575 
L 107.39636 66.812056 
L 107.642411 66.565304 
L 107.691622 66.773853 
L 107.740832 66.73534 
L 107.839253 66.623105 
L 107.888463 66.787477 
L 107.937673 66.762865 
L 108.528197 66.333368 
L 108.577408 66.537231 
L 108.626618 66.483254 
L 109.561614 65.599099 
L 109.709245 66.030189 
L 109.758455 65.997468 
L 110.644241 65.248759 
L 110.693451 65.358409 
L 110.742662 65.294912 
L 110.890293 65.175024 
L 110.939503 65.454009 
L 111.037924 65.381362 
L 111.480817 64.998884 
L 111.776079 64.744129 
L 111.97292 65.110972 
L 112.02213 65.072332 
L 112.169761 64.943522 
L 112.218971 65.156644 
L 112.268182 65.110692 
L 112.366602 65.032683 
L 112.563444 65.543244 
L 112.612654 65.50697 
L 113.301599 65.166889 
L 113.400019 65.223355 
L 113.44923 65.184713 
L 113.49844 65.329602 
L 113.54765 65.283641 
L 113.793702 65.08039 
L 113.842912 65.462094 
L 113.941333 65.374427 
L 114.630277 64.821635 
L 114.679488 64.94446 
L 114.728698 64.897128 
L 114.876329 64.774654 
L 114.925539 65.093852 
L 115.02396 65.004383 
L 115.368432 64.757599 
L 115.614484 64.571236 
L 115.663694 64.719683 
L 115.762115 64.664572 
L 116.205008 64.341594 
L 117.189214 63.614636 
L 117.484476 63.382608 
L 117.533686 63.515699 
L 117.582897 63.489329 
L 118.075 63.171426 
L 118.12421 63.374004 
L 118.173421 63.334315 
L 118.567103 63.063813 
L 118.616314 63.442089 
L 118.714734 63.379657 
L 119.059206 63.263349 
L 119.108417 63.473003 
L 119.206837 63.412393 
L 119.305258 63.343285 
L 119.354468 63.541332 
L 119.452889 63.482682 
L 119.895782 63.197739 
L 119.944992 63.381721 
L 119.994203 63.346048 
L 120.141834 63.266409 
L 120.191044 63.489499 
L 120.289465 63.431502 
L 120.781568 63.153023 
L 120.830778 63.33269 
L 120.929199 63.283669 
L 121.17525 63.235713 
L 121.224461 63.397258 
L 121.322881 63.347401 
L 121.716564 63.207873 
L 121.814985 63.180339 
L 121.962616 63.368484 
L 122.208667 63.314957 
L 122.307088 63.356433 
L 122.60235 63.168045 
L 122.65156 63.242831 
L 122.996032 63.15635 
L 123.291294 63.173326 
L 123.340505 63.391322 
L 123.438925 63.334502 
L 123.488136 63.313656 
L 123.684977 63.552911 
L 123.980239 63.63909 
L 124.029449 63.62035 
L 124.12787 63.851447 
L 124.17708 63.821329 
L 124.423132 63.688732 
L 124.619973 64.042773 
L 124.767604 63.959309 
L 124.866025 64.253371 
L 124.915235 64.227569 
L 125.60418 64.008471 
L 125.65339 64.303431 
L 125.75181 64.268398 
L 126.145493 64.21608 
L 126.342334 64.317865 
L 126.489965 64.36529 
L 126.686807 64.470803 
L 126.982069 64.371712 
L 127.17891 64.590118 
L 127.474172 64.48497 
L 127.523382 64.71702 
L 127.621803 64.679268 
L 128.064696 64.651878 
L 128.212327 64.739561 
L 128.556799 64.763917 
L 128.70443 64.789734 
L 128.901271 64.821974 
L 129.147323 64.948977 
L 129.541005 64.912671 
L 129.688636 64.949475 
L 130.27916 64.871798 
L 130.525212 65.047639 
L 131.066525 65 
L 131.115736 65.210917 
L 131.214156 65.182232 
L 131.558629 65.082789 
L 131.75547 65.32041 
L 132.001522 65.367764 
L 132.345994 65.394216 
L 132.493625 65.411394 
L 132.641256 65.37067 
L 132.788887 65.434568 
L 132.936518 65.478765 
L 133.182569 65.609347 
L 133.723883 65.581172 
L 133.871514 65.608403 
L 135.643086 65.415151 
L 135.790716 65.469961 
L 136.33203 65.463109 
L 136.528871 65.672872 
L 138.202022 65.344466 
L 138.497284 65.521236 
L 138.792546 65.538919 
L 138.989388 65.645189 
L 139.038598 65.635385 
L 139.235439 65.851082 
L 140.219646 65.825816 
L 140.367277 65.857562 
L 140.564118 65.934118 
L 140.711749 66.051406 
L 140.810169 66.122296 
L 141.154642 66.348097 
L 141.253062 66.44116 
L 141.400693 66.463822 
L 141.646745 66.500789 
L 141.794376 66.560924 
L 141.942007 66.580399 
L 142.286479 66.578063 
L 142.48332 66.748762 
L 142.778582 66.783393 
L 142.975424 66.841721 
L 143.123055 66.862043 
L 143.270686 66.973734 
L 143.713579 67.002578 
L 145.43594 67.338355 
L 145.878833 67.348788 
L 146.666198 67.372539 
L 146.863039 67.456325 
L 147.551984 67.440715 
L 147.748825 67.563214 
L 148.733032 67.519199 
L 148.880663 67.603485 
L 149.569607 67.562005 
L 149.96329 67.710884 
L 150.209341 67.777195 
L 150.356972 67.812221 
L 150.553814 67.853443 
L 150.701445 67.889338 
L 150.799865 67.880458 
L 150.947496 68.107279 
L 151.291968 68.156851 
L 151.48881 68.228081 
L 151.784072 68.240701 
L 151.931703 68.278693 
L 152.226965 68.323427 
L 153.358802 68.215225 
L 153.506433 68.429528 
L 153.949326 68.442488 
L 154.096957 68.523834 
L 154.53985 68.597294 
L 154.835112 68.636862 
L 155.031953 68.704191 
L 155.278005 68.960731 
L 155.425636 68.946265 
L 155.573267 69.063667 
L 155.917739 69.204946 
L 156.11458 69.185899 
L 156.262211 69.321583 
L 156.459052 69.374249 
L 156.606683 69.403615 
L 158.132203 69.373458 
L 158.329045 69.456336 
L 159.017989 69.512013 
L 159.264041 69.683093 
L 159.706934 69.633875 
L 159.854565 69.72621 
L 161.773767 69.761835 
L 161.921398 69.884314 
L 162.11824 69.956996 
L 162.315081 69.984496 
L 162.708763 70.055377 
L 162.856394 70.169064 
L 163.250077 70.19858 
L 163.397708 70.282245 
L 163.594549 70.307813 
L 163.74218 70.383956 
L 164.135863 70.446021 
L 164.332704 70.46977 
L 164.578756 70.542887 
L 165.120069 70.706193 
L 165.858224 70.772064 
L 166.202696 70.893464 
L 166.990062 70.948199 
L 167.137693 71.007602 
L 167.728216 71.071799 
L 167.875847 71.141988 
L 168.171109 71.209684 
L 168.367951 71.233408 
L 168.515582 71.309758 
L 168.712423 71.413755 
L 168.909264 71.499952 
L 169.696629 71.839831 
L 169.942681 71.899139 
L 170.139522 72.06957 
L 170.631626 72.095723 
L 170.828467 72.277773 
L 171.074518 72.340345 
L 171.468201 72.403773 
L 172.206356 72.408546 
L 172.353987 72.444442 
L 172.944511 72.505195 
L 173.092142 72.609708 
L 173.584245 72.677071 
L 173.830297 72.913767 
L 174.076348 73.001292 
L 174.27319 73.015137 
L 177.963964 73.095391 
L 178.259226 73.234618 
L 178.357646 73.227146 
L 178.505277 73.331308 
L 179.194222 73.338694 
L 179.391063 73.376132 
L 179.883166 73.419225 
L 180.030797 73.503208 
L 182.589734 74.000876 
L 183.081837 74.080452 
L 183.327889 74.094114 
L 183.623151 74.1816 
L 184.705778 74.181184 
L 184.853409 74.251661 
L 185.247092 74.318826 
L 185.788405 74.343142 
L 186.132878 74.552323 
L 186.52656 74.59761 
L 186.723401 74.726061 
L 186.871032 74.794029 
L 187.018663 74.865143 
L 187.658398 74.875515 
L 187.806029 74.942273 
L 188.937866 74.941061 
L 189.134707 74.974395 
L 191.841275 74.969583 
L 192.087327 74.994761 
L 193.120743 75.046132 
L 193.268374 75.121152 
L 194.05574 75.187895 
L 194.252581 75.319635 
L 195.285998 75.423017 
L 195.482839 75.478098 
L 197.598883 75.523933 
L 197.746514 75.578357 
L 199.370455 75.663309 
L 199.567296 75.709617 
L 200.699133 75.715143 
L 200.846764 75.782182 
L 203.454911 75.870621 
L 203.602542 75.924825 
L 204.193066 75.98414 
L 204.340697 76.037733 
L 205.324904 76.115214 
L 205.817007 76.271292 
L 207.539368 76.356339 
L 207.78542 76.382211 
L 209.36015 76.464834 
L 209.556992 76.505118 
L 210.738039 76.570065 
L 210.934881 76.614237 
L 211.771456 76.687754 
L 211.968297 76.748427 
L 212.608032 76.832073 
L 212.854083 76.896141 
L 213.346186 76.988776 
L 213.739869 77.048211 
L 216.741699 77.145913 
L 217.381433 77.218263 
L 222.105624 77.317142 
L 222.400886 77.404065 
L 223.631144 77.481847 
L 223.827985 77.514196 
L 225.451926 77.590131 
L 225.796398 77.628683 
L 228.010863 77.705574 
L 228.256914 77.731629 
L 230.274538 77.833389 
L 230.520589 77.857689 
L 233.128737 77.926385 
L 233.571629 77.937079 
L 239.132396 78.039285 
L 239.378448 78.104754 
L 239.870551 78.202911 
L 240.313444 78.375474 
L 240.903968 78.451438 
L 241.19923 78.586706 
L 241.691333 78.877281 
L 242.675539 78.969731 
L 242.921591 78.996728 
L 244.545532 79.106116 
L 245.234476 79.185267 
L 245.578948 79.241797 
L 246.071052 79.387066 
L 247.30131 79.48808 
L 247.793413 79.576957 
L 248.679199 79.677879 
L 249.023671 79.711511 
L 249.811036 79.806388 
L 250.057088 79.833276 
L 251.336556 79.939709 
L 251.631818 79.991638 
L 252.911287 80.099752 
L 253.40339 80.129692 
L 254.239965 80.237031 
L 254.584438 80.277271 
L 258.767315 80.383455 
L 259.013367 80.443745 
L 260.784938 80.552726 
L 261.375462 80.602626 
L 262.359669 80.701163 
L 262.704141 80.732169 
L 266.247284 80.833658 
L 266.542546 80.89381 
L 269.839638 81.004326 
L 270.08569 81.031042 
L 275.351194 81.131117 
L 275.794087 81.197855 
L 279.829334 81.301516 
L 280.223016 81.352398 
L 283.323267 81.430545 
L 283.323267 81.430545 
" clip-path="url(#p6022c4ea06)" style="fill: none; stroke: #d62728; stroke-width: 1.8; stroke-linecap: square"/>
   </g>
   <g id="line2d_33">
    <path d="M 77.427273 148.957926 
L 77.624114 80.798624 
L 77.673324 82.489839 
L 77.722535 74.679183 
L 77.771745 93.695838 
L 77.820955 85.43866 
L 78.116217 67.891536 
L 78.55911 56.834485 
L 78.657531 54.768384 
L 78.805162 60.263204 
L 79.838579 49.586295 
L 80.527523 46.412342 
L 80.921206 45.23523 
L 81.413309 44.109515 
L 82.151464 42.811375 
L 83.184881 41.606271 
L 84.61198 40.508046 
L 87.71223 39.171615 
L 91.304584 38.373372 
L 94.503255 37.95051 
L 98.144819 37.627504 
L 105.575578 37.232679 
L 113.646071 36.984354 
L 124.078659 36.796112 
L 132.395204 36.81522 
L 132.592045 36.861902 
L 133.477831 36.916353 
L 133.625462 36.99407 
L 133.920724 37.056265 
L 134.117565 37.188381 
L 134.7573 37.289366 
L 134.904931 37.374785 
L 135.643086 37.475562 
L 135.790716 37.545397 
L 136.233609 37.607348 
L 136.430451 37.71591 
L 136.873344 37.746613 
L 137.070185 37.893676 
L 137.463867 38.001982 
L 137.611498 38.07939 
L 138.398864 38.179777 
L 138.644915 38.28787 
L 139.530701 38.388369 
L 139.776753 38.519733 
L 141.154642 38.611698 
L 141.695955 38.766063 
L 142.3849 38.874065 
L 142.680162 38.897041 
L 143.319896 38.997066 
L 143.86121 39.058725 
L 144.156471 39.128075 
L 144.402523 39.259018 
L 145.48515 39.343712 
L 145.681992 39.397594 
L 146.567777 39.48945 
L 146.764619 39.573608 
L 147.896456 39.664633 
L 148.044087 39.733781 
L 149.175924 39.825199 
L 149.520397 39.886615 
L 150.258552 39.986385 
L 150.553814 40.047593 
L 153.801695 40.139282 
L 154.096957 40.162284 
L 155.031953 40.269002 
L 155.425636 40.284328 
L 156.409842 40.391581 
L 156.557473 40.452848 
L 158.525886 40.559648 
L 158.722727 40.597915 
L 159.411672 40.682081 
L 159.608513 40.727979 
L 160.740351 40.827397 
L 160.887982 40.888283 
L 162.708763 40.995276 
L 163.004025 41.05604 
L 163.348498 41.116059 
L 163.545339 41.222929 
L 164.824807 41.329455 
L 165.021649 41.436232 
L 165.562962 41.53511 
L 165.858224 41.63418 
L 167.383744 41.70996 
L 167.531375 41.79373 
L 167.777427 41.854637 
L 167.925058 41.92314 
L 169.893471 42.028474 
L 170.188733 42.119729 
L 172.501618 42.225714 
L 172.8953 42.3017 
L 173.682666 42.339685 
L 173.830297 42.430463 
L 176.192392 42.490561 
L 176.340023 42.574047 
L 176.635285 42.596811 
L 178.84975 42.678472 
L 179.095801 42.708804 
L 181.95 42.805532 
L 182.146841 42.880715 
L 183.967623 42.97838 
L 184.312096 43.076786 
L 184.853409 43.160023 
L 185.00104 43.228107 
L 186.428139 43.303117 
L 186.674191 43.386276 
L 187.658398 43.476754 
L 187.904449 43.582515 
L 189.134707 43.626644 
L 189.331549 43.679492 
L 190.168124 43.777609 
L 190.315755 43.83797 
L 191.988906 43.936028 
L 192.382589 44.011432 
L 194.10495 44.116962 
L 194.351002 44.146186 
L 195.67968 44.213989 
L 195.827311 44.289305 
L 195.925732 44.342013 
L 196.073363 44.402238 
L 198.6323 44.506519 
L 198.829141 44.544133 
L 199.714927 44.603818 
L 199.862558 44.671001 
L 201.437288 44.753683 
L 201.68334 44.783743 
L 202.372284 44.866389 
L 202.569126 44.911458 
L 204.340697 45.001573 
L 204.685169 45.106668 
L 205.324904 45.196716 
L 205.570955 45.301732 
L 207.637789 45.396958 
L 207.78542 45.471364 
L 210.245936 45.564032 
L 210.393567 45.631398 
L 212.263559 45.688399 
L 212.41119 45.763191 
L 215.46223 45.799613 
L 215.659072 45.949097 
L 217.824326 46.059597 
L 217.971957 46.134263 
L 219.645108 46.244349 
L 220.03879 46.258549 
L 220.383263 46.348056 
L 220.580104 46.400253 
L 220.973787 46.504618 
L 221.170628 46.541881 
L 221.957993 46.60149 
L 222.105624 46.668535 
L 222.548517 46.726909 
L 222.696148 46.808801 
L 223.631144 46.889903 
L 223.778775 46.964299 
L 225.255085 47.038675 
L 225.451926 47.083291 
L 227.764811 47.191964 
L 228.060073 47.266256 
L 229.634804 47.362803 
L 230.028486 47.377654 
L 230.766641 47.481582 
L 231.061903 47.503362 
L 234.014522 47.604955 
L 234.162153 47.662807 
L 234.998729 47.699218 
L 235.14636 47.780744 
L 236.327408 47.869652 
L 236.475039 47.943719 
L 237.656086 48.023312 
L 237.852928 48.075123 
L 239.329237 48.170973 
L 239.476868 48.237545 
L 241.691333 48.257325 
L 241.937384 48.286899 
L 246.218683 48.39699 
L 246.415524 48.529884 
L 249.318933 48.637568 
L 249.515774 48.696571 
L 250.253929 48.807166 
L 250.45077 48.844021 
L 253.40339 48.924359 
L 253.600231 49.034852 
L 254.289176 49.11585 
L 254.535227 49.189462 
L 255.568644 49.231953 
L 255.765485 49.283455 
L 256.060747 49.305524 
L 256.208378 49.364365 
L 256.356009 49.430545 
L 257.340216 49.474656 
L 257.487847 49.548158 
L 259.357839 49.658372 
L 259.50547 49.717134 
L 261.178621 49.803707 
L 261.424673 49.832103 
L 262.310458 49.912827 
L 262.458089 49.978856 
L 262.654931 50.073808 
L 262.851772 50.110469 
L 263.983609 50.218434 
L 264.377292 50.230703 
L 265.115447 50.310877 
L 265.361498 50.419095 
L 267.08386 50.484559 
L 267.231491 50.549393 
L 268.166487 50.657051 
L 268.363328 50.708224 
L 270.036479 50.807647 
L 270.18411 50.866083 
L 271.069896 50.938069 
L 271.217527 51.003771 
L 272.398575 51.091348 
L 272.595416 51.12783 
L 273.973305 51.222659 
L 274.366988 51.339323 
L 274.908301 51.404924 
L 275.055932 51.463222 
L 275.990928 51.521507 
L 276.138559 51.601627 
L 277.221186 51.672477 
L 277.368817 51.75254 
L 278.057762 51.861678 
L 278.303814 51.890109 
L 279.534072 51.980639 
L 279.681703 52.060582 
L 281.108802 52.159595 
L 281.354854 52.188643 
L 282.535901 52.261249 
L 282.732743 52.341093 
L 284.356683 52.441076 
L 284.553525 52.477342 
L 285.734572 52.557111 
L 285.931414 52.651351 
L 288.687192 52.722194 
L 288.884033 52.830849 
L 289.523767 52.88878 
L 289.671398 52.946698 
L 289.86824 53.011841 
L 290.065081 53.062496 
L 290.557184 53.105906 
L 290.704815 53.184757 
L 292.328756 53.289853 
L 292.476387 53.369344 
L 293.263752 53.455307 
L 293.460593 53.50586 
L 294.395589 53.613667 
L 294.641641 53.642537 
L 296.314792 53.749295 
L 296.462423 53.814209 
L 297.791102 53.915154 
L 297.987943 53.965612 
L 299.07057 54.072199 
L 299.365832 54.144228 
L 300.792931 54.223437 
L 300.989773 54.317016 
L 302.220031 54.374587 
L 302.367662 54.439338 
L 303.59792 54.528732 
L 303.794761 54.56185 
L 305.517122 54.669122 
L 305.664753 54.72659 
L 307.337904 54.827128 
L 307.928428 55.063955 
L 308.371321 55.11337 
L 308.518952 55.177906 
L 309.355528 55.27773 
L 309.503159 55.335058 
L 310.290524 55.428189 
L 310.487365 55.478323 
L 311.323941 55.571402 
L 311.668413 55.612181 
L 312.849461 55.723119 
L 312.997092 55.787482 
L 313.784457 55.8829 
L 313.932088 55.940062 
L 316.146552 56.037022 
L 316.786287 56.201204 
L 317.524441 56.284024 
L 317.721283 56.376733 
L 318.016545 56.431796 
L 318.164176 56.503065 
L 320.427851 56.603967 
L 320.575482 56.675167 
L 320.919954 56.758865 
L 321.362847 56.901147 
L 321.90416 56.987229 
L 322.101002 57.022764 
L 323.134418 57.085844 
L 323.33126 57.163981 
L 325.594935 57.18714 
L 325.840986 57.214662 
L 327.858609 57.310801 
L 328.00624 57.374647 
L 329.088867 57.4438 
L 329.285709 57.486341 
L 330.860439 57.569029 
L 331.05728 57.604458 
L 332.287539 57.701249 
L 332.435169 57.757898 
L 333.074904 57.864081 
L 333.271745 57.913016 
L 334.698844 58.019553 
L 334.895686 58.069043 
L 336.076733 58.146793 
L 336.224364 58.203325 
L 337.257781 58.261409 
L 337.405412 58.3179 
L 339.226194 58.402613 
L 339.423035 58.508465 
L 340.407242 58.607221 
L 340.604083 58.649534 
L 343.261441 58.741186 
L 343.507492 58.769381 
L 343.999596 58.873827 
L 344.294857 59.021727 
L 345.475905 59.112365 
L 345.623536 59.203814 
L 346.312481 59.267105 
L 346.509322 59.385653 
L 347.73958 59.488479 
L 347.985632 59.516575 
L 348.920628 59.611333 
L 349.21589 59.758707 
L 351.036672 59.828855 
L 351.282723 60.004141 
L 351.676406 60.102248 
L 352.070089 60.207322 
L 352.759033 60.270345 
L 352.955874 60.317027 
L 353.349557 60.415005 
L 355.071918 60.50458 
L 355.26876 60.546529 
L 355.662442 60.623417 
L 355.859284 60.679322 
L 357.434014 60.728228 
L 357.581645 60.791094 
L 359.008744 60.888854 
L 359.353216 60.923759 
L 359.648478 60.993555 
L 359.84532 61.042401 
L 361.616891 61.149556 
L 362.059784 61.223842 
L 362.453467 61.282778 
L 362.650308 61.338513 
L 365.553717 61.428053 
L 365.799769 61.476778 
L 366.488713 61.5742 
L 366.685555 61.622897 
L 369.04765 61.713309 
L 369.244492 61.761979 
L 370.57317 61.864482 
L 370.720801 61.940908 
L 372.09869 62.035312 
L 372.393952 62.052599 
L 374.313155 62.133757 
L 374.460786 62.230887 
L 375.198941 62.311966 
L 375.395782 62.381294 
L 377.216564 62.467077 
L 377.462616 62.564054 
L 378.938925 62.654072 
L 379.086556 62.723294 
L 380.907338 62.820173 
L 381.15339 62.9101 
L 382.088386 63.006908 
L 382.236017 63.076034 
L 383.663116 63.122203 
L 384.007589 63.1982 
L 386.271263 63.306848 
L 386.566525 63.395474 
L 387.599942 63.492078 
L 387.747573 63.55416 
L 389.420724 63.65535 
L 389.568355 63.724279 
L 390.503351 63.83302 
L 390.700193 63.865574 
L 391.585978 63.955093 
L 391.88124 64.010166 
L 393.062288 64.07481 
L 393.259129 64.122969 
L 394.341757 64.224226 
L 394.538598 64.258604 
L 396.556221 64.347963 
L 396.703852 64.423551 
L 398.130951 64.487238 
L 398.426213 64.505913 
L 399.804102 64.613433 
L 400.099364 64.66147 
L 401.083571 64.769679 
L 401.477253 64.877438 
L 403.691718 64.983571 
L 403.888559 65.065773 
L 406.939599 65.144565 
L 407.136441 65.185627 
L 407.973016 65.281413 
L 408.169857 65.322454 
L 408.661961 65.431862 
L 408.957223 65.45237 
L 409.793798 65.511897 
L 409.990639 65.587058 
L 411.073267 65.672656 
L 411.319318 65.699969 
L 412.008263 65.775873 
L 412.401945 65.864575 
L 412.598787 65.905504 
L 412.943259 65.987342 
L 413.1401 66.039864 
L 414.61641 66.140472 
L 414.911672 66.160912 
L 415.895878 66.224966 
L 416.09272 66.277814 
L 417.322978 66.366311 
L 417.519819 66.40034 
L 419.094549 66.481991 
L 419.291391 66.516004 
L 421.505855 66.582372 
L 421.702696 66.629968 
L 422.982165 66.738724 
L 423.572689 66.793085 
L 424.655316 66.899279 
L 424.852157 66.933231 
L 425.639522 67.014697 
L 425.836364 67.055421 
L 426.574518 67.150416 
L 426.86978 67.170768 
L 428.493721 67.279281 
L 428.739773 67.394526 
L 429.87161 67.489393 
L 430.166872 67.59777 
L 431.101868 67.702696 
L 431.249499 67.777138 
L 433.168702 67.862522 
L 433.365543 67.9031 
L 436.564214 68.002694 
L 436.859476 68.022967 
L 438.483417 68.112387 
L 438.729468 68.137247 
L 443.158398 68.209635 
L 443.355239 68.247533 
L 444.142604 68.32174 
L 444.339445 68.362208 
L 447.046013 68.4277 
L 447.193644 68.495094 
L 447.981009 68.602888 
L 448.177851 68.656767 
L 450.195474 68.764491 
L 450.835208 68.835012 
L 451.868625 68.942647 
L 452.163887 68.962823 
L 453.787827 69.056517 
L 454.033879 69.130454 
L 454.329141 69.170775 
L 454.525982 69.291697 
L 457.035709 69.380829 
L 457.23255 69.413046 
L 459.939118 69.476565 
L 459.939118 69.476565 
" clip-path="url(#p6022c4ea06)" style="fill: none; stroke: #9467bd; stroke-width: 1.8; stroke-linecap: square"/>
   </g>
   <g id="patch_3">
    <path d="M 54.2 260.44 
L 54.2 25.44 
" style="fill: none; stroke: #000000; stroke-width: 0.8; stroke-linejoin: miter; stroke-linecap: square"/>
   </g>
   <g id="patch_4">
    <path d="M 565.2 260.44 
L 565.2 25.44 
" style="fill: none; stroke: #000000; stroke-width: 0.8; stroke-linejoin: miter; stroke-linecap: square"/>
   </g>
   <g id="patch_5">
    <path d="M 54.2 260.44 
L 565.2 260.44 
" style="fill: none; stroke: #000000; stroke-width: 0.8; stroke-linejoin: miter; stroke-linecap: square"/>
   </g>
   <g id="patch_6">
    <path d="M 54.2 25.44 
L 565.2 25.44 
" style="fill: none; stroke: #000000; stroke-width: 0.8; stroke-linejoin: miter; stroke-linecap: square"/>
   </g>
   <g id="text_17">
    <!-- Timely Transfer Rate (Cumulative) -->
    <g transform="translate(207.277187 19.44) scale(0.12 -0.12)">
     <defs>
      <path id="DejaVuSans-54" d="M -19 4666 
L 3928 4666 
L 3928 4134 
L 2272 4134 
L 2272 0 
L 1638 0 
L 1638 4134 
L -19 4134 
L -19 4666 
z
" transform="scale(0.015625)"/>
      <path id="DejaVuSans-52" d="M 2841 2188 
Q 3044 2119 3236 1894 
Q 3428 1669 3622 1275 
L 4263 0 
L 3584 0 
L 2988 1197 
Q 2756 1666 2539 1819 
Q 2322 1972 1947 1972 
L 1259 1972 
L 1259 0 
L 628 0 
L 628 4666 
L 2053 4666 
Q 2853 4666 3247 4331 
Q 3641 3997 3641 3322 
Q 3641 2881 3436 2590 
Q 3231 2300 2841 2188 
z
M 1259 4147 
L 1259 2491 
L 2053 2491 
Q 2509 2491 2742 2702 
Q 2975 2913 2975 3322 
Q 2975 3731 2742 3939 
Q 2509 4147 2053 4147 
L 1259 4147 
z
" transform="scale(0.015625)"/>
      <path id="DejaVuSans-28" d="M 1984 4856 
Q 1566 4138 1362 3434 
Q 1159 2731 1159 2009 
Q 1159 1288 1364 580 
Q 1569 -128 1984 -844 
L 1484 -844 
Q 1016 -109 783 600 
Q 550 1309 550 2009 
Q 550 2706 781 3412 
Q 1013 4119 1484 4856 
L 1984 4856 
z
" transform="scale(0.015625)"/>
      <path id="DejaVuSans-43" d="M 4122 4306 
L 4122 3641 
Q 3803 3938 3442 4084 
Q 3081 4231 2675 4231 
Q 1875 4231 1450 3742 
Q 1025 3253 1025 2328 
Q 1025 1406 1450 917 
Q 1875 428 2675 428 
Q 3081 428 3442 575 
Q 3803 722 4122 1019 
L 4122 359 
Q 3791 134 3420 21 
Q 3050 -91 2638 -91 
Q 1578 -91 968 557 
Q 359 1206 359 2328 
Q 359 3453 968 4101 
Q 1578 4750 2638 4750 
Q 3056 4750 3426 4639 
Q 3797 4528 4122 4306 
z
" transform="scale(0.015625)"/>
      <path id="DejaVuSans-29" d="M 513 4856 
L 1013 4856 
Q 1481 4119 1714 3412 
Q 1947 2706 1947 2009 
Q 1947 1309 1714 600 
Q 1481 -109 1013 -844 
L 513 -844 
Q 928 -128 1133 580 
Q 1338 1288 1338 2009 
Q 1338 2731 1133 3434 
Q 928 4138 513 4856 
z
" transform="scale(0.015625)"/>
     </defs>
     <use xlink:href="#DejaVuSans-54"/>
     <use xlink:href="#DejaVuSans-69" x="57.958984"/>
     <use xlink:href="#DejaVuSans-6d" x="85.742188"/>
     <use xlink:href="#DejaVuSans-65" x="183.154297"/>
     <use xlink:href="#DejaVuSans-6c" x="244.677734"/>
     <use xlink:href="#DejaVuSans-79" x="272.460938"/>
     <use xlink:href="#DejaVuSans-20" x="331.640625"/>
     <use xlink:href="#DejaVuSans-54" x="363.427734"/>
     <use xlink:href="#DejaVuSans-72" x="409.761719"/>
     <use xlink:href="#DejaVuSans-61" x="450.875"/>
     <use xlink:href="#DejaVuSans-6e" x="512.154297"/>
     <use xlink:href="#DejaVuSans-73" x="575.533203"/>
     <use xlink:href="#DejaVuSans-66" x="627.632812"/>
     <use xlink:href="#DejaVuSans-65" x="662.837891"/>
     <use xlink:href="#DejaVuSans-72" x="724.361328"/>
     <use xlink:href="#DejaVuSans-20" x="765.474609"/>
     <use xlink:href="#DejaVuSans-52" x="797.261719"/>
     <use xlink:href="#DejaVuSans-61" x="864.494141"/>
     <use xlink:href="#DejaVuSans-74" x="925.773438"/>
     <use xlink:href="#DejaVuSans-65" x="964.982422"/>
     <use xlink:href="#DejaVuSans-20" x="1026.505859"/>
     <use xlink:href="#DejaVuSans-28" x="1058.292969"/>
     <use xlink:href="#DejaVuSans-43" x="1097.306641"/>
     <use xlink:href="#DejaVuSans-75" x="1167.130859"/>
     <use xlink:href="#DejaVuSans-6d" x="1230.509766"/>
     <use xlink:href="#DejaVuSans-75" x="1327.921875"/>
     <use xlink:href="#DejaVuSans-6c" x="1391.300781"/>
     <use xlink:href="#DejaVuSans-61" x="1419.083984"/>
     <use xlink:href="#DejaVuSans-74" x="1480.363281"/>
     <use xlink:href="#DejaVuSans-69" x="1519.572266"/>
     <use xlink:href="#DejaVuSans-76" x="1547.355469"/>
     <use xlink:href="#DejaVuSans-65" x="1606.535156"/>
     <use xlink:href="#DejaVuSans-29" x="1668.058594"/>
    </g>
   </g>
   <g id="legend_1">
    <g id="patch_7">
     <path d="M 480.614062 255.44 
L 558.2 255.44 
Q 560.2 255.44 560.2 253.44 
L 560.2 180.493125 
Q 560.2 178.493125 558.2 178.493125 
L 480.614062 178.493125 
Q 478.614062 178.493125 478.614062 180.493125 
L 478.614062 253.44 
Q 478.614062 255.44 480.614062 255.44 
z
" style="fill: #ffffff; opacity: 0.8; stroke: #cccccc; stroke-linejoin: miter"/>
    </g>
    <g id="line2d_34">
     <path d="M 482.614062 186.591563 
L 492.614062 186.591563 
L 502.614062 186.591563 
" style="fill: none; stroke: #1f77b4; stroke-width: 1.8; stroke-linecap: square"/>
    </g>
    <g id="text_18">
     <!-- sheer -->
     <g transform="translate(510.614062 190.091563) scale(0.1 -0.1)">
      <defs>
       <path id="DejaVuSans-68" d="M 3513 2113 
L 3513 0 
L 2938 0 
L 2938 2094 
Q 2938 2591 2744 2837 
Q 2550 3084 2163 3084 
Q 1697 3084 1428 2787 
Q 1159 2491 1159 1978 
L 1159 0 
L 581 0 
L 581 4863 
L 1159 4863 
L 1159 2956 
Q 1366 3272 1645 3428 
Q 1925 3584 2291 3584 
Q 2894 3584 3203 3211 
Q 3513 2838 3513 2113 
z
" transform="scale(0.015625)"/>
      </defs>
      <use xlink:href="#DejaVuSans-73"/>
      <use xlink:href="#DejaVuSans-68" x="52.099609"/>
      <use xlink:href="#DejaVuSans-65" x="115.478516"/>
      <use xlink:href="#DejaVuSans-65" x="177.001953"/>
      <use xlink:href="#DejaVuSans-72" x="238.525391"/>
     </g>
    </g>
    <g id="line2d_35">
     <path d="M 482.614062 201.269688 
L 492.614062 201.269688 
L 502.614062 201.269688 
" style="fill: none; stroke: #ff7f0e; stroke-width: 1.8; stroke-linecap: square"/>
    </g>
    <g id="text_19">
     <!-- actar -->
     <g transform="translate(510.614062 204.769688) scale(0.1 -0.1)">
      <use xlink:href="#DejaVuSans-61"/>
      <use xlink:href="#DejaVuSans-63" x="61.279297"/>
      <use xlink:href="#DejaVuSans-74" x="116.259766"/>
      <use xlink:href="#DejaVuSans-61" x="155.46875"/>
      <use xlink:href="#DejaVuSans-72" x="216.748047"/>
     </g>
    </g>
    <g id="line2d_36">
     <path d="M 482.614062 215.947813 
L 492.614062 215.947813 
L 502.614062 215.947813 
" style="fill: none; stroke: #2ca02c; stroke-width: 1.8; stroke-linecap: square"/>
    </g>
    <g id="text_20">
     <!-- tfsm_dpc -->
     <g transform="translate(510.614062 219.447813) scale(0.1 -0.1)">
      <defs>
       <path id="DejaVuSans-5f" d="M 3263 -1063 
L 3263 -1509 
L -63 -1509 
L -63 -1063 
L 3263 -1063 
z
" transform="scale(0.015625)"/>
       <path id="DejaVuSans-70" d="M 1159 525 
L 1159 -1331 
L 581 -1331 
L 581 3500 
L 1159 3500 
L 1159 2969 
Q 1341 3281 1617 3432 
Q 1894 3584 2278 3584 
Q 2916 3584 3314 3078 
Q 3713 2572 3713 1747 
Q 3713 922 3314 415 
Q 2916 -91 2278 -91 
Q 1894 -91 1617 61 
Q 1341 213 1159 525 
z
M 3116 1747 
Q 3116 2381 2855 2742 
Q 2594 3103 2138 3103 
Q 1681 3103 1420 2742 
Q 1159 2381 1159 1747 
Q 1159 1113 1420 752 
Q 1681 391 2138 391 
Q 2594 391 2855 752 
Q 3116 1113 3116 1747 
z
" transform="scale(0.015625)"/>
      </defs>
      <use xlink:href="#DejaVuSans-74"/>
      <use xlink:href="#DejaVuSans-66" x="39.208984"/>
      <use xlink:href="#DejaVuSans-73" x="74.414062"/>
      <use xlink:href="#DejaVuSans-6d" x="126.513672"/>
      <use xlink:href="#DejaVuSans-5f" x="223.925781"/>
      <use xlink:href="#DejaVuSans-64" x="273.925781"/>
      <use xlink:href="#DejaVuSans-70" x="337.402344"/>
      <use xlink:href="#DejaVuSans-63" x="400.878906"/>
     </g>
    </g>
    <g id="line2d_37">
     <path d="M 482.614062 230.904063 
L 492.614062 230.904063 
L 502.614062 230.904063 
" style="fill: none; stroke: #d62728; stroke-width: 1.8; stroke-linecap: square"/>
    </g>
    <g id="text_21">
     <!-- dst_woa -->
     <g transform="translate(510.614062 234.404063) scale(0.1 -0.1)">
      <defs>
       <path id="DejaVuSans-77" d="M 269 3500 
L 844 3500 
L 1563 769 
L 2278 3500 
L 2956 3500 
L 3675 769 
L 4391 3500 
L 4966 3500 
L 4050 0 
L 3372 0 
L 2619 2869 
L 1863 0 
L 1184 0 
L 269 3500 
z
" transform="scale(0.015625)"/>
      </defs>
      <use xlink:href="#DejaVuSans-64"/>
      <use xlink:href="#DejaVuSans-73" x="63.476562"/>
      <use xlink:href="#DejaVuSans-74" x="115.576172"/>
      <use xlink:href="#DejaVuSans-5f" x="154.785156"/>
      <use xlink:href="#DejaVuSans-77" x="204.785156"/>
      <use xlink:href="#DejaVuSans-6f" x="286.572266"/>
      <use xlink:href="#DejaVuSans-61" x="347.753906"/>
     </g>
    </g>
    <g id="line2d_38">
     <path d="M 482.614062 245.860313 
L 492.614062 245.860313 
L 502.614062 245.860313 
" style="fill: none; stroke: #9467bd; stroke-width: 1.8; stroke-linecap: square"/>
    </g>
    <g id="text_22">
     <!-- trail -->
     <g transform="translate(510.614062 249.360313) scale(0.1 -0.1)">
      <use xlink:href="#DejaVuSans-74"/>
      <use xlink:href="#DejaVuSans-72" x="39.208984"/>
      <use xlink:href="#DejaVuSans-61" x="80.322266"/>
      <use xlink:href="#DejaVuSans-69" x="141.601562"/>
      <use xlink:href="#DejaVuSans-6c" x="169.384766"/>
     </g>
    </g>
   </g>
  </g>
 </g>
 <defs>
  <clipPath id="p6022c4ea06">
   <rect x="54.2" y="25.44" width="511" height="235"/>
  </clipPath>
 </defs>
</svg>
