<?xml version="1.0" encoding="utf-8" standalone="no"?>
<!DOCTYPE svg PUBLIC "-//W3C//DTD SVG 1.1//EN"
  "http://www.w3.org/Graphics/SVG/1.1/DTD/svg11.dtd">
<svg xmlns:xlink="http://www.w3.org/1999/xlink" width="576pt" height="302.4pt" viewBox="0 0 576 302.4" xmlns="http://www.w3.org/2000/svg" version="1.1">
 <metadata>
  <rdf:RDF xmlns:dc="http://purl.org/dc/elements/1.1/" xmlns:cc="http://creativecommons.org/ns#" xmlns:rdf="http://www.w3.org/1999/02/22-rdf-syntax-ns#">
   <cc:Work>
    <dc:type rdf:resource="http://purl.org/dc/dcmitype/StillImage"/>
    <dc:date>2025-09-02T19:24:25.325811</dc:date>
    <dc:format>image/svg+xml</dc:format>
    <dc:creator>
     <cc:Agent>
      <dc:title>Matplotlib v3.9.4, https://matplotlib.org/</dc:title>
     </cc:Agent>
    </dc:creator>
   </cc:Work>
  </rdf:RDF>
 </metadata>
 <defs>
  <style type="text/css">*{stroke-linejoin: round; stroke-linecap: butt}</style>
 </defs>
 <g id="figure_1">
  <g id="patch_1">
   <path d="M 0 302.4 
L 576 302.4 
L 576 0 
L 0 0 
z
" style="fill: #ffffff"/>
  </g>
  <g id="axes_1">
   <g id="patch_2">
    <path d="M 54.2 260.44 
L 565.2 260.44 
L 565.2 25.44 
L 54.2 25.44 
z
" style="fill: #ffffff"/>
   </g>
   <g id="matplotlib.axis_1">
    <g id="xtick_1">
     <g id="line2d_1">
      <path d="M 77.382661 260.44 
L 77.382661 25.44 
" clip-path="url(#p01ee9d034a)" style="fill: none; stroke-dasharray: 2.96,1.28; stroke-dashoffset: 0; stroke: #b0b0b0; stroke-opacity: 0.3; stroke-width: 0.8"/>
     </g>
     <g id="line2d_2">
      <defs>
       <path id="mf6b4f46738" d="M 0 0 
L 0 3.5 
" style="stroke: #000000; stroke-width: 0.8"/>
      </defs>
      <g>
       <use xlink:href="#mf6b4f46738" x="77.382661" y="260.44" style="stroke: #000000; stroke-width: 0.8"/>
      </g>
     </g>
     <g id="text_1">
      <!-- 0 -->
      <g transform="translate(74.201411 275.038438) scale(0.1 -0.1)">
       <defs>
        <path id="DejaVuSans-30" d="M 2034 4250 
Q 1547 4250 1301 3770 
Q 1056 3291 1056 2328 
Q 1056 1369 1301 889 
Q 1547 409 2034 409 
Q 2525 409 2770 889 
Q 3016 1369 3016 2328 
Q 3016 3291 2770 3770 
Q 2525 4250 2034 4250 
z
M 2034 4750 
Q 2819 4750 3233 4129 
Q 3647 3509 3647 2328 
Q 3647 1150 3233 529 
Q 2819 -91 2034 -91 
Q 1250 -91 836 529 
Q 422 1150 422 2328 
Q 422 3509 836 4129 
Q 1250 4750 2034 4750 
z
" transform="scale(0.015625)"/>
       </defs>
       <use xlink:href="#DejaVuSans-30"/>
      </g>
     </g>
    </g>
    <g id="xtick_2">
     <g id="line2d_3">
      <path d="M 166.606795 260.44 
L 166.606795 25.44 
" clip-path="url(#p01ee9d034a)" style="fill: none; stroke-dasharray: 2.96,1.28; stroke-dashoffset: 0; stroke: #b0b0b0; stroke-opacity: 0.3; stroke-width: 0.8"/>
     </g>
     <g id="line2d_4">
      <g>
       <use xlink:href="#mf6b4f46738" x="166.606795" y="260.44" style="stroke: #000000; stroke-width: 0.8"/>
      </g>
     </g>
     <g id="text_2">
      <!-- 2000 -->
      <g transform="translate(153.881795 275.038438) scale(0.1 -0.1)">
       <defs>
        <path id="DejaVuSans-32" d="M 1228 531 
L 3431 531 
L 3431 0 
L 469 0 
L 469 531 
Q 828 903 1448 1529 
Q 2069 2156 2228 2338 
Q 2531 2678 2651 2914 
Q 2772 3150 2772 3378 
Q 2772 3750 2511 3984 
Q 2250 4219 1831 4219 
Q 1534 4219 1204 4116 
Q 875 4013 500 3803 
L 500 4441 
Q 881 4594 1212 4672 
Q 1544 4750 1819 4750 
Q 2544 4750 2975 4387 
Q 3406 4025 3406 3419 
Q 3406 3131 3298 2873 
Q 3191 2616 2906 2266 
Q 2828 2175 2409 1742 
Q 1991 1309 1228 531 
z
" transform="scale(0.015625)"/>
       </defs>
       <use xlink:href="#DejaVuSans-32"/>
       <use xlink:href="#DejaVuSans-30" x="63.623047"/>
       <use xlink:href="#DejaVuSans-30" x="127.246094"/>
       <use xlink:href="#DejaVuSans-30" x="190.869141"/>
      </g>
     </g>
    </g>
    <g id="xtick_3">
     <g id="line2d_5">
      <path d="M 255.830929 260.44 
L 255.830929 25.44 
" clip-path="url(#p01ee9d034a)" style="fill: none; stroke-dasharray: 2.96,1.28; stroke-dashoffset: 0; stroke: #b0b0b0; stroke-opacity: 0.3; stroke-width: 0.8"/>
     </g>
     <g id="line2d_6">
      <g>
       <use xlink:href="#mf6b4f46738" x="255.830929" y="260.44" style="stroke: #000000; stroke-width: 0.8"/>
      </g>
     </g>
     <g id="text_3">
      <!-- 4000 -->
      <g transform="translate(243.105929 275.038438) scale(0.1 -0.1)">
       <defs>
        <path id="DejaVuSans-34" d="M 2419 4116 
L 825 1625 
L 2419 1625 
L 2419 4116 
z
M 2253 4666 
L 3047 4666 
L 3047 1625 
L 3713 1625 
L 3713 1100 
L 3047 1100 
L 3047 0 
L 2419 0 
L 2419 1100 
L 313 1100 
L 313 1709 
L 2253 4666 
z
" transform="scale(0.015625)"/>
       </defs>
       <use xlink:href="#DejaVuSans-34"/>
       <use xlink:href="#DejaVuSans-30" x="63.623047"/>
       <use xlink:href="#DejaVuSans-30" x="127.246094"/>
       <use xlink:href="#DejaVuSans-30" x="190.869141"/>
      </g>
     </g>
    </g>
    <g id="xtick_4">
     <g id="line2d_7">
      <path d="M 345.055063 260.44 
L 345.055063 25.44 
" clip-path="url(#p01ee9d034a)" style="fill: none; stroke-dasharray: 2.96,1.28; stroke-dashoffset: 0; stroke: #b0b0b0; stroke-opacity: 0.3; stroke-width: 0.8"/>
     </g>
     <g id="line2d_8">
      <g>
       <use xlink:href="#mf6b4f46738" x="345.055063" y="260.44" style="stroke: #000000; stroke-width: 0.8"/>
      </g>
     </g>
     <g id="text_4">
      <!-- 6000 -->
      <g transform="translate(332.330063 275.038438) scale(0.1 -0.1)">
       <defs>
        <path id="DejaVuSans-36" d="M 2113 2584 
Q 1688 2584 1439 2293 
Q 1191 2003 1191 1497 
Q 1191 994 1439 701 
Q 1688 409 2113 409 
Q 2538 409 2786 701 
Q 3034 994 3034 1497 
Q 3034 2003 2786 2293 
Q 2538 2584 2113 2584 
z
M 3366 4563 
L 3366 3988 
Q 3128 4100 2886 4159 
Q 2644 4219 2406 4219 
Q 1781 4219 1451 3797 
Q 1122 3375 1075 2522 
Q 1259 2794 1537 2939 
Q 1816 3084 2150 3084 
Q 2853 3084 3261 2657 
Q 3669 2231 3669 1497 
Q 3669 778 3244 343 
Q 2819 -91 2113 -91 
Q 1303 -91 875 529 
Q 447 1150 447 2328 
Q 447 3434 972 4092 
Q 1497 4750 2381 4750 
Q 2619 4750 2861 4703 
Q 3103 4656 3366 4563 
z
" transform="scale(0.015625)"/>
       </defs>
       <use xlink:href="#DejaVuSans-36"/>
       <use xlink:href="#DejaVuSans-30" x="63.623047"/>
       <use xlink:href="#DejaVuSans-30" x="127.246094"/>
       <use xlink:href="#DejaVuSans-30" x="190.869141"/>
      </g>
     </g>
    </g>
    <g id="xtick_5">
     <g id="line2d_9">
      <path d="M 434.279197 260.44 
L 434.279197 25.44 
" clip-path="url(#p01ee9d034a)" style="fill: none; stroke-dasharray: 2.96,1.28; stroke-dashoffset: 0; stroke: #b0b0b0; stroke-opacity: 0.3; stroke-width: 0.8"/>
     </g>
     <g id="line2d_10">
      <g>
       <use xlink:href="#mf6b4f46738" x="434.279197" y="260.44" style="stroke: #000000; stroke-width: 0.8"/>
      </g>
     </g>
     <g id="text_5">
      <!-- 8000 -->
      <g transform="translate(421.554197 275.038438) scale(0.1 -0.1)">
       <defs>
        <path id="DejaVuSans-38" d="M 2034 2216 
Q 1584 2216 1326 1975 
Q 1069 1734 1069 1313 
Q 1069 891 1326 650 
Q 1584 409 2034 409 
Q 2484 409 2743 651 
Q 3003 894 3003 1313 
Q 3003 1734 2745 1975 
Q 2488 2216 2034 2216 
z
M 1403 2484 
Q 997 2584 770 2862 
Q 544 3141 544 3541 
Q 544 4100 942 4425 
Q 1341 4750 2034 4750 
Q 2731 4750 3128 4425 
Q 3525 4100 3525 3541 
Q 3525 3141 3298 2862 
Q 3072 2584 2669 2484 
Q 3125 2378 3379 2068 
Q 3634 1759 3634 1313 
Q 3634 634 3220 271 
Q 2806 -91 2034 -91 
Q 1263 -91 848 271 
Q 434 634 434 1313 
Q 434 1759 690 2068 
Q 947 2378 1403 2484 
z
M 1172 3481 
Q 1172 3119 1398 2916 
Q 1625 2713 2034 2713 
Q 2441 2713 2670 2916 
Q 2900 3119 2900 3481 
Q 2900 3844 2670 4047 
Q 2441 4250 2034 4250 
Q 1625 4250 1398 4047 
Q 1172 3844 1172 3481 
z
" transform="scale(0.015625)"/>
       </defs>
       <use xlink:href="#DejaVuSans-38"/>
       <use xlink:href="#DejaVuSans-30" x="63.623047"/>
       <use xlink:href="#DejaVuSans-30" x="127.246094"/>
       <use xlink:href="#DejaVuSans-30" x="190.869141"/>
      </g>
     </g>
    </g>
    <g id="xtick_6">
     <g id="line2d_11">
      <path d="M 523.503331 260.44 
L 523.503331 25.44 
" clip-path="url(#p01ee9d034a)" style="fill: none; stroke-dasharray: 2.96,1.28; stroke-dashoffset: 0; stroke: #b0b0b0; stroke-opacity: 0.3; stroke-width: 0.8"/>
     </g>
     <g id="line2d_12">
      <g>
       <use xlink:href="#mf6b4f46738" x="523.503331" y="260.44" style="stroke: #000000; stroke-width: 0.8"/>
      </g>
     </g>
     <g id="text_6">
      <!-- 10000 -->
      <g transform="translate(507.597081 275.038438) scale(0.1 -0.1)">
       <defs>
        <path id="DejaVuSans-31" d="M 794 531 
L 1825 531 
L 1825 4091 
L 703 3866 
L 703 4441 
L 1819 4666 
L 2450 4666 
L 2450 531 
L 3481 531 
L 3481 0 
L 794 0 
L 794 531 
z
" transform="scale(0.015625)"/>
       </defs>
       <use xlink:href="#DejaVuSans-31"/>
       <use xlink:href="#DejaVuSans-30" x="63.623047"/>
       <use xlink:href="#DejaVuSans-30" x="127.246094"/>
       <use xlink:href="#DejaVuSans-30" x="190.869141"/>
       <use xlink:href="#DejaVuSans-30" x="254.492188"/>
      </g>
     </g>
    </g>
    <g id="text_7">
     <!-- round -->
     <g transform="translate(295.185937 288.716563) scale(0.1 -0.1)">
      <defs>
       <path id="DejaVuSans-72" d="M 2631 2963 
Q 2534 3019 2420 3045 
Q 2306 3072 2169 3072 
Q 1681 3072 1420 2755 
Q 1159 2438 1159 1844 
L 1159 0 
L 581 0 
L 581 3500 
L 1159 3500 
L 1159 2956 
Q 1341 3275 1631 3429 
Q 1922 3584 2338 3584 
Q 2397 3584 2469 3576 
Q 2541 3569 2628 3553 
L 2631 2963 
z
" transform="scale(0.015625)"/>
       <path id="DejaVuSans-6f" d="M 1959 3097 
Q 1497 3097 1228 2736 
Q 959 2375 959 1747 
Q 959 1119 1226 758 
Q 1494 397 1959 397 
Q 2419 397 2687 759 
Q 2956 1122 2956 1747 
Q 2956 2369 2687 2733 
Q 2419 3097 1959 3097 
z
M 1959 3584 
Q 2709 3584 3137 3096 
Q 3566 2609 3566 1747 
Q 3566 888 3137 398 
Q 2709 -91 1959 -91 
Q 1206 -91 779 398 
Q 353 888 353 1747 
Q 353 2609 779 3096 
Q 1206 3584 1959 3584 
z
" transform="scale(0.015625)"/>
       <path id="DejaVuSans-75" d="M 544 1381 
L 544 3500 
L 1119 3500 
L 1119 1403 
Q 1119 906 1312 657 
Q 1506 409 1894 409 
Q 2359 409 2629 706 
Q 2900 1003 2900 1516 
L 2900 3500 
L 3475 3500 
L 3475 0 
L 2900 0 
L 2900 538 
Q 2691 219 2414 64 
Q 2138 -91 1772 -91 
Q 1169 -91 856 284 
Q 544 659 544 1381 
z
M 1991 3584 
L 1991 3584 
z
" transform="scale(0.015625)"/>
       <path id="DejaVuSans-6e" d="M 3513 2113 
L 3513 0 
L 2938 0 
L 2938 2094 
Q 2938 2591 2744 2837 
Q 2550 3084 2163 3084 
Q 1697 3084 1428 2787 
Q 1159 2491 1159 1978 
L 1159 0 
L 581 0 
L 581 3500 
L 1159 3500 
L 1159 2956 
Q 1366 3272 1645 3428 
Q 1925 3584 2291 3584 
Q 2894 3584 3203 3211 
Q 3513 2838 3513 2113 
z
" transform="scale(0.015625)"/>
       <path id="DejaVuSans-64" d="M 2906 2969 
L 2906 4863 
L 3481 4863 
L 3481 0 
L 2906 0 
L 2906 525 
Q 2725 213 2448 61 
Q 2172 -91 1784 -91 
Q 1150 -91 751 415 
Q 353 922 353 1747 
Q 353 2572 751 3078 
Q 1150 3584 1784 3584 
Q 2172 3584 2448 3432 
Q 2725 3281 2906 2969 
z
M 947 1747 
Q 947 1113 1208 752 
Q 1469 391 1925 391 
Q 2381 391 2643 752 
Q 2906 1113 2906 1747 
Q 2906 2381 2643 2742 
Q 2381 3103 1925 3103 
Q 1469 3103 1208 2742 
Q 947 2381 947 1747 
z
" transform="scale(0.015625)"/>
      </defs>
      <use xlink:href="#DejaVuSans-72"/>
      <use xlink:href="#DejaVuSans-6f" x="38.863281"/>
      <use xlink:href="#DejaVuSans-75" x="100.044922"/>
      <use xlink:href="#DejaVuSans-6e" x="163.423828"/>
      <use xlink:href="#DejaVuSans-64" x="226.802734"/>
     </g>
    </g>
   </g>
   <g id="matplotlib.axis_2">
    <g id="ytick_1">
     <g id="line2d_13">
      <path d="M 54.2 235.484694 
L 565.2 235.484694 
" clip-path="url(#p01ee9d034a)" style="fill: none; stroke-dasharray: 2.96,1.28; stroke-dashoffset: 0; stroke: #b0b0b0; stroke-opacity: 0.3; stroke-width: 0.8"/>
     </g>
     <g id="line2d_14">
      <defs>
       <path id="mb354c486f8" d="M 0 0 
L -3.5 0 
" style="stroke: #000000; stroke-width: 0.8"/>
      </defs>
      <g>
       <use xlink:href="#mb354c486f8" x="54.2" y="235.484694" style="stroke: #000000; stroke-width: 0.8"/>
      </g>
     </g>
     <g id="text_8">
      <!-- 0.65 -->
      <g transform="translate(24.934375 239.283912) scale(0.1 -0.1)">
       <defs>
        <path id="DejaVuSans-2e" d="M 684 794 
L 1344 794 
L 1344 0 
L 684 0 
L 684 794 
z
" transform="scale(0.015625)"/>
        <path id="DejaVuSans-35" d="M 691 4666 
L 3169 4666 
L 3169 4134 
L 1269 4134 
L 1269 2991 
Q 1406 3038 1543 3061 
Q 1681 3084 1819 3084 
Q 2600 3084 3056 2656 
Q 3513 2228 3513 1497 
Q 3513 744 3044 326 
Q 2575 -91 1722 -91 
Q 1428 -91 1123 -41 
Q 819 9 494 109 
L 494 744 
Q 775 591 1075 516 
Q 1375 441 1709 441 
Q 2250 441 2565 725 
Q 2881 1009 2881 1497 
Q 2881 1984 2565 2268 
Q 2250 2553 1709 2553 
Q 1456 2553 1204 2497 
Q 953 2441 691 2322 
L 691 4666 
z
" transform="scale(0.015625)"/>
       </defs>
       <use xlink:href="#DejaVuSans-30"/>
       <use xlink:href="#DejaVuSans-2e" x="63.623047"/>
       <use xlink:href="#DejaVuSans-36" x="95.410156"/>
       <use xlink:href="#DejaVuSans-35" x="159.033203"/>
      </g>
     </g>
    </g>
    <g id="ytick_2">
     <g id="line2d_15">
      <path d="M 54.2 206.937718 
L 565.2 206.937718 
" clip-path="url(#p01ee9d034a)" style="fill: none; stroke-dasharray: 2.96,1.28; stroke-dashoffset: 0; stroke: #b0b0b0; stroke-opacity: 0.3; stroke-width: 0.8"/>
     </g>
     <g id="line2d_16">
      <g>
       <use xlink:href="#mb354c486f8" x="54.2" y="206.937718" style="stroke: #000000; stroke-width: 0.8"/>
      </g>
     </g>
     <g id="text_9">
      <!-- 0.70 -->
      <g transform="translate(24.934375 210.736936) scale(0.1 -0.1)">
       <defs>
        <path id="DejaVuSans-37" d="M 525 4666 
L 3525 4666 
L 3525 4397 
L 1831 0 
L 1172 0 
L 2766 4134 
L 525 4134 
L 525 4666 
z
" transform="scale(0.015625)"/>
       </defs>
       <use xlink:href="#DejaVuSans-30"/>
       <use xlink:href="#DejaVuSans-2e" x="63.623047"/>
       <use xlink:href="#DejaVuSans-37" x="95.410156"/>
       <use xlink:href="#DejaVuSans-30" x="159.033203"/>
      </g>
     </g>
    </g>
    <g id="ytick_3">
     <g id="line2d_17">
      <path d="M 54.2 178.390741 
L 565.2 178.390741 
" clip-path="url(#p01ee9d034a)" style="fill: none; stroke-dasharray: 2.96,1.28; stroke-dashoffset: 0; stroke: #b0b0b0; stroke-opacity: 0.3; stroke-width: 0.8"/>
     </g>
     <g id="line2d_18">
      <g>
       <use xlink:href="#mb354c486f8" x="54.2" y="178.390741" style="stroke: #000000; stroke-width: 0.8"/>
      </g>
     </g>
     <g id="text_10">
      <!-- 0.75 -->
      <g transform="translate(24.934375 182.18996) scale(0.1 -0.1)">
       <use xlink:href="#DejaVuSans-30"/>
       <use xlink:href="#DejaVuSans-2e" x="63.623047"/>
       <use xlink:href="#DejaVuSans-37" x="95.410156"/>
       <use xlink:href="#DejaVuSans-35" x="159.033203"/>
      </g>
     </g>
    </g>
    <g id="ytick_4">
     <g id="line2d_19">
      <path d="M 54.2 149.843765 
L 565.2 149.843765 
" clip-path="url(#p01ee9d034a)" style="fill: none; stroke-dasharray: 2.96,1.28; stroke-dashoffset: 0; stroke: #b0b0b0; stroke-opacity: 0.3; stroke-width: 0.8"/>
     </g>
     <g id="line2d_20">
      <g>
       <use xlink:href="#mb354c486f8" x="54.2" y="149.843765" style="stroke: #000000; stroke-width: 0.8"/>
      </g>
     </g>
     <g id="text_11">
      <!-- 0.80 -->
      <g transform="translate(24.934375 153.642984) scale(0.1 -0.1)">
       <use xlink:href="#DejaVuSans-30"/>
       <use xlink:href="#DejaVuSans-2e" x="63.623047"/>
       <use xlink:href="#DejaVuSans-38" x="95.410156"/>
       <use xlink:href="#DejaVuSans-30" x="159.033203"/>
      </g>
     </g>
    </g>
    <g id="ytick_5">
     <g id="line2d_21">
      <path d="M 54.2 121.296789 
L 565.2 121.296789 
" clip-path="url(#p01ee9d034a)" style="fill: none; stroke-dasharray: 2.96,1.28; stroke-dashoffset: 0; stroke: #b0b0b0; stroke-opacity: 0.3; stroke-width: 0.8"/>
     </g>
     <g id="line2d_22">
      <g>
       <use xlink:href="#mb354c486f8" x="54.2" y="121.296789" style="stroke: #000000; stroke-width: 0.8"/>
      </g>
     </g>
     <g id="text_12">
      <!-- 0.85 -->
      <g transform="translate(24.934375 125.096008) scale(0.1 -0.1)">
       <use xlink:href="#DejaVuSans-30"/>
       <use xlink:href="#DejaVuSans-2e" x="63.623047"/>
       <use xlink:href="#DejaVuSans-38" x="95.410156"/>
       <use xlink:href="#DejaVuSans-35" x="159.033203"/>
      </g>
     </g>
    </g>
    <g id="ytick_6">
     <g id="line2d_23">
      <path d="M 54.2 92.749813 
L 565.2 92.749813 
" clip-path="url(#p01ee9d034a)" style="fill: none; stroke-dasharray: 2.96,1.28; stroke-dashoffset: 0; stroke: #b0b0b0; stroke-opacity: 0.3; stroke-width: 0.8"/>
     </g>
     <g id="line2d_24">
      <g>
       <use xlink:href="#mb354c486f8" x="54.2" y="92.749813" style="stroke: #000000; stroke-width: 0.8"/>
      </g>
     </g>
     <g id="text_13">
      <!-- 0.90 -->
      <g transform="translate(24.934375 96.549032) scale(0.1 -0.1)">
       <defs>
        <path id="DejaVuSans-39" d="M 703 97 
L 703 672 
Q 941 559 1184 500 
Q 1428 441 1663 441 
Q 2288 441 2617 861 
Q 2947 1281 2994 2138 
Q 2813 1869 2534 1725 
Q 2256 1581 1919 1581 
Q 1219 1581 811 2004 
Q 403 2428 403 3163 
Q 403 3881 828 4315 
Q 1253 4750 1959 4750 
Q 2769 4750 3195 4129 
Q 3622 3509 3622 2328 
Q 3622 1225 3098 567 
Q 2575 -91 1691 -91 
Q 1453 -91 1209 -44 
Q 966 3 703 97 
z
M 1959 2075 
Q 2384 2075 2632 2365 
Q 2881 2656 2881 3163 
Q 2881 3666 2632 3958 
Q 2384 4250 1959 4250 
Q 1534 4250 1286 3958 
Q 1038 3666 1038 3163 
Q 1038 2656 1286 2365 
Q 1534 2075 1959 2075 
z
" transform="scale(0.015625)"/>
       </defs>
       <use xlink:href="#DejaVuSans-30"/>
       <use xlink:href="#DejaVuSans-2e" x="63.623047"/>
       <use xlink:href="#DejaVuSans-39" x="95.410156"/>
       <use xlink:href="#DejaVuSans-30" x="159.033203"/>
      </g>
     </g>
    </g>
    <g id="ytick_7">
     <g id="line2d_25">
      <path d="M 54.2 64.202837 
L 565.2 64.202837 
" clip-path="url(#p01ee9d034a)" style="fill: none; stroke-dasharray: 2.96,1.28; stroke-dashoffset: 0; stroke: #b0b0b0; stroke-opacity: 0.3; stroke-width: 0.8"/>
     </g>
     <g id="line2d_26">
      <g>
       <use xlink:href="#mb354c486f8" x="54.2" y="64.202837" style="stroke: #000000; stroke-width: 0.8"/>
      </g>
     </g>
     <g id="text_14">
      <!-- 0.95 -->
      <g transform="translate(24.934375 68.002055) scale(0.1 -0.1)">
       <use xlink:href="#DejaVuSans-30"/>
       <use xlink:href="#DejaVuSans-2e" x="63.623047"/>
       <use xlink:href="#DejaVuSans-39" x="95.410156"/>
       <use xlink:href="#DejaVuSans-35" x="159.033203"/>
      </g>
     </g>
    </g>
    <g id="ytick_8">
     <g id="line2d_27">
      <path d="M 54.2 35.655861 
L 565.2 35.655861 
" clip-path="url(#p01ee9d034a)" style="fill: none; stroke-dasharray: 2.96,1.28; stroke-dashoffset: 0; stroke: #b0b0b0; stroke-opacity: 0.3; stroke-width: 0.8"/>
     </g>
     <g id="line2d_28">
      <g>
       <use xlink:href="#mb354c486f8" x="54.2" y="35.655861" style="stroke: #000000; stroke-width: 0.8"/>
      </g>
     </g>
     <g id="text_15">
      <!-- 1.00 -->
      <g transform="translate(24.934375 39.455079) scale(0.1 -0.1)">
       <use xlink:href="#DejaVuSans-31"/>
       <use xlink:href="#DejaVuSans-2e" x="63.623047"/>
       <use xlink:href="#DejaVuSans-30" x="95.410156"/>
       <use xlink:href="#DejaVuSans-30" x="159.033203"/>
      </g>
     </g>
    </g>
    <g id="text_16">
     <!-- cumulative timely transfer rate -->
     <g transform="translate(18.854688 221.048594) rotate(-90) scale(0.1 -0.1)">
      <defs>
       <path id="DejaVuSans-63" d="M 3122 3366 
L 3122 2828 
Q 2878 2963 2633 3030 
Q 2388 3097 2138 3097 
Q 1578 3097 1268 2742 
Q 959 2388 959 1747 
Q 959 1106 1268 751 
Q 1578 397 2138 397 
Q 2388 397 2633 464 
Q 2878 531 3122 666 
L 3122 134 
Q 2881 22 2623 -34 
Q 2366 -91 2075 -91 
Q 1284 -91 818 406 
Q 353 903 353 1747 
Q 353 2603 823 3093 
Q 1294 3584 2113 3584 
Q 2378 3584 2631 3529 
Q 2884 3475 3122 3366 
z
" transform="scale(0.015625)"/>
       <path id="DejaVuSans-6d" d="M 3328 2828 
Q 3544 3216 3844 3400 
Q 4144 3584 4550 3584 
Q 5097 3584 5394 3201 
Q 5691 2819 5691 2113 
L 5691 0 
L 5113 0 
L 5113 2094 
Q 5113 2597 4934 2840 
Q 4756 3084 4391 3084 
Q 3944 3084 3684 2787 
Q 3425 2491 3425 1978 
L 3425 0 
L 2847 0 
L 2847 2094 
Q 2847 2600 2669 2842 
Q 2491 3084 2119 3084 
Q 1678 3084 1418 2786 
Q 1159 2488 1159 1978 
L 1159 0 
L 581 0 
L 581 3500 
L 1159 3500 
L 1159 2956 
Q 1356 3278 1631 3431 
Q 1906 3584 2284 3584 
Q 2666 3584 2933 3390 
Q 3200 3197 3328 2828 
z
" transform="scale(0.015625)"/>
       <path id="DejaVuSans-6c" d="M 603 4863 
L 1178 4863 
L 1178 0 
L 603 0 
L 603 4863 
z
" transform="scale(0.015625)"/>
       <path id="DejaVuSans-61" d="M 2194 1759 
Q 1497 1759 1228 1600 
Q 959 1441 959 1056 
Q 959 750 1161 570 
Q 1363 391 1709 391 
Q 2188 391 2477 730 
Q 2766 1069 2766 1631 
L 2766 1759 
L 2194 1759 
z
M 3341 1997 
L 3341 0 
L 2766 0 
L 2766 531 
Q 2569 213 2275 61 
Q 1981 -91 1556 -91 
Q 1019 -91 701 211 
Q 384 513 384 1019 
Q 384 1609 779 1909 
Q 1175 2209 1959 2209 
L 2766 2209 
L 2766 2266 
Q 2766 2663 2505 2880 
Q 2244 3097 1772 3097 
Q 1472 3097 1187 3025 
Q 903 2953 641 2809 
L 641 3341 
Q 956 3463 1253 3523 
Q 1550 3584 1831 3584 
Q 2591 3584 2966 3190 
Q 3341 2797 3341 1997 
z
" transform="scale(0.015625)"/>
       <path id="DejaVuSans-74" d="M 1172 4494 
L 1172 3500 
L 2356 3500 
L 2356 3053 
L 1172 3053 
L 1172 1153 
Q 1172 725 1289 603 
Q 1406 481 1766 481 
L 2356 481 
L 2356 0 
L 1766 0 
Q 1100 0 847 248 
Q 594 497 594 1153 
L 594 3053 
L 172 3053 
L 172 3500 
L 594 3500 
L 594 4494 
L 1172 4494 
z
" transform="scale(0.015625)"/>
       <path id="DejaVuSans-69" d="M 603 3500 
L 1178 3500 
L 1178 0 
L 603 0 
L 603 3500 
z
M 603 4863 
L 1178 4863 
L 1178 4134 
L 603 4134 
L 603 4863 
z
" transform="scale(0.015625)"/>
       <path id="DejaVuSans-76" d="M 191 3500 
L 800 3500 
L 1894 563 
L 2988 3500 
L 3597 3500 
L 2284 0 
L 1503 0 
L 191 3500 
z
" transform="scale(0.015625)"/>
       <path id="DejaVuSans-65" d="M 3597 1894 
L 3597 1613 
L 953 1613 
Q 991 1019 1311 708 
Q 1631 397 2203 397 
Q 2534 397 2845 478 
Q 3156 559 3463 722 
L 3463 178 
Q 3153 47 2828 -22 
Q 2503 -91 2169 -91 
Q 1331 -91 842 396 
Q 353 884 353 1716 
Q 353 2575 817 3079 
Q 1281 3584 2069 3584 
Q 2775 3584 3186 3129 
Q 3597 2675 3597 1894 
z
M 3022 2063 
Q 3016 2534 2758 2815 
Q 2500 3097 2075 3097 
Q 1594 3097 1305 2825 
Q 1016 2553 972 2059 
L 3022 2063 
z
" transform="scale(0.015625)"/>
       <path id="DejaVuSans-20" transform="scale(0.015625)"/>
       <path id="DejaVuSans-79" d="M 2059 -325 
Q 1816 -950 1584 -1140 
Q 1353 -1331 966 -1331 
L 506 -1331 
L 506 -850 
L 844 -850 
Q 1081 -850 1212 -737 
Q 1344 -625 1503 -206 
L 1606 56 
L 191 3500 
L 800 3500 
L 1894 763 
L 2988 3500 
L 3597 3500 
L 2059 -325 
z
" transform="scale(0.015625)"/>
       <path id="DejaVuSans-73" d="M 2834 3397 
L 2834 2853 
Q 2591 2978 2328 3040 
Q 2066 3103 1784 3103 
Q 1356 3103 1142 2972 
Q 928 2841 928 2578 
Q 928 2378 1081 2264 
Q 1234 2150 1697 2047 
L 1894 2003 
Q 2506 1872 2764 1633 
Q 3022 1394 3022 966 
Q 3022 478 2636 193 
Q 2250 -91 1575 -91 
Q 1294 -91 989 -36 
Q 684 19 347 128 
L 347 722 
Q 666 556 975 473 
Q 1284 391 1588 391 
Q 1994 391 2212 530 
Q 2431 669 2431 922 
Q 2431 1156 2273 1281 
Q 2116 1406 1581 1522 
L 1381 1569 
Q 847 1681 609 1914 
Q 372 2147 372 2553 
Q 372 3047 722 3315 
Q 1072 3584 1716 3584 
Q 2034 3584 2315 3537 
Q 2597 3491 2834 3397 
z
" transform="scale(0.015625)"/>
       <path id="DejaVuSans-66" d="M 2375 4863 
L 2375 4384 
L 1825 4384 
Q 1516 4384 1395 4259 
Q 1275 4134 1275 3809 
L 1275 3500 
L 2222 3500 
L 2222 3053 
L 1275 3053 
L 1275 0 
L 697 0 
L 697 3053 
L 147 3053 
L 147 3500 
L 697 3500 
L 697 3744 
Q 697 4328 969 4595 
Q 1241 4863 1831 4863 
L 2375 4863 
z
" transform="scale(0.015625)"/>
      </defs>
      <use xlink:href="#DejaVuSans-63"/>
      <use xlink:href="#DejaVuSans-75" x="54.980469"/>
      <use xlink:href="#DejaVuSans-6d" x="118.359375"/>
      <use xlink:href="#DejaVuSans-75" x="215.771484"/>
      <use xlink:href="#DejaVuSans-6c" x="279.150391"/>
      <use xlink:href="#DejaVuSans-61" x="306.933594"/>
      <use xlink:href="#DejaVuSans-74" x="368.212891"/>
      <use xlink:href="#DejaVuSans-69" x="407.421875"/>
      <use xlink:href="#DejaVuSans-76" x="435.205078"/>
      <use xlink:href="#DejaVuSans-65" x="494.384766"/>
      <use xlink:href="#DejaVuSans-20" x="555.908203"/>
      <use xlink:href="#DejaVuSans-74" x="587.695312"/>
      <use xlink:href="#DejaVuSans-69" x="626.904297"/>
      <use xlink:href="#DejaVuSans-6d" x="654.6875"/>
      <use xlink:href="#DejaVuSans-65" x="752.099609"/>
      <use xlink:href="#DejaVuSans-6c" x="813.623047"/>
      <use xlink:href="#DejaVuSans-79" x="841.40625"/>
      <use xlink:href="#DejaVuSans-20" x="900.585938"/>
      <use xlink:href="#DejaVuSans-74" x="932.373047"/>
      <use xlink:href="#DejaVuSans-72" x="971.582031"/>
      <use xlink:href="#DejaVuSans-61" x="1012.695312"/>
      <use xlink:href="#DejaVuSans-6e" x="1073.974609"/>
      <use xlink:href="#DejaVuSans-73" x="1137.353516"/>
      <use xlink:href="#DejaVuSans-66" x="1189.453125"/>
      <use xlink:href="#DejaVuSans-65" x="1224.658203"/>
      <use xlink:href="#DejaVuSans-72" x="1286.181641"/>
      <use xlink:href="#DejaVuSans-20" x="1327.294922"/>
      <use xlink:href="#DejaVuSans-72" x="1359.082031"/>
      <use xlink:href="#DejaVuSans-61" x="1400.195312"/>
      <use xlink:href="#DejaVuSans-74" x="1461.474609"/>
      <use xlink:href="#DejaVuSans-65" x="1500.683594"/>
     </g>
    </g>
   </g>
   <g id="line2d_29">
    <path d="M 77.427273 169.994572 
L 77.471885 211.32956 
L 77.516497 197.422059 
L 77.694945 137.609347 
L 77.739557 136.002807 
L 77.873393 107.643887 
L 77.918005 109.542152 
L 78.00723 113.684262 
L 78.364126 84.730327 
L 78.497962 78.216807 
L 78.542574 80.338084 
L 78.631799 84.149121 
L 78.676411 82.570271 
L 79.256367 66.819398 
L 79.702488 60.602105 
L 80.371669 54.485851 
L 80.728566 52.411007 
L 80.81779 57.18914 
L 80.907014 56.768257 
L 80.951626 56.569396 
L 81.085462 63.744251 
L 81.174686 63.300166 
L 81.308523 62.517154 
L 81.353135 63.823655 
L 81.442359 63.299115 
L 81.486971 63.031476 
L 81.531583 63.981945 
L 81.576195 63.688477 
L 81.620807 63.438186 
L 81.665419 65.639004 
L 81.754643 65.131697 
L 81.888479 69.100017 
L 81.977704 68.267665 
L 82.022316 67.873327 
L 82.066928 71.877242 
L 82.156152 70.994477 
L 82.245376 69.998088 
L 82.289988 71.577296 
L 82.3346 70.975991 
L 82.780721 66.139441 
L 82.869945 67.219713 
L 83.003781 68.480206 
L 83.137617 68.047272 
L 83.226841 67.997359 
L 83.40529 69.863145 
L 83.539126 71.27438 
L 83.583738 70.979326 
L 83.62835 70.572582 
L 83.672962 71.357648 
L 83.717574 70.999736 
L 84.119083 68.628052 
L 84.431367 67.169171 
L 85.189772 63.894159 
L 86.528134 59.704643 
L 86.751195 58.90381 
L 87.375764 56.945423 
L 87.554212 58.601023 
L 87.643436 58.370301 
L 87.821884 61.009281 
L 87.866496 60.890757 
L 87.911108 60.69214 
L 88.000333 62.651199 
L 88.089557 62.260176 
L 88.535677 60.967366 
L 88.669514 61.839807 
L 88.714126 61.688929 
L 88.847962 61.256007 
L 89.071022 63.453393 
L 89.561755 61.599007 
L 89.695591 61.712496 
L 89.874039 62.397759 
L 89.963264 62.068792 
L 90.007876 62.49133 
L 90.0971 62.436163 
L 90.141712 62.580883 
L 90.186324 62.437796 
L 90.275548 64.13366 
L 90.32016 63.999155 
L 90.364772 63.874382 
L 90.453996 64.807334 
L 90.632445 65.920801 
L 90.677057 66.097145 
L 90.721669 65.965402 
L 90.810893 65.702444 
L 91.123177 68.412965 
L 91.257014 68.158941 
L 91.346238 68.981797 
L 91.39085 68.97356 
L 91.480074 68.716719 
L 91.61391 70.363891 
L 91.658522 70.21405 
L 91.747746 71.358254 
L 91.83697 71.028161 
L 92.550763 68.274477 
L 92.773824 69.918462 
L 92.818436 69.814635 
L 92.863048 70.232831 
L 92.90766 70.115557 
L 93.13072 69.456378 
L 93.219944 69.773708 
L 93.264557 69.628699 
L 93.487617 68.878096 
L 93.532229 69.613241 
L 93.621453 69.405169 
L 93.666065 69.568194 
L 93.710677 69.42768 
L 93.799901 69.190508 
L 93.844513 69.411139 
L 93.889125 69.275938 
L 93.97835 68.929894 
L 94.022962 69.25215 
L 94.067574 69.097222 
L 94.692143 67.17513 
L 94.781367 67.756288 
L 94.825979 67.636963 
L 94.915203 67.338473 
L 95.71822 73.800233 
L 95.852056 74.704539 
L 95.941281 74.436785 
L 96.119729 74.199467 
L 96.298177 75.020895 
L 96.476625 74.814641 
L 96.56585 75.122463 
L 96.655074 75.055143 
L 96.699686 75.002506 
L 96.78891 75.451391 
L 96.833522 75.370104 
L 96.922746 75.147725 
L 96.967358 75.262758 
L 97.01197 75.519317 
L 97.056582 75.456259 
L 97.101194 75.363126 
L 97.279643 76.965574 
L 97.458091 76.569697 
L 97.591927 77.442211 
L 97.636539 77.312521 
L 97.814987 76.870242 
L 97.859599 77.053199 
L 97.904212 76.896942 
L 98.30572 76.106167 
L 98.350332 76.330637 
L 98.394944 76.208307 
L 98.707229 75.329326 
L 98.796453 76.210758 
L 98.885677 76.156848 
L 99.019513 75.778008 
L 99.108737 76.186777 
L 99.153349 76.027236 
L 99.421022 75.290409 
L 99.465634 75.744569 
L 99.554858 75.574137 
L 99.59947 75.719021 
L 99.644082 75.590142 
L 99.733306 75.382017 
L 99.911755 76.119401 
L 100.045591 75.896934 
L 100.090203 76.040892 
L 100.313263 76.925535 
L 100.447099 76.709914 
L 100.491711 76.78489 
L 101.205504 80.724267 
L 101.250117 80.636029 
L 101.607013 79.812843 
L 101.651625 80.084731 
L 101.696237 79.973959 
L 102.945375 76.759458 
L 102.989987 76.700928 
L 103.123823 77.189461 
L 103.168435 77.127567 
L 103.346884 76.822408 
L 103.614556 78.386501 
L 103.659168 78.298647 
L 104.105289 80.438307 
L 104.149901 80.346449 
L 104.239125 80.582044 
L 104.283737 80.508414 
L 104.372961 80.86258 
L 104.77447 82.375021 
L 104.952918 82.158272 
L 104.99753 82.335307 
L 105.042142 82.267696 
L 105.175978 81.984556 
L 105.220591 82.190931 
L 105.265203 82.145337 
L 105.354427 82.00909 
L 105.577487 82.34203 
L 105.622099 82.231057 
L 105.800547 82.889195 
L 105.889772 82.821954 
L 106.06822 83.169667 
L 106.202056 83.01614 
L 106.246668 83.210156 
L 106.335892 83.130588 
L 106.380504 83.062322 
L 106.51434 83.626318 
L 106.558953 83.62872 
L 106.692789 83.887288 
L 107.094297 83.23724 
L 107.138909 83.317285 
L 107.183521 83.226472 
L 107.228134 83.128353 
L 107.36197 83.405036 
L 107.495806 83.21288 
L 107.540418 83.450964 
L 107.58503 83.385562 
L 107.629642 83.30671 
L 107.674254 83.472453 
L 107.718866 83.377149 
L 107.897315 83.086437 
L 108.031151 83.376604 
L 108.254211 83.11938 
L 108.388047 83.858779 
L 108.477271 83.746408 
L 108.65572 84.068912 
L 108.744944 83.949552 
L 108.834168 83.81908 
L 108.968004 83.920317 
L 109.057228 83.766132 
L 109.235677 84.933175 
L 109.637185 84.488326 
L 109.771021 85.377169 
L 109.860245 85.201028 
L 110.127918 84.634609 
L 110.17253 84.963524 
L 110.261754 84.807307 
L 110.39559 84.962563 
L 110.618651 84.696998 
L 110.663263 84.753416 
L 110.797099 84.88398 
L 111.198608 84.359788 
L 111.24322 84.495745 
L 111.287832 84.408747 
L 111.46628 84.232355 
L 111.510892 84.358691 
L 111.555504 84.284928 
L 111.823176 84.011531 
L 112.358521 83.36281 
L 112.403133 83.50882 
L 112.492357 83.420736 
L 112.938478 82.744895 
L 113.072314 83.347457 
L 113.116926 83.260253 
L 113.563047 82.675965 
L 113.964556 82.077599 
L 114.009168 82.201969 
L 114.05378 82.140636 
L 114.187616 82.066788 
L 114.232228 82.217303 
L 114.27684 82.172701 
L 114.410676 81.996306 
L 114.455288 82.068937 
L 114.544513 82.458628 
L 114.589125 82.410704 
L 114.856797 82.034266 
L 115.392142 81.229285 
L 115.436754 81.257172 
L 115.615202 81.785425 
L 115.882875 81.474531 
L 115.927487 81.669146 
L 116.016711 81.562466 
L 116.507443 81.009866 
L 116.552056 81.208762 
L 116.596668 81.147876 
L 116.908952 80.834403 
L 116.953564 80.978819 
L 116.998176 80.928423 
L 117.93503 79.797478 
L 117.979642 79.959552 
L 118.024254 79.900684 
L 118.38115 79.569391 
L 118.425762 79.709169 
L 118.470374 79.640647 
L 118.693435 79.310831 
L 118.738047 79.485282 
L 118.827271 79.841604 
L 118.916495 79.723468 
L 118.961107 79.679089 
L 119.050331 80.066146 
L 119.139555 79.959753 
L 119.273392 79.80399 
L 119.407228 80.08724 
L 119.45184 80.049792 
L 120.254857 79.335285 
L 120.388693 79.804021 
L 120.477917 79.697192 
L 120.567142 79.591802 
L 120.700978 79.913998 
L 120.74559 79.867784 
L 120.790202 79.808771 
L 120.834814 79.932803 
L 122.173176 78.743251 
L 122.2624 78.862467 
L 122.351624 79.400146 
L 122.396236 79.3459 
L 122.663909 79.210458 
L 122.797745 79.483849 
L 123.154641 79.148856 
L 123.199254 79.216531 
L 123.243866 79.171261 
L 123.689986 78.67026 
L 123.734598 78.852234 
L 123.823822 78.764581 
L 124.359167 78.249294 
L 124.8499 77.785133 
L 124.894512 77.970413 
L 124.983736 77.886769 
L 125.652917 77.523135 
L 125.697529 77.651653 
L 125.786753 77.570826 
L 125.92059 77.446312 
L 125.965202 77.661621 
L 126.054426 77.57278 
L 126.411322 77.355389 
L 126.455934 77.488579 
L 126.500547 77.442836 
L 126.589771 77.354683 
L 126.634383 77.458994 
L 126.902055 77.22412 
L 126.991279 77.561473 
L 127.035891 77.535046 
L 127.080503 77.477776 
L 127.125115 77.617391 
L 127.21434 77.53985 
L 127.4374 77.347619 
L 127.571236 77.572836 
L 128.061969 77.320648 
L 128.106581 77.641441 
L 128.195805 77.560231 
L 128.50809 77.356772 
L 128.552702 77.538109 
L 128.641926 77.463698 
L 129.578779 76.841971 
L 129.891064 76.808852 
L 130.24796 76.601804 
L 130.292572 76.705499 
L 130.381796 76.635003 
L 130.694081 76.409259 
L 130.783305 76.451569 
L 130.827917 76.414101 
L 130.872529 76.373984 
L 130.961753 76.793009 
L 131.006365 76.74171 
L 131.31865 76.534991 
L 131.452486 76.536788 
L 131.630934 76.498214 
L 131.943219 76.229628 
L 132.032443 76.144399 
L 132.077055 76.25811 
L 132.166279 76.19611 
L 132.210891 76.26445 
L 132.255503 76.230854 
L 132.657012 75.91477 
L 132.701624 76.104142 
L 132.790848 76.030783 
L 133.05852 75.846296 
L 133.326193 76.164554 
L 133.638477 75.966386 
L 133.683089 76.044532 
L 133.727701 76.016497 
L 134.084598 75.742666 
L 134.263046 75.986854 
L 134.932227 75.479839 
L 135.467572 75.183114 
L 135.64602 75.260009 
L 136.270589 74.868127 
L 136.315201 74.999628 
L 136.359813 74.953549 
L 136.49365 74.929004 
L 136.761322 75.082004 
L 136.850546 75.025146 
L 136.895158 75.174289 
L 136.984382 75.112167 
L 137.698175 74.693461 
L 137.965848 74.599613 
L 138.01046 74.713981 
L 138.099684 74.643658 
L 138.322744 74.648303 
L 138.411968 74.845097 
L 138.45658 74.817391 
L 139.170374 74.688425 
L 140.196451 74.787846 
L 140.419511 74.869687 
L 164.197743 74.958568 
L 164.420804 74.989128 
L 174.681579 75.084162 
L 174.860027 75.152862 
L 177.269079 75.253438 
L 177.581363 75.299202 
L 180.570372 75.402533 
L 180.793432 75.433024 
L 183.33632 75.514567 
L 183.55938 75.56028 
L 187.931363 75.646519 
L 188.109811 75.684589 
L 192.035673 75.775935 
L 192.214121 75.819293 
L 203.768647 75.92648 
L 203.947095 75.9645 
L 208.452914 76.046969 
L 208.675974 76.077371 
L 213.360241 76.183751 
L 213.538689 76.221734 
L 217.999896 76.324562 
L 218.178344 76.370112 
L 222.19343 76.451848 
L 222.371879 76.489787 
L 230.000542 76.593644 
L 230.268215 76.616395 
L 234.06024 76.717838 
L 234.238689 76.770888 
L 237.495369 76.874009 
L 237.673818 76.911878 
L 241.778128 76.9811 
L 242.001188 77.079491 
L 245.168645 77.162716 
L 245.302481 77.23079 
L 248.068429 77.309802 
L 248.246878 77.355157 
L 253.064981 77.445842 
L 253.288041 77.47487 
L 262.656575 77.552353 
L 262.835024 77.605198 
L 267.742351 77.710855 
L 268.233084 77.763668 
L 271.445152 77.858712 
L 271.623601 77.896413 
L 274.791058 77.991995 
L 274.969506 78.044744 
L 276.977049 78.135148 
L 277.155497 78.172807 
L 281.616704 78.280285 
L 281.839764 78.310392 
L 286.836316 78.382601 
L 287.059376 78.472869 
L 293.438902 78.575699 
L 293.751186 78.628317 
L 298.078557 78.72678 
L 298.257005 78.779359 
L 300.442996 78.841416 
L 300.621444 78.939 
L 303.565841 79.044049 
L 303.744289 79.104059 
L 305.127263 79.214063 
L 305.48416 79.229056 
L 307.848599 79.318997 
L 308.116272 79.337752 
L 310.926832 79.437029 
L 311.149892 79.474469 
L 312.309806 79.541849 
L 312.488254 79.583641 
L 316.191056 79.672789 
L 316.414116 79.717665 
L 319.403125 79.784964 
L 319.581573 79.844771 
L 323.596659 79.938787 
L 323.775107 79.976144 
L 325.78265 80.070725 
L 325.961098 80.108061 
L 329.217779 80.208781 
L 329.574676 80.223707 
L 331.225322 80.305782 
L 331.448383 80.410204 
L 343.181356 80.503611 
L 343.404417 80.533415 
L 347.508727 80.640052 
L 347.731787 80.669837 
L 351.746873 80.779582 
L 352.10377 80.794466 
L 355.583511 80.877353 
L 355.761959 80.92198 
L 358.438683 81.011209 
L 358.617132 81.063246 
L 361.516916 81.159858 
L 361.784588 81.182148 
L 367.450321 81.276781 
L 367.628769 81.328763 
L 370.305493 81.43848 
L 370.66239 81.452674 
L 374.186743 81.555885 
L 374.54364 81.570718 
L 377.978769 81.64839 
L 378.201829 81.729928 
L 384.49213 81.808182 
L 384.670579 81.85263 
L 387.704199 81.920163 
L 387.882648 81.971988 
L 396.046656 82.080387 
L 396.225104 82.124779 
L 400.150966 82.228332 
L 400.507863 82.243121 
L 402.649242 82.328553 
L 402.82769 82.372899 
L 405.102905 82.46157 
L 405.325966 82.491121 
L 407.467345 82.506678 
L 410.947086 82.585262 
L 411.125535 82.629556 
L 417.192776 82.730311 
L 417.50506 82.781946 
L 423.97381 82.891951 
L 424.152258 82.943545 
L 426.78437 83.031967 
L 426.962818 83.076167 
L 429.862603 83.140449 
L 430.041051 83.214077 
L 434.54687 83.324481 
L 434.76993 83.361272 
L 437.981999 83.454889 
L 438.160447 83.51372 
L 447.528981 83.599797 
L 447.752042 83.629186 
L 454.800748 83.694548 
L 454.979196 83.74595 
L 457.65592 83.831338 
L 457.923593 83.875371 
L 458.637386 83.882709 
L 464.570791 83.992757 
L 464.793851 84.022095 
L 471.976394 84.089166 
L 472.154842 84.140471 
L 476.482213 84.246969 
L 476.660661 84.283592 
L 490.044281 84.361716 
L 490.222729 84.405626 
L 505.569281 84.511048 
L 505.792341 84.540298 
L 509.45053 84.638296 
L 509.852039 84.652911 
L 514.447082 84.737832 
L 514.62553 84.781654 
L 520.425099 84.872582 
L 520.692771 84.894473 
L 528.232211 84.996018 
L 528.633719 85.0106 
L 535.280917 85.111274 
L 535.54859 85.133137 
L 541.972727 85.145637 
L 541.972727 85.145637 
" clip-path="url(#p01ee9d034a)" style="fill: none; stroke: #1f77b4; stroke-width: 1.8; stroke-linecap: square"/>
   </g>
   <g id="line2d_30">
    <path d="M 77.427273 113.51125 
L 77.471885 135.570277 
L 77.516497 119.051521 
L 77.605721 82.631897 
L 77.650333 85.686644 
L 77.694945 122.564202 
L 77.784169 120.131606 
L 77.962618 98.720861 
L 78.00723 112.283607 
L 78.096454 108.380096 
L 78.141066 108.477199 
L 78.23029 101.06182 
L 78.364126 110.953119 
L 78.408738 107.207713 
L 78.45335 110.267276 
L 78.497962 112.032294 
L 78.542574 109.59286 
L 78.587186 109.684191 
L 78.721023 112.739887 
L 78.899471 106.049109 
L 78.944083 107.697157 
L 79.122531 112.415262 
L 79.256367 108.976077 
L 79.345592 112.432569 
L 79.434816 110.514487 
L 79.52404 106.595682 
L 79.568652 107.683703 
L 79.657876 111.02462 
L 79.702488 109.620369 
L 79.7471 109.398832 
L 79.836324 106.692265 
L 79.880936 108.204503 
L 79.970161 108.717265 
L 80.371669 102.704787 
L 80.416281 103.025966 
L 80.460893 103.089663 
L 80.594729 101.818802 
L 80.728566 104.623792 
L 80.907014 102.132881 
L 80.951626 103.563549 
L 81.04085 102.936179 
L 81.085462 102.082677 
L 81.130074 103.527649 
L 81.174686 102.547119 
L 81.219298 102.287019 
L 81.26391 102.622165 
L 81.397747 106.183684 
L 81.442359 105.317306 
L 81.486971 106.285623 
L 81.531583 105.472338 
L 81.799255 109.392479 
L 81.843867 109.563335 
L 81.888479 108.751044 
L 81.933092 109.644791 
L 81.977704 110.45832 
L 82.022316 110.408075 
L 82.3346 106.350929 
L 82.379212 106.85179 
L 82.423824 106.071484 
L 82.468436 106.574919 
L 82.513048 108.161995 
L 82.602273 107.523902 
L 82.646885 107.96958 
L 82.691497 107.300092 
L 82.736109 107.333479 
L 82.869945 108.819577 
L 82.914557 108.353342 
L 83.048393 110.076633 
L 83.226841 108.441845 
L 83.271454 108.810115 
L 83.449902 107.502593 
L 83.494514 107.483535 
L 83.539126 108.253374 
L 83.583738 107.869799 
L 83.762186 106.120105 
L 83.896022 107.898617 
L 83.940635 108.050483 
L 84.208307 106.506854 
L 84.386755 105.475966 
L 84.431367 106.659662 
L 84.520591 106.31722 
L 84.609816 107.685629 
L 84.654428 107.56352 
L 84.743652 107.036167 
L 84.788264 107.125693 
L 84.832876 107.156984 
L 84.9221 107.833224 
L 84.966712 107.429117 
L 85.055936 106.597503 
L 85.189772 108.065338 
L 85.234384 107.692314 
L 85.278997 107.843066 
L 85.457445 110.091609 
L 85.591281 109.300188 
L 85.814341 110.810236 
L 86.037402 109.723453 
L 86.082014 109.803851 
L 86.305074 108.535413 
L 86.349686 108.620327 
L 86.394298 109.055734 
L 86.483522 108.98601 
L 86.528134 108.548823 
L 86.572746 108.744057 
L 86.617359 108.804655 
L 86.706583 108.14057 
L 86.751195 108.439785 
L 86.795807 108.542616 
L 86.840419 108.518695 
L 87.063479 107.80389 
L 87.108091 107.794683 
L 87.152703 107.902103 
L 87.197315 107.574289 
L 87.375764 109.660227 
L 87.643436 108.093997 
L 87.73266 108.343562 
L 87.911108 107.347371 
L 87.955721 107.560976 
L 88.000333 108.023445 
L 88.089557 108.014024 
L 88.178781 107.471048 
L 88.268005 107.538243 
L 88.312617 107.610455 
L 88.491065 107.053293 
L 88.624902 107.493688 
L 88.714126 107.536494 
L 88.758738 107.253748 
L 88.892574 108.169251 
L 88.981798 107.511136 
L 89.071022 107.561124 
L 89.115634 107.713351 
L 89.249471 107.111538 
L 89.294083 107.223255 
L 89.338695 107.254522 
L 89.606367 106.316229 
L 89.650979 106.664827 
L 89.695591 107.007783 
L 89.740203 106.706524 
L 89.784815 106.69229 
L 89.829427 106.36054 
L 89.874039 106.435758 
L 89.918652 106.620095 
L 89.963264 106.39012 
L 90.186324 105.703551 
L 90.230936 105.709059 
L 90.364772 105.467255 
L 90.409384 105.40399 
L 90.632445 104.743075 
L 90.721669 104.335343 
L 90.900117 103.515289 
L 90.944729 103.719187 
L 91.033953 103.857115 
L 91.078565 103.642867 
L 91.123177 103.89364 
L 91.257014 104.112179 
L 91.301626 104.101343 
L 91.524686 103.088807 
L 91.61391 103.155302 
L 91.658522 103.285888 
L 91.747746 103.069222 
L 91.792358 103.288183 
L 91.83697 103.033156 
L 91.881582 103.06838 
L 91.926195 102.893623 
L 91.970807 103.139627 
L 92.015419 102.922478 
L 92.416927 102.197493 
L 92.461539 102.354522 
L 92.506151 102.271004 
L 92.550763 102.021698 
L 92.595376 102.101955 
L 92.6846 102.057651 
L 92.90766 102.893786 
L 93.041496 102.637042 
L 93.086108 102.783347 
L 93.13072 102.596299 
L 93.219944 102.40265 
L 93.443005 102.008422 
L 93.666065 101.471513 
L 93.755289 101.625862 
L 93.933738 100.982029 
L 93.97835 101.136548 
L 94.022962 100.974329 
L 94.112186 100.657543 
L 94.335246 101.705013 
L 94.42447 101.348981 
L 94.558306 101.811419 
L 94.692143 101.262164 
L 94.736755 101.43783 
L 94.781367 101.547128 
L 94.825979 102.188946 
L 94.915203 102.004849 
L 95.049039 101.46061 
L 95.138263 101.965084 
L 95.182875 101.779428 
L 95.227487 101.594809 
L 95.361324 102.071013 
L 95.405936 102.100674 
L 95.49516 101.723385 
L 95.539772 101.91638 
L 95.628996 102.219597 
L 95.673608 102.072943 
L 95.71822 101.871134 
L 95.762832 102.378484 
L 95.852056 102.139242 
L 95.896669 102.357883 
L 95.941281 102.196331 
L 95.985893 102.028378 
L 96.030505 102.286354 
L 96.075117 102.318037 
L 96.119729 102.139177 
L 96.298177 102.819264 
L 96.78891 101.71172 
L 96.833522 102.122448 
L 96.878134 101.978408 
L 97.056582 101.377058 
L 97.145806 101.464968 
L 97.190418 101.911657 
L 97.235031 101.761807 
L 97.413479 101.175703 
L 97.458091 101.455054 
L 97.502703 101.839899 
L 97.547315 101.705727 
L 97.591927 101.561169 
L 97.636539 101.835602 
L 97.725763 101.706906 
L 97.859599 101.488988 
L 97.904212 101.738978 
L 97.948824 101.609956 
L 98.08266 101.433493 
L 98.216496 101.015509 
L 98.261108 101.231936 
L 98.885677 99.767888 
L 99.019513 99.902645 
L 99.064125 99.99104 
L 99.108737 99.828852 
L 99.153349 100.20233 
L 99.242574 100.078228 
L 99.421022 100.59349 
L 99.465634 100.432686 
L 99.554858 100.21239 
L 99.59947 100.26917 
L 99.644082 100.347971 
L 99.688694 100.228028 
L 99.733306 100.070074 
L 99.777918 100.160924 
L 99.867142 100.208771 
L 99.956367 100.966721 
L 100.000979 100.820633 
L 100.134815 100.610853 
L 100.224039 100.355467 
L 100.357875 100.690601 
L 100.402487 100.538352 
L 100.447099 100.939013 
L 100.536323 100.866271 
L 100.759384 100.475997 
L 100.803996 100.563692 
L 100.848608 100.431404 
L 101.027056 100.078759 
L 101.071668 100.161932 
L 101.294729 99.640735 
L 101.339341 99.660621 
L 101.383953 99.904689 
L 101.473177 99.884201 
L 101.830073 99.303405 
L 101.874685 99.371821 
L 101.919298 99.244424 
L 101.96391 99.095295 
L 102.053134 99.182157 
L 102.499254 98.15957 
L 102.543866 98.159695 
L 102.766927 97.632946 
L 102.900763 97.771452 
L 102.989987 97.530862 
L 103.079211 97.85876 
L 103.123823 97.737438 
L 103.25766 97.453555 
L 103.525332 96.923761 
L 103.569944 96.928191 
L 104.016065 95.930959 
L 104.060677 96.02038 
L 104.105289 95.948831 
L 104.283737 95.670145 
L 104.417573 96.135269 
L 104.506797 95.988813 
L 104.952918 95.178966 
L 105.042142 95.441668 
L 105.086754 95.321026 
L 105.443651 94.744834 
L 105.532875 95.075207 
L 105.577487 94.982537 
L 105.800547 94.689489 
L 105.889772 94.594435 
L 106.023608 94.398099 
L 106.06822 94.540361 
L 106.112832 94.448976 
L 106.246668 94.220417 
L 106.469728 93.767278 
L 106.603565 93.914734 
L 106.737401 93.797666 
L 106.915849 93.951431 
L 107.228134 93.506456 
L 107.406582 93.710965 
L 107.629642 93.398397 
L 107.763478 93.649588 
L 108.298823 92.624395 
L 108.388047 92.583828 
L 108.477271 92.971595 
L 108.521883 92.893476 
L 108.611108 92.716395 
L 108.65572 92.876095 
L 108.700332 92.81765 
L 109.280289 91.857629 
L 109.324901 91.99536 
L 109.369513 91.933388 
L 109.547961 91.777455 
L 109.637185 91.716897 
L 109.860245 91.487619 
L 110.127918 91.663238 
L 110.797099 90.906999 
L 110.841711 91.003113 
L 110.886323 90.951622 
L 111.020159 90.712593 
L 111.064771 90.844187 
L 111.24322 90.714261 
L 111.332444 90.667495 
L 111.46628 90.442218 
L 111.600116 90.644443 
L 111.644728 90.576762 
L 111.68934 90.682013 
L 111.778564 90.888276 
L 111.823176 90.803001 
L 112.046237 90.590852 
L 112.090849 90.52108 
L 112.135461 90.557373 
L 112.180073 90.662864 
L 112.224685 90.58615 
L 112.492357 90.273329 
L 112.626194 90.305776 
L 112.76003 90.165837 
L 112.804642 90.414488 
L 112.849254 90.35553 
L 112.938478 90.237001 
L 112.98309 90.29897 
L 113.072314 90.531587 
L 113.116926 90.451082 
L 113.384599 90.175611 
L 113.518435 89.993088 
L 113.607659 89.834984 
L 113.652271 89.89537 
L 113.786107 89.936429 
L 113.964556 89.913416 
L 114.187616 89.61135 
L 114.27684 89.80297 
L 114.321452 89.729101 
L 114.767573 89.133376 
L 115.124469 88.642925 
L 115.169081 88.705906 
L 115.525978 88.263908 
L 115.927487 87.767664 
L 115.972099 87.808346 
L 116.016711 87.905507 
L 116.061323 87.841689 
L 116.462831 87.39093 
L 116.552056 87.595478 
L 116.596668 87.54403 
L 116.953564 87.201931 
L 117.132012 87.40554 
L 117.176624 87.352475 
L 117.444297 87.18303 
L 117.488909 87.223758 
L 117.533521 87.17461 
L 117.93503 86.936704 
L 117.979642 86.997009 
L 118.024254 86.954312 
L 118.470374 86.536861 
L 118.514987 86.620971 
L 118.559599 86.695722 
L 118.604211 86.651313 
L 118.693435 86.57318 
L 118.827271 86.723249 
L 119.45184 86.263139 
L 120.031797 85.905389 
L 120.076409 86.039107 
L 120.165633 85.975327 
L 120.299469 85.921899 
L 122.083952 85.261869 
L 122.886969 84.962948 
L 123.199254 84.845418 
L 123.243866 84.97804 
L 123.33309 84.94259 
L 124.269943 84.616343 
L 124.582228 84.543623 
L 124.716064 84.622343 
L 126.232874 84.413223 
L 127.080503 84.412158 
L 137.787399 84.005047 
L 138.768865 84.060932 
L 138.991925 84.163573 
L 139.794943 84.236878 
L 139.973391 84.275021 
L 142.025546 84.374166 
L 142.203994 84.419913 
L 145.862184 84.496139 
L 146.040632 84.541865 
L 148.628132 84.628288 
L 148.80658 84.66637 
L 153.267787 84.734902 
L 153.446235 84.788193 
L 160.182657 84.890433 
L 160.45033 84.913257 
L 165.937614 84.996621 
L 166.116062 85.049844 
L 170.264984 85.131295 
L 170.488045 85.161692 
L 173.566277 85.222476 
L 173.744726 85.27565 
L 177.625975 85.379069 
L 177.93826 85.424617 
L 181.150329 85.531916 
L 181.418001 85.554675 
L 184.897742 85.659399 
L 185.254639 85.671652 
L 198.638259 85.779358 
L 198.816707 85.847525 
L 210.906577 85.938904 
L 211.085026 85.984309 
L 215.144724 86.059965 
L 215.323172 86.105348 
L 218.892137 86.176564 
L 219.070586 86.229482 
L 222.148818 86.333812 
L 222.505715 86.346714 
L 223.442568 86.450248 
L 223.710241 86.472901 
L 226.386965 86.570462 
L 226.654637 86.593101 
L 230.000542 86.695021 
L 230.268215 86.717648 
L 231.24968 86.77575 
L 235.844723 86.880651 
L 236.781576 86.930419 
L 243.919507 87.034377 
L 244.187179 87.056967 
L 256.946231 87.155707 
L 257.124679 87.193326 
L 262.790411 87.286625 
L 263.058084 87.309184 
L 265.77942 87.391133 
L 265.957868 87.43623 
L 268.634592 87.530909 
L 268.902265 87.553444 
L 273.720368 87.663084 
L 273.943428 87.693114 
L 279.3861 87.798191 
L 279.653773 87.820702 
L 291.699031 87.928634 
L 292.055927 87.988614 
L 300.755281 88.081505 
L 300.933729 88.118968 
L 306.197953 88.229806 
L 306.465625 88.252271 
L 317.57403 88.359112 
L 317.841702 88.38156 
L 319.849245 88.478811 
L 320.116918 88.501248 
L 322.838254 88.60593 
L 323.105926 88.628357 
L 326.362607 88.700801 
L 326.541055 88.760576 
L 331.760667 88.853076 
L 332.02834 88.875477 
L 335.775753 88.957601 
L 335.998814 88.987457 
L 340.549244 89.069306 
L 340.772305 89.099144 
L 344.162822 89.203554 
L 344.608942 89.248287 
L 346.794934 89.317415 
L 346.973382 89.362124 
L 349.070149 89.467663 
L 349.248597 89.51234 
L 349.694718 89.549566 
L 351.657649 89.652214 
L 352.014546 89.667096 
L 352.32683 89.739593 
L 353.486744 89.813956 
L 353.709804 89.873432 
L 356.163468 89.950502 
L 356.386528 90.024798 
L 360.490838 90.113924 
L 360.669287 90.151051 
L 361.427692 90.254979 
L 361.695364 90.277243 
L 362.810666 90.377188 
L 363.346011 90.451355 
L 366.647304 90.562092 
L 367.361097 90.569503 
L 373.205277 90.675115 
L 373.428338 90.704742 
L 377.264976 90.733575 
L 377.264976 90.733575 
" clip-path="url(#p01ee9d034a)" style="fill: none; stroke: #ff7f0e; stroke-width: 1.8; stroke-linecap: square"/>
   </g>
   <g id="line2d_31">
    <path d="M 77.427273 57.200748 
L 77.516497 101.00436 
L 77.561109 80.85524 
L 77.739557 122.486246 
L 77.828781 113.921735 
L 77.962618 95.033571 
L 78.141066 116.97149 
L 78.185678 111.387255 
L 78.23029 112.147758 
L 78.319514 117.352799 
L 78.45335 108.422663 
L 78.542574 115.972624 
L 78.587186 114.442044 
L 78.810247 106.127475 
L 78.899471 104.248296 
L 78.988695 104.828403 
L 79.077919 106.617272 
L 79.122531 105.008651 
L 79.30098 110.925127 
L 79.479428 106.026049 
L 79.52404 108.657286 
L 79.568652 107.220449 
L 79.613264 105.791579 
L 79.657876 106.99952 
L 79.702488 107.441742 
L 80.014773 101.832942 
L 80.148609 105.481888 
L 80.193221 104.717437 
L 80.416281 99.280855 
L 80.460893 100.190803 
L 80.550117 103.231483 
L 80.639342 103.002831 
L 80.683954 102.931762 
L 80.996238 98.738523 
L 81.04085 99.145648 
L 81.085462 98.707241 
L 81.130074 98.224575 
L 81.174686 98.401446 
L 81.219298 98.646053 
L 81.26391 99.696816 
L 81.308523 98.984021 
L 81.576195 96.104615 
L 81.620807 95.419674 
L 81.665419 95.658084 
L 81.754643 96.727998 
L 81.799255 96.082683 
L 81.843867 96.573025 
L 81.888479 95.922774 
L 82.156152 93.546728 
L 82.245376 93.136616 
L 82.468436 91.281903 
L 82.736109 95.720489 
L 82.869945 94.291175 
L 82.914557 95.564414 
L 82.959169 95.016744 
L 83.048393 94.233472 
L 83.360678 98.819626 
L 83.539126 97.270572 
L 83.672962 98.895008 
L 83.717574 98.44897 
L 83.762186 98.807796 
L 83.85141 99.204724 
L 83.896022 100.456966 
L 83.940635 100.052988 
L 84.029859 99.570398 
L 84.163695 100.391707 
L 84.342143 99.537206 
L 84.431367 99.395245 
L 84.475979 99.590789 
L 84.654428 100.762999 
L 84.877488 99.485097 
L 84.9221 99.527566 
L 85.055936 99.900745 
L 85.412833 97.393663 
L 85.457445 97.921581 
L 85.502057 97.916832 
L 85.591281 97.264612 
L 85.635893 97.511146 
L 85.814341 99.253926 
L 85.858953 98.996629 
L 85.903565 99.399801 
L 85.948178 99.144417 
L 86.037402 98.573053 
L 86.082014 98.591705 
L 86.126626 98.788596 
L 86.260462 98.060077 
L 86.305074 98.314573 
L 86.483522 96.776711 
L 86.661971 97.718581 
L 86.751195 97.716523 
L 86.929643 96.958662 
L 86.974255 97.208996 
L 87.018867 96.886267 
L 87.108091 96.298532 
L 87.152703 96.419756 
L 87.241927 97.928102 
L 87.28654 97.687668 
L 87.464988 97.086887 
L 87.554212 97.201995 
L 87.688048 98.460059 
L 87.73266 98.374145 
L 87.777272 98.466786 
L 87.821884 99.070285 
L 87.911108 98.806997 
L 88.089557 97.77945 
L 88.134169 97.930545 
L 88.178781 98.421881 
L 88.223393 98.164243 
L 88.268005 97.983392 
L 88.491065 99.479278 
L 88.535677 99.516882 
L 88.580289 99.249932 
L 88.669514 99.881231 
L 88.714126 99.729079 
L 88.847962 99.374058 
L 88.892574 99.44054 
L 88.937186 100.080057 
L 89.02641 99.864406 
L 89.204858 98.764188 
L 89.383307 100.551924 
L 89.517143 100.078831 
L 89.606367 99.668984 
L 89.650979 99.929078 
L 89.740203 100.209235 
L 89.784815 99.932646 
L 89.829427 100.183352 
L 89.874039 100.449811 
L 89.963264 100.397978 
L 90.007876 100.335187 
L 90.186324 99.531928 
L 90.32016 100.722316 
L 90.409384 100.338782 
L 90.453996 101.301507 
L 90.54322 100.927003 
L 90.632445 100.530091 
L 90.677057 100.966286 
L 90.721669 100.726174 
L 90.855505 100.369061 
L 90.944729 100.79076 
L 90.989341 100.574121 
L 91.078565 100.600031 
L 91.167789 100.127014 
L 91.212401 100.091277 
L 91.257014 99.817688 
L 91.301626 100.195758 
L 91.346238 99.972975 
L 91.39085 100.306411 
L 91.435462 100.488732 
L 91.480074 100.270653 
L 91.703134 99.473208 
L 91.747746 99.628125 
L 91.792358 99.471573 
L 92.104643 98.51895 
L 92.149255 98.645867 
L 92.193867 98.411389 
L 92.238479 98.629295 
L 92.283091 98.845629 
L 92.327703 98.586707 
L 92.550763 97.797174 
L 92.595376 98.219462 
L 92.6846 98.07782 
L 92.863048 97.285287 
L 92.90766 97.524289 
L 92.952272 97.841279 
L 92.996884 97.637353 
L 93.264557 96.905446 
L 93.353781 96.62096 
L 93.398393 96.804564 
L 93.532229 96.418337 
L 93.621453 96.699031 
L 93.666065 96.62842 
L 93.710677 96.433985 
L 93.755289 96.695341 
L 93.799901 96.800334 
L 93.844513 96.652195 
L 93.889125 96.744586 
L 93.933738 96.540919 
L 93.97835 96.599287 
L 94.022962 96.722 
L 94.112186 96.678679 
L 94.156798 96.539396 
L 94.20141 97.191292 
L 94.246022 97.031859 
L 94.290634 96.851055 
L 94.335246 97.13848 
L 94.379858 96.977756 
L 94.558306 96.340467 
L 94.647531 96.370924 
L 94.736755 96.693844 
L 94.781367 96.602378 
L 94.915203 96.030272 
L 95.004427 96.844762 
L 95.049039 96.654201 
L 95.2721 96.193032 
L 95.361324 96.515956 
L 95.405936 96.376594 
L 95.628996 95.910806 
L 95.673608 96.08751 
L 95.71822 95.946427 
L 96.030505 95.178895 
L 96.208953 95.425803 
L 96.298177 95.110019 
L 96.387401 95.513532 
L 96.432013 95.403218 
L 96.521237 95.460343 
L 96.610462 95.124017 
L 96.699686 94.995586 
L 96.878134 95.362538 
L 97.547315 93.424754 
L 97.591927 93.834202 
L 97.636539 93.692042 
L 97.859599 93.081112 
L 97.904212 93.262341 
L 97.948824 93.106769 
L 97.993436 93.000697 
L 98.038048 93.088643 
L 98.171884 93.122047 
L 98.30572 92.768518 
L 98.350332 93.154146 
L 98.394944 93.093653 
L 98.662617 92.582322 
L 98.707229 92.625478 
L 98.751841 92.880053 
L 98.796453 92.725459 
L 99.108737 92.351422 
L 99.197961 92.813587 
L 99.242574 92.678237 
L 99.554858 92.206285 
L 99.644082 92.587709 
L 99.688694 92.471097 
L 99.867142 92.165761 
L 100.000979 92.338484 
L 100.134815 92.069714 
L 100.179427 92.200392 
L 100.224039 92.087258 
L 100.357875 91.713392 
L 100.447099 92.019143 
L 100.491711 91.935609 
L 100.536323 91.957832 
L 100.67016 91.630324 
L 100.714772 91.798278 
L 100.803996 91.742698 
L 100.89322 91.568712 
L 100.937832 91.753344 
L 100.982444 91.63574 
L 101.027056 91.533014 
L 101.160892 92.422768 
L 101.205504 92.332083 
L 101.383953 91.972223 
L 101.428565 92.202067 
L 101.473177 92.112688 
L 101.607013 91.835018 
L 101.696237 92.367208 
L 101.740849 92.285634 
L 101.785461 92.140801 
L 101.830073 92.566802 
L 101.874685 92.441331 
L 102.008522 92.136165 
L 102.053134 92.198988 
L 102.097746 92.226273 
L 102.142358 92.127225 
L 102.231582 91.985341 
L 102.276194 92.400828 
L 102.320806 92.321164 
L 102.722315 91.42085 
L 102.856151 91.535701 
L 103.123823 91.089174 
L 103.25766 91.403882 
L 103.302272 91.361362 
L 103.346884 91.354424 
L 103.391496 91.225929 
L 103.436108 91.371488 
L 103.659168 91.20218 
L 103.70378 91.346823 
L 103.748392 91.394193 
L 103.793004 91.331626 
L 103.926841 91.124816 
L 103.971453 91.202852 
L 104.016065 91.425607 
L 104.060677 91.327139 
L 104.149901 91.137539 
L 104.194513 91.204807 
L 104.372961 91.358848 
L 104.640634 91.064906 
L 104.819082 90.709838 
L 104.863694 90.837666 
L 104.908306 90.907054 
L 104.952918 90.795728 
L 105.086754 90.636849 
L 105.443651 90.022218 
L 105.577487 89.782895 
L 105.711323 89.924652 
L 105.889772 89.517507 
L 105.934384 89.661193 
L 106.112832 89.969337 
L 106.157444 89.860598 
L 106.335892 89.677995 
L 106.469728 89.829018 
L 106.915849 89.287708 
L 107.272746 88.897949 
L 107.317358 89.071094 
L 107.36197 88.973788 
L 107.451194 88.870256 
L 107.674254 88.482802 
L 107.763478 88.829088 
L 107.80809 88.762877 
L 107.941927 88.645685 
L 107.986539 88.692877 
L 108.031151 88.611588 
L 108.298823 88.348281 
L 108.432659 88.442202 
L 108.477271 88.352193 
L 108.611108 88.829293 
L 108.834168 88.461343 
L 108.87878 88.519615 
L 109.057228 88.247962 
L 109.10184 88.453532 
L 109.146452 88.374292 
L 109.458737 87.986488 
L 109.547961 88.259881 
L 109.592573 88.184549 
L 109.815633 87.875614 
L 109.904858 88.226138 
L 109.994082 88.115989 
L 110.217142 87.795314 
L 110.261754 87.99001 
L 110.306366 87.920161 
L 110.663263 87.449623 
L 110.707875 87.41194 
L 110.752487 87.525284 
L 110.797099 87.451208 
L 111.198608 87.015564 
L 111.377056 86.71425 
L 111.823176 86.094967 
L 111.957013 86.295649 
L 112.135461 86.013115 
L 112.180073 86.088085 
L 112.224685 86.272784 
L 112.269297 86.230992 
L 112.581582 85.81767 
L 112.804642 86.058027 
L 112.849254 86.004165 
L 113.696883 85.019855 
L 113.830719 84.927649 
L 113.875332 84.86619 
L 113.919944 84.920361 
L 113.964556 85.004206 
L 114.009168 84.936757 
L 114.678349 84.349195 
L 114.767573 84.357639 
L 115.525978 83.649136 
L 115.57059 83.736179 
L 115.615202 83.679557 
L 115.838262 83.407908 
L 115.882875 83.468251 
L 115.927487 83.413296 
L 116.195159 83.185486 
L 116.552056 82.920321 
L 116.86434 82.679878 
L 116.908952 82.776254 
L 116.953564 82.706099 
L 117.622745 82.088476 
L 117.711969 82.050669 
L 117.801193 81.949426 
L 117.93503 82.199257 
L 117.979642 82.260527 
L 118.024254 82.204235 
L 118.470374 81.870046 
L 118.514987 81.932393 
L 118.559599 81.988593 
L 118.604211 81.947103 
L 119.005719 81.622897 
L 119.050331 81.674023 
L 119.094943 81.633253 
L 119.139555 81.578159 
L 119.184168 81.68325 
L 120.299469 80.886228 
L 120.344081 81.092994 
L 120.433305 81.030917 
L 121.191711 80.690512 
L 121.370159 80.818691 
L 121.816279 80.551385 
L 121.860892 80.637208 
L 121.950116 80.578695 
L 124.091495 79.380185 
L 124.359167 79.332278 
L 124.493004 79.352735 
L 125.474469 79.044614 
L 128.106581 78.362193 
L 128.240417 78.42343 
L 128.998822 78.197113 
L 129.132658 78.240832 
L 129.489555 78.145467 
L 129.623391 78.190171 
L 129.801839 78.248152 
L 129.935676 78.271611 
L 131.809383 77.918349 
L 131.987831 77.915651 
L 133.950762 77.549137 
L 135.869081 77.237651 
L 136.002917 77.288941 
L 139.348822 77.002638 
L 145.906796 76.73116 
L 159.335028 76.425865 
L 159.6027 76.537841 
L 160.316493 76.644665 
L 160.494942 76.710396 
L 160.807226 76.788072 
L 161.030286 76.878388 
L 161.610243 76.981883 
L 161.877916 77.041106 
L 162.457873 77.144498 
L 162.680933 77.226467 
L 163.171666 77.28429 
L 163.48395 77.341629 
L 163.974683 77.392497 
L 164.153131 77.433431 
L 164.822312 77.525819 
L 165.089985 77.547124 
L 166.29451 77.65319 
L 166.562183 77.677715 
L 167.320588 77.771891 
L 167.58826 77.812744 
L 167.855933 77.902598 
L 168.168217 78.016914 
L 168.971234 78.114859 
L 169.238907 78.245396 
L 169.461967 78.32695 
L 169.72964 78.392174 
L 169.863476 78.464211 
L 170.041924 78.502972 
L 170.443433 78.563514 
L 170.755717 78.661237 
L 171.335674 78.757595 
L 171.558734 78.806424 
L 172.138691 78.863522 
L 172.674036 78.965905 
L 173.075545 79.00121 
L 173.700113 79.089264 
L 173.923174 79.109623 
L 174.681579 79.135419 
L 174.860027 79.176023 
L 175.35076 79.284979 
L 175.663044 79.339767 
L 177.090631 79.436468 
L 177.358303 79.47701 
L 178.562829 79.54862 
L 178.830501 79.653968 
L 179.588906 79.740364 
L 179.811967 79.772758 
L 180.659596 79.8274 
L 180.882656 79.859781 
L 181.150329 79.884064 
L 181.864122 79.989266 
L 182.087182 80.021627 
L 183.291708 80.102513 
L 183.514768 80.13486 
L 186.057656 80.235854 
L 186.280716 80.266127 
L 186.994509 80.338846 
L 187.172958 80.379237 
L 188.288259 80.438352 
L 188.868216 80.527159 
L 189.091277 80.575586 
L 190.161966 80.672414 
L 190.340415 80.709985 
L 191.946449 80.797514 
L 192.169509 80.829752 
L 192.749466 80.902271 
L 192.927914 80.941163 
L 194.712397 81.03543 
L 194.890845 81.072896 
L 196.139983 81.163886 
L 196.318432 81.204106 
L 196.809164 81.30061 
L 196.987613 81.356888 
L 197.567569 81.466603 
L 197.879854 81.514808 
L 198.549035 81.602757 
L 198.727483 81.650927 
L 199.575112 81.758356 
L 199.753561 81.806493 
L 202.474897 81.893798 
L 202.697957 81.923033 
L 203.144078 81.97913 
L 203.857871 82.075267 
L 204.125543 82.131332 
L 204.883948 82.192548 
L 206.846879 82.298911 
L 207.025328 82.354917 
L 207.962181 82.373925 
L 209.255931 82.437904 
L 209.478991 82.533844 
L 209.925112 82.5818 
L 210.817353 82.675536 
L 210.995802 82.71476 
L 211.843431 82.810591 
L 212.155715 82.858494 
L 216.393862 82.957979 
L 216.57231 82.997865 
L 219.38287 83.077618 
L 219.605931 83.109513 
L 220.275112 83.189232 
L 220.498172 83.221113 
L 222.327267 83.305138 
L 222.550327 83.337003 
L 224.200973 83.440535 
L 224.379422 83.487577 
L 226.788473 83.583755 
L 227.056146 83.607624 
L 230.714335 83.702991 
L 230.892783 83.742746 
L 233.435671 83.817112 
L 233.61412 83.856844 
L 237.495369 83.948508 
L 237.673818 83.988218 
L 242.804205 84.096428 
L 243.027266 84.128176 
L 245.302481 84.223397 
L 245.480929 84.263062 
L 246.328559 84.350303 
L 246.507007 84.397877 
L 248.692998 84.500184 
L 248.916059 84.555653 
L 252.708084 84.645999 
L 252.931145 84.701422 
L 254.403343 84.80925 
L 255.117136 84.830005 
L 259.533731 84.926115 
L 259.712179 84.965651 
L 261.452049 85.06542 
L 261.719722 85.08688 
L 264.307222 85.183582 
L 264.574894 85.207275 
L 268.233084 85.298265 
L 268.500756 85.369299 
L 271.757437 85.456443 
L 271.980497 85.535308 
L 273.854204 85.62052 
L 274.032652 85.659929 
L 278.984592 85.754029 
L 279.207652 85.785535 
L 283.713471 85.886385 
L 283.891919 85.925745 
L 288.397738 86.021964 
L 288.66541 86.045566 
L 291.342134 86.139951 
L 291.565195 86.171405 
L 293.885022 86.279171 
L 294.152695 86.302748 
L 297.052479 86.384012 
L 297.275539 86.415426 
L 300.041487 86.512123 
L 300.264548 86.543518 
L 302.941272 86.650293 
L 303.164332 86.720884 
L 311.551401 86.823832 
L 311.729849 86.863013 
L 316.101832 86.933525 
L 316.101832 86.933525 
" clip-path="url(#p01ee9d034a)" style="fill: none; stroke: #2ca02c; stroke-width: 1.8; stroke-linecap: square"/>
   </g>
   <g id="line2d_32">
    <path d="M 77.427273 171.133036 
L 77.471885 249.758182 
L 77.516497 175.69763 
L 77.561109 149.261174 
L 77.605721 189.042598 
L 77.650333 174.578831 
L 77.694945 152.991803 
L 77.784169 156.107237 
L 78.051842 117.732917 
L 78.096454 124.158141 
L 78.141066 118.826678 
L 78.23029 111.514958 
L 78.274902 119.313983 
L 78.364126 115.805083 
L 78.45335 115.965866 
L 78.587186 106.972068 
L 79.033307 89.152617 
L 79.122531 90.531438 
L 79.211755 97.082591 
L 79.256367 95.361955 
L 79.568652 88.558801 
L 79.613264 88.901788 
L 79.702488 92.251081 
L 79.7471 91.196381 
L 79.836324 88.479404 
L 79.925548 92.245929 
L 79.970161 91.227308 
L 80.282445 85.391642 
L 80.327057 88.427559 
L 80.416281 87.113929 
L 80.460893 86.56046 
L 80.505505 87.617237 
L 80.550117 86.777773 
L 80.594729 86.402592 
L 80.639342 89.353549 
L 80.728566 88.364901 
L 81.130074 82.675986 
L 81.174686 83.885609 
L 81.219298 83.398104 
L 81.353135 81.613841 
L 81.486971 86.162049 
L 81.531583 85.723423 
L 81.665419 84.502515 
L 81.710031 86.847572 
L 81.754643 86.093842 
L 81.933092 84.063044 
L 82.066928 85.878877 
L 82.11154 85.229401 
L 82.289988 88.255654 
L 82.646885 85.102883 
L 82.736109 87.450729 
L 82.780721 86.905693 
L 82.869945 86.09348 
L 82.914557 88.140735 
L 83.003781 87.321036 
L 83.316066 84.707359 
L 83.360678 86.311016 
L 83.449902 85.577613 
L 83.717574 83.953564 
L 83.806798 83.439344 
L 83.940635 82.455418 
L 83.985247 84.124108 
L 84.074471 83.350512 
L 84.119083 83.167048 
L 84.163695 85.612161 
L 84.252919 85.163004 
L 84.297531 84.891934 
L 84.475979 88.126568 
L 84.565203 87.490979 
L 84.743652 86.43138 
L 84.788264 86.589746 
L 84.877488 87.553443 
L 84.966712 89.527924 
L 85.011324 89.173342 
L 85.189772 87.997264 
L 85.323609 90.197465 
L 85.368221 89.806826 
L 85.546669 88.76934 
L 85.680505 89.704006 
L 85.769729 89.050535 
L 85.858953 90.453903 
L 85.903565 90.141696 
L 85.948178 89.805635 
L 86.082014 93.140596 
L 86.171238 92.492229 
L 86.21585 92.187283 
L 86.260462 92.799793 
L 86.305074 92.479225 
L 86.349686 92.178544 
L 86.394298 92.514723 
L 86.43891 92.254574 
L 86.572746 92.95887 
L 86.706583 92.152607 
L 86.840419 92.983485 
L 86.929643 92.466787 
L 86.974255 92.918988 
L 87.018867 92.622314 
L 87.375764 90.59551 
L 87.420376 91.048808 
L 87.464988 90.774328 
L 87.5096 90.775033 
L 87.554212 90.527882 
L 87.598824 91.078935 
L 87.643436 90.901879 
L 88.044945 89.259555 
L 88.089557 89.774007 
L 88.134169 89.577927 
L 88.268005 88.947184 
L 88.312617 89.448201 
L 88.357229 89.160383 
L 88.401841 88.913142 
L 88.446453 89.334316 
L 88.491065 89.10533 
L 88.714126 88.598711 
L 88.758738 88.852215 
L 88.80335 88.675069 
L 88.892574 88.186064 
L 88.937186 88.965709 
L 88.981798 88.724093 
L 89.02641 88.492474 
L 89.071022 88.764557 
L 89.115634 88.585096 
L 90.54322 83.425056 
L 90.677057 84.150789 
L 91.033953 82.999244 
L 91.123177 82.760709 
L 91.212401 83.430537 
L 91.257014 83.281614 
L 91.61391 82.0833 
L 91.658522 81.953866 
L 91.703134 82.24629 
L 91.747746 82.136877 
L 91.881582 81.660404 
L 91.926195 81.849257 
L 91.970807 82.01492 
L 92.015419 81.905434 
L 92.193867 81.432452 
L 92.238479 81.819619 
L 92.283091 81.674754 
L 92.506151 81.070388 
L 92.729212 80.451263 
L 92.773824 81.03749 
L 92.863048 80.767922 
L 92.90766 80.669545 
L 92.952272 81.159072 
L 93.041496 81.05892 
L 93.13072 80.778855 
L 93.175332 81.181675 
L 93.219944 81.042002 
L 93.576841 80.035421 
L 93.621453 80.113766 
L 93.666065 80.547547 
L 93.710677 80.376023 
L 94.20141 79.018356 
L 94.290634 79.343372 
L 94.379858 79.167902 
L 94.736755 78.307029 
L 94.781367 78.474197 
L 94.825979 78.361707 
L 94.870591 78.249806 
L 94.915203 78.537524 
L 94.959815 78.408997 
L 95.093651 78.058971 
L 95.138263 78.468695 
L 95.182875 78.362845 
L 95.316712 78.007655 
L 95.361324 78.390773 
L 95.405936 78.257992 
L 95.762832 77.355042 
L 95.807444 77.572399 
L 95.852056 77.498142 
L 96.387401 76.269324 
L 96.432013 76.700932 
L 96.476625 76.551159 
L 96.610462 76.271217 
L 96.655074 76.553815 
L 96.699686 76.466333 
L 97.056582 75.847047 
L 97.145806 76.124373 
L 97.190418 76.038116 
L 97.279643 75.913782 
L 97.591927 75.21894 
L 97.636539 75.670674 
L 97.725763 75.484354 
L 97.770375 75.3801 
L 97.814987 75.58843 
L 97.859599 75.487735 
L 98.038048 75.142554 
L 98.08266 75.521429 
L 98.127272 75.428803 
L 98.662617 74.441447 
L 98.751841 74.266688 
L 98.885677 74.730097 
L 99.108737 74.321209 
L 99.153349 74.961216 
L 99.242574 74.79474 
L 99.688694 74.13704 
L 99.733306 74.277532 
L 99.911755 74.987588 
L 99.956367 74.907005 
L 100.357875 74.189175 
L 101.517789 72.479579 
L 101.607013 73.188263 
L 101.651625 73.110329 
L 101.785461 72.878458 
L 101.874685 73.410511 
L 101.919298 73.353974 
L 102.499254 72.510734 
L 102.543866 72.809688 
L 102.633091 72.672649 
L 102.811539 72.537664 
L 102.856151 72.696294 
L 102.900763 72.620694 
L 103.436108 71.817295 
L 103.569944 72.071519 
L 103.926841 71.645216 
L 103.971453 71.948651 
L 104.060677 71.824717 
L 104.149901 71.689021 
L 104.194513 71.961201 
L 104.283737 71.83149 
L 104.417573 71.640349 
L 104.462185 71.874982 
L 104.55141 71.762779 
L 105.309815 70.942734 
L 105.354427 71.144635 
L 105.399039 71.060819 
L 105.577487 70.821243 
L 105.622099 70.924006 
L 105.666711 70.854277 
L 105.755935 70.753344 
L 105.800547 70.958722 
L 105.845159 70.888345 
L 106.202056 70.441224 
L 106.246668 70.595276 
L 106.29128 70.526735 
L 106.603565 70.099144 
L 106.692789 70.424719 
L 106.737401 70.369719 
L 107.005073 70.005173 
L 107.094297 70.336302 
L 107.138909 70.276386 
L 107.317358 70.032011 
L 107.406582 70.429843 
L 107.451194 70.371487 
L 107.629642 70.192785 
L 107.674254 70.35393 
L 107.718866 70.300018 
L 108.298823 69.780946 
L 108.343435 69.977592 
L 108.432659 69.881034 
L 109.280289 68.962044 
L 109.324901 69.095746 
L 109.369513 69.043085 
L 109.547961 68.852271 
L 109.592573 69.052318 
L 109.637185 68.98282 
L 109.726409 68.886869 
L 109.860245 69.371485 
L 109.904858 69.313257 
L 109.94947 69.263878 
L 109.994082 69.378655 
L 110.350978 69.037171 
L 110.529427 69.451138 
L 111.421668 68.493791 
L 111.600116 68.308474 
L 111.644728 68.469917 
L 111.733952 68.40603 
L 111.867789 68.278999 
L 111.912401 68.606911 
L 112.001625 68.521742 
L 112.53697 68.030611 
L 112.581582 68.203063 
L 112.670806 68.115133 
L 113.072314 67.753063 
L 113.295375 67.536407 
L 113.339987 67.739765 
L 113.429211 67.671285 
L 113.607659 67.611185 
L 113.652271 67.758622 
L 113.696883 67.704687 
L 113.964556 67.456575 
L 114.009168 67.505658 
L 114.098392 68.001869 
L 114.187616 67.913795 
L 114.633737 67.513326 
L 114.678349 67.635935 
L 114.767573 67.556694 
L 114.901409 67.433264 
L 114.946021 67.64674 
L 115.035245 67.560263 
L 115.213694 67.397098 
L 115.258306 67.517925 
L 115.34753 67.444416 
L 115.436754 67.374723 
L 115.481366 67.506025 
L 115.57059 67.437807 
L 116.239771 66.890325 
L 116.284383 67.077433 
L 116.373607 66.997441 
L 116.64128 66.913446 
L 116.775116 66.82795 
L 116.819728 66.964901 
L 116.908952 66.905991 
L 117.622745 66.52484 
L 117.667357 66.683634 
L 117.756581 66.634043 
L 117.890418 66.539809 
L 117.93503 66.707247 
L 118.024254 66.641914 
L 118.38115 66.501024 
L 118.604211 66.37332 
L 118.738047 66.629513 
L 119.273392 66.3786 
L 119.362616 66.335367 
L 119.45184 66.597025 
L 119.541064 66.541253 
L 119.808736 66.363514 
L 120.076409 66.791025 
L 120.52253 66.596737 
L 120.656366 66.634467 
L 121.102486 66.424723 
L 121.236323 67.036914 
L 121.280935 67.015544 
L 121.771667 66.868353 
L 121.950116 67.035223 
L 122.083952 66.991187 
L 122.128564 67.248615 
L 122.217788 67.212249 
L 122.351624 67.159667 
L 122.396236 67.30003 
L 122.48546 67.262514 
L 122.842357 67.288394 
L 123.020805 67.46202 
L 123.110029 67.428248 
L 123.154641 67.612723 
L 123.243866 67.575829 
L 123.33309 67.528777 
L 123.422314 67.712463 
L 123.466926 67.687669 
L 123.77921 67.578068 
L 123.868435 67.70112 
L 123.913047 67.672262 
L 124.046883 67.611112 
L 124.180719 67.785085 
L 124.403779 67.68986 
L 124.537616 67.754745 
L 124.62684 67.714785 
L 124.8499 68.18616 
L 124.894512 68.165098 
L 125.652917 67.838845 
L 125.831366 68.043824 
L 125.92059 68.121764 
L 126.054426 68.12527 
L 126.277486 68.045031 
L 126.500547 68.458849 
L 126.857443 68.319788 
L 126.991279 68.346728 
L 127.526624 68.163636 
L 127.705072 68.522361 
L 127.972745 68.525487 
L 128.106581 68.550373 
L 128.240417 68.486757 
L 128.374253 68.571142 
L 128.597314 68.508281 
L 128.686538 68.757604 
L 128.775762 68.721973 
L 128.864986 68.705643 
L 128.909598 68.904313 
L 128.998822 68.870943 
L 129.221883 68.795087 
L 129.355719 68.909318 
L 129.578779 68.945425 
L 129.623391 69.167094 
L 129.712615 69.146002 
L 130.069512 69.093561 
L 130.158736 69.34348 
L 130.24796 69.304803 
L 131.006365 69.154007 
L 131.140201 69.398306 
L 131.184814 69.384908 
L 131.675546 69.278684 
L 131.853995 69.398682 
L 132.83546 69.258878 
L 132.880072 69.394081 
L 132.969296 69.361307 
L 133.192357 69.30568 
L 133.281581 69.444435 
L 133.326193 69.428928 
L 133.593865 69.471371 
L 133.638477 69.463338 
L 133.772313 69.543272 
L 134.396882 69.366703 
L 134.530719 69.414643 
L 134.887615 69.41353 
L 136.449037 69.247218 
L 136.805934 69.215571 
L 136.93977 69.325348 
L 137.564339 69.168262 
L 137.742787 69.293958 
L 137.921236 69.310909 
L 137.965848 69.456512 
L 138.055072 69.427776 
L 138.858089 69.3398 
L 138.991925 69.439429 
L 140.731796 69.323416 
L 140.865632 69.380858 
L 141.579425 69.308449 
L 141.668649 69.426473 
L 141.713261 69.410363 
L 141.847098 69.378189 
L 141.89171 69.543439 
L 141.980934 69.509037 
L 142.293218 69.487707 
L 142.427054 69.577262 
L 143.18546 69.545113 
L 143.319296 69.599295 
L 143.542356 69.666836 
L 143.676192 69.754509 
L 144.389985 69.761386 
L 144.568434 69.93113 
L 144.613046 69.922035 
L 144.791494 70.079723 
L 145.282227 70.053656 
L 145.460675 70.176342 
L 145.728347 70.174328 
L 145.862184 70.359265 
L 146.263692 70.331765 
L 146.531365 70.583304 
L 147.066709 70.511131 
L 147.245158 70.67938 
L 147.646666 70.677291 
L 147.869727 70.94989 
L 148.092787 70.89861 
L 148.315847 71.154284 
L 148.494296 71.203479 
L 148.628132 71.35862 
L 149.02964 71.575149 
L 149.208089 71.613996 
L 149.341925 71.702782 
L 149.475761 71.785241 
L 149.743433 71.727765 
L 149.87727 71.844238 
L 150.234166 71.838035 
L 150.546451 72.129249 
L 150.903347 72.148068 
L 151.037183 72.216287 
L 151.126408 72.301508 
L 151.260244 72.357336 
L 151.304856 72.345187 
L 151.438692 72.45079 
L 151.61714 72.473512 
L 152.018649 72.518297 
L 152.197097 72.685521 
L 152.821666 72.695267 
L 152.955502 72.776613 
L 153.98158 72.701263 
L 154.115416 72.80941 
L 154.873821 72.710708 
L 155.007657 72.806383 
L 155.632226 72.861295 
L 155.766063 72.906832 
L 156.256795 72.853474 
L 156.390631 72.935002 
L 157.86283 72.863513 
L 158.844295 72.857781 
L 158.978131 72.923388 
L 159.201192 72.975989 
L 159.335028 73.040892 
L 159.558088 73.056923 
L 159.691924 73.124027 
L 159.914985 73.172198 
L 160.048821 73.25119 
L 160.718002 73.225542 
L 160.851838 73.30716 
L 161.119511 73.34235 
L 161.253347 73.415445 
L 161.654855 73.443924 
L 161.788692 73.527426 
L 162.100976 73.608703 
L 162.234812 73.667758 
L 162.903993 73.650231 
L 163.082442 73.783417 
L 163.350114 73.830077 
L 163.662398 73.93155 
L 164.153131 74.02501 
L 164.376191 74.149674 
L 164.911536 74.219658 
L 165.089985 74.396574 
L 165.714553 74.400408 
L 165.982226 74.489438 
L 166.383734 74.556241 
L 166.562183 74.668618 
L 166.785243 74.74542 
L 166.963691 74.785799 
L 167.3652 74.809589 
L 167.58826 74.888993 
L 168.346665 74.918691 
L 168.525114 75.0397 
L 169.774252 74.95958 
L 171.647958 74.93545 
L 171.826407 74.964246 
L 173.120157 74.976898 
L 173.253993 75.029885 
L 174.101622 75.044928 
L 174.28007 75.075279 
L 175.261536 75.087481 
L 175.484596 75.165627 
L 176.956794 75.260138 
L 177.135243 75.317301 
L 177.893648 75.342325 
L 178.072096 75.391372 
L 180.481148 75.422393 
L 180.659596 75.461042 
L 181.864122 75.505436 
L 182.04257 75.538225 
L 184.317785 75.574208 
L 184.540846 75.619549 
L 186.191492 75.68047 
L 186.414553 75.702327 
L 188.288259 75.791829 
L 188.466708 75.827185 
L 189.582009 75.889106 
L 189.760458 75.923856 
L 191.768001 75.956913 
L 191.991061 75.981971 
L 192.303345 76.050763 
L 192.526406 76.112702 
L 194.623173 76.170977 
L 194.801621 76.204439 
L 195.470802 76.265693 
L 195.64925 76.321204 
L 196.541492 76.362556 
L 196.987613 76.431032 
L 197.210673 76.495518 
L 197.701406 76.59049 
L 197.924466 76.616475 
L 199.08438 76.646918 
L 199.352052 76.665539 
L 199.887397 76.762051 
L 200.244293 76.772742 
L 201.627267 76.835197 
L 201.805716 76.908511 
L 202.697957 76.970943 
L 202.876405 77.035729 
L 203.902483 77.116156 
L 204.080931 77.152184 
L 205.77619 77.258349 
L 206.936103 77.342081 
L 208.229853 77.426154 
L 208.452914 77.453074 
L 209.702052 77.550135 
L 209.925112 77.579344 
L 214.430931 77.687106 
L 215.323172 77.723596 
L 220.275112 77.826053 
L 220.67662 77.840639 
L 224.111749 77.95001 
L 224.290198 77.986457 
L 226.431577 78.087577 
L 226.699249 78.10943 
L 227.814551 78.211385 
L 228.171447 78.224774 
L 229.866706 78.319404 
L 230.089766 78.348514 
L 233.167999 78.458438 
L 233.703344 78.523886 
L 235.309378 78.63293 
L 235.666275 78.645099 
L 238.699895 78.752454 
L 238.922956 78.781504 
L 239.770585 78.880178 
L 240.127481 78.945499 
L 242.090412 79.05433 
L 242.268861 79.090597 
L 246.283947 79.19099 
L 246.551619 79.210939 
L 247.934593 79.309989 
L 248.246878 79.344409 
L 253.421877 79.443438 
L 253.644938 79.494096 
L 256.544722 79.597792 
L 256.812394 79.662877 
L 258.061532 79.752625 
L 258.284593 79.781533 
L 260.069075 79.861015 
L 260.247524 79.897135 
L 261.362825 80.00425 
L 261.585886 80.054788 
L 265.645584 80.159391 
L 266.00248 80.217109 
L 267.786963 80.322235 
L 268.054635 80.343866 
L 270.419075 80.447697 
L 270.686747 80.505342 
L 272.828127 80.603111 
L 273.452695 80.696715 
L 276.040195 80.793157 
L 276.218644 80.829132 
L 278.181575 80.917691 
L 278.449247 80.975215 
L 280.769074 81.073989 
L 280.992135 81.102734 
L 283.401186 81.213324 
L 283.668859 81.263594 
L 284.873385 81.356928 
L 285.141057 81.414347 
L 286.791704 81.515083 
L 287.37166 81.586801 
L 288.44235 81.672836 
L 288.66541 81.699622 
L 292.145152 81.809234 
L 292.635884 81.862122 
L 293.171229 81.948044 
L 293.438902 82.026781 
L 295.892565 82.130308 
L 296.20485 82.208984 
L 299.104634 82.305902 
L 299.372306 82.36308 
L 302.450539 82.467066 
L 302.673599 82.517063 
L 304.145798 82.60861 
L 304.41347 82.663795 
L 307.536315 82.765058 
L 307.803987 82.805287 
L 308.740841 82.905117 
L 309.008513 82.926504 
L 311.551401 83.023063 
L 311.819073 83.044439 
L 314.272737 83.121511 
L 314.272737 83.121511 
" clip-path="url(#p01ee9d034a)" style="fill: none; stroke: #d62728; stroke-width: 1.8; stroke-linecap: square"/>
   </g>
   <g id="line2d_33">
    <path d="M 77.427273 75.721792 
L 77.471885 76.116142 
L 77.516497 78.399996 
L 77.694945 56.256771 
L 77.784169 62.366482 
L 77.828781 59.280944 
L 77.873393 56.672039 
L 78.00723 70.864948 
L 78.364126 58.526113 
L 78.721023 52.111143 
L 79.211755 47.506347 
L 79.568652 45.600686 
L 80.014773 43.820471 
L 80.639342 42.159647 
L 81.130074 41.272975 
L 82.11154 40.036871 
L 83.003781 39.341889 
L 83.717574 38.950308 
L 85.011324 38.398172 
L 89.918652 37.326758 
L 92.461539 37.046337 
L 99.554858 36.601516 
L 114.187616 36.226362 
L 128.061969 36.130132 
L 128.329641 36.40435 
L 128.597314 36.504 
L 128.820374 36.769565 
L 129.534167 36.810953 
L 129.712615 36.943613 
L 130.738693 37.051049 
L 131.54171 37.232927 
L 132.210891 37.331946 
L 132.389339 37.398123 
L 133.995374 37.480558 
L 134.173822 37.521893 
L 135.735244 37.595999 
L 135.958305 37.68673 
L 136.672098 37.728026 
L 136.805934 37.8106 
L 138.099684 37.893084 
L 138.322744 37.975339 
L 139.616494 38.04109 
L 139.794943 38.115308 
L 140.419511 38.140042 
L 140.553348 38.23896 
L 141.802486 38.320747 
L 142.11477 38.444281 
L 142.783951 38.526358 
L 143.140848 38.707377 
L 143.63158 38.764859 
L 143.810029 38.847083 
L 144.92533 38.953939 
L 145.103778 39.010926 
L 146.129856 39.084654 
L 146.352916 39.232441 
L 147.245158 39.273479 
L 147.423606 39.380151 
L 148.048175 39.470381 
L 148.226623 39.519585 
L 148.761968 39.601572 
L 148.985028 39.634131 
L 151.483304 39.723157 
L 151.661752 39.764111 
L 152.598606 39.813247 
L 152.777054 39.944236 
L 153.624683 40.017891 
L 153.803132 40.132427 
L 155.319942 40.2303 
L 155.453778 40.303876 
L 155.543002 40.377434 
L 155.72145 40.442802 
L 156.925976 40.49119 
L 157.104425 40.597349 
L 159.201192 40.686854 
L 159.37964 40.727658 
L 160.271881 40.776173 
L 160.405718 40.849587 
L 162.413261 40.955596 
L 162.636321 41.020813 
L 163.617786 41.053415 
L 163.796235 41.183788 
L 165.313045 41.265079 
L 165.491493 41.322081 
L 165.893002 41.395351 
L 166.07145 41.468603 
L 167.14214 41.533107 
L 167.320588 41.581914 
L 168.480502 41.654765 
L 168.703562 41.76858 
L 169.9527 41.816015 
L 170.086536 41.905375 
L 170.577269 41.962226 
L 170.800329 42.067775 
L 171.068002 42.132709 
L 171.737183 42.205554 
L 171.915631 42.246118 
L 173.432441 42.334763 
L 173.700113 42.359089 
L 174.726191 42.432055 
L 174.949251 42.618438 
L 176.42145 42.714719 
L 176.599898 42.763298 
L 178.919725 42.859498 
L 179.053562 42.940405 
L 179.544294 43.029376 
L 179.722743 43.077894 
L 180.124251 43.125546 
L 180.258087 43.198286 
L 180.704208 43.286071 
L 180.927268 43.366835 
L 183.157872 43.415282 
L 183.291708 43.50408 
L 185.076191 43.599666 
L 185.343863 43.680326 
L 188.199035 43.791115 
L 188.377484 43.83141 
L 188.95744 43.936151 
L 189.180501 43.992534 
L 190.831147 44.072097 
L 191.009596 44.128446 
L 192.347958 44.224528 
L 192.481794 44.31178 
L 195.872311 44.814446 
L 198.01369 44.907686 
L 198.415199 45.0751 
L 199.396664 45.179259 
L 199.5305 45.259354 
L 200.065845 45.330593 
L 200.244293 45.370619 
L 201.181147 45.465958 
L 201.359595 45.513961 
L 202.341061 45.601947 
L 202.519509 45.673914 
L 204.437828 45.776103 
L 204.616276 45.943865 
L 206.22231 46.039388 
L 206.489983 46.206987 
L 208.36369 46.284794 
L 208.675974 46.452216 
L 209.166707 46.54784 
L 209.746664 46.643432 
L 210.326621 46.746952 
L 210.594293 46.770836 
L 212.646448 46.880991 
L 212.824896 46.928729 
L 215.27856 47.038143 
L 215.680069 47.141488 
L 216.260025 47.19712 
L 216.438474 47.300406 
L 217.509163 47.340121 
L 217.643 47.419535 
L 217.999896 47.450457 
L 218.133732 47.545706 
L 218.847525 47.617122 
L 219.070586 47.703528 
L 220.542784 47.813333 
L 220.721232 47.875529 
L 222.951836 47.980509 
L 223.26412 48.035927 
L 223.621017 48.097662 
L 223.754853 48.168872 
L 225.003991 48.230552 
L 225.137827 48.30172 
L 226.253129 48.386334 
L 226.386965 48.465349 
L 227.413042 48.527816 
L 227.546878 48.598891 
L 228.216059 48.653423 
L 228.349896 48.732353 
L 228.528344 48.811261 
L 228.706792 48.850706 
L 229.063689 48.937467 
L 229.242137 48.98478 
L 229.73287 49.093625 
L 230.045154 49.274824 
L 230.937396 49.345695 
L 231.115844 49.416549 
L 231.785025 49.50195 
L 232.008085 49.533423 
L 233.257223 49.610118 
L 233.480283 49.728058 
L 234.283301 49.813717 
L 234.461749 49.939419 
L 235.220154 50.032036 
L 235.35399 50.110535 
L 236.603128 50.211115 
L 236.826188 50.247253 
L 237.807654 50.317206 
L 237.986102 50.386929 
L 239.725973 50.484623 
L 239.904421 50.531616 
L 240.52899 50.631719 
L 240.841274 50.764758 
L 241.376619 50.858202 
L 241.59968 50.889485 
L 243.428774 50.989188 
L 243.696447 51.012636 
L 245.302481 51.06604 
L 245.436317 51.159787 
L 248.73761 51.225917 
L 248.916059 51.31178 
L 249.540628 51.373546 
L 249.719076 51.428158 
L 250.700541 51.529551 
L 250.87899 51.576336 
L 252.797308 51.682318 
L 252.975757 51.822542 
L 255.474032 51.928815 
L 255.697093 51.959949 
L 256.946231 52.052869 
L 257.080067 52.146216 
L 258.730713 52.252754 
L 258.909162 52.299391 
L 259.756791 52.383699 
L 259.935239 52.43031 
L 260.827481 52.52351 
L 260.961317 52.601152 
L 261.719722 52.707904 
L 261.89817 52.746698 
L 265.021015 52.829138 
L 265.244075 52.960934 
L 266.894722 53.013969 
L 267.028558 53.0837 
L 268.36692 53.191643 
L 268.500756 53.261327 
L 270.686747 53.357493 
L 270.909808 53.458055 
L 271.846661 53.486497 
L 271.980497 53.556078 
L 273.051187 53.664029 
L 273.274247 53.74129 
L 275.594075 53.84459 
L 275.772523 53.898625 
L 276.040195 53.921779 
L 276.441704 53.951372 
L 276.620152 54.059381 
L 276.843213 54.144215 
L 277.64623 54.166314 
L 277.780066 54.243403 
L 278.806144 54.342544 
L 279.296876 54.492653 
L 280.099893 54.583968 
L 281.661316 54.683201 
L 281.884376 54.781547 
L 282.241273 54.858397 
L 282.419721 54.91718 
L 283.535023 54.993173 
L 283.713471 55.031564 
L 284.694936 55.131356 
L 285.185669 55.185075 
L 285.944074 55.259889 
L 286.256359 55.47458 
L 287.907005 55.534508 
L 288.174678 55.764283 
L 289.557652 55.817869 
L 289.7361 55.879098 
L 290.628341 55.940313 
L 290.80679 55.992171 
L 291.966703 56.059302 
L 292.145152 56.120467 
L 292.457436 56.212189 
L 292.769721 56.433723 
L 294.018858 56.523024 
L 294.152695 56.60697 
L 294.821876 56.70206 
L 295.044936 56.83871 
L 296.249462 56.945399 
L 296.472522 56.975874 
L 297.632436 57.057587 
L 297.989332 57.194629 
L 298.703125 57.276546 
L 298.881574 57.322194 
L 299.506143 57.432662 
L 299.863039 57.501081 
L 301.022953 57.548222 
L 302.227479 57.61325 
L 302.405927 57.719554 
L 303.030496 57.7651 
L 303.164332 57.840993 
L 303.387393 57.939623 
L 303.565841 57.985133 
L 304.145798 58.068547 
L 304.279634 58.144357 
L 306.331789 58.200939 
L 306.554849 58.397868 
L 308.383944 58.491234 
L 308.51778 58.55933 
L 309.722306 58.656391 
L 309.945366 58.830266 
L 310.837608 58.905829 
L 311.016056 58.964336 
L 311.997521 59.035342 
L 312.17597 59.088183 
L 314.361961 59.184021 
L 314.585021 59.259457 
L 317.172521 59.352269 
L 317.306357 59.420106 
L 317.618642 59.472855 
L 317.752478 59.539675 
L 318.109375 59.637584 
L 318.287823 59.682761 
L 318.555495 59.735458 
L 318.733944 59.795671 
L 320.518426 59.868586 
L 320.652262 59.936285 
L 321.544504 59.981408 
L 321.722952 60.079149 
L 321.9014 60.124249 
L 322.704418 60.232909 
L 322.882866 60.285486 
L 323.552047 60.35307 
L 323.730495 60.41313 
L 324.533512 60.466699 
L 325.158081 60.504213 
L 325.291917 60.576828 
L 326.317995 60.6818 
L 326.585667 60.70085 
L 328.236314 60.802895 
L 328.459374 60.90772 
L 329.083943 60.975086 
L 329.396228 61.211672 
L 330.288469 61.265863 
L 330.511529 61.377945 
L 331.225322 61.460109 
L 331.359159 61.527315 
L 332.385236 61.631826 
L 332.608296 61.691528 
L 333.991271 61.799856 
L 334.258943 61.852056 
L 335.775753 61.962081 
L 336.043426 61.979756 
L 338.363253 62.055206 
L 338.541701 62.096992 
L 339.701615 62.193762 
L 339.969288 62.268176 
L 342.021443 62.355987 
L 342.244503 62.385736 
L 343.04752 62.489831 
L 343.315193 62.512132 
L 344.787391 62.599109 
L 345.010451 62.665974 
L 346.527261 62.769953 
L 346.92877 62.918425 
L 348.267132 63.027859 
L 348.490192 63.072364 
L 348.847089 63.161352 
L 349.025537 63.205835 
L 350.319287 63.275059 
L 350.497735 63.334332 
L 350.631572 63.40727 
L 350.81002 63.466512 
L 351.300753 63.551548 
L 351.613037 63.647745 
L 354.91433 63.744032 
L 355.092778 63.788391 
L 355.583511 63.853764 
L 355.761959 63.912882 
L 357.591054 64.009358 
L 357.814114 64.038894 
L 358.572519 64.141081 
L 358.750968 64.200118 
L 359.598597 64.305712 
L 359.777045 64.38682 
L 360.044718 64.430269 
L 360.178554 64.503968 
L 361.249244 64.601214 
L 361.427692 64.711662 
L 362.453769 64.806556 
L 362.721442 64.850706 
L 364.818209 64.955878 
L 365.085881 65.066159 
L 366.379631 65.161699 
L 366.558079 65.21313 
L 369.234804 65.315962 
L 369.5917 65.330649 
L 371.777691 65.415526 
L 372.134588 65.518269 
L 374.320579 65.628308 
L 374.54364 65.657645 
L 375.525105 65.745634 
L 375.703553 65.782288 
L 376.417346 65.848252 
L 376.551183 65.921527 
L 379.807863 66.031403 
L 379.986312 66.089984 
L 380.343208 66.148554 
L 380.566269 66.283457 
L 382.618424 66.375217 
L 382.97532 66.492189 
L 384.090622 66.550656 
L 384.26907 66.672758 
L 386.678122 66.740054 
L 386.85657 66.798437 
L 387.168854 66.891595 
L 387.391915 66.979111 
L 387.92726 67.036591 
L 388.105708 67.102193 
L 389.399458 67.184102 
L 389.533294 67.264222 
L 390.470147 67.366159 
L 390.693208 67.468057 
L 391.228553 67.708092 
L 391.540837 67.817129 
L 391.719285 67.867997 
L 393.057647 67.965349 
L 393.236096 68.074265 
L 396.314328 68.18338 
L 396.492777 68.225591 
L 397.875751 68.313924 
L 398.098811 68.386396 
L 399.124888 68.492856 
L 399.392561 68.554491 
L 400.597087 68.655082 
L 400.775535 68.778061 
L 402.247733 68.857606 
L 402.426181 68.890181 
L 402.738466 68.948003 
L 402.916914 69.005813 
L 404.12144 69.106951 
L 404.3445 69.189555 
L 404.969069 69.283393 
L 405.147518 69.384413 
L 406.084371 69.485396 
L 406.262819 69.535873 
L 407.511957 69.626398 
L 408.047302 69.770503 
L 408.761095 69.826747 
L 408.894931 69.898752 
L 410.188681 69.974713 
L 410.367129 70.039477 
L 411.214759 70.068255 
L 414.6945 70.162732 
L 414.962172 70.184297 
L 417.058939 70.205861 
L 417.058939 70.205861 
" clip-path="url(#p01ee9d034a)" style="fill: none; stroke: #9467bd; stroke-width: 1.8; stroke-linecap: square"/>
   </g>
   <g id="patch_3">
    <path d="M 54.2 260.44 
L 54.2 25.44 
" style="fill: none; stroke: #000000; stroke-width: 0.8; stroke-linejoin: miter; stroke-linecap: square"/>
   </g>
   <g id="patch_4">
    <path d="M 565.2 260.44 
L 565.2 25.44 
" style="fill: none; stroke: #000000; stroke-width: 0.8; stroke-linejoin: miter; stroke-linecap: square"/>
   </g>
   <g id="patch_5">
    <path d="M 54.2 260.44 
L 565.2 260.44 
" style="fill: none; stroke: #000000; stroke-width: 0.8; stroke-linejoin: miter; stroke-linecap: square"/>
   </g>
   <g id="patch_6">
    <path d="M 54.2 25.44 
L 565.2 25.44 
" style="fill: none; stroke: #000000; stroke-width: 0.8; stroke-linejoin: miter; stroke-linecap: square"/>
   </g>
   <g id="text_17">
    <!-- Timely Transfer Rate (Cumulative) -->
    <g transform="translate(207.277187 19.44) scale(0.12 -0.12)">
     <defs>
      <path id="DejaVuSans-54" d="M -19 4666 
L 3928 4666 
L 3928 4134 
L 2272 4134 
L 2272 0 
L 1638 0 
L 1638 4134 
L -19 4134 
L -19 4666 
z
" transform="scale(0.015625)"/>
      <path id="DejaVuSans-52" d="M 2841 2188 
Q 3044 2119 3236 1894 
Q 3428 1669 3622 1275 
L 4263 0 
L 3584 0 
L 2988 1197 
Q 2756 1666 2539 1819 
Q 2322 1972 1947 1972 
L 1259 1972 
L 1259 0 
L 628 0 
L 628 4666 
L 2053 4666 
Q 2853 4666 3247 4331 
Q 3641 3997 3641 3322 
Q 3641 2881 3436 2590 
Q 3231 2300 2841 2188 
z
M 1259 4147 
L 1259 2491 
L 2053 2491 
Q 2509 2491 2742 2702 
Q 2975 2913 2975 3322 
Q 2975 3731 2742 3939 
Q 2509 4147 2053 4147 
L 1259 4147 
z
" transform="scale(0.015625)"/>
      <path id="DejaVuSans-28" d="M 1984 4856 
Q 1566 4138 1362 3434 
Q 1159 2731 1159 2009 
Q 1159 1288 1364 580 
Q 1569 -128 1984 -844 
L 1484 -844 
Q 1016 -109 783 600 
Q 550 1309 550 2009 
Q 550 2706 781 3412 
Q 1013 4119 1484 4856 
L 1984 4856 
z
" transform="scale(0.015625)"/>
      <path id="DejaVuSans-43" d="M 4122 4306 
L 4122 3641 
Q 3803 3938 3442 4084 
Q 3081 4231 2675 4231 
Q 1875 4231 1450 3742 
Q 1025 3253 1025 2328 
Q 1025 1406 1450 917 
Q 1875 428 2675 428 
Q 3081 428 3442 575 
Q 3803 722 4122 1019 
L 4122 359 
Q 3791 134 3420 21 
Q 3050 -91 2638 -91 
Q 1578 -91 968 557 
Q 359 1206 359 2328 
Q 359 3453 968 4101 
Q 1578 4750 2638 4750 
Q 3056 4750 3426 4639 
Q 3797 4528 4122 4306 
z
" transform="scale(0.015625)"/>
      <path id="DejaVuSans-29" d="M 513 4856 
L 1013 4856 
Q 1481 4119 1714 3412 
Q 1947 2706 1947 2009 
Q 1947 1309 1714 600 
Q 1481 -109 1013 -844 
L 513 -844 
Q 928 -128 1133 580 
Q 1338 1288 1338 2009 
Q 1338 2731 1133 3434 
Q 928 4138 513 4856 
z
" transform="scale(0.015625)"/>
     </defs>
     <use xlink:href="#DejaVuSans-54"/>
     <use xlink:href="#DejaVuSans-69" x="57.958984"/>
     <use xlink:href="#DejaVuSans-6d" x="85.742188"/>
     <use xlink:href="#DejaVuSans-65" x="183.154297"/>
     <use xlink:href="#DejaVuSans-6c" x="244.677734"/>
     <use xlink:href="#DejaVuSans-79" x="272.460938"/>
     <use xlink:href="#DejaVuSans-20" x="331.640625"/>
     <use xlink:href="#DejaVuSans-54" x="363.427734"/>
     <use xlink:href="#DejaVuSans-72" x="409.761719"/>
     <use xlink:href="#DejaVuSans-61" x="450.875"/>
     <use xlink:href="#DejaVuSans-6e" x="512.154297"/>
     <use xlink:href="#DejaVuSans-73" x="575.533203"/>
     <use xlink:href="#DejaVuSans-66" x="627.632812"/>
     <use xlink:href="#DejaVuSans-65" x="662.837891"/>
     <use xlink:href="#DejaVuSans-72" x="724.361328"/>
     <use xlink:href="#DejaVuSans-20" x="765.474609"/>
     <use xlink:href="#DejaVuSans-52" x="797.261719"/>
     <use xlink:href="#DejaVuSans-61" x="864.494141"/>
     <use xlink:href="#DejaVuSans-74" x="925.773438"/>
     <use xlink:href="#DejaVuSans-65" x="964.982422"/>
     <use xlink:href="#DejaVuSans-20" x="1026.505859"/>
     <use xlink:href="#DejaVuSans-28" x="1058.292969"/>
     <use xlink:href="#DejaVuSans-43" x="1097.306641"/>
     <use xlink:href="#DejaVuSans-75" x="1167.130859"/>
     <use xlink:href="#DejaVuSans-6d" x="1230.509766"/>
     <use xlink:href="#DejaVuSans-75" x="1327.921875"/>
     <use xlink:href="#DejaVuSans-6c" x="1391.300781"/>
     <use xlink:href="#DejaVuSans-61" x="1419.083984"/>
     <use xlink:href="#DejaVuSans-74" x="1480.363281"/>
     <use xlink:href="#DejaVuSans-69" x="1519.572266"/>
     <use xlink:href="#DejaVuSans-76" x="1547.355469"/>
     <use xlink:href="#DejaVuSans-65" x="1606.535156"/>
     <use xlink:href="#DejaVuSans-29" x="1668.058594"/>
    </g>
   </g>
   <g id="legend_1">
    <g id="patch_7">
     <path d="M 480.614062 255.44 
L 558.2 255.44 
Q 560.2 255.44 560.2 253.44 
L 560.2 180.493125 
Q 560.2 178.493125 558.2 178.493125 
L 480.614062 178.493125 
Q 478.614062 178.493125 478.614062 180.493125 
L 478.614062 253.44 
Q 478.614062 255.44 480.614062 255.44 
z
" style="fill: #ffffff; opacity: 0.8; stroke: #cccccc; stroke-linejoin: miter"/>
    </g>
    <g id="line2d_34">
     <path d="M 482.614062 186.591563 
L 492.614062 186.591563 
L 502.614062 186.591563 
" style="fill: none; stroke: #1f77b4; stroke-width: 1.8; stroke-linecap: square"/>
    </g>
    <g id="text_18">
     <!-- sheer -->
     <g transform="translate(510.614062 190.091563) scale(0.1 -0.1)">
      <defs>
       <path id="DejaVuSans-68" d="M 3513 2113 
L 3513 0 
L 2938 0 
L 2938 2094 
Q 2938 2591 2744 2837 
Q 2550 3084 2163 3084 
Q 1697 3084 1428 2787 
Q 1159 2491 1159 1978 
L 1159 0 
L 581 0 
L 581 4863 
L 1159 4863 
L 1159 2956 
Q 1366 3272 1645 3428 
Q 1925 3584 2291 3584 
Q 2894 3584 3203 3211 
Q 3513 2838 3513 2113 
z
" transform="scale(0.015625)"/>
      </defs>
      <use xlink:href="#DejaVuSans-73"/>
      <use xlink:href="#DejaVuSans-68" x="52.099609"/>
      <use xlink:href="#DejaVuSans-65" x="115.478516"/>
      <use xlink:href="#DejaVuSans-65" x="177.001953"/>
      <use xlink:href="#DejaVuSans-72" x="238.525391"/>
     </g>
    </g>
    <g id="line2d_35">
     <path d="M 482.614062 201.269688 
L 492.614062 201.269688 
L 502.614062 201.269688 
" style="fill: none; stroke: #ff7f0e; stroke-width: 1.8; stroke-linecap: square"/>
    </g>
    <g id="text_19">
     <!-- actar -->
     <g transform="translate(510.614062 204.769688) scale(0.1 -0.1)">
      <use xlink:href="#DejaVuSans-61"/>
      <use xlink:href="#DejaVuSans-63" x="61.279297"/>
      <use xlink:href="#DejaVuSans-74" x="116.259766"/>
      <use xlink:href="#DejaVuSans-61" x="155.46875"/>
      <use xlink:href="#DejaVuSans-72" x="216.748047"/>
     </g>
    </g>
    <g id="line2d_36">
     <path d="M 482.614062 215.947813 
L 492.614062 215.947813 
L 502.614062 215.947813 
" style="fill: none; stroke: #2ca02c; stroke-width: 1.8; stroke-linecap: square"/>
    </g>
    <g id="text_20">
     <!-- tfsm_dpc -->
     <g transform="translate(510.614062 219.447813) scale(0.1 -0.1)">
      <defs>
       <path id="DejaVuSans-5f" d="M 3263 -1063 
L 3263 -1509 
L -63 -1509 
L -63 -1063 
L 3263 -1063 
z
" transform="scale(0.015625)"/>
       <path id="DejaVuSans-70" d="M 1159 525 
L 1159 -1331 
L 581 -1331 
L 581 3500 
L 1159 3500 
L 1159 2969 
Q 1341 3281 1617 3432 
Q 1894 3584 2278 3584 
Q 2916 3584 3314 3078 
Q 3713 2572 3713 1747 
Q 3713 922 3314 415 
Q 2916 -91 2278 -91 
Q 1894 -91 1617 61 
Q 1341 213 1159 525 
z
M 3116 1747 
Q 3116 2381 2855 2742 
Q 2594 3103 2138 3103 
Q 1681 3103 1420 2742 
Q 1159 2381 1159 1747 
Q 1159 1113 1420 752 
Q 1681 391 2138 391 
Q 2594 391 2855 752 
Q 3116 1113 3116 1747 
z
" transform="scale(0.015625)"/>
      </defs>
      <use xlink:href="#DejaVuSans-74"/>
      <use xlink:href="#DejaVuSans-66" x="39.208984"/>
      <use xlink:href="#DejaVuSans-73" x="74.414062"/>
      <use xlink:href="#DejaVuSans-6d" x="126.513672"/>
      <use xlink:href="#DejaVuSans-5f" x="223.925781"/>
      <use xlink:href="#DejaVuSans-64" x="273.925781"/>
      <use xlink:href="#DejaVuSans-70" x="337.402344"/>
      <use xlink:href="#DejaVuSans-63" x="400.878906"/>
     </g>
    </g>
    <g id="line2d_37">
     <path d="M 482.614062 230.904063 
L 492.614062 230.904063 
L 502.614062 230.904063 
" style="fill: none; stroke: #d62728; stroke-width: 1.8; stroke-linecap: square"/>
    </g>
    <g id="text_21">
     <!-- dst_woa -->
     <g transform="translate(510.614062 234.404063) scale(0.1 -0.1)">
      <defs>
       <path id="DejaVuSans-77" d="M 269 3500 
L 844 3500 
L 1563 769 
L 2278 3500 
L 2956 3500 
L 3675 769 
L 4391 3500 
L 4966 3500 
L 4050 0 
L 3372 0 
L 2619 2869 
L 1863 0 
L 1184 0 
L 269 3500 
z
" transform="scale(0.015625)"/>
      </defs>
      <use xlink:href="#DejaVuSans-64"/>
      <use xlink:href="#DejaVuSans-73" x="63.476562"/>
      <use xlink:href="#DejaVuSans-74" x="115.576172"/>
      <use xlink:href="#DejaVuSans-5f" x="154.785156"/>
      <use xlink:href="#DejaVuSans-77" x="204.785156"/>
      <use xlink:href="#DejaVuSans-6f" x="286.572266"/>
      <use xlink:href="#DejaVuSans-61" x="347.753906"/>
     </g>
    </g>
    <g id="line2d_38">
     <path d="M 482.614062 245.860313 
L 492.614062 245.860313 
L 502.614062 245.860313 
" style="fill: none; stroke: #9467bd; stroke-width: 1.8; stroke-linecap: square"/>
    </g>
    <g id="text_22">
     <!-- trail -->
     <g transform="translate(510.614062 249.360313) scale(0.1 -0.1)">
      <use xlink:href="#DejaVuSans-74"/>
      <use xlink:href="#DejaVuSans-72" x="39.208984"/>
      <use xlink:href="#DejaVuSans-61" x="80.322266"/>
      <use xlink:href="#DejaVuSans-69" x="141.601562"/>
      <use xlink:href="#DejaVuSans-6c" x="169.384766"/>
     </g>
    </g>
   </g>
  </g>
 </g>
 <defs>
  <clipPath id="p01ee9d034a">
   <rect x="54.2" y="25.44" width="511" height="235"/>
  </clipPath>
 </defs>
</svg>
