<?xml version="1.0" encoding="utf-8" standalone="no"?>
<!DOCTYPE svg PUBLIC "-//W3C//DTD SVG 1.1//EN"
  "http://www.w3.org/Graphics/SVG/1.1/DTD/svg11.dtd">
<svg xmlns:xlink="http://www.w3.org/1999/xlink" width="576pt" height="302.4pt" viewBox="0 0 576 302.4" xmlns="http://www.w3.org/2000/svg" version="1.1">
 <metadata>
  <rdf:RDF xmlns:dc="http://purl.org/dc/elements/1.1/" xmlns:cc="http://creativecommons.org/ns#" xmlns:rdf="http://www.w3.org/1999/02/22-rdf-syntax-ns#">
   <cc:Work>
    <dc:type rdf:resource="http://purl.org/dc/dcmitype/StillImage"/>
    <dc:date>2025-09-05T20:18:28.092910</dc:date>
    <dc:format>image/svg+xml</dc:format>
    <dc:creator>
     <cc:Agent>
      <dc:title>Matplotlib v3.9.4, https://matplotlib.org/</dc:title>
     </cc:Agent>
    </dc:creator>
   </cc:Work>
  </rdf:RDF>
 </metadata>
 <defs>
  <style type="text/css">*{stroke-linejoin: round; stroke-linecap: butt}</style>
 </defs>
 <g id="figure_1">
  <g id="patch_1">
   <path d="M 0 302.4 
L 576 302.4 
L 576 0 
L 0 0 
z
" style="fill: #ffffff"/>
  </g>
  <g id="axes_1">
   <g id="patch_2">
    <path d="M 54.2 260.44 
L 565.2 260.44 
L 565.2 25.44 
L 54.2 25.44 
z
" style="fill: #ffffff"/>
   </g>
   <g id="matplotlib.axis_1">
    <g id="xtick_1">
     <g id="line2d_1">
      <path d="M 77.373243 260.44 
L 77.373243 25.44 
" clip-path="url(#p3c5bcc7013)" style="fill: none; stroke-dasharray: 2.96,1.28; stroke-dashoffset: 0; stroke: #b0b0b0; stroke-opacity: 0.3; stroke-width: 0.8"/>
     </g>
     <g id="line2d_2">
      <defs>
       <path id="m9486042f80" d="M 0 0 
L 0 3.5 
" style="stroke: #000000; stroke-width: 0.8"/>
      </defs>
      <g>
       <use xlink:href="#m9486042f80" x="77.373243" y="260.44" style="stroke: #000000; stroke-width: 0.8"/>
      </g>
     </g>
     <g id="text_1">
      <!-- 0 -->
      <g transform="translate(74.191993 275.038438) scale(0.1 -0.1)">
       <defs>
        <path id="DejaVuSans-30" d="M 2034 4250 
Q 1547 4250 1301 3770 
Q 1056 3291 1056 2328 
Q 1056 1369 1301 889 
Q 1547 409 2034 409 
Q 2525 409 2770 889 
Q 3016 1369 3016 2328 
Q 3016 3291 2770 3770 
Q 2525 4250 2034 4250 
z
M 2034 4750 
Q 2819 4750 3233 4129 
Q 3647 3509 3647 2328 
Q 3647 1150 3233 529 
Q 2819 -91 2034 -91 
Q 1250 -91 836 529 
Q 422 1150 422 2328 
Q 422 3509 836 4129 
Q 1250 4750 2034 4750 
z
" transform="scale(0.015625)"/>
       </defs>
       <use xlink:href="#DejaVuSans-30"/>
      </g>
     </g>
    </g>
    <g id="xtick_2">
     <g id="line2d_3">
      <path d="M 185.4322 260.44 
L 185.4322 25.44 
" clip-path="url(#p3c5bcc7013)" style="fill: none; stroke-dasharray: 2.96,1.28; stroke-dashoffset: 0; stroke: #b0b0b0; stroke-opacity: 0.3; stroke-width: 0.8"/>
     </g>
     <g id="line2d_4">
      <g>
       <use xlink:href="#m9486042f80" x="185.4322" y="260.44" style="stroke: #000000; stroke-width: 0.8"/>
      </g>
     </g>
     <g id="text_2">
      <!-- 2000 -->
      <g transform="translate(172.7072 275.038438) scale(0.1 -0.1)">
       <defs>
        <path id="DejaVuSans-32" d="M 1228 531 
L 3431 531 
L 3431 0 
L 469 0 
L 469 531 
Q 828 903 1448 1529 
Q 2069 2156 2228 2338 
Q 2531 2678 2651 2914 
Q 2772 3150 2772 3378 
Q 2772 3750 2511 3984 
Q 2250 4219 1831 4219 
Q 1534 4219 1204 4116 
Q 875 4013 500 3803 
L 500 4441 
Q 881 4594 1212 4672 
Q 1544 4750 1819 4750 
Q 2544 4750 2975 4387 
Q 3406 4025 3406 3419 
Q 3406 3131 3298 2873 
Q 3191 2616 2906 2266 
Q 2828 2175 2409 1742 
Q 1991 1309 1228 531 
z
" transform="scale(0.015625)"/>
       </defs>
       <use xlink:href="#DejaVuSans-32"/>
       <use xlink:href="#DejaVuSans-30" x="63.623047"/>
       <use xlink:href="#DejaVuSans-30" x="127.246094"/>
       <use xlink:href="#DejaVuSans-30" x="190.869141"/>
      </g>
     </g>
    </g>
    <g id="xtick_3">
     <g id="line2d_5">
      <path d="M 293.491157 260.44 
L 293.491157 25.44 
" clip-path="url(#p3c5bcc7013)" style="fill: none; stroke-dasharray: 2.96,1.28; stroke-dashoffset: 0; stroke: #b0b0b0; stroke-opacity: 0.3; stroke-width: 0.8"/>
     </g>
     <g id="line2d_6">
      <g>
       <use xlink:href="#m9486042f80" x="293.491157" y="260.44" style="stroke: #000000; stroke-width: 0.8"/>
      </g>
     </g>
     <g id="text_3">
      <!-- 4000 -->
      <g transform="translate(280.766157 275.038438) scale(0.1 -0.1)">
       <defs>
        <path id="DejaVuSans-34" d="M 2419 4116 
L 825 1625 
L 2419 1625 
L 2419 4116 
z
M 2253 4666 
L 3047 4666 
L 3047 1625 
L 3713 1625 
L 3713 1100 
L 3047 1100 
L 3047 0 
L 2419 0 
L 2419 1100 
L 313 1100 
L 313 1709 
L 2253 4666 
z
" transform="scale(0.015625)"/>
       </defs>
       <use xlink:href="#DejaVuSans-34"/>
       <use xlink:href="#DejaVuSans-30" x="63.623047"/>
       <use xlink:href="#DejaVuSans-30" x="127.246094"/>
       <use xlink:href="#DejaVuSans-30" x="190.869141"/>
      </g>
     </g>
    </g>
    <g id="xtick_4">
     <g id="line2d_7">
      <path d="M 401.550113 260.44 
L 401.550113 25.44 
" clip-path="url(#p3c5bcc7013)" style="fill: none; stroke-dasharray: 2.96,1.28; stroke-dashoffset: 0; stroke: #b0b0b0; stroke-opacity: 0.3; stroke-width: 0.8"/>
     </g>
     <g id="line2d_8">
      <g>
       <use xlink:href="#m9486042f80" x="401.550113" y="260.44" style="stroke: #000000; stroke-width: 0.8"/>
      </g>
     </g>
     <g id="text_4">
      <!-- 6000 -->
      <g transform="translate(388.825113 275.038438) scale(0.1 -0.1)">
       <defs>
        <path id="DejaVuSans-36" d="M 2113 2584 
Q 1688 2584 1439 2293 
Q 1191 2003 1191 1497 
Q 1191 994 1439 701 
Q 1688 409 2113 409 
Q 2538 409 2786 701 
Q 3034 994 3034 1497 
Q 3034 2003 2786 2293 
Q 2538 2584 2113 2584 
z
M 3366 4563 
L 3366 3988 
Q 3128 4100 2886 4159 
Q 2644 4219 2406 4219 
Q 1781 4219 1451 3797 
Q 1122 3375 1075 2522 
Q 1259 2794 1537 2939 
Q 1816 3084 2150 3084 
Q 2853 3084 3261 2657 
Q 3669 2231 3669 1497 
Q 3669 778 3244 343 
Q 2819 -91 2113 -91 
Q 1303 -91 875 529 
Q 447 1150 447 2328 
Q 447 3434 972 4092 
Q 1497 4750 2381 4750 
Q 2619 4750 2861 4703 
Q 3103 4656 3366 4563 
z
" transform="scale(0.015625)"/>
       </defs>
       <use xlink:href="#DejaVuSans-36"/>
       <use xlink:href="#DejaVuSans-30" x="63.623047"/>
       <use xlink:href="#DejaVuSans-30" x="127.246094"/>
       <use xlink:href="#DejaVuSans-30" x="190.869141"/>
      </g>
     </g>
    </g>
    <g id="xtick_5">
     <g id="line2d_9">
      <path d="M 509.60907 260.44 
L 509.60907 25.44 
" clip-path="url(#p3c5bcc7013)" style="fill: none; stroke-dasharray: 2.96,1.28; stroke-dashoffset: 0; stroke: #b0b0b0; stroke-opacity: 0.3; stroke-width: 0.8"/>
     </g>
     <g id="line2d_10">
      <g>
       <use xlink:href="#m9486042f80" x="509.60907" y="260.44" style="stroke: #000000; stroke-width: 0.8"/>
      </g>
     </g>
     <g id="text_5">
      <!-- 8000 -->
      <g transform="translate(496.88407 275.038438) scale(0.1 -0.1)">
       <defs>
        <path id="DejaVuSans-38" d="M 2034 2216 
Q 1584 2216 1326 1975 
Q 1069 1734 1069 1313 
Q 1069 891 1326 650 
Q 1584 409 2034 409 
Q 2484 409 2743 651 
Q 3003 894 3003 1313 
Q 3003 1734 2745 1975 
Q 2488 2216 2034 2216 
z
M 1403 2484 
Q 997 2584 770 2862 
Q 544 3141 544 3541 
Q 544 4100 942 4425 
Q 1341 4750 2034 4750 
Q 2731 4750 3128 4425 
Q 3525 4100 3525 3541 
Q 3525 3141 3298 2862 
Q 3072 2584 2669 2484 
Q 3125 2378 3379 2068 
Q 3634 1759 3634 1313 
Q 3634 634 3220 271 
Q 2806 -91 2034 -91 
Q 1263 -91 848 271 
Q 434 634 434 1313 
Q 434 1759 690 2068 
Q 947 2378 1403 2484 
z
M 1172 3481 
Q 1172 3119 1398 2916 
Q 1625 2713 2034 2713 
Q 2441 2713 2670 2916 
Q 2900 3119 2900 3481 
Q 2900 3844 2670 4047 
Q 2441 4250 2034 4250 
Q 1625 4250 1398 4047 
Q 1172 3844 1172 3481 
z
" transform="scale(0.015625)"/>
       </defs>
       <use xlink:href="#DejaVuSans-38"/>
       <use xlink:href="#DejaVuSans-30" x="63.623047"/>
       <use xlink:href="#DejaVuSans-30" x="127.246094"/>
       <use xlink:href="#DejaVuSans-30" x="190.869141"/>
      </g>
     </g>
    </g>
    <g id="text_6">
     <!-- round -->
     <g transform="translate(295.185937 288.716563) scale(0.1 -0.1)">
      <defs>
       <path id="DejaVuSans-72" d="M 2631 2963 
Q 2534 3019 2420 3045 
Q 2306 3072 2169 3072 
Q 1681 3072 1420 2755 
Q 1159 2438 1159 1844 
L 1159 0 
L 581 0 
L 581 3500 
L 1159 3500 
L 1159 2956 
Q 1341 3275 1631 3429 
Q 1922 3584 2338 3584 
Q 2397 3584 2469 3576 
Q 2541 3569 2628 3553 
L 2631 2963 
z
" transform="scale(0.015625)"/>
       <path id="DejaVuSans-6f" d="M 1959 3097 
Q 1497 3097 1228 2736 
Q 959 2375 959 1747 
Q 959 1119 1226 758 
Q 1494 397 1959 397 
Q 2419 397 2687 759 
Q 2956 1122 2956 1747 
Q 2956 2369 2687 2733 
Q 2419 3097 1959 3097 
z
M 1959 3584 
Q 2709 3584 3137 3096 
Q 3566 2609 3566 1747 
Q 3566 888 3137 398 
Q 2709 -91 1959 -91 
Q 1206 -91 779 398 
Q 353 888 353 1747 
Q 353 2609 779 3096 
Q 1206 3584 1959 3584 
z
" transform="scale(0.015625)"/>
       <path id="DejaVuSans-75" d="M 544 1381 
L 544 3500 
L 1119 3500 
L 1119 1403 
Q 1119 906 1312 657 
Q 1506 409 1894 409 
Q 2359 409 2629 706 
Q 2900 1003 2900 1516 
L 2900 3500 
L 3475 3500 
L 3475 0 
L 2900 0 
L 2900 538 
Q 2691 219 2414 64 
Q 2138 -91 1772 -91 
Q 1169 -91 856 284 
Q 544 659 544 1381 
z
M 1991 3584 
L 1991 3584 
z
" transform="scale(0.015625)"/>
       <path id="DejaVuSans-6e" d="M 3513 2113 
L 3513 0 
L 2938 0 
L 2938 2094 
Q 2938 2591 2744 2837 
Q 2550 3084 2163 3084 
Q 1697 3084 1428 2787 
Q 1159 2491 1159 1978 
L 1159 0 
L 581 0 
L 581 3500 
L 1159 3500 
L 1159 2956 
Q 1366 3272 1645 3428 
Q 1925 3584 2291 3584 
Q 2894 3584 3203 3211 
Q 3513 2838 3513 2113 
z
" transform="scale(0.015625)"/>
       <path id="DejaVuSans-64" d="M 2906 2969 
L 2906 4863 
L 3481 4863 
L 3481 0 
L 2906 0 
L 2906 525 
Q 2725 213 2448 61 
Q 2172 -91 1784 -91 
Q 1150 -91 751 415 
Q 353 922 353 1747 
Q 353 2572 751 3078 
Q 1150 3584 1784 3584 
Q 2172 3584 2448 3432 
Q 2725 3281 2906 2969 
z
M 947 1747 
Q 947 1113 1208 752 
Q 1469 391 1925 391 
Q 2381 391 2643 752 
Q 2906 1113 2906 1747 
Q 2906 2381 2643 2742 
Q 2381 3103 1925 3103 
Q 1469 3103 1208 2742 
Q 947 2381 947 1747 
z
" transform="scale(0.015625)"/>
      </defs>
      <use xlink:href="#DejaVuSans-72"/>
      <use xlink:href="#DejaVuSans-6f" x="38.863281"/>
      <use xlink:href="#DejaVuSans-75" x="100.044922"/>
      <use xlink:href="#DejaVuSans-6e" x="163.423828"/>
      <use xlink:href="#DejaVuSans-64" x="226.802734"/>
     </g>
    </g>
   </g>
   <g id="matplotlib.axis_2">
    <g id="ytick_1">
     <g id="line2d_11">
      <path d="M 54.2 234.049626 
L 565.2 234.049626 
" clip-path="url(#p3c5bcc7013)" style="fill: none; stroke-dasharray: 2.96,1.28; stroke-dashoffset: 0; stroke: #b0b0b0; stroke-opacity: 0.3; stroke-width: 0.8"/>
     </g>
     <g id="line2d_12">
      <defs>
       <path id="m0dd7c2fba4" d="M 0 0 
L -3.5 0 
" style="stroke: #000000; stroke-width: 0.8"/>
      </defs>
      <g>
       <use xlink:href="#m0dd7c2fba4" x="54.2" y="234.049626" style="stroke: #000000; stroke-width: 0.8"/>
      </g>
     </g>
     <g id="text_7">
      <!-- 0.75 -->
      <g transform="translate(24.934375 237.848844) scale(0.1 -0.1)">
       <defs>
        <path id="DejaVuSans-2e" d="M 684 794 
L 1344 794 
L 1344 0 
L 684 0 
L 684 794 
z
" transform="scale(0.015625)"/>
        <path id="DejaVuSans-37" d="M 525 4666 
L 3525 4666 
L 3525 4397 
L 1831 0 
L 1172 0 
L 2766 4134 
L 525 4134 
L 525 4666 
z
" transform="scale(0.015625)"/>
        <path id="DejaVuSans-35" d="M 691 4666 
L 3169 4666 
L 3169 4134 
L 1269 4134 
L 1269 2991 
Q 1406 3038 1543 3061 
Q 1681 3084 1819 3084 
Q 2600 3084 3056 2656 
Q 3513 2228 3513 1497 
Q 3513 744 3044 326 
Q 2575 -91 1722 -91 
Q 1428 -91 1123 -41 
Q 819 9 494 109 
L 494 744 
Q 775 591 1075 516 
Q 1375 441 1709 441 
Q 2250 441 2565 725 
Q 2881 1009 2881 1497 
Q 2881 1984 2565 2268 
Q 2250 2553 1709 2553 
Q 1456 2553 1204 2497 
Q 953 2441 691 2322 
L 691 4666 
z
" transform="scale(0.015625)"/>
       </defs>
       <use xlink:href="#DejaVuSans-30"/>
       <use xlink:href="#DejaVuSans-2e" x="63.623047"/>
       <use xlink:href="#DejaVuSans-37" x="95.410156"/>
       <use xlink:href="#DejaVuSans-35" x="159.033203"/>
      </g>
     </g>
    </g>
    <g id="ytick_2">
     <g id="line2d_13">
      <path d="M 54.2 194.464064 
L 565.2 194.464064 
" clip-path="url(#p3c5bcc7013)" style="fill: none; stroke-dasharray: 2.96,1.28; stroke-dashoffset: 0; stroke: #b0b0b0; stroke-opacity: 0.3; stroke-width: 0.8"/>
     </g>
     <g id="line2d_14">
      <g>
       <use xlink:href="#m0dd7c2fba4" x="54.2" y="194.464064" style="stroke: #000000; stroke-width: 0.8"/>
      </g>
     </g>
     <g id="text_8">
      <!-- 0.80 -->
      <g transform="translate(24.934375 198.263283) scale(0.1 -0.1)">
       <use xlink:href="#DejaVuSans-30"/>
       <use xlink:href="#DejaVuSans-2e" x="63.623047"/>
       <use xlink:href="#DejaVuSans-38" x="95.410156"/>
       <use xlink:href="#DejaVuSans-30" x="159.033203"/>
      </g>
     </g>
    </g>
    <g id="ytick_3">
     <g id="line2d_15">
      <path d="M 54.2 154.878503 
L 565.2 154.878503 
" clip-path="url(#p3c5bcc7013)" style="fill: none; stroke-dasharray: 2.96,1.28; stroke-dashoffset: 0; stroke: #b0b0b0; stroke-opacity: 0.3; stroke-width: 0.8"/>
     </g>
     <g id="line2d_16">
      <g>
       <use xlink:href="#m0dd7c2fba4" x="54.2" y="154.878503" style="stroke: #000000; stroke-width: 0.8"/>
      </g>
     </g>
     <g id="text_9">
      <!-- 0.85 -->
      <g transform="translate(24.934375 158.677721) scale(0.1 -0.1)">
       <use xlink:href="#DejaVuSans-30"/>
       <use xlink:href="#DejaVuSans-2e" x="63.623047"/>
       <use xlink:href="#DejaVuSans-38" x="95.410156"/>
       <use xlink:href="#DejaVuSans-35" x="159.033203"/>
      </g>
     </g>
    </g>
    <g id="ytick_4">
     <g id="line2d_17">
      <path d="M 54.2 115.292941 
L 565.2 115.292941 
" clip-path="url(#p3c5bcc7013)" style="fill: none; stroke-dasharray: 2.96,1.28; stroke-dashoffset: 0; stroke: #b0b0b0; stroke-opacity: 0.3; stroke-width: 0.8"/>
     </g>
     <g id="line2d_18">
      <g>
       <use xlink:href="#m0dd7c2fba4" x="54.2" y="115.292941" style="stroke: #000000; stroke-width: 0.8"/>
      </g>
     </g>
     <g id="text_10">
      <!-- 0.90 -->
      <g transform="translate(24.934375 119.09216) scale(0.1 -0.1)">
       <defs>
        <path id="DejaVuSans-39" d="M 703 97 
L 703 672 
Q 941 559 1184 500 
Q 1428 441 1663 441 
Q 2288 441 2617 861 
Q 2947 1281 2994 2138 
Q 2813 1869 2534 1725 
Q 2256 1581 1919 1581 
Q 1219 1581 811 2004 
Q 403 2428 403 3163 
Q 403 3881 828 4315 
Q 1253 4750 1959 4750 
Q 2769 4750 3195 4129 
Q 3622 3509 3622 2328 
Q 3622 1225 3098 567 
Q 2575 -91 1691 -91 
Q 1453 -91 1209 -44 
Q 966 3 703 97 
z
M 1959 2075 
Q 2384 2075 2632 2365 
Q 2881 2656 2881 3163 
Q 2881 3666 2632 3958 
Q 2384 4250 1959 4250 
Q 1534 4250 1286 3958 
Q 1038 3666 1038 3163 
Q 1038 2656 1286 2365 
Q 1534 2075 1959 2075 
z
" transform="scale(0.015625)"/>
       </defs>
       <use xlink:href="#DejaVuSans-30"/>
       <use xlink:href="#DejaVuSans-2e" x="63.623047"/>
       <use xlink:href="#DejaVuSans-39" x="95.410156"/>
       <use xlink:href="#DejaVuSans-30" x="159.033203"/>
      </g>
     </g>
    </g>
    <g id="ytick_5">
     <g id="line2d_19">
      <path d="M 54.2 75.70738 
L 565.2 75.70738 
" clip-path="url(#p3c5bcc7013)" style="fill: none; stroke-dasharray: 2.96,1.28; stroke-dashoffset: 0; stroke: #b0b0b0; stroke-opacity: 0.3; stroke-width: 0.8"/>
     </g>
     <g id="line2d_20">
      <g>
       <use xlink:href="#m0dd7c2fba4" x="54.2" y="75.70738" style="stroke: #000000; stroke-width: 0.8"/>
      </g>
     </g>
     <g id="text_11">
      <!-- 0.95 -->
      <g transform="translate(24.934375 79.506598) scale(0.1 -0.1)">
       <use xlink:href="#DejaVuSans-30"/>
       <use xlink:href="#DejaVuSans-2e" x="63.623047"/>
       <use xlink:href="#DejaVuSans-39" x="95.410156"/>
       <use xlink:href="#DejaVuSans-35" x="159.033203"/>
      </g>
     </g>
    </g>
    <g id="ytick_6">
     <g id="line2d_21">
      <path d="M 54.2 36.121818 
L 565.2 36.121818 
" clip-path="url(#p3c5bcc7013)" style="fill: none; stroke-dasharray: 2.96,1.28; stroke-dashoffset: 0; stroke: #b0b0b0; stroke-opacity: 0.3; stroke-width: 0.8"/>
     </g>
     <g id="line2d_22">
      <g>
       <use xlink:href="#m0dd7c2fba4" x="54.2" y="36.121818" style="stroke: #000000; stroke-width: 0.8"/>
      </g>
     </g>
     <g id="text_12">
      <!-- 1.00 -->
      <g transform="translate(24.934375 39.921037) scale(0.1 -0.1)">
       <defs>
        <path id="DejaVuSans-31" d="M 794 531 
L 1825 531 
L 1825 4091 
L 703 3866 
L 703 4441 
L 1819 4666 
L 2450 4666 
L 2450 531 
L 3481 531 
L 3481 0 
L 794 0 
L 794 531 
z
" transform="scale(0.015625)"/>
       </defs>
       <use xlink:href="#DejaVuSans-31"/>
       <use xlink:href="#DejaVuSans-2e" x="63.623047"/>
       <use xlink:href="#DejaVuSans-30" x="95.410156"/>
       <use xlink:href="#DejaVuSans-30" x="159.033203"/>
      </g>
     </g>
    </g>
    <g id="text_13">
     <!-- cumulative timely transfer rate -->
     <g transform="translate(18.854688 221.048594) rotate(-90) scale(0.1 -0.1)">
      <defs>
       <path id="DejaVuSans-63" d="M 3122 3366 
L 3122 2828 
Q 2878 2963 2633 3030 
Q 2388 3097 2138 3097 
Q 1578 3097 1268 2742 
Q 959 2388 959 1747 
Q 959 1106 1268 751 
Q 1578 397 2138 397 
Q 2388 397 2633 464 
Q 2878 531 3122 666 
L 3122 134 
Q 2881 22 2623 -34 
Q 2366 -91 2075 -91 
Q 1284 -91 818 406 
Q 353 903 353 1747 
Q 353 2603 823 3093 
Q 1294 3584 2113 3584 
Q 2378 3584 2631 3529 
Q 2884 3475 3122 3366 
z
" transform="scale(0.015625)"/>
       <path id="DejaVuSans-6d" d="M 3328 2828 
Q 3544 3216 3844 3400 
Q 4144 3584 4550 3584 
Q 5097 3584 5394 3201 
Q 5691 2819 5691 2113 
L 5691 0 
L 5113 0 
L 5113 2094 
Q 5113 2597 4934 2840 
Q 4756 3084 4391 3084 
Q 3944 3084 3684 2787 
Q 3425 2491 3425 1978 
L 3425 0 
L 2847 0 
L 2847 2094 
Q 2847 2600 2669 2842 
Q 2491 3084 2119 3084 
Q 1678 3084 1418 2786 
Q 1159 2488 1159 1978 
L 1159 0 
L 581 0 
L 581 3500 
L 1159 3500 
L 1159 2956 
Q 1356 3278 1631 3431 
Q 1906 3584 2284 3584 
Q 2666 3584 2933 3390 
Q 3200 3197 3328 2828 
z
" transform="scale(0.015625)"/>
       <path id="DejaVuSans-6c" d="M 603 4863 
L 1178 4863 
L 1178 0 
L 603 0 
L 603 4863 
z
" transform="scale(0.015625)"/>
       <path id="DejaVuSans-61" d="M 2194 1759 
Q 1497 1759 1228 1600 
Q 959 1441 959 1056 
Q 959 750 1161 570 
Q 1363 391 1709 391 
Q 2188 391 2477 730 
Q 2766 1069 2766 1631 
L 2766 1759 
L 2194 1759 
z
M 3341 1997 
L 3341 0 
L 2766 0 
L 2766 531 
Q 2569 213 2275 61 
Q 1981 -91 1556 -91 
Q 1019 -91 701 211 
Q 384 513 384 1019 
Q 384 1609 779 1909 
Q 1175 2209 1959 2209 
L 2766 2209 
L 2766 2266 
Q 2766 2663 2505 2880 
Q 2244 3097 1772 3097 
Q 1472 3097 1187 3025 
Q 903 2953 641 2809 
L 641 3341 
Q 956 3463 1253 3523 
Q 1550 3584 1831 3584 
Q 2591 3584 2966 3190 
Q 3341 2797 3341 1997 
z
" transform="scale(0.015625)"/>
       <path id="DejaVuSans-74" d="M 1172 4494 
L 1172 3500 
L 2356 3500 
L 2356 3053 
L 1172 3053 
L 1172 1153 
Q 1172 725 1289 603 
Q 1406 481 1766 481 
L 2356 481 
L 2356 0 
L 1766 0 
Q 1100 0 847 248 
Q 594 497 594 1153 
L 594 3053 
L 172 3053 
L 172 3500 
L 594 3500 
L 594 4494 
L 1172 4494 
z
" transform="scale(0.015625)"/>
       <path id="DejaVuSans-69" d="M 603 3500 
L 1178 3500 
L 1178 0 
L 603 0 
L 603 3500 
z
M 603 4863 
L 1178 4863 
L 1178 4134 
L 603 4134 
L 603 4863 
z
" transform="scale(0.015625)"/>
       <path id="DejaVuSans-76" d="M 191 3500 
L 800 3500 
L 1894 563 
L 2988 3500 
L 3597 3500 
L 2284 0 
L 1503 0 
L 191 3500 
z
" transform="scale(0.015625)"/>
       <path id="DejaVuSans-65" d="M 3597 1894 
L 3597 1613 
L 953 1613 
Q 991 1019 1311 708 
Q 1631 397 2203 397 
Q 2534 397 2845 478 
Q 3156 559 3463 722 
L 3463 178 
Q 3153 47 2828 -22 
Q 2503 -91 2169 -91 
Q 1331 -91 842 396 
Q 353 884 353 1716 
Q 353 2575 817 3079 
Q 1281 3584 2069 3584 
Q 2775 3584 3186 3129 
Q 3597 2675 3597 1894 
z
M 3022 2063 
Q 3016 2534 2758 2815 
Q 2500 3097 2075 3097 
Q 1594 3097 1305 2825 
Q 1016 2553 972 2059 
L 3022 2063 
z
" transform="scale(0.015625)"/>
       <path id="DejaVuSans-20" transform="scale(0.015625)"/>
       <path id="DejaVuSans-79" d="M 2059 -325 
Q 1816 -950 1584 -1140 
Q 1353 -1331 966 -1331 
L 506 -1331 
L 506 -850 
L 844 -850 
Q 1081 -850 1212 -737 
Q 1344 -625 1503 -206 
L 1606 56 
L 191 3500 
L 800 3500 
L 1894 763 
L 2988 3500 
L 3597 3500 
L 2059 -325 
z
" transform="scale(0.015625)"/>
       <path id="DejaVuSans-73" d="M 2834 3397 
L 2834 2853 
Q 2591 2978 2328 3040 
Q 2066 3103 1784 3103 
Q 1356 3103 1142 2972 
Q 928 2841 928 2578 
Q 928 2378 1081 2264 
Q 1234 2150 1697 2047 
L 1894 2003 
Q 2506 1872 2764 1633 
Q 3022 1394 3022 966 
Q 3022 478 2636 193 
Q 2250 -91 1575 -91 
Q 1294 -91 989 -36 
Q 684 19 347 128 
L 347 722 
Q 666 556 975 473 
Q 1284 391 1588 391 
Q 1994 391 2212 530 
Q 2431 669 2431 922 
Q 2431 1156 2273 1281 
Q 2116 1406 1581 1522 
L 1381 1569 
Q 847 1681 609 1914 
Q 372 2147 372 2553 
Q 372 3047 722 3315 
Q 1072 3584 1716 3584 
Q 2034 3584 2315 3537 
Q 2597 3491 2834 3397 
z
" transform="scale(0.015625)"/>
       <path id="DejaVuSans-66" d="M 2375 4863 
L 2375 4384 
L 1825 4384 
Q 1516 4384 1395 4259 
Q 1275 4134 1275 3809 
L 1275 3500 
L 2222 3500 
L 2222 3053 
L 1275 3053 
L 1275 0 
L 697 0 
L 697 3053 
L 147 3053 
L 147 3500 
L 697 3500 
L 697 3744 
Q 697 4328 969 4595 
Q 1241 4863 1831 4863 
L 2375 4863 
z
" transform="scale(0.015625)"/>
      </defs>
      <use xlink:href="#DejaVuSans-63"/>
      <use xlink:href="#DejaVuSans-75" x="54.980469"/>
      <use xlink:href="#DejaVuSans-6d" x="118.359375"/>
      <use xlink:href="#DejaVuSans-75" x="215.771484"/>
      <use xlink:href="#DejaVuSans-6c" x="279.150391"/>
      <use xlink:href="#DejaVuSans-61" x="306.933594"/>
      <use xlink:href="#DejaVuSans-74" x="368.212891"/>
      <use xlink:href="#DejaVuSans-69" x="407.421875"/>
      <use xlink:href="#DejaVuSans-76" x="435.205078"/>
      <use xlink:href="#DejaVuSans-65" x="494.384766"/>
      <use xlink:href="#DejaVuSans-20" x="555.908203"/>
      <use xlink:href="#DejaVuSans-74" x="587.695312"/>
      <use xlink:href="#DejaVuSans-69" x="626.904297"/>
      <use xlink:href="#DejaVuSans-6d" x="654.6875"/>
      <use xlink:href="#DejaVuSans-65" x="752.099609"/>
      <use xlink:href="#DejaVuSans-6c" x="813.623047"/>
      <use xlink:href="#DejaVuSans-79" x="841.40625"/>
      <use xlink:href="#DejaVuSans-20" x="900.585938"/>
      <use xlink:href="#DejaVuSans-74" x="932.373047"/>
      <use xlink:href="#DejaVuSans-72" x="971.582031"/>
      <use xlink:href="#DejaVuSans-61" x="1012.695312"/>
      <use xlink:href="#DejaVuSans-6e" x="1073.974609"/>
      <use xlink:href="#DejaVuSans-73" x="1137.353516"/>
      <use xlink:href="#DejaVuSans-66" x="1189.453125"/>
      <use xlink:href="#DejaVuSans-65" x="1224.658203"/>
      <use xlink:href="#DejaVuSans-72" x="1286.181641"/>
      <use xlink:href="#DejaVuSans-20" x="1327.294922"/>
      <use xlink:href="#DejaVuSans-72" x="1359.082031"/>
      <use xlink:href="#DejaVuSans-61" x="1400.195312"/>
      <use xlink:href="#DejaVuSans-74" x="1461.474609"/>
      <use xlink:href="#DejaVuSans-65" x="1500.683594"/>
     </g>
    </g>
   </g>
   <g id="line2d_23">
    <path d="M 77.427273 201.061658 
L 77.481302 205.774225 
L 77.535332 249.758182 
L 77.589361 218.001425 
L 77.643391 240.171104 
L 77.805479 191.254424 
L 77.859509 195.401001 
L 77.913538 194.464064 
L 77.967568 177.366075 
L 78.021597 178.223834 
L 78.075626 178.38243 
L 78.129656 170.014159 
L 78.183685 177.40362 
L 78.345774 194.037266 
L 78.507862 172.053677 
L 78.561892 176.447003 
L 79.048157 138.278106 
L 79.534422 112.181412 
L 80.020688 96.757665 
L 80.615012 85.638938 
L 80.669041 86.950453 
L 80.723071 86.250816 
L 80.939189 82.992753 
L 80.993218 84.195365 
L 81.047248 83.535591 
L 81.101277 82.893682 
L 81.155307 83.59572 
L 81.209336 82.94345 
L 81.263366 82.336094 
L 81.317395 83.504884 
L 81.371425 82.853197 
L 81.425454 83.087739 
L 81.749631 79.21652 
L 81.80366 80.240696 
L 81.85769 79.772058 
L 82.073808 77.891675 
L 82.127837 78.589087 
L 82.181867 78.066784 
L 82.452014 75.357065 
L 82.506044 74.876913 
L 82.614103 82.477278 
L 82.668132 81.898799 
L 82.830221 80.282276 
L 82.992309 86.495166 
L 83.046338 85.998123 
L 83.100368 89.296453 
L 83.154397 88.746641 
L 83.208427 88.189053 
L 83.262456 91.350865 
L 83.316486 90.761441 
L 83.424545 89.619547 
L 83.478574 91.776226 
L 83.532604 91.452099 
L 83.748722 89.725897 
L 84.93737 78.311427 
L 84.9914 78.381133 
L 85.315577 76.413924 
L 86.342137 71.499004 
L 86.666314 73.906935 
L 87.098549 71.88638 
L 87.206608 73.49359 
L 87.260638 73.170511 
L 87.368697 72.460269 
L 87.476756 73.165978 
L 87.530785 72.892565 
L 88.233168 69.216682 
L 88.287198 71.328755 
L 88.341227 71.109695 
L 88.503316 70.47395 
L 88.719434 76.402705 
L 88.881522 75.86707 
L 88.935552 76.547625 
L 88.989581 76.214364 
L 89.043611 76.008851 
L 89.15167 77.121763 
L 89.205699 76.921101 
L 89.259728 76.722394 
L 89.421817 77.615185 
L 89.475846 77.400584 
L 89.691964 79.733945 
L 89.908082 86.665558 
L 89.962112 86.517789 
L 90.070171 86.171928 
L 90.1242 86.807157 
L 90.286289 88.834198 
L 90.448377 88.373946 
L 90.664495 90.144933 
L 90.718524 89.762124 
L 91.582996 84.074988 
L 91.961202 82.928351 
L 92.015232 84.462854 
L 92.069261 84.236865 
L 92.447468 82.612494 
L 92.609556 81.908866 
L 92.663586 82.860255 
L 92.717615 82.660697 
L 92.825674 82.243945 
L 92.879704 82.953038 
L 92.933733 82.70214 
L 93.041792 82.985855 
L 93.419998 81.871735 
L 93.474028 82.688719 
L 93.528057 82.485276 
L 93.636116 82.07944 
L 94.176411 89.085516 
L 94.338499 88.200982 
L 94.446558 89.497855 
L 94.500588 89.366719 
L 94.554617 89.087253 
L 94.824765 91.500583 
L 94.878794 91.201817 
L 95.202971 89.317129 
L 95.257001 89.428905 
L 95.31103 89.522944 
L 95.527148 88.76773 
L 95.581177 88.823701 
L 95.689236 88.235789 
L 95.743266 88.348123 
L 95.851325 88.599516 
L 96.121472 87.326743 
L 96.175502 87.69436 
L 96.229531 87.534535 
L 96.607738 86.353857 
L 97.526239 82.657821 
L 97.742357 85.069328 
L 97.796386 85.579262 
L 97.850416 85.487572 
L 97.904445 85.384067 
L 98.012504 86.850755 
L 98.066533 86.737914 
L 98.228622 88.892981 
L 98.282651 88.749607 
L 98.44474 89.353253 
L 98.498769 89.474426 
L 98.552799 89.293999 
L 99.093094 92.278606 
L 99.255182 92.206209 
L 99.309211 92.016756 
L 99.363241 92.269977 
L 99.41727 92.075486 
L 99.849506 90.553034 
L 100.119654 89.472535 
L 100.173683 89.65924 
L 100.659948 88.629972 
L 100.876066 89.89134 
L 101.200243 89.012674 
L 101.308302 89.549224 
L 101.416361 89.357237 
L 101.740538 88.574895 
L 101.848597 88.296535 
L 101.902626 88.367301 
L 102.064715 89.154203 
L 102.334862 88.470365 
L 102.388892 88.381827 
L 102.60501 89.28573 
L 103.037245 88.287027 
L 103.091275 88.742567 
L 103.145304 88.585901 
L 103.307393 88.074994 
L 103.361422 88.148254 
L 103.415452 88.488132 
L 103.469481 88.314481 
L 103.901717 87.126029 
L 104.009776 88.108189 
L 104.063806 88.030064 
L 104.117835 87.941066 
L 104.171864 88.916104 
L 104.225894 88.814745 
L 104.496041 88.280673 
L 104.550071 88.669171 
L 104.6041 88.512518 
L 104.65813 88.385239 
L 105.090366 90.902068 
L 105.306484 90.312027 
L 105.360513 90.721486 
L 105.414542 90.604414 
L 105.522601 90.330279 
L 105.68469 91.073254 
L 105.738719 90.963872 
L 105.792749 91.437887 
L 105.846778 91.284596 
L 106.008867 90.868469 
L 106.062896 91.330076 
L 106.116926 91.215684 
L 106.549162 90.151109 
L 106.603191 90.55556 
L 106.65722 90.412314 
L 106.71125 90.26364 
L 106.765279 90.708098 
L 106.819309 90.60891 
L 106.927368 90.399328 
L 106.981397 90.945424 
L 107.035427 90.821975 
L 107.197515 90.558433 
L 107.251545 90.882238 
L 107.305574 90.821117 
L 107.521692 90.546494 
L 107.73781 91.429428 
L 108.278105 90.675661 
L 108.386164 91.314788 
L 108.440193 91.202775 
L 108.494223 91.483092 
L 108.548252 91.324217 
L 108.602282 91.246096 
L 108.656311 91.626049 
L 108.710341 91.534067 
L 108.872429 91.217415 
L 109.034518 91.944431 
L 109.142576 91.756619 
L 109.358694 92.892496 
L 109.574812 93.80545 
L 109.628842 93.701307 
L 109.898989 95.195162 
L 109.953019 95.103477 
L 110.007048 95.016043 
L 110.061078 95.512134 
L 110.115107 95.422448 
L 110.277196 95.164869 
L 110.331225 95.285093 
L 110.385254 95.359244 
L 110.439284 95.24516 
L 111.087638 94.434241 
L 111.249726 94.108907 
L 111.411815 94.792637 
L 111.573903 94.635295 
L 111.627933 94.874204 
L 111.681962 94.789611 
L 112.600463 92.930171 
L 112.816581 93.70391 
L 113.140758 93.242004 
L 113.248817 93.639505 
L 113.302846 93.537176 
L 113.410905 93.333606 
L 113.464935 93.560995 
L 113.518964 93.468157 
L 113.627023 93.228858 
L 113.681053 93.424612 
L 113.735082 93.310626 
L 114.221347 92.403291 
L 114.275377 92.654483 
L 114.329406 92.529487 
L 114.815672 91.449429 
L 114.869701 91.609696 
L 114.923731 91.4993 
L 114.97776 91.844813 
L 115.03179 91.710769 
L 115.193878 91.388568 
L 115.247908 91.65748 
L 115.301937 91.529844 
L 115.572084 91.303161 
L 115.680143 91.738259 
L 115.734173 91.64744 
L 115.788202 91.540073 
L 115.842232 91.852456 
L 115.896261 91.771133 
L 115.950291 91.68852 
L 116.112379 91.933172 
L 116.220438 91.727821 
L 116.274468 91.793895 
L 116.490586 92.69248 
L 116.544615 92.613124 
L 116.868792 92.039899 
L 116.922821 92.098202 
L 116.976851 92.350711 
L 117.03088 92.252168 
L 117.571175 91.468845 
L 118.165499 90.483885 
L 118.219529 90.481449 
L 118.273558 90.675004 
L 118.327588 90.589832 
L 119.13803 89.302211 
L 119.192059 89.675328 
L 119.246089 89.588646 
L 119.354148 89.438618 
L 119.462207 89.876844 
L 119.516236 89.785223 
L 119.948472 89.24722 
L 120.110561 89.066618 
L 120.380708 89.904266 
L 120.921003 89.275642 
L 120.975032 89.489479 
L 121.029062 89.426153 
L 121.083091 89.359191 
L 121.24518 89.715498 
L 121.299209 89.612042 
L 121.353239 89.830264 
L 121.407268 89.755907 
L 121.623386 89.373538 
L 121.785474 89.816122 
L 121.839504 89.735375 
L 121.893533 89.638799 
L 121.947563 89.797156 
L 122.001592 89.704484 
L 122.163681 89.538479 
L 122.21771 89.70922 
L 122.27174 89.656474 
L 122.758005 89.02674 
L 122.920093 89.526664 
L 123.406359 88.848578 
L 123.730536 88.436769 
L 123.892624 88.586077 
L 124.108742 88.308683 
L 124.162771 88.463793 
L 124.216801 88.377139 
L 124.811125 87.694107 
L 124.865155 87.77364 
L 124.919184 87.679528 
L 125.189332 87.32065 
L 125.243361 87.656007 
L 125.297391 87.594731 
L 125.513508 87.322946 
L 125.621567 87.311338 
L 126.053803 86.935377 
L 126.107833 87.086746 
L 126.161862 87.020008 
L 127.40454 85.85512 
L 127.45857 86.091632 
L 127.512599 86.070995 
L 127.620658 85.924293 
L 127.674688 86.189255 
L 127.728717 86.12597 
L 128.106923 85.715032 
L 128.214982 86.115534 
L 128.323041 85.971058 
L 128.377071 85.910941 
L 128.48513 86.227357 
L 128.539159 86.169122 
L 128.917366 85.85798 
L 129.349601 85.483199 
L 129.403631 85.830326 
L 129.45766 85.759365 
L 129.835867 85.36136 
L 129.889896 85.577295 
L 129.943926 85.514059 
L 129.997955 85.455685 
L 130.051985 85.864652 
L 130.106014 85.803188 
L 130.376161 85.613115 
L 130.53825 85.464017 
L 130.700338 85.769137 
L 130.970486 85.459745 
L 131.132574 85.946814 
L 131.726898 85.364718 
L 132.267193 85.041005 
L 132.321223 85.268062 
L 132.375252 85.224416 
L 132.969576 84.663123 
L 133.077635 84.623964 
L 133.293753 84.415104 
L 133.347783 84.518952 
L 133.401812 84.62406 
L 133.455842 84.585334 
L 133.563901 84.480654 
L 133.61793 84.665064 
L 133.67196 84.593079 
L 133.942107 84.313178 
L 133.996137 84.379455 
L 134.050166 84.325357 
L 134.752549 83.709822 
L 135.022697 83.462879 
L 135.076726 83.638899 
L 135.130756 83.579424 
L 135.184785 83.572402 
L 135.238815 83.840248 
L 135.292844 83.783952 
L 135.72508 83.393571 
L 135.779109 83.616442 
L 135.833139 83.569003 
L 135.887168 83.519254 
L 135.941198 83.76386 
L 135.995227 83.707587 
L 136.913728 83.055803 
L 137.021787 83.091416 
L 137.345964 82.813017 
L 137.399994 82.994131 
L 137.454023 82.957829 
L 137.832229 82.821955 
L 137.886259 83.174424 
L 137.940288 83.133675 
L 138.642672 82.568264 
L 138.696701 82.747154 
L 138.750731 82.703574 
L 140.317585 81.795791 
L 140.371615 81.872757 
L 140.425644 81.828269 
L 140.641762 81.704592 
L 140.803851 81.906457 
L 141.506234 81.368038 
L 141.614293 81.632122 
L 141.668322 81.597846 
L 141.88444 81.387031 
L 141.93847 81.477249 
L 141.992499 81.428081 
L 142.154588 81.283965 
L 142.208617 81.407527 
L 142.262647 81.373117 
L 142.370706 81.296226 
L 142.586824 81.740622 
L 142.640853 81.689652 
L 142.856971 81.531957 
L 142.911 81.62219 
L 142.96503 81.570961 
L 143.073089 81.506916 
L 143.127118 81.747302 
L 143.181148 81.701567 
L 143.397266 81.557454 
L 143.451295 81.696505 
L 143.505325 81.655793 
L 143.721443 81.490979 
L 143.775472 81.594415 
L 143.829502 81.552003 
L 143.883531 81.501617 
L 143.937561 81.713344 
L 143.99159 81.671623 
L 144.045619 81.626623 
L 144.207708 81.791644 
L 145.180239 81.275578 
L 146.152769 80.797485 
L 146.206799 81.029333 
L 146.260828 81.001767 
L 146.693064 80.821272 
L 147.773653 80.788907 
L 148.854243 80.873743 
L 149.17842 80.946686 
L 158.741638 81.031484 
L 158.957756 81.073876 
L 163.766379 81.177276 
L 164.036526 81.209056 
L 174.950481 81.283198 
L 175.166599 81.325559 
L 189.970676 81.431439 
L 190.186794 81.473783 
L 204.936842 81.578331 
L 205.152959 81.620657 
L 223.685071 81.711994 
L 223.955218 81.743725 
L 233.248288 81.836308 
L 233.518436 81.868026 
L 242.973594 81.963164 
L 243.189712 82.00544 
L 253.72546 82.111108 
L 253.995608 82.142802 
L 260.641234 82.216746 
L 260.857352 82.258993 
L 272.959955 82.36197 
L 273.554279 82.372527 
L 289.114769 82.455664 
L 289.276857 82.508433 
L 299.758576 82.612633 
L 300.082753 82.633732 
L 313.428034 82.739858 
L 313.698181 82.771489 
L 328.070023 82.878182 
L 328.34017 82.909794 
L 339.254125 83.015147 
L 339.848449 83.025018 
L 359.46115 83.124355 
L 359.731297 83.155942 
L 370.645252 83.258544 
L 370.861369 83.300641 
L 379.343998 83.393337 
L 379.614145 83.424897 
L 391.824807 83.519561 
L 392.094954 83.551111 
L 402.90085 83.643058 
L 403.170997 83.674595 
L 419.4879 83.784149 
L 419.758047 83.81567 
L 434.940331 83.92245 
L 435.264508 83.943452 
L 455.68765 84.04812 
L 456.011827 84.06911 
L 464.386396 84.174043 
L 464.656544 84.205517 
L 480.59524 84.295846 
L 480.811358 84.337794 
L 492.373666 84.448354 
L 492.643814 84.50076 
L 500.478088 84.602817 
L 501.072412 84.613294 
L 509.501011 84.717362 
L 510.203394 84.748781 
L 535.975455 84.840278 
L 536.299632 84.861217 
L 541.972727 84.944959 
L 541.972727 84.944959 
" clip-path="url(#p3c5bcc7013)" style="fill: none; stroke: #1f77b4; stroke-width: 1.8; stroke-linecap: square"/>
   </g>
   <g id="line2d_24">
    <path d="M 77.427273 36.121818 
L 77.535332 126.010429 
L 77.69742 82.069345 
L 77.859509 93.182087 
L 78.129656 72.006746 
L 78.183685 69.340471 
L 78.237715 72.049308 
L 78.399803 81.037766 
L 78.453833 79.381879 
L 78.561892 75.189614 
L 78.615921 80.712451 
L 78.669951 79.106694 
L 78.72398 77.590391 
L 78.940098 90.685212 
L 79.156216 84.502391 
L 79.210246 87.883955 
L 79.264275 86.553155 
L 79.318304 85.124079 
L 79.426363 92.991216 
L 79.480393 91.300872 
L 79.588452 88.954363 
L 79.642481 90.905408 
L 79.696511 89.843312 
L 79.912629 85.518407 
L 79.966658 87.00643 
L 80.074717 95.553224 
L 80.128747 94.581508 
L 80.182776 95.412968 
L 80.236806 94.326994 
L 80.344865 96.634778 
L 80.452924 94.614336 
L 80.506953 98.926722 
L 80.560982 98.03116 
L 80.669041 95.993219 
L 80.7771 98.764203 
L 80.83113 98.071581 
L 81.101277 94.563989 
L 81.155307 94.956829 
L 81.263366 93.178018 
L 81.371425 95.984343 
L 81.425454 95.0775 
L 81.479484 95.617868 
L 81.587543 94.525608 
L 81.85769 100.513814 
L 82.073808 99.003198 
L 82.289926 96.958701 
L 82.343955 97.482958 
L 82.397985 96.960045 
L 82.452014 96.200891 
L 82.506044 97.581967 
L 82.560073 97.489554 
L 82.830221 94.814871 
L 82.88425 95.425631 
L 82.992309 94.20706 
L 83.100368 96.731779 
L 83.154397 96.555472 
L 83.208427 96.606714 
L 83.586633 93.2304 
L 83.748722 91.891659 
L 84.072899 96.49404 
L 84.180958 96.266925 
L 84.234987 96.23354 
L 84.289016 95.729258 
L 84.343046 96.264473 
L 84.721252 93.939404 
L 84.775282 94.244258 
L 84.93737 95.712157 
L 84.9914 95.722035 
L 85.045429 96.888462 
L 85.099459 96.477838 
L 85.261547 96.0351 
L 85.369606 96.708991 
L 85.423636 96.244467 
L 85.639753 98.699599 
L 85.693783 98.234666 
L 85.909901 97.16976 
L 86.01796 99.787838 
L 86.071989 99.378306 
L 86.234078 98.900682 
L 86.288107 98.935271 
L 86.396166 98.24727 
L 86.450196 98.813157 
L 86.504225 98.509149 
L 86.612284 97.781571 
L 86.720343 99.877935 
L 86.774372 99.503369 
L 86.828402 99.108653 
L 86.882431 99.409751 
L 87.098549 101.607561 
L 87.152579 101.665369 
L 87.314667 103.064113 
L 87.422726 102.57742 
L 87.692874 101.023596 
L 87.800933 101.370284 
L 87.963021 103.825258 
L 88.125109 102.716886 
L 88.179139 102.96089 
L 88.395257 105.334376 
L 88.449286 105.044167 
L 88.503316 104.679136 
L 88.557345 105.022967 
L 88.773463 104.459538 
L 88.827493 104.497807 
L 88.989581 103.464045 
L 89.043611 103.776595 
L 89.09764 103.597207 
L 89.205699 104.568191 
L 89.259728 104.423024 
L 89.367787 103.789863 
L 89.421817 104.046822 
L 89.529876 104.659887 
L 89.583905 104.443298 
L 89.637935 104.606299 
L 89.691964 105.357835 
L 89.745994 105.104573 
L 89.854053 104.566896 
L 89.908082 104.982589 
L 89.962112 104.758922 
L 90.1242 103.8786 
L 90.17823 104.738629 
L 90.232259 104.44138 
L 90.340318 103.792542 
L 90.394348 104.129867 
L 90.502406 104.831986 
L 90.556436 104.541857 
L 90.610465 104.856304 
L 90.664495 104.618282 
L 90.772554 105.889643 
L 90.826583 105.56251 
L 91.15076 104.078029 
L 91.258819 105.021543 
L 91.799114 103.104265 
L 91.853143 103.318334 
L 92.069261 102.855328 
L 92.123291 103.089647 
L 92.285379 102.599573 
L 92.339409 102.903582 
L 92.393438 102.677957 
L 92.501497 102.172575 
L 92.555527 102.412033 
L 92.663586 102.963867 
L 92.717615 102.694212 
L 92.771645 102.468477 
L 92.933733 103.315022 
L 92.987762 103.747467 
L 93.041792 103.487084 
L 93.25791 102.892645 
L 93.311939 103.333859 
L 93.365969 103.07422 
L 93.419998 102.897073 
L 93.474028 103.000698 
L 93.528057 103.972364 
L 93.582087 103.850723 
L 93.636116 103.84398 
L 93.690146 103.636841 
L 93.744175 103.974544 
L 93.798205 103.755982 
L 93.906264 103.347298 
L 94.014323 103.74368 
L 94.23044 102.853014 
L 94.338499 103.457097 
L 94.392529 103.215403 
L 94.554617 102.612923 
L 94.716706 103.319793 
L 94.770735 103.301633 
L 95.040883 102.634777 
L 95.202971 103.655676 
L 95.36506 104.338343 
L 95.581177 103.449919 
L 95.743266 104.141989 
L 95.797295 104.015659 
L 95.851325 104.208538 
L 95.905354 104.014551 
L 95.959384 104.100383 
L 96.121472 103.430126 
L 96.175502 103.540733 
L 96.283561 103.902016 
L 96.33759 103.700502 
L 96.39162 103.720851 
L 96.769826 102.549178 
L 96.823855 102.553003 
L 96.877885 102.842268 
L 96.931914 102.622443 
L 97.148032 102.085407 
L 97.202062 102.117466 
L 97.36415 101.946198 
L 97.472209 101.635499 
L 97.526239 101.787142 
L 97.580268 101.843637 
L 97.688327 101.479222 
L 97.796386 102.140829 
L 97.850416 101.995081 
L 97.904445 102.123968 
L 98.228622 101.35466 
L 98.282651 101.169767 
L 98.336681 101.221555 
L 98.44474 101.627408 
L 98.498769 101.50571 
L 98.822946 100.750749 
L 98.876976 100.969747 
L 98.931005 100.820625 
L 99.039064 100.445316 
L 99.093094 100.901375 
L 99.147123 100.745274 
L 99.201152 100.845343 
L 99.363241 100.300262 
L 99.41727 100.543717 
L 99.4713 100.384608 
L 99.525329 100.429256 
L 99.579359 100.670348 
L 99.633388 100.516498 
L 100.011595 99.626552 
L 100.065624 99.774025 
L 100.119654 99.599037 
L 100.227713 99.727119 
L 100.281742 99.561523 
L 100.551889 98.815932 
L 100.659948 99.382643 
L 100.713978 99.276846 
L 101.686508 96.908411 
L 101.740538 97.320468 
L 101.794567 97.182243 
L 102.118744 96.410613 
L 102.172774 96.719153 
L 102.226803 96.566732 
L 102.388892 96.400149 
L 102.496951 96.835728 
L 102.55098 96.679924 
L 102.875157 95.916191 
L 102.929186 96.035838 
L 102.983216 95.891591 
L 103.469481 94.861827 
L 103.739629 94.255923 
L 103.793658 94.494511 
L 103.847688 94.350704 
L 103.955747 94.093949 
L 104.009776 94.366298 
L 104.063806 94.27833 
L 104.225894 94.117186 
L 104.279923 94.178488 
L 104.333953 94.417722 
L 104.387982 94.277246 
L 104.6041 93.97674 
L 104.712159 94.191787 
L 105.144395 93.251111 
L 105.198425 93.371474 
L 105.252454 93.250062 
L 105.306484 93.321542 
L 105.68469 92.473113 
L 105.846778 92.682753 
L 105.954837 92.982492 
L 106.008867 92.882675 
L 106.387073 92.126092 
L 106.441103 92.312641 
L 106.495132 92.191794 
L 106.981397 91.533044 
L 107.035427 91.830731 
L 107.089456 91.713475 
L 107.845869 90.462719 
L 107.899898 90.693342 
L 107.953928 90.580535 
L 108.386164 89.939131 
L 108.548252 89.623538 
L 108.656311 90.165545 
L 108.710341 90.132526 
L 109.088547 89.431809 
L 109.142576 89.862939 
L 109.196606 89.778521 
L 109.412724 89.430219 
L 109.520783 89.577229 
L 109.682871 89.825742 
L 109.84496 89.634913 
L 109.953019 89.965361 
L 110.061078 89.79121 
L 110.439284 89.334599 
L 110.655402 88.994389 
L 110.709431 89.174189 
L 110.763461 89.084487 
L 110.87152 88.890027 
L 110.925549 89.132479 
L 110.979579 89.030935 
L 112.222257 87.508619 
L 112.276286 87.761214 
L 112.330316 87.669479 
L 113.302846 86.311548 
L 113.518964 87.222864 
L 113.735082 86.887006 
L 113.789112 86.929328 
L 113.843141 87.100618 
L 113.897171 87.016202 
L 114.00523 86.847211 
L 114.059259 86.988465 
L 114.113289 86.904753 
L 114.167318 86.818342 
L 114.221347 86.917724 
L 114.383436 87.064467 
L 114.437465 87.10235 
L 114.491495 87.014473 
L 115.139849 86.185933 
L 115.193878 86.110873 
L 115.247908 86.339899 
L 115.301937 86.269573 
L 115.734173 85.722325 
L 115.788202 85.864542 
L 115.842232 85.787505 
L 116.05835 85.480813 
L 116.112379 85.610183 
L 116.166409 85.563496 
L 116.544615 85.217942 
L 116.814762 85.077625 
L 117.571175 84.119708 
L 117.625205 84.239668 
L 117.679234 84.172965 
L 118.273558 83.45788 
L 118.381617 83.788957 
L 118.435647 83.720822 
L 118.813853 83.263921 
L 118.867883 83.439697 
L 118.921912 83.385922 
L 119.13803 83.121285 
L 119.192059 83.227344 
L 119.246089 83.163002 
L 120.110561 82.33497 
L 120.16459 82.530562 
L 120.21862 82.474069 
L 122.21771 80.577783 
L 122.379799 80.888049 
L 123.136211 80.268221 
L 123.190241 80.398578 
L 123.24427 80.357601 
L 123.622477 80.082464 
L 123.676506 80.250996 
L 123.730536 80.209112 
L 124.108742 79.961508 
L 124.162771 80.082658 
L 124.216801 80.261373 
L 124.27083 80.223902 
L 124.649037 79.991647 
L 124.703066 80.080133 
L 125.729626 79.637202 
L 125.783656 79.780028 
L 125.837685 79.752274 
L 126.702157 79.56895 
L 127.836776 79.215932 
L 127.890805 79.409677 
L 127.944835 79.389689 
L 129.295572 79.007053 
L 130.268103 78.753406 
L 130.430191 78.855835 
L 130.646309 78.817645 
L 130.808397 78.905745 
L 132.267193 78.747893 
L 133.780019 78.679625 
L 139.074907 78.569 
L 147.017241 78.567848 
L 147.233359 78.611203 
L 147.719624 78.718951 
L 148.043801 78.870607 
L 149.17842 78.962493 
L 149.448567 79.059916 
L 150.259009 79.143384 
L 150.583186 79.219117 
L 150.907363 79.303779 
L 151.23154 79.433537 
L 152.041982 79.509208 
L 152.2581 79.584864 
L 152.528248 79.657361 
L 152.798395 79.763495 
L 153.392719 79.848626 
L 153.608837 79.878491 
L 154.689427 79.971214 
L 154.959574 80.025171 
L 155.824046 80.098795 
L 156.094193 80.173033 
L 156.526429 80.268181 
L 156.796576 80.36521 
L 157.552989 80.471072 
L 157.931195 80.509694 
L 159.011785 80.580616 
L 159.768198 80.656003 
L 159.984316 80.709841 
L 164.630851 81.528819 
L 165.333234 81.589334 
L 165.71144 81.707436 
L 166.683971 81.813454 
L 167.386354 81.98248 
L 167.872619 82.089724 
L 168.142767 82.151409 
L 168.84515 82.234511 
L 169.061268 82.263345 
L 170.033799 82.349062 
L 170.303946 82.3812 
L 170.9523 82.488308 
L 171.168418 82.531143 
L 171.762742 82.657612 
L 172.681243 82.764636 
L 173.167508 82.839534 
L 174.140039 82.93581 
L 174.410186 82.967897 
L 175.760923 83.062118 
L 175.977041 83.104882 
L 177.003601 83.20907 
L 177.651955 83.230443 
L 180.19134 83.334581 
L 180.461488 83.366628 
L 180.893724 83.449356 
L 181.163871 83.481391 
L 183.973404 83.58475 
L 184.189522 83.626082 
L 186.836966 83.713933 
L 187.107114 83.745936 
L 190.510971 83.845067 
L 190.889177 83.962337 
L 193.69871 84.069265 
L 193.968857 84.111877 
L 195.967948 84.192956 
L 196.184066 84.23555 
L 198.83151 84.342014 
L 198.993599 84.395234 
L 204.396547 84.498883 
L 204.666694 84.583991 
L 209.313229 84.688959 
L 209.583377 84.763389 
L 212.068733 84.850698 
L 212.33888 84.882578 
L 213.203352 84.966184 
L 213.41947 85.008676 
L 215.202442 85.109983 
L 215.41856 85.151053 
L 217.363622 85.23598 
L 217.687798 85.299662 
L 221.794039 85.402253 
L 222.334334 85.497722 
L 225.305955 85.60377 
L 225.630132 85.677986 
L 227.359075 85.762785 
L 227.629222 85.858161 
L 230.384726 85.92877 
L 230.654873 86.024096 
L 234.220819 86.116544 
L 234.544996 86.137717 
L 236.706175 86.226549 
L 236.868263 86.279458 
L 241.893005 86.353518 
L 242.109123 86.395831 
L 244.810597 86.478289 
L 245.080744 86.562879 
L 249.511161 86.658019 
L 249.781309 86.689727 
L 253.401284 86.784835 
L 253.671431 86.816532 
L 255.238286 86.901044 
L 255.454404 86.943293 
L 259.452585 87.033982 
L 259.668703 87.076212 
L 265.287769 87.16903 
L 265.503887 87.211243 
L 271.825336 87.308003 
L 272.149513 87.329098 
L 274.905016 87.424011 
L 275.121134 87.466187 
L 277.984696 87.548328 
L 278.308873 87.611566 
L 280.361993 87.714001 
L 280.68617 87.735071 
L 284.198086 87.806599 
L 284.360175 87.859255 
L 285.224646 87.932962 
L 285.386735 87.985601 
L 289.97924 88.062418 
L 290.195358 88.104508 
L 293.437127 88.188674 
L 293.653245 88.229268 
L 296.138601 88.33295 
L 296.462778 88.351751 
L 299.488429 88.435852 
L 299.758576 88.519935 
L 303.972875 88.622772 
L 303.972875 88.622772 
" clip-path="url(#p3c5bcc7013)" style="fill: none; stroke: #ff7f0e; stroke-width: 1.8; stroke-linecap: square"/>
   </g>
   <g id="line2d_25">
    <path d="M 77.427273 36.121818 
L 77.69742 100.519382 
L 77.75145 98.580913 
L 77.967568 76.075373 
L 78.075626 100.314621 
L 78.183685 93.447289 
L 78.345774 86.905927 
L 78.399803 91.343056 
L 78.453833 88.666411 
L 78.561892 84.80136 
L 78.615921 86.75758 
L 78.669951 85.125221 
L 78.832039 106.164764 
L 79.048157 96.483471 
L 79.102187 98.062242 
L 79.156216 100.265089 
L 79.210246 98.41924 
L 79.264275 99.528013 
L 79.318304 98.89774 
L 79.372334 98.166127 
L 79.426363 99.420926 
L 79.534422 96.149716 
L 79.642481 102.310809 
L 79.696511 101.075592 
L 79.80457 104.028432 
L 79.858599 102.1625 
L 79.912629 102.28862 
L 79.966658 107.19505 
L 80.020688 106.014504 
L 80.236806 100.783492 
L 80.290835 102.300643 
L 80.344865 101.119528 
L 80.452924 98.548416 
L 80.615012 104.793687 
L 80.669041 103.526367 
L 80.83113 100.470441 
L 80.885159 101.028204 
L 81.101277 98.510685 
L 81.155307 99.458717 
L 81.209336 98.764203 
L 81.371425 95.726919 
L 81.425454 99.925652 
L 81.479484 99.023606 
L 81.749631 95.101053 
L 81.965749 99.045822 
L 82.019778 98.411687 
L 82.181867 96.554694 
L 82.235896 98.674474 
L 82.289926 98.100214 
L 82.343955 97.344006 
L 82.397985 99.541213 
L 82.452014 98.89731 
L 82.614103 97.691083 
L 82.668132 97.876034 
L 82.830221 100.392254 
L 82.88425 99.986762 
L 82.93828 100.883233 
L 82.992309 100.311472 
L 83.100368 99.115737 
L 83.154397 99.941926 
L 83.208427 99.269274 
L 83.262456 99.841928 
L 83.316486 99.370257 
L 83.370515 98.723259 
L 83.424545 99.61936 
L 83.532604 103.4471 
L 83.586633 103.104616 
L 83.856781 100.631622 
L 83.96484 102.646307 
L 84.018869 102.114244 
L 84.072899 101.598742 
L 84.180958 102.808562 
L 84.343046 102.208055 
L 84.613193 100.680791 
L 84.667223 100.887531 
L 84.721252 101.508883 
L 84.775282 101.010361 
L 84.93737 99.566338 
L 84.9914 100.982201 
L 85.045429 100.595374 
L 85.099459 100.116559 
L 85.153488 100.29174 
L 85.207518 100.24194 
L 85.477665 98.5163 
L 85.585724 98.855447 
L 85.639753 100.988747 
L 85.693783 100.547785 
L 85.855871 99.124354 
L 85.909901 99.179145 
L 85.96393 99.699901 
L 86.01796 99.364574 
L 86.071989 98.996778 
L 86.126019 99.308629 
L 86.234078 98.827194 
L 86.450196 97.3696 
L 86.504225 97.557047 
L 86.558255 98.141959 
L 86.612284 97.704921 
L 86.720343 97.028123 
L 86.774372 98.111842 
L 86.828402 97.831817 
L 86.936461 97.102639 
L 86.99049 97.435569 
L 87.152579 99.46413 
L 87.260638 98.693946 
L 87.530785 97.890687 
L 87.692874 99.023147 
L 87.746903 99.086536 
L 87.800933 98.84419 
L 87.854962 99.033399 
L 87.908992 98.982063 
L 88.125109 97.861615 
L 88.179139 98.757588 
L 88.233168 98.439199 
L 88.287198 98.329005 
L 88.341227 98.614192 
L 88.611375 97.61624 
L 88.719434 98.052841 
L 88.935552 96.938748 
L 88.989581 96.69708 
L 89.259728 98.848763 
L 89.313758 99.276048 
L 89.367787 98.909463 
L 89.529876 99.235576 
L 90.070171 97.341471 
L 90.17823 98.544503 
L 90.232259 98.355113 
L 90.394348 97.550337 
L 90.502406 96.956388 
L 90.556436 97.648283 
L 90.610465 97.622748 
L 90.826583 96.832533 
L 90.934642 97.226553 
L 90.988672 96.970048 
L 91.096731 96.478225 
L 91.15076 96.562212 
L 91.20479 96.511874 
L 91.258819 96.868027 
L 91.312849 96.73609 
L 91.582996 95.978688 
L 91.745084 96.339083 
L 91.799114 96.352702 
L 91.853143 96.694156 
L 91.907173 96.431787 
L 92.17732 95.612492 
L 92.23135 96.178655 
L 92.285379 96.005893 
L 92.609556 94.922189 
L 92.663586 95.566524 
L 92.717615 95.309512 
L 92.771645 95.061136 
L 92.825674 95.90278 
L 92.879704 95.692739 
L 92.987762 95.370713 
L 93.041792 95.871216 
L 93.095821 95.626497 
L 93.419998 94.58334 
L 93.474028 94.744208 
L 93.852234 93.583109 
L 93.906264 94.03529 
L 93.960293 93.839528 
L 94.014323 93.616176 
L 94.068352 94.046106 
L 94.122382 93.892775 
L 94.176411 93.823273 
L 94.23044 93.970544 
L 94.28447 93.798997 
L 94.338499 93.828423 
L 94.446558 93.48658 
L 94.500588 93.903906 
L 94.554617 93.676318 
L 94.716706 93.127467 
L 94.770735 93.229356 
L 95.31103 92.082397 
L 95.527148 92.761193 
L 95.581177 92.581732 
L 95.635207 92.434337 
L 95.905354 93.381481 
L 96.013413 93.106553 
L 96.067443 93.347982 
L 96.121472 93.184632 
L 96.499679 92.21808 
L 96.607738 91.935258 
L 96.661767 92.346531 
L 96.715796 92.176411 
L 96.931914 91.610372 
L 97.256091 90.866212 
L 97.472209 90.266904 
L 97.688327 91.705622 
L 97.742357 91.575695 
L 97.904445 91.419614 
L 97.958474 91.844936 
L 98.012504 91.705217 
L 98.120563 91.579851 
L 98.174592 91.860017 
L 98.228622 91.737241 
L 98.282651 91.564047 
L 98.336681 91.734121 
L 98.44474 91.837732 
L 98.498769 91.688177 
L 98.660858 91.302632 
L 98.714887 91.39059 
L 98.931005 92.530439 
L 98.985035 92.561364 
L 99.039064 92.83387 
L 99.093094 92.68566 
L 99.525329 91.826857 
L 99.579359 91.937475 
L 99.633388 92.177697 
L 99.687418 92.051649 
L 99.741447 91.949129 
L 99.795477 92.421677 
L 99.849506 92.268836 
L 100.065624 91.89544 
L 100.119654 92.350234 
L 100.173683 92.197613 
L 100.281742 91.968188 
L 100.389801 92.347876 
L 100.44383 92.219426 
L 100.49786 92.394428 
L 100.551889 92.274591 
L 100.605919 92.309802 
L 100.768007 91.925627 
L 100.822037 92.087125 
L 100.876066 91.941646 
L 100.930096 92.019562 
L 100.984125 92.35394 
L 101.038155 92.189007 
L 101.092184 92.078272 
L 101.254273 92.706302 
L 101.308302 92.550122 
L 101.416361 93.018329 
L 101.470391 92.898032 
L 101.52442 92.733207 
L 101.57845 93.050795 
L 101.632479 92.913759 
L 102.226803 91.558347 
L 102.280833 91.970208 
L 102.334862 91.943542 
L 102.388892 91.817046 
L 102.442921 91.880582 
L 102.496951 92.034519 
L 102.55098 91.901235 
L 102.659039 91.651202 
L 102.713069 91.76318 
L 102.767098 91.739402 
L 102.929186 91.899065 
L 103.199334 91.580779 
L 103.361422 91.880786 
L 104.063806 90.696063 
L 104.117835 91.150242 
L 104.171864 91.033492 
L 104.333953 90.687889 
L 104.387982 91.003805 
L 104.442012 90.922438 
L 104.820218 90.239643 
L 105.036336 90.775355 
L 105.090366 90.665 
L 105.306484 91.424046 
L 105.522601 90.991267 
L 105.900808 91.969725 
L 106.549162 90.908543 
L 106.603191 91.189119 
L 106.65722 91.068216 
L 106.819309 90.772144 
L 106.873338 90.986902 
L 106.927368 90.920198 
L 107.359604 90.25309 
L 107.413633 90.694483 
L 107.467663 90.582334 
L 107.683781 90.254612 
L 107.73781 90.458577 
L 107.79184 90.333112 
L 108.116016 89.822368 
L 108.170046 90.099194 
L 108.224075 89.996676 
L 108.8184 89.158232 
L 108.980488 89.758803 
L 109.034518 89.679431 
L 109.088547 89.586187 
L 109.142576 89.754407 
L 109.196606 89.647305 
L 109.520783 89.064433 
L 109.574812 89.54313 
L 109.628842 89.453235 
L 109.953019 88.901215 
L 110.007048 88.986254 
L 110.061078 88.897177 
L 110.223166 88.611738 
L 110.277196 88.841024 
L 110.331225 88.754306 
L 111.465844 87.240639 
L 111.627933 87.650234 
L 111.681962 87.554913 
L 111.735991 87.491145 
L 111.84405 87.82854 
L 112.114198 87.477708 
L 112.168227 87.678647 
L 112.222257 87.597009 
L 112.330316 87.454149 
L 112.384345 87.671676 
L 112.438375 87.573324 
L 112.600463 87.344884 
L 112.654493 87.448255 
L 112.708522 87.355924 
L 112.816581 87.210812 
L 112.92464 87.590403 
L 112.978669 87.517873 
L 113.032699 87.461201 
L 113.086728 87.585087 
L 113.140758 87.505676 
L 113.302846 87.265336 
L 113.356876 87.392967 
L 113.410905 87.317968 
L 113.627023 87.033079 
L 113.897171 86.765797 
L 113.9512 87.104732 
L 114.00523 87.068603 
L 114.491495 86.394017 
L 114.545524 86.55871 
L 114.599554 86.478198 
L 114.923731 86.176988 
L 114.97776 86.293253 
L 115.03179 86.211862 
L 115.085819 86.159599 
L 115.139849 86.36385 
L 115.193878 86.294899 
L 115.626114 85.835287 
L 116.544615 85.152683 
L 116.598645 85.240119 
L 116.652674 85.16782 
L 116.976851 84.807432 
L 117.03088 84.893493 
L 117.138939 84.866137 
L 117.355057 84.588176 
L 117.463116 84.999423 
L 117.517146 84.956528 
L 118.11147 84.376608 
L 118.165499 84.473952 
L 118.381617 85.05207 
L 119.786384 83.671288 
L 119.948472 83.515243 
L 120.002502 83.711103 
L 120.056531 83.63979 
L 121.137121 82.675139 
L 121.19115 82.754841 
L 121.24518 82.696644 
L 121.407268 82.59591 
L 121.461298 82.658348 
L 121.515327 82.605923 
L 122.541887 81.83482 
L 122.595917 81.997948 
L 122.649946 81.975649 
L 124.703066 80.547754 
L 124.811125 80.463908 
L 124.919184 80.655486 
L 124.973214 80.617986 
L 125.729626 80.157927 
L 125.837685 80.260443 
L 126.540069 79.811406 
L 126.594098 79.966783 
L 126.648127 79.942301 
L 127.026334 79.705782 
L 127.188422 80.01895 
L 127.242452 79.986289 
L 127.350511 79.948372 
L 127.40454 80.077663 
L 127.45857 80.050345 
L 127.890805 79.794004 
L 127.998864 79.871245 
L 128.809307 79.424299 
L 129.727808 79.119091 
L 130.862427 78.766192 
L 131.943016 78.43526 
L 132.051075 78.582149 
L 132.105105 78.562593 
L 133.131665 78.239067 
L 133.239724 78.362253 
L 133.509871 78.292115 
L 133.67196 78.358604 
L 133.888078 78.301679 
L 134.050166 78.370045 
L 135.076726 78.08486 
L 136.859699 77.796151 
L 147.881712 76.956535 
L 152.798395 76.931927 
L 153.014513 76.962854 
L 155.013604 76.980559 
L 161.335053 76.943477 
L 165.819499 77.020547 
L 166.143676 77.205251 
L 166.359794 77.239873 
L 167.008148 77.30341 
L 167.170236 77.372622 
L 168.629032 77.467522 
L 168.791121 77.536688 
L 169.061268 77.640415 
L 169.277386 77.742194 
L 169.92574 77.842014 
L 171.114388 78.230111 
L 171.92483 78.331031 
L 172.249007 78.352733 
L 173.275567 78.449058 
L 173.437656 78.518009 
L 173.761833 78.584994 
L 173.97795 78.664099 
L 174.356157 78.708079 
L 175.652864 78.775012 
L 175.923012 78.866848 
L 178.570456 78.968166 
L 178.786574 79.002588 
L 183.487139 79.098591 
L 183.811316 79.121527 
L 185.540259 79.213257 
L 185.756377 79.259114 
L 188.998145 79.362271 
L 189.322322 79.385191 
L 193.266474 79.488313 
L 193.482592 79.52268 
L 198.129127 79.601528 
L 198.345245 79.635884 
L 201.96522 79.725483 
L 202.289397 79.748379 
L 204.720724 79.839948 
L 204.936842 79.942937 
L 206.773844 80.023019 
L 206.989962 80.068773 
L 209.097111 80.169677 
L 209.2592 80.249707 
L 209.583377 80.270545 
L 212.014703 80.361977 
L 212.39291 80.407685 
L 215.41856 80.476236 
L 215.634678 80.52193 
L 221.091656 80.62268 
L 221.307773 80.668354 
L 227.088928 80.762914 
L 227.305046 80.797151 
L 230.006519 80.886381 
L 230.222637 80.920604 
L 232.545905 81.009795 
L 232.762023 81.044005 
L 236.490057 81.146617 
L 236.922293 81.21501 
L 243.135683 81.316195 
L 243.351801 81.407338 
L 248.64669 81.49292 
L 248.862807 81.538467 
L 253.995608 81.628849 
L 254.211726 81.662997 
L 257.93976 81.77123 
L 258.696172 81.828112 
L 260.046909 81.907731 
L 260.263027 81.941849 
L 267.340889 82.023018 
L 267.557007 82.057117 
L 271.33907 82.153785 
L 271.501159 82.233307 
L 272.311601 82.301456 
L 272.527719 82.346881 
L 275.175163 82.412188 
L 275.337252 82.468949 
L 277.768578 82.544157 
L 277.984696 82.589545 
L 281.010347 82.683852 
L 281.226465 82.729215 
L 284.090027 82.819926 
L 284.252116 82.876608 
L 289.222828 82.968637 
L 289.547005 82.991296 
L 291.924302 83.07978 
L 292.248479 83.102432 
L 293.221009 83.157625 
L 293.437127 83.259524 
L 296.462778 83.353496 
L 296.840984 83.48926 
L 302.351991 83.577349 
L 302.568109 83.611264 
L 304.675259 83.698075 
L 304.999435 83.777172 
L 307.64688 83.881437 
L 307.971057 83.904023 
L 310.186265 83.998374 
L 310.402383 84.043522 
L 314.8328 84.143982 
L 315.156977 84.289864 
L 315.967419 84.380058 
L 316.129508 84.447688 
L 317.804422 84.515307 
L 318.02054 84.560379 
L 319.587395 84.649771 
L 319.911571 84.672299 
L 321.262308 84.754291 
L 321.478426 84.844355 
L 323.315429 84.930699 
L 323.531546 84.964457 
L 324.612136 85.065711 
L 324.882283 85.118983 
L 326.881374 85.229202 
L 327.097492 85.27417 
L 329.636877 85.36409 
L 329.907025 85.431516 
L 332.284322 85.510163 
L 332.608499 85.588795 
L 334.877737 85.647187 
L 335.093855 85.725774 
L 335.742209 85.815567 
L 336.066385 85.835756 
L 338.767859 85.936737 
L 339.038007 86.004043 
L 341.84754 86.104978 
L 342.063658 86.138617 
L 345.89975 86.226791 
L 346.169898 86.282834 
L 348.0069 86.379893 
L 348.223018 86.424706 
L 350.005991 86.525515 
L 350.222109 86.559112 
L 352.815524 86.612813 
L 353.031642 86.713566 
L 355.30088 86.812761 
L 355.516998 86.846329 
L 357.786236 86.951295 
L 358.056383 87.007211 
L 362.108594 87.11748 
L 362.324712 87.151014 
L 364.485891 87.218075 
L 364.702009 87.262775 
L 367.079306 87.357147 
L 367.457512 87.401825 
L 368.808249 87.453793 
L 370.429134 87.554276 
L 370.75331 87.576601 
L 372.536283 87.665891 
L 372.752401 87.788629 
L 374.751492 87.899394 
L 375.183728 87.966304 
L 377.290877 88.06508 
L 377.723113 88.131958 
L 379.019821 88.131958 
L 379.019821 88.131958 
" clip-path="url(#p3c5bcc7013)" style="fill: none; stroke: #2ca02c; stroke-width: 1.8; stroke-linecap: square"/>
   </g>
   <g id="line2d_26">
    <path d="M 77.427273 36.121818 
L 77.589361 36.121818 
L 77.643391 91.282027 
L 77.69742 83.181577 
L 77.913538 62.720812 
L 78.291744 50.783137 
L 78.453833 49.001331 
L 78.507862 64.72927 
L 78.561892 63.564149 
L 79.048157 55.431848 
L 79.102187 54.805269 
L 79.156216 62.40645 
L 79.210246 61.40775 
L 79.372334 59.502292 
L 79.426363 65.357831 
L 79.480393 64.641675 
L 79.696511 61.849003 
L 79.75054 65.184635 
L 79.80457 64.478705 
L 80.182776 60.581647 
L 80.506953 57.83647 
L 80.560982 61.668814 
L 80.615012 61.163779 
L 80.669041 60.619875 
L 80.723071 65.332833 
L 80.7771 64.82847 
L 80.939189 63.3849 
L 80.993218 66.237809 
L 81.047248 65.871221 
L 81.263366 64.368802 
L 81.317395 65.764366 
L 81.371425 65.415716 
L 82.506044 59.015038 
L 82.560073 61.564334 
L 82.614103 61.274296 
L 82.668132 60.92663 
L 82.722162 63.442144 
L 82.776191 63.160745 
L 82.830221 62.904246 
L 82.88425 64.801939 
L 82.93828 64.446566 
L 83.208427 63.26696 
L 83.262456 65.565624 
L 83.316486 65.276487 
L 83.586633 63.977178 
L 83.640663 65.14836 
L 83.694692 64.792042 
L 83.748722 64.526174 
L 83.91081 67.490625 
L 84.018869 66.9707 
L 84.072899 68.164286 
L 84.126928 67.912452 
L 84.180958 67.615427 
L 84.289016 69.867972 
L 84.343046 69.592893 
L 84.505134 68.913323 
L 84.559164 70.926976 
L 84.613193 70.626374 
L 84.721252 70.089285 
L 84.775282 71.080496 
L 84.829311 70.78786 
L 85.045429 69.761136 
L 85.099459 70.808177 
L 85.153488 70.50182 
L 85.531694 68.920622 
L 85.585724 69.756609 
L 85.639753 69.522709 
L 85.801842 68.888491 
L 85.855871 69.684074 
L 85.909901 69.469197 
L 86.180048 68.371624 
L 86.234078 68.9247 
L 86.288107 70.857142 
L 86.342137 70.650231 
L 86.504225 69.959158 
L 86.558255 71.008005 
L 86.612284 70.756638 
L 87.422726 67.985196 
L 87.476756 68.827307 
L 87.530785 68.619362 
L 87.746903 68.263321 
L 88.125109 67.072054 
L 88.179139 67.78749 
L 88.233168 67.657486 
L 88.395257 67.230851 
L 88.449286 67.532469 
L 88.503316 67.374465 
L 89.475846 64.824527 
L 89.529876 65.46047 
L 89.583905 65.355558 
L 89.800023 64.754591 
L 89.854053 65.746523 
L 89.908082 65.623617 
L 90.610465 63.97039 
L 90.664495 65.132712 
L 90.718524 65.038435 
L 91.528967 63.481963 
L 91.582996 64.001184 
L 91.637026 63.872843 
L 92.069261 63.023647 
L 92.123291 63.420472 
L 92.17732 63.340965 
L 92.501497 62.805401 
L 92.663586 65.185251 
L 92.717615 65.075054 
L 92.879704 66.660619 
L 92.933733 66.537412 
L 93.365969 65.669157 
L 93.528057 66.965329 
L 93.582087 66.842624 
L 94.28447 65.549724 
L 94.446558 65.33193 
L 94.500588 66.003425 
L 94.554617 65.875038 
L 94.878794 65.308356 
L 94.932824 66.039792 
L 94.986853 65.962079 
L 95.851325 64.620537 
L 96.013413 64.36034 
L 96.067443 64.763661 
L 96.121472 64.702167 
L 96.607738 64.086319 
L 96.661767 64.011689 
L 96.715796 64.367107 
L 96.769826 64.285308 
L 96.931914 64.034714 
L 97.148032 65.227746 
L 98.012504 63.876061 
L 98.336681 63.429486 
L 98.498769 64.711003 
L 98.876976 64.210046 
L 98.931005 64.398439 
L 98.985035 64.313316 
L 99.525329 63.654974 
L 99.633388 64.139676 
L 99.687418 64.078935 
L 99.849506 63.859219 
L 99.903536 64.229136 
L 99.957565 64.148148 
L 100.713978 63.344706 
L 100.822037 64.016046 
L 100.876066 63.95738 
L 101.146214 63.58467 
L 101.200243 64.113327 
L 101.254273 64.048957 
L 101.52442 63.724047 
L 101.57845 64.237471 
L 101.632479 64.146994 
L 102.064715 63.643024 
L 102.172774 63.495758 
L 102.226803 63.873679 
L 102.280833 63.806503 
L 102.334862 63.749916 
L 102.388892 64.356339 
L 102.442921 64.314533 
L 102.659039 64.095014 
L 102.713069 64.396182 
L 102.767098 64.334116 
L 103.361422 63.702445 
L 103.415452 64.012705 
L 103.469481 63.954094 
L 103.63157 63.792462 
L 103.685599 64.005671 
L 103.739629 63.93885 
L 104.279923 63.400506 
L 104.333953 63.813005 
L 104.387982 63.763425 
L 104.442012 63.692228 
L 104.496041 63.819775 
L 104.550071 63.768619 
L 104.928277 63.382616 
L 104.982307 63.570153 
L 105.036336 63.51207 
L 105.090366 63.453316 
L 105.144395 63.737189 
L 105.198425 63.69201 
L 105.306484 63.655705 
L 105.360513 63.921923 
L 105.414542 63.85375 
L 105.468572 63.790483 
L 105.576631 64.482868 
L 105.63066 64.421372 
L 105.68469 64.64751 
L 105.738719 64.589644 
L 105.792749 64.540365 
L 105.846778 64.848903 
L 105.900808 64.797486 
L 106.333044 64.379085 
L 106.387073 64.914082 
L 106.441103 64.853376 
L 106.819309 64.458689 
L 106.873338 64.629298 
L 106.927368 64.572038 
L 107.089456 64.441386 
L 107.143486 64.676633 
L 107.197515 64.625985 
L 107.413633 64.430425 
L 107.521692 64.971175 
L 107.575722 64.917956 
L 108.332134 64.194665 
L 108.440193 64.753554 
L 108.548252 64.658958 
L 108.926459 64.439671 
L 108.980488 64.700345 
L 109.034518 64.648398 
L 109.628842 64.157694 
L 109.682871 64.723346 
L 109.736901 64.670792 
L 111.033608 63.574452 
L 111.141667 63.93864 
L 111.195697 63.89505 
L 111.303756 63.78629 
L 111.357785 64.133585 
L 111.411815 64.086942 
L 111.519874 63.999429 
L 111.573903 64.205988 
L 111.627933 64.145855 
L 112.060168 63.838609 
L 112.114198 64.012705 
L 112.168227 63.977658 
L 112.276286 63.890794 
L 112.330316 64.214321 
L 112.384345 64.162073 
L 112.438375 64.124128 
L 112.492404 64.271364 
L 112.546434 64.236355 
L 112.816581 64.045718 
L 113.032699 64.796963 
L 113.248817 64.641942 
L 113.356876 65.0631 
L 113.410905 65.01594 
L 113.789112 64.733978 
L 113.843141 65.079208 
L 113.897171 65.036313 
L 114.221347 64.906944 
L 114.275377 65.166443 
L 114.329406 65.115862 
L 114.383436 65.081508 
L 114.437465 65.445933 
L 114.491495 65.396546 
L 114.599554 65.299731 
L 114.653583 65.706285 
L 114.707613 65.681887 
L 114.97776 65.568224 
L 115.03179 65.757753 
L 115.085819 65.70495 
L 115.409996 65.443018 
L 115.518055 66.214973 
L 115.572084 66.170902 
L 116.328497 65.596092 
L 116.382527 65.679391 
L 116.436556 65.965262 
L 116.490586 65.928261 
L 116.814762 65.68368 
L 116.868792 65.846743 
L 116.922821 65.803289 
L 117.138939 65.629351 
L 117.192969 65.799874 
L 117.246998 65.766578 
L 117.895352 65.333698 
L 117.949381 65.47685 
L 118.003411 65.440412 
L 118.705794 64.975469 
L 118.867883 65.34534 
L 118.921912 65.311136 
L 119.029971 65.233815 
L 119.084001 65.610715 
L 119.13803 65.570457 
L 119.192059 65.546091 
L 119.246089 65.795516 
L 119.300118 65.761751 
L 119.462207 65.665516 
L 119.570266 66.050737 
L 119.624295 66.018238 
L 119.948472 65.815564 
L 120.002502 65.987206 
L 120.056531 65.955725 
L 120.21862 65.850619 
L 120.272649 66.132501 
L 120.326679 66.095175 
L 120.488767 65.993491 
L 120.542796 66.148271 
L 120.596826 66.103335 
L 120.758914 65.999651 
L 120.812944 66.267273 
L 120.866973 66.226334 
L 121.24518 65.989408 
L 121.299209 66.220211 
L 121.353239 66.18231 
L 121.569357 66.051995 
L 121.623386 66.329154 
L 121.677415 66.29136 
L 121.785474 66.22306 
L 121.839504 66.41783 
L 121.893533 66.375638 
L 122.325769 66.109249 
L 122.379799 66.257987 
L 122.433828 66.229682 
L 123.2983 65.761982 
L 123.352329 66.048321 
L 123.406359 66.01579 
L 124.000683 65.708737 
L 124.054713 65.975304 
L 124.108742 65.94447 
L 124.162771 65.915507 
L 124.27083 66.278287 
L 124.32486 66.257593 
L 124.757096 66.132619 
L 124.865155 66.075637 
L 124.919184 66.191605 
L 124.973214 66.163409 
L 125.243361 66.004828 
L 125.297391 66.233503 
L 125.35142 66.197719 
L 125.891715 65.943148 
L 126.107833 66.255673 
L 127.296481 65.659994 
L 127.512599 65.664864 
L 127.620658 65.622546 
L 127.836776 66.205308 
L 127.944835 66.150428 
L 128.052894 66.226735 
L 128.323041 66.082904 
L 128.377071 66.366597 
L 128.4311 66.328986 
L 129.241542 65.963514 
L 129.295572 66.121368 
L 129.349601 66.097391 
L 129.889896 65.903646 
L 130.051985 66.192896 
L 130.106014 66.164106 
L 130.322132 66.078066 
L 130.376161 66.230374 
L 130.430191 66.208296 
L 130.754368 66.06503 
L 130.808397 66.315786 
L 130.862427 66.295433 
L 131.024515 66.236182 
L 131.078545 66.509717 
L 131.132574 66.487091 
L 131.186604 66.461746 
L 131.294663 66.607564 
L 131.456751 66.560681 
L 131.510781 66.720322 
L 131.56481 66.69269 
L 132.375252 66.525911 
L 132.429282 66.773274 
L 132.483311 66.75245 
L 132.699429 66.693965 
L 132.807488 66.804472 
L 132.861517 66.793542 
L 132.915547 67.066533 
L 133.023606 67.040668 
L 133.293753 66.935456 
L 133.455842 67.113275 
L 135.292844 66.656401 
L 135.400903 66.753544 
L 135.617021 66.681932 
L 135.67105 66.876401 
L 135.72508 66.854057 
L 135.995227 66.877432 
L 136.427463 66.862204 
L 136.589551 66.915493 
L 136.805669 66.904865 
L 136.967758 67.008157 
L 137.075817 66.989679 
L 137.237905 67.090069 
L 137.399994 67.046773 
L 137.616112 67.369854 
L 137.994318 67.391266 
L 138.210436 67.672172 
L 139.182966 67.595923 
L 139.291025 67.915093 
L 139.345055 67.896895 
L 139.399084 67.889943 
L 139.561173 68.001735 
L 139.615202 67.988871 
L 139.777291 68.076436 
L 140.371615 68.062759 
L 140.533703 68.106941 
L 141.182057 68.11561 
L 141.93847 68.078878 
L 142.100558 68.148272 
L 142.262647 68.114911 
L 142.424735 68.193484 
L 142.640853 68.225276 
L 142.856971 68.510538 
L 144.639944 68.278753 
L 144.802032 68.433405 
L 146.206799 68.250899 
L 146.368887 68.394567 
L 146.693064 68.382912 
L 146.855152 68.475065 
L 147.233359 68.457598 
L 147.395447 68.54607 
L 147.503506 68.535659 
L 147.665595 68.628326 
L 147.989771 68.670228 
L 148.15186 68.751422 
L 149.880803 68.596803 
L 150.042892 68.786528 
L 150.096921 68.77255 
L 150.259009 68.871561 
L 151.123481 68.756823 
L 151.28557 68.825187 
L 151.447658 68.805599 
L 151.609746 69.073941 
L 152.2581 69.065757 
L 152.420189 69.163095 
L 152.582277 69.219968 
L 153.068542 69.22231 
L 153.554808 69.594426 
L 154.203161 69.5843 
L 154.36525 69.612224 
L 154.689427 69.666089 
L 154.851515 69.752791 
L 155.283751 69.752117 
L 155.499869 69.866967 
L 155.824046 69.928631 
L 155.986134 70.025382 
L 156.742547 70.014465 
L 156.904635 70.153191 
L 157.282842 70.172866 
L 157.44493 70.247722 
L 158.309402 70.231083 
L 158.47149 70.270832 
L 159.065814 70.30346 
L 159.227903 70.355167 
L 159.714168 70.407431 
L 159.876257 70.505189 
L 161.010876 70.463972 
L 161.172964 70.490696 
L 161.226994 70.488608 
L 161.389082 70.614089 
L 161.6052 70.677781 
L 161.767288 70.730964 
L 162.901907 70.691852 
L 163.118025 70.84568 
L 164.036526 70.82736 
L 164.252644 70.941319 
L 164.576821 70.960688 
L 164.73891 71.010667 
L 164.792939 71.004369 
L 164.955028 71.159505 
L 165.441293 71.112675 
L 165.603381 71.229224 
L 166.467853 71.255494 
L 166.629941 71.461731 
L 168.737091 71.434099 
L 168.89918 71.544165 
L 169.061268 71.587205 
L 169.223356 71.656898 
L 169.601563 71.688234 
L 169.817681 71.843325 
L 170.303946 71.895967 
L 171.816771 71.917926 
L 171.97886 71.99344 
L 173.437656 71.970475 
L 173.599744 72.034565 
L 174.572275 72.094952 
L 174.734363 72.139862 
L 175.436746 72.174623 
L 175.598835 72.218357 
L 175.977041 72.265132 
L 176.13913 72.309301 
L 177.489867 72.29512 
L 177.705984 72.414164 
L 178.786574 72.457561 
L 178.948662 72.564315 
L 180.137311 72.593547 
L 180.299399 72.638825 
L 181.758195 72.656869 
L 181.974313 72.688958 
L 182.244461 72.740753 
L 182.568638 72.825786 
L 184.945935 72.796458 
L 185.594288 72.959119 
L 186.350701 72.97632 
L 186.620848 73.09384 
L 188.403821 73.127218 
L 188.836057 73.234168 
L 189.808588 73.289924 
L 189.970676 73.361229 
L 190.402912 73.403584 
L 190.61903 73.438187 
L 191.915737 73.540444 
L 192.456032 73.614241 
L 192.67215 73.654059 
L 193.75274 73.724011 
L 194.184975 73.792805 
L 198.237186 73.886675 
L 198.507334 73.980984 
L 201.100749 74.014517 
L 204.990871 74.033391 
L 205.206989 74.062749 
L 205.747284 74.138491 
L 206.017431 74.220111 
L 207.043991 74.273201 
L 207.260109 74.312615 
L 211.690526 74.387526 
L 212.014703 74.534226 
L 212.933204 74.599716 
L 213.149322 74.639491 
L 215.580649 74.698628 
L 215.796767 74.73943 
L 216.985415 74.755471 
L 217.147504 74.806847 
L 218.55227 74.865774 
L 218.768388 74.894283 
L 222.226275 74.995329 
L 222.442393 75.025426 
L 224.927749 75.075385 
L 225.522073 75.079937 
L 228.277576 75.134899 
L 228.493694 75.175486 
L 230.870991 75.238665 
L 231.087109 75.278103 
L 235.08529 75.323011 
L 235.301408 75.352399 
L 239.623767 75.397137 
L 239.839885 75.437533 
L 243.838066 75.486478 
L 244.000154 75.537304 
L 248.160424 75.595433 
L 248.376542 75.635697 
L 250.969957 75.726113 
L 251.240104 75.777347 
L 251.942488 75.86107 
L 252.158606 75.902925 
L 256.751111 75.995417 
L 257.021259 76.02513 
L 260.533175 76.129703 
L 260.803322 76.16107 
L 272.041454 76.260023 
L 272.36563 76.279807 
L 292.572655 76.372725 
L 292.896832 76.393618 
L 297.921574 76.47718 
L 298.191721 76.508511 
L 304.675259 76.608989 
L 304.999435 76.629867 
L 309.159705 76.733112 
L 309.429853 76.785286 
L 315.373095 76.874087 
L 315.643243 76.905376 
L 331.095673 77.00852 
L 331.365821 77.039797 
L 344.657072 77.131337 
L 344.92722 77.162602 
L 352.977612 77.262803 
L 353.301789 77.283638 
L 362.810977 77.376233 
L 363.135154 77.397061 
L 373.238666 77.486753 
L 373.508814 77.517981 
L 381.505177 77.597792 
L 381.721295 77.639414 
L 385.34127 77.741715 
L 385.935594 77.75154 
L 388.042744 77.83416 
L 388.312891 77.865355 
L 395.444782 77.965837 
L 395.768959 77.985464 
L 403.603233 78.062788 
L 403.819351 78.104344 
L 407.06112 78.187442 
L 407.331267 78.218599 
L 415.435689 78.299918 
L 415.705836 78.331064 
L 424.134435 78.414108 
L 424.134435 78.414108 
" clip-path="url(#p3c5bcc7013)" style="fill: none; stroke: #d62728; stroke-width: 1.8; stroke-linecap: square"/>
   </g>
   <g id="line2d_27">
    <path d="M 77.427273 99.969498 
L 77.535332 67.476718 
L 77.643391 73.16094 
L 77.805479 59.62345 
L 77.859509 75.516759 
L 77.913538 71.133299 
L 77.967568 71.876519 
L 78.291744 58.631886 
L 78.561892 53.505691 
L 78.615921 63.942523 
L 78.669951 62.662138 
L 79.048157 56.717481 
L 79.534422 52.080466 
L 79.80457 50.402149 
L 79.858599 51.136209 
L 79.912629 50.822027 
L 80.398894 48.458649 
L 80.993218 46.42715 
L 81.533513 45.03016 
L 82.776191 42.903301 
L 83.370515 42.241044 
L 86.071989 40.31958 
L 87.963021 39.591096 
L 91.691055 38.693635 
L 99.309211 37.798383 
L 104.333953 37.485755 
L 111.627933 37.195059 
L 125.135302 36.901829 
L 137.616112 36.84685 
L 140.263556 36.93849 
L 140.533703 37.053378 
L 140.695792 37.15675 
L 140.91191 37.202684 
L 141.290116 37.271575 
L 141.506234 37.37489 
L 141.668322 37.432237 
L 141.830411 37.524033 
L 142.532794 37.615721 
L 142.694883 37.684535 
L 143.505325 37.776075 
L 143.667413 37.844852 
L 144.369796 37.936537 
L 144.531885 38.005286 
L 145.882622 38.08471 
L 146.04471 38.141958 
L 146.260828 38.222092 
L 146.585005 38.302209 
L 147.935742 38.404994 
L 148.259919 38.427873 
L 149.17842 38.519275 
L 149.394538 38.565017 
L 155.013604 38.655936 
L 155.33778 38.678795 
L 157.228812 38.781375 
L 157.44493 38.827073 
L 160.956846 38.91825 
L 161.172964 38.95251 
L 162.793848 39.05527 
L 163.009966 39.123762 
L 165.009057 39.169285 
L 165.171146 39.237754 
L 166.143676 39.317435 
L 166.413824 39.408685 
L 168.088737 39.465126 
L 168.304855 39.59052 
L 171.222447 39.692467 
L 171.438565 39.726644 
L 172.735272 39.817767 
L 172.95139 39.863321 
L 174.356157 39.965799 
L 174.788393 40.045485 
L 176.571365 40.147914 
L 176.787483 40.19343 
L 178.570456 40.238941 
L 178.786574 40.375441 
L 179.326869 40.466415 
L 179.542987 40.511894 
L 181.217901 40.613813 
L 181.758195 40.73861 
L 182.244461 40.80677 
L 182.514608 40.988474 
L 184.027433 41.056591 
L 184.243551 41.124697 
L 188.457851 41.225655 
L 188.727998 41.339082 
L 190.510971 41.418309 
L 190.727089 41.452016 
L 191.267384 41.508696 
L 191.429472 41.565368 
L 192.942297 41.655707 
L 193.374533 41.8143 
L 195.697801 41.893156 
L 195.859889 41.995047 
L 197.913009 42.096911 
L 198.129127 42.198749 
L 200.506424 42.277938 
L 200.668513 42.334492 
L 202.775662 42.424961 
L 202.99178 42.504105 
L 204.01834 42.549322 
L 204.180429 42.628441 
L 206.17952 42.718842 
L 206.395637 42.752737 
L 210.447848 42.841756 
L 210.880084 42.9208 
L 211.150232 42.96596 
L 211.31232 43.033691 
L 214.770207 43.135266 
L 215.040354 43.19138 
L 217.201533 43.281218 
L 217.471681 43.348888 
L 218.55227 43.45037 
L 218.768388 43.484192 
L 219.848978 43.574155 
L 220.389272 43.698111 
L 221.253744 43.787465 
L 221.415832 43.843778 
L 224.009247 43.933187 
L 224.225365 44.023241 
L 225.305955 44.124528 
L 225.684161 44.180555 
L 227.629222 44.281329 
L 227.84534 44.326315 
L 229.142048 44.38254 
L 229.304136 44.45 
L 232.275758 44.528687 
L 232.653964 44.641071 
L 234.544996 44.730955 
L 234.761114 44.764656 
L 237.030352 44.85376 
L 237.408558 44.898677 
L 237.840794 44.966041 
L 238.002882 45.02217 
L 238.867354 45.089513 
L 239.083472 45.134402 
L 239.461678 45.190246 
L 239.623767 45.257559 
L 242.487329 45.356388 
L 242.649417 45.412446 
L 245.729098 45.51185 
L 246.107304 45.6463 
L 247.782218 45.724021 
L 247.998336 45.779598 
L 248.808778 45.85797 
L 249.024896 45.902747 
L 249.61922 46.003477 
L 249.835338 46.037047 
L 252.915018 46.126555 
L 253.077107 46.193673 
L 254.643962 46.293745 
L 254.86008 46.36083 
L 255.346345 46.450259 
L 255.670522 46.472613 
L 257.075288 46.539369 
L 257.291406 46.584064 
L 258.750202 46.694722 
L 258.91229 46.784062 
L 261.559735 46.872614 
L 261.829882 46.939586 
L 263.720914 47.039242 
L 264.207179 47.240024 
L 264.747474 47.329227 
L 264.963592 47.362672 
L 267.016712 47.438924 
L 267.23283 47.483011 
L 267.557007 47.538719 
L 267.773125 47.638974 
L 268.745655 47.7053 
L 268.907744 47.760974 
L 270.096392 47.860163 
L 270.258481 47.926938 
L 271.933395 48.015955 
L 272.149513 48.149441 
L 276.904107 48.25978 
L 277.174254 48.348714 
L 277.768578 48.426514 
L 277.930667 48.482076 
L 279.335433 48.569008 
L 279.551551 48.602329 
L 280.902288 48.712839 
L 281.118406 48.757248 
L 281.928848 48.846051 
L 282.144966 48.879347 
L 285.062558 48.965926 
L 285.278676 49.010298 
L 287.92612 49.109377 
L 288.142238 49.153731 
L 288.682533 49.253507 
L 288.898651 49.286761 
L 291.492066 49.385182 
L 291.654154 49.473811 
L 292.356537 49.551346 
L 292.518626 49.606719 
L 296.19263 49.683455 
L 296.462778 49.804242 
L 299.758576 49.890415 
L 299.920664 49.945723 
L 303.054374 50.020374 
L 303.270492 50.085515 
L 305.377642 50.173334 
L 306.458231 50.272776 
L 306.782408 50.294871 
L 307.754939 50.394282 
L 307.917027 50.460542 
L 308.943587 50.548871 
L 309.159705 50.581989 
L 311.699091 50.636562 
L 311.861179 50.702777 
L 315.967419 50.766902 
L 316.129508 50.877203 
L 319.479336 50.95229 
L 319.641424 51.007409 
L 320.289778 51.106605 
L 320.505896 51.139665 
L 323.963782 51.247698 
L 324.341989 51.291755 
L 325.962873 51.390864 
L 326.124961 51.456922 
L 328.448229 51.566995 
L 328.772406 51.589006 
L 330.717467 51.643147 
L 330.879555 51.709159 
L 334.823707 51.806822 
L 335.147884 51.883796 
L 336.768769 51.970175 
L 336.930857 52.036119 
L 340.983068 52.122667 
L 341.145156 52.177595 
L 343.252306 52.254023 
L 343.468424 52.363831 
L 344.008719 52.461705 
L 344.224837 52.505606 
L 345.359456 52.592459 
L 345.575574 52.625372 
L 349.519726 52.734591 
L 349.789873 52.800388 
L 351.08658 52.876189 
L 351.248669 52.930998 
L 352.545376 53.018675 
L 352.707465 53.073463 
L 355.192821 53.170616 
L 355.408939 53.203474 
L 357.354 53.289868 
L 357.570118 53.333662 
L 359.082943 53.421234 
L 359.299061 53.465013 
L 360.703828 53.573698 
L 360.919945 53.617457 
L 364.269773 53.648045 
L 364.485891 53.69055 
L 366.917218 53.799884 
L 367.079306 53.86547 
L 369.078397 53.941973 
L 369.294515 53.985682 
L 371.347635 54.060388 
L 371.509723 54.115001 
L 373.995079 54.223438 
L 374.751492 54.419919 
L 376.264317 54.529032 
L 376.480435 54.56176 
L 378.857732 54.659926 
L 379.07385 54.692643 
L 381.721295 54.801152 
L 382.045471 54.822955 
L 383.720385 54.918137 
L 383.936503 55.016195 
L 384.746945 55.125119 
L 384.909034 55.190459 
L 386.36783 55.286828 
L 388.36692 55.39458 
L 388.529009 55.470745 
L 389.879746 55.568101 
L 390.420041 55.774699 
L 391.716748 55.872523 
L 391.932866 55.915992 
L 393.985986 56.010421 
L 394.148075 56.097308 
L 395.6609 56.204478 
L 396.093136 56.269608 
L 397.119696 56.366997 
L 397.443873 56.464646 
L 397.930138 56.529731 
L 398.146256 56.647871 
L 398.848639 56.756283 
L 399.010728 56.84299 
L 402.036378 56.918258 
L 402.252496 56.961595 
L 403.711292 57.047371 
L 403.92741 57.144835 
L 405.170088 57.242274 
L 405.386206 57.274748 
L 407.439326 57.318043 
L 407.601415 57.447897 
L 408.249768 57.533541 
L 408.627975 57.640483 
L 413.382569 57.736876 
L 413.598687 57.780113 
L 414.463158 57.874935 
L 414.733306 57.95056 
L 415.867925 58.024633 
L 416.084043 58.121817 
L 417.704927 58.208183 
L 417.867016 58.272944 
L 418.731487 58.367571 
L 419.055664 58.389147 
L 419.974165 58.486229 
L 420.136254 58.540152 
L 421.216843 58.647976 
L 421.432961 58.691097 
L 422.135344 58.766548 
L 422.351462 58.809656 
L 424.404582 58.916127 
L 424.728759 58.937672 
L 426.619791 58.987044 
L 426.78188 59.051651 
L 427.106056 59.137775 
L 427.376204 59.266926 
L 429.105147 59.362785 
L 429.483353 59.459591 
L 430.780061 59.555389 
L 431.104238 59.641394 
L 432.022739 59.748872 
L 432.238857 59.791855 
L 434.075859 59.834833 
L 434.237948 59.910033 
L 437.425687 60.013093 
L 437.641805 60.056038 
L 438.776424 60.162036 
L 438.992542 60.237154 
L 440.451338 60.301529 
L 440.613426 60.355166 
L 442.504458 60.418842 
L 442.666546 60.472462 
L 444.071313 60.579679 
L 444.233401 60.633276 
L 446.772786 60.717298 
L 447.042934 60.749443 
L 448.231582 60.835151 
L 448.50173 60.867286 
L 450.50082 60.974385 
L 450.716938 61.017216 
L 451.797528 61.081453 
L 451.959616 61.134977 
L 452.878118 61.207095 
L 453.094235 61.314087 
L 453.958707 61.406119 
L 454.282884 61.426799 
L 455.417503 61.512328 
L 455.849739 61.715384 
L 457.956888 61.810456 
L 458.389124 61.863858 
L 459.577773 61.927571 
L 459.739861 61.980956 
L 460.604333 62.054237 
L 460.87448 62.160958 
L 461.468805 62.24231 
L 462.279247 62.323984 
L 462.441335 62.387956 
L 463.413866 62.451917 
L 463.575954 62.50521 
L 467.1419 62.598169 
L 467.412047 62.725996 
L 468.330548 62.810447 
L 468.600696 62.842389 
L 470.977993 62.926063 
L 471.356199 63.032487 
L 472.760966 63.137379 
L 473.139172 63.254374 
L 474.922145 63.338681 
L 475.084233 63.391835 
L 477.029294 63.496979 
L 477.191383 63.550109 
L 478.434061 63.635101 
L 478.704208 63.666969 
L 482.216124 63.74656 
L 482.378213 63.808721 
L 484.107156 63.891705 
L 484.377303 63.932606 
L 485.457893 64.010509 
L 485.78207 64.094179 
L 487.186836 64.189592 
L 487.511013 64.253187 
L 488.321455 64.348561 
L 488.645632 64.41213 
L 492.157548 64.492935 
L 492.319637 64.565875 
L 492.96799 64.639982 
L 493.238138 64.724658 
L 496.15573 64.796745 
L 496.371848 64.839065 
L 498.533027 64.941648 
L 498.803174 64.973372 
L 501.450619 65.013665 
L 501.612707 65.087666 
L 502.36912 65.151084 
L 502.531208 65.214491 
L 503.287621 65.318932 
L 503.557768 65.350622 
L 505.4488 65.454203 
L 505.827006 65.496437 
L 507.718038 65.602002 
L 507.934156 65.64422 
L 509.068775 65.738373 
L 509.55504 65.812222 
L 510.905777 65.917697 
L 511.392043 66.001228 
L 513.877399 66.105402 
L 513.877399 66.105402 
" clip-path="url(#p3c5bcc7013)" style="fill: none; stroke: #9467bd; stroke-width: 1.8; stroke-linecap: square"/>
   </g>
   <g id="patch_3">
    <path d="M 54.2 260.44 
L 54.2 25.44 
" style="fill: none; stroke: #000000; stroke-width: 0.8; stroke-linejoin: miter; stroke-linecap: square"/>
   </g>
   <g id="patch_4">
    <path d="M 565.2 260.44 
L 565.2 25.44 
" style="fill: none; stroke: #000000; stroke-width: 0.8; stroke-linejoin: miter; stroke-linecap: square"/>
   </g>
   <g id="patch_5">
    <path d="M 54.2 260.44 
L 565.2 260.44 
" style="fill: none; stroke: #000000; stroke-width: 0.8; stroke-linejoin: miter; stroke-linecap: square"/>
   </g>
   <g id="patch_6">
    <path d="M 54.2 25.44 
L 565.2 25.44 
" style="fill: none; stroke: #000000; stroke-width: 0.8; stroke-linejoin: miter; stroke-linecap: square"/>
   </g>
   <g id="text_14">
    <!-- Timely Transfer Rate (Cumulative) -->
    <g transform="translate(207.277187 19.44) scale(0.12 -0.12)">
     <defs>
      <path id="DejaVuSans-54" d="M -19 4666 
L 3928 4666 
L 3928 4134 
L 2272 4134 
L 2272 0 
L 1638 0 
L 1638 4134 
L -19 4134 
L -19 4666 
z
" transform="scale(0.015625)"/>
      <path id="DejaVuSans-52" d="M 2841 2188 
Q 3044 2119 3236 1894 
Q 3428 1669 3622 1275 
L 4263 0 
L 3584 0 
L 2988 1197 
Q 2756 1666 2539 1819 
Q 2322 1972 1947 1972 
L 1259 1972 
L 1259 0 
L 628 0 
L 628 4666 
L 2053 4666 
Q 2853 4666 3247 4331 
Q 3641 3997 3641 3322 
Q 3641 2881 3436 2590 
Q 3231 2300 2841 2188 
z
M 1259 4147 
L 1259 2491 
L 2053 2491 
Q 2509 2491 2742 2702 
Q 2975 2913 2975 3322 
Q 2975 3731 2742 3939 
Q 2509 4147 2053 4147 
L 1259 4147 
z
" transform="scale(0.015625)"/>
      <path id="DejaVuSans-28" d="M 1984 4856 
Q 1566 4138 1362 3434 
Q 1159 2731 1159 2009 
Q 1159 1288 1364 580 
Q 1569 -128 1984 -844 
L 1484 -844 
Q 1016 -109 783 600 
Q 550 1309 550 2009 
Q 550 2706 781 3412 
Q 1013 4119 1484 4856 
L 1984 4856 
z
" transform="scale(0.015625)"/>
      <path id="DejaVuSans-43" d="M 4122 4306 
L 4122 3641 
Q 3803 3938 3442 4084 
Q 3081 4231 2675 4231 
Q 1875 4231 1450 3742 
Q 1025 3253 1025 2328 
Q 1025 1406 1450 917 
Q 1875 428 2675 428 
Q 3081 428 3442 575 
Q 3803 722 4122 1019 
L 4122 359 
Q 3791 134 3420 21 
Q 3050 -91 2638 -91 
Q 1578 -91 968 557 
Q 359 1206 359 2328 
Q 359 3453 968 4101 
Q 1578 4750 2638 4750 
Q 3056 4750 3426 4639 
Q 3797 4528 4122 4306 
z
" transform="scale(0.015625)"/>
      <path id="DejaVuSans-29" d="M 513 4856 
L 1013 4856 
Q 1481 4119 1714 3412 
Q 1947 2706 1947 2009 
Q 1947 1309 1714 600 
Q 1481 -109 1013 -844 
L 513 -844 
Q 928 -128 1133 580 
Q 1338 1288 1338 2009 
Q 1338 2731 1133 3434 
Q 928 4138 513 4856 
z
" transform="scale(0.015625)"/>
     </defs>
     <use xlink:href="#DejaVuSans-54"/>
     <use xlink:href="#DejaVuSans-69" x="57.958984"/>
     <use xlink:href="#DejaVuSans-6d" x="85.742188"/>
     <use xlink:href="#DejaVuSans-65" x="183.154297"/>
     <use xlink:href="#DejaVuSans-6c" x="244.677734"/>
     <use xlink:href="#DejaVuSans-79" x="272.460938"/>
     <use xlink:href="#DejaVuSans-20" x="331.640625"/>
     <use xlink:href="#DejaVuSans-54" x="363.427734"/>
     <use xlink:href="#DejaVuSans-72" x="409.761719"/>
     <use xlink:href="#DejaVuSans-61" x="450.875"/>
     <use xlink:href="#DejaVuSans-6e" x="512.154297"/>
     <use xlink:href="#DejaVuSans-73" x="575.533203"/>
     <use xlink:href="#DejaVuSans-66" x="627.632812"/>
     <use xlink:href="#DejaVuSans-65" x="662.837891"/>
     <use xlink:href="#DejaVuSans-72" x="724.361328"/>
     <use xlink:href="#DejaVuSans-20" x="765.474609"/>
     <use xlink:href="#DejaVuSans-52" x="797.261719"/>
     <use xlink:href="#DejaVuSans-61" x="864.494141"/>
     <use xlink:href="#DejaVuSans-74" x="925.773438"/>
     <use xlink:href="#DejaVuSans-65" x="964.982422"/>
     <use xlink:href="#DejaVuSans-20" x="1026.505859"/>
     <use xlink:href="#DejaVuSans-28" x="1058.292969"/>
     <use xlink:href="#DejaVuSans-43" x="1097.306641"/>
     <use xlink:href="#DejaVuSans-75" x="1167.130859"/>
     <use xlink:href="#DejaVuSans-6d" x="1230.509766"/>
     <use xlink:href="#DejaVuSans-75" x="1327.921875"/>
     <use xlink:href="#DejaVuSans-6c" x="1391.300781"/>
     <use xlink:href="#DejaVuSans-61" x="1419.083984"/>
     <use xlink:href="#DejaVuSans-74" x="1480.363281"/>
     <use xlink:href="#DejaVuSans-69" x="1519.572266"/>
     <use xlink:href="#DejaVuSans-76" x="1547.355469"/>
     <use xlink:href="#DejaVuSans-65" x="1606.535156"/>
     <use xlink:href="#DejaVuSans-29" x="1668.058594"/>
    </g>
   </g>
   <g id="legend_1">
    <g id="patch_7">
     <path d="M 480.614062 255.44 
L 558.2 255.44 
Q 560.2 255.44 560.2 253.44 
L 560.2 180.493125 
Q 560.2 178.493125 558.2 178.493125 
L 480.614062 178.493125 
Q 478.614062 178.493125 478.614062 180.493125 
L 478.614062 253.44 
Q 478.614062 255.44 480.614062 255.44 
z
" style="fill: #ffffff; opacity: 0.8; stroke: #cccccc; stroke-linejoin: miter"/>
    </g>
    <g id="line2d_28">
     <path d="M 482.614062 186.591563 
L 492.614062 186.591563 
L 502.614062 186.591563 
" style="fill: none; stroke: #1f77b4; stroke-width: 1.8; stroke-linecap: square"/>
    </g>
    <g id="text_15">
     <!-- sheer -->
     <g transform="translate(510.614062 190.091563) scale(0.1 -0.1)">
      <defs>
       <path id="DejaVuSans-68" d="M 3513 2113 
L 3513 0 
L 2938 0 
L 2938 2094 
Q 2938 2591 2744 2837 
Q 2550 3084 2163 3084 
Q 1697 3084 1428 2787 
Q 1159 2491 1159 1978 
L 1159 0 
L 581 0 
L 581 4863 
L 1159 4863 
L 1159 2956 
Q 1366 3272 1645 3428 
Q 1925 3584 2291 3584 
Q 2894 3584 3203 3211 
Q 3513 2838 3513 2113 
z
" transform="scale(0.015625)"/>
      </defs>
      <use xlink:href="#DejaVuSans-73"/>
      <use xlink:href="#DejaVuSans-68" x="52.099609"/>
      <use xlink:href="#DejaVuSans-65" x="115.478516"/>
      <use xlink:href="#DejaVuSans-65" x="177.001953"/>
      <use xlink:href="#DejaVuSans-72" x="238.525391"/>
     </g>
    </g>
    <g id="line2d_29">
     <path d="M 482.614062 201.269688 
L 492.614062 201.269688 
L 502.614062 201.269688 
" style="fill: none; stroke: #ff7f0e; stroke-width: 1.8; stroke-linecap: square"/>
    </g>
    <g id="text_16">
     <!-- actar -->
     <g transform="translate(510.614062 204.769688) scale(0.1 -0.1)">
      <use xlink:href="#DejaVuSans-61"/>
      <use xlink:href="#DejaVuSans-63" x="61.279297"/>
      <use xlink:href="#DejaVuSans-74" x="116.259766"/>
      <use xlink:href="#DejaVuSans-61" x="155.46875"/>
      <use xlink:href="#DejaVuSans-72" x="216.748047"/>
     </g>
    </g>
    <g id="line2d_30">
     <path d="M 482.614062 215.947813 
L 492.614062 215.947813 
L 502.614062 215.947813 
" style="fill: none; stroke: #2ca02c; stroke-width: 1.8; stroke-linecap: square"/>
    </g>
    <g id="text_17">
     <!-- tfsm_dpc -->
     <g transform="translate(510.614062 219.447813) scale(0.1 -0.1)">
      <defs>
       <path id="DejaVuSans-5f" d="M 3263 -1063 
L 3263 -1509 
L -63 -1509 
L -63 -1063 
L 3263 -1063 
z
" transform="scale(0.015625)"/>
       <path id="DejaVuSans-70" d="M 1159 525 
L 1159 -1331 
L 581 -1331 
L 581 3500 
L 1159 3500 
L 1159 2969 
Q 1341 3281 1617 3432 
Q 1894 3584 2278 3584 
Q 2916 3584 3314 3078 
Q 3713 2572 3713 1747 
Q 3713 922 3314 415 
Q 2916 -91 2278 -91 
Q 1894 -91 1617 61 
Q 1341 213 1159 525 
z
M 3116 1747 
Q 3116 2381 2855 2742 
Q 2594 3103 2138 3103 
Q 1681 3103 1420 2742 
Q 1159 2381 1159 1747 
Q 1159 1113 1420 752 
Q 1681 391 2138 391 
Q 2594 391 2855 752 
Q 3116 1113 3116 1747 
z
" transform="scale(0.015625)"/>
      </defs>
      <use xlink:href="#DejaVuSans-74"/>
      <use xlink:href="#DejaVuSans-66" x="39.208984"/>
      <use xlink:href="#DejaVuSans-73" x="74.414062"/>
      <use xlink:href="#DejaVuSans-6d" x="126.513672"/>
      <use xlink:href="#DejaVuSans-5f" x="223.925781"/>
      <use xlink:href="#DejaVuSans-64" x="273.925781"/>
      <use xlink:href="#DejaVuSans-70" x="337.402344"/>
      <use xlink:href="#DejaVuSans-63" x="400.878906"/>
     </g>
    </g>
    <g id="line2d_31">
     <path d="M 482.614062 230.904063 
L 492.614062 230.904063 
L 502.614062 230.904063 
" style="fill: none; stroke: #d62728; stroke-width: 1.8; stroke-linecap: square"/>
    </g>
    <g id="text_18">
     <!-- dst_woa -->
     <g transform="translate(510.614062 234.404063) scale(0.1 -0.1)">
      <defs>
       <path id="DejaVuSans-77" d="M 269 3500 
L 844 3500 
L 1563 769 
L 2278 3500 
L 2956 3500 
L 3675 769 
L 4391 3500 
L 4966 3500 
L 4050 0 
L 3372 0 
L 2619 2869 
L 1863 0 
L 1184 0 
L 269 3500 
z
" transform="scale(0.015625)"/>
      </defs>
      <use xlink:href="#DejaVuSans-64"/>
      <use xlink:href="#DejaVuSans-73" x="63.476562"/>
      <use xlink:href="#DejaVuSans-74" x="115.576172"/>
      <use xlink:href="#DejaVuSans-5f" x="154.785156"/>
      <use xlink:href="#DejaVuSans-77" x="204.785156"/>
      <use xlink:href="#DejaVuSans-6f" x="286.572266"/>
      <use xlink:href="#DejaVuSans-61" x="347.753906"/>
     </g>
    </g>
    <g id="line2d_32">
     <path d="M 482.614062 245.860313 
L 492.614062 245.860313 
L 502.614062 245.860313 
" style="fill: none; stroke: #9467bd; stroke-width: 1.8; stroke-linecap: square"/>
    </g>
    <g id="text_19">
     <!-- trail -->
     <g transform="translate(510.614062 249.360313) scale(0.1 -0.1)">
      <use xlink:href="#DejaVuSans-74"/>
      <use xlink:href="#DejaVuSans-72" x="39.208984"/>
      <use xlink:href="#DejaVuSans-61" x="80.322266"/>
      <use xlink:href="#DejaVuSans-69" x="141.601562"/>
      <use xlink:href="#DejaVuSans-6c" x="169.384766"/>
     </g>
    </g>
   </g>
  </g>
 </g>
 <defs>
  <clipPath id="p3c5bcc7013">
   <rect x="54.2" y="25.44" width="511" height="235"/>
  </clipPath>
 </defs>
</svg>
