<?xml version="1.0" encoding="utf-8" standalone="no"?>
<!DOCTYPE svg PUBLIC "-//W3C//DTD SVG 1.1//EN"
  "http://www.w3.org/Graphics/SVG/1.1/DTD/svg11.dtd">
<svg xmlns:xlink="http://www.w3.org/1999/xlink" width="576pt" height="302.4pt" viewBox="0 0 576 302.4" xmlns="http://www.w3.org/2000/svg" version="1.1">
 <metadata>
  <rdf:RDF xmlns:dc="http://purl.org/dc/elements/1.1/" xmlns:cc="http://creativecommons.org/ns#" xmlns:rdf="http://www.w3.org/1999/02/22-rdf-syntax-ns#">
   <cc:Work>
    <dc:type rdf:resource="http://purl.org/dc/dcmitype/StillImage"/>
    <dc:date>2025-09-02T19:20:26.504416</dc:date>
    <dc:format>image/svg+xml</dc:format>
    <dc:creator>
     <cc:Agent>
      <dc:title>Matplotlib v3.9.4, https://matplotlib.org/</dc:title>
     </cc:Agent>
    </dc:creator>
   </cc:Work>
  </rdf:RDF>
 </metadata>
 <defs>
  <style type="text/css">*{stroke-linejoin: round; stroke-linecap: butt}</style>
 </defs>
 <g id="figure_1">
  <g id="patch_1">
   <path d="M 0 302.4 
L 576 302.4 
L 576 0 
L 0 0 
z
" style="fill: #ffffff"/>
  </g>
  <g id="axes_1">
   <g id="patch_2">
    <path d="M 54.2 260.44 
L 565.2 260.44 
L 565.2 25.44 
L 54.2 25.44 
z
" style="fill: #ffffff"/>
   </g>
   <g id="matplotlib.axis_1">
    <g id="xtick_1">
     <g id="line2d_1">
      <path d="M 77.372582 260.44 
L 77.372582 25.44 
" clip-path="url(#pbcd3bf5e64)" style="fill: none; stroke-dasharray: 2.96,1.28; stroke-dashoffset: 0; stroke: #b0b0b0; stroke-opacity: 0.3; stroke-width: 0.8"/>
     </g>
     <g id="line2d_2">
      <defs>
       <path id="m1ba6386eb5" d="M 0 0 
L 0 3.5 
" style="stroke: #000000; stroke-width: 0.8"/>
      </defs>
      <g>
       <use xlink:href="#m1ba6386eb5" x="77.372582" y="260.44" style="stroke: #000000; stroke-width: 0.8"/>
      </g>
     </g>
     <g id="text_1">
      <!-- 0 -->
      <g transform="translate(74.191332 275.038438) scale(0.1 -0.1)">
       <defs>
        <path id="DejaVuSans-30" d="M 2034 4250 
Q 1547 4250 1301 3770 
Q 1056 3291 1056 2328 
Q 1056 1369 1301 889 
Q 1547 409 2034 409 
Q 2525 409 2770 889 
Q 3016 1369 3016 2328 
Q 3016 3291 2770 3770 
Q 2525 4250 2034 4250 
z
M 2034 4750 
Q 2819 4750 3233 4129 
Q 3647 3509 3647 2328 
Q 3647 1150 3233 529 
Q 2819 -91 2034 -91 
Q 1250 -91 836 529 
Q 422 1150 422 2328 
Q 422 3509 836 4129 
Q 1250 4750 2034 4750 
z
" transform="scale(0.015625)"/>
       </defs>
       <use xlink:href="#DejaVuSans-30"/>
      </g>
     </g>
    </g>
    <g id="xtick_2">
     <g id="line2d_3">
      <path d="M 186.754605 260.44 
L 186.754605 25.44 
" clip-path="url(#pbcd3bf5e64)" style="fill: none; stroke-dasharray: 2.96,1.28; stroke-dashoffset: 0; stroke: #b0b0b0; stroke-opacity: 0.3; stroke-width: 0.8"/>
     </g>
     <g id="line2d_4">
      <g>
       <use xlink:href="#m1ba6386eb5" x="186.754605" y="260.44" style="stroke: #000000; stroke-width: 0.8"/>
      </g>
     </g>
     <g id="text_2">
      <!-- 2000 -->
      <g transform="translate(174.029605 275.038438) scale(0.1 -0.1)">
       <defs>
        <path id="DejaVuSans-32" d="M 1228 531 
L 3431 531 
L 3431 0 
L 469 0 
L 469 531 
Q 828 903 1448 1529 
Q 2069 2156 2228 2338 
Q 2531 2678 2651 2914 
Q 2772 3150 2772 3378 
Q 2772 3750 2511 3984 
Q 2250 4219 1831 4219 
Q 1534 4219 1204 4116 
Q 875 4013 500 3803 
L 500 4441 
Q 881 4594 1212 4672 
Q 1544 4750 1819 4750 
Q 2544 4750 2975 4387 
Q 3406 4025 3406 3419 
Q 3406 3131 3298 2873 
Q 3191 2616 2906 2266 
Q 2828 2175 2409 1742 
Q 1991 1309 1228 531 
z
" transform="scale(0.015625)"/>
       </defs>
       <use xlink:href="#DejaVuSans-32"/>
       <use xlink:href="#DejaVuSans-30" x="63.623047"/>
       <use xlink:href="#DejaVuSans-30" x="127.246094"/>
       <use xlink:href="#DejaVuSans-30" x="190.869141"/>
      </g>
     </g>
    </g>
    <g id="xtick_3">
     <g id="line2d_5">
      <path d="M 296.136629 260.44 
L 296.136629 25.44 
" clip-path="url(#pbcd3bf5e64)" style="fill: none; stroke-dasharray: 2.96,1.28; stroke-dashoffset: 0; stroke: #b0b0b0; stroke-opacity: 0.3; stroke-width: 0.8"/>
     </g>
     <g id="line2d_6">
      <g>
       <use xlink:href="#m1ba6386eb5" x="296.136629" y="260.44" style="stroke: #000000; stroke-width: 0.8"/>
      </g>
     </g>
     <g id="text_3">
      <!-- 4000 -->
      <g transform="translate(283.411629 275.038438) scale(0.1 -0.1)">
       <defs>
        <path id="DejaVuSans-34" d="M 2419 4116 
L 825 1625 
L 2419 1625 
L 2419 4116 
z
M 2253 4666 
L 3047 4666 
L 3047 1625 
L 3713 1625 
L 3713 1100 
L 3047 1100 
L 3047 0 
L 2419 0 
L 2419 1100 
L 313 1100 
L 313 1709 
L 2253 4666 
z
" transform="scale(0.015625)"/>
       </defs>
       <use xlink:href="#DejaVuSans-34"/>
       <use xlink:href="#DejaVuSans-30" x="63.623047"/>
       <use xlink:href="#DejaVuSans-30" x="127.246094"/>
       <use xlink:href="#DejaVuSans-30" x="190.869141"/>
      </g>
     </g>
    </g>
    <g id="xtick_4">
     <g id="line2d_7">
      <path d="M 405.518653 260.44 
L 405.518653 25.44 
" clip-path="url(#pbcd3bf5e64)" style="fill: none; stroke-dasharray: 2.96,1.28; stroke-dashoffset: 0; stroke: #b0b0b0; stroke-opacity: 0.3; stroke-width: 0.8"/>
     </g>
     <g id="line2d_8">
      <g>
       <use xlink:href="#m1ba6386eb5" x="405.518653" y="260.44" style="stroke: #000000; stroke-width: 0.8"/>
      </g>
     </g>
     <g id="text_4">
      <!-- 6000 -->
      <g transform="translate(392.793653 275.038438) scale(0.1 -0.1)">
       <defs>
        <path id="DejaVuSans-36" d="M 2113 2584 
Q 1688 2584 1439 2293 
Q 1191 2003 1191 1497 
Q 1191 994 1439 701 
Q 1688 409 2113 409 
Q 2538 409 2786 701 
Q 3034 994 3034 1497 
Q 3034 2003 2786 2293 
Q 2538 2584 2113 2584 
z
M 3366 4563 
L 3366 3988 
Q 3128 4100 2886 4159 
Q 2644 4219 2406 4219 
Q 1781 4219 1451 3797 
Q 1122 3375 1075 2522 
Q 1259 2794 1537 2939 
Q 1816 3084 2150 3084 
Q 2853 3084 3261 2657 
Q 3669 2231 3669 1497 
Q 3669 778 3244 343 
Q 2819 -91 2113 -91 
Q 1303 -91 875 529 
Q 447 1150 447 2328 
Q 447 3434 972 4092 
Q 1497 4750 2381 4750 
Q 2619 4750 2861 4703 
Q 3103 4656 3366 4563 
z
" transform="scale(0.015625)"/>
       </defs>
       <use xlink:href="#DejaVuSans-36"/>
       <use xlink:href="#DejaVuSans-30" x="63.623047"/>
       <use xlink:href="#DejaVuSans-30" x="127.246094"/>
       <use xlink:href="#DejaVuSans-30" x="190.869141"/>
      </g>
     </g>
    </g>
    <g id="xtick_5">
     <g id="line2d_9">
      <path d="M 514.900676 260.44 
L 514.900676 25.44 
" clip-path="url(#pbcd3bf5e64)" style="fill: none; stroke-dasharray: 2.96,1.28; stroke-dashoffset: 0; stroke: #b0b0b0; stroke-opacity: 0.3; stroke-width: 0.8"/>
     </g>
     <g id="line2d_10">
      <g>
       <use xlink:href="#m1ba6386eb5" x="514.900676" y="260.44" style="stroke: #000000; stroke-width: 0.8"/>
      </g>
     </g>
     <g id="text_5">
      <!-- 8000 -->
      <g transform="translate(502.175676 275.038438) scale(0.1 -0.1)">
       <defs>
        <path id="DejaVuSans-38" d="M 2034 2216 
Q 1584 2216 1326 1975 
Q 1069 1734 1069 1313 
Q 1069 891 1326 650 
Q 1584 409 2034 409 
Q 2484 409 2743 651 
Q 3003 894 3003 1313 
Q 3003 1734 2745 1975 
Q 2488 2216 2034 2216 
z
M 1403 2484 
Q 997 2584 770 2862 
Q 544 3141 544 3541 
Q 544 4100 942 4425 
Q 1341 4750 2034 4750 
Q 2731 4750 3128 4425 
Q 3525 4100 3525 3541 
Q 3525 3141 3298 2862 
Q 3072 2584 2669 2484 
Q 3125 2378 3379 2068 
Q 3634 1759 3634 1313 
Q 3634 634 3220 271 
Q 2806 -91 2034 -91 
Q 1263 -91 848 271 
Q 434 634 434 1313 
Q 434 1759 690 2068 
Q 947 2378 1403 2484 
z
M 1172 3481 
Q 1172 3119 1398 2916 
Q 1625 2713 2034 2713 
Q 2441 2713 2670 2916 
Q 2900 3119 2900 3481 
Q 2900 3844 2670 4047 
Q 2441 4250 2034 4250 
Q 1625 4250 1398 4047 
Q 1172 3844 1172 3481 
z
" transform="scale(0.015625)"/>
       </defs>
       <use xlink:href="#DejaVuSans-38"/>
       <use xlink:href="#DejaVuSans-30" x="63.623047"/>
       <use xlink:href="#DejaVuSans-30" x="127.246094"/>
       <use xlink:href="#DejaVuSans-30" x="190.869141"/>
      </g>
     </g>
    </g>
    <g id="text_6">
     <!-- round -->
     <g transform="translate(295.185937 288.716563) scale(0.1 -0.1)">
      <defs>
       <path id="DejaVuSans-72" d="M 2631 2963 
Q 2534 3019 2420 3045 
Q 2306 3072 2169 3072 
Q 1681 3072 1420 2755 
Q 1159 2438 1159 1844 
L 1159 0 
L 581 0 
L 581 3500 
L 1159 3500 
L 1159 2956 
Q 1341 3275 1631 3429 
Q 1922 3584 2338 3584 
Q 2397 3584 2469 3576 
Q 2541 3569 2628 3553 
L 2631 2963 
z
" transform="scale(0.015625)"/>
       <path id="DejaVuSans-6f" d="M 1959 3097 
Q 1497 3097 1228 2736 
Q 959 2375 959 1747 
Q 959 1119 1226 758 
Q 1494 397 1959 397 
Q 2419 397 2687 759 
Q 2956 1122 2956 1747 
Q 2956 2369 2687 2733 
Q 2419 3097 1959 3097 
z
M 1959 3584 
Q 2709 3584 3137 3096 
Q 3566 2609 3566 1747 
Q 3566 888 3137 398 
Q 2709 -91 1959 -91 
Q 1206 -91 779 398 
Q 353 888 353 1747 
Q 353 2609 779 3096 
Q 1206 3584 1959 3584 
z
" transform="scale(0.015625)"/>
       <path id="DejaVuSans-75" d="M 544 1381 
L 544 3500 
L 1119 3500 
L 1119 1403 
Q 1119 906 1312 657 
Q 1506 409 1894 409 
Q 2359 409 2629 706 
Q 2900 1003 2900 1516 
L 2900 3500 
L 3475 3500 
L 3475 0 
L 2900 0 
L 2900 538 
Q 2691 219 2414 64 
Q 2138 -91 1772 -91 
Q 1169 -91 856 284 
Q 544 659 544 1381 
z
M 1991 3584 
L 1991 3584 
z
" transform="scale(0.015625)"/>
       <path id="DejaVuSans-6e" d="M 3513 2113 
L 3513 0 
L 2938 0 
L 2938 2094 
Q 2938 2591 2744 2837 
Q 2550 3084 2163 3084 
Q 1697 3084 1428 2787 
Q 1159 2491 1159 1978 
L 1159 0 
L 581 0 
L 581 3500 
L 1159 3500 
L 1159 2956 
Q 1366 3272 1645 3428 
Q 1925 3584 2291 3584 
Q 2894 3584 3203 3211 
Q 3513 2838 3513 2113 
z
" transform="scale(0.015625)"/>
       <path id="DejaVuSans-64" d="M 2906 2969 
L 2906 4863 
L 3481 4863 
L 3481 0 
L 2906 0 
L 2906 525 
Q 2725 213 2448 61 
Q 2172 -91 1784 -91 
Q 1150 -91 751 415 
Q 353 922 353 1747 
Q 353 2572 751 3078 
Q 1150 3584 1784 3584 
Q 2172 3584 2448 3432 
Q 2725 3281 2906 2969 
z
M 947 1747 
Q 947 1113 1208 752 
Q 1469 391 1925 391 
Q 2381 391 2643 752 
Q 2906 1113 2906 1747 
Q 2906 2381 2643 2742 
Q 2381 3103 1925 3103 
Q 1469 3103 1208 2742 
Q 947 2381 947 1747 
z
" transform="scale(0.015625)"/>
      </defs>
      <use xlink:href="#DejaVuSans-72"/>
      <use xlink:href="#DejaVuSans-6f" x="38.863281"/>
      <use xlink:href="#DejaVuSans-75" x="100.044922"/>
      <use xlink:href="#DejaVuSans-6e" x="163.423828"/>
      <use xlink:href="#DejaVuSans-64" x="226.802734"/>
     </g>
    </g>
   </g>
   <g id="matplotlib.axis_2">
    <g id="ytick_1">
     <g id="line2d_11">
      <path d="M 54.2 228.394545 
L 565.2 228.394545 
" clip-path="url(#pbcd3bf5e64)" style="fill: none; stroke-dasharray: 2.96,1.28; stroke-dashoffset: 0; stroke: #b0b0b0; stroke-opacity: 0.3; stroke-width: 0.8"/>
     </g>
     <g id="line2d_12">
      <defs>
       <path id="m293669403c" d="M 0 0 
L -3.5 0 
" style="stroke: #000000; stroke-width: 0.8"/>
      </defs>
      <g>
       <use xlink:href="#m293669403c" x="54.2" y="228.394545" style="stroke: #000000; stroke-width: 0.8"/>
      </g>
     </g>
     <g id="text_7">
      <!-- 0.90 -->
      <g transform="translate(24.934375 232.193764) scale(0.1 -0.1)">
       <defs>
        <path id="DejaVuSans-2e" d="M 684 794 
L 1344 794 
L 1344 0 
L 684 0 
L 684 794 
z
" transform="scale(0.015625)"/>
        <path id="DejaVuSans-39" d="M 703 97 
L 703 672 
Q 941 559 1184 500 
Q 1428 441 1663 441 
Q 2288 441 2617 861 
Q 2947 1281 2994 2138 
Q 2813 1869 2534 1725 
Q 2256 1581 1919 1581 
Q 1219 1581 811 2004 
Q 403 2428 403 3163 
Q 403 3881 828 4315 
Q 1253 4750 1959 4750 
Q 2769 4750 3195 4129 
Q 3622 3509 3622 2328 
Q 3622 1225 3098 567 
Q 2575 -91 1691 -91 
Q 1453 -91 1209 -44 
Q 966 3 703 97 
z
M 1959 2075 
Q 2384 2075 2632 2365 
Q 2881 2656 2881 3163 
Q 2881 3666 2632 3958 
Q 2384 4250 1959 4250 
Q 1534 4250 1286 3958 
Q 1038 3666 1038 3163 
Q 1038 2656 1286 2365 
Q 1534 2075 1959 2075 
z
" transform="scale(0.015625)"/>
       </defs>
       <use xlink:href="#DejaVuSans-30"/>
       <use xlink:href="#DejaVuSans-2e" x="63.623047"/>
       <use xlink:href="#DejaVuSans-39" x="95.410156"/>
       <use xlink:href="#DejaVuSans-30" x="159.033203"/>
      </g>
     </g>
    </g>
    <g id="ytick_2">
     <g id="line2d_13">
      <path d="M 54.2 189.94 
L 565.2 189.94 
" clip-path="url(#pbcd3bf5e64)" style="fill: none; stroke-dasharray: 2.96,1.28; stroke-dashoffset: 0; stroke: #b0b0b0; stroke-opacity: 0.3; stroke-width: 0.8"/>
     </g>
     <g id="line2d_14">
      <g>
       <use xlink:href="#m293669403c" x="54.2" y="189.94" style="stroke: #000000; stroke-width: 0.8"/>
      </g>
     </g>
     <g id="text_8">
      <!-- 0.92 -->
      <g transform="translate(24.934375 193.739219) scale(0.1 -0.1)">
       <use xlink:href="#DejaVuSans-30"/>
       <use xlink:href="#DejaVuSans-2e" x="63.623047"/>
       <use xlink:href="#DejaVuSans-39" x="95.410156"/>
       <use xlink:href="#DejaVuSans-32" x="159.033203"/>
      </g>
     </g>
    </g>
    <g id="ytick_3">
     <g id="line2d_15">
      <path d="M 54.2 151.485455 
L 565.2 151.485455 
" clip-path="url(#pbcd3bf5e64)" style="fill: none; stroke-dasharray: 2.96,1.28; stroke-dashoffset: 0; stroke: #b0b0b0; stroke-opacity: 0.3; stroke-width: 0.8"/>
     </g>
     <g id="line2d_16">
      <g>
       <use xlink:href="#m293669403c" x="54.2" y="151.485455" style="stroke: #000000; stroke-width: 0.8"/>
      </g>
     </g>
     <g id="text_9">
      <!-- 0.94 -->
      <g transform="translate(24.934375 155.284673) scale(0.1 -0.1)">
       <use xlink:href="#DejaVuSans-30"/>
       <use xlink:href="#DejaVuSans-2e" x="63.623047"/>
       <use xlink:href="#DejaVuSans-39" x="95.410156"/>
       <use xlink:href="#DejaVuSans-34" x="159.033203"/>
      </g>
     </g>
    </g>
    <g id="ytick_4">
     <g id="line2d_17">
      <path d="M 54.2 113.030909 
L 565.2 113.030909 
" clip-path="url(#pbcd3bf5e64)" style="fill: none; stroke-dasharray: 2.96,1.28; stroke-dashoffset: 0; stroke: #b0b0b0; stroke-opacity: 0.3; stroke-width: 0.8"/>
     </g>
     <g id="line2d_18">
      <g>
       <use xlink:href="#m293669403c" x="54.2" y="113.030909" style="stroke: #000000; stroke-width: 0.8"/>
      </g>
     </g>
     <g id="text_10">
      <!-- 0.96 -->
      <g transform="translate(24.934375 116.830128) scale(0.1 -0.1)">
       <use xlink:href="#DejaVuSans-30"/>
       <use xlink:href="#DejaVuSans-2e" x="63.623047"/>
       <use xlink:href="#DejaVuSans-39" x="95.410156"/>
       <use xlink:href="#DejaVuSans-36" x="159.033203"/>
      </g>
     </g>
    </g>
    <g id="ytick_5">
     <g id="line2d_19">
      <path d="M 54.2 74.576364 
L 565.2 74.576364 
" clip-path="url(#pbcd3bf5e64)" style="fill: none; stroke-dasharray: 2.96,1.28; stroke-dashoffset: 0; stroke: #b0b0b0; stroke-opacity: 0.3; stroke-width: 0.8"/>
     </g>
     <g id="line2d_20">
      <g>
       <use xlink:href="#m293669403c" x="54.2" y="74.576364" style="stroke: #000000; stroke-width: 0.8"/>
      </g>
     </g>
     <g id="text_11">
      <!-- 0.98 -->
      <g transform="translate(24.934375 78.375582) scale(0.1 -0.1)">
       <use xlink:href="#DejaVuSans-30"/>
       <use xlink:href="#DejaVuSans-2e" x="63.623047"/>
       <use xlink:href="#DejaVuSans-39" x="95.410156"/>
       <use xlink:href="#DejaVuSans-38" x="159.033203"/>
      </g>
     </g>
    </g>
    <g id="ytick_6">
     <g id="line2d_21">
      <path d="M 54.2 36.121818 
L 565.2 36.121818 
" clip-path="url(#pbcd3bf5e64)" style="fill: none; stroke-dasharray: 2.96,1.28; stroke-dashoffset: 0; stroke: #b0b0b0; stroke-opacity: 0.3; stroke-width: 0.8"/>
     </g>
     <g id="line2d_22">
      <g>
       <use xlink:href="#m293669403c" x="54.2" y="36.121818" style="stroke: #000000; stroke-width: 0.8"/>
      </g>
     </g>
     <g id="text_12">
      <!-- 1.00 -->
      <g transform="translate(24.934375 39.921037) scale(0.1 -0.1)">
       <defs>
        <path id="DejaVuSans-31" d="M 794 531 
L 1825 531 
L 1825 4091 
L 703 3866 
L 703 4441 
L 1819 4666 
L 2450 4666 
L 2450 531 
L 3481 531 
L 3481 0 
L 794 0 
L 794 531 
z
" transform="scale(0.015625)"/>
       </defs>
       <use xlink:href="#DejaVuSans-31"/>
       <use xlink:href="#DejaVuSans-2e" x="63.623047"/>
       <use xlink:href="#DejaVuSans-30" x="95.410156"/>
       <use xlink:href="#DejaVuSans-30" x="159.033203"/>
      </g>
     </g>
    </g>
    <g id="text_13">
     <!-- cumulative timely transfer rate -->
     <g transform="translate(18.854688 221.048594) rotate(-90) scale(0.1 -0.1)">
      <defs>
       <path id="DejaVuSans-63" d="M 3122 3366 
L 3122 2828 
Q 2878 2963 2633 3030 
Q 2388 3097 2138 3097 
Q 1578 3097 1268 2742 
Q 959 2388 959 1747 
Q 959 1106 1268 751 
Q 1578 397 2138 397 
Q 2388 397 2633 464 
Q 2878 531 3122 666 
L 3122 134 
Q 2881 22 2623 -34 
Q 2366 -91 2075 -91 
Q 1284 -91 818 406 
Q 353 903 353 1747 
Q 353 2603 823 3093 
Q 1294 3584 2113 3584 
Q 2378 3584 2631 3529 
Q 2884 3475 3122 3366 
z
" transform="scale(0.015625)"/>
       <path id="DejaVuSans-6d" d="M 3328 2828 
Q 3544 3216 3844 3400 
Q 4144 3584 4550 3584 
Q 5097 3584 5394 3201 
Q 5691 2819 5691 2113 
L 5691 0 
L 5113 0 
L 5113 2094 
Q 5113 2597 4934 2840 
Q 4756 3084 4391 3084 
Q 3944 3084 3684 2787 
Q 3425 2491 3425 1978 
L 3425 0 
L 2847 0 
L 2847 2094 
Q 2847 2600 2669 2842 
Q 2491 3084 2119 3084 
Q 1678 3084 1418 2786 
Q 1159 2488 1159 1978 
L 1159 0 
L 581 0 
L 581 3500 
L 1159 3500 
L 1159 2956 
Q 1356 3278 1631 3431 
Q 1906 3584 2284 3584 
Q 2666 3584 2933 3390 
Q 3200 3197 3328 2828 
z
" transform="scale(0.015625)"/>
       <path id="DejaVuSans-6c" d="M 603 4863 
L 1178 4863 
L 1178 0 
L 603 0 
L 603 4863 
z
" transform="scale(0.015625)"/>
       <path id="DejaVuSans-61" d="M 2194 1759 
Q 1497 1759 1228 1600 
Q 959 1441 959 1056 
Q 959 750 1161 570 
Q 1363 391 1709 391 
Q 2188 391 2477 730 
Q 2766 1069 2766 1631 
L 2766 1759 
L 2194 1759 
z
M 3341 1997 
L 3341 0 
L 2766 0 
L 2766 531 
Q 2569 213 2275 61 
Q 1981 -91 1556 -91 
Q 1019 -91 701 211 
Q 384 513 384 1019 
Q 384 1609 779 1909 
Q 1175 2209 1959 2209 
L 2766 2209 
L 2766 2266 
Q 2766 2663 2505 2880 
Q 2244 3097 1772 3097 
Q 1472 3097 1187 3025 
Q 903 2953 641 2809 
L 641 3341 
Q 956 3463 1253 3523 
Q 1550 3584 1831 3584 
Q 2591 3584 2966 3190 
Q 3341 2797 3341 1997 
z
" transform="scale(0.015625)"/>
       <path id="DejaVuSans-74" d="M 1172 4494 
L 1172 3500 
L 2356 3500 
L 2356 3053 
L 1172 3053 
L 1172 1153 
Q 1172 725 1289 603 
Q 1406 481 1766 481 
L 2356 481 
L 2356 0 
L 1766 0 
Q 1100 0 847 248 
Q 594 497 594 1153 
L 594 3053 
L 172 3053 
L 172 3500 
L 594 3500 
L 594 4494 
L 1172 4494 
z
" transform="scale(0.015625)"/>
       <path id="DejaVuSans-69" d="M 603 3500 
L 1178 3500 
L 1178 0 
L 603 0 
L 603 3500 
z
M 603 4863 
L 1178 4863 
L 1178 4134 
L 603 4134 
L 603 4863 
z
" transform="scale(0.015625)"/>
       <path id="DejaVuSans-76" d="M 191 3500 
L 800 3500 
L 1894 563 
L 2988 3500 
L 3597 3500 
L 2284 0 
L 1503 0 
L 191 3500 
z
" transform="scale(0.015625)"/>
       <path id="DejaVuSans-65" d="M 3597 1894 
L 3597 1613 
L 953 1613 
Q 991 1019 1311 708 
Q 1631 397 2203 397 
Q 2534 397 2845 478 
Q 3156 559 3463 722 
L 3463 178 
Q 3153 47 2828 -22 
Q 2503 -91 2169 -91 
Q 1331 -91 842 396 
Q 353 884 353 1716 
Q 353 2575 817 3079 
Q 1281 3584 2069 3584 
Q 2775 3584 3186 3129 
Q 3597 2675 3597 1894 
z
M 3022 2063 
Q 3016 2534 2758 2815 
Q 2500 3097 2075 3097 
Q 1594 3097 1305 2825 
Q 1016 2553 972 2059 
L 3022 2063 
z
" transform="scale(0.015625)"/>
       <path id="DejaVuSans-20" transform="scale(0.015625)"/>
       <path id="DejaVuSans-79" d="M 2059 -325 
Q 1816 -950 1584 -1140 
Q 1353 -1331 966 -1331 
L 506 -1331 
L 506 -850 
L 844 -850 
Q 1081 -850 1212 -737 
Q 1344 -625 1503 -206 
L 1606 56 
L 191 3500 
L 800 3500 
L 1894 763 
L 2988 3500 
L 3597 3500 
L 2059 -325 
z
" transform="scale(0.015625)"/>
       <path id="DejaVuSans-73" d="M 2834 3397 
L 2834 2853 
Q 2591 2978 2328 3040 
Q 2066 3103 1784 3103 
Q 1356 3103 1142 2972 
Q 928 2841 928 2578 
Q 928 2378 1081 2264 
Q 1234 2150 1697 2047 
L 1894 2003 
Q 2506 1872 2764 1633 
Q 3022 1394 3022 966 
Q 3022 478 2636 193 
Q 2250 -91 1575 -91 
Q 1294 -91 989 -36 
Q 684 19 347 128 
L 347 722 
Q 666 556 975 473 
Q 1284 391 1588 391 
Q 1994 391 2212 530 
Q 2431 669 2431 922 
Q 2431 1156 2273 1281 
Q 2116 1406 1581 1522 
L 1381 1569 
Q 847 1681 609 1914 
Q 372 2147 372 2553 
Q 372 3047 722 3315 
Q 1072 3584 1716 3584 
Q 2034 3584 2315 3537 
Q 2597 3491 2834 3397 
z
" transform="scale(0.015625)"/>
       <path id="DejaVuSans-66" d="M 2375 4863 
L 2375 4384 
L 1825 4384 
Q 1516 4384 1395 4259 
Q 1275 4134 1275 3809 
L 1275 3500 
L 2222 3500 
L 2222 3053 
L 1275 3053 
L 1275 0 
L 697 0 
L 697 3053 
L 147 3053 
L 147 3500 
L 697 3500 
L 697 3744 
Q 697 4328 969 4595 
Q 1241 4863 1831 4863 
L 2375 4863 
z
" transform="scale(0.015625)"/>
      </defs>
      <use xlink:href="#DejaVuSans-63"/>
      <use xlink:href="#DejaVuSans-75" x="54.980469"/>
      <use xlink:href="#DejaVuSans-6d" x="118.359375"/>
      <use xlink:href="#DejaVuSans-75" x="215.771484"/>
      <use xlink:href="#DejaVuSans-6c" x="279.150391"/>
      <use xlink:href="#DejaVuSans-61" x="306.933594"/>
      <use xlink:href="#DejaVuSans-74" x="368.212891"/>
      <use xlink:href="#DejaVuSans-69" x="407.421875"/>
      <use xlink:href="#DejaVuSans-76" x="435.205078"/>
      <use xlink:href="#DejaVuSans-65" x="494.384766"/>
      <use xlink:href="#DejaVuSans-20" x="555.908203"/>
      <use xlink:href="#DejaVuSans-74" x="587.695312"/>
      <use xlink:href="#DejaVuSans-69" x="626.904297"/>
      <use xlink:href="#DejaVuSans-6d" x="654.6875"/>
      <use xlink:href="#DejaVuSans-65" x="752.099609"/>
      <use xlink:href="#DejaVuSans-6c" x="813.623047"/>
      <use xlink:href="#DejaVuSans-79" x="841.40625"/>
      <use xlink:href="#DejaVuSans-20" x="900.585938"/>
      <use xlink:href="#DejaVuSans-74" x="932.373047"/>
      <use xlink:href="#DejaVuSans-72" x="971.582031"/>
      <use xlink:href="#DejaVuSans-61" x="1012.695312"/>
      <use xlink:href="#DejaVuSans-6e" x="1073.974609"/>
      <use xlink:href="#DejaVuSans-73" x="1137.353516"/>
      <use xlink:href="#DejaVuSans-66" x="1189.453125"/>
      <use xlink:href="#DejaVuSans-65" x="1224.658203"/>
      <use xlink:href="#DejaVuSans-72" x="1286.181641"/>
      <use xlink:href="#DejaVuSans-20" x="1327.294922"/>
      <use xlink:href="#DejaVuSans-72" x="1359.082031"/>
      <use xlink:href="#DejaVuSans-61" x="1400.195312"/>
      <use xlink:href="#DejaVuSans-74" x="1461.474609"/>
      <use xlink:href="#DejaVuSans-65" x="1500.683594"/>
     </g>
    </g>
   </g>
   <g id="line2d_23">
    <path d="M 77.427273 36.121818 
L 77.481964 249.758182 
L 77.536655 175.956529 
L 77.646037 115.409541 
L 77.81011 222.568099 
L 78.138256 141.838782 
L 78.466402 105.880631 
L 78.849239 86.389198 
L 79.341458 72.876461 
L 79.833677 65.309329 
L 80.489969 58.792147 
L 80.982188 55.629514 
L 81.091571 55.088302 
L 81.146262 64.122701 
L 81.200953 63.82017 
L 81.255644 63.507845 
L 81.310335 72.102679 
L 81.365026 71.727879 
L 82.1307 65.859504 
L 82.951065 61.441684 
L 83.005756 72.075255 
L 83.060447 71.842923 
L 83.169829 71.401218 
L 83.22452 80.871684 
L 83.279211 80.643368 
L 83.443284 79.602427 
L 83.497975 89.28814 
L 83.552666 88.710462 
L 83.826121 86.000671 
L 83.935503 101.646775 
L 83.990194 100.647242 
L 84.044885 99.954816 
L 84.099576 107.286873 
L 84.154267 106.312644 
L 84.31834 103.90446 
L 84.482413 115.602338 
L 84.974632 110.278059 
L 85.084014 113.913955 
L 85.193396 113.797307 
L 85.357469 114.191952 
L 85.576233 111.823515 
L 85.740307 112.1776 
L 86.341908 105.673513 
L 86.724745 102.629992 
L 86.779436 103.383443 
L 86.834127 102.968333 
L 88.201402 94.149768 
L 88.256093 94.8362 
L 88.310784 94.589932 
L 88.420166 93.873336 
L 88.693621 97.866637 
L 90.006205 87.313205 
L 90.662498 83.745838 
L 91.537554 79.758503 
L 92.631374 75.827186 
L 92.686065 77.604828 
L 92.740756 77.38555 
L 93.834576 73.003008 
L 94.217413 71.434732 
L 94.326795 74.510947 
L 94.381486 74.373953 
L 95.037779 71.986994 
L 95.529998 70.516827 
L 96.240981 68.282648 
L 96.405054 72.622107 
L 96.459745 72.474419 
L 96.678509 78.285065 
L 96.7332 78.097336 
L 96.787891 79.242764 
L 96.842582 79.074035 
L 97.498874 76.660082 
L 97.717638 75.938237 
L 97.881711 78.729344 
L 97.936402 78.552354 
L 97.991093 80.111055 
L 98.045784 79.918579 
L 98.756767 77.958775 
L 99.303677 76.682301 
L 99.413059 81.485208 
L 99.46775 81.325234 
L 99.522442 81.176939 
L 99.905279 85.723595 
L 100.014661 85.327612 
L 100.233425 89.703216 
L 100.288116 89.548682 
L 100.342807 90.689861 
L 100.397498 90.56061 
L 100.944408 88.611823 
L 101.108481 90.759672 
L 101.217863 90.42594 
L 101.272554 91.634154 
L 101.327245 91.452817 
L 101.6007 90.644281 
L 101.655391 92.0105 
L 101.710082 91.800755 
L 102.311683 89.768399 
L 102.421065 92.269372 
L 102.475756 92.111845 
L 103.569576 88.498931 
L 103.624267 88.825402 
L 103.678958 88.695041 
L 104.335251 86.757162 
L 104.554015 86.131152 
L 104.608706 86.333429 
L 104.663397 86.168989 
L 104.718088 86.003509 
L 104.772779 86.965702 
L 104.82747 86.813668 
L 105.046234 86.339912 
L 105.100925 87.298589 
L 105.155616 87.188152 
L 105.319689 86.815789 
L 105.37438 88.53974 
L 105.429071 88.421638 
L 107.01511 84.631998 
L 107.835475 82.685787 
L 108.382385 81.584781 
L 108.437076 82.234482 
L 108.491767 82.129862 
L 109.585588 80.371134 
L 109.69497 80.200818 
L 109.859043 82.267788 
L 110.734099 80.872744 
L 111.062245 83.709195 
L 111.116936 83.610235 
L 111.609155 82.822846 
L 111.663846 82.77001 
L 111.718537 84.069377 
L 111.773228 84.016795 
L 111.991992 83.721488 
L 112.046683 84.665271 
L 112.101374 84.583904 
L 112.156065 84.544824 
L 112.42952 88.338918 
L 112.97643 87.599443 
L 113.031121 88.2341 
L 113.085812 88.200906 
L 113.140503 88.123619 
L 113.195194 88.401763 
L 113.249885 88.316516 
L 113.851487 87.272406 
L 113.906178 88.282237 
L 113.960869 88.173144 
L 114.070251 87.948719 
L 114.124942 88.960383 
L 114.179633 88.846197 
L 114.453088 88.371656 
L 114.507779 89.430647 
L 114.56247 89.326159 
L 114.617161 89.238888 
L 114.671852 90.336025 
L 114.726543 90.267618 
L 115.273453 89.332228 
L 115.328144 90.408044 
L 115.382835 90.302912 
L 116.148509 88.830921 
L 116.2032 89.55128 
L 116.257891 89.440882 
L 116.586037 88.847429 
L 116.640728 89.4879 
L 116.695419 89.40066 
L 117.078256 88.739328 
L 117.570475 88.022304 
L 117.625166 88.634541 
L 117.679857 88.548465 
L 118.390841 87.315085 
L 118.554914 89.586213 
L 118.718987 89.337573 
L 118.828369 90.380116 
L 118.88306 90.282473 
L 118.992442 90.060028 
L 119.047133 90.337645 
L 119.101824 90.236814 
L 120.031571 88.627543 
L 120.086262 89.124361 
L 120.140953 89.029079 
L 120.195644 88.959422 
L 120.250335 89.791292 
L 120.305026 89.700381 
L 120.52379 89.392816 
L 120.742554 89.003949 
L 120.797245 89.465611 
L 120.851936 89.395468 
L 121.61761 88.327764 
L 121.672301 88.834989 
L 121.726992 88.796254 
L 122.055138 88.394131 
L 122.109829 89.190631 
L 122.16452 89.107442 
L 122.273902 88.946628 
L 122.328593 89.821996 
L 122.383284 89.743175 
L 122.984886 88.939296 
L 123.039577 89.873648 
L 123.094268 89.775954 
L 123.859942 88.693456 
L 124.078706 90.626025 
L 124.133397 90.551935 
L 124.352161 90.256417 
L 124.406852 90.557677 
L 124.461543 90.504063 
L 124.953762 89.818838 
L 125.555363 88.986213 
L 125.610054 89.635263 
L 125.664745 89.570826 
L 125.719436 89.491052 
L 125.774127 90.364424 
L 125.828818 90.299385 
L 126.539801 89.319497 
L 126.649183 90.316051 
L 126.703874 90.241533 
L 127.52424 89.224661 
L 127.578931 89.640952 
L 127.633622 89.595399 
L 128.180532 88.860467 
L 128.289914 90.045808 
L 128.399296 89.887689 
L 128.946206 89.211389 
L 129.219661 88.866513 
L 129.274352 89.516687 
L 129.329043 89.476093 
L 129.657189 89.162571 
L 129.71188 89.351501 
L 129.766571 89.274265 
L 130.25879 88.657503 
L 130.641627 88.192946 
L 130.696318 88.438999 
L 130.751009 88.386007 
L 130.860391 88.257348 
L 130.915082 88.560476 
L 130.969773 88.497993 
L 131.079155 88.362008 
L 131.133846 88.760314 
L 131.188537 88.677766 
L 131.243228 88.640417 
L 131.571374 90.055408 
L 131.680756 89.952212 
L 131.735447 89.920166 
L 131.790138 90.925244 
L 131.84483 90.863109 
L 132.665195 89.887763 
L 132.829268 91.141044 
L 133.048032 90.894131 
L 133.102723 91.124206 
L 133.157414 91.061686 
L 133.212105 91.01465 
L 133.321487 91.83605 
L 133.376178 91.776895 
L 133.48556 91.644495 
L 133.540251 92.077287 
L 133.594942 92.0259 
L 133.977779 91.624861 
L 134.415307 91.099944 
L 134.469998 91.388775 
L 134.524689 91.328645 
L 134.798144 91.023449 
L 134.907526 91.89207 
L 134.962217 91.84036 
L 135.180981 91.583244 
L 135.235672 92.280301 
L 135.290363 92.208872 
L 135.345054 92.150735 
L 135.399745 92.257965 
L 135.618509 93.18819 
L 136.110728 92.670756 
L 136.165419 92.88772 
L 136.22011 92.814906 
L 136.985785 91.991683 
L 137.040476 91.918439 
L 137.095167 92.305004 
L 137.149858 92.247825 
L 137.80615 91.583039 
L 137.860841 92.016122 
L 137.915532 91.968033 
L 139.064043 90.760589 
L 139.118734 91.462441 
L 139.173425 91.407332 
L 139.720335 90.810833 
L 140.267245 90.279022 
L 140.321936 90.754068 
L 140.376627 90.708352 
L 140.759464 90.317511 
L 140.814155 90.467458 
L 140.868846 90.40111 
L 140.923537 90.332476 
L 140.978228 90.452157 
L 141.032919 90.425208 
L 141.306375 90.18144 
L 141.361066 90.377862 
L 141.415757 90.321157 
L 141.470448 90.271031 
L 141.525139 91.462815 
L 141.57983 91.40105 
L 141.634521 91.352558 
L 141.689212 91.995456 
L 141.743903 91.94238 
L 141.853285 91.839007 
L 141.907976 92.086016 
L 141.962667 92.027281 
L 142.345504 91.683154 
L 142.509577 92.104445 
L 143.001796 91.617583 
L 143.22056 91.447294 
L 143.384633 92.536389 
L 143.548706 92.420256 
L 143.986234 92.002754 
L 144.095616 92.67262 
L 144.204998 92.549476 
L 144.697217 92.059056 
L 144.86129 92.589103 
L 145.626964 91.887105 
L 145.736347 91.832559 
L 145.90042 91.669991 
L 145.955111 91.96933 
L 146.009802 91.909971 
L 146.337948 91.637927 
L 146.392639 91.929144 
L 146.44733 91.878642 
L 146.720785 91.607808 
L 146.775476 91.781231 
L 146.830167 91.741794 
L 146.939549 91.649487 
L 146.99424 92.020826 
L 147.048931 91.981347 
L 147.595841 91.523093 
L 147.650532 91.975327 
L 147.705223 91.919745 
L 147.814605 91.814893 
L 147.869296 92.279791 
L 147.923987 92.236145 
L 148.197442 91.983887 
L 148.252133 92.283031 
L 148.306824 92.249374 
L 148.416206 92.162801 
L 148.470897 92.381059 
L 148.525588 92.329524 
L 148.963116 91.949312 
L 149.017807 92.207697 
L 149.072498 92.158231 
L 149.674099 91.691681 
L 149.72879 91.859942 
L 149.783481 91.813503 
L 150.111627 91.513531 
L 150.166318 91.678883 
L 150.221009 91.956806 
L 150.2757 91.92506 
L 150.658538 91.581781 
L 150.713229 91.765823 
L 150.76792 91.742277 
L 151.096066 91.452805 
L 151.260139 91.312005 
L 151.31483 91.543516 
L 151.369521 91.496364 
L 151.533594 91.367282 
L 151.588285 92.068534 
L 151.642976 92.004878 
L 152.846178 91.090357 
L 153.119633 90.855539 
L 153.174324 91.35319 
L 153.229015 91.312907 
L 153.283706 91.263827 
L 153.338397 91.507071 
L 153.393088 91.461993 
L 153.830616 91.120169 
L 153.885307 91.430248 
L 153.939998 91.397756 
L 153.994689 91.343689 
L 154.158762 92.08921 
L 154.213453 92.046927 
L 154.268144 92.010833 
L 154.322835 92.367774 
L 154.377526 92.338358 
L 154.815054 92.248252 
L 406.065563 92.269554 
L 406.065563 92.269554 
" clip-path="url(#pbcd3bf5e64)" style="fill: none; stroke: #1f77b4; stroke-width: 1.8; stroke-linecap: square"/>
   </g>
   <g id="line2d_24">
    <path d="M 77.427273 36.121818 
L 77.481964 177.672292 
L 77.536655 131.859276 
L 77.591346 129.344959 
L 77.81011 83.743546 
L 77.864801 78.730733 
L 77.919492 91.678008 
L 77.974183 86.091002 
L 78.028874 82.770265 
L 78.083565 88.137628 
L 78.138256 84.19 
L 78.247638 78.280286 
L 78.411711 98.629207 
L 78.466402 95.428643 
L 78.575784 100.787534 
L 78.630475 97.747692 
L 78.685166 110.63853 
L 78.739857 107.612656 
L 78.90393 99.462639 
L 79.013312 119.01135 
L 79.068003 117.118597 
L 79.177385 111.925731 
L 79.232076 114.978322 
L 79.286767 112.73777 
L 79.341458 110.621022 
L 79.505531 126.306024 
L 79.560222 124.293353 
L 79.99775 109.751915 
L 80.107132 120.808871 
L 80.161823 119.013962 
L 80.216514 121.008425 
L 80.271205 119.290951 
L 80.325896 117.660184 
L 80.435278 125.394307 
L 80.489969 123.706301 
L 80.54466 125.343501 
L 80.872806 119.366332 
L 80.927497 118.202733 
L 81.091571 124.132762 
L 81.146262 124.479938 
L 81.58379 115.444272 
L 81.802554 129.063318 
L 81.857245 127.844049 
L 81.966627 125.85096 
L 82.021318 128.009749 
L 82.076009 127.119032 
L 82.294773 123.149147 
L 82.349464 124.99063 
L 82.404155 124.031103 
L 82.568228 121.482348 
L 82.622919 124.302239 
L 82.67761 123.451984 
L 83.005756 118.429168 
L 83.060447 120.984825 
L 83.115138 120.376667 
L 83.279211 119.185039 
L 83.388593 124.174159 
L 83.443284 123.479678 
L 83.826121 119.55298 
L 83.990194 123.358835 
L 84.044885 122.569122 
L 84.154267 125.643818 
L 84.208958 124.915283 
L 84.537104 120.884505 
L 84.646486 124.130241 
L 85.029323 119.652889 
L 85.084014 119.841923 
L 85.576233 115.816286 
L 85.685616 114.800004 
L 85.740307 115.477848 
L 85.794998 114.915846 
L 85.849689 115.069243 
L 86.013762 113.478055 
L 86.068453 114.751869 
L 86.123144 114.30545 
L 86.341908 113.030909 
L 86.396599 113.465521 
L 86.45129 113.00817 
L 86.615363 115.306062 
L 87.162273 110.954564 
L 87.216964 111.160827 
L 87.54511 108.656068 
L 87.599801 111.379765 
L 87.654492 111.065822 
L 87.763874 110.206284 
L 87.818565 111.882792 
L 87.873256 111.501258 
L 87.927947 111.152102 
L 88.09202 112.074292 
L 88.146711 111.668205 
L 88.201402 112.269433 
L 88.256093 111.852353 
L 88.912385 107.781814 
L 89.076458 106.7292 
L 89.131149 106.882225 
L 89.18584 107.342043 
L 89.240531 107.043426 
L 89.349913 106.347102 
L 89.404604 107.170964 
L 89.459295 106.823671 
L 89.513986 106.495316 
L 89.678059 109.58115 
L 89.787441 108.961843 
L 89.842132 110.32363 
L 89.896823 109.981741 
L 89.951514 109.639067 
L 90.006205 111.144621 
L 90.060896 110.80761 
L 90.170278 110.146466 
L 90.279661 113.561812 
L 90.334352 113.209721 
L 90.607807 111.706234 
L 90.662498 112.192578 
L 90.717189 111.863863 
L 91.264099 108.863129 
L 91.31879 109.47239 
L 91.373481 109.16356 
L 92.357919 105.310053 
L 92.41261 105.822504 
L 92.467301 105.550078 
L 92.631374 104.802718 
L 92.740756 105.76153 
L 92.795447 105.498145 
L 92.904829 105.010001 
L 92.95952 105.992568 
L 93.014211 105.72616 
L 93.615812 103.611006 
L 93.725194 104.985035 
L 93.779885 104.756955 
L 93.889267 104.308068 
L 93.943958 106.250032 
L 93.998649 106.046229 
L 94.819014 102.736341 
L 94.928397 105.464876 
L 94.983088 105.229896 
L 95.147161 104.580859 
L 95.311234 105.455244 
L 95.475307 104.790649 
L 95.529998 105.378602 
L 95.584689 105.162023 
L 95.748762 104.5353 
L 95.858144 105.649041 
L 95.912835 105.425553 
L 96.022217 104.997691 
L 96.076908 105.127273 
L 96.18629 106.120039 
L 96.405054 105.285643 
L 96.459745 105.876199 
L 96.514436 105.695734 
L 96.569127 105.511362 
L 96.623818 105.70738 
L 96.7332 105.348778 
L 96.787891 106.133197 
L 96.842582 105.947803 
L 97.006655 105.35967 
L 97.061346 105.78111 
L 97.116037 105.62742 
L 97.170728 105.422771 
L 97.334801 106.676472 
L 97.608256 105.695443 
L 97.717638 107.040789 
L 97.772329 106.838177 
L 97.936402 106.301207 
L 97.991093 106.852589 
L 98.045784 106.666896 
L 98.209857 106.117871 
L 98.319239 106.864599 
L 98.37393 106.672738 
L 98.538003 106.156544 
L 98.811458 107.35841 
L 99.248986 106.143036 
L 99.303677 106.892371 
L 99.358368 106.722006 
L 99.686515 105.716795 
L 99.741206 106.064314 
L 99.795897 105.876201 
L 99.850588 105.697391 
L 99.905279 106.256379 
L 99.95997 106.081677 
L 100.124043 105.634366 
L 100.178734 106.013491 
L 100.233425 105.845482 
L 100.342807 105.499732 
L 100.397498 105.711668 
L 100.452189 105.539996 
L 100.725644 104.761091 
L 100.889717 105.524855 
L 101.108481 104.858517 
L 101.272554 105.512749 
L 101.327245 105.34 
L 101.381936 105.813841 
L 101.436627 105.647003 
L 101.491318 105.763404 
L 101.6007 105.430356 
L 101.655391 105.908047 
L 101.710082 105.735252 
L 101.983537 104.92696 
L 102.038228 105.482165 
L 102.092919 105.313136 
L 102.585138 103.98999 
L 102.639829 104.141028 
L 102.69452 103.984575 
L 102.858593 103.530125 
L 102.913284 104.137483 
L 102.967975 103.984555 
L 103.186739 103.40581 
L 103.24143 103.80142 
L 103.296121 103.670394 
L 103.569576 102.969818 
L 103.624267 103.474135 
L 103.678958 103.323367 
L 103.78834 103.047574 
L 103.952413 103.506102 
L 104.335251 102.547817 
L 104.389942 102.636193 
L 104.499324 103.861205 
L 104.608706 103.609961 
L 104.991543 102.708767 
L 105.100925 102.438761 
L 105.155616 102.903443 
L 105.210307 102.775008 
L 105.866599 101.265323 
L 105.92129 101.668827 
L 105.975981 101.539987 
L 106.249436 100.913824 
L 106.304127 101.669844 
L 106.358818 101.538216 
L 106.741655 100.867922 
L 106.796346 101.048708 
L 106.851037 100.92795 
L 107.124492 100.325061 
L 107.233874 100.978788 
L 108.218312 98.897778 
L 108.437076 100.300946 
L 108.491767 100.189335 
L 108.710531 99.731827 
L 108.765223 99.899091 
L 108.819914 99.790718 
L 108.983987 99.433013 
L 109.038678 99.760098 
L 109.093369 99.64493 
L 109.202751 99.423804 
L 109.257442 100.030285 
L 109.312133 99.915452 
L 110.023116 98.523022 
L 110.077807 99.099661 
L 110.132498 98.993167 
L 110.570026 98.1378 
L 110.624717 98.491174 
L 110.679408 98.380018 
L 110.952863 97.860767 
L 111.007554 98.246094 
L 111.062245 98.139142 
L 111.991992 96.459222 
L 112.046683 97.210641 
L 112.101374 97.11334 
L 112.265447 96.822127 
L 112.320138 97.195693 
L 112.374829 97.095714 
L 113.523341 95.119215 
L 113.578032 95.355016 
L 113.632723 95.272335 
L 114.124942 94.498229 
L 114.179633 95.172912 
L 114.234324 95.079016 
L 114.617161 94.453987 
L 114.671852 94.886597 
L 114.726543 94.813252 
L 115.218762 94.036717 
L 115.273453 94.337136 
L 115.328144 94.259492 
L 115.984436 93.294294 
L 116.039127 93.771829 
L 116.093818 93.693456 
L 116.476655 93.119662 
L 116.531346 93.525938 
L 116.586037 93.45279 
L 116.804801 93.120625 
L 116.914183 93.742421 
L 116.968874 93.661001 
L 117.132947 93.418118 
L 117.242329 93.988282 
L 117.351711 93.835023 
L 117.570475 93.514761 
L 117.625166 93.73079 
L 117.679857 93.647038 
L 118.281459 92.932087 
L 118.33615 93.132936 
L 118.390841 93.066322 
L 118.664296 92.687206 
L 118.718987 93.14242 
L 118.773678 93.061748 
L 119.101824 92.629311 
L 119.156515 93.049301 
L 119.211206 92.967774 
L 119.375279 92.72728 
L 119.42997 93.110222 
L 119.484661 93.031872 
L 119.97688 92.357365 
L 120.031571 92.581786 
L 120.086262 92.518464 
L 120.195644 92.366019 
L 120.250335 92.656826 
L 120.305026 92.579736 
L 120.578481 92.224185 
L 120.633172 92.451719 
L 120.687863 92.379908 
L 120.797245 92.227379 
L 120.851936 92.475386 
L 120.906627 92.401348 
L 121.672301 91.436314 
L 121.726992 91.654138 
L 121.781683 91.580952 
L 122.273902 90.981198 
L 122.328593 91.334838 
L 122.383284 91.266308 
L 122.820813 90.874401 
L 123.148959 90.482232 
L 123.20365 90.667075 
L 123.258341 90.598301 
L 123.805251 89.980883 
L 123.914633 90.738037 
L 123.969324 90.678762 
L 124.570925 90.04274 
L 124.625616 90.564206 
L 124.680307 90.506689 
L 125.227217 89.941135 
L 125.336599 90.440983 
L 125.39129 90.386636 
L 125.992891 89.93767 
L 126.047582 90.224019 
L 126.102273 90.169095 
L 126.211655 90.069183 
L 126.266346 90.281297 
L 126.321037 90.231701 
L 126.703874 89.911889 
L 126.758565 90.073236 
L 126.813256 90.028597 
L 127.688313 89.386316 
L 127.743004 89.68255 
L 127.797695 89.641694 
L 129.602498 88.565794 
L 129.766571 89.109969 
L 130.25879 88.855215 
L 130.313481 89.076062 
L 130.368172 89.046427 
L 130.586936 88.946054 
L 130.641627 89.119702 
L 130.696318 89.097004 
L 130.915082 89.013946 
L 130.969773 89.198127 
L 131.024464 89.181631 
L 132.063594 88.828755 
L 133.649633 88.319788 
L 133.704324 88.629521 
L 133.759015 88.609465 
L 133.813706 88.597438 
L 133.868397 88.944399 
L 133.923088 88.927601 
L 134.688762 88.790255 
L 135.290363 88.719517 
L 135.454436 88.997792 
L 135.618509 88.97436 
L 135.782582 89.207054 
L 136.931094 89.119836 
L 137.095167 89.37502 
L 138.571824 89.299765 
L 147.048931 89.189285 
L 162.581178 89.110555 
L 387.306546 89.110555 
L 387.306546 89.110555 
" clip-path="url(#pbcd3bf5e64)" style="fill: none; stroke: #ff7f0e; stroke-width: 1.8; stroke-linecap: square"/>
   </g>
   <g id="line2d_25">
    <path d="M 77.427273 36.121818 
L 77.591346 36.121818 
L 77.700728 96.062956 
L 77.755419 86.822537 
L 77.919492 71.880694 
L 77.974183 101.129502 
L 78.028874 96.27935 
L 78.302329 77.920237 
L 78.466402 71.778672 
L 78.630475 83.363275 
L 78.90393 75.281233 
L 79.013312 93.178727 
L 79.122694 89.343179 
L 79.45084 80.639208 
L 79.505531 82.278295 
L 79.560222 81.007786 
L 79.669604 78.79248 
L 79.724295 86.31225 
L 79.778986 84.958729 
L 79.888368 82.904909 
L 79.99775 85.522144 
L 80.325896 79.999441 
L 80.380587 91.881398 
L 80.435278 90.687641 
L 80.599351 87.635545 
L 80.654042 88.628603 
L 80.708733 87.815101 
L 80.763424 86.980778 
L 80.818115 88.799278 
L 80.872806 87.873106 
L 80.982188 86.346841 
L 81.03688 88.065822 
L 81.091571 87.279114 
L 81.310335 84.245527 
L 81.365026 88.185821 
L 81.419717 87.466356 
L 81.474408 86.869326 
L 81.529099 87.745729 
L 81.58379 86.956514 
L 81.693172 85.681858 
L 81.747863 86.343548 
L 81.911936 89.655572 
L 81.966627 89.177908 
L 82.1307 87.431415 
L 82.185391 92.091098 
L 82.294773 92.016781 
L 82.513537 89.697145 
L 82.568228 91.443977 
L 82.622919 90.785953 
L 82.841683 88.733091 
L 82.896374 90.166908 
L 82.951065 89.582116 
L 83.005756 89.060057 
L 83.060447 91.388929 
L 83.115138 90.786842 
L 83.169829 90.21195 
L 83.279211 94.026346 
L 83.333902 93.626698 
L 83.935503 88.598242 
L 84.482413 84.996014 
L 84.537104 86.821711 
L 84.591795 86.432778 
L 84.701177 85.79593 
L 84.755868 87.734676 
L 84.810559 87.486385 
L 84.919941 86.791428 
L 84.974632 87.712818 
L 85.029323 87.369049 
L 85.084014 86.929441 
L 85.248087 90.664641 
L 85.302778 90.257215 
L 85.357469 90.138237 
L 85.41216 89.738608 
L 85.466851 90.2551 
L 85.521542 89.956021 
L 85.630925 89.215229 
L 85.685616 90.437144 
L 85.740307 90.09557 
L 85.794998 89.738839 
L 85.849689 91.950738 
L 85.90438 91.611535 
L 85.959071 91.227489 
L 86.013762 93.091515 
L 86.068453 92.707293 
L 86.123144 92.534764 
L 86.177835 92.917556 
L 86.232526 94.371237 
L 86.287217 94.022408 
L 86.615363 92.060325 
L 86.779436 95.073362 
L 86.943509 93.972431 
L 86.9982 96.760738 
L 87.052891 96.368284 
L 87.162273 95.668017 
L 87.216964 96.244342 
L 87.271655 95.988858 
L 87.490419 94.774387 
L 87.599801 95.721181 
L 87.654492 95.450214 
L 87.818565 94.544504 
L 87.982638 96.826391 
L 88.037329 96.543295 
L 88.256093 95.282657 
L 88.420166 98.887381 
L 88.474857 98.567788 
L 88.63893 99.913298 
L 88.967076 98.426573 
L 89.021767 99.091861 
L 89.076458 98.784029 
L 89.18584 98.418581 
L 89.240531 98.725124 
L 89.295222 98.41986 
L 89.404604 97.822096 
L 89.459295 98.78506 
L 89.513986 98.59135 
L 90.006205 96.393566 
L 90.060896 97.863439 
L 90.115587 97.595273 
L 90.170278 97.351492 
L 90.334352 97.979608 
L 90.717189 96.224372 
L 90.77188 97.400883 
L 90.826571 97.110195 
L 91.31879 95.016549 
L 91.373481 95.575613 
L 91.428172 95.344263 
L 91.482863 95.379642 
L 91.646936 94.723179 
L 91.756318 95.703646 
L 91.811009 95.451923 
L 92.029773 94.53353 
L 92.084464 95.012715 
L 92.139155 94.778911 
L 92.193846 94.556078 
L 92.248537 96.147842 
L 92.303228 95.884407 
L 92.795447 94.178789 
L 92.850138 94.013277 
L 92.95952 94.672828 
L 93.014211 94.504611 
L 93.725194 92.236454 
L 93.779885 93.015873 
L 93.834576 92.808887 
L 94.05334 92.034849 
L 94.108031 92.809153 
L 94.162722 92.659527 
L 94.873706 90.770992 
L 95.037779 90.565029 
L 95.09247 91.143817 
L 95.147161 90.965417 
L 95.584689 89.729915 
L 95.63938 90.119025 
L 95.694071 89.960473 
L 96.18629 88.480985 
L 96.240981 88.943996 
L 96.295672 88.796023 
L 96.350363 88.681264 
L 96.405054 89.301122 
L 96.459745 89.149026 
L 96.678509 88.509035 
L 96.7332 89.404169 
L 96.787891 89.231147 
L 97.006655 88.867048 
L 97.061346 91.195597 
L 97.116037 91.026633 
L 97.389492 90.203411 
L 97.444183 90.991121 
L 97.498874 90.843202 
L 97.608256 90.54766 
L 97.662947 91.331674 
L 97.717638 91.159347 
L 98.100475 90.311493 
L 98.155166 91.517576 
L 98.209857 91.352891 
L 98.319239 91.058914 
L 98.428621 92.647682 
L 98.483312 92.486121 
L 98.756767 91.752264 
L 98.811458 92.482996 
L 98.866149 92.330997 
L 99.084913 91.723201 
L 99.139604 92.441997 
L 99.194295 92.286642 
L 99.413059 91.710643 
L 99.577133 92.425107 
L 99.686515 92.148748 
L 99.741206 92.610219 
L 99.795897 92.50523 
L 100.670953 90.390805 
L 101.381936 89.017079 
L 101.874155 87.933467 
L 101.983537 87.64927 
L 102.038228 88.180027 
L 102.092919 88.059864 
L 102.803902 86.638545 
L 102.967975 86.271864 
L 103.022666 86.572388 
L 103.077357 86.458917 
L 103.350812 85.877003 
L 103.405503 86.040635 
L 103.460194 86.005234 
L 104.061795 84.955806 
L 104.171178 85.248235 
L 104.225869 85.129919 
L 104.499324 84.607225 
L 104.554015 85.382043 
L 104.608706 85.319369 
L 104.936852 84.708074 
L 104.991543 84.976115 
L 105.046234 84.862049 
L 105.210307 84.549758 
L 105.264998 85.707775 
L 105.319689 85.595997 
L 105.647835 85.037932 
L 105.702526 84.937093 
L 105.757217 85.295763 
L 105.811908 85.190853 
L 106.686964 83.666754 
L 106.905728 83.328294 
L 106.960419 83.472267 
L 107.01511 83.387723 
L 107.124492 83.295581 
L 108.601149 81.105632 
L 108.65584 81.65277 
L 108.710531 81.574693 
L 108.874605 81.307923 
L 108.929296 82.021229 
L 108.983987 81.925471 
L 109.366824 81.39826 
L 109.913734 80.632961 
L 109.968425 81.008984 
L 110.023116 80.927791 
L 110.077807 80.860529 
L 110.24188 81.378818 
L 110.296571 81.316614 
L 110.351262 81.237788 
L 110.405953 81.563067 
L 110.460644 81.487237 
L 110.624717 81.272711 
L 110.679408 81.544756 
L 110.734099 81.472704 
L 111.007554 81.078933 
L 111.062245 81.76143 
L 111.116936 81.708519 
L 112.210756 80.296644 
L 112.265447 81.301742 
L 112.320138 81.239205 
L 112.538902 80.962363 
L 112.648284 82.259904 
L 112.702975 82.201707 
L 112.812357 82.052872 
L 112.867048 82.52028 
L 112.921739 82.440083 
L 112.97643 82.357173 
L 113.031121 82.570306 
L 113.085812 82.510379 
L 113.359268 82.153056 
L 113.413959 82.730906 
L 113.46865 82.678345 
L 113.906178 82.061553 
L 113.960869 82.590011 
L 114.01556 82.519988 
L 114.234324 82.245831 
L 114.289015 82.529584 
L 114.343706 82.454517 
L 114.781234 82.051227 
L 117.406402 79.317982 
L 117.461093 79.510438 
L 117.515784 79.474727 
L 117.734548 79.25594 
L 117.789239 79.675551 
L 117.84393 79.620122 
L 119.211206 78.324313 
L 119.265897 78.449895 
L 119.320588 78.397025 
L 119.375279 78.367538 
L 119.42997 78.668143 
L 119.484661 78.626064 
L 120.578481 77.64725 
L 121.016009 77.265169 
L 121.125391 77.276229 
L 124.570925 74.758257 
L 125.39129 74.177329 
L 125.445981 74.617676 
L 125.500672 74.570737 
L 126.649183 73.891595 
L 126.703874 74.154932 
L 126.758565 74.120987 
L 127.469549 73.633136 
L 127.52424 74.144752 
L 127.578931 74.111309 
L 127.797695 73.975163 
L 127.852386 74.179553 
L 127.907077 74.143291 
L 128.946206 73.558534 
L 129.110279 73.533671 
L 129.219661 73.467194 
L 129.383734 74.574601 
L 130.586936 73.980003 
L 131.133846 73.754707 
L 131.243228 73.847686 
L 133.048032 73.203389 
L 133.102723 73.48772 
L 133.157414 73.472427 
L 133.430869 73.386366 
L 133.48556 73.69599 
L 133.540251 73.671913 
L 134.688762 73.302087 
L 139.064043 72.301445 
L 140.5407 72.057891 
L 141.743903 71.872533 
L 143.76747 71.635678 
L 146.392639 71.414497 
L 148.689661 71.304217 
L 151.588285 71.210374 
L 162.526487 71.03458 
L 176.472695 70.898491 
L 176.691459 71.050322 
L 177.074296 71.126698 
L 177.238369 71.177611 
L 179.590083 71.27943 
L 179.754156 71.330335 
L 180.629212 71.381238 
L 180.793285 71.457587 
L 181.285504 71.508482 
L 181.449577 71.584821 
L 181.832414 71.661153 
L 184.566965 71.761959 
L 184.731038 71.838275 
L 188.996937 71.938571 
L 189.270392 71.964005 
L 202.286853 72.035944 
L 202.450926 72.112226 
L 213.936038 72.155792 
L 214.100111 72.232048 
L 216.123679 72.28142 
L 216.287752 72.357663 
L 218.91292 72.432921 
L 219.076993 72.48374 
L 223.889802 72.585371 
L 224.053875 72.636182 
L 227.718173 72.712394 
L 227.882246 72.788599 
L 229.577668 72.888711 
L 229.741741 72.9649 
L 232.695055 73.014198 
L 232.859128 73.090373 
L 245.055224 73.19193 
L 245.328679 73.217317 
L 257.470084 73.291974 
L 257.634157 73.342741 
L 262.11882 73.417882 
L 262.282893 73.494019 
L 265.837809 73.594012 
L 266.111264 73.619386 
L 274.369606 73.690953 
L 274.533679 73.741689 
L 278.744887 73.814744 
L 278.90896 73.865469 
L 283.667078 73.96691 
L 283.831151 74.042984 
L 290.065927 74.092675 
L 290.23 74.168737 
L 291.378511 74.244792 
L 291.542584 74.320841 
L 296.792921 74.41605 
L 297.066376 74.441392 
L 300.183764 74.541202 
L 300.347837 74.617212 
L 301.168202 74.642029 
L 301.332275 74.794024 
L 305.707556 74.842601 
L 305.871629 74.943907 
L 307.238904 75.043109 
L 307.51236 75.067906 
L 310.903202 75.169181 
L 311.067275 75.270444 
L 317.684888 75.370115 
L 317.848961 75.471352 
L 322.388315 75.572579 
L 322.552388 75.648492 
L 325.779157 75.673795 
L 325.943231 75.775001 
L 326.599523 75.825599 
L 326.763596 75.901492 
L 330.974804 76.001601 
L 331.138877 76.052186 
L 332.068624 76.128058 
L 332.232697 76.229212 
L 335.787613 76.328734 
L 336.061068 76.354017 
L 343.553736 76.449727 
L 343.7725 76.626646 
L 350.77295 76.727728 
L 350.937023 76.778265 
L 354.874776 76.851878 
L 355.038849 76.927668 
L 361.929916 77.003453 
L 362.093989 77.079231 
L 372.047753 77.152249 
L 372.211827 77.202757 
L 375.821433 77.303212 
L 376.094888 77.327356 
L 378.282529 77.377299 
L 378.446602 77.453037 
L 382.985956 77.554012 
L 383.150029 77.629737 
L 387.908147 77.705455 
L 388.07222 77.75593 
L 398.627585 77.8294 
L 398.791658 77.93033 
L 415.581799 78.027875 
L 415.745872 78.103551 
L 423.949524 78.203314 
L 423.949524 78.203314 
" clip-path="url(#pbcd3bf5e64)" style="fill: none; stroke: #2ca02c; stroke-width: 1.8; stroke-linecap: square"/>
   </g>
   <g id="line2d_26">
    <path d="M 77.427273 36.121818 
L 77.919492 36.121818 
L 77.974183 93.561784 
L 78.028874 89.45294 
L 78.138256 82.540901 
L 78.192947 93.1422 
L 78.247638 89.769343 
L 78.411711 80.670643 
L 78.466402 103.408862 
L 78.521093 99.68305 
L 78.630475 93.81806 
L 78.794548 126.694435 
L 79.232076 103.249454 
L 79.286767 100.953663 
L 79.341458 116.160512 
L 79.396149 114.082058 
L 79.833677 100.647733 
L 79.99775 96.6748 
L 80.052441 105.713808 
L 80.107132 104.534683 
L 80.872806 89.235831 
L 80.927497 93.183402 
L 80.982188 92.716043 
L 81.146262 90.303057 
L 81.200953 94.077186 
L 81.255644 93.237053 
L 81.365026 91.743413 
L 81.419717 98.953171 
L 81.474408 97.963923 
L 82.076009 90.51351 
L 82.841683 82.18481 
L 82.896374 85.218154 
L 82.951065 84.710594 
L 83.77143 78.014857 
L 84.31834 74.641397 
L 84.373031 79.994801 
L 84.427722 79.630221 
L 84.701177 77.720978 
L 84.755868 81.118346 
L 84.810559 80.804102 
L 85.521542 76.981361 
L 85.576233 78.788372 
L 85.630925 78.496548 
L 85.959071 76.915467 
L 86.013762 78.6406 
L 86.068453 78.333827 
L 87.052891 73.787679 
L 87.381037 72.460852 
L 87.435728 76.337718 
L 87.490419 76.0908 
L 87.763874 74.9499 
L 87.818565 77.145209 
L 87.873256 76.97572 
L 88.420166 74.890203 
L 89.678059 70.864918 
L 90.443734 68.771904 
L 90.498425 71.066429 
L 90.553116 70.900826 
L 91.045335 69.654162 
L 91.920391 67.620977 
L 91.975082 69.591773 
L 92.029773 69.507313 
L 93.232975 66.971706 
L 93.670503 66.143331 
L 93.725194 68.319114 
L 93.779885 68.205099 
L 96.842582 63.13886 
L 96.897273 63.917155 
L 96.951964 63.839762 
L 97.717638 62.796356 
L 98.264548 62.034802 
L 99.303677 60.794833 
L 100.50688 59.473897 
L 101.655391 58.356686 
L 103.132048 57.060733 
L 104.225869 56.171047 
L 104.28056 56.576364 
L 104.335251 56.535314 
L 106.140054 55.259819 
L 107.616711 54.319901 
L 108.874605 53.575035 
L 109.476206 53.218751 
L 109.530897 54.229339 
L 109.585588 54.198519 
L 112.42952 52.703215 
L 114.890616 51.62445 
L 117.406402 50.639894 
L 117.461093 51.163307 
L 117.515784 51.148653 
L 121.891065 49.731711 
L 125.008453 48.920383 
L 125.063144 49.362961 
L 125.117835 49.349565 
L 125.9382 49.162221 
L 126.047582 49.45451 
L 126.922638 49.250097 
L 126.977329 49.650333 
L 127.03202 49.634687 
L 127.250785 49.588205 
L 127.305476 50.050183 
L 127.360167 50.035397 
L 129.875953 49.564935 
L 129.930644 49.949899 
L 130.040026 49.933854 
L 131.680756 49.66419 
L 132.829268 49.497699 
L 132.883959 50.025411 
L 132.993341 50.012111 
L 133.540251 49.932838 
L 133.704324 50.105289 
L 134.141852 50.047579 
L 134.305925 50.212779 
L 135.016908 50.119994 
L 135.180981 50.407952 
L 135.837273 50.321255 
L 136.001346 50.514228 
L 136.548257 50.448094 
L 136.71233 50.611812 
L 137.368622 50.530088 
L 137.532695 50.816544 
L 139.118734 50.642383 
L 139.282807 51.014577 
L 139.720335 50.969827 
L 139.884408 51.286132 
L 141.251684 51.147987 
L 141.415757 51.397535 
L 141.57983 51.381793 
L 141.743903 51.92716 
L 142.236122 51.87705 
L 142.400195 52.158277 
L 143.494015 52.051016 
L 143.658088 52.210731 
L 143.931543 52.177327 
L 144.095616 52.395147 
L 144.259689 52.383329 
L 144.423762 52.518857 
L 145.572273 52.416117 
L 145.736347 52.542312 
L 146.44733 52.474081 
L 146.611403 53.005226 
L 147.650532 52.911952 
L 147.814605 53.467331 
L 148.525588 53.400162 
L 148.744352 54.111917 
L 149.017807 54.080907 
L 149.072498 54.723924 
L 149.18188 54.710785 
L 151.041375 54.646768 
L 151.205448 54.940238 
L 152.682105 54.795818 
L 152.846178 54.972902 
L 153.666543 54.971815 
L 153.830616 55.30906 
L 154.213453 55.38464 
L 154.377526 55.669844 
L 154.59629 55.646359 
L 154.760363 56.093853 
L 155.690111 55.993626 
L 155.854184 56.329146 
L 156.237021 56.285618 
L 156.401094 56.59461 
L 157.002695 56.529594 
L 157.166768 56.680235 
L 157.494914 56.647228 
L 157.658987 56.900454 
L 157.932442 56.873006 
L 158.096515 57.447662 
L 158.315279 57.422242 
L 158.479352 57.750009 
L 159.135644 57.687173 
L 159.299717 57.883783 
L 159.409099 57.872855 
L 159.627864 58.227367 
L 159.901319 58.201214 
L 160.065392 58.453301 
L 160.120083 58.44709 
L 160.284156 58.670163 
L 160.557611 58.639501 
L 160.721684 58.837178 
L 160.885757 58.820497 
L 161.04983 58.966419 
L 161.104521 58.964521 
L 161.268594 59.080788 
L 161.815504 59.029441 
L 161.979577 59.254925 
L 162.14365 59.240571 
L 162.307723 59.384248 
L 162.964015 59.316171 
L 163.128088 59.803457 
L 164.550055 59.660276 
L 164.714128 59.936255 
L 166.354858 59.769486 
L 166.518931 60.036531 
L 167.175223 59.972294 
L 167.339296 60.138078 
L 167.995588 60.079263 
L 168.214352 60.597216 
L 168.925336 60.519491 
L 169.089409 60.737506 
L 169.800392 60.663559 
L 169.964465 60.955699 
L 170.23792 60.924921 
L 170.401993 61.135527 
L 170.675448 61.1016 
L 170.894212 61.565396 
L 172.42556 61.415515 
L 172.589633 61.676974 
L 173.300616 61.616069 
L 173.46469 61.80474 
L 173.956909 61.757508 
L 174.120982 61.968184 
L 174.285055 62.103937 
L 174.449128 62.083161 
L 174.613201 62.195515 
L 178.824409 61.859641 
L 179.043173 62.14257 
L 181.176122 62.004067 
L 181.340195 62.286583 
L 182.324633 62.218509 
L 182.488706 62.403188 
L 182.762162 62.385692 
L 182.926235 62.54717 
L 189.16101 62.390707 
L 189.379774 62.623449 
L 189.70792 62.606734 
L 189.871993 62.839496 
L 193.919128 62.655811 
L 194.137892 62.931989 
L 194.794184 62.898473 
L 194.958257 63.00958 
L 198.731937 62.888046 
L 203.599437 62.877563 
L 203.76351 62.992489 
L 205.623004 63.057957 
L 205.787078 63.149965 
L 208.466937 63.180105 
L 208.63101 63.270945 
L 213.49851 63.270766 
L 213.662583 63.339035 
L 215.303314 63.386167 
L 215.522078 63.43107 
L 215.959606 63.519843 
L 216.123679 63.61128 
L 216.506516 63.677729 
L 216.72528 63.792734 
L 217.873791 63.875246 
L 218.530083 64.056844 
L 219.186375 64.143655 
L 219.405139 64.25883 
L 226.514971 64.313817 
L 226.679044 64.405524 
L 227.827555 64.463282 
L 228.046319 64.60057 
L 229.194831 64.686252 
L 229.358904 64.778539 
L 230.616797 64.816434 
L 230.835561 64.953916 
L 232.093454 64.992796 
L 232.257527 65.061149 
L 232.749746 65.152271 
L 232.96851 65.267216 
L 234.609241 65.374638 
L 234.828005 65.51299 
L 237.343791 65.548085 
L 237.562555 65.593218 
L 242.320673 65.629819 
L 242.70351 65.675937 
L 251.125926 65.743306 
L 251.34469 65.789416 
L 255.719971 65.857852 
L 255.938735 65.903955 
L 261.900056 65.948966 
L 262.064129 66.018111 
L 264.142387 66.08725 
L 264.361151 66.133341 
L 269.775561 66.225148 
L 269.994325 66.27123 
L 271.033455 66.340351 
L 271.252219 66.386428 
L 327.966798 66.478206 
L 328.294944 66.501241 
L 402.073119 66.593006 
L 402.401265 66.616038 
L 419.41017 66.707789 
L 419.41017 66.707789 
" clip-path="url(#pbcd3bf5e64)" style="fill: none; stroke: #d62728; stroke-width: 1.8; stroke-linecap: square"/>
   </g>
   <g id="line2d_27">
    <path d="M 77.427273 36.121818 
L 77.536655 36.121818 
L 77.700728 183.293535 
L 77.919492 120.787366 
L 78.247638 88.132765 
L 78.302329 98.90475 
L 78.35702 95.465253 
L 78.794548 76.178636 
L 79.286767 65.25405 
L 79.943059 57.556905 
L 80.489969 53.713102 
L 81.200953 50.319546 
L 82.294773 47.237455 
L 83.005756 45.945434 
L 83.990194 44.56131 
L 85.740307 42.781767 
L 86.724745 42.042912 
L 87.982638 41.312767 
L 89.896823 40.524422 
L 94.326795 39.377092 
L 97.553565 38.848414 
L 101.327245 38.41419 
L 111.281009 37.743312 
L 119.922189 37.411893 
L 133.48556 37.114937 
L 138.735897 37.088377 
L 138.89997 37.209129 
L 139.118734 37.257425 
L 139.282807 37.35401 
L 139.392189 37.378155 
L 139.556262 37.49887 
L 146.44733 37.571238 
L 146.666094 37.619514 
L 148.470897 37.716059 
L 148.689661 37.764328 
L 152.135195 37.812595 
L 152.299268 37.88499 
L 159.299717 37.981416 
L 159.518481 38.029669 
L 160.120083 38.101995 
L 160.284156 38.198484 
L 169.089409 38.294937 
L 169.308173 38.343173 
L 171.441122 38.415522 
L 171.659886 38.463752 
L 172.808397 38.511979 
L 172.97247 38.584315 
L 175.761712 38.680755 
L 176.089858 38.704864 
L 179.043173 38.801123 
L 179.207246 38.897535 
L 181.887105 38.993866 
L 182.105869 39.042062 
L 187.629662 39.138334 
L 187.848426 39.186521 
L 188.832864 39.234589 
L 188.996937 39.306859 
L 192.442471 39.40317 
L 192.715926 39.523594 
L 196.106768 39.547591 
L 196.270841 39.643915 
L 197.692808 39.643915 
L 197.856881 39.764307 
L 203.872892 39.860468 
L 204.036965 39.932685 
L 209.396684 40.004898 
L 209.560757 40.101172 
L 210.76396 40.125239 
L 210.928033 40.221501 
L 214.647021 40.317438 
L 214.811094 40.413674 
L 218.36601 40.485844 
L 218.639465 40.60606 
L 220.553651 40.701979 
L 220.772415 40.750075 
L 221.866235 40.774064 
L 222.030308 40.870245 
L 226.952499 40.966356 
L 227.116572 41.038478 
L 231.819999 41.134192 
L 231.984072 41.206295 
L 234.718623 41.302293 
L 234.937387 41.446464 
L 236.523426 41.542566 
L 236.74219 41.590614 
L 240.023651 41.686422 
L 240.242415 41.73446 
L 243.852022 41.806156 
L 244.070786 41.878198 
L 248.555449 41.973953 
L 248.774213 42.021971 
L 250.633707 42.093993 
L 250.852471 42.142005 
L 254.790224 42.237639 
L 255.227752 42.30964 
L 257.579466 42.357482 
L 257.743539 42.477464 
L 263.21264 42.573277 
L 263.376713 42.669239 
L 265.947191 42.669239 
L 266.111264 42.789179 
L 271.361601 42.837067 
L 271.525674 42.909019 
L 272.346039 43.00486 
L 272.674185 43.02884 
L 277.541685 43.100428 
L 277.705758 43.172356 
L 278.690196 43.219949 
L 278.854269 43.315835 
L 279.893399 43.411711 
L 280.057472 43.483612 
L 285.253118 43.579098 
L 285.90941 43.746725 
L 289.354944 43.842262 
L 289.573708 43.89017 
L 290.175309 44.03388 
L 292.691095 44.081779 
L 292.855168 44.153622 
L 295.261573 44.248897 
L 295.425646 44.368604 
L 299.472781 44.39182 
L 299.636854 44.487564 
L 302.316713 44.559366 
L 302.480786 44.655094 
L 304.340281 44.750488 
L 304.559045 44.798342 
L 311.067275 44.86979 
L 311.286039 44.917636 
L 312.981461 44.941558 
L 313.145534 45.061159 
L 315.825393 45.156829 
L 316.044157 45.204661 
L 318.286489 45.252148 
L 318.450562 45.323884 
L 326.380759 45.39492 
L 326.708905 45.538356 
L 333.381208 45.633255 
L 333.599972 45.681053 
L 338.194017 45.752747 
L 338.35809 45.84833 
L 339.998821 45.920011 
L 340.162894 45.991687 
L 347.655562 46.039096 
L 347.819635 46.134647 
L 349.13222 46.230188 
L 349.460366 46.254072 
L 352.194916 46.349602 
L 352.358989 46.421243 
L 353.835647 46.492878 
L 353.99972 46.564508 
L 355.257613 46.660007 
L 355.585759 46.68388 
L 360.125113 46.754964 
L 360.343877 46.802703 
L 361.05486 46.826571 
L 361.218933 46.922039 
L 361.820534 47.017497 
L 361.984607 47.089084 
L 363.242501 47.184525 
L 363.570647 47.208384 
L 363.844102 47.255822 
L 364.008175 47.351244 
L 364.445703 47.422805 
L 364.664467 47.470509 
L 366.031742 47.54206 
L 366.195815 47.613606 
L 367.070871 47.708704 
L 367.289635 47.756392 
L 369.641349 47.779363 
L 369.805422 47.898562 
L 372.266518 47.945942 
L 372.485282 48.112783 
L 378.446602 48.208108 
L 378.774748 48.231938 
L 384.243849 48.326033 
L 384.571995 48.349857 
L 385.556433 48.421327 
L 385.775197 48.46897 
L 387.142473 48.540276 
L 387.361237 48.587913 
L 391.134917 48.659051 
L 391.29899 48.754308 
L 394.088231 48.825586 
L 394.252304 48.897017 
L 396.7134 48.968121 
L 396.877473 49.063344 
L 402.455956 49.110304 
L 402.620029 49.229307 
L 404.370141 49.300702 
L 404.534215 49.395887 
L 407.159383 49.490729 
L 407.378147 49.538312 
L 411.698737 49.585221 
L 411.86281 49.656584 
L 414.433288 49.704156 
L 414.597361 49.799294 
L 416.785001 49.894421 
L 417.003765 49.941293 
L 419.246097 50.01228 
L 419.41017 50.083605 
L 425.535563 50.154576 
L 425.754327 50.202119 
L 428.871715 50.29702 
L 429.035788 50.368322 
L 434.450198 50.368322 
L 434.614271 50.487146 
L 438.934861 50.581114 
L 439.098934 50.676146 
L 441.450648 50.676146 
L 441.614721 50.84243 
L 444.568035 50.913685 
L 444.786799 51.05618 
L 446.482221 51.151165 
L 446.700985 51.198654 
L 447.466659 51.24614 
L 447.630732 51.317365 
L 452.170086 51.412324 
L 452.38885 51.4598 
L 470.327502 51.553592 
L 470.491575 51.64852 
L 471.530704 51.695981 
L 471.694777 51.767167 
L 475.140311 51.790895 
L 475.304384 51.885799 
L 480.171884 51.980497 
L 480.390648 52.051661 
L 481.320395 52.121825 
L 481.59385 52.216689 
L 483.343963 52.287027 
L 483.508036 52.40558 
L 484.383092 52.476704 
L 484.601856 52.524118 
L 499.259047 52.618322 
L 499.477811 52.665726 
L 502.759272 52.712716 
L 502.923345 52.831208 
L 511.181688 52.925782 
L 511.400452 52.97317 
L 511.728598 52.996863 
L 513.424019 53.067938 
L 513.588092 53.139007 
L 514.955367 53.233759 
L 515.283513 53.257445 
L 517.908682 53.352185 
L 518.072755 53.423233 
L 519.604103 53.517956 
L 519.877558 53.636347 
L 522.229272 53.707156 
L 522.393345 53.801849 
L 526.112334 53.848972 
L 526.276407 53.919982 
L 527.588991 54.014653 
L 527.807755 54.132979 
L 530.596997 54.227629 
L 530.76107 54.32227 
L 535.355115 54.41622 
L 535.519188 54.487184 
L 536.995845 54.534491 
L 537.159918 54.605447 
L 537.980283 54.699816 
L 538.144356 54.770759 
L 541.972727 54.770064 
L 541.972727 54.770064 
" clip-path="url(#pbcd3bf5e64)" style="fill: none; stroke: #9467bd; stroke-width: 1.8; stroke-linecap: square"/>
   </g>
   <g id="patch_3">
    <path d="M 54.2 260.44 
L 54.2 25.44 
" style="fill: none; stroke: #000000; stroke-width: 0.8; stroke-linejoin: miter; stroke-linecap: square"/>
   </g>
   <g id="patch_4">
    <path d="M 565.2 260.44 
L 565.2 25.44 
" style="fill: none; stroke: #000000; stroke-width: 0.8; stroke-linejoin: miter; stroke-linecap: square"/>
   </g>
   <g id="patch_5">
    <path d="M 54.2 260.44 
L 565.2 260.44 
" style="fill: none; stroke: #000000; stroke-width: 0.8; stroke-linejoin: miter; stroke-linecap: square"/>
   </g>
   <g id="patch_6">
    <path d="M 54.2 25.44 
L 565.2 25.44 
" style="fill: none; stroke: #000000; stroke-width: 0.8; stroke-linejoin: miter; stroke-linecap: square"/>
   </g>
   <g id="text_14">
    <!-- Timely Transfer Rate (Cumulative) -->
    <g transform="translate(207.277187 19.44) scale(0.12 -0.12)">
     <defs>
      <path id="DejaVuSans-54" d="M -19 4666 
L 3928 4666 
L 3928 4134 
L 2272 4134 
L 2272 0 
L 1638 0 
L 1638 4134 
L -19 4134 
L -19 4666 
z
" transform="scale(0.015625)"/>
      <path id="DejaVuSans-52" d="M 2841 2188 
Q 3044 2119 3236 1894 
Q 3428 1669 3622 1275 
L 4263 0 
L 3584 0 
L 2988 1197 
Q 2756 1666 2539 1819 
Q 2322 1972 1947 1972 
L 1259 1972 
L 1259 0 
L 628 0 
L 628 4666 
L 2053 4666 
Q 2853 4666 3247 4331 
Q 3641 3997 3641 3322 
Q 3641 2881 3436 2590 
Q 3231 2300 2841 2188 
z
M 1259 4147 
L 1259 2491 
L 2053 2491 
Q 2509 2491 2742 2702 
Q 2975 2913 2975 3322 
Q 2975 3731 2742 3939 
Q 2509 4147 2053 4147 
L 1259 4147 
z
" transform="scale(0.015625)"/>
      <path id="DejaVuSans-28" d="M 1984 4856 
Q 1566 4138 1362 3434 
Q 1159 2731 1159 2009 
Q 1159 1288 1364 580 
Q 1569 -128 1984 -844 
L 1484 -844 
Q 1016 -109 783 600 
Q 550 1309 550 2009 
Q 550 2706 781 3412 
Q 1013 4119 1484 4856 
L 1984 4856 
z
" transform="scale(0.015625)"/>
      <path id="DejaVuSans-43" d="M 4122 4306 
L 4122 3641 
Q 3803 3938 3442 4084 
Q 3081 4231 2675 4231 
Q 1875 4231 1450 3742 
Q 1025 3253 1025 2328 
Q 1025 1406 1450 917 
Q 1875 428 2675 428 
Q 3081 428 3442 575 
Q 3803 722 4122 1019 
L 4122 359 
Q 3791 134 3420 21 
Q 3050 -91 2638 -91 
Q 1578 -91 968 557 
Q 359 1206 359 2328 
Q 359 3453 968 4101 
Q 1578 4750 2638 4750 
Q 3056 4750 3426 4639 
Q 3797 4528 4122 4306 
z
" transform="scale(0.015625)"/>
      <path id="DejaVuSans-29" d="M 513 4856 
L 1013 4856 
Q 1481 4119 1714 3412 
Q 1947 2706 1947 2009 
Q 1947 1309 1714 600 
Q 1481 -109 1013 -844 
L 513 -844 
Q 928 -128 1133 580 
Q 1338 1288 1338 2009 
Q 1338 2731 1133 3434 
Q 928 4138 513 4856 
z
" transform="scale(0.015625)"/>
     </defs>
     <use xlink:href="#DejaVuSans-54"/>
     <use xlink:href="#DejaVuSans-69" x="57.958984"/>
     <use xlink:href="#DejaVuSans-6d" x="85.742188"/>
     <use xlink:href="#DejaVuSans-65" x="183.154297"/>
     <use xlink:href="#DejaVuSans-6c" x="244.677734"/>
     <use xlink:href="#DejaVuSans-79" x="272.460938"/>
     <use xlink:href="#DejaVuSans-20" x="331.640625"/>
     <use xlink:href="#DejaVuSans-54" x="363.427734"/>
     <use xlink:href="#DejaVuSans-72" x="409.761719"/>
     <use xlink:href="#DejaVuSans-61" x="450.875"/>
     <use xlink:href="#DejaVuSans-6e" x="512.154297"/>
     <use xlink:href="#DejaVuSans-73" x="575.533203"/>
     <use xlink:href="#DejaVuSans-66" x="627.632812"/>
     <use xlink:href="#DejaVuSans-65" x="662.837891"/>
     <use xlink:href="#DejaVuSans-72" x="724.361328"/>
     <use xlink:href="#DejaVuSans-20" x="765.474609"/>
     <use xlink:href="#DejaVuSans-52" x="797.261719"/>
     <use xlink:href="#DejaVuSans-61" x="864.494141"/>
     <use xlink:href="#DejaVuSans-74" x="925.773438"/>
     <use xlink:href="#DejaVuSans-65" x="964.982422"/>
     <use xlink:href="#DejaVuSans-20" x="1026.505859"/>
     <use xlink:href="#DejaVuSans-28" x="1058.292969"/>
     <use xlink:href="#DejaVuSans-43" x="1097.306641"/>
     <use xlink:href="#DejaVuSans-75" x="1167.130859"/>
     <use xlink:href="#DejaVuSans-6d" x="1230.509766"/>
     <use xlink:href="#DejaVuSans-75" x="1327.921875"/>
     <use xlink:href="#DejaVuSans-6c" x="1391.300781"/>
     <use xlink:href="#DejaVuSans-61" x="1419.083984"/>
     <use xlink:href="#DejaVuSans-74" x="1480.363281"/>
     <use xlink:href="#DejaVuSans-69" x="1519.572266"/>
     <use xlink:href="#DejaVuSans-76" x="1547.355469"/>
     <use xlink:href="#DejaVuSans-65" x="1606.535156"/>
     <use xlink:href="#DejaVuSans-29" x="1668.058594"/>
    </g>
   </g>
   <g id="legend_1">
    <g id="patch_7">
     <path d="M 480.614062 255.44 
L 558.2 255.44 
Q 560.2 255.44 560.2 253.44 
L 560.2 180.493125 
Q 560.2 178.493125 558.2 178.493125 
L 480.614062 178.493125 
Q 478.614062 178.493125 478.614062 180.493125 
L 478.614062 253.44 
Q 478.614062 255.44 480.614062 255.44 
z
" style="fill: #ffffff; opacity: 0.8; stroke: #cccccc; stroke-linejoin: miter"/>
    </g>
    <g id="line2d_28">
     <path d="M 482.614062 186.591563 
L 492.614062 186.591563 
L 502.614062 186.591563 
" style="fill: none; stroke: #1f77b4; stroke-width: 1.8; stroke-linecap: square"/>
    </g>
    <g id="text_15">
     <!-- sheer -->
     <g transform="translate(510.614062 190.091563) scale(0.1 -0.1)">
      <defs>
       <path id="DejaVuSans-68" d="M 3513 2113 
L 3513 0 
L 2938 0 
L 2938 2094 
Q 2938 2591 2744 2837 
Q 2550 3084 2163 3084 
Q 1697 3084 1428 2787 
Q 1159 2491 1159 1978 
L 1159 0 
L 581 0 
L 581 4863 
L 1159 4863 
L 1159 2956 
Q 1366 3272 1645 3428 
Q 1925 3584 2291 3584 
Q 2894 3584 3203 3211 
Q 3513 2838 3513 2113 
z
" transform="scale(0.015625)"/>
      </defs>
      <use xlink:href="#DejaVuSans-73"/>
      <use xlink:href="#DejaVuSans-68" x="52.099609"/>
      <use xlink:href="#DejaVuSans-65" x="115.478516"/>
      <use xlink:href="#DejaVuSans-65" x="177.001953"/>
      <use xlink:href="#DejaVuSans-72" x="238.525391"/>
     </g>
    </g>
    <g id="line2d_29">
     <path d="M 482.614062 201.269688 
L 492.614062 201.269688 
L 502.614062 201.269688 
" style="fill: none; stroke: #ff7f0e; stroke-width: 1.8; stroke-linecap: square"/>
    </g>
    <g id="text_16">
     <!-- actar -->
     <g transform="translate(510.614062 204.769688) scale(0.1 -0.1)">
      <use xlink:href="#DejaVuSans-61"/>
      <use xlink:href="#DejaVuSans-63" x="61.279297"/>
      <use xlink:href="#DejaVuSans-74" x="116.259766"/>
      <use xlink:href="#DejaVuSans-61" x="155.46875"/>
      <use xlink:href="#DejaVuSans-72" x="216.748047"/>
     </g>
    </g>
    <g id="line2d_30">
     <path d="M 482.614062 215.947813 
L 492.614062 215.947813 
L 502.614062 215.947813 
" style="fill: none; stroke: #2ca02c; stroke-width: 1.8; stroke-linecap: square"/>
    </g>
    <g id="text_17">
     <!-- tfsm_dpc -->
     <g transform="translate(510.614062 219.447813) scale(0.1 -0.1)">
      <defs>
       <path id="DejaVuSans-5f" d="M 3263 -1063 
L 3263 -1509 
L -63 -1509 
L -63 -1063 
L 3263 -1063 
z
" transform="scale(0.015625)"/>
       <path id="DejaVuSans-70" d="M 1159 525 
L 1159 -1331 
L 581 -1331 
L 581 3500 
L 1159 3500 
L 1159 2969 
Q 1341 3281 1617 3432 
Q 1894 3584 2278 3584 
Q 2916 3584 3314 3078 
Q 3713 2572 3713 1747 
Q 3713 922 3314 415 
Q 2916 -91 2278 -91 
Q 1894 -91 1617 61 
Q 1341 213 1159 525 
z
M 3116 1747 
Q 3116 2381 2855 2742 
Q 2594 3103 2138 3103 
Q 1681 3103 1420 2742 
Q 1159 2381 1159 1747 
Q 1159 1113 1420 752 
Q 1681 391 2138 391 
Q 2594 391 2855 752 
Q 3116 1113 3116 1747 
z
" transform="scale(0.015625)"/>
      </defs>
      <use xlink:href="#DejaVuSans-74"/>
      <use xlink:href="#DejaVuSans-66" x="39.208984"/>
      <use xlink:href="#DejaVuSans-73" x="74.414062"/>
      <use xlink:href="#DejaVuSans-6d" x="126.513672"/>
      <use xlink:href="#DejaVuSans-5f" x="223.925781"/>
      <use xlink:href="#DejaVuSans-64" x="273.925781"/>
      <use xlink:href="#DejaVuSans-70" x="337.402344"/>
      <use xlink:href="#DejaVuSans-63" x="400.878906"/>
     </g>
    </g>
    <g id="line2d_31">
     <path d="M 482.614062 230.904063 
L 492.614062 230.904063 
L 502.614062 230.904063 
" style="fill: none; stroke: #d62728; stroke-width: 1.8; stroke-linecap: square"/>
    </g>
    <g id="text_18">
     <!-- dst_woa -->
     <g transform="translate(510.614062 234.404063) scale(0.1 -0.1)">
      <defs>
       <path id="DejaVuSans-77" d="M 269 3500 
L 844 3500 
L 1563 769 
L 2278 3500 
L 2956 3500 
L 3675 769 
L 4391 3500 
L 4966 3500 
L 4050 0 
L 3372 0 
L 2619 2869 
L 1863 0 
L 1184 0 
L 269 3500 
z
" transform="scale(0.015625)"/>
      </defs>
      <use xlink:href="#DejaVuSans-64"/>
      <use xlink:href="#DejaVuSans-73" x="63.476562"/>
      <use xlink:href="#DejaVuSans-74" x="115.576172"/>
      <use xlink:href="#DejaVuSans-5f" x="154.785156"/>
      <use xlink:href="#DejaVuSans-77" x="204.785156"/>
      <use xlink:href="#DejaVuSans-6f" x="286.572266"/>
      <use xlink:href="#DejaVuSans-61" x="347.753906"/>
     </g>
    </g>
    <g id="line2d_32">
     <path d="M 482.614062 245.860313 
L 492.614062 245.860313 
L 502.614062 245.860313 
" style="fill: none; stroke: #9467bd; stroke-width: 1.8; stroke-linecap: square"/>
    </g>
    <g id="text_19">
     <!-- trail -->
     <g transform="translate(510.614062 249.360313) scale(0.1 -0.1)">
      <use xlink:href="#DejaVuSans-74"/>
      <use xlink:href="#DejaVuSans-72" x="39.208984"/>
      <use xlink:href="#DejaVuSans-61" x="80.322266"/>
      <use xlink:href="#DejaVuSans-69" x="141.601562"/>
      <use xlink:href="#DejaVuSans-6c" x="169.384766"/>
     </g>
    </g>
   </g>
  </g>
 </g>
 <defs>
  <clipPath id="pbcd3bf5e64">
   <rect x="54.2" y="25.44" width="511" height="235"/>
  </clipPath>
 </defs>
</svg>
